<svg width="137" height="137" viewBox="0 0 137 137" fill="none" xmlns="http://www.w3.org/2000/svg">
<path d="M86.1237 57.4909L84.4 69.0139L77.7582 74.047L76.2499 84.1296L71.9467 78.4509L64.4747 84.1131L46.0322 59.7758L72.5992 39.6436L86.1237 57.4909Z" fill="white"/>
<path d="M41.9128 57.7894L39.7581 72.1931L61.8891 101.398L71.8517 93.8483L77.9992 101.961L80.1539 87.557L86.7957 82.524L90.6741 56.5972L73.4611 33.8824L41.9128 57.7894ZM86.1238 57.4913L84.4 69.0143L77.7583 74.0473L76.25 84.1299L71.9467 78.4512L64.4747 84.1134L46.0322 59.7761L72.5993 39.6439L86.1238 57.4913Z" fill="url(#paint0_linear_5855_13631)" fill-opacity="0.45"/>
<path d="M71.9209 49.0972L68.6 51.6138L75.977 61.3487L79.2979 58.8322L71.9209 49.0972Z" fill="url(#paint1_linear_5855_13631)" fill-opacity="0.45"/>
<path d="M62.7885 56.0177L59.4676 58.5342L66.8446 68.2692L70.1655 65.7526L62.7885 56.0177Z" fill="url(#paint2_linear_5855_13631)" fill-opacity="0.45"/>
<g filter="url(#filter0_ii_5855_13631)">
<circle cx="68.1225" cy="68.1225" r="50.7965" transform="rotate(-63.5057 68.1225 68.1225)" fill="url(#paint3_linear_5855_13631)" fill-opacity="0.36"/>
</g>
<defs>
<filter id="filter0_ii_5855_13631" x="17.3149" y="7.31488" width="101.615" height="115.615" filterUnits="userSpaceOnUse" color-interpolation-filters="sRGB">
<feFlood flood-opacity="0" result="BackgroundImageFix"/>
<feBlend mode="normal" in="SourceGraphic" in2="BackgroundImageFix" result="shape"/>
<feColorMatrix in="SourceAlpha" type="matrix" values="0 0 0 0 0 0 0 0 0 0 0 0 0 0 0 0 0 0 127 0" result="hardAlpha"/>
<feOffset dy="4"/>
<feGaussianBlur stdDeviation="2.5"/>
<feComposite in2="hardAlpha" operator="arithmetic" k2="-1" k3="1"/>
<feColorMatrix type="matrix" values="0 0 0 0 1 0 0 0 0 1 0 0 0 0 1 0 0 0 0.12 0"/>
<feBlend mode="normal" in2="shape" result="effect1_innerShadow_5855_13631"/>
<feColorMatrix in="SourceAlpha" type="matrix" values="0 0 0 0 0 0 0 0 0 0 0 0 0 0 0 0 0 0 127 0" result="hardAlpha"/>
<feOffset dy="-10"/>
<feGaussianBlur stdDeviation="5"/>
<feComposite in2="hardAlpha" operator="arithmetic" k2="-1" k3="1"/>
<feColorMatrix type="matrix" values="0 0 0 0 0.121569 0 0 0 0 0.658824 0 0 0 0 0.792157 0 0 0 0.26 0"/>
<feBlend mode="normal" in2="effect1_innerShadow_5855_13631" result="effect2_innerShadow_5855_13631"/>
</filter>
<linearGradient id="paint0_linear_5855_13631" x1="53.5359" y1="48.9816" x2="87.9619" y2="94.4112" gradientUnits="userSpaceOnUse">
<stop stop-color="#1FA8CA"/>
<stop offset="1" stop-color="#1FA8CA" stop-opacity="0.55"/>
</linearGradient>
<linearGradient id="paint1_linear_5855_13631" x1="70.2605" y1="50.3555" x2="77.6375" y2="60.0904" gradientUnits="userSpaceOnUse">
<stop stop-color="#1FA8CA"/>
<stop offset="1" stop-color="#1FA8CA" stop-opacity="0.55"/>
</linearGradient>
<linearGradient id="paint2_linear_5855_13631" x1="61.128" y1="57.276" x2="68.505" y2="67.0109" gradientUnits="userSpaceOnUse">
<stop stop-color="#1FA8CA"/>
<stop offset="1" stop-color="#1FA8CA" stop-opacity="0.55"/>
</linearGradient>
<linearGradient id="paint3_linear_5855_13631" x1="68.1225" y1="17.326" x2="68.1225" y2="118.919" gradientUnits="userSpaceOnUse">
<stop stop-color="white"/>
<stop offset="1" stop-color="#333333" stop-opacity="0"/>
</linearGradient>
</defs>
</svg>
