<svg width="135" height="135" viewBox="0 0 135 135" fill="none" xmlns="http://www.w3.org/2000/svg">
<g filter="url(#filter0_ii_5855_13636)">
<circle cx="67.4571" cy="67.4571" r="50.7965" transform="rotate(-24.8892 67.4571 67.4571)" fill="url(#paint0_linear_5855_13636)" fill-opacity="0.36"/>
</g>
<path fill-rule="evenodd" clip-rule="evenodd" d="M72.1749 45.551C70.6055 45.9301 68.5664 46.6154 67.3465 47.1814C64.0435 48.7139 64.4952 50.2495 65.5613 52.5473L67.4591 56.6377L75.7159 52.8069L78.9273 61.6139L71.3902 65.1108L83.3475 90.8832L73.0091 95.6797L61.0519 69.9073L55.7383 72.3726L51.8071 63.8995L57.1207 61.4342L54.6891 56.1932C51.3584 49.0143 52.8668 43.4278 61.3382 39.4975C64.2814 38.132 66.6355 37.5634 69.7016 36.8389L72.1749 45.551Z" fill="url(#paint1_linear_5855_13636)" fill-opacity="0.45"/>
<defs>
<filter id="filter0_ii_5855_13636" x="16.6484" y="6.6485" width="101.617" height="115.617" filterUnits="userSpaceOnUse" color-interpolation-filters="sRGB">
<feFlood flood-opacity="0" result="BackgroundImageFix"/>
<feBlend mode="normal" in="SourceGraphic" in2="BackgroundImageFix" result="shape"/>
<feColorMatrix in="SourceAlpha" type="matrix" values="0 0 0 0 0 0 0 0 0 0 0 0 0 0 0 0 0 0 127 0" result="hardAlpha"/>
<feOffset dy="4"/>
<feGaussianBlur stdDeviation="2.5"/>
<feComposite in2="hardAlpha" operator="arithmetic" k2="-1" k3="1"/>
<feColorMatrix type="matrix" values="0 0 0 0 1 0 0 0 0 1 0 0 0 0 1 0 0 0 0.12 0"/>
<feBlend mode="normal" in2="shape" result="effect1_innerShadow_5855_13636"/>
<feColorMatrix in="SourceAlpha" type="matrix" values="0 0 0 0 0 0 0 0 0 0 0 0 0 0 0 0 0 0 127 0" result="hardAlpha"/>
<feOffset dy="-10"/>
<feGaussianBlur stdDeviation="5"/>
<feComposite in2="hardAlpha" operator="arithmetic" k2="-1" k3="1"/>
<feColorMatrix type="matrix" values="0 0 0 0 0.121569 0 0 0 0 0.658824 0 0 0 0 0.792157 0 0 0 0.32 0"/>
<feBlend mode="normal" in2="effect1_innerShadow_5855_13636" result="effect2_innerShadow_5855_13636"/>
</filter>
<linearGradient id="paint0_linear_5855_13636" x1="67.4571" y1="16.6607" x2="67.4571" y2="118.254" gradientUnits="userSpaceOnUse">
<stop stop-color="white"/>
<stop offset="1" stop-color="#333333" stop-opacity="0"/>
</linearGradient>
<linearGradient id="paint1_linear_5855_13636" x1="56.7072" y1="41.6461" x2="80.2235" y2="92.3326" gradientUnits="userSpaceOnUse">
<stop stop-color="#1FA8CA"/>
<stop offset="1" stop-color="#1FA8CA" stop-opacity="0.32"/>
</linearGradient>
</defs>
</svg>
