<svg width="132" height="132" viewBox="0 0 132 132" fill="none" xmlns="http://www.w3.org/2000/svg">
<rect x="93" y="105" width="4" height="4" rx="2" fill="#DB47BB" fill-opacity="0.32"/>
<path d="M92.3692 70.0012C90.5645 71.649 87.7656 71.5219 86.1178 69.7172C84.4699 67.9125 84.597 65.1137 86.4017 63.4658C88.2064 61.8179 91.0052 61.945 92.6531 63.7497C94.301 65.5544 94.1739 68.3533 92.3692 70.0012Z" fill="url(#paint0_linear_5855_13634)" fill-opacity="0.45"/>
<path fill-rule="evenodd" clip-rule="evenodd" d="M55.5712 75.6384C61.0641 81.654 70.3937 82.0777 76.4093 76.5847C82.425 71.0918 82.8487 61.7622 77.3557 55.7466C71.8628 49.7309 62.5332 49.3072 56.5175 54.8002C50.5019 60.2931 50.0782 69.6227 55.5712 75.6384ZM59.9281 71.66C63.2239 75.2694 68.8216 75.5236 72.431 72.2278C76.0404 68.932 76.2946 63.3343 72.9988 59.7249C69.703 56.1155 64.1053 55.8613 60.4959 59.1571C56.8865 62.4529 56.6323 68.0506 59.9281 71.66Z" fill="url(#paint1_linear_5855_13634)" fill-opacity="0.45"/>
<path fill-rule="evenodd" clip-rule="evenodd" d="M47.443 43.1122C54.7633 36.428 58.4235 33.0858 62.5203 31.9574C66.124 30.9648 69.9494 31.1385 73.4482 32.4537C77.4259 33.9488 80.7681 37.609 87.4523 44.9293L89.0437 46.672C95.7279 53.9923 99.0701 57.6525 100.198 61.7493C101.191 65.353 101.017 69.1784 99.7022 72.6773C98.2071 76.6549 94.5469 79.9971 87.2266 86.6813L85.4839 88.2727C78.1636 94.9569 74.5034 98.2991 70.4066 99.4275C66.8029 100.42 62.9775 100.246 59.4786 98.9312C55.501 97.4361 52.1588 93.7759 45.4746 86.4556L43.8832 84.7129C37.199 77.3926 33.8568 73.7324 32.7284 69.6356C31.7358 66.0319 31.9095 62.2065 33.2247 58.7077C34.7198 54.73 38.38 51.3878 45.7003 44.7036L47.443 43.1122ZM83.0954 48.9076L84.6868 50.6504C88.0945 54.3824 90.4077 56.9225 92.0381 59.0298C93.6262 61.0825 94.2353 62.3176 94.5103 63.3161C95.1721 65.7185 95.0562 68.2688 94.1795 70.6014C93.8151 71.5708 93.0965 72.7456 91.3289 74.6458C89.5142 76.5967 86.9803 78.9166 83.2483 82.3244L81.5055 83.9158C77.7735 87.3235 75.2334 89.6367 73.1261 91.2671C71.0734 92.8552 69.8383 93.4643 68.8398 93.7393C66.4374 94.4011 63.8871 94.2852 61.5545 93.4085C60.5851 93.0441 59.4103 92.3255 57.5101 90.5579C55.5592 88.7432 53.2393 86.2093 49.8315 82.4773L48.2401 80.7345C44.8324 77.0025 42.5192 74.4624 40.8888 72.3551C39.3007 70.3024 38.6916 69.0673 38.4166 68.0688C37.7548 65.6664 37.8707 63.1161 38.7474 60.7836C39.1118 59.8141 39.8304 58.6393 41.598 56.7391C43.4127 54.7882 45.9466 52.4683 49.6786 49.0605L51.4214 47.4691C55.1534 44.0614 57.6935 41.7482 59.8008 40.1178C61.8535 38.5297 63.0886 37.9206 64.0871 37.6456C66.4895 36.9838 69.0398 37.0997 71.3723 37.9764C72.3418 38.3408 73.5166 39.0594 75.4168 40.827C77.3677 42.6417 79.6876 45.1756 83.0954 48.9076Z" fill="url(#paint2_linear_5855_13634)" fill-opacity="0.45"/>
<g filter="url(#filter0_ii_5855_13634)">
<path d="M113.096 84.1628C102.928 110.31 73.4896 123.263 47.3428 113.096C21.196 102.929 8.24218 73.49 18.4096 47.3432C28.5771 21.1964 58.0156 8.24254 84.1625 18.41C110.309 28.5775 123.263 58.016 113.096 84.1628Z" fill="url(#paint3_linear_5855_13634)" fill-opacity="0.36"/>
</g>
<defs>
<filter id="filter0_ii_5855_13634" x="14.9425" y="4.94287" width="101.62" height="115.62" filterUnits="userSpaceOnUse" color-interpolation-filters="sRGB">
<feFlood flood-opacity="0" result="BackgroundImageFix"/>
<feBlend mode="normal" in="SourceGraphic" in2="BackgroundImageFix" result="shape"/>
<feColorMatrix in="SourceAlpha" type="matrix" values="0 0 0 0 0 0 0 0 0 0 0 0 0 0 0 0 0 0 127 0" result="hardAlpha"/>
<feOffset dy="4"/>
<feGaussianBlur stdDeviation="2.5"/>
<feComposite in2="hardAlpha" operator="arithmetic" k2="-1" k3="1"/>
<feColorMatrix type="matrix" values="0 0 0 0 1 0 0 0 0 1 0 0 0 0 1 0 0 0 0.12 0"/>
<feBlend mode="normal" in2="shape" result="effect1_innerShadow_5855_13634"/>
<feColorMatrix in="SourceAlpha" type="matrix" values="0 0 0 0 0 0 0 0 0 0 0 0 0 0 0 0 0 0 127 0" result="hardAlpha"/>
<feOffset dy="-10"/>
<feGaussianBlur stdDeviation="5"/>
<feComposite in2="hardAlpha" operator="arithmetic" k2="-1" k3="1"/>
<feColorMatrix type="matrix" values="0 0 0 0 0.121569 0 0 0 0 0.658824 0 0 0 0 0.792157 0 0 0 0.26 0"/>
<feBlend mode="normal" in2="effect1_innerShadow_5855_13634" result="effect2_innerShadow_5855_13634"/>
</filter>
<linearGradient id="paint0_linear_5855_13634" x1="88.248" y1="45.8007" x2="44.6789" y2="85.5842" gradientUnits="userSpaceOnUse">
<stop stop-color="#1FA8CA"/>
<stop offset="1" stop-color="#1FA8CA" stop-opacity="0.32"/>
</linearGradient>
<linearGradient id="paint1_linear_5855_13634" x1="88.248" y1="45.8007" x2="44.6789" y2="85.5842" gradientUnits="userSpaceOnUse">
<stop stop-color="#1FA8CA"/>
<stop offset="1" stop-color="#1FA8CA" stop-opacity="0.32"/>
</linearGradient>
<linearGradient id="paint2_linear_5855_13634" x1="88.248" y1="45.8007" x2="44.6789" y2="85.5842" gradientUnits="userSpaceOnUse">
<stop stop-color="#1FA8CA"/>
<stop offset="1" stop-color="#1FA8CA" stop-opacity="0.32"/>
</linearGradient>
<linearGradient id="paint3_linear_5855_13634" x1="82.1393" y1="17.5738" x2="45.3197" y2="112.26" gradientUnits="userSpaceOnUse">
<stop stop-color="white"/>
<stop offset="1" stop-color="#333333" stop-opacity="0"/>
</linearGradient>
</defs>
</svg>
