<svg width="142" height="142" viewBox="0 0 142 142" fill="none" xmlns="http://www.w3.org/2000/svg">
<g filter="url(#filter0_ii_5855_13628)">
<circle cx="70.734" cy="70.734" r="50.7965" transform="rotate(-55.0536 70.734 70.734)" fill="url(#paint0_linear_5855_13628)" fill-opacity="0.36"/>
</g>
<path d="M77.4419 46.3516L74.8531 47.7691L68.1788 44.4351C67.6546 44.1648 67.0368 44.1816 66.5222 44.4633L51.6486 52.6072C51.1341 52.8889 50.8032 53.3916 50.7325 53.9877L49.9459 61.4068L47.3571 62.8242C43.3211 65.0341 41.876 70.2199 44.1425 74.3595L56.1256 96.2449C58.3922 100.385 63.5397 101.961 67.5757 99.7507L97.6445 83.2869C101.68 81.0771 103.126 75.8913 100.859 71.7517L88.8759 49.8663C86.6254 45.7179 81.4779 44.1418 77.4419 46.3516ZM78.4903 83.9565C72.5248 87.2228 64.9668 84.9087 61.6166 78.79C58.2664 72.6713 60.3882 65.057 66.3537 61.7907C72.3193 58.5243 79.8773 60.8385 83.2275 66.9572C86.5777 73.0759 84.4559 80.6901 78.4903 83.9565Z" fill="url(#paint1_linear_5855_13628)" fill-opacity="0.45"/>
<defs>
<filter id="filter0_ii_5855_13628" x="19.9331" y="9.93311" width="101.602" height="115.602" filterUnits="userSpaceOnUse" color-interpolation-filters="sRGB">
<feFlood flood-opacity="0" result="BackgroundImageFix"/>
<feBlend mode="normal" in="SourceGraphic" in2="BackgroundImageFix" result="shape"/>
<feColorMatrix in="SourceAlpha" type="matrix" values="0 0 0 0 0 0 0 0 0 0 0 0 0 0 0 0 0 0 127 0" result="hardAlpha"/>
<feOffset dy="4"/>
<feGaussianBlur stdDeviation="2.5"/>
<feComposite in2="hardAlpha" operator="arithmetic" k2="-1" k3="1"/>
<feColorMatrix type="matrix" values="0 0 0 0 1 0 0 0 0 1 0 0 0 0 1 0 0 0 0.12 0"/>
<feBlend mode="normal" in2="shape" result="effect1_innerShadow_5855_13628"/>
<feColorMatrix in="SourceAlpha" type="matrix" values="0 0 0 0 0 0 0 0 0 0 0 0 0 0 0 0 0 0 127 0" result="hardAlpha"/>
<feOffset dy="-10"/>
<feGaussianBlur stdDeviation="5"/>
<feComposite in2="hardAlpha" operator="arithmetic" k2="-1" k3="1"/>
<feColorMatrix type="matrix" values="0 0 0 0 0.121569 0 0 0 0 0.658824 0 0 0 0 0.792157 0 0 0 0.26 0"/>
<feBlend mode="normal" in2="effect1_innerShadow_5855_13628" result="effect2_innerShadow_5855_13628"/>
</filter>
<linearGradient id="paint0_linear_5855_13628" x1="70.734" y1="19.9375" x2="70.734" y2="121.53" gradientUnits="userSpaceOnUse">
<stop stop-color="white"/>
<stop offset="1" stop-color="#333333" stop-opacity="0"/>
</linearGradient>
<linearGradient id="paint1_linear_5855_13628" x1="59.0774" y1="48.5396" x2="82.6101" y2="91.5188" gradientUnits="userSpaceOnUse">
<stop stop-color="#1FA8CA"/>
<stop offset="1" stop-color="#1FA8CA" stop-opacity="0.32"/>
</linearGradient>
</defs>
</svg>
