<svg width="189" height="189" viewBox="0 0 189 189" fill="none" xmlns="http://www.w3.org/2000/svg">
<path fill-rule="evenodd" clip-rule="evenodd" d="M95.929 66.7573C92.2004 67.9977 89.4597 70.6027 88.2376 72.4237C87.1043 74.1122 85.6686 76.5507 84.6566 78.3111C84.3205 78.8957 83.7726 79.4724 82.9532 79.6721C82.1238 79.8743 81.3592 79.6075 80.778 79.2174C79.9388 78.6541 79.5132 77.9087 79.241 77.4318L79.2094 77.3765C78.9052 76.8452 78.736 76.5796 78.3839 76.3432C78.0636 76.1282 77.5771 76.0078 77.0931 76.0587C76.6024 76.1103 76.3388 76.3062 76.2401 76.4533C76.0391 76.7527 76.0025 77.0385 76.2195 77.5651C76.4757 78.1869 76.9809 78.8642 77.6513 79.7402L77.7096 79.8164C78.2665 80.5436 78.9562 81.4443 79.3562 82.3701C79.8051 83.4093 79.9867 84.717 79.1414 85.9764C78.9198 86.3066 78.6181 86.565 78.3736 86.75C78.1082 86.9507 77.8013 87.1449 77.4803 87.3284C76.837 87.6962 76.0495 88.0706 75.2275 88.4173C73.5965 89.1052 71.6798 89.7464 70.2603 90.0207C68.8253 90.298 66.8853 90.3902 65.0722 90.2611C64.1592 90.1961 63.2432 90.0727 62.4131 89.8744C61.6701 89.6969 60.9131 89.4404 60.2804 89.0551C60.2606 89.0514 60.2383 89.048 60.2144 89.0454C60.1762 89.0411 60.139 89.0392 60.1051 89.0397L60.0876 89.0402C60.0784 89.0589 60.0726 89.0733 60.0688 89.0838C60.0604 89.1069 60.0567 89.125 60.0547 89.145C60.0486 89.2061 60.0529 89.2818 60.0925 89.555L60.1029 89.6268C60.1733 90.1202 60.5878 90.9774 61.43 92.0604C62.232 93.0918 63.2854 94.155 64.3607 95.0402C64.8988 95.4831 64.9813 96.0773 64.9875 96.3718C64.9938 96.6749 64.9304 96.948 64.8818 97.1249C64.7878 97.4671 64.6273 97.8587 64.5008 98.1676L64.4816 98.2146C64.3092 98.6357 64.1634 98.9967 64.0726 99.3194C64.0406 99.4335 64.0211 99.5236 64.0103 99.5923C64.0609 99.6356 64.141 99.6983 64.2633 99.7797C64.794 100.133 65.3785 100.407 65.9467 100.694C66.8557 101.152 67.9805 101.72 69.0797 102.458C71.629 104.169 72.5147 106.484 73.3703 108.721L73.4183 108.847C73.7351 109.675 74.0528 110.503 74.453 111.372C75.5808 113.819 77.0395 114.786 78.1053 115.492C78.1803 115.542 78.2534 115.59 78.3242 115.638C78.3945 115.685 78.4665 115.734 78.5406 115.784C79.61 116.511 81.1062 117.527 83.7975 117.644C84.7527 117.685 85.6402 117.665 86.5261 117.645L86.6605 117.641C89.0549 117.586 91.5336 117.528 94.0829 119.239C95.1821 119.977 96.1336 120.803 96.9025 121.47L96.9257 121.49C97.5475 122.03 98.0038 122.423 98.386 122.682C98.5076 122.764 98.596 122.815 98.6552 122.845C98.7147 122.809 98.7907 122.757 98.8842 122.684C99.1484 122.478 99.4273 122.206 99.7517 121.887L99.7879 121.851C100.026 121.617 100.327 121.32 100.609 121.104C100.754 120.992 100.983 120.83 101.265 120.721C101.54 120.615 102.122 120.466 102.735 120.796C103.962 121.456 105.345 122.028 106.603 122.379C107.925 122.748 108.875 122.807 109.358 122.686L109.428 122.668C109.696 122.601 109.768 122.576 109.822 122.548C109.84 122.538 109.855 122.528 109.874 122.511C109.882 122.504 109.893 122.493 109.907 122.477L109.901 122.461C109.888 122.429 109.873 122.396 109.854 122.362C109.843 122.341 109.831 122.322 109.82 122.305C109.224 121.865 108.7 121.262 108.254 120.641C107.756 119.948 107.295 119.147 106.888 118.327C106.082 116.698 105.432 114.868 105.145 113.435C104.861 112.017 104.729 110 104.747 108.23C104.757 107.338 104.805 106.467 104.902 105.733C104.95 105.366 105.013 105.009 105.098 104.687C105.177 104.391 105.302 104.013 105.523 103.683C106.369 102.424 107.648 102.096 108.78 102.118C109.788 102.138 110.883 102.435 111.767 102.675L111.859 102.7C112.924 102.988 113.742 103.199 114.415 103.201C114.984 103.202 115.235 103.06 115.436 102.76C115.535 102.613 115.616 102.295 115.478 101.821C115.342 101.354 115.046 100.95 114.726 100.735C114.373 100.498 114.063 100.442 113.457 100.362L113.393 100.354C112.849 100.283 111.998 100.171 111.159 99.6079C110.577 99.2179 110.041 98.6114 109.914 97.7672C109.788 96.9332 110.114 96.2076 110.528 95.6751C111.774 94.0716 113.486 91.8191 114.62 90.1306C115.845 88.3049 117.23 84.7894 116.979 80.8805C116.733 77.0621 114.925 72.762 109.59 69.181C104.254 65.5997 99.5725 65.5452 95.929 66.7573Z" fill="url(#paint0_linear_5855_13626)" fill-opacity="0.45"/>
<g filter="url(#filter0_ii_5855_13626)">
<circle cx="94.4479" cy="94.4479" r="50.7965" transform="rotate(7.5171 94.4479 94.4479)" fill="url(#paint1_linear_5855_13626)" fill-opacity="0.36"/>
</g>
<defs>
<filter id="filter0_ii_5855_13626" x="43.6457" y="33.6457" width="101.605" height="115.605" filterUnits="userSpaceOnUse" color-interpolation-filters="sRGB">
<feFlood flood-opacity="0" result="BackgroundImageFix"/>
<feBlend mode="normal" in="SourceGraphic" in2="BackgroundImageFix" result="shape"/>
<feColorMatrix in="SourceAlpha" type="matrix" values="0 0 0 0 0 0 0 0 0 0 0 0 0 0 0 0 0 0 127 0" result="hardAlpha"/>
<feOffset dy="4"/>
<feGaussianBlur stdDeviation="2.5"/>
<feComposite in2="hardAlpha" operator="arithmetic" k2="-1" k3="1"/>
<feColorMatrix type="matrix" values="0 0 0 0 1 0 0 0 0 1 0 0 0 0 1 0 0 0 0.12 0"/>
<feBlend mode="normal" in2="shape" result="effect1_innerShadow_5855_13626"/>
<feColorMatrix in="SourceAlpha" type="matrix" values="0 0 0 0 0 0 0 0 0 0 0 0 0 0 0 0 0 0 127 0" result="hardAlpha"/>
<feOffset dy="-10"/>
<feGaussianBlur stdDeviation="5"/>
<feComposite in2="hardAlpha" operator="arithmetic" k2="-1" k3="1"/>
<feColorMatrix type="matrix" values="0 0 0 0 0.121569 0 0 0 0 0.658824 0 0 0 0 0.792157 0 0 0 0.26 0"/>
<feBlend mode="normal" in2="effect1_innerShadow_5855_13626" result="effect2_innerShadow_5855_13626"/>
</filter>
<linearGradient id="paint0_linear_5855_13626" x1="109.56" y1="69.1613" x2="78.3523" y2="115.659" gradientUnits="userSpaceOnUse">
<stop stop-color="#1FA8CA"/>
<stop offset="1" stop-color="#1FA8CA" stop-opacity="0.32"/>
</linearGradient>
<linearGradient id="paint1_linear_5855_13626" x1="94.4479" y1="43.6515" x2="94.4479" y2="145.244" gradientUnits="userSpaceOnUse">
<stop stop-color="white"/>
<stop offset="1" stop-color="#333333" stop-opacity="0"/>
</linearGradient>
</defs>
</svg>
