<svg width="131" height="131" viewBox="0 0 131 131" fill="none" xmlns="http://www.w3.org/2000/svg">
<path d="M87.4211 45.8226C88.078 42.9342 85.7428 40.415 83.2822 41.3576L34.2744 60.1323C32.5099 60.8082 32.3971 63.6416 34.1043 64.4047L43.5325 68.6192C45.3319 69.4235 47.3674 69.2565 49.0894 68.1632L72.3839 53.3733C73.0864 52.9273 73.7196 54.0196 73.1018 54.6116L55.8395 71.15C54.165 72.7543 54.2221 75.7157 55.9551 77.1376L72.5836 90.7816C74.4487 92.3119 77.1102 91.1552 77.7011 88.5574L87.4211 45.8226Z" fill="url(#paint0_linear_5855_13629)" fill-opacity="0.45"/>
<g filter="url(#filter0_ii_5855_13629)">
<circle cx="65.2356" cy="65.2357" r="50.7965" transform="rotate(-20.2448 65.2356 65.2357)" fill="url(#paint1_linear_5855_13629)" fill-opacity="0.36"/>
</g>
<defs>
<filter id="filter0_ii_5855_13629" x="14.4253" y="4.42548" width="101.621" height="115.621" filterUnits="userSpaceOnUse" color-interpolation-filters="sRGB">
<feFlood flood-opacity="0" result="BackgroundImageFix"/>
<feBlend mode="normal" in="SourceGraphic" in2="BackgroundImageFix" result="shape"/>
<feColorMatrix in="SourceAlpha" type="matrix" values="0 0 0 0 0 0 0 0 0 0 0 0 0 0 0 0 0 0 127 0" result="hardAlpha"/>
<feOffset dy="4"/>
<feGaussianBlur stdDeviation="2.5"/>
<feComposite in2="hardAlpha" operator="arithmetic" k2="-1" k3="1"/>
<feColorMatrix type="matrix" values="0 0 0 0 1 0 0 0 0 1 0 0 0 0 1 0 0 0 0.12 0"/>
<feBlend mode="normal" in2="shape" result="effect1_innerShadow_5855_13629"/>
<feColorMatrix in="SourceAlpha" type="matrix" values="0 0 0 0 0 0 0 0 0 0 0 0 0 0 0 0 0 0 127 0" result="hardAlpha"/>
<feOffset dy="-10"/>
<feGaussianBlur stdDeviation="5"/>
<feComposite in2="hardAlpha" operator="arithmetic" k2="-1" k3="1"/>
<feColorMatrix type="matrix" values="0 0 0 0 0.121569 0 0 0 0 0.658824 0 0 0 0 0.792157 0 0 0 0.26 0"/>
<feBlend mode="normal" in2="effect1_innerShadow_5855_13629" result="effect2_innerShadow_5855_13629"/>
</filter>
<linearGradient id="paint0_linear_5855_13629" x1="61.4176" y1="39.2234" x2="57.1548" y2="90.0268" gradientUnits="userSpaceOnUse">
<stop stop-color="#1FA8CA"/>
<stop offset="1" stop-color="#1FA8CA" stop-opacity="0.32"/>
</linearGradient>
<linearGradient id="paint1_linear_5855_13629" x1="65.2356" y1="14.4393" x2="65.2356" y2="116.032" gradientUnits="userSpaceOnUse">
<stop stop-color="white"/>
<stop offset="1" stop-color="#333333" stop-opacity="0"/>
</linearGradient>
</defs>
</svg>
