<svg width="102" height="102" viewBox="0 0 102 102" fill="none" xmlns="http://www.w3.org/2000/svg">
<g filter="url(#filter0_ii_5855_13632)">
<circle cx="50.8171" cy="50.8172" r="50.7965" transform="rotate(0.0233786 50.8171 50.8172)" fill="url(#paint0_linear_5855_13632)" fill-opacity="0.36"/>
</g>
<path d="M60.0199 27.9715L54.1976 27.9691L54.1849 59.2267C54.1844 60.3255 54.184 61.3851 53.8226 62.4435C53.2338 64.1326 51.9824 65.6577 50.315 66.3339C47.8119 67.3493 45.8557 67.2357 43.5226 65.6758C42.9434 65.2723 42.4341 64.7749 42.0152 64.2036C44.0031 65.2767 45.7827 65.2588 47.9878 64.365C49.6543 63.6887 50.9077 62.1637 51.4945 60.4736C51.8617 59.4181 51.8573 58.3556 51.8577 57.2578L51.8705 25.9942L59.9101 25.9975C59.9101 25.9975 59.8196 26.7745 60.0199 27.9715ZM71.0261 37.3039L71.0254 39.0433C70.0817 38.8157 69.1669 38.4792 68.2991 38.0406C66.6177 37.1913 65.3083 35.8084 65.0522 35.5287C65.3494 35.7261 65.6578 35.9058 65.9758 36.0667C68.02 37.0996 70.0334 37.4085 71.0261 37.3039Z" fill="#1FA8CA" fill-opacity="0.32"/>
<path d="M71.0255 39.0438L71.023 45.3191C71.023 45.3191 68.145 45.2014 66.0136 44.6407C63.039 43.8564 61.1264 42.6546 61.1264 42.6546C61.1264 42.6546 59.8068 41.7976 59.7001 41.7369L59.6933 58.2809C59.6929 59.202 59.4478 61.5031 58.7025 63.4203C57.7296 65.9306 56.2291 67.5773 55.9531 67.9139C55.9531 67.9139 54.1271 70.14 50.9094 71.6383C48.009 72.9898 45.4622 72.9545 44.6999 72.9885C44.6999 72.9885 40.2982 73.1668 36.3366 70.5057L36.3169 70.491C35.8987 70.0724 35.505 69.6304 35.1379 69.1671C33.874 67.5741 33.0997 65.6905 32.9051 65.1531C32.9048 65.1508 32.9048 65.1485 32.9051 65.1462C32.5921 64.2123 31.9346 61.9695 32.0254 59.7976C32.1862 55.9655 33.4922 53.614 33.8375 53.0249C34.752 51.4184 35.9411 49.9812 37.352 48.7772C38.597 47.7383 40.008 46.9119 41.5272 46.3319C43.1695 45.6507 44.928 45.286 46.7083 45.2573L46.7057 51.6098C46.7057 51.6098 43.4495 50.5416 40.8425 52.4297C39.0198 53.8267 38.0523 55.1898 37.7666 57.625C37.754 59.4172 38.1969 61.9535 40.6313 63.6459C40.9153 63.832 41.1941 63.9972 41.4675 64.1415C41.8927 64.7129 42.4103 65.2109 42.9994 65.6153C45.3775 67.1716 47.3707 67.2811 49.9199 66.2719C51.6197 65.5973 52.8997 64.0757 53.4936 62.3894C53.8667 61.3364 53.8622 60.2763 53.8627 59.18L53.8754 27.9948L59.8075 27.9972C60.0521 29.4371 60.7295 31.4871 62.5221 33.5179C63.2413 34.2847 64.0513 34.9627 64.9347 35.5372C65.1956 35.8162 66.5298 37.196 68.2428 38.0433C69.1286 38.4813 70.0623 38.8171 71.0255 39.0438V39.0438Z" fill="#1FA8CA" fill-opacity="0.62"/>
<path d="M37.4599 57.6463C37.7451 55.2094 38.7109 53.8453 40.5304 52.4473C43.1338 50.554 46.3844 51.6269 46.3844 51.6269L46.387 45.2698C47.1774 45.2492 47.968 45.298 48.7497 45.4157L48.7464 53.5967C48.7464 53.5967 45.4968 52.5238 42.8934 54.4181C41.0749 55.8151 40.1071 57.1802 39.8228 59.6171C39.8134 60.9404 40.0525 62.6704 41.1563 64.1666C40.8833 64.0215 40.6051 63.8561 40.3216 63.6706C37.8894 61.9779 37.4473 59.4398 37.4599 57.6463ZM62.1782 33.522C60.3887 31.4897 59.7124 29.4383 59.4683 27.9974L61.7205 27.9983C61.7205 27.9983 61.2699 31.7761 64.5411 35.4928L64.5865 35.5427C63.7047 34.9678 62.896 34.2893 62.1782 33.522ZM73.0254 39.286L73.0222 47.3024C73.0222 47.3024 70.1482 47.1847 68.0215 46.6235C65.0521 45.8387 63.1438 44.636 63.1438 44.636C63.1438 44.636 61.8256 43.7784 61.719 43.7186L61.7123 60.2725C61.7119 61.1943 61.4672 63.496 60.7232 65.4156C59.752 67.9267 58.2541 69.5746 57.9786 69.9115C57.9786 69.9115 56.1568 72.1391 52.9436 73.6384C50.0473 74.991 47.505 74.9556 46.745 74.9896C46.745 74.9896 42.35 75.168 38.3964 72.5051C37.5414 71.9181 36.7434 71.2534 36.0127 70.5196L36.0324 70.5343C39.987 73.1973 44.381 73.0188 44.381 73.0188C45.142 72.9849 47.6844 73.0202 50.5797 71.6677C53.7899 70.1683 55.6147 67.9407 55.6147 67.9407C55.8872 67.6038 57.392 65.9559 58.3593 63.4438C59.1013 61.5252 59.3479 59.2225 59.3483 58.3008L59.3551 41.7488C59.4616 41.8096 60.7789 42.6672 60.7789 42.6672C60.7789 42.6672 62.6881 43.8708 65.6576 44.6547C67.7852 45.2158 70.6582 45.3336 70.6582 45.3336L70.6608 39.0519C71.6437 39.2805 72.4816 39.3426 73.0254 39.286Z" fill="#1FA8CA" fill-opacity="0.62"/>
<path d="M41.1571 46.1143C39.7317 46.7113 38.4077 47.5619 37.2395 48.6312C35.9153 49.8731 34.7997 51.3554 33.9427 53.012C33.6187 53.6163 32.3932 56.0386 32.2422 59.9825C32.1569 62.2179 32.7738 64.5261 33.0675 65.4872C33.0671 65.4896 33.0671 65.4919 33.0675 65.4943C33.2528 66.0424 33.9765 67.9809 35.1623 69.6255C35.5067 70.1022 35.876 70.5571 36.2684 70.9879C35.0111 70.0428 33.8899 68.9002 32.9414 67.5977C31.7658 65.9723 31.0411 64.0539 30.8521 63.4877C30.8519 63.4836 30.8519 63.4796 30.8521 63.4756L30.8521 63.4685C30.5575 62.5083 29.9388 60.1991 30.026 57.9607C30.1769 54.0169 31.4024 51.5966 31.7264 50.9903C32.5832 49.3335 33.6988 47.8511 35.0232 46.6094C36.1912 45.5398 37.5152 44.6892 38.9408 44.0926C39.8301 43.6923 40.7564 43.3972 41.7037 43.2122C43.1315 42.9422 44.5896 42.9193 46.0239 43.1445L46.0231 45.0081C44.3511 45.0372 42.6995 45.4126 41.1571 46.1143Z" fill="#1FA8CA" fill-opacity="0.32"/>
<path d="M60.0199 27.9715L54.1976 27.9691L54.1849 59.2267C54.1844 60.3255 54.184 61.3851 53.8226 62.4435C53.2338 64.1326 51.9824 65.6577 50.315 66.3339C47.8119 67.3493 45.8557 67.2357 43.5226 65.6758C42.9434 65.2723 42.4341 64.7749 42.0152 64.2036C44.0031 65.2767 45.7827 65.2588 47.9878 64.365C49.6543 63.6887 50.9077 62.1637 51.4945 60.4736C51.8617 59.4181 51.8573 58.3556 51.8577 57.2578L51.8705 25.9942L59.9101 25.9975C59.9101 25.9975 59.8196 26.7745 60.0199 27.9715ZM71.0261 37.3039L71.0254 39.0433C70.0817 38.8157 69.1669 38.4792 68.2991 38.0406C66.6177 37.1913 65.3083 35.8084 65.0522 35.5287C65.3494 35.7261 65.6578 35.9058 65.9758 36.0667C68.02 37.0996 70.0334 37.4085 71.0261 37.3039Z" fill="#1FA8CA" fill-opacity="0.06"/>
<path d="M71.0255 39.0438L71.023 45.3191C71.023 45.3191 68.145 45.2014 66.0136 44.6407C63.039 43.8564 61.1264 42.6546 61.1264 42.6546C61.1264 42.6546 59.8068 41.7976 59.7001 41.7369L59.6933 58.2809C59.6929 59.202 59.4478 61.5031 58.7025 63.4203C57.7296 65.9306 56.2291 67.5773 55.9531 67.9139C55.9531 67.9139 54.1271 70.14 50.9094 71.6383C48.009 72.9898 45.4622 72.9545 44.6999 72.9885C44.6999 72.9885 40.2982 73.1668 36.3366 70.5057L36.3169 70.491C35.8987 70.0724 35.505 69.6304 35.1379 69.1671C33.874 67.5741 33.0997 65.6905 32.9051 65.1531C32.9048 65.1508 32.9048 65.1485 32.9051 65.1462C32.5921 64.2123 31.9346 61.9695 32.0254 59.7976C32.1862 55.9655 33.4922 53.614 33.8375 53.0249C34.752 51.4184 35.9411 49.9812 37.352 48.7772C38.597 47.7383 40.008 46.9119 41.5272 46.3319C43.1695 45.6507 44.928 45.286 46.7083 45.2573L46.7057 51.6098C46.7057 51.6098 43.4495 50.5416 40.8425 52.4297C39.0198 53.8267 38.0523 55.1898 37.7666 57.625C37.754 59.4172 38.1969 61.9535 40.6313 63.6459C40.9153 63.832 41.1941 63.9972 41.4675 64.1415C41.8927 64.7129 42.4103 65.2109 42.9994 65.6153C45.3775 67.1716 47.3707 67.2811 49.9199 66.2719C51.6197 65.5973 52.8997 64.0757 53.4936 62.3894C53.8667 61.3364 53.8622 60.2763 53.8627 59.18L53.8754 27.9948L59.8075 27.9972C60.0521 29.4371 60.7295 31.4871 62.5221 33.5179C63.2413 34.2847 64.0513 34.9627 64.9347 35.5372C65.1956 35.8162 66.5298 37.196 68.2428 38.0433C69.1286 38.4813 70.0623 38.8171 71.0255 39.0438V39.0438Z" fill="white" fill-opacity="0.92"/>
<path d="M37.4599 57.6463C37.7451 55.2094 38.7109 53.8453 40.5304 52.4473C43.1338 50.554 46.3844 51.6269 46.3844 51.6269L46.387 45.2698C47.1774 45.2492 47.968 45.298 48.7497 45.4157L48.7464 53.5967C48.7464 53.5967 45.4968 52.5238 42.8934 54.4181C41.0749 55.8151 40.1071 57.1802 39.8228 59.6171C39.8134 60.9404 40.0525 62.6704 41.1563 64.1666C40.8833 64.0215 40.6051 63.8561 40.3216 63.6706C37.8894 61.9779 37.4473 59.4398 37.4599 57.6463ZM62.1782 33.522C60.3887 31.4897 59.7124 29.4383 59.4683 27.9974L61.7205 27.9983C61.7205 27.9983 61.2699 31.7761 64.5411 35.4928L64.5865 35.5427C63.7047 34.9678 62.896 34.2893 62.1782 33.522ZM73.0254 39.286L73.0222 47.3024C73.0222 47.3024 70.1482 47.1847 68.0215 46.6235C65.0521 45.8387 63.1438 44.636 63.1438 44.636C63.1438 44.636 61.8256 43.7784 61.719 43.7186L61.7123 60.2725C61.7119 61.1943 61.4672 63.496 60.7232 65.4156C59.752 67.9267 58.2541 69.5746 57.9786 69.9115C57.9786 69.9115 56.1568 72.1391 52.9436 73.6384C50.0473 74.991 47.505 74.9556 46.745 74.9896C46.745 74.9896 42.35 75.168 38.3964 72.5051C37.5414 71.9181 36.7434 71.2534 36.0127 70.5196L36.0324 70.5343C39.987 73.1973 44.381 73.0188 44.381 73.0188C45.142 72.9849 47.6844 73.0202 50.5797 71.6677C53.7899 70.1683 55.6147 67.9407 55.6147 67.9407C55.8872 67.6038 57.392 65.9559 58.3593 63.4438C59.1013 61.5252 59.3479 59.2225 59.3483 58.3008L59.3551 41.7488C59.4616 41.8096 60.7789 42.6672 60.7789 42.6672C60.7789 42.6672 62.6881 43.8708 65.6576 44.6547C67.7852 45.2158 70.6582 45.3336 70.6582 45.3336L70.6608 39.0519C71.6437 39.2805 72.4816 39.3426 73.0254 39.286Z" fill="#1FA8CA" fill-opacity="0.49"/>
<defs>
<filter id="filter0_ii_5855_13632" x="0.0206299" y="-9.97925" width="101.593" height="115.593" filterUnits="userSpaceOnUse" color-interpolation-filters="sRGB">
<feFlood flood-opacity="0" result="BackgroundImageFix"/>
<feBlend mode="normal" in="SourceGraphic" in2="BackgroundImageFix" result="shape"/>
<feColorMatrix in="SourceAlpha" type="matrix" values="0 0 0 0 0 0 0 0 0 0 0 0 0 0 0 0 0 0 127 0" result="hardAlpha"/>
<feOffset dy="4"/>
<feGaussianBlur stdDeviation="2.5"/>
<feComposite in2="hardAlpha" operator="arithmetic" k2="-1" k3="1"/>
<feColorMatrix type="matrix" values="0 0 0 0 1 0 0 0 0 1 0 0 0 0 1 0 0 0 0.12 0"/>
<feBlend mode="normal" in2="shape" result="effect1_innerShadow_5855_13632"/>
<feColorMatrix in="SourceAlpha" type="matrix" values="0 0 0 0 0 0 0 0 0 0 0 0 0 0 0 0 0 0 127 0" result="hardAlpha"/>
<feOffset dy="-10"/>
<feGaussianBlur stdDeviation="5"/>
<feComposite in2="hardAlpha" operator="arithmetic" k2="-1" k3="1"/>
<feColorMatrix type="matrix" values="0 0 0 0 0.121569 0 0 0 0 0.658824 0 0 0 0 0.792157 0 0 0 0.32 0"/>
<feBlend mode="normal" in2="effect1_innerShadow_5855_13632" result="effect2_innerShadow_5855_13632"/>
</filter>
<linearGradient id="paint0_linear_5855_13632" x1="50.8171" y1="0.0207253" x2="50.8171" y2="101.614" gradientUnits="userSpaceOnUse">
<stop stop-color="white"/>
<stop offset="1" stop-color="#333333" stop-opacity="0"/>
</linearGradient>
</defs>
</svg>
