<svg width="141" height="141" viewBox="0 0 141 141" fill="none" xmlns="http://www.w3.org/2000/svg">
<path d="M40.1462 72.2731C40.2749 74.2484 41.4333 76.2659 43.75 80.3008L48.4383 88.466C50.755 92.5009 51.9134 94.5183 53.5545 95.6253C54.998 96.599 56.6921 97.0918 58.3942 97.033C60.3291 96.9661 62.2718 95.8506 66.1573 93.6197L77.8744 86.892C81.7598 84.6611 83.7026 83.5456 84.7358 81.9083C85.6446 80.468 86.0731 78.7564 85.9599 77.0189C85.8312 75.0436 84.6728 73.0261 82.356 68.9912L77.6678 60.826C75.351 56.7911 74.1926 54.7737 72.5516 53.6667C71.1081 52.693 69.4139 52.2002 67.7119 52.259C65.777 52.3259 63.8342 53.4414 59.9487 55.6723L48.2317 62.3999C44.3462 64.6309 42.4035 65.7464 41.3703 67.3837C40.4615 68.824 40.033 70.5355 40.1462 72.2731Z" fill="url(#paint0_linear_5855_13633)" fill-opacity="0.45"/>
<path d="M78.7728 56.6268L82.5597 45.6897C83.4379 43.1531 86.8576 42.9134 88.2237 45.2926L101.131 67.773C102.491 70.1409 100.584 72.9644 97.9601 72.4697L86.6757 70.3429C85.6152 70.143 84.6826 69.4729 84.1332 68.5161L79.0792 59.7138C78.5354 58.7668 78.4232 57.6365 78.7728 56.6268Z" fill="url(#paint1_linear_5855_13633)" fill-opacity="0.45"/>
<g filter="url(#filter0_ii_5855_13633)">
<circle cx="70.4654" cy="70.4654" r="50.7965" transform="rotate(-56.2146 70.4654 70.4654)" fill="url(#paint2_linear_5855_13633)" fill-opacity="0.36"/>
</g>
<defs>
<filter id="filter0_ii_5855_13633" x="19.6636" y="9.66364" width="101.604" height="115.604" filterUnits="userSpaceOnUse" color-interpolation-filters="sRGB">
<feFlood flood-opacity="0" result="BackgroundImageFix"/>
<feBlend mode="normal" in="SourceGraphic" in2="BackgroundImageFix" result="shape"/>
<feColorMatrix in="SourceAlpha" type="matrix" values="0 0 0 0 0 0 0 0 0 0 0 0 0 0 0 0 0 0 127 0" result="hardAlpha"/>
<feOffset dy="4"/>
<feGaussianBlur stdDeviation="2.5"/>
<feComposite in2="hardAlpha" operator="arithmetic" k2="-1" k3="1"/>
<feColorMatrix type="matrix" values="0 0 0 0 1 0 0 0 0 1 0 0 0 0 1 0 0 0 0.12 0"/>
<feBlend mode="normal" in2="shape" result="effect1_innerShadow_5855_13633"/>
<feColorMatrix in="SourceAlpha" type="matrix" values="0 0 0 0 0 0 0 0 0 0 0 0 0 0 0 0 0 0 127 0" result="hardAlpha"/>
<feOffset dy="-10"/>
<feGaussianBlur stdDeviation="5"/>
<feComposite in2="hardAlpha" operator="arithmetic" k2="-1" k3="1"/>
<feColorMatrix type="matrix" values="0 0 0 0 0.121569 0 0 0 0 0.658824 0 0 0 0 0.792157 0 0 0 0.26 0"/>
<feBlend mode="normal" in2="effect1_innerShadow_5855_13633" result="effect2_innerShadow_5855_13633"/>
</filter>
<linearGradient id="paint0_linear_5855_13633" x1="61.4134" y1="54.8314" x2="79.339" y2="86.0511" gradientUnits="userSpaceOnUse">
<stop stop-color="#1FA8CA"/>
<stop offset="1" stop-color="#1FA8CA" stop-opacity="0.32"/>
</linearGradient>
<linearGradient id="paint1_linear_5855_13633" x1="61.4134" y1="54.8314" x2="79.339" y2="86.0511" gradientUnits="userSpaceOnUse">
<stop stop-color="#1FA8CA"/>
<stop offset="1" stop-color="#1FA8CA" stop-opacity="0.32"/>
</linearGradient>
<linearGradient id="paint2_linear_5855_13633" x1="70.4654" y1="19.669" x2="70.4654" y2="121.262" gradientUnits="userSpaceOnUse">
<stop stop-color="white"/>
<stop offset="1" stop-color="#333333" stop-opacity="0"/>
</linearGradient>
</defs>
</svg>
