<svg width="143" height="143" viewBox="0 0 143 143" fill="none" xmlns="http://www.w3.org/2000/svg">
<g filter="url(#filter0_ii_5855_13637)">
<circle cx="71.4016" cy="71.4014" r="50.7965" transform="rotate(-38.6883 71.4016 71.4014)" fill="url(#paint0_linear_5855_13637)" fill-opacity="0.36"/>
</g>
<path d="M68.2676 63.8683L68.6542 44.5569L73.0517 41.0353L72.5666 65.2074L101.848 74.3445L90.9067 83.1067L72.3211 77.307L71.9012 98.3266L67.5037 101.848L68.0275 75.9637L40.2546 67.2998L51.1961 58.5376L68.2676 63.8683ZM89.6447 78.2234L92.513 75.9263L52.4638 63.4264L49.5954 65.7235L89.6447 78.2234Z" fill="#1FA8CA" fill-opacity="0.18"/>
<path d="M68.2678 62.8678L68.6537 43.557L73.0512 40.0354L72.5674 64.2077L101.848 73.344L90.9069 82.1062L72.3205 76.3071L71.9014 97.3261L67.5039 100.848L68.0269 74.9638L40.254 66.2999L51.1963 57.5371L68.2678 62.8678ZM89.6441 77.2235L92.5125 74.9264L52.4632 62.4265L49.5948 64.7236L89.6441 77.2235Z" fill="#1FA8CA" fill-opacity="0.18"/>
<defs>
<filter id="filter0_ii_5855_13637" x="20.6033" y="10.6031" width="101.597" height="115.597" filterUnits="userSpaceOnUse" color-interpolation-filters="sRGB">
<feFlood flood-opacity="0" result="BackgroundImageFix"/>
<feBlend mode="normal" in="SourceGraphic" in2="BackgroundImageFix" result="shape"/>
<feColorMatrix in="SourceAlpha" type="matrix" values="0 0 0 0 0 0 0 0 0 0 0 0 0 0 0 0 0 0 127 0" result="hardAlpha"/>
<feOffset dy="4"/>
<feGaussianBlur stdDeviation="2.5"/>
<feComposite in2="hardAlpha" operator="arithmetic" k2="-1" k3="1"/>
<feColorMatrix type="matrix" values="0 0 0 0 1 0 0 0 0 1 0 0 0 0 1 0 0 0 0.12 0"/>
<feBlend mode="normal" in2="shape" result="effect1_innerShadow_5855_13637"/>
<feColorMatrix in="SourceAlpha" type="matrix" values="0 0 0 0 0 0 0 0 0 0 0 0 0 0 0 0 0 0 127 0" result="hardAlpha"/>
<feOffset dy="-10"/>
<feGaussianBlur stdDeviation="5"/>
<feComposite in2="hardAlpha" operator="arithmetic" k2="-1" k3="1"/>
<feColorMatrix type="matrix" values="0 0 0 0 0.121569 0 0 0 0 0.658824 0 0 0 0 0.792157 0 0 0 0.32 0"/>
<feBlend mode="normal" in2="effect1_innerShadow_5855_13637" result="effect2_innerShadow_5855_13637"/>
</filter>
<linearGradient id="paint0_linear_5855_13637" x1="71.4016" y1="20.605" x2="71.4016" y2="122.198" gradientUnits="userSpaceOnUse">
<stop stop-color="white"/>
<stop offset="1" stop-color="#333333" stop-opacity="0"/>
</linearGradient>
</defs>
</svg>
