<svg width="21" height="20" viewBox="0 0 21 20" fill="none" xmlns="http://www.w3.org/2000/svg">
<path d="M11.9596 6.45898C11.9596 6.1138 11.6798 5.83398 11.3346 5.83398C10.9894 5.83398 10.7096 6.1138 10.7096 6.45898C10.7096 8.48048 10.263 9.79336 9.44521 10.6112C8.62736 11.4291 7.31447 11.8757 5.29297 11.8757C4.94779 11.8757 4.66797 12.1555 4.66797 12.5007C4.66797 12.8458 4.94779 13.1257 5.29297 13.1257C7.31447 13.1257 8.62736 13.5722 9.44521 14.3901C10.263 15.2079 10.7096 16.5208 10.7096 18.5423C10.7096 18.8875 10.9894 19.1673 11.3346 19.1673C11.6798 19.1673 11.9596 18.8875 11.9596 18.5423C11.9596 16.5208 12.4062 15.2079 13.224 14.3901C14.0419 13.5722 15.3548 13.1257 17.3763 13.1257C17.7215 13.1257 18.0013 12.8458 18.0013 12.5007C18.0013 12.1555 17.7215 11.8757 17.3763 11.8757C15.3548 11.8757 14.0419 11.4291 13.224 10.6112C12.4062 9.79336 11.9596 8.48048 11.9596 6.45898Z" fill="white" fill-opacity="0.9"/>
<path d="M5.5013 4.58269C5.5013 4.35257 5.31475 4.16602 5.08463 4.16602C4.85452 4.16602 4.66797 4.35257 4.66797 4.58269C4.66797 5.39988 4.48696 5.89319 4.19105 6.1891C3.89514 6.48501 3.40183 6.66602 2.58463 6.66602C2.35452 6.66602 2.16797 6.85257 2.16797 7.08269C2.16797 7.3128 2.35452 7.49935 2.58463 7.49935C3.40183 7.49935 3.89514 7.68036 4.19105 7.97627C4.48696 8.27218 4.66797 8.76549 4.66797 9.58269C4.66797 9.8128 4.85452 9.99939 5.08463 9.99939C5.31475 9.99939 5.5013 9.8128 5.5013 9.58269C5.5013 8.76549 5.68231 8.27218 5.97822 7.97627C6.27413 7.68036 6.76744 7.49935 7.58463 7.49935C7.81475 7.49935 8.0013 7.3128 8.0013 7.08269C8.0013 6.85257 7.81475 6.66602 7.58463 6.66602C6.76744 6.66602 6.27413 6.48501 5.97822 6.1891C5.68231 5.89319 5.5013 5.39988 5.5013 4.58269Z" fill="white" fill-opacity="0.9"/>
<path d="M9.66797 1.25065C9.66797 1.02053 9.48142 0.833984 9.2513 0.833984C9.02118 0.833984 8.83463 1.02053 8.83463 1.25065C8.83463 1.77849 8.71728 2.06347 8.55737 2.22339C8.39745 2.3833 8.11248 2.50065 7.58463 2.50065C7.35452 2.50065 7.16797 2.6872 7.16797 2.91732C7.16797 3.14744 7.35452 3.33399 7.58463 3.33399C8.11248 3.33399 8.39745 3.45134 8.55737 3.61125C8.71728 3.77117 8.83463 4.05615 8.83463 4.58399C8.83463 4.8141 9.02118 5.00065 9.2513 5.00065C9.48142 5.00065 9.66797 4.8141 9.66797 4.58399C9.66797 4.05615 9.78532 3.77117 9.94523 3.61125C10.1051 3.45134 10.3901 3.33399 10.9179 3.33399C11.1481 3.33399 11.3346 3.14744 11.3346 2.91732C11.3346 2.6872 11.1481 2.50065 10.9179 2.50065C10.3901 2.50065 10.1051 2.3833 9.94523 2.22339C9.78532 2.06347 9.66797 1.77849 9.66797 1.25065Z" fill="white" fill-opacity="0.9"/>
</svg>
