<svg width="948" height="580" viewBox="0 0 948 580" fill="none" xmlns="http://www.w3.org/2000/svg">
<g filter="url(#filter0_d_5850_13334)">
<circle cx="528.5" cy="415.5" r="2.5" fill="#1FA8CA" fill-opacity="0.68" shape-rendering="crispEdges"/>
</g>
<rect x="256" width="428" height="580" fill="white"/>
<g filter="url(#filter1_d_5850_13334)">
<circle cx="445.5" cy="458.5" r="2.5" fill="#1FA8CA" fill-opacity="0.68" shape-rendering="crispEdges"/>
</g>
<g filter="url(#filter2_d_5850_13334)">
<circle cx="407.5" cy="420.5" r="2.5" fill="#1FA8CA" fill-opacity="0.68" shape-rendering="crispEdges"/>
</g>
<path d="M368.102 196.996L364.264 211H361.637L358.971 201.205C358.86 200.788 358.792 200.333 358.766 199.838H358.727C358.694 200.3 358.616 200.749 358.492 201.186L355.816 211H353.131L349.215 196.996H351.764L354.303 207.25C354.407 207.68 354.472 208.129 354.498 208.598H354.547C354.573 208.266 354.664 207.816 354.82 207.25L357.691 196.996H360.084L362.74 207.328C362.831 207.68 362.9 208.096 362.945 208.578H362.984C363.004 208.253 363.079 207.823 363.209 207.289L365.699 196.996H368.102ZM377.75 206.615H370.934C370.96 207.54 371.243 208.253 371.783 208.754C372.33 209.255 373.079 209.506 374.029 209.506C375.097 209.506 376.077 209.187 376.969 208.549V210.375C376.057 210.948 374.853 211.234 373.355 211.234C371.884 211.234 370.729 210.782 369.889 209.877C369.055 208.965 368.639 207.686 368.639 206.039C368.639 204.483 369.098 203.217 370.016 202.24C370.94 201.257 372.086 200.766 373.453 200.766C374.82 200.766 375.878 201.205 376.627 202.084C377.376 202.963 377.75 204.184 377.75 205.746V206.615ZM375.562 205.014C375.556 204.2 375.364 203.568 374.986 203.119C374.609 202.663 374.088 202.436 373.424 202.436C372.773 202.436 372.219 202.673 371.764 203.148C371.314 203.624 371.038 204.245 370.934 205.014H375.562ZM394.137 211H391.871V209.418H391.832C391.174 210.629 390.152 211.234 388.766 211.234C386.402 211.234 385.221 209.815 385.221 206.977V201H387.486V206.742C387.486 208.539 388.18 209.438 389.566 209.438C390.237 209.438 390.787 209.19 391.217 208.695C391.653 208.201 391.871 207.553 391.871 206.752V201H394.137V211ZM396.471 210.688V208.588C397.317 209.232 398.251 209.555 399.273 209.555C400.641 209.555 401.324 209.151 401.324 208.344C401.324 208.116 401.266 207.924 401.148 207.768C401.031 207.605 400.872 207.462 400.67 207.338C400.475 207.214 400.24 207.104 399.967 207.006C399.7 206.908 399.4 206.798 399.068 206.674C398.658 206.511 398.287 206.339 397.955 206.156C397.63 205.974 397.356 205.769 397.135 205.541C396.92 205.307 396.757 205.043 396.646 204.75C396.536 204.457 396.48 204.115 396.48 203.725C396.48 203.243 396.594 202.82 396.822 202.455C397.05 202.084 397.356 201.775 397.74 201.527C398.124 201.273 398.561 201.085 399.049 200.961C399.537 200.831 400.042 200.766 400.562 200.766C401.487 200.766 402.314 200.906 403.043 201.186V203.168C402.34 202.686 401.533 202.445 400.621 202.445C400.335 202.445 400.074 202.475 399.84 202.533C399.612 202.592 399.417 202.673 399.254 202.777C399.091 202.882 398.964 203.008 398.873 203.158C398.782 203.301 398.736 203.461 398.736 203.637C398.736 203.852 398.782 204.034 398.873 204.184C398.964 204.333 399.098 204.467 399.273 204.584C399.456 204.695 399.671 204.799 399.918 204.896C400.172 204.988 400.462 205.089 400.787 205.199C401.217 205.375 401.601 205.554 401.939 205.736C402.285 205.919 402.577 206.127 402.818 206.361C403.059 206.589 403.245 206.856 403.375 207.162C403.505 207.462 403.57 207.82 403.57 208.236C403.57 208.744 403.453 209.187 403.219 209.564C402.984 209.942 402.672 210.255 402.281 210.502C401.891 210.749 401.438 210.932 400.924 211.049C400.416 211.173 399.879 211.234 399.312 211.234C398.219 211.234 397.271 211.052 396.471 210.688ZM414.195 206.615H407.379C407.405 207.54 407.688 208.253 408.229 208.754C408.775 209.255 409.524 209.506 410.475 209.506C411.542 209.506 412.522 209.187 413.414 208.549V210.375C412.503 210.948 411.298 211.234 409.801 211.234C408.329 211.234 407.174 210.782 406.334 209.877C405.501 208.965 405.084 207.686 405.084 206.039C405.084 204.483 405.543 203.217 406.461 202.24C407.385 201.257 408.531 200.766 409.898 200.766C411.266 200.766 412.324 201.205 413.072 202.084C413.821 202.963 414.195 204.184 414.195 205.746V206.615ZM412.008 205.014C412.001 204.2 411.809 203.568 411.432 203.119C411.054 202.663 410.533 202.436 409.869 202.436C409.218 202.436 408.665 202.673 408.209 203.148C407.76 203.624 407.483 204.245 407.379 205.014H412.008ZM427.135 210.893C426.692 211.114 426.109 211.225 425.387 211.225C423.447 211.225 422.477 210.294 422.477 208.432V202.777H420.807V201H422.477V198.686L424.742 198.041V201H427.135V202.777H424.742V207.777C424.742 208.37 424.85 208.793 425.064 209.047C425.279 209.301 425.637 209.428 426.139 209.428C426.523 209.428 426.855 209.317 427.135 209.096V210.893ZM437.975 211H435.709V205.531C435.709 203.552 435.048 202.562 433.727 202.562C433.062 202.562 432.503 202.849 432.047 203.422C431.591 203.995 431.363 204.727 431.363 205.619V211H429.088V196.195H431.363V202.66H431.402C432.158 201.397 433.238 200.766 434.645 200.766C436.865 200.766 437.975 202.123 437.975 204.838V211ZM449.195 206.615H442.379C442.405 207.54 442.688 208.253 443.229 208.754C443.775 209.255 444.524 209.506 445.475 209.506C446.542 209.506 447.522 209.187 448.414 208.549V210.375C447.503 210.948 446.298 211.234 444.801 211.234C443.329 211.234 442.174 210.782 441.334 209.877C440.501 208.965 440.084 207.686 440.084 206.039C440.084 204.483 440.543 203.217 441.461 202.24C442.385 201.257 443.531 200.766 444.898 200.766C446.266 200.766 447.324 201.205 448.072 202.084C448.821 202.963 449.195 204.184 449.195 205.746V206.615ZM447.008 205.014C447.001 204.2 446.809 203.568 446.432 203.119C446.054 202.663 445.533 202.436 444.869 202.436C444.218 202.436 443.665 202.673 443.209 203.148C442.76 203.624 442.483 204.245 442.379 205.014H447.008ZM471.812 211H469.547V205.551C469.547 204.503 469.397 203.744 469.098 203.275C468.805 202.807 468.307 202.572 467.604 202.572C467.011 202.572 466.507 202.868 466.09 203.461C465.68 204.053 465.475 204.763 465.475 205.59V211H463.199V205.365C463.199 203.503 462.542 202.572 461.227 202.572C460.615 202.572 460.11 202.852 459.713 203.412C459.322 203.972 459.127 204.698 459.127 205.59V211H456.861V201H459.127V202.582H459.166C459.889 201.371 460.94 200.766 462.32 200.766C463.01 200.766 463.613 200.958 464.127 201.342C464.648 201.719 465.003 202.217 465.191 202.836C465.934 201.456 467.04 200.766 468.512 200.766C470.712 200.766 471.812 202.123 471.812 204.838V211ZM479.01 211.234C477.467 211.234 476.233 210.769 475.309 209.838C474.391 208.9 473.932 207.66 473.932 206.117C473.932 204.438 474.41 203.126 475.367 202.182C476.331 201.238 477.626 200.766 479.254 200.766C480.816 200.766 482.034 201.225 482.906 202.143C483.779 203.061 484.215 204.333 484.215 205.961C484.215 207.556 483.743 208.835 482.799 209.799C481.861 210.756 480.598 211.234 479.01 211.234ZM479.117 202.572C478.232 202.572 477.532 202.882 477.018 203.5C476.503 204.118 476.246 204.971 476.246 206.059C476.246 207.107 476.507 207.934 477.027 208.539C477.548 209.138 478.245 209.438 479.117 209.438C480.009 209.438 480.693 209.141 481.168 208.549C481.65 207.956 481.891 207.113 481.891 206.02C481.891 204.919 481.65 204.07 481.168 203.471C480.693 202.872 480.009 202.572 479.117 202.572ZM485.904 210.688V208.588C486.751 209.232 487.685 209.555 488.707 209.555C490.074 209.555 490.758 209.151 490.758 208.344C490.758 208.116 490.699 207.924 490.582 207.768C490.465 207.605 490.305 207.462 490.104 207.338C489.908 207.214 489.674 207.104 489.4 207.006C489.133 206.908 488.834 206.798 488.502 206.674C488.092 206.511 487.721 206.339 487.389 206.156C487.063 205.974 486.79 205.769 486.568 205.541C486.354 205.307 486.191 205.043 486.08 204.75C485.969 204.457 485.914 204.115 485.914 203.725C485.914 203.243 486.028 202.82 486.256 202.455C486.484 202.084 486.79 201.775 487.174 201.527C487.558 201.273 487.994 201.085 488.482 200.961C488.971 200.831 489.475 200.766 489.996 200.766C490.921 200.766 491.747 200.906 492.477 201.186V203.168C491.773 202.686 490.966 202.445 490.055 202.445C489.768 202.445 489.508 202.475 489.273 202.533C489.046 202.592 488.85 202.673 488.688 202.777C488.525 202.882 488.398 203.008 488.307 203.158C488.215 203.301 488.17 203.461 488.17 203.637C488.17 203.852 488.215 204.034 488.307 204.184C488.398 204.333 488.531 204.467 488.707 204.584C488.889 204.695 489.104 204.799 489.352 204.896C489.605 204.988 489.895 205.089 490.221 205.199C490.65 205.375 491.035 205.554 491.373 205.736C491.718 205.919 492.011 206.127 492.252 206.361C492.493 206.589 492.678 206.856 492.809 207.162C492.939 207.462 493.004 207.82 493.004 208.236C493.004 208.744 492.887 209.187 492.652 209.564C492.418 209.942 492.105 210.255 491.715 210.502C491.324 210.749 490.872 210.932 490.357 211.049C489.85 211.173 489.312 211.234 488.746 211.234C487.652 211.234 486.705 211.052 485.904 210.688ZM500.436 210.893C499.993 211.114 499.41 211.225 498.688 211.225C496.747 211.225 495.777 210.294 495.777 208.432V202.777H494.107V201H495.777V198.686L498.043 198.041V201H500.436V202.777H498.043V207.777C498.043 208.37 498.15 208.793 498.365 209.047C498.58 209.301 498.938 209.428 499.439 209.428C499.824 209.428 500.156 209.317 500.436 209.096V210.893ZM510.201 209.525H510.162V215.6H507.896V201H510.162V202.758H510.201C510.976 201.43 512.109 200.766 513.6 200.766C514.869 200.766 515.859 201.212 516.568 202.104C517.278 202.995 517.633 204.193 517.633 205.697C517.633 207.364 517.232 208.699 516.432 209.701C515.631 210.704 514.537 211.205 513.15 211.205C511.874 211.205 510.891 210.645 510.201 209.525ZM510.143 205.58V206.82C510.143 207.549 510.374 208.168 510.836 208.676C511.305 209.184 511.897 209.438 512.613 209.438C513.453 209.438 514.111 209.112 514.586 208.461C515.068 207.803 515.309 206.889 515.309 205.717C515.309 204.734 515.084 203.965 514.635 203.412C514.192 202.852 513.59 202.572 512.828 202.572C512.021 202.572 511.37 202.859 510.875 203.432C510.387 204.005 510.143 204.721 510.143 205.58ZM524.381 211.234C522.838 211.234 521.604 210.769 520.68 209.838C519.762 208.9 519.303 207.66 519.303 206.117C519.303 204.438 519.781 203.126 520.738 202.182C521.702 201.238 522.997 200.766 524.625 200.766C526.188 200.766 527.405 201.225 528.277 202.143C529.15 203.061 529.586 204.333 529.586 205.961C529.586 207.556 529.114 208.835 528.17 209.799C527.232 210.756 525.969 211.234 524.381 211.234ZM524.488 202.572C523.603 202.572 522.903 202.882 522.389 203.5C521.874 204.118 521.617 204.971 521.617 206.059C521.617 207.107 521.878 207.934 522.398 208.539C522.919 209.138 523.616 209.438 524.488 209.438C525.38 209.438 526.064 209.141 526.539 208.549C527.021 207.956 527.262 207.113 527.262 206.02C527.262 204.919 527.021 204.07 526.539 203.471C526.064 202.872 525.38 202.572 524.488 202.572ZM545.348 201L542.398 211H540.025L538.209 204.223C538.137 203.962 538.092 203.669 538.072 203.344H538.033C538.02 203.565 537.962 203.852 537.857 204.203L535.885 211H533.561L530.621 201H532.965L534.781 208.207C534.84 208.422 534.879 208.708 534.898 209.066H534.967C534.986 208.793 535.038 208.5 535.123 208.188L537.145 201H539.273L541.07 208.236C541.129 208.464 541.171 208.751 541.197 209.096H541.266C541.279 208.855 541.327 208.568 541.412 208.236L543.189 201H545.348ZM555.406 206.615H548.59C548.616 207.54 548.899 208.253 549.439 208.754C549.986 209.255 550.735 209.506 551.686 209.506C552.753 209.506 553.733 209.187 554.625 208.549V210.375C553.714 210.948 552.509 211.234 551.012 211.234C549.54 211.234 548.385 210.782 547.545 209.877C546.712 208.965 546.295 207.686 546.295 206.039C546.295 204.483 546.754 203.217 547.672 202.24C548.596 201.257 549.742 200.766 551.109 200.766C552.477 200.766 553.535 201.205 554.283 202.084C555.032 202.963 555.406 204.184 555.406 205.746V206.615ZM553.219 205.014C553.212 204.2 553.02 203.568 552.643 203.119C552.265 202.663 551.744 202.436 551.08 202.436C550.429 202.436 549.876 202.673 549.42 203.148C548.971 203.624 548.694 204.245 548.59 205.014H553.219ZM563.365 203.158C563.092 202.943 562.698 202.836 562.184 202.836C561.513 202.836 560.953 203.139 560.504 203.744C560.055 204.35 559.83 205.173 559.83 206.215V211H557.564V201H559.83V203.061H559.869C560.09 202.357 560.429 201.811 560.885 201.42C561.347 201.023 561.861 200.824 562.428 200.824C562.838 200.824 563.15 200.886 563.365 201.01V203.158ZM571.051 198.041C570.745 197.865 570.396 197.777 570.006 197.777C568.906 197.777 568.355 198.399 568.355 199.643V201H570.68V202.777H568.365V211H566.1V202.777H564.391V201H566.1V199.379C566.1 198.324 566.445 197.494 567.135 196.889C567.825 196.277 568.688 195.971 569.723 195.971C570.283 195.971 570.725 196.033 571.051 196.156V198.041ZM581.012 211H578.746V209.418H578.707C578.049 210.629 577.027 211.234 575.641 211.234C573.277 211.234 572.096 209.815 572.096 206.977V201H574.361V206.742C574.361 208.539 575.055 209.438 576.441 209.438C577.112 209.438 577.662 209.19 578.092 208.695C578.528 208.201 578.746 207.553 578.746 206.752V201H581.012V211ZM586.246 211H583.971V196.195H586.246V211ZM349.85 234.688V232.588C350.696 233.232 351.63 233.555 352.652 233.555C354.02 233.555 354.703 233.151 354.703 232.344C354.703 232.116 354.645 231.924 354.527 231.768C354.41 231.605 354.251 231.462 354.049 231.338C353.854 231.214 353.619 231.104 353.346 231.006C353.079 230.908 352.779 230.798 352.447 230.674C352.037 230.511 351.666 230.339 351.334 230.156C351.008 229.974 350.735 229.769 350.514 229.541C350.299 229.307 350.136 229.043 350.025 228.75C349.915 228.457 349.859 228.115 349.859 227.725C349.859 227.243 349.973 226.82 350.201 226.455C350.429 226.084 350.735 225.775 351.119 225.527C351.503 225.273 351.939 225.085 352.428 224.961C352.916 224.831 353.421 224.766 353.941 224.766C354.866 224.766 355.693 224.906 356.422 225.186V227.168C355.719 226.686 354.911 226.445 354 226.445C353.714 226.445 353.453 226.475 353.219 226.533C352.991 226.592 352.796 226.673 352.633 226.777C352.47 226.882 352.343 227.008 352.252 227.158C352.161 227.301 352.115 227.461 352.115 227.637C352.115 227.852 352.161 228.034 352.252 228.184C352.343 228.333 352.477 228.467 352.652 228.584C352.835 228.695 353.049 228.799 353.297 228.896C353.551 228.988 353.84 229.089 354.166 229.199C354.596 229.375 354.98 229.554 355.318 229.736C355.663 229.919 355.956 230.127 356.197 230.361C356.438 230.589 356.624 230.856 356.754 231.162C356.884 231.462 356.949 231.82 356.949 232.236C356.949 232.744 356.832 233.187 356.598 233.564C356.363 233.942 356.051 234.255 355.66 234.502C355.27 234.749 354.817 234.932 354.303 235.049C353.795 235.173 353.258 235.234 352.691 235.234C351.598 235.234 350.65 235.052 349.85 234.688ZM363.541 235.234C361.998 235.234 360.764 234.769 359.84 233.838C358.922 232.9 358.463 231.66 358.463 230.117C358.463 228.438 358.941 227.126 359.898 226.182C360.862 225.238 362.158 224.766 363.785 224.766C365.348 224.766 366.565 225.225 367.438 226.143C368.31 227.061 368.746 228.333 368.746 229.961C368.746 231.556 368.274 232.835 367.33 233.799C366.393 234.756 365.13 235.234 363.541 235.234ZM363.648 226.572C362.763 226.572 362.063 226.882 361.549 227.5C361.035 228.118 360.777 228.971 360.777 230.059C360.777 231.107 361.038 231.934 361.559 232.539C362.079 233.138 362.776 233.438 363.648 233.438C364.54 233.438 365.224 233.141 365.699 232.549C366.181 231.956 366.422 231.113 366.422 230.02C366.422 228.919 366.181 228.07 365.699 227.471C365.224 226.872 364.54 226.572 363.648 226.572ZM376.383 222.041C376.077 221.865 375.729 221.777 375.338 221.777C374.238 221.777 373.688 222.399 373.688 223.643V225H376.012V226.777H373.697V235H371.432V226.777H369.723V225H371.432V223.379C371.432 222.324 371.777 221.494 372.467 220.889C373.157 220.277 374.02 219.971 375.055 219.971C375.615 219.971 376.057 220.033 376.383 220.156V222.041ZM383.268 234.893C382.825 235.114 382.242 235.225 381.52 235.225C379.579 235.225 378.609 234.294 378.609 232.432V226.777H376.939V225H378.609V222.686L380.875 222.041V225H383.268V226.777H380.875V231.777C380.875 232.37 380.982 232.793 381.197 233.047C381.412 233.301 381.77 233.428 382.271 233.428C382.656 233.428 382.988 233.317 383.268 233.096V234.893ZM398.668 225L395.719 235H393.346L391.529 228.223C391.458 227.962 391.412 227.669 391.393 227.344H391.354C391.34 227.565 391.282 227.852 391.178 228.203L389.205 235H386.881L383.941 225H386.285L388.102 232.207C388.16 232.422 388.199 232.708 388.219 233.066H388.287C388.307 232.793 388.359 232.5 388.443 232.188L390.465 225H392.594L394.391 232.236C394.449 232.464 394.492 232.751 394.518 233.096H394.586C394.599 232.855 394.648 232.568 394.732 232.236L396.51 225H398.668ZM408.033 235H405.836V233.438H405.797C405.107 234.635 404.094 235.234 402.76 235.234C401.777 235.234 401.005 234.967 400.445 234.434C399.892 233.9 399.615 233.193 399.615 232.314C399.615 230.426 400.702 229.326 402.877 229.014L405.846 228.594C405.846 227.168 405.169 226.455 403.814 226.455C402.623 226.455 401.549 226.865 400.592 227.686V225.703C401.646 225.078 402.864 224.766 404.244 224.766C406.77 224.766 408.033 226.009 408.033 228.496V235ZM405.846 230.088L403.746 230.381C403.095 230.465 402.604 230.625 402.271 230.859C401.946 231.087 401.783 231.491 401.783 232.07C401.783 232.493 401.933 232.842 402.232 233.115C402.538 233.382 402.945 233.516 403.453 233.516C404.143 233.516 404.713 233.275 405.162 232.793C405.618 232.305 405.846 231.693 405.846 230.957V230.088ZM416.607 227.158C416.334 226.943 415.94 226.836 415.426 226.836C414.755 226.836 414.195 227.139 413.746 227.744C413.297 228.35 413.072 229.173 413.072 230.215V235H410.807V225H413.072V227.061H413.111C413.333 226.357 413.671 225.811 414.127 225.42C414.589 225.023 415.104 224.824 415.67 224.824C416.08 224.824 416.393 224.886 416.607 225.01V227.158ZM426.5 230.615H419.684C419.71 231.54 419.993 232.253 420.533 232.754C421.08 233.255 421.829 233.506 422.779 233.506C423.847 233.506 424.827 233.187 425.719 232.549V234.375C424.807 234.948 423.603 235.234 422.105 235.234C420.634 235.234 419.479 234.782 418.639 233.877C417.805 232.965 417.389 231.686 417.389 230.039C417.389 228.483 417.848 227.217 418.766 226.24C419.69 225.257 420.836 224.766 422.203 224.766C423.57 224.766 424.628 225.205 425.377 226.084C426.126 226.963 426.5 228.184 426.5 229.746V230.615ZM424.312 229.014C424.306 228.2 424.114 227.568 423.736 227.119C423.359 226.663 422.838 226.436 422.174 226.436C421.523 226.436 420.969 226.673 420.514 227.148C420.064 227.624 419.788 228.245 419.684 229.014H424.312ZM439.439 234.893C438.997 235.114 438.414 235.225 437.691 235.225C435.751 235.225 434.781 234.294 434.781 232.432V226.777H433.111V225H434.781V222.686L437.047 222.041V225H439.439V226.777H437.047V231.777C437.047 232.37 437.154 232.793 437.369 233.047C437.584 233.301 437.942 233.428 438.443 233.428C438.827 233.428 439.16 233.317 439.439 233.096V234.893ZM445.709 235.234C444.166 235.234 442.932 234.769 442.008 233.838C441.09 232.9 440.631 231.66 440.631 230.117C440.631 228.438 441.109 227.126 442.066 226.182C443.03 225.238 444.326 224.766 445.953 224.766C447.516 224.766 448.733 225.225 449.605 226.143C450.478 227.061 450.914 228.333 450.914 229.961C450.914 231.556 450.442 232.835 449.498 233.799C448.561 234.756 447.298 235.234 445.709 235.234ZM445.816 226.572C444.931 226.572 444.231 226.882 443.717 227.5C443.202 228.118 442.945 228.971 442.945 230.059C442.945 231.107 443.206 231.934 443.727 232.539C444.247 233.138 444.944 233.438 445.816 233.438C446.708 233.438 447.392 233.141 447.867 232.549C448.349 231.956 448.59 231.113 448.59 230.02C448.59 228.919 448.349 228.07 447.867 227.471C447.392 226.872 446.708 226.572 445.816 226.572ZM467.828 235H465.562V233.301H465.523C464.794 234.59 463.671 235.234 462.154 235.234C460.924 235.234 459.938 234.788 459.195 233.896C458.46 232.998 458.092 231.777 458.092 230.234C458.092 228.581 458.499 227.256 459.312 226.26C460.133 225.264 461.223 224.766 462.584 224.766C463.932 224.766 464.911 225.306 465.523 226.387H465.562V220.195H467.828V235ZM465.592 230.43V229.121C465.592 228.411 465.361 227.809 464.898 227.314C464.436 226.82 463.847 226.572 463.131 226.572C462.285 226.572 461.617 226.888 461.129 227.52C460.647 228.151 460.406 229.027 460.406 230.146C460.406 231.162 460.637 231.966 461.1 232.559C461.568 233.145 462.197 233.438 462.984 233.438C463.759 233.438 464.387 233.154 464.869 232.588C465.351 232.015 465.592 231.296 465.592 230.43ZM479.254 230.615H472.438C472.464 231.54 472.747 232.253 473.287 232.754C473.834 233.255 474.583 233.506 475.533 233.506C476.601 233.506 477.581 233.187 478.473 232.549V234.375C477.561 234.948 476.357 235.234 474.859 235.234C473.388 235.234 472.232 234.782 471.393 233.877C470.559 232.965 470.143 231.686 470.143 230.039C470.143 228.483 470.602 227.217 471.52 226.24C472.444 225.257 473.59 224.766 474.957 224.766C476.324 224.766 477.382 225.205 478.131 226.084C478.88 226.963 479.254 228.184 479.254 229.746V230.615ZM477.066 229.014C477.06 228.2 476.868 227.568 476.49 227.119C476.113 226.663 475.592 226.436 474.928 226.436C474.277 226.436 473.723 226.673 473.268 227.148C472.818 227.624 472.542 228.245 472.438 229.014H477.066ZM486.686 234.893C486.243 235.114 485.66 235.225 484.938 235.225C482.997 235.225 482.027 234.294 482.027 232.432V226.777H480.357V225H482.027V222.686L484.293 222.041V225H486.686V226.777H484.293V231.777C484.293 232.37 484.4 232.793 484.615 233.047C484.83 233.301 485.188 233.428 485.689 233.428C486.074 233.428 486.406 233.317 486.686 233.096V234.893ZM496.988 230.615H490.172C490.198 231.54 490.481 232.253 491.021 232.754C491.568 233.255 492.317 233.506 493.268 233.506C494.335 233.506 495.315 233.187 496.207 232.549V234.375C495.296 234.948 494.091 235.234 492.594 235.234C491.122 235.234 489.967 234.782 489.127 233.877C488.294 232.965 487.877 231.686 487.877 230.039C487.877 228.483 488.336 227.217 489.254 226.24C490.178 225.257 491.324 224.766 492.691 224.766C494.059 224.766 495.117 225.205 495.865 226.084C496.614 226.963 496.988 228.184 496.988 229.746V230.615ZM494.801 229.014C494.794 228.2 494.602 227.568 494.225 227.119C493.847 226.663 493.326 226.436 492.662 226.436C492.011 226.436 491.458 226.673 491.002 227.148C490.553 227.624 490.276 228.245 490.172 229.014H494.801ZM506.305 234.541C505.504 235.003 504.557 235.234 503.463 235.234C501.979 235.234 500.781 234.772 499.869 233.848C498.958 232.917 498.502 231.712 498.502 230.234C498.502 228.587 498.99 227.266 499.967 226.27C500.95 225.267 502.262 224.766 503.902 224.766C504.814 224.766 505.618 224.925 506.314 225.244V227.354C505.618 226.833 504.876 226.572 504.088 226.572C503.131 226.572 502.346 226.898 501.734 227.549C501.122 228.193 500.816 229.04 500.816 230.088C500.816 231.123 501.103 231.94 501.676 232.539C502.255 233.138 503.03 233.438 504 233.438C504.814 233.438 505.582 233.148 506.305 232.568V234.541ZM513.834 234.893C513.391 235.114 512.809 235.225 512.086 235.225C510.146 235.225 509.176 234.294 509.176 232.432V226.777H507.506V225H509.176V222.686L511.441 222.041V225H513.834V226.777H511.441V231.777C511.441 232.37 511.549 232.793 511.764 233.047C511.979 233.301 512.337 233.428 512.838 233.428C513.222 233.428 513.554 233.317 513.834 233.096V234.893ZM534.742 225L531.793 235H529.42L527.604 228.223C527.532 227.962 527.486 227.669 527.467 227.344H527.428C527.415 227.565 527.356 227.852 527.252 228.203L525.279 235H522.955L520.016 225H522.359L524.176 232.207C524.234 232.422 524.273 232.708 524.293 233.066H524.361C524.381 232.793 524.433 232.5 524.518 232.188L526.539 225H528.668L530.465 232.236C530.523 232.464 530.566 232.751 530.592 233.096H530.66C530.673 232.855 530.722 232.568 530.807 232.236L532.584 225H534.742ZM545.318 235H543.053V229.531C543.053 227.552 542.392 226.562 541.07 226.562C540.406 226.562 539.846 226.849 539.391 227.422C538.935 227.995 538.707 228.727 538.707 229.619V235H536.432V220.195H538.707V226.66H538.746C539.501 225.397 540.582 224.766 541.988 224.766C544.208 224.766 545.318 226.123 545.318 228.838V235ZM556.539 230.615H549.723C549.749 231.54 550.032 232.253 550.572 232.754C551.119 233.255 551.868 233.506 552.818 233.506C553.886 233.506 554.866 233.187 555.758 232.549V234.375C554.846 234.948 553.642 235.234 552.145 235.234C550.673 235.234 549.518 234.782 548.678 233.877C547.844 232.965 547.428 231.686 547.428 230.039C547.428 228.483 547.887 227.217 548.805 226.24C549.729 225.257 550.875 224.766 552.242 224.766C553.609 224.766 554.667 225.205 555.416 226.084C556.165 226.963 556.539 228.184 556.539 229.746V230.615ZM554.352 229.014C554.345 228.2 554.153 227.568 553.775 227.119C553.398 226.663 552.877 226.436 552.213 226.436C551.562 226.436 551.008 226.673 550.553 227.148C550.104 227.624 549.827 228.245 549.723 229.014H554.352ZM564.498 227.158C564.225 226.943 563.831 226.836 563.316 226.836C562.646 226.836 562.086 227.139 561.637 227.744C561.188 228.35 560.963 229.173 560.963 230.215V235H558.697V225H560.963V227.061H561.002C561.223 226.357 561.562 225.811 562.018 225.42C562.48 225.023 562.994 224.824 563.561 224.824C563.971 224.824 564.283 224.886 564.498 225.01V227.158ZM574.391 230.615H567.574C567.6 231.54 567.883 232.253 568.424 232.754C568.971 233.255 569.719 233.506 570.67 233.506C571.738 233.506 572.717 233.187 573.609 232.549V234.375C572.698 234.948 571.493 235.234 569.996 235.234C568.525 235.234 567.369 234.782 566.529 233.877C565.696 232.965 565.279 231.686 565.279 230.039C565.279 228.483 565.738 227.217 566.656 226.24C567.581 225.257 568.727 224.766 570.094 224.766C571.461 224.766 572.519 225.205 573.268 226.084C574.016 226.963 574.391 228.184 574.391 229.746V230.615ZM572.203 229.014C572.197 228.2 572.005 227.568 571.627 227.119C571.249 226.663 570.729 226.436 570.064 226.436C569.413 226.436 568.86 226.673 568.404 227.148C567.955 227.624 567.678 228.245 567.574 229.014H572.203ZM359.137 249L354.625 260.602C353.688 262.672 352.372 263.707 350.68 263.707C350.204 263.707 349.807 263.665 349.488 263.58V261.695C349.846 261.812 350.172 261.871 350.465 261.871C351.311 261.871 351.943 261.454 352.359 260.621L353.033 258.98L349.059 249H351.568L353.951 256.266C353.977 256.357 354.036 256.598 354.127 256.988H354.176C354.208 256.839 354.267 256.604 354.352 256.285L356.852 249H359.137ZM364.928 259.234C363.385 259.234 362.151 258.769 361.227 257.838C360.309 256.9 359.85 255.66 359.85 254.117C359.85 252.438 360.328 251.126 361.285 250.182C362.249 249.238 363.544 248.766 365.172 248.766C366.734 248.766 367.952 249.225 368.824 250.143C369.697 251.061 370.133 252.333 370.133 253.961C370.133 255.556 369.661 256.835 368.717 257.799C367.779 258.756 366.516 259.234 364.928 259.234ZM365.035 250.572C364.15 250.572 363.45 250.882 362.936 251.5C362.421 252.118 362.164 252.971 362.164 254.059C362.164 255.107 362.424 255.934 362.945 256.539C363.466 257.138 364.163 257.438 365.035 257.438C365.927 257.438 366.611 257.141 367.086 256.549C367.568 255.956 367.809 255.113 367.809 254.02C367.809 252.919 367.568 252.07 367.086 251.471C366.611 250.872 365.927 250.572 365.035 250.572ZM381.168 259H378.902V257.418H378.863C378.206 258.629 377.184 259.234 375.797 259.234C373.434 259.234 372.252 257.815 372.252 254.977V249H374.518V254.742C374.518 256.539 375.211 257.438 376.598 257.438C377.268 257.438 377.818 257.19 378.248 256.695C378.684 256.201 378.902 255.553 378.902 254.752V249H381.168V259ZM389.928 251.158C389.654 250.943 389.26 250.836 388.746 250.836C388.076 250.836 387.516 251.139 387.066 251.744C386.617 252.35 386.393 253.173 386.393 254.215V259H384.127V249H386.393V251.061H386.432C386.653 250.357 386.992 249.811 387.447 249.42C387.91 249.023 388.424 248.824 388.99 248.824C389.4 248.824 389.713 248.886 389.928 249.01V251.158ZM398.18 246.9C397.809 246.9 397.49 246.78 397.223 246.539C396.962 246.298 396.832 245.992 396.832 245.621C396.832 245.25 396.962 244.941 397.223 244.693C397.49 244.446 397.809 244.322 398.18 244.322C398.564 244.322 398.889 244.446 399.156 244.693C399.423 244.941 399.557 245.25 399.557 245.621C399.557 245.973 399.423 246.275 399.156 246.529C398.889 246.777 398.564 246.9 398.18 246.9ZM399.303 259H397.037V249H399.303V259ZM404.547 259H402.271V244.195H404.547V259ZM409.781 259H407.506V244.195H409.781V259ZM421.207 254.615H414.391C414.417 255.54 414.7 256.253 415.24 256.754C415.787 257.255 416.536 257.506 417.486 257.506C418.554 257.506 419.534 257.187 420.426 256.549V258.375C419.514 258.948 418.31 259.234 416.812 259.234C415.341 259.234 414.186 258.782 413.346 257.877C412.512 256.965 412.096 255.686 412.096 254.039C412.096 252.483 412.555 251.217 413.473 250.24C414.397 249.257 415.543 248.766 416.91 248.766C418.277 248.766 419.335 249.205 420.084 250.084C420.833 250.963 421.207 252.184 421.207 253.746V254.615ZM419.02 253.014C419.013 252.2 418.821 251.568 418.443 251.119C418.066 250.663 417.545 250.436 416.881 250.436C416.23 250.436 415.676 250.673 415.221 251.148C414.771 251.624 414.495 252.245 414.391 253.014H419.02ZM432.467 258.199C432.467 261.871 430.621 263.707 426.93 263.707C425.628 263.707 424.492 263.489 423.521 263.053V260.982C424.615 261.607 425.654 261.92 426.637 261.92C429.013 261.92 430.201 260.751 430.201 258.414V257.32H430.162C429.413 258.596 428.287 259.234 426.783 259.234C425.566 259.234 424.583 258.792 423.834 257.906C423.092 257.014 422.721 255.82 422.721 254.322C422.721 252.623 423.121 251.272 423.922 250.27C424.723 249.267 425.823 248.766 427.223 248.766C428.544 248.766 429.524 249.306 430.162 250.387H430.201V249H432.467V258.199ZM430.221 254.42V253.121C430.221 252.418 429.986 251.819 429.518 251.324C429.055 250.823 428.476 250.572 427.779 250.572C426.92 250.572 426.246 250.891 425.758 251.529C425.276 252.161 425.035 253.046 425.035 254.186C425.035 255.169 425.266 255.956 425.729 256.549C426.197 257.135 426.816 257.428 427.584 257.428C428.365 257.428 429 257.148 429.488 256.588C429.977 256.021 430.221 255.299 430.221 254.42ZM443.092 259H440.895V257.438H440.855C440.165 258.635 439.153 259.234 437.818 259.234C436.835 259.234 436.064 258.967 435.504 258.434C434.951 257.9 434.674 257.193 434.674 256.314C434.674 254.426 435.761 253.326 437.936 253.014L440.904 252.594C440.904 251.168 440.227 250.455 438.873 250.455C437.682 250.455 436.607 250.865 435.65 251.686V249.703C436.705 249.078 437.923 248.766 439.303 248.766C441.829 248.766 443.092 250.009 443.092 252.496V259ZM440.904 254.088L438.805 254.381C438.154 254.465 437.662 254.625 437.33 254.859C437.005 255.087 436.842 255.491 436.842 256.07C436.842 256.493 436.992 256.842 437.291 257.115C437.597 257.382 438.004 257.516 438.512 257.516C439.202 257.516 439.771 257.275 440.221 256.793C440.676 256.305 440.904 255.693 440.904 254.957V254.088ZM448.141 259H445.865V244.195H448.141V259ZM463.766 258.541C462.965 259.003 462.018 259.234 460.924 259.234C459.439 259.234 458.242 258.772 457.33 257.848C456.419 256.917 455.963 255.712 455.963 254.234C455.963 252.587 456.451 251.266 457.428 250.27C458.411 249.267 459.723 248.766 461.363 248.766C462.275 248.766 463.079 248.925 463.775 249.244V251.354C463.079 250.833 462.337 250.572 461.549 250.572C460.592 250.572 459.807 250.898 459.195 251.549C458.583 252.193 458.277 253.04 458.277 254.088C458.277 255.123 458.564 255.94 459.137 256.539C459.716 257.138 460.491 257.438 461.461 257.438C462.275 257.438 463.043 257.148 463.766 256.568V258.541ZM470.455 259.234C468.912 259.234 467.678 258.769 466.754 257.838C465.836 256.9 465.377 255.66 465.377 254.117C465.377 252.438 465.855 251.126 466.812 250.182C467.776 249.238 469.072 248.766 470.699 248.766C472.262 248.766 473.479 249.225 474.352 250.143C475.224 251.061 475.66 252.333 475.66 253.961C475.66 255.556 475.188 256.835 474.244 257.799C473.307 258.756 472.044 259.234 470.455 259.234ZM470.562 250.572C469.677 250.572 468.977 250.882 468.463 251.5C467.949 252.118 467.691 252.971 467.691 254.059C467.691 255.107 467.952 255.934 468.473 256.539C468.993 257.138 469.69 257.438 470.562 257.438C471.454 257.438 472.138 257.141 472.613 256.549C473.095 255.956 473.336 255.113 473.336 254.02C473.336 252.919 473.095 252.07 472.613 251.471C472.138 250.872 471.454 250.572 470.562 250.572ZM486.881 259H484.615V253.365C484.615 251.497 483.954 250.562 482.633 250.562C481.943 250.562 481.373 250.823 480.924 251.344C480.475 251.858 480.25 252.509 480.25 253.297V259H477.975V249H480.25V250.66H480.289C481.038 249.397 482.118 248.766 483.531 248.766C484.618 248.766 485.449 249.12 486.021 249.83C486.594 250.533 486.881 251.552 486.881 252.887V259ZM494.928 258.893C494.485 259.114 493.902 259.225 493.18 259.225C491.24 259.225 490.27 258.294 490.27 256.432V250.777H488.6V249H490.27V246.686L492.535 246.041V249H494.928V250.777H492.535V255.777C492.535 256.37 492.643 256.793 492.857 257.047C493.072 257.301 493.43 257.428 493.932 257.428C494.316 257.428 494.648 257.317 494.928 257.096V258.893ZM505.23 254.615H498.414C498.44 255.54 498.723 256.253 499.264 256.754C499.811 257.255 500.559 257.506 501.51 257.506C502.577 257.506 503.557 257.187 504.449 256.549V258.375C503.538 258.948 502.333 259.234 500.836 259.234C499.365 259.234 498.209 258.782 497.369 257.877C496.536 256.965 496.119 255.686 496.119 254.039C496.119 252.483 496.578 251.217 497.496 250.24C498.421 249.257 499.566 248.766 500.934 248.766C502.301 248.766 503.359 249.205 504.107 250.084C504.856 250.963 505.23 252.184 505.23 253.746V254.615ZM503.043 253.014C503.036 252.2 502.844 251.568 502.467 251.119C502.089 250.663 501.568 250.436 500.904 250.436C500.253 250.436 499.7 250.673 499.244 251.148C498.795 251.624 498.518 252.245 498.414 253.014H503.043ZM516.295 259H514.029V253.365C514.029 251.497 513.368 250.562 512.047 250.562C511.357 250.562 510.787 250.823 510.338 251.344C509.889 251.858 509.664 252.509 509.664 253.297V259H507.389V249H509.664V250.66H509.703C510.452 249.397 511.533 248.766 512.945 248.766C514.033 248.766 514.863 249.12 515.436 249.83C516.008 250.533 516.295 251.552 516.295 252.887V259ZM524.342 258.893C523.899 259.114 523.316 259.225 522.594 259.225C520.654 259.225 519.684 258.294 519.684 256.432V250.777H518.014V249H519.684V246.686L521.949 246.041V249H524.342V250.777H521.949V255.777C521.949 256.37 522.057 256.793 522.271 257.047C522.486 257.301 522.844 257.428 523.346 257.428C523.73 257.428 524.062 257.317 524.342 257.096V258.893ZM532.945 246.9C532.574 246.9 532.255 246.78 531.988 246.539C531.728 246.298 531.598 245.992 531.598 245.621C531.598 245.25 531.728 244.941 531.988 244.693C532.255 244.446 532.574 244.322 532.945 244.322C533.329 244.322 533.655 244.446 533.922 244.693C534.189 244.941 534.322 245.25 534.322 245.621C534.322 245.973 534.189 246.275 533.922 246.529C533.655 246.777 533.329 246.9 532.945 246.9ZM534.068 259H531.803V249H534.068V259ZM536.412 258.688V256.588C537.258 257.232 538.193 257.555 539.215 257.555C540.582 257.555 541.266 257.151 541.266 256.344C541.266 256.116 541.207 255.924 541.09 255.768C540.973 255.605 540.813 255.462 540.611 255.338C540.416 255.214 540.182 255.104 539.908 255.006C539.641 254.908 539.342 254.798 539.01 254.674C538.6 254.511 538.229 254.339 537.896 254.156C537.571 253.974 537.298 253.769 537.076 253.541C536.861 253.307 536.699 253.043 536.588 252.75C536.477 252.457 536.422 252.115 536.422 251.725C536.422 251.243 536.536 250.82 536.764 250.455C536.992 250.084 537.298 249.775 537.682 249.527C538.066 249.273 538.502 249.085 538.99 248.961C539.479 248.831 539.983 248.766 540.504 248.766C541.428 248.766 542.255 248.906 542.984 249.186V251.168C542.281 250.686 541.474 250.445 540.562 250.445C540.276 250.445 540.016 250.475 539.781 250.533C539.553 250.592 539.358 250.673 539.195 250.777C539.033 250.882 538.906 251.008 538.814 251.158C538.723 251.301 538.678 251.461 538.678 251.637C538.678 251.852 538.723 252.034 538.814 252.184C538.906 252.333 539.039 252.467 539.215 252.584C539.397 252.695 539.612 252.799 539.859 252.896C540.113 252.988 540.403 253.089 540.729 253.199C541.158 253.375 541.542 253.554 541.881 253.736C542.226 253.919 542.519 254.127 542.76 254.361C543.001 254.589 543.186 254.856 543.316 255.162C543.447 255.462 543.512 255.82 543.512 256.236C543.512 256.744 543.395 257.187 543.16 257.564C542.926 257.942 542.613 258.255 542.223 258.502C541.832 258.749 541.38 258.932 540.865 259.049C540.357 259.173 539.82 259.234 539.254 259.234C538.16 259.234 537.213 259.052 536.412 258.688ZM359.361 283H357.096V277.531C357.096 275.552 356.435 274.562 355.113 274.562C354.449 274.562 353.889 274.849 353.434 275.422C352.978 275.995 352.75 276.727 352.75 277.619V283H350.475V268.195H352.75V274.66H352.789C353.544 273.397 354.625 272.766 356.031 272.766C358.251 272.766 359.361 274.123 359.361 276.838V283ZM363.258 270.9C362.887 270.9 362.568 270.78 362.301 270.539C362.04 270.298 361.91 269.992 361.91 269.621C361.91 269.25 362.04 268.941 362.301 268.693C362.568 268.446 362.887 268.322 363.258 268.322C363.642 268.322 363.967 268.446 364.234 268.693C364.501 268.941 364.635 269.25 364.635 269.621C364.635 269.973 364.501 270.275 364.234 270.529C363.967 270.777 363.642 270.9 363.258 270.9ZM364.381 283H362.115V273H364.381V283ZM376.441 283H374.176V281.301H374.137C373.408 282.59 372.285 283.234 370.768 283.234C369.537 283.234 368.551 282.788 367.809 281.896C367.073 280.998 366.705 279.777 366.705 278.234C366.705 276.581 367.112 275.256 367.926 274.26C368.746 273.264 369.837 272.766 371.197 272.766C372.545 272.766 373.525 273.306 374.137 274.387H374.176V268.195H376.441V283ZM374.205 278.43V277.121C374.205 276.411 373.974 275.809 373.512 275.314C373.049 274.82 372.46 274.572 371.744 274.572C370.898 274.572 370.23 274.888 369.742 275.52C369.26 276.151 369.02 277.027 369.02 278.146C369.02 279.162 369.251 279.966 369.713 280.559C370.182 281.145 370.81 281.438 371.598 281.438C372.372 281.438 373.001 281.154 373.482 280.588C373.964 280.015 374.205 279.296 374.205 278.43ZM388.492 283H386.227V281.301H386.188C385.458 282.59 384.335 283.234 382.818 283.234C381.588 283.234 380.602 282.788 379.859 281.896C379.124 280.998 378.756 279.777 378.756 278.234C378.756 276.581 379.163 275.256 379.977 274.26C380.797 273.264 381.887 272.766 383.248 272.766C384.596 272.766 385.576 273.306 386.188 274.387H386.227V268.195H388.492V283ZM386.256 278.43V277.121C386.256 276.411 386.025 275.809 385.562 275.314C385.1 274.82 384.511 274.572 383.795 274.572C382.949 274.572 382.281 274.888 381.793 275.52C381.311 276.151 381.07 277.027 381.07 278.146C381.07 279.162 381.301 279.966 381.764 280.559C382.232 281.145 382.861 281.438 383.648 281.438C384.423 281.438 385.051 281.154 385.533 280.588C386.015 280.015 386.256 279.296 386.256 278.43ZM399.918 278.615H393.102C393.128 279.54 393.411 280.253 393.951 280.754C394.498 281.255 395.247 281.506 396.197 281.506C397.265 281.506 398.245 281.187 399.137 280.549V282.375C398.225 282.948 397.021 283.234 395.523 283.234C394.052 283.234 392.896 282.782 392.057 281.877C391.223 280.965 390.807 279.686 390.807 278.039C390.807 276.483 391.266 275.217 392.184 274.24C393.108 273.257 394.254 272.766 395.621 272.766C396.988 272.766 398.046 273.205 398.795 274.084C399.544 274.963 399.918 276.184 399.918 277.746V278.615ZM397.73 277.014C397.724 276.2 397.532 275.568 397.154 275.119C396.777 274.663 396.256 274.436 395.592 274.436C394.941 274.436 394.387 274.673 393.932 275.148C393.482 275.624 393.206 276.245 393.102 277.014H397.73ZM410.982 283H408.717V277.365C408.717 275.497 408.056 274.562 406.734 274.562C406.044 274.562 405.475 274.823 405.025 275.344C404.576 275.858 404.352 276.509 404.352 277.297V283H402.076V273H404.352V274.66H404.391C405.139 273.397 406.22 272.766 407.633 272.766C408.72 272.766 409.55 273.12 410.123 273.83C410.696 274.533 410.982 275.552 410.982 276.887V283ZM414.693 283.215C414.303 283.215 413.971 283.088 413.697 282.834C413.424 282.574 413.287 282.264 413.287 281.906C413.287 281.542 413.424 281.229 413.697 280.969C413.971 280.708 414.303 280.578 414.693 280.578C415.09 280.578 415.426 280.708 415.699 280.969C415.979 281.229 416.119 281.542 416.119 281.906C416.119 282.264 415.979 282.574 415.699 282.834C415.426 283.088 415.09 283.215 414.693 283.215ZM368.102 292.996L364.264 307H361.637L358.971 297.205C358.86 296.788 358.792 296.333 358.766 295.838H358.727C358.694 296.3 358.616 296.749 358.492 297.186L355.816 307H353.131L349.215 292.996H351.764L354.303 303.25C354.407 303.68 354.472 304.129 354.498 304.598H354.547C354.573 304.266 354.664 303.816 354.82 303.25L357.691 292.996H360.084L362.74 303.328C362.831 303.68 362.9 304.096 362.945 304.578H362.984C363.004 304.253 363.079 303.823 363.209 303.289L365.699 292.996H368.102ZM377.75 302.615H370.934C370.96 303.54 371.243 304.253 371.783 304.754C372.33 305.255 373.079 305.506 374.029 305.506C375.097 305.506 376.077 305.187 376.969 304.549V306.375C376.057 306.948 374.853 307.234 373.355 307.234C371.884 307.234 370.729 306.782 369.889 305.877C369.055 304.965 368.639 303.686 368.639 302.039C368.639 300.483 369.098 299.217 370.016 298.24C370.94 297.257 372.086 296.766 373.453 296.766C374.82 296.766 375.878 297.205 376.627 298.084C377.376 298.963 377.75 300.184 377.75 301.746V302.615ZM375.562 301.014C375.556 300.2 375.364 299.568 374.986 299.119C374.609 298.663 374.088 298.436 373.424 298.436C372.773 298.436 372.219 298.673 371.764 299.148C371.314 299.624 371.038 300.245 370.934 301.014H375.562ZM391.217 299.158C390.943 298.943 390.549 298.836 390.035 298.836C389.365 298.836 388.805 299.139 388.355 299.744C387.906 300.35 387.682 301.173 387.682 302.215V307H385.416V297H387.682V299.061H387.721C387.942 298.357 388.281 297.811 388.736 297.42C389.199 297.023 389.713 296.824 390.279 296.824C390.689 296.824 391.002 296.886 391.217 297.01V299.158ZM401.539 307H399.273V305.418H399.234C398.577 306.629 397.555 307.234 396.168 307.234C393.805 307.234 392.623 305.815 392.623 302.977V297H394.889V302.742C394.889 304.539 395.582 305.438 396.969 305.438C397.639 305.438 398.189 305.19 398.619 304.695C399.055 304.201 399.273 303.553 399.273 302.752V297H401.539V307ZM413.404 307H411.139V301.365C411.139 299.497 410.478 298.562 409.156 298.562C408.466 298.562 407.896 298.823 407.447 299.344C406.998 299.858 406.773 300.509 406.773 301.297V307H404.498V297H406.773V298.66H406.812C407.561 297.397 408.642 296.766 410.055 296.766C411.142 296.766 411.972 297.12 412.545 297.83C413.118 298.533 413.404 299.552 413.404 300.887V307ZM436.637 307H434.371V301.551C434.371 300.503 434.221 299.744 433.922 299.275C433.629 298.807 433.131 298.572 432.428 298.572C431.835 298.572 431.331 298.868 430.914 299.461C430.504 300.053 430.299 300.763 430.299 301.59V307H428.023V301.365C428.023 299.503 427.366 298.572 426.051 298.572C425.439 298.572 424.934 298.852 424.537 299.412C424.146 299.972 423.951 300.698 423.951 301.59V307H421.686V297H423.951V298.582H423.99C424.713 297.371 425.764 296.766 427.145 296.766C427.835 296.766 428.437 296.958 428.951 297.342C429.472 297.719 429.827 298.217 430.016 298.836C430.758 297.456 431.865 296.766 433.336 296.766C435.536 296.766 436.637 298.123 436.637 300.838V307ZM447.076 307H444.879V305.438H444.84C444.15 306.635 443.137 307.234 441.803 307.234C440.82 307.234 440.048 306.967 439.488 306.434C438.935 305.9 438.658 305.193 438.658 304.314C438.658 302.426 439.745 301.326 441.92 301.014L444.889 300.594C444.889 299.168 444.212 298.455 442.857 298.455C441.666 298.455 440.592 298.865 439.635 299.686V297.703C440.689 297.078 441.907 296.766 443.287 296.766C445.813 296.766 447.076 298.009 447.076 300.496V307ZM444.889 302.088L442.789 302.381C442.138 302.465 441.646 302.625 441.314 302.859C440.989 303.087 440.826 303.491 440.826 304.07C440.826 304.493 440.976 304.842 441.275 305.115C441.581 305.382 441.988 305.516 442.496 305.516C443.186 305.516 443.756 305.275 444.205 304.793C444.661 304.305 444.889 303.693 444.889 302.957V302.088ZM458.756 307H456.49V301.365C456.49 299.497 455.829 298.562 454.508 298.562C453.818 298.562 453.248 298.823 452.799 299.344C452.35 299.858 452.125 300.509 452.125 301.297V307H449.85V297H452.125V298.66H452.164C452.913 297.397 453.993 296.766 455.406 296.766C456.493 296.766 457.324 297.12 457.896 297.83C458.469 298.533 458.756 299.552 458.756 300.887V307ZM470.25 307H467.984V305.418H467.945C467.288 306.629 466.266 307.234 464.879 307.234C462.516 307.234 461.334 305.815 461.334 302.977V297H463.6V302.742C463.6 304.539 464.293 305.438 465.68 305.438C466.35 305.438 466.9 305.19 467.33 304.695C467.766 304.201 467.984 303.553 467.984 302.752V297H470.25V307ZM480.885 307H478.688V305.438H478.648C477.958 306.635 476.946 307.234 475.611 307.234C474.628 307.234 473.857 306.967 473.297 306.434C472.743 305.9 472.467 305.193 472.467 304.314C472.467 302.426 473.554 301.326 475.729 301.014L478.697 300.594C478.697 299.168 478.02 298.455 476.666 298.455C475.475 298.455 474.4 298.865 473.443 299.686V297.703C474.498 297.078 475.715 296.766 477.096 296.766C479.622 296.766 480.885 298.009 480.885 300.496V307ZM478.697 302.088L476.598 302.381C475.947 302.465 475.455 302.625 475.123 302.859C474.798 303.087 474.635 303.491 474.635 304.07C474.635 304.493 474.785 304.842 475.084 305.115C475.39 305.382 475.797 305.516 476.305 305.516C476.995 305.516 477.564 305.275 478.014 304.793C478.469 304.305 478.697 303.693 478.697 302.957V302.088ZM485.934 307H483.658V292.195H485.934V307ZM502.076 307H499.879V305.438H499.84C499.15 306.635 498.137 307.234 496.803 307.234C495.82 307.234 495.048 306.967 494.488 306.434C493.935 305.9 493.658 305.193 493.658 304.314C493.658 302.426 494.745 301.326 496.92 301.014L499.889 300.594C499.889 299.168 499.212 298.455 497.857 298.455C496.666 298.455 495.592 298.865 494.635 299.686V297.703C495.689 297.078 496.907 296.766 498.287 296.766C500.813 296.766 502.076 298.009 502.076 300.496V307ZM499.889 302.088L497.789 302.381C497.138 302.465 496.646 302.625 496.314 302.859C495.989 303.087 495.826 303.491 495.826 304.07C495.826 304.493 495.976 304.842 496.275 305.115C496.581 305.382 496.988 305.516 497.496 305.516C498.186 305.516 498.756 305.275 499.205 304.793C499.661 304.305 499.889 303.693 499.889 302.957V302.088ZM513.756 307H511.49V301.365C511.49 299.497 510.829 298.562 509.508 298.562C508.818 298.562 508.248 298.823 507.799 299.344C507.35 299.858 507.125 300.509 507.125 301.297V307H504.85V297H507.125V298.66H507.164C507.913 297.397 508.993 296.766 510.406 296.766C511.493 296.766 512.324 297.12 512.896 297.83C513.469 298.533 513.756 299.552 513.756 300.887V307ZM525.621 307H523.355V305.301H523.316C522.587 306.59 521.464 307.234 519.947 307.234C518.717 307.234 517.73 306.788 516.988 305.896C516.253 304.998 515.885 303.777 515.885 302.234C515.885 300.581 516.292 299.256 517.105 298.26C517.926 297.264 519.016 296.766 520.377 296.766C521.725 296.766 522.704 297.306 523.316 298.387H523.355V292.195H525.621V307ZM523.385 302.43V301.121C523.385 300.411 523.154 299.809 522.691 299.314C522.229 298.82 521.64 298.572 520.924 298.572C520.077 298.572 519.41 298.888 518.922 299.52C518.44 300.151 518.199 301.027 518.199 302.146C518.199 303.162 518.43 303.966 518.893 304.559C519.361 305.145 519.99 305.438 520.777 305.438C521.552 305.438 522.18 305.154 522.662 304.588C523.144 304.015 523.385 303.296 523.385 302.43ZM358.15 331H355.953V329.438H355.914C355.224 330.635 354.212 331.234 352.877 331.234C351.894 331.234 351.122 330.967 350.562 330.434C350.009 329.9 349.732 329.193 349.732 328.314C349.732 326.426 350.82 325.326 352.994 325.014L355.963 324.594C355.963 323.168 355.286 322.455 353.932 322.455C352.74 322.455 351.666 322.865 350.709 323.686V321.703C351.764 321.078 352.981 320.766 354.361 320.766C356.887 320.766 358.15 322.009 358.15 324.496V331ZM355.963 326.088L353.863 326.381C353.212 326.465 352.721 326.625 352.389 326.859C352.063 327.087 351.9 327.491 351.9 328.07C351.9 328.493 352.05 328.842 352.35 329.115C352.656 329.382 353.062 329.516 353.57 329.516C354.26 329.516 354.83 329.275 355.279 328.793C355.735 328.305 355.963 327.693 355.963 326.957V326.088ZM369.645 331H367.379V329.418H367.34C366.682 330.629 365.66 331.234 364.273 331.234C361.91 331.234 360.729 329.815 360.729 326.977V321H362.994V326.742C362.994 328.539 363.688 329.438 365.074 329.438C365.745 329.438 366.295 329.19 366.725 328.695C367.161 328.201 367.379 327.553 367.379 326.752V321H369.645V331ZM377.877 330.893C377.434 331.114 376.852 331.225 376.129 331.225C374.189 331.225 373.219 330.294 373.219 328.432V322.777H371.549V321H373.219V318.686L375.484 318.041V321H377.877V322.777H375.484V327.777C375.484 328.37 375.592 328.793 375.807 329.047C376.021 329.301 376.38 329.428 376.881 329.428C377.265 329.428 377.597 329.317 377.877 329.096V330.893ZM384.146 331.234C382.604 331.234 381.37 330.769 380.445 329.838C379.527 328.9 379.068 327.66 379.068 326.117C379.068 324.438 379.547 323.126 380.504 322.182C381.467 321.238 382.763 320.766 384.391 320.766C385.953 320.766 387.171 321.225 388.043 322.143C388.915 323.061 389.352 324.333 389.352 325.961C389.352 327.556 388.88 328.835 387.936 329.799C386.998 330.756 385.735 331.234 384.146 331.234ZM384.254 322.572C383.368 322.572 382.669 322.882 382.154 323.5C381.64 324.118 381.383 324.971 381.383 326.059C381.383 327.107 381.643 327.934 382.164 328.539C382.685 329.138 383.382 329.438 384.254 329.438C385.146 329.438 385.829 329.141 386.305 328.549C386.786 327.956 387.027 327.113 387.027 326.02C387.027 324.919 386.786 324.07 386.305 323.471C385.829 322.872 385.146 322.572 384.254 322.572ZM406.617 331H404.352V325.551C404.352 324.503 404.202 323.744 403.902 323.275C403.609 322.807 403.111 322.572 402.408 322.572C401.816 322.572 401.311 322.868 400.895 323.461C400.484 324.053 400.279 324.763 400.279 325.59V331H398.004V325.365C398.004 323.503 397.346 322.572 396.031 322.572C395.419 322.572 394.915 322.852 394.518 323.412C394.127 323.972 393.932 324.698 393.932 325.59V331H391.666V321H393.932V322.582H393.971C394.693 321.371 395.745 320.766 397.125 320.766C397.815 320.766 398.417 320.958 398.932 321.342C399.452 321.719 399.807 322.217 399.996 322.836C400.738 321.456 401.845 320.766 403.316 320.766C405.517 320.766 406.617 322.123 406.617 324.838V331ZM417.057 331H414.859V329.438H414.82C414.13 330.635 413.118 331.234 411.783 331.234C410.8 331.234 410.029 330.967 409.469 330.434C408.915 329.9 408.639 329.193 408.639 328.314C408.639 326.426 409.726 325.326 411.9 325.014L414.869 324.594C414.869 323.168 414.192 322.455 412.838 322.455C411.646 322.455 410.572 322.865 409.615 323.686V321.703C410.67 321.078 411.887 320.766 413.268 320.766C415.794 320.766 417.057 322.009 417.057 324.496V331ZM414.869 326.088L412.77 326.381C412.118 326.465 411.627 326.625 411.295 326.859C410.969 327.087 410.807 327.491 410.807 328.07C410.807 328.493 410.956 328.842 411.256 329.115C411.562 329.382 411.969 329.516 412.477 329.516C413.167 329.516 413.736 329.275 414.186 328.793C414.641 328.305 414.869 327.693 414.869 326.957V326.088ZM425.104 330.893C424.661 331.114 424.078 331.225 423.355 331.225C421.415 331.225 420.445 330.294 420.445 328.432V322.777H418.775V321H420.445V318.686L422.711 318.041V321H425.104V322.777H422.711V327.777C422.711 328.37 422.818 328.793 423.033 329.047C423.248 329.301 423.606 329.428 424.107 329.428C424.492 329.428 424.824 329.317 425.104 329.096V330.893ZM435.406 326.615H428.59C428.616 327.54 428.899 328.253 429.439 328.754C429.986 329.255 430.735 329.506 431.686 329.506C432.753 329.506 433.733 329.187 434.625 328.549V330.375C433.714 330.948 432.509 331.234 431.012 331.234C429.54 331.234 428.385 330.782 427.545 329.877C426.712 328.965 426.295 327.686 426.295 326.039C426.295 324.483 426.754 323.217 427.672 322.24C428.596 321.257 429.742 320.766 431.109 320.766C432.477 320.766 433.535 321.205 434.283 322.084C435.032 322.963 435.406 324.184 435.406 325.746V326.615ZM433.219 325.014C433.212 324.2 433.02 323.568 432.643 323.119C432.265 322.663 431.744 322.436 431.08 322.436C430.429 322.436 429.876 322.673 429.42 323.148C428.971 323.624 428.694 324.245 428.59 325.014H433.219ZM446.656 331H444.391V329.301H444.352C443.622 330.59 442.499 331.234 440.982 331.234C439.752 331.234 438.766 330.788 438.023 329.896C437.288 328.998 436.92 327.777 436.92 326.234C436.92 324.581 437.327 323.256 438.141 322.26C438.961 321.264 440.051 320.766 441.412 320.766C442.76 320.766 443.74 321.306 444.352 322.387H444.391V316.195H446.656V331ZM444.42 326.43V325.121C444.42 324.411 444.189 323.809 443.727 323.314C443.264 322.82 442.675 322.572 441.959 322.572C441.113 322.572 440.445 322.888 439.957 323.52C439.475 324.151 439.234 325.027 439.234 326.146C439.234 327.162 439.465 327.966 439.928 328.559C440.396 329.145 441.025 329.438 441.812 329.438C442.587 329.438 443.215 329.154 443.697 328.588C444.179 328.015 444.42 327.296 444.42 326.43ZM454.498 330.688V328.588C455.344 329.232 456.279 329.555 457.301 329.555C458.668 329.555 459.352 329.151 459.352 328.344C459.352 328.116 459.293 327.924 459.176 327.768C459.059 327.605 458.899 327.462 458.697 327.338C458.502 327.214 458.268 327.104 457.994 327.006C457.727 326.908 457.428 326.798 457.096 326.674C456.686 326.511 456.314 326.339 455.982 326.156C455.657 325.974 455.383 325.769 455.162 325.541C454.947 325.307 454.785 325.043 454.674 324.75C454.563 324.457 454.508 324.115 454.508 323.725C454.508 323.243 454.622 322.82 454.85 322.455C455.077 322.084 455.383 321.775 455.768 321.527C456.152 321.273 456.588 321.085 457.076 320.961C457.564 320.831 458.069 320.766 458.59 320.766C459.514 320.766 460.341 320.906 461.07 321.186V323.168C460.367 322.686 459.56 322.445 458.648 322.445C458.362 322.445 458.102 322.475 457.867 322.533C457.639 322.592 457.444 322.673 457.281 322.777C457.118 322.882 456.992 323.008 456.9 323.158C456.809 323.301 456.764 323.461 456.764 323.637C456.764 323.852 456.809 324.034 456.9 324.184C456.992 324.333 457.125 324.467 457.301 324.584C457.483 324.695 457.698 324.799 457.945 324.896C458.199 324.988 458.489 325.089 458.814 325.199C459.244 325.375 459.628 325.554 459.967 325.736C460.312 325.919 460.605 326.127 460.846 326.361C461.087 326.589 461.272 326.856 461.402 327.162C461.533 327.462 461.598 327.82 461.598 328.236C461.598 328.744 461.48 329.187 461.246 329.564C461.012 329.942 460.699 330.255 460.309 330.502C459.918 330.749 459.465 330.932 458.951 331.049C458.443 331.173 457.906 331.234 457.34 331.234C456.246 331.234 455.299 331.052 454.498 330.688ZM470.914 330.541C470.113 331.003 469.166 331.234 468.072 331.234C466.588 331.234 465.39 330.772 464.479 329.848C463.567 328.917 463.111 327.712 463.111 326.234C463.111 324.587 463.6 323.266 464.576 322.27C465.559 321.267 466.871 320.766 468.512 320.766C469.423 320.766 470.227 320.925 470.924 321.244V323.354C470.227 322.833 469.485 322.572 468.697 322.572C467.74 322.572 466.956 322.898 466.344 323.549C465.732 324.193 465.426 325.04 465.426 326.088C465.426 327.123 465.712 327.94 466.285 328.539C466.865 329.138 467.639 329.438 468.609 329.438C469.423 329.438 470.191 329.148 470.914 328.568V330.541ZM480.846 331H478.648V329.438H478.609C477.919 330.635 476.907 331.234 475.572 331.234C474.589 331.234 473.818 330.967 473.258 330.434C472.704 329.9 472.428 329.193 472.428 328.314C472.428 326.426 473.515 325.326 475.689 325.014L478.658 324.594C478.658 323.168 477.981 322.455 476.627 322.455C475.436 322.455 474.361 322.865 473.404 323.686V321.703C474.459 321.078 475.676 320.766 477.057 320.766C479.583 320.766 480.846 322.009 480.846 324.496V331ZM478.658 326.088L476.559 326.381C475.908 326.465 475.416 326.625 475.084 326.859C474.758 327.087 474.596 327.491 474.596 328.07C474.596 328.493 474.745 328.842 475.045 329.115C475.351 329.382 475.758 329.516 476.266 329.516C476.956 329.516 477.525 329.275 477.975 328.793C478.43 328.305 478.658 327.693 478.658 326.957V326.088ZM492.525 331H490.26V325.365C490.26 323.497 489.599 322.562 488.277 322.562C487.587 322.562 487.018 322.823 486.568 323.344C486.119 323.858 485.895 324.509 485.895 325.297V331H483.619V321H485.895V322.66H485.934C486.682 321.397 487.763 320.766 489.176 320.766C490.263 320.766 491.093 321.12 491.666 321.83C492.239 322.533 492.525 323.552 492.525 324.887V331ZM494.674 330.688V328.588C495.52 329.232 496.454 329.555 497.477 329.555C498.844 329.555 499.527 329.151 499.527 328.344C499.527 328.116 499.469 327.924 499.352 327.768C499.234 327.605 499.075 327.462 498.873 327.338C498.678 327.214 498.443 327.104 498.17 327.006C497.903 326.908 497.604 326.798 497.271 326.674C496.861 326.511 496.49 326.339 496.158 326.156C495.833 325.974 495.559 325.769 495.338 325.541C495.123 325.307 494.96 325.043 494.85 324.75C494.739 324.457 494.684 324.115 494.684 323.725C494.684 323.243 494.798 322.82 495.025 322.455C495.253 322.084 495.559 321.775 495.943 321.527C496.327 321.273 496.764 321.085 497.252 320.961C497.74 320.831 498.245 320.766 498.766 320.766C499.69 320.766 500.517 320.906 501.246 321.186V323.168C500.543 322.686 499.736 322.445 498.824 322.445C498.538 322.445 498.277 322.475 498.043 322.533C497.815 322.592 497.62 322.673 497.457 322.777C497.294 322.882 497.167 323.008 497.076 323.158C496.985 323.301 496.939 323.461 496.939 323.637C496.939 323.852 496.985 324.034 497.076 324.184C497.167 324.333 497.301 324.467 497.477 324.584C497.659 324.695 497.874 324.799 498.121 324.896C498.375 324.988 498.665 325.089 498.99 325.199C499.42 325.375 499.804 325.554 500.143 325.736C500.488 325.919 500.781 326.127 501.021 326.361C501.262 326.589 501.448 326.856 501.578 327.162C501.708 327.462 501.773 327.82 501.773 328.236C501.773 328.744 501.656 329.187 501.422 329.564C501.188 329.942 500.875 330.255 500.484 330.502C500.094 330.749 499.641 330.932 499.127 331.049C498.619 331.173 498.082 331.234 497.516 331.234C496.422 331.234 495.475 331.052 494.674 330.688ZM504.869 331.215C504.479 331.215 504.146 331.088 503.873 330.834C503.6 330.574 503.463 330.264 503.463 329.906C503.463 329.542 503.6 329.229 503.873 328.969C504.146 328.708 504.479 328.578 504.869 328.578C505.266 328.578 505.602 328.708 505.875 328.969C506.155 329.229 506.295 329.542 506.295 329.906C506.295 330.264 506.155 330.574 505.875 330.834C505.602 331.088 505.266 331.215 504.869 331.215Z" fill="#525252"/>
<g filter="url(#filter3_dd_5850_13334)">
<path d="M339.5 523C372.399 364.317 569.794 360.5 610.5 523M372.399 522.999C402.5 431 543.029 433.147 569.794 522.999" stroke="#090909" stroke-opacity="0.1" shape-rendering="crispEdges"/>
</g>
<g filter="url(#filter4_di_5850_13334)">
<g clip-path="url(#clip0_5850_13334)">
<rect x="330" y="98" width="287" height="429" rx="20" fill="white" fill-opacity="0.4" shape-rendering="crispEdges"/>
<mask id="path-8-inside-1_5850_13334" fill="white">
<path d="M330 118C330 106.954 338.954 98 350 98H597C608.046 98 617 106.954 617 118V506.584C617 517.63 608.046 526.584 597 526.584H350C338.954 526.584 330 517.63 330 506.584V118Z"/>
</mask>
<path d="M350 98V99H597V98V97H350V98ZM617 118H616V506.584H617H618V118H617ZM597 526.584V525.584H350V526.584V527.584H597V526.584ZM330 506.584H331V118H330H329V506.584H330ZM350 526.584V525.584C339.507 525.584 331 517.078 331 506.584H330H329C329 518.182 338.402 527.584 350 527.584V526.584ZM617 506.584H616C616 517.078 607.493 525.584 597 525.584V526.584V527.584C608.598 527.584 618 518.182 618 506.584H617ZM597 98V99C607.493 99 616 107.507 616 118H617H618C618 106.402 608.598 97 597 97V98ZM350 98V97C338.402 97 329 106.402 329 118H330H331C331 107.507 339.507 99 350 99V98Z" fill="#E5E5E5" fill-opacity="0.9" mask="url(#path-8-inside-1_5850_13334)"/>
</g>
</g>
<path d="M349.969 179.261L342.749 153.032L347.85 153.065L352.443 172.335L352.686 172.337L357.847 153.13L362.488 153.16L367.413 172.445L367.643 172.446L372.485 153.224L377.585 153.257L370.027 179.391L365.348 179.361L360.225 160.956L360.021 160.955L354.648 179.291L349.969 179.261ZM387.187 179.885C385.218 179.873 383.52 179.453 382.094 178.625C380.676 177.789 379.588 176.615 378.831 175.101C378.074 173.579 377.702 171.791 377.715 169.737C377.728 167.717 378.123 165.947 378.9 164.427C379.686 162.898 380.776 161.711 382.17 160.868C383.565 160.016 385.2 159.597 387.075 159.609C388.285 159.616 389.426 159.82 390.497 160.219C391.577 160.609 392.528 161.212 393.349 162.027C394.179 162.842 394.829 163.878 395.298 165.134C395.767 166.381 395.996 167.865 395.985 169.587L395.976 171.006L379.881 170.902L379.901 167.783L391.56 167.858C391.557 166.972 391.371 166.182 391 165.489C390.63 164.788 390.109 164.235 389.438 163.83C388.776 163.425 388.002 163.22 387.116 163.214C386.17 163.208 385.337 163.433 384.618 163.888C383.899 164.335 383.337 164.928 382.932 165.667C382.535 166.398 382.33 167.202 382.316 168.079L382.298 170.802C382.291 171.944 382.493 172.926 382.905 173.747C383.318 174.559 383.897 175.185 384.645 175.625C385.392 176.056 386.268 176.274 387.274 176.281C387.947 176.285 388.557 176.195 389.104 176.011C389.651 175.819 390.125 175.536 390.528 175.164C390.931 174.792 391.237 174.329 391.445 173.776L395.763 174.29C395.483 175.43 394.956 176.424 394.184 177.271C393.42 178.11 392.444 178.76 391.256 179.221C390.069 179.674 388.712 179.895 387.187 179.885ZM400.04 179.585L400.209 153.404L404.837 153.434L404.774 163.226L404.966 163.227C405.207 162.752 405.547 162.247 405.985 161.712C406.424 161.17 407.015 160.709 407.759 160.33C408.503 159.943 409.45 159.753 410.6 159.761C412.117 159.771 413.483 160.167 414.696 160.951C415.919 161.726 416.883 162.87 417.589 164.383C418.304 165.887 418.654 167.731 418.64 169.912C418.626 172.069 418.261 173.899 417.543 175.403C416.826 176.906 415.856 178.051 414.632 178.836C413.408 179.62 412.025 180.008 410.482 179.998C409.357 179.99 408.425 179.797 407.686 179.417C406.947 179.037 406.354 178.582 405.905 178.05C405.466 177.511 405.124 177.001 404.88 176.522L404.611 176.521L404.591 179.614L400.04 179.585ZM404.642 169.796C404.634 171.066 404.805 172.18 405.157 173.136C405.518 174.093 406.037 174.842 406.715 175.384C407.402 175.917 408.236 176.186 409.216 176.192C410.238 176.199 411.097 175.932 411.791 175.391C412.484 174.841 413.009 174.091 413.365 173.138C413.729 172.178 413.915 171.084 413.923 169.856C413.931 168.638 413.763 167.554 413.42 166.606C413.077 165.658 412.561 164.913 411.875 164.371C411.188 163.83 410.329 163.556 409.297 163.549C408.309 163.543 407.468 163.797 406.774 164.313C406.08 164.828 405.551 165.554 405.187 166.489C404.832 167.424 404.65 168.526 404.642 169.796ZM445.996 160.897C445.884 159.78 445.387 158.908 444.504 158.28C443.631 157.652 442.491 157.333 441.084 157.324C440.096 157.318 439.247 157.462 438.538 157.755C437.828 158.049 437.284 158.45 436.906 158.959C436.528 159.468 436.332 160.051 436.32 160.707C436.316 161.252 436.437 161.726 436.681 162.128C436.934 162.531 437.277 162.874 437.71 163.158C438.143 163.433 438.623 163.666 439.15 163.857C439.677 164.048 440.209 164.209 440.745 164.341L443.196 164.97C444.183 165.207 445.131 165.524 446.04 165.922C446.958 166.32 447.777 166.819 448.498 167.421C449.227 168.022 449.802 168.746 450.223 169.592C450.643 170.439 450.85 171.429 450.843 172.562C450.833 174.096 450.432 175.445 449.64 176.607C448.849 177.761 447.709 178.662 446.222 179.308C444.744 179.946 442.956 180.259 440.86 180.245C438.823 180.232 437.056 179.905 435.56 179.265C434.073 178.625 432.911 177.697 432.075 176.481C431.248 175.265 430.806 173.788 430.749 172.049L435.415 172.079C435.477 172.991 435.754 173.752 436.244 174.36C436.734 174.968 437.375 175.424 438.166 175.728C438.965 176.031 439.859 176.186 440.847 176.192C441.879 176.199 442.783 176.052 443.561 175.75C444.347 175.439 444.963 175.009 445.41 174.458C445.857 173.898 446.087 173.243 446.1 172.493C446.096 171.812 445.899 171.248 445.51 170.802C445.121 170.348 444.574 169.969 443.868 169.666C443.171 169.355 442.355 169.077 441.419 168.832L438.445 168.046C436.293 167.478 434.594 166.628 433.348 165.495C432.111 164.353 431.499 162.845 431.511 160.97C431.521 159.427 431.947 158.079 432.79 156.925C433.641 155.772 434.793 154.88 436.246 154.25C437.699 153.612 439.342 153.299 441.174 153.311C443.032 153.323 444.658 153.657 446.051 154.314C447.454 154.962 448.551 155.86 449.345 157.007C450.139 158.146 450.544 159.452 450.56 160.927L445.996 160.897ZM463.382 180.378C461.421 180.365 459.741 179.924 458.34 179.054C456.948 178.184 455.878 176.989 455.129 175.467C454.389 173.936 454.025 172.178 454.038 170.192C454.051 168.198 454.446 166.441 455.223 164.92C456 163.391 457.09 162.205 458.493 161.362C459.905 160.51 461.569 160.09 463.487 160.103C465.081 160.113 466.489 160.416 467.713 161.012C468.945 161.6 469.924 162.428 470.65 163.499C471.376 164.56 471.786 165.799 471.879 167.214L467.456 167.185C467.283 166.238 466.862 165.447 466.192 164.812C465.532 164.169 464.643 163.843 463.527 163.836C462.581 163.83 461.748 164.08 461.029 164.587C460.31 165.085 459.747 165.806 459.34 166.749C458.942 167.693 458.739 168.825 458.73 170.146C458.722 171.484 458.91 172.636 459.296 173.601C459.682 174.559 460.227 175.299 460.931 175.824C461.643 176.34 462.481 176.601 463.444 176.607C464.126 176.611 464.736 176.488 465.275 176.235C465.822 175.975 466.28 175.598 466.65 175.106C467.02 174.614 467.275 174.015 467.416 173.309L471.839 173.337C471.719 174.726 471.302 175.955 470.588 177.024C469.874 178.085 468.905 178.914 467.683 179.511C466.46 180.1 465.026 180.389 463.382 180.378ZM481.244 180.506C479.999 180.498 478.88 180.269 477.886 179.82C476.9 179.362 476.12 178.692 475.546 177.81C474.981 176.929 474.703 175.845 474.711 174.558C474.718 173.45 474.929 172.535 475.342 171.813C475.756 171.091 476.318 170.515 477.028 170.085C477.738 169.655 478.537 169.332 479.425 169.116C480.322 168.892 481.247 168.732 482.203 168.636C483.354 168.524 484.288 168.423 485.004 168.334C485.721 168.237 486.242 168.087 486.567 167.884C486.901 167.673 487.069 167.346 487.072 166.903L487.072 166.826C487.078 165.863 486.798 165.116 486.23 164.584C485.663 164.052 484.842 163.782 483.768 163.775C482.635 163.768 481.734 164.009 481.066 164.499C480.406 164.989 479.96 165.57 479.725 166.242L475.408 165.6C475.757 164.409 476.326 163.416 477.115 162.62C477.904 161.815 478.867 161.216 480.003 160.823C481.139 160.421 482.393 160.225 483.765 160.234C484.711 160.24 485.652 160.357 486.588 160.584C487.525 160.812 488.379 161.184 489.151 161.7C489.923 162.208 490.541 162.898 491.004 163.771C491.476 164.643 491.707 165.731 491.699 167.035L491.614 180.177L487.165 180.148L487.183 177.451L487.029 177.45C486.744 177.993 486.345 178.502 485.83 178.976C485.324 179.442 484.687 179.817 483.918 180.102C483.158 180.378 482.266 180.513 481.244 180.506ZM482.467 177.114C483.396 177.12 484.203 176.942 484.887 176.579C485.571 176.209 486.099 175.718 486.469 175.107C486.848 174.496 487.04 173.828 487.044 173.103L487.059 170.789C486.914 170.908 486.666 171.017 486.316 171.117C485.974 171.217 485.59 171.304 485.164 171.378C484.737 171.452 484.315 171.517 483.897 171.574C483.479 171.631 483.116 171.68 482.809 171.721C482.118 171.81 481.499 171.959 480.952 172.169C480.406 172.379 479.973 172.674 479.655 173.056C479.338 173.428 479.177 173.913 479.173 174.51C479.167 175.362 479.474 176.008 480.094 176.446C480.713 176.885 481.504 177.107 482.467 177.114ZM500.969 168.732L500.895 180.237L496.267 180.207L496.394 160.571L500.817 160.6L500.796 163.936L501.026 163.938C501.485 162.841 502.211 161.972 503.203 161.331C504.205 160.69 505.438 160.374 506.904 160.383C508.259 160.392 509.438 160.69 510.44 161.276C511.45 161.862 512.229 162.706 512.776 163.809C513.331 164.912 513.599 166.248 513.581 167.816L513.5 180.319L508.872 180.289L508.948 168.502C508.957 167.189 508.622 166.16 507.945 165.414C507.277 164.669 506.346 164.292 505.153 164.284C504.343 164.279 503.622 164.453 502.989 164.807C502.365 165.152 501.871 165.656 501.509 166.319C501.155 166.981 500.975 167.786 500.969 168.732ZM527.083 180.406L527.105 176.98L536.252 168.129C537.127 167.257 537.856 166.481 538.44 165.803C539.024 165.125 539.463 164.468 539.757 163.83C540.051 163.193 540.2 162.512 540.205 161.788C540.21 160.961 540.027 160.252 539.656 159.662C539.285 159.063 538.772 158.599 538.118 158.271C537.464 157.943 536.719 157.776 535.884 157.771C535.023 157.765 534.268 157.94 533.618 158.293C532.968 158.639 532.462 159.134 532.1 159.779C531.746 160.425 531.566 161.195 531.561 162.09L527.048 162.061C527.059 160.399 527.447 158.957 528.214 157.734C528.98 156.512 530.03 155.568 531.364 154.904C532.706 154.239 534.243 153.912 535.973 153.923C537.728 153.935 539.269 154.273 540.594 154.938C541.919 155.603 542.945 156.508 543.67 157.655C544.404 158.802 544.767 160.108 544.757 161.574C544.751 162.554 544.557 163.516 544.176 164.46C543.795 165.403 543.128 166.447 542.174 167.592C541.229 168.736 539.904 170.121 538.197 171.746L533.655 176.307L533.654 176.486L545.057 176.559L545.031 180.522L527.083 180.406ZM548.437 175.686L548.462 171.915L559.684 154.435L562.829 154.455L562.795 159.824L560.877 159.812L553.322 171.614L553.321 171.819L568.827 171.919L568.802 175.818L548.437 175.686ZM560.896 180.625L560.935 174.617L560.997 172.929L561.116 154.444L565.591 154.473L565.421 180.654L560.896 180.625ZM583.771 153.363L575.131 184.655L571.078 184.628L579.718 153.337L583.771 153.363ZM587.454 180.797L598.731 158.829L598.733 158.65L585.808 158.567L585.834 154.604L603.667 154.719L603.641 158.772L592.376 180.828L587.454 180.797Z" fill="url(#paint0_linear_5850_13334)"/>
<defs>
<filter id="filter0_d_5850_13334" x="521.8" y="408.8" width="13.4" height="13.4" filterUnits="userSpaceOnUse" color-interpolation-filters="sRGB">
<feFlood flood-opacity="0" result="BackgroundImageFix"/>
<feColorMatrix in="SourceAlpha" type="matrix" values="0 0 0 0 0 0 0 0 0 0 0 0 0 0 0 0 0 0 127 0" result="hardAlpha"/>
<feOffset/>
<feGaussianBlur stdDeviation="2.1"/>
<feComposite in2="hardAlpha" operator="out"/>
<feColorMatrix type="matrix" values="0 0 0 0 0 0 0 0 0 0 0 0 0 0 0 0 0 0 0.25 0"/>
<feBlend mode="normal" in2="BackgroundImageFix" result="effect1_dropShadow_5850_13334"/>
<feBlend mode="normal" in="SourceGraphic" in2="effect1_dropShadow_5850_13334" result="shape"/>
</filter>
<filter id="filter1_d_5850_13334" x="438.8" y="451.8" width="13.4" height="13.4" filterUnits="userSpaceOnUse" color-interpolation-filters="sRGB">
<feFlood flood-opacity="0" result="BackgroundImageFix"/>
<feColorMatrix in="SourceAlpha" type="matrix" values="0 0 0 0 0 0 0 0 0 0 0 0 0 0 0 0 0 0 127 0" result="hardAlpha"/>
<feOffset/>
<feGaussianBlur stdDeviation="2.1"/>
<feComposite in2="hardAlpha" operator="out"/>
<feColorMatrix type="matrix" values="0 0 0 0 0 0 0 0 0 0 0 0 0 0 0 0 0 0 0.25 0"/>
<feBlend mode="normal" in2="BackgroundImageFix" result="effect1_dropShadow_5850_13334"/>
<feBlend mode="normal" in="SourceGraphic" in2="effect1_dropShadow_5850_13334" result="shape"/>
</filter>
<filter id="filter2_d_5850_13334" x="400.8" y="413.8" width="13.4" height="13.4" filterUnits="userSpaceOnUse" color-interpolation-filters="sRGB">
<feFlood flood-opacity="0" result="BackgroundImageFix"/>
<feColorMatrix in="SourceAlpha" type="matrix" values="0 0 0 0 0 0 0 0 0 0 0 0 0 0 0 0 0 0 127 0" result="hardAlpha"/>
<feOffset/>
<feGaussianBlur stdDeviation="2.1"/>
<feComposite in2="hardAlpha" operator="out"/>
<feColorMatrix type="matrix" values="0 0 0 0 0 0 0 0 0 0 0 0 0 0 0 0 0 0 0.25 0"/>
<feBlend mode="normal" in2="BackgroundImageFix" result="effect1_dropShadow_5850_13334"/>
<feBlend mode="normal" in="SourceGraphic" in2="effect1_dropShadow_5850_13334" result="shape"/>
</filter>
<filter id="filter3_dd_5850_13334" x="328.51" y="388.552" width="292.975" height="147.002" filterUnits="userSpaceOnUse" color-interpolation-filters="sRGB">
<feFlood flood-opacity="0" result="BackgroundImageFix"/>
<feColorMatrix in="SourceAlpha" type="matrix" values="0 0 0 0 0 0 0 0 0 0 0 0 0 0 0 0 0 0 127 0" result="hardAlpha"/>
<feOffset dy="-3"/>
<feGaussianBlur stdDeviation="5.25"/>
<feComposite in2="hardAlpha" operator="out"/>
<feColorMatrix type="matrix" values="0 0 0 0 0.121569 0 0 0 0 0.658824 0 0 0 0 0.792157 0 0 0 1 0"/>
<feBlend mode="normal" in2="BackgroundImageFix" result="effect1_dropShadow_5850_13334"/>
<feColorMatrix in="SourceAlpha" type="matrix" values="0 0 0 0 0 0 0 0 0 0 0 0 0 0 0 0 0 0 127 0" result="hardAlpha"/>
<feOffset dy="3"/>
<feGaussianBlur stdDeviation="4.7"/>
<feComposite in2="hardAlpha" operator="out"/>
<feColorMatrix type="matrix" values="0 0 0 0 0.121569 0 0 0 0 0.658824 0 0 0 0 0.792157 0 0 0 1 0"/>
<feBlend mode="normal" in2="effect1_dropShadow_5850_13334" result="effect2_dropShadow_5850_13334"/>
<feBlend mode="normal" in="SourceGraphic" in2="effect2_dropShadow_5850_13334" result="shape"/>
</filter>
<filter id="filter4_di_5850_13334" x="326" y="98" width="295" height="437" filterUnits="userSpaceOnUse" color-interpolation-filters="sRGB">
<feFlood flood-opacity="0" result="BackgroundImageFix"/>
<feColorMatrix in="SourceAlpha" type="matrix" values="0 0 0 0 0 0 0 0 0 0 0 0 0 0 0 0 0 0 127 0" result="hardAlpha"/>
<feOffset dy="4"/>
<feGaussianBlur stdDeviation="2"/>
<feComposite in2="hardAlpha" operator="out"/>
<feColorMatrix type="matrix" values="0 0 0 0 0 0 0 0 0 0 0 0 0 0 0 0 0 0 0.05 0"/>
<feBlend mode="normal" in2="BackgroundImageFix" result="effect1_dropShadow_5850_13334"/>
<feBlend mode="normal" in="SourceGraphic" in2="effect1_dropShadow_5850_13334" result="shape"/>
<feColorMatrix in="SourceAlpha" type="matrix" values="0 0 0 0 0 0 0 0 0 0 0 0 0 0 0 0 0 0 127 0" result="hardAlpha"/>
<feOffset dy="4"/>
<feGaussianBlur stdDeviation="2"/>
<feComposite in2="hardAlpha" operator="arithmetic" k2="-1" k3="1"/>
<feColorMatrix type="matrix" values="0 0 0 0 0 0 0 0 0 0 0 0 0 0 0 0 0 0 0.05 0"/>
<feBlend mode="normal" in2="shape" result="effect2_innerShadow_5850_13334"/>
</filter>
<linearGradient id="paint0_linear_5850_13334" x1="0.181029" y1="163.999" x2="947.161" y2="170.122" gradientUnits="userSpaceOnUse">
<stop/>
<stop offset="0.105743"/>
<stop offset="1"/>
</linearGradient>
<clipPath id="clip0_5850_13334">
<rect x="330" y="98" width="287" height="429" rx="20" fill="white"/>
</clipPath>
</defs>
</svg>
