<svg width="948" height="437" viewBox="0 0 948 437" fill="none" xmlns="http://www.w3.org/2000/svg">
<g filter="url(#filter0_di_5985_20305)">
<g clip-path="url(#clip0_5985_20305)">
<rect x="347" width="287" height="429" rx="20" fill="white" fill-opacity="0.4" shape-rendering="crispEdges"/>
<mask id="path-2-inside-1_5985_20305" fill="white">
<path d="M347 20C347 8.95432 355.954 0 367 0H614C625.046 0 634 8.95431 634 20V408.584C634 419.63 625.046 428.584 614 428.584H367C355.954 428.584 347 419.63 347 408.584V20Z"/>
</mask>
<path d="M367 0V1H614V0V-1H367V0ZM634 20H633V408.584H634H635V20H634ZM614 428.584V427.584H367V428.584V429.584H614V428.584ZM347 408.584H348V20H347H346V408.584H347ZM367 428.584V427.584C356.507 427.584 348 419.078 348 408.584H347H346C346 420.182 355.402 429.584 367 429.584V428.584ZM634 408.584H633C633 419.078 624.493 427.584 614 427.584V428.584V429.584C625.598 429.584 635 420.182 635 408.584H634ZM614 0V1C624.493 1 633 9.50659 633 20H634H635C635 8.40202 625.598 -1 614 -1V0ZM367 0V-1C355.402 -1 346 8.40203 346 20H347H348C348 9.5066 356.507 1 367 1V0Z" fill="#E5E5E5" fill-opacity="0.9" mask="url(#path-2-inside-1_5985_20305)"/>
</g>
</g>
<path d="M410.187 68.7969L406.515 75.9297V80H404.656V75.9688L401.078 68.7969H403.195L405.398 73.6016C405.424 73.6589 405.502 73.875 405.633 74.25H405.656C405.703 74.0833 405.789 73.8672 405.914 73.6016L408.219 68.7969H410.187ZM413.539 80.1875C412.304 80.1875 411.317 79.8151 410.578 79.0703C409.844 78.3203 409.476 77.3281 409.476 76.0938C409.476 74.75 409.859 73.7005 410.625 72.9453C411.396 72.1901 412.432 71.8125 413.734 71.8125C414.984 71.8125 415.958 72.1797 416.656 72.9141C417.354 73.6484 417.703 74.6667 417.703 75.9688C417.703 77.2448 417.325 78.2682 416.57 79.0391C415.82 79.8047 414.81 80.1875 413.539 80.1875ZM413.625 73.2578C412.916 73.2578 412.357 73.5052 411.945 74C411.534 74.4948 411.328 75.1771 411.328 76.0469C411.328 76.8854 411.536 77.5469 411.953 78.0312C412.37 78.5104 412.927 78.75 413.625 78.75C414.338 78.75 414.885 78.513 415.265 78.0391C415.651 77.5651 415.844 76.8906 415.844 76.0156C415.844 75.1354 415.651 74.4557 415.265 73.9766C414.885 73.4974 414.338 73.2578 413.625 73.2578ZM426.531 80H424.719V78.7344H424.687C424.161 79.7031 423.344 80.1875 422.234 80.1875C420.344 80.1875 419.398 79.0521 419.398 76.7812V72H421.211V76.5938C421.211 78.0312 421.765 78.75 422.875 78.75C423.411 78.75 423.851 78.5521 424.195 78.1562C424.544 77.7604 424.719 77.2422 424.719 76.6016V72H426.531V80ZM444.062 72L441.703 80H439.804L438.351 74.5781C438.294 74.3698 438.258 74.1354 438.242 73.875H438.211C438.2 74.0521 438.153 74.2812 438.07 74.5625L436.492 80H434.633L432.281 72H434.156L435.609 77.7656C435.656 77.9375 435.687 78.1667 435.703 78.4531H435.758C435.773 78.2344 435.815 78 435.883 77.75L437.5 72H439.203L440.64 77.7891C440.687 77.9714 440.721 78.2005 440.742 78.4766H440.797C440.807 78.2839 440.846 78.0547 440.914 77.7891L442.336 72H444.062ZM446.328 70.3203C446.031 70.3203 445.776 70.224 445.562 70.0312C445.354 69.8385 445.25 69.5938 445.25 69.2969C445.25 69 445.354 68.7526 445.562 68.5547C445.776 68.3568 446.031 68.2578 446.328 68.2578C446.635 68.2578 446.896 68.3568 447.109 68.5547C447.323 68.7526 447.429 69 447.429 69.2969C447.429 69.5781 447.323 69.8203 447.109 70.0234C446.896 70.2214 446.635 70.3203 446.328 70.3203ZM447.226 80H445.414V72H447.226V80ZM451.422 80H449.601V68.1562H451.422V80ZM455.609 80H453.789V68.1562H455.609V80ZM464.226 78.8438H464.195V80H462.383V68.1562H464.195V73.4062H464.226C464.846 72.3438 465.752 71.8125 466.945 71.8125C467.955 71.8125 468.745 72.1719 469.312 72.8906C469.885 73.6042 470.172 74.5625 470.172 75.7656C470.172 77.1042 469.851 78.1771 469.211 78.9844C468.57 79.7865 467.695 80.1875 466.586 80.1875C465.544 80.1875 464.758 79.7396 464.226 78.8438ZM464.179 75.6641V76.6562C464.179 77.2396 464.364 77.7344 464.734 78.1406C465.109 78.5469 465.583 78.75 466.156 78.75C466.828 78.75 467.354 78.4896 467.734 77.9688C468.12 77.4427 468.312 76.7109 468.312 75.7734C468.312 74.987 468.133 74.3724 467.773 73.9297C467.419 73.4818 466.937 73.2578 466.328 73.2578C465.682 73.2578 465.161 73.487 464.765 73.9453C464.375 74.4036 464.179 74.9766 464.179 75.6641ZM478.797 76.4922H473.344C473.364 77.2318 473.591 77.8021 474.023 78.2031C474.461 78.6042 475.06 78.8047 475.82 78.8047C476.674 78.8047 477.458 78.5495 478.172 78.0391V79.5C477.442 79.9583 476.479 80.1875 475.281 80.1875C474.104 80.1875 473.179 79.8255 472.508 79.1016C471.841 78.3724 471.508 77.349 471.508 76.0312C471.508 74.7865 471.875 73.7734 472.609 72.9922C473.349 72.2057 474.265 71.8125 475.359 71.8125C476.453 71.8125 477.299 72.1641 477.898 72.8672C478.497 73.5703 478.797 74.5469 478.797 75.7969V76.4922ZM477.047 75.2109C477.041 74.5599 476.888 74.0547 476.586 73.6953C476.284 73.3307 475.867 73.1484 475.336 73.1484C474.815 73.1484 474.372 73.3385 474.008 73.7188C473.648 74.099 473.427 74.5964 473.344 75.2109H477.047ZM491.07 80H489.312V78.75H489.281C488.729 79.7083 487.919 80.1875 486.851 80.1875C486.065 80.1875 485.448 79.974 485 79.5469C484.557 79.1198 484.336 78.5547 484.336 77.8516C484.336 76.3411 485.205 75.4609 486.945 75.2109L489.32 74.875C489.32 73.7344 488.778 73.1641 487.695 73.1641C486.742 73.1641 485.883 73.4922 485.117 74.1484V72.5625C485.961 72.0625 486.935 71.8125 488.039 71.8125C490.06 71.8125 491.07 72.8073 491.07 74.7969V80ZM489.32 76.0703L487.64 76.3047C487.12 76.3724 486.726 76.5 486.461 76.6875C486.2 76.8698 486.07 77.1927 486.07 77.6562C486.07 77.9948 486.19 78.2734 486.429 78.4922C486.674 78.7057 487 78.8125 487.406 78.8125C487.958 78.8125 488.414 78.6198 488.773 78.2344C489.138 77.8438 489.32 77.3542 489.32 76.7656V76.0703ZM492.789 79.75V78.0703C493.466 78.5859 494.213 78.8438 495.031 78.8438C496.125 78.8438 496.672 78.5208 496.672 77.875C496.672 77.6927 496.625 77.5391 496.531 77.4141C496.437 77.2839 496.31 77.1693 496.148 77.0703C495.992 76.9714 495.804 76.8828 495.586 76.8047C495.372 76.7266 495.133 76.638 494.867 76.5391C494.539 76.4089 494.242 76.2708 493.976 76.125C493.716 75.9792 493.497 75.8151 493.32 75.6328C493.148 75.4453 493.018 75.2344 492.929 75C492.841 74.7656 492.797 74.4922 492.797 74.1797C492.797 73.7943 492.888 73.4557 493.07 73.1641C493.252 72.8672 493.497 72.6198 493.804 72.4219C494.112 72.2188 494.461 72.0677 494.851 71.9688C495.242 71.8646 495.646 71.8125 496.062 71.8125C496.802 71.8125 497.463 71.9245 498.047 72.1484V73.7344C497.484 73.349 496.838 73.1562 496.109 73.1562C495.88 73.1562 495.672 73.1797 495.484 73.2266C495.302 73.2734 495.146 73.3385 495.015 73.4219C494.885 73.5052 494.784 73.6068 494.711 73.7266C494.638 73.8411 494.601 73.9688 494.601 74.1094C494.601 74.2812 494.638 74.4271 494.711 74.5469C494.784 74.6667 494.89 74.7734 495.031 74.8672C495.177 74.9557 495.349 75.0391 495.547 75.1172C495.75 75.1901 495.982 75.2708 496.242 75.3594C496.586 75.5 496.893 75.6432 497.164 75.7891C497.44 75.9349 497.674 76.1016 497.867 76.2891C498.06 76.4714 498.208 76.6849 498.312 76.9297C498.416 77.1693 498.469 77.4557 498.469 77.7891C498.469 78.1953 498.375 78.5495 498.187 78.8516C498 79.1536 497.75 79.4036 497.437 79.6016C497.125 79.7995 496.763 79.9453 496.351 80.0391C495.945 80.138 495.515 80.1875 495.062 80.1875C494.187 80.1875 493.429 80.0417 492.789 79.75ZM499.695 79.75V78.0703C500.372 78.5859 501.12 78.8438 501.937 78.8438C503.031 78.8438 503.578 78.5208 503.578 77.875C503.578 77.6927 503.531 77.5391 503.437 77.4141C503.344 77.2839 503.216 77.1693 503.054 77.0703C502.898 76.9714 502.711 76.8828 502.492 76.8047C502.278 76.7266 502.039 76.638 501.773 76.5391C501.445 76.4089 501.148 76.2708 500.883 76.125C500.622 75.9792 500.403 75.8151 500.226 75.6328C500.054 75.4453 499.924 75.2344 499.836 75C499.747 74.7656 499.703 74.4922 499.703 74.1797C499.703 73.7943 499.794 73.4557 499.976 73.1641C500.159 72.8672 500.403 72.6198 500.711 72.4219C501.018 72.2188 501.367 72.0677 501.758 71.9688C502.148 71.8646 502.552 71.8125 502.969 71.8125C503.708 71.8125 504.37 71.9245 504.953 72.1484V73.7344C504.39 73.349 503.745 73.1562 503.015 73.1562C502.786 73.1562 502.578 73.1797 502.39 73.2266C502.208 73.2734 502.052 73.3385 501.922 73.4219C501.791 73.5052 501.69 73.6068 501.617 73.7266C501.544 73.8411 501.508 73.9688 501.508 74.1094C501.508 74.2812 501.544 74.4271 501.617 74.5469C501.69 74.6667 501.797 74.7734 501.937 74.8672C502.083 74.9557 502.255 75.0391 502.453 75.1172C502.656 75.1901 502.888 75.2708 503.148 75.3594C503.492 75.5 503.799 75.6432 504.07 75.7891C504.346 75.9349 504.58 76.1016 504.773 76.2891C504.966 76.4714 505.114 76.6849 505.219 76.9297C505.323 77.1693 505.375 77.4557 505.375 77.7891C505.375 78.1953 505.281 78.5495 505.094 78.8516C504.906 79.1536 504.656 79.4036 504.344 79.6016C504.031 79.7995 503.669 79.9453 503.258 80.0391C502.851 80.138 502.422 80.1875 501.969 80.1875C501.094 80.1875 500.336 80.0417 499.695 79.75ZM508.015 70.3203C507.719 70.3203 507.463 70.224 507.25 70.0312C507.041 69.8385 506.937 69.5938 506.937 69.2969C506.937 69 507.041 68.7526 507.25 68.5547C507.463 68.3568 507.719 68.2578 508.015 68.2578C508.323 68.2578 508.583 68.3568 508.797 68.5547C509.01 68.7526 509.117 69 509.117 69.2969C509.117 69.5781 509.01 69.8203 508.797 70.0234C508.583 70.2214 508.323 70.3203 508.015 70.3203ZM508.914 80H507.101V72H508.914V80ZM518.57 79.3594C518.57 82.2969 517.094 83.7656 514.14 83.7656C513.099 83.7656 512.19 83.5911 511.414 83.2422V81.5859C512.289 82.0859 513.12 82.3359 513.906 82.3359C515.807 82.3359 516.758 81.401 516.758 79.5312V78.6562H516.726C516.127 79.6771 515.226 80.1875 514.023 80.1875C513.049 80.1875 512.263 79.8333 511.664 79.125C511.07 78.4115 510.773 77.4557 510.773 76.2578C510.773 74.8984 511.094 73.8177 511.734 73.0156C512.375 72.2135 513.255 71.8125 514.375 71.8125C515.432 71.8125 516.216 72.2448 516.726 73.1094H516.758V72H518.57V79.3594ZM516.773 76.3359V75.2969C516.773 74.7344 516.586 74.2552 516.211 73.8594C515.841 73.4583 515.377 73.2578 514.82 73.2578C514.133 73.2578 513.594 73.513 513.203 74.0234C512.817 74.5286 512.625 75.237 512.625 76.1484C512.625 76.9349 512.81 77.5651 513.179 78.0391C513.554 78.5078 514.049 78.7422 514.664 78.7422C515.289 78.7422 515.797 78.5182 516.187 78.0703C516.578 77.6172 516.773 77.0391 516.773 76.3359ZM528.054 80H526.242V75.4922C526.242 73.9974 525.713 73.25 524.656 73.25C524.104 73.25 523.648 73.4583 523.289 73.875C522.929 74.2865 522.75 74.8073 522.75 75.4375V80H520.929V72H522.75V73.3281H522.781C523.38 72.3177 524.245 71.8125 525.375 71.8125C526.245 71.8125 526.909 72.0964 527.367 72.6641C527.825 73.2266 528.054 74.0417 528.054 75.1094V80ZM537.047 76.4922H531.594C531.614 77.2318 531.841 77.8021 532.273 78.2031C532.711 78.6042 533.31 78.8047 534.07 78.8047C534.924 78.8047 535.708 78.5495 536.422 78.0391V79.5C535.692 79.9583 534.729 80.1875 533.531 80.1875C532.354 80.1875 531.429 79.8255 530.758 79.1016C530.091 78.3724 529.758 77.349 529.758 76.0312C529.758 74.7865 530.125 73.7734 530.859 72.9922C531.599 72.2057 532.515 71.8125 533.609 71.8125C534.703 71.8125 535.549 72.1641 536.148 72.8672C536.747 73.5703 537.047 74.5469 537.047 75.7969V76.4922ZM535.297 75.2109C535.291 74.5599 535.138 74.0547 534.836 73.6953C534.534 73.3307 534.117 73.1484 533.586 73.1484C533.065 73.1484 532.622 73.3385 532.258 73.7188C531.898 74.099 531.677 74.5964 531.594 75.2109H535.297ZM546.047 80H544.234V78.6406H544.203C543.62 79.6719 542.721 80.1875 541.508 80.1875C540.523 80.1875 539.734 79.8307 539.14 79.1172C538.552 78.3984 538.258 77.4219 538.258 76.1875C538.258 74.8646 538.583 73.8047 539.234 73.0078C539.89 72.2109 540.763 71.8125 541.851 71.8125C542.929 71.8125 543.713 72.2448 544.203 73.1094H544.234V68.1562H546.047V80ZM544.258 76.3438V75.2969C544.258 74.7292 544.073 74.2474 543.703 73.8516C543.333 73.4557 542.862 73.2578 542.289 73.2578C541.612 73.2578 541.078 73.5104 540.687 74.0156C540.302 74.5208 540.109 75.2214 540.109 76.1172C540.109 76.9297 540.294 77.5729 540.664 78.0469C541.039 78.5156 541.541 78.75 542.172 78.75C542.791 78.75 543.294 78.5234 543.679 78.0703C544.065 77.612 544.258 77.0365 544.258 76.3438ZM558.961 80H557.203V78.75H557.172C556.62 79.7083 555.81 80.1875 554.742 80.1875C553.955 80.1875 553.338 79.974 552.89 79.5469C552.448 79.1198 552.226 78.5547 552.226 77.8516C552.226 76.3411 553.096 75.4609 554.836 75.2109L557.211 74.875C557.211 73.7344 556.669 73.1641 555.586 73.1641C554.633 73.1641 553.773 73.4922 553.008 74.1484V72.5625C553.851 72.0625 554.825 71.8125 555.929 71.8125C557.95 71.8125 558.961 72.8073 558.961 74.7969V80ZM557.211 76.0703L555.531 76.3047C555.01 76.3724 554.617 76.5 554.351 76.6875C554.091 76.8698 553.961 77.1927 553.961 77.6562C553.961 77.9948 554.08 78.2734 554.32 78.4922C554.565 78.7057 554.89 78.8125 555.297 78.8125C555.849 78.8125 556.304 78.6198 556.664 78.2344C557.028 77.8438 557.211 77.3542 557.211 76.7656V76.0703ZM569.804 79.9141C569.45 80.0911 568.984 80.1797 568.406 80.1797C566.854 80.1797 566.078 79.4349 566.078 77.9453V73.4219H564.742V72H566.078V70.1484L567.89 69.6328V72H569.804V73.4219H567.89V77.4219C567.89 77.8958 567.976 78.2344 568.148 78.4375C568.32 78.6406 568.607 78.7422 569.008 78.7422C569.315 78.7422 569.58 78.6536 569.804 78.4766V79.9141ZM578.047 76.4922H572.594C572.614 77.2318 572.841 77.8021 573.273 78.2031C573.711 78.6042 574.31 78.8047 575.07 78.8047C575.924 78.8047 576.708 78.5495 577.422 78.0391V79.5C576.692 79.9583 575.729 80.1875 574.531 80.1875C573.354 80.1875 572.429 79.8255 571.758 79.1016C571.091 78.3724 570.758 77.349 570.758 76.0312C570.758 74.7865 571.125 73.7734 571.859 72.9922C572.599 72.2057 573.515 71.8125 574.609 71.8125C575.703 71.8125 576.549 72.1641 577.148 72.8672C577.747 73.5703 578.047 74.5469 578.047 75.7969V76.4922ZM576.297 75.2109C576.291 74.5599 576.138 74.0547 575.836 73.6953C575.534 73.3307 575.117 73.1484 574.586 73.1484C574.065 73.1484 573.622 73.3385 573.258 73.7188C572.898 74.099 572.677 74.5964 572.594 75.2109H576.297ZM585.914 80H584.156V78.75H584.125C583.573 79.7083 582.763 80.1875 581.695 80.1875C580.909 80.1875 580.291 79.974 579.844 79.5469C579.401 79.1198 579.179 78.5547 579.179 77.8516C579.179 76.3411 580.049 75.4609 581.789 75.2109L584.164 74.875C584.164 73.7344 583.622 73.1641 582.539 73.1641C581.586 73.1641 580.726 73.4922 579.961 74.1484V72.5625C580.804 72.0625 581.778 71.8125 582.883 71.8125C584.903 71.8125 585.914 72.8073 585.914 74.7969V80ZM584.164 76.0703L582.484 76.3047C581.963 76.3724 581.57 76.5 581.304 76.6875C581.044 76.8698 580.914 77.1927 580.914 77.6562C580.914 77.9948 581.034 78.2734 581.273 78.4922C581.518 78.7057 581.844 78.8125 582.25 78.8125C582.802 78.8125 583.258 78.6198 583.617 78.2344C583.982 77.8438 584.164 77.3542 584.164 76.7656V76.0703ZM600.094 80H598.281V75.6406C598.281 74.8021 598.161 74.1953 597.922 73.8203C597.687 73.4453 597.289 73.2578 596.726 73.2578C596.252 73.2578 595.849 73.4948 595.515 73.9688C595.187 74.4427 595.023 75.0104 595.023 75.6719V80H593.203V75.4922C593.203 74.0026 592.677 73.2578 591.625 73.2578C591.135 73.2578 590.732 73.4818 590.414 73.9297C590.101 74.3776 589.945 74.9583 589.945 75.6719V80H588.133V72H589.945V73.2656H589.976C590.554 72.2969 591.396 71.8125 592.5 71.8125C593.052 71.8125 593.534 71.9661 593.945 72.2734C594.362 72.5755 594.646 72.974 594.797 73.4688C595.39 72.3646 596.276 71.8125 597.453 71.8125C599.213 71.8125 600.094 72.8984 600.094 75.0703V80ZM408.953 100.492H403.5C403.521 101.232 403.747 101.802 404.179 102.203C404.617 102.604 405.216 102.805 405.976 102.805C406.83 102.805 407.614 102.549 408.328 102.039V103.5C407.599 103.958 406.635 104.188 405.437 104.188C404.26 104.188 403.336 103.826 402.664 103.102C401.997 102.372 401.664 101.349 401.664 100.031C401.664 98.7865 402.031 97.7734 402.765 96.9922C403.505 96.2057 404.422 95.8125 405.515 95.8125C406.609 95.8125 407.455 96.1641 408.054 96.8672C408.653 97.5703 408.953 98.5469 408.953 99.7969V100.492ZM407.203 99.2109C407.198 98.5599 407.044 98.0547 406.742 97.6953C406.44 97.3307 406.023 97.1484 405.492 97.1484C404.971 97.1484 404.528 97.3385 404.164 97.7188C403.804 98.099 403.583 98.5964 403.5 99.2109H407.203ZM417.367 96L414.703 100.047L417.336 104H415.234L413.828 101.523C413.739 101.372 413.635 101.18 413.515 100.945H413.484C413.463 100.992 413.354 101.185 413.156 101.523L411.726 104H409.633L412.351 100.078L409.773 96H411.883L413.265 98.6016C413.37 98.7943 413.471 98.9922 413.57 99.1953H413.594L415.383 96H417.367ZM420.539 102.82H420.508V107.68H418.695V96H420.508V97.4062H420.539C421.159 96.3438 422.065 95.8125 423.258 95.8125C424.273 95.8125 425.065 96.1693 425.633 96.8828C426.2 97.5964 426.484 98.5547 426.484 99.7578C426.484 101.091 426.164 102.159 425.523 102.961C424.883 103.763 424.008 104.164 422.898 104.164C421.877 104.164 421.091 103.716 420.539 102.82ZM420.492 99.6641V100.656C420.492 101.24 420.677 101.734 421.047 102.141C421.422 102.547 421.896 102.75 422.469 102.75C423.14 102.75 423.666 102.49 424.047 101.969C424.432 101.443 424.625 100.711 424.625 99.7734C424.625 98.987 424.445 98.3724 424.086 97.9297C423.732 97.4818 423.25 97.2578 422.64 97.2578C421.995 97.2578 421.474 97.487 421.078 97.9453C420.687 98.4036 420.492 98.9766 420.492 99.6641ZM435.109 100.492H429.656C429.677 101.232 429.903 101.802 430.336 102.203C430.773 102.604 431.372 102.805 432.133 102.805C432.987 102.805 433.771 102.549 434.484 102.039V103.5C433.755 103.958 432.791 104.188 431.594 104.188C430.416 104.188 429.492 103.826 428.82 103.102C428.153 102.372 427.82 101.349 427.82 100.031C427.82 98.7865 428.187 97.7734 428.922 96.9922C429.661 96.2057 430.578 95.8125 431.672 95.8125C432.765 95.8125 433.612 96.1641 434.211 96.8672C434.81 97.5703 435.109 98.5469 435.109 99.7969V100.492ZM433.359 99.2109C433.354 98.5599 433.2 98.0547 432.898 97.6953C432.596 97.3307 432.179 97.1484 431.648 97.1484C431.127 97.1484 430.685 97.3385 430.32 97.7188C429.961 98.099 429.739 98.5964 429.656 99.2109H433.359ZM441.476 97.7266C441.258 97.5547 440.942 97.4688 440.531 97.4688C439.995 97.4688 439.547 97.7109 439.187 98.1953C438.828 98.6797 438.648 99.3385 438.648 100.172V104H436.836V96H438.648V97.6484H438.679C438.857 97.0859 439.127 96.6484 439.492 96.3359C439.862 96.0182 440.273 95.8594 440.726 95.8594C441.054 95.8594 441.304 95.9089 441.476 96.0078V97.7266ZM447.445 103.914C447.091 104.091 446.625 104.18 446.047 104.18C444.495 104.18 443.719 103.435 443.719 101.945V97.4219H442.383V96H443.719V94.1484L445.531 93.6328V96H447.445V97.4219H445.531V101.422C445.531 101.896 445.617 102.234 445.789 102.438C445.961 102.641 446.247 102.742 446.648 102.742C446.955 102.742 447.221 102.654 447.445 102.477V103.914ZM464.172 96L461.812 104H459.914L458.461 98.5781C458.403 98.3698 458.367 98.1354 458.351 97.875H458.32C458.31 98.0521 458.263 98.2812 458.179 98.5625L456.601 104H454.742L452.39 96H454.265L455.719 101.766C455.765 101.938 455.797 102.167 455.812 102.453H455.867C455.883 102.234 455.924 102 455.992 101.75L457.609 96H459.312L460.75 101.789C460.797 101.971 460.83 102.201 460.851 102.477H460.906C460.916 102.284 460.955 102.055 461.023 101.789L462.445 96H464.172ZM472.633 104H470.82V99.625C470.82 98.0417 470.291 97.25 469.234 97.25C468.703 97.25 468.255 97.4792 467.89 97.9375C467.526 98.3958 467.344 98.9818 467.344 99.6953V104H465.523V92.1562H467.344V97.3281H467.375C467.979 96.3177 468.844 95.8125 469.969 95.8125C471.745 95.8125 472.633 96.8984 472.633 99.0703V104ZM478.383 104.188C477.148 104.188 476.161 103.815 475.422 103.07C474.687 102.32 474.32 101.328 474.32 100.094C474.32 98.75 474.703 97.7005 475.469 96.9453C476.239 96.1901 477.276 95.8125 478.578 95.8125C479.828 95.8125 480.802 96.1797 481.5 96.9141C482.198 97.6484 482.547 98.6667 482.547 99.9688C482.547 101.245 482.169 102.268 481.414 103.039C480.664 103.805 479.653 104.188 478.383 104.188ZM478.469 97.2578C477.76 97.2578 477.2 97.5052 476.789 98C476.377 98.4948 476.172 99.1771 476.172 100.047C476.172 100.885 476.38 101.547 476.797 102.031C477.213 102.51 477.771 102.75 478.469 102.75C479.182 102.75 479.729 102.513 480.109 102.039C480.495 101.565 480.687 100.891 480.687 100.016C480.687 99.1354 480.495 98.4557 480.109 97.9766C479.729 97.4974 479.182 97.2578 478.469 97.2578ZM495.734 96L492.125 105.281C491.375 106.938 490.323 107.766 488.969 107.766C488.588 107.766 488.271 107.732 488.015 107.664V106.156C488.302 106.25 488.562 106.297 488.797 106.297C489.474 106.297 489.979 105.964 490.312 105.297L490.851 103.984L487.672 96H489.679L491.586 101.812C491.607 101.885 491.653 102.078 491.726 102.391H491.765C491.791 102.271 491.838 102.083 491.906 101.828L493.906 96H495.734ZM500.367 104.188C499.133 104.188 498.146 103.815 497.406 103.07C496.672 102.32 496.304 101.328 496.304 100.094C496.304 98.75 496.687 97.7005 497.453 96.9453C498.224 96.1901 499.26 95.8125 500.562 95.8125C501.812 95.8125 502.786 96.1797 503.484 96.9141C504.182 97.6484 504.531 98.6667 504.531 99.9688C504.531 101.245 504.153 102.268 503.398 103.039C502.648 103.805 501.638 104.188 500.367 104.188ZM500.453 97.2578C499.745 97.2578 499.185 97.5052 498.773 98C498.362 98.4948 498.156 99.1771 498.156 100.047C498.156 100.885 498.364 101.547 498.781 102.031C499.198 102.51 499.755 102.75 500.453 102.75C501.166 102.75 501.713 102.513 502.094 102.039C502.479 101.565 502.672 100.891 502.672 100.016C502.672 99.1354 502.479 98.4557 502.094 97.9766C501.713 97.4974 501.166 97.2578 500.453 97.2578ZM513.359 104H511.547V102.734H511.515C510.989 103.703 510.172 104.188 509.062 104.188C507.172 104.188 506.226 103.052 506.226 100.781V96H508.039V100.594C508.039 102.031 508.594 102.75 509.703 102.75C510.239 102.75 510.679 102.552 511.023 102.156C511.372 101.76 511.547 101.242 511.547 100.602V96H513.359V104ZM525.859 103.633C525.219 104.003 524.461 104.188 523.586 104.188C522.398 104.188 521.44 103.818 520.711 103.078C519.982 102.333 519.617 101.37 519.617 100.188C519.617 98.8698 520.008 97.8125 520.789 97.0156C521.575 96.2135 522.625 95.8125 523.937 95.8125C524.666 95.8125 525.31 95.9401 525.867 96.1953V97.8828C525.31 97.4661 524.716 97.2578 524.086 97.2578C523.32 97.2578 522.692 97.5182 522.203 98.0391C521.713 98.5547 521.469 99.2318 521.469 100.07C521.469 100.898 521.698 101.552 522.156 102.031C522.62 102.51 523.239 102.75 524.015 102.75C524.666 102.75 525.281 102.518 525.859 102.055V103.633ZM533.804 104H532.047V102.75H532.015C531.463 103.708 530.653 104.188 529.586 104.188C528.799 104.188 528.182 103.974 527.734 103.547C527.291 103.12 527.07 102.555 527.07 101.852C527.07 100.341 527.94 99.4609 529.679 99.2109L532.054 98.875C532.054 97.7344 531.513 97.1641 530.429 97.1641C529.476 97.1641 528.617 97.4922 527.851 98.1484V96.5625C528.695 96.0625 529.669 95.8125 530.773 95.8125C532.794 95.8125 533.804 96.8073 533.804 98.7969V104ZM532.054 100.07L530.375 100.305C529.854 100.372 529.461 100.5 529.195 100.688C528.935 100.87 528.804 101.193 528.804 101.656C528.804 101.995 528.924 102.273 529.164 102.492C529.409 102.706 529.734 102.812 530.14 102.812C530.692 102.812 531.148 102.62 531.508 102.234C531.872 101.844 532.054 101.354 532.054 100.766V100.07ZM543.148 104H541.336V99.4922C541.336 97.9974 540.807 97.25 539.75 97.25C539.198 97.25 538.742 97.4583 538.383 97.875C538.023 98.2865 537.844 98.8073 537.844 99.4375V104H536.023V96H537.844V97.3281H537.875C538.474 96.3177 539.338 95.8125 540.469 95.8125C541.338 95.8125 542.002 96.0964 542.461 96.6641C542.919 97.2266 543.148 98.0417 543.148 99.1094V104ZM555.5 103.633C554.859 104.003 554.101 104.188 553.226 104.188C552.039 104.188 551.08 103.818 550.351 103.078C549.622 102.333 549.258 101.37 549.258 100.188C549.258 98.8698 549.648 97.8125 550.429 97.0156C551.216 96.2135 552.265 95.8125 553.578 95.8125C554.307 95.8125 554.95 95.9401 555.508 96.1953V97.8828C554.95 97.4661 554.357 97.2578 553.726 97.2578C552.961 97.2578 552.333 97.5182 551.844 98.0391C551.354 98.5547 551.109 99.2318 551.109 100.07C551.109 100.898 551.338 101.552 551.797 102.031C552.26 102.51 552.88 102.75 553.656 102.75C554.307 102.75 554.922 102.518 555.5 102.055V103.633ZM560.851 104.188C559.617 104.188 558.63 103.815 557.89 103.07C557.156 102.32 556.789 101.328 556.789 100.094C556.789 98.75 557.172 97.7005 557.937 96.9453C558.708 96.1901 559.745 95.8125 561.047 95.8125C562.297 95.8125 563.271 96.1797 563.969 96.9141C564.666 97.6484 565.015 98.6667 565.015 99.9688C565.015 101.245 564.638 102.268 563.883 103.039C563.133 103.805 562.122 104.188 560.851 104.188ZM560.937 97.2578C560.229 97.2578 559.669 97.5052 559.258 98C558.846 98.4948 558.64 99.1771 558.64 100.047C558.64 100.885 558.849 101.547 559.265 102.031C559.682 102.51 560.239 102.75 560.937 102.75C561.651 102.75 562.198 102.513 562.578 102.039C562.963 101.565 563.156 100.891 563.156 100.016C563.156 99.1354 562.963 98.4557 562.578 97.9766C562.198 97.4974 561.651 97.2578 560.937 97.2578ZM573.992 104H572.179V99.4922C572.179 97.9974 571.651 97.25 570.594 97.25C570.041 97.25 569.586 97.4583 569.226 97.875C568.867 98.2865 568.687 98.8073 568.687 99.4375V104H566.867V96H568.687V97.3281H568.719C569.317 96.3177 570.182 95.8125 571.312 95.8125C572.182 95.8125 572.846 96.0964 573.304 96.6641C573.763 97.2266 573.992 98.0417 573.992 99.1094V104ZM580.429 103.914C580.075 104.091 579.609 104.18 579.031 104.18C577.479 104.18 576.703 103.435 576.703 101.945V97.4219H575.367V96H576.703V94.1484L578.515 93.6328V96H580.429V97.4219H578.515V101.422C578.515 101.896 578.601 102.234 578.773 102.438C578.945 102.641 579.232 102.742 579.633 102.742C579.94 102.742 580.205 102.654 580.429 102.477V103.914ZM588.133 104H586.375V102.75H586.344C585.791 103.708 584.982 104.188 583.914 104.188C583.127 104.188 582.51 103.974 582.062 103.547C581.62 103.12 581.398 102.555 581.398 101.852C581.398 100.341 582.268 99.4609 584.008 99.2109L586.383 98.875C586.383 97.7344 585.841 97.1641 584.758 97.1641C583.804 97.1641 582.945 97.4922 582.179 98.1484V96.5625C583.023 96.0625 583.997 95.8125 585.101 95.8125C587.122 95.8125 588.133 96.8073 588.133 98.7969V104ZM586.383 100.07L584.703 100.305C584.182 100.372 583.789 100.5 583.523 100.688C583.263 100.87 583.133 101.193 583.133 101.656C583.133 101.995 583.252 102.273 583.492 102.492C583.737 102.706 584.062 102.812 584.469 102.812C585.021 102.812 585.476 102.62 585.836 102.234C586.2 101.844 586.383 101.354 586.383 100.766V100.07ZM596.078 103.633C595.437 104.003 594.679 104.188 593.804 104.188C592.617 104.188 591.659 103.818 590.929 103.078C590.2 102.333 589.836 101.37 589.836 100.188C589.836 98.8698 590.226 97.8125 591.008 97.0156C591.794 96.2135 592.844 95.8125 594.156 95.8125C594.885 95.8125 595.528 95.9401 596.086 96.1953V97.8828C595.528 97.4661 594.935 97.2578 594.304 97.2578C593.539 97.2578 592.911 97.5182 592.422 98.0391C591.932 98.5547 591.687 99.2318 591.687 100.07C591.687 100.898 591.916 101.552 592.375 102.031C592.838 102.51 593.458 102.75 594.234 102.75C594.885 102.75 595.5 102.518 596.078 102.055V103.633ZM602.101 103.914C601.747 104.091 601.281 104.18 600.703 104.18C599.151 104.18 598.375 103.435 598.375 101.945V97.4219H597.039V96H598.375V94.1484L600.187 93.6328V96H602.101V97.4219H600.187V101.422C600.187 101.896 600.273 102.234 600.445 102.438C600.617 102.641 600.903 102.742 601.304 102.742C601.612 102.742 601.877 102.654 602.101 102.477V103.914ZM412.937 120L410.578 128H408.679L407.226 122.578C407.169 122.37 407.133 122.135 407.117 121.875H407.086C407.075 122.052 407.028 122.281 406.945 122.562L405.367 128H403.508L401.156 120H403.031L404.484 125.766C404.531 125.938 404.562 126.167 404.578 126.453H404.633C404.648 126.234 404.69 126 404.758 125.75L406.375 120H408.078L409.515 125.789C409.562 125.971 409.596 126.201 409.617 126.477H409.672C409.682 126.284 409.721 126.055 409.789 125.789L411.211 120H412.937ZM421.398 128H419.586V123.625C419.586 122.042 419.057 121.25 418 121.25C417.469 121.25 417.021 121.479 416.656 121.938C416.291 122.396 416.109 122.982 416.109 123.695V128H414.289V116.156H416.109V121.328H416.14C416.745 120.318 417.609 119.812 418.734 119.812C420.51 119.812 421.398 120.898 421.398 123.07V128ZM430.375 124.492H424.922C424.942 125.232 425.169 125.802 425.601 126.203C426.039 126.604 426.638 126.805 427.398 126.805C428.252 126.805 429.036 126.549 429.75 126.039V127.5C429.021 127.958 428.057 128.188 426.859 128.188C425.682 128.188 424.758 127.826 424.086 127.102C423.419 126.372 423.086 125.349 423.086 124.031C423.086 122.786 423.453 121.773 424.187 120.992C424.927 120.206 425.844 119.812 426.937 119.812C428.031 119.812 428.877 120.164 429.476 120.867C430.075 121.57 430.375 122.547 430.375 123.797V124.492ZM428.625 123.211C428.62 122.56 428.466 122.055 428.164 121.695C427.862 121.331 427.445 121.148 426.914 121.148C426.393 121.148 425.95 121.339 425.586 121.719C425.226 122.099 425.005 122.596 424.922 123.211H428.625ZM439.226 128H437.414V123.492C437.414 121.997 436.885 121.25 435.828 121.25C435.276 121.25 434.82 121.458 434.461 121.875C434.101 122.286 433.922 122.807 433.922 123.438V128H432.101V120H433.922V121.328H433.953C434.552 120.318 435.416 119.812 436.547 119.812C437.416 119.812 438.08 120.096 438.539 120.664C438.997 121.227 439.226 122.042 439.226 123.109V128ZM452.781 120L449.172 129.281C448.422 130.938 447.37 131.766 446.015 131.766C445.635 131.766 445.317 131.732 445.062 131.664V130.156C445.349 130.25 445.609 130.297 445.844 130.297C446.521 130.297 447.026 129.964 447.359 129.297L447.898 127.984L444.719 120H446.726L448.633 125.812C448.653 125.885 448.7 126.078 448.773 126.391H448.812C448.838 126.271 448.885 126.083 448.953 125.828L450.953 120H452.781ZM457.414 128.188C456.179 128.188 455.192 127.815 454.453 127.07C453.719 126.32 453.351 125.328 453.351 124.094C453.351 122.75 453.734 121.701 454.5 120.945C455.271 120.19 456.307 119.812 457.609 119.812C458.859 119.812 459.833 120.18 460.531 120.914C461.229 121.648 461.578 122.667 461.578 123.969C461.578 125.245 461.2 126.268 460.445 127.039C459.695 127.805 458.685 128.188 457.414 128.188ZM457.5 121.258C456.791 121.258 456.232 121.505 455.82 122C455.409 122.495 455.203 123.177 455.203 124.047C455.203 124.885 455.411 125.547 455.828 126.031C456.245 126.51 456.802 126.75 457.5 126.75C458.213 126.75 458.76 126.513 459.14 126.039C459.526 125.565 459.719 124.891 459.719 124.016C459.719 123.135 459.526 122.456 459.14 121.977C458.76 121.497 458.213 121.258 457.5 121.258ZM470.406 128H468.594V126.734H468.562C468.036 127.703 467.219 128.188 466.109 128.188C464.219 128.188 463.273 127.052 463.273 124.781V120H465.086V124.594C465.086 126.031 465.64 126.75 466.75 126.75C467.286 126.75 467.726 126.552 468.07 126.156C468.419 125.76 468.594 125.242 468.594 124.602V120H470.406V128ZM484.304 128H482.492V123.492C482.492 121.997 481.963 121.25 480.906 121.25C480.354 121.25 479.898 121.458 479.539 121.875C479.179 122.286 479 122.807 479 123.438V128H477.179V120H479V121.328H479.031C479.63 120.318 480.495 119.812 481.625 119.812C482.495 119.812 483.159 120.096 483.617 120.664C484.075 121.227 484.304 122.042 484.304 123.109V128ZM493.297 124.492H487.844C487.864 125.232 488.091 125.802 488.523 126.203C488.961 126.604 489.56 126.805 490.32 126.805C491.174 126.805 491.958 126.549 492.672 126.039V127.5C491.942 127.958 490.979 128.188 489.781 128.188C488.604 128.188 487.679 127.826 487.008 127.102C486.341 126.372 486.008 125.349 486.008 124.031C486.008 122.786 486.375 121.773 487.109 120.992C487.849 120.206 488.765 119.812 489.859 119.812C490.953 119.812 491.799 120.164 492.398 120.867C492.997 121.57 493.297 122.547 493.297 123.797V124.492ZM491.547 123.211C491.541 122.56 491.388 122.055 491.086 121.695C490.784 121.331 490.367 121.148 489.836 121.148C489.315 121.148 488.872 121.339 488.508 121.719C488.148 122.099 487.927 122.596 487.844 123.211H491.547ZM501.797 124.492H496.344C496.364 125.232 496.591 125.802 497.023 126.203C497.461 126.604 498.06 126.805 498.82 126.805C499.674 126.805 500.458 126.549 501.172 126.039V127.5C500.442 127.958 499.479 128.188 498.281 128.188C497.104 128.188 496.179 127.826 495.508 127.102C494.841 126.372 494.508 125.349 494.508 124.031C494.508 122.786 494.875 121.773 495.609 120.992C496.349 120.206 497.265 119.812 498.359 119.812C499.453 119.812 500.299 120.164 500.898 120.867C501.497 121.57 501.797 122.547 501.797 123.797V124.492ZM500.047 123.211C500.041 122.56 499.888 122.055 499.586 121.695C499.284 121.331 498.867 121.148 498.336 121.148C497.815 121.148 497.372 121.339 497.008 121.719C496.648 122.099 496.427 122.596 496.344 123.211H500.047ZM510.797 128H508.984V126.641H508.953C508.37 127.672 507.471 128.188 506.258 128.188C505.273 128.188 504.484 127.831 503.89 127.117C503.302 126.398 503.008 125.422 503.008 124.188C503.008 122.865 503.333 121.805 503.984 121.008C504.64 120.211 505.513 119.812 506.601 119.812C507.679 119.812 508.463 120.245 508.953 121.109H508.984V116.156H510.797V128ZM509.008 124.344V123.297C509.008 122.729 508.823 122.247 508.453 121.852C508.083 121.456 507.612 121.258 507.039 121.258C506.362 121.258 505.828 121.51 505.437 122.016C505.052 122.521 504.859 123.221 504.859 124.117C504.859 124.93 505.044 125.573 505.414 126.047C505.789 126.516 506.291 126.75 506.922 126.75C507.541 126.75 508.044 126.523 508.429 126.07C508.815 125.612 509.008 125.036 509.008 124.344Z" fill="#525252"/>
<path d="M401.567 50.5947L401.679 33.1405L404.841 33.161L404.746 47.9647L412.433 48.0144L412.416 50.6649L401.567 50.5947ZM415.024 50.6817L415.108 37.5911L418.193 37.611L418.109 50.7017L415.024 50.6817ZM416.671 35.7432C416.183 35.7401 415.763 35.5754 415.413 35.2493C415.063 34.9175 414.889 34.5214 414.892 34.0612C414.895 33.5953 415.074 33.2016 415.429 32.88C415.783 32.5527 416.204 32.3907 416.693 32.3939C417.187 32.397 417.607 32.5645 417.951 32.8963C418.301 33.2224 418.475 33.6185 418.472 34.0844C418.469 34.5446 418.29 34.9383 417.936 35.2656C417.587 35.5872 417.166 35.7464 416.671 35.7432ZM433.059 37.7072L428.312 50.7677L424.903 50.7456L420.326 37.6248L423.616 37.6461L426.561 47.3898L426.698 47.3907L429.778 37.6859L433.059 37.7072ZM440.458 51.1019C439.145 51.0934 438.013 50.8133 437.062 50.2617C436.117 49.7045 435.392 48.9213 434.887 47.9124C434.382 46.8977 434.134 45.7058 434.143 44.3365C434.152 42.9899 434.415 41.8098 434.933 40.796C435.457 39.7767 436.184 38.9859 437.113 38.4237C438.043 37.8559 439.133 37.576 440.383 37.5841C441.19 37.5893 441.95 37.7249 442.665 37.9909C443.384 38.2512 444.018 38.653 444.566 39.1964C445.119 39.7397 445.552 40.43 445.865 41.2673C446.178 42.0989 446.33 43.0885 446.323 44.2362L446.317 45.1822L435.587 45.1129L435.601 43.0334L443.373 43.0836C443.371 42.4927 443.247 41.9663 443 41.5045C442.753 41.0369 442.406 40.6682 441.959 40.3983C441.517 40.1284 441.001 39.9915 440.41 39.9877C439.779 39.9836 439.224 40.1334 438.745 40.4372C438.266 40.7352 437.891 41.1305 437.621 41.6231C437.357 42.11 437.22 42.6461 437.21 43.2313L437.198 45.0466C437.193 45.8079 437.328 46.4622 437.603 47.0095C437.878 47.551 438.265 47.9683 438.763 48.2613C439.261 48.5486 439.845 48.6944 440.516 48.6988C440.965 48.7017 441.371 48.6418 441.736 48.5192C442.1 48.3908 442.417 48.2025 442.685 47.9543C442.954 47.706 443.158 47.3977 443.296 47.0292L446.175 47.3717C445.988 48.1319 445.637 48.7944 445.122 49.3593C444.613 49.9185 443.962 50.3518 443.171 50.6592C442.379 50.9609 441.475 51.1084 440.458 51.1019ZM464.547 38.3454C464.472 37.6006 464.141 37.0189 463.552 36.6003C462.97 36.1818 462.21 35.9695 461.272 35.9634C460.613 35.9591 460.047 36.0549 459.575 36.2507C459.102 36.4465 458.739 36.7141 458.487 37.0534C458.235 37.3926 458.104 37.781 458.096 38.2185C458.094 38.5821 458.174 38.898 458.337 39.1661C458.506 39.4342 458.734 39.663 459.023 39.8523C459.311 40.036 459.631 40.1915 459.983 40.3188C460.334 40.4461 460.689 40.5535 461.046 40.641L462.68 41.0607C463.338 41.2183 463.97 41.4298 464.576 41.6951C465.188 41.9604 465.734 42.2935 466.215 42.6944C466.701 43.0952 467.084 43.5778 467.365 44.1422C467.645 44.7065 467.783 45.3665 467.778 46.1221C467.771 47.1448 467.504 48.0437 466.976 48.8187C466.449 49.5881 465.689 50.1883 464.698 50.6194C463.712 51.0448 462.52 51.253 461.123 51.244C459.765 51.2352 458.587 51.0174 457.59 50.5905C456.598 50.1636 455.824 49.5449 455.266 48.7345C454.715 47.9241 454.42 46.9392 454.382 45.7798L457.493 45.8C457.534 46.4082 457.719 46.9151 458.046 47.3206C458.372 47.7261 458.8 48.03 459.327 48.2323C459.859 48.4346 460.455 48.5379 461.114 48.5422C461.802 48.5466 462.405 48.4482 462.923 48.2471C463.447 48.0402 463.858 47.7531 464.156 47.3857C464.454 47.0126 464.607 46.5761 464.616 46.0761C464.613 45.6216 464.482 45.2457 464.223 44.9486C463.964 44.6457 463.599 44.3934 463.128 44.1915C462.664 43.9839 462.12 43.7986 461.496 43.6355L459.513 43.1113C458.078 42.7327 456.945 42.1657 456.115 41.4103C455.29 40.6492 454.882 39.6437 454.89 38.3938C454.897 37.3654 455.181 36.4666 455.743 35.6975C456.31 34.9284 457.078 34.334 458.047 33.9141C459.016 33.4885 460.111 33.2797 461.332 33.2876C462.571 33.2956 463.655 33.5185 464.584 33.9564C465.519 34.3885 466.25 34.987 466.78 35.7518C467.309 36.511 467.579 37.382 467.589 38.3651L464.547 38.3454ZM478.808 45.5883L478.857 38.0033L481.942 38.0232L481.857 51.1138L478.866 51.0945L478.881 48.7678L478.745 48.767C478.445 49.498 477.955 50.0943 477.276 50.5558C476.602 51.0174 475.774 51.245 474.791 51.2386C473.933 51.2331 473.176 51.0378 472.519 50.6529C471.868 50.2623 471.361 49.6994 470.996 48.964C470.632 48.223 470.453 47.3298 470.459 46.2844L470.513 37.9493L473.599 37.9693L473.548 45.8271C473.542 46.6566 473.765 47.3171 474.217 47.8087C474.668 48.3003 475.263 48.5484 476.002 48.5532C476.456 48.5561 476.897 48.4482 477.325 48.2294C477.752 48.0105 478.104 47.6833 478.38 47.2475C478.661 46.8062 478.804 46.2531 478.808 45.5883ZM484.998 56.0433L485.115 38.0437L488.149 38.0633L488.135 40.2281L488.314 40.2292C488.475 39.9121 488.701 39.5755 488.993 39.2194C489.286 38.8576 489.68 38.5505 490.176 38.298C490.672 38.0399 491.303 37.9133 492.07 37.9182C493.081 37.9248 493.992 38.1892 494.801 38.7115C495.616 39.2281 496.259 39.9908 496.729 40.9996C497.206 42.0027 497.439 43.2315 497.43 44.686C497.421 46.1235 497.177 47.3435 496.699 48.3461C496.221 49.3487 495.574 50.1116 494.758 50.6347C493.942 51.1579 493.02 51.4161 491.991 51.4095C491.241 51.4046 490.62 51.2756 490.127 51.0224C489.635 50.7692 489.239 50.4655 488.94 50.1113C488.647 49.7515 488.419 49.4119 488.256 49.0927L488.128 49.0918L488.083 56.0633L484.998 56.0433ZM488.098 44.6086C488.092 45.4552 488.207 46.1974 488.441 46.8353C488.682 47.4732 489.028 47.9726 489.48 48.3335C489.938 48.6888 490.494 48.8685 491.147 48.8727C491.829 48.8771 492.401 48.699 492.864 48.3384C493.326 47.972 493.676 47.4714 493.913 46.8366C494.156 46.1961 494.28 45.4668 494.285 44.6486C494.29 43.8361 494.179 43.1138 493.95 42.4816C493.721 41.8494 493.377 41.3529 492.92 40.992C492.462 40.631 491.889 40.4484 491.202 40.4439C490.542 40.4397 489.982 40.6093 489.519 40.9529C489.057 41.2965 488.704 41.7801 488.462 42.4035C488.225 43.027 488.103 43.762 488.098 44.6086ZM499.998 56.1403L500.114 38.1407L503.148 38.1603L503.134 40.325L503.313 40.3262C503.474 40.0091 503.701 39.6724 503.993 39.3164C504.285 38.9546 504.679 38.6475 505.175 38.395C505.671 38.1369 506.303 38.0103 507.07 38.0152C508.081 38.0218 508.991 38.2862 509.801 38.8085C510.615 39.3251 511.258 40.0878 511.729 41.0965C512.205 42.0996 512.439 43.3284 512.43 44.783C512.42 46.2204 512.177 47.4405 511.699 48.4431C511.22 49.4457 510.573 50.2086 509.758 50.7317C508.942 51.2549 508.019 51.5131 506.991 51.5065C506.241 51.5016 505.62 51.3726 505.127 51.1194C504.634 50.8662 504.239 50.5625 503.94 50.2083C503.647 49.8484 503.419 49.5089 503.256 49.1897L503.128 49.1888L503.083 56.1603L499.998 56.1403ZM503.097 44.7056C503.092 45.5522 503.207 46.2944 503.441 46.9323C503.681 47.5702 504.027 48.0696 504.48 48.4305C504.938 48.7857 505.493 48.9655 506.147 48.9697C506.829 48.9741 507.401 48.796 507.863 48.4353C508.326 48.069 508.676 47.5684 508.913 46.9336C509.156 46.2931 509.28 45.5637 509.285 44.7456C509.29 43.9331 509.178 43.2108 508.949 42.5786C508.721 41.9464 508.377 41.4499 507.919 41.0889C507.461 40.728 506.889 40.5453 506.201 40.5409C505.542 40.5366 504.981 40.7063 504.519 41.0499C504.056 41.3935 503.704 41.8771 503.461 42.5005C503.224 43.124 503.103 43.859 503.097 44.7056ZM520.738 51.6209C519.459 51.6126 518.353 51.3242 517.419 50.7557C516.486 50.1871 515.763 49.3955 515.253 48.3808C514.748 47.3662 514.5 46.1827 514.509 44.8305C514.518 43.4783 514.781 42.2953 515.299 41.2816C515.822 40.2679 516.555 39.4828 517.496 38.9264C518.437 38.37 519.547 38.0959 520.825 38.1041C522.104 38.1124 523.21 38.4008 524.144 38.9694C525.077 39.5379 525.797 40.3324 526.301 41.3527C526.812 42.3731 527.063 43.5594 527.054 44.9116C527.045 46.2638 526.779 47.444 526.256 48.452C525.738 49.46 525.008 50.2422 524.067 50.7987C523.126 51.3551 522.016 51.6292 520.738 51.6209ZM520.771 49.1495C521.464 49.154 522.045 48.9674 522.513 48.5897C522.982 48.2064 523.331 47.6916 523.563 47.0453C523.8 46.3991 523.921 45.6783 523.926 44.8829C523.932 44.0817 523.82 43.3566 523.591 42.7074C523.368 42.0525 523.025 41.5304 522.561 41.141C522.098 40.7516 521.52 40.5547 520.826 40.5502C520.116 40.5456 519.524 40.735 519.05 41.1183C518.582 41.5016 518.229 42.0193 517.992 42.6711C517.76 43.3174 517.642 44.0411 517.637 44.8422C517.632 45.6376 517.741 46.3599 517.964 47.0091C518.192 47.6583 518.538 48.1776 519.002 48.567C519.471 48.9507 520.061 49.1449 520.771 49.1495ZM529.631 51.4227L529.715 38.3321L532.707 38.3514L532.693 40.5332L532.829 40.5341C533.072 39.78 533.485 39.2002 534.067 38.7949C534.655 38.3839 535.324 38.1808 536.074 38.1857C536.245 38.1868 536.435 38.1965 536.645 38.215C536.861 38.2277 537.04 38.2488 537.182 38.2781L537.163 41.1161C537.033 41.0698 536.826 41.0287 536.542 40.9928C536.264 40.9512 535.994 40.9295 535.733 40.9279C535.17 40.9242 534.664 41.0431 534.213 41.2845C533.769 41.5203 533.417 41.8504 533.159 42.2749C532.9 42.6994 532.769 43.19 532.766 43.7468L532.716 51.4427L529.631 51.4227ZM546.471 38.4404L546.455 40.8267L538.93 40.7781L538.945 38.3918L546.471 38.4404ZM540.823 35.2675L543.909 35.2874L543.829 47.5769C543.826 47.9917 543.887 48.3103 544.01 48.5327C544.14 48.7494 544.309 48.8982 544.519 48.9792C544.729 49.0601 544.961 49.1013 545.217 49.103C545.41 49.1042 545.586 49.0912 545.746 49.0638C545.911 49.0364 546.036 49.0117 546.121 48.9895L546.625 51.4048C546.46 51.4605 546.224 51.5215 545.917 51.5877C545.615 51.6539 545.246 51.6913 544.808 51.6998C544.035 51.7176 543.34 51.5966 542.722 51.3369C542.105 51.0715 541.616 50.665 541.256 50.1172C540.901 49.5694 540.73 48.8865 540.741 48.0683L540.823 35.2675Z" fill="url(#paint0_linear_5985_20305)"/>
<defs>
<filter id="filter0_di_5985_20305" x="343" y="0" width="295" height="437" filterUnits="userSpaceOnUse" color-interpolation-filters="sRGB">
<feFlood flood-opacity="0" result="BackgroundImageFix"/>
<feColorMatrix in="SourceAlpha" type="matrix" values="0 0 0 0 0 0 0 0 0 0 0 0 0 0 0 0 0 0 127 0" result="hardAlpha"/>
<feOffset dy="4"/>
<feGaussianBlur stdDeviation="2"/>
<feComposite in2="hardAlpha" operator="out"/>
<feColorMatrix type="matrix" values="0 0 0 0 0 0 0 0 0 0 0 0 0 0 0 0 0 0 0.05 0"/>
<feBlend mode="normal" in2="BackgroundImageFix" result="effect1_dropShadow_5985_20305"/>
<feBlend mode="normal" in="SourceGraphic" in2="effect1_dropShadow_5985_20305" result="shape"/>
<feColorMatrix in="SourceAlpha" type="matrix" values="0 0 0 0 0 0 0 0 0 0 0 0 0 0 0 0 0 0 127 0" result="hardAlpha"/>
<feOffset dy="4"/>
<feGaussianBlur stdDeviation="2"/>
<feComposite in2="hardAlpha" operator="arithmetic" k2="-1" k3="1"/>
<feColorMatrix type="matrix" values="0 0 0 0 0 0 0 0 0 0 0 0 0 0 0 0 0 0 0.05 0"/>
<feBlend mode="normal" in2="shape" result="effect2_innerShadow_5985_20305"/>
</filter>
<linearGradient id="paint0_linear_5985_20305" x1="0.181033" y1="38.9994" x2="947.161" y2="45.122" gradientUnits="userSpaceOnUse">
<stop/>
<stop offset="1"/>
</linearGradient>
<clipPath id="clip0_5985_20305">
<rect x="347" width="287" height="429" rx="20" fill="white"/>
</clipPath>
</defs>
</svg>
