<svg width="948" height="429" viewBox="0 0 948 429" fill="none" xmlns="http://www.w3.org/2000/svg">
<path d="M368.102 68.9961L364.264 83H361.637L358.971 73.2051C358.86 72.7884 358.792 72.3327 358.766 71.8379H358.727C358.694 72.3001 358.616 72.7493 358.492 73.1855L355.816 83H353.131L349.215 68.9961H351.764L354.303 79.25C354.407 79.6797 354.472 80.1289 354.498 80.5977H354.547C354.573 80.2656 354.664 79.8164 354.82 79.25L357.691 68.9961H360.084L362.74 79.3281C362.831 79.6797 362.9 80.0964 362.945 80.5781H362.984C363.004 80.2526 363.079 79.8229 363.209 79.2891L365.699 68.9961H368.102ZM377.75 78.6152H370.934C370.96 79.5397 371.243 80.2526 371.783 80.7539C372.33 81.2552 373.079 81.5059 374.029 81.5059C375.097 81.5059 376.077 81.1868 376.969 80.5488V82.375C376.057 82.9479 374.853 83.2344 373.355 83.2344C371.884 83.2344 370.729 82.7819 369.889 81.877C369.055 80.9655 368.639 79.6862 368.639 78.0391C368.639 76.4831 369.098 75.2168 370.016 74.2402C370.94 73.2572 372.086 72.7656 373.453 72.7656C374.82 72.7656 375.878 73.2051 376.627 74.084C377.376 74.9629 377.75 76.1836 377.75 77.7461V78.6152ZM375.562 77.0137C375.556 76.1999 375.364 75.5684 374.986 75.1191C374.609 74.6634 374.088 74.4355 373.424 74.4355C372.773 74.4355 372.219 74.6732 371.764 75.1484C371.314 75.6237 371.038 76.2454 370.934 77.0137H375.562ZM394.137 83H391.871V81.418H391.832C391.174 82.6289 390.152 83.2344 388.766 83.2344C386.402 83.2344 385.221 81.8151 385.221 78.9766V73H387.486V78.7422C387.486 80.5391 388.18 81.4375 389.566 81.4375C390.237 81.4375 390.787 81.1901 391.217 80.6953C391.653 80.2005 391.871 79.5527 391.871 78.752V73H394.137V83ZM396.471 82.6875V80.5879C397.317 81.2324 398.251 81.5547 399.273 81.5547C400.641 81.5547 401.324 81.151 401.324 80.3438C401.324 80.1159 401.266 79.9238 401.148 79.7676C401.031 79.6048 400.872 79.4616 400.67 79.3379C400.475 79.2142 400.24 79.1035 399.967 79.0059C399.7 78.9082 399.4 78.7975 399.068 78.6738C398.658 78.5111 398.287 78.3385 397.955 78.1562C397.63 77.974 397.356 77.7689 397.135 77.541C396.92 77.3066 396.757 77.043 396.646 76.75C396.536 76.457 396.48 76.1152 396.48 75.7246C396.48 75.2428 396.594 74.8197 396.822 74.4551C397.05 74.084 397.356 73.7747 397.74 73.5273C398.124 73.2734 398.561 73.0846 399.049 72.9609C399.537 72.8307 400.042 72.7656 400.562 72.7656C401.487 72.7656 402.314 72.9056 403.043 73.1855V75.168C402.34 74.6862 401.533 74.4453 400.621 74.4453C400.335 74.4453 400.074 74.4746 399.84 74.5332C399.612 74.5918 399.417 74.6732 399.254 74.7773C399.091 74.8815 398.964 75.0085 398.873 75.1582C398.782 75.3014 398.736 75.4609 398.736 75.6367C398.736 75.8516 398.782 76.0339 398.873 76.1836C398.964 76.3333 399.098 76.4668 399.273 76.584C399.456 76.6947 399.671 76.7988 399.918 76.8965C400.172 76.9876 400.462 77.0885 400.787 77.1992C401.217 77.375 401.601 77.554 401.939 77.7363C402.285 77.9186 402.577 78.127 402.818 78.3613C403.059 78.5892 403.245 78.8561 403.375 79.1621C403.505 79.4616 403.57 79.8197 403.57 80.2363C403.57 80.7441 403.453 81.1868 403.219 81.5645C402.984 81.9421 402.672 82.2546 402.281 82.502C401.891 82.7493 401.438 82.9316 400.924 83.0488C400.416 83.1725 399.879 83.2344 399.312 83.2344C398.219 83.2344 397.271 83.0521 396.471 82.6875ZM414.195 78.6152H407.379C407.405 79.5397 407.688 80.2526 408.229 80.7539C408.775 81.2552 409.524 81.5059 410.475 81.5059C411.542 81.5059 412.522 81.1868 413.414 80.5488V82.375C412.503 82.9479 411.298 83.2344 409.801 83.2344C408.329 83.2344 407.174 82.7819 406.334 81.877C405.501 80.9655 405.084 79.6862 405.084 78.0391C405.084 76.4831 405.543 75.2168 406.461 74.2402C407.385 73.2572 408.531 72.7656 409.898 72.7656C411.266 72.7656 412.324 73.2051 413.072 74.084C413.821 74.9629 414.195 76.1836 414.195 77.7461V78.6152ZM412.008 77.0137C412.001 76.1999 411.809 75.5684 411.432 75.1191C411.054 74.6634 410.533 74.4355 409.869 74.4355C409.218 74.4355 408.665 74.6732 408.209 75.1484C407.76 75.6237 407.483 76.2454 407.379 77.0137H412.008ZM427.135 82.8926C426.692 83.1139 426.109 83.2246 425.387 83.2246C423.447 83.2246 422.477 82.2936 422.477 80.4316V74.7773H420.807V73H422.477V70.6855L424.742 70.041V73H427.135V74.7773H424.742V79.7773C424.742 80.3698 424.85 80.793 425.064 81.0469C425.279 81.3008 425.637 81.4277 426.139 81.4277C426.523 81.4277 426.855 81.3171 427.135 81.0957V82.8926ZM437.975 83H435.709V77.5312C435.709 75.5521 435.048 74.5625 433.727 74.5625C433.062 74.5625 432.503 74.849 432.047 75.4219C431.591 75.9948 431.363 76.7272 431.363 77.6191V83H429.088V68.1953H431.363V74.6602H431.402C432.158 73.3971 433.238 72.7656 434.645 72.7656C436.865 72.7656 437.975 74.123 437.975 76.8379V83ZM449.195 78.6152H442.379C442.405 79.5397 442.688 80.2526 443.229 80.7539C443.775 81.2552 444.524 81.5059 445.475 81.5059C446.542 81.5059 447.522 81.1868 448.414 80.5488V82.375C447.503 82.9479 446.298 83.2344 444.801 83.2344C443.329 83.2344 442.174 82.7819 441.334 81.877C440.501 80.9655 440.084 79.6862 440.084 78.0391C440.084 76.4831 440.543 75.2168 441.461 74.2402C442.385 73.2572 443.531 72.7656 444.898 72.7656C446.266 72.7656 447.324 73.2051 448.072 74.084C448.821 74.9629 449.195 76.1836 449.195 77.7461V78.6152ZM447.008 77.0137C447.001 76.1999 446.809 75.5684 446.432 75.1191C446.054 74.6634 445.533 74.4355 444.869 74.4355C444.218 74.4355 443.665 74.6732 443.209 75.1484C442.76 75.6237 442.483 76.2454 442.379 77.0137H447.008ZM471.812 83H469.547V77.5508C469.547 76.5026 469.397 75.7441 469.098 75.2754C468.805 74.8066 468.307 74.5723 467.604 74.5723C467.011 74.5723 466.507 74.8685 466.09 75.4609C465.68 76.0534 465.475 76.763 465.475 77.5898V83H463.199V77.3652C463.199 75.5033 462.542 74.5723 461.227 74.5723C460.615 74.5723 460.11 74.8522 459.713 75.4121C459.322 75.972 459.127 76.6979 459.127 77.5898V83H456.861V73H459.127V74.582H459.166C459.889 73.3711 460.94 72.7656 462.32 72.7656C463.01 72.7656 463.613 72.9577 464.127 73.3418C464.648 73.7194 465.003 74.2174 465.191 74.8359C465.934 73.4557 467.04 72.7656 468.512 72.7656C470.712 72.7656 471.812 74.123 471.812 76.8379V83ZM479.01 83.2344C477.467 83.2344 476.233 82.7689 475.309 81.8379C474.391 80.9004 473.932 79.6602 473.932 78.1172C473.932 76.4375 474.41 75.1257 475.367 74.1816C476.331 73.2376 477.626 72.7656 479.254 72.7656C480.816 72.7656 482.034 73.2246 482.906 74.1426C483.779 75.0605 484.215 76.3333 484.215 77.9609C484.215 79.556 483.743 80.8353 482.799 81.7988C481.861 82.7559 480.598 83.2344 479.01 83.2344ZM479.117 74.5723C478.232 74.5723 477.532 74.8815 477.018 75.5C476.503 76.1185 476.246 76.9714 476.246 78.0586C476.246 79.1068 476.507 79.9336 477.027 80.5391C477.548 81.138 478.245 81.4375 479.117 81.4375C480.009 81.4375 480.693 81.1413 481.168 80.5488C481.65 79.9564 481.891 79.1133 481.891 78.0195C481.891 76.9193 481.65 76.0697 481.168 75.4707C480.693 74.8717 480.009 74.5723 479.117 74.5723ZM485.904 82.6875V80.5879C486.751 81.2324 487.685 81.5547 488.707 81.5547C490.074 81.5547 490.758 81.151 490.758 80.3438C490.758 80.1159 490.699 79.9238 490.582 79.7676C490.465 79.6048 490.305 79.4616 490.104 79.3379C489.908 79.2142 489.674 79.1035 489.4 79.0059C489.133 78.9082 488.834 78.7975 488.502 78.6738C488.092 78.5111 487.721 78.3385 487.389 78.1562C487.063 77.974 486.79 77.7689 486.568 77.541C486.354 77.3066 486.191 77.043 486.08 76.75C485.969 76.457 485.914 76.1152 485.914 75.7246C485.914 75.2428 486.028 74.8197 486.256 74.4551C486.484 74.084 486.79 73.7747 487.174 73.5273C487.558 73.2734 487.994 73.0846 488.482 72.9609C488.971 72.8307 489.475 72.7656 489.996 72.7656C490.921 72.7656 491.747 72.9056 492.477 73.1855V75.168C491.773 74.6862 490.966 74.4453 490.055 74.4453C489.768 74.4453 489.508 74.4746 489.273 74.5332C489.046 74.5918 488.85 74.6732 488.688 74.7773C488.525 74.8815 488.398 75.0085 488.307 75.1582C488.215 75.3014 488.17 75.4609 488.17 75.6367C488.17 75.8516 488.215 76.0339 488.307 76.1836C488.398 76.3333 488.531 76.4668 488.707 76.584C488.889 76.6947 489.104 76.7988 489.352 76.8965C489.605 76.9876 489.895 77.0885 490.221 77.1992C490.65 77.375 491.035 77.554 491.373 77.7363C491.718 77.9186 492.011 78.127 492.252 78.3613C492.493 78.5892 492.678 78.8561 492.809 79.1621C492.939 79.4616 493.004 79.8197 493.004 80.2363C493.004 80.7441 492.887 81.1868 492.652 81.5645C492.418 81.9421 492.105 82.2546 491.715 82.502C491.324 82.7493 490.872 82.9316 490.357 83.0488C489.85 83.1725 489.312 83.2344 488.746 83.2344C487.652 83.2344 486.705 83.0521 485.904 82.6875ZM500.436 82.8926C499.993 83.1139 499.41 83.2246 498.688 83.2246C496.747 83.2246 495.777 82.2936 495.777 80.4316V74.7773H494.107V73H495.777V70.6855L498.043 70.041V73H500.436V74.7773H498.043V79.7773C498.043 80.3698 498.15 80.793 498.365 81.0469C498.58 81.3008 498.938 81.4277 499.439 81.4277C499.824 81.4277 500.156 81.3171 500.436 81.0957V82.8926ZM510.201 81.5254H510.162V87.5996H507.896V73H510.162V74.7578H510.201C510.976 73.4297 512.109 72.7656 513.6 72.7656C514.869 72.7656 515.859 73.2116 516.568 74.1035C517.278 74.9954 517.633 76.1934 517.633 77.6973C517.633 79.3639 517.232 80.6986 516.432 81.7012C515.631 82.7038 514.537 83.2051 513.15 83.2051C511.874 83.2051 510.891 82.6452 510.201 81.5254ZM510.143 77.5801V78.8203C510.143 79.5495 510.374 80.168 510.836 80.6758C511.305 81.1836 511.897 81.4375 512.613 81.4375C513.453 81.4375 514.111 81.112 514.586 80.4609C515.068 79.8034 515.309 78.8887 515.309 77.7168C515.309 76.7337 515.084 75.9655 514.635 75.4121C514.192 74.8522 513.59 74.5723 512.828 74.5723C512.021 74.5723 511.37 74.8587 510.875 75.4316C510.387 76.0046 510.143 76.7207 510.143 77.5801ZM524.381 83.2344C522.838 83.2344 521.604 82.7689 520.68 81.8379C519.762 80.9004 519.303 79.6602 519.303 78.1172C519.303 76.4375 519.781 75.1257 520.738 74.1816C521.702 73.2376 522.997 72.7656 524.625 72.7656C526.188 72.7656 527.405 73.2246 528.277 74.1426C529.15 75.0605 529.586 76.3333 529.586 77.9609C529.586 79.556 529.114 80.8353 528.17 81.7988C527.232 82.7559 525.969 83.2344 524.381 83.2344ZM524.488 74.5723C523.603 74.5723 522.903 74.8815 522.389 75.5C521.874 76.1185 521.617 76.9714 521.617 78.0586C521.617 79.1068 521.878 79.9336 522.398 80.5391C522.919 81.138 523.616 81.4375 524.488 81.4375C525.38 81.4375 526.064 81.1413 526.539 80.5488C527.021 79.9564 527.262 79.1133 527.262 78.0195C527.262 76.9193 527.021 76.0697 526.539 75.4707C526.064 74.8717 525.38 74.5723 524.488 74.5723ZM545.348 73L542.398 83H540.025L538.209 76.2227C538.137 75.9622 538.092 75.6693 538.072 75.3438H538.033C538.02 75.5651 537.962 75.8516 537.857 76.2031L535.885 83H533.561L530.621 73H532.965L534.781 80.207C534.84 80.4219 534.879 80.7083 534.898 81.0664H534.967C534.986 80.793 535.038 80.5 535.123 80.1875L537.145 73H539.273L541.07 80.2363C541.129 80.4642 541.171 80.7507 541.197 81.0957H541.266C541.279 80.8548 541.327 80.5684 541.412 80.2363L543.189 73H545.348ZM555.406 78.6152H548.59C548.616 79.5397 548.899 80.2526 549.439 80.7539C549.986 81.2552 550.735 81.5059 551.686 81.5059C552.753 81.5059 553.733 81.1868 554.625 80.5488V82.375C553.714 82.9479 552.509 83.2344 551.012 83.2344C549.54 83.2344 548.385 82.7819 547.545 81.877C546.712 80.9655 546.295 79.6862 546.295 78.0391C546.295 76.4831 546.754 75.2168 547.672 74.2402C548.596 73.2572 549.742 72.7656 551.109 72.7656C552.477 72.7656 553.535 73.2051 554.283 74.084C555.032 74.9629 555.406 76.1836 555.406 77.7461V78.6152ZM553.219 77.0137C553.212 76.1999 553.02 75.5684 552.643 75.1191C552.265 74.6634 551.744 74.4355 551.08 74.4355C550.429 74.4355 549.876 74.6732 549.42 75.1484C548.971 75.6237 548.694 76.2454 548.59 77.0137H553.219ZM563.365 75.1582C563.092 74.9434 562.698 74.8359 562.184 74.8359C561.513 74.8359 560.953 75.1387 560.504 75.7441C560.055 76.3496 559.83 77.1732 559.83 78.2148V83H557.564V73H559.83V75.0605H559.869C560.09 74.3574 560.429 73.8105 560.885 73.4199C561.347 73.0228 561.861 72.8242 562.428 72.8242C562.838 72.8242 563.15 72.8861 563.365 73.0098V75.1582ZM571.051 70.041C570.745 69.8652 570.396 69.7773 570.006 69.7773C568.906 69.7773 568.355 70.3991 568.355 71.6426V73H570.68V74.7773H568.365V83H566.1V74.7773H564.391V73H566.1V71.3789C566.1 70.3242 566.445 69.4941 567.135 68.8887C567.825 68.2767 568.688 67.9707 569.723 67.9707C570.283 67.9707 570.725 68.0326 571.051 68.1562V70.041ZM581.012 83H578.746V81.418H578.707C578.049 82.6289 577.027 83.2344 575.641 83.2344C573.277 83.2344 572.096 81.8151 572.096 78.9766V73H574.361V78.7422C574.361 80.5391 575.055 81.4375 576.441 81.4375C577.112 81.4375 577.662 81.1901 578.092 80.6953C578.528 80.2005 578.746 79.5527 578.746 78.752V73H581.012V83ZM586.246 83H583.971V68.1953H586.246V83ZM349.85 106.688V104.588C350.696 105.232 351.63 105.555 352.652 105.555C354.02 105.555 354.703 105.151 354.703 104.344C354.703 104.116 354.645 103.924 354.527 103.768C354.41 103.605 354.251 103.462 354.049 103.338C353.854 103.214 353.619 103.104 353.346 103.006C353.079 102.908 352.779 102.798 352.447 102.674C352.037 102.511 351.666 102.339 351.334 102.156C351.008 101.974 350.735 101.769 350.514 101.541C350.299 101.307 350.136 101.043 350.025 100.75C349.915 100.457 349.859 100.115 349.859 99.7246C349.859 99.2428 349.973 98.8197 350.201 98.4551C350.429 98.084 350.735 97.7747 351.119 97.5273C351.503 97.2734 351.939 97.0846 352.428 96.9609C352.916 96.8307 353.421 96.7656 353.941 96.7656C354.866 96.7656 355.693 96.9056 356.422 97.1855V99.168C355.719 98.6862 354.911 98.4453 354 98.4453C353.714 98.4453 353.453 98.4746 353.219 98.5332C352.991 98.5918 352.796 98.6732 352.633 98.7773C352.47 98.8815 352.343 99.0085 352.252 99.1582C352.161 99.3014 352.115 99.4609 352.115 99.6367C352.115 99.8516 352.161 100.034 352.252 100.184C352.343 100.333 352.477 100.467 352.652 100.584C352.835 100.695 353.049 100.799 353.297 100.896C353.551 100.988 353.84 101.089 354.166 101.199C354.596 101.375 354.98 101.554 355.318 101.736C355.663 101.919 355.956 102.127 356.197 102.361C356.438 102.589 356.624 102.856 356.754 103.162C356.884 103.462 356.949 103.82 356.949 104.236C356.949 104.744 356.832 105.187 356.598 105.564C356.363 105.942 356.051 106.255 355.66 106.502C355.27 106.749 354.817 106.932 354.303 107.049C353.795 107.173 353.258 107.234 352.691 107.234C351.598 107.234 350.65 107.052 349.85 106.688ZM363.541 107.234C361.998 107.234 360.764 106.769 359.84 105.838C358.922 104.9 358.463 103.66 358.463 102.117C358.463 100.438 358.941 99.1257 359.898 98.1816C360.862 97.2376 362.158 96.7656 363.785 96.7656C365.348 96.7656 366.565 97.2246 367.438 98.1426C368.31 99.0605 368.746 100.333 368.746 101.961C368.746 103.556 368.274 104.835 367.33 105.799C366.393 106.756 365.13 107.234 363.541 107.234ZM363.648 98.5723C362.763 98.5723 362.063 98.8815 361.549 99.5C361.035 100.118 360.777 100.971 360.777 102.059C360.777 103.107 361.038 103.934 361.559 104.539C362.079 105.138 362.776 105.438 363.648 105.438C364.54 105.438 365.224 105.141 365.699 104.549C366.181 103.956 366.422 103.113 366.422 102.02C366.422 100.919 366.181 100.07 365.699 99.4707C365.224 98.8717 364.54 98.5723 363.648 98.5723ZM376.383 94.041C376.077 93.8652 375.729 93.7773 375.338 93.7773C374.238 93.7773 373.688 94.3991 373.688 95.6426V97H376.012V98.7773H373.697V107H371.432V98.7773H369.723V97H371.432V95.3789C371.432 94.3242 371.777 93.4941 372.467 92.8887C373.157 92.2767 374.02 91.9707 375.055 91.9707C375.615 91.9707 376.057 92.0326 376.383 92.1562V94.041ZM383.268 106.893C382.825 107.114 382.242 107.225 381.52 107.225C379.579 107.225 378.609 106.294 378.609 104.432V98.7773H376.939V97H378.609V94.6855L380.875 94.041V97H383.268V98.7773H380.875V103.777C380.875 104.37 380.982 104.793 381.197 105.047C381.412 105.301 381.77 105.428 382.271 105.428C382.656 105.428 382.988 105.317 383.268 105.096V106.893ZM398.668 97L395.719 107H393.346L391.529 100.223C391.458 99.9622 391.412 99.6693 391.393 99.3438H391.354C391.34 99.5651 391.282 99.8516 391.178 100.203L389.205 107H386.881L383.941 97H386.285L388.102 104.207C388.16 104.422 388.199 104.708 388.219 105.066H388.287C388.307 104.793 388.359 104.5 388.443 104.188L390.465 97H392.594L394.391 104.236C394.449 104.464 394.492 104.751 394.518 105.096H394.586C394.599 104.855 394.648 104.568 394.732 104.236L396.51 97H398.668ZM408.033 107H405.836V105.438H405.797C405.107 106.635 404.094 107.234 402.76 107.234C401.777 107.234 401.005 106.967 400.445 106.434C399.892 105.9 399.615 105.193 399.615 104.314C399.615 102.426 400.702 101.326 402.877 101.014L405.846 100.594C405.846 99.168 405.169 98.4551 403.814 98.4551C402.623 98.4551 401.549 98.8652 400.592 99.6855V97.7031C401.646 97.0781 402.864 96.7656 404.244 96.7656C406.77 96.7656 408.033 98.0091 408.033 100.496V107ZM405.846 102.088L403.746 102.381C403.095 102.465 402.604 102.625 402.271 102.859C401.946 103.087 401.783 103.491 401.783 104.07C401.783 104.493 401.933 104.842 402.232 105.115C402.538 105.382 402.945 105.516 403.453 105.516C404.143 105.516 404.713 105.275 405.162 104.793C405.618 104.305 405.846 103.693 405.846 102.957V102.088ZM416.607 99.1582C416.334 98.9434 415.94 98.8359 415.426 98.8359C414.755 98.8359 414.195 99.1387 413.746 99.7441C413.297 100.35 413.072 101.173 413.072 102.215V107H410.807V97H413.072V99.0605H413.111C413.333 98.3574 413.671 97.8105 414.127 97.4199C414.589 97.0228 415.104 96.8242 415.67 96.8242C416.08 96.8242 416.393 96.8861 416.607 97.0098V99.1582ZM426.5 102.615H419.684C419.71 103.54 419.993 104.253 420.533 104.754C421.08 105.255 421.829 105.506 422.779 105.506C423.847 105.506 424.827 105.187 425.719 104.549V106.375C424.807 106.948 423.603 107.234 422.105 107.234C420.634 107.234 419.479 106.782 418.639 105.877C417.805 104.965 417.389 103.686 417.389 102.039C417.389 100.483 417.848 99.2168 418.766 98.2402C419.69 97.2572 420.836 96.7656 422.203 96.7656C423.57 96.7656 424.628 97.2051 425.377 98.084C426.126 98.9629 426.5 100.184 426.5 101.746V102.615ZM424.312 101.014C424.306 100.2 424.114 99.5684 423.736 99.1191C423.359 98.6634 422.838 98.4355 422.174 98.4355C421.523 98.4355 420.969 98.6732 420.514 99.1484C420.064 99.6237 419.788 100.245 419.684 101.014H424.312ZM439.439 106.893C438.997 107.114 438.414 107.225 437.691 107.225C435.751 107.225 434.781 106.294 434.781 104.432V98.7773H433.111V97H434.781V94.6855L437.047 94.041V97H439.439V98.7773H437.047V103.777C437.047 104.37 437.154 104.793 437.369 105.047C437.584 105.301 437.942 105.428 438.443 105.428C438.827 105.428 439.16 105.317 439.439 105.096V106.893ZM445.709 107.234C444.166 107.234 442.932 106.769 442.008 105.838C441.09 104.9 440.631 103.66 440.631 102.117C440.631 100.438 441.109 99.1257 442.066 98.1816C443.03 97.2376 444.326 96.7656 445.953 96.7656C447.516 96.7656 448.733 97.2246 449.605 98.1426C450.478 99.0605 450.914 100.333 450.914 101.961C450.914 103.556 450.442 104.835 449.498 105.799C448.561 106.756 447.298 107.234 445.709 107.234ZM445.816 98.5723C444.931 98.5723 444.231 98.8815 443.717 99.5C443.202 100.118 442.945 100.971 442.945 102.059C442.945 103.107 443.206 103.934 443.727 104.539C444.247 105.138 444.944 105.438 445.816 105.438C446.708 105.438 447.392 105.141 447.867 104.549C448.349 103.956 448.59 103.113 448.59 102.02C448.59 100.919 448.349 100.07 447.867 99.4707C447.392 98.8717 446.708 98.5723 445.816 98.5723ZM467.828 107H465.562V105.301H465.523C464.794 106.59 463.671 107.234 462.154 107.234C460.924 107.234 459.938 106.788 459.195 105.896C458.46 104.998 458.092 103.777 458.092 102.234C458.092 100.581 458.499 99.2559 459.312 98.2598C460.133 97.2637 461.223 96.7656 462.584 96.7656C463.932 96.7656 464.911 97.306 465.523 98.3867H465.562V92.1953H467.828V107ZM465.592 102.43V101.121C465.592 100.411 465.361 99.8092 464.898 99.3145C464.436 98.8197 463.847 98.5723 463.131 98.5723C462.285 98.5723 461.617 98.888 461.129 99.5195C460.647 100.151 460.406 101.027 460.406 102.146C460.406 103.162 460.637 103.966 461.1 104.559C461.568 105.145 462.197 105.438 462.984 105.438C463.759 105.438 464.387 105.154 464.869 104.588C465.351 104.015 465.592 103.296 465.592 102.43ZM479.254 102.615H472.438C472.464 103.54 472.747 104.253 473.287 104.754C473.834 105.255 474.583 105.506 475.533 105.506C476.601 105.506 477.581 105.187 478.473 104.549V106.375C477.561 106.948 476.357 107.234 474.859 107.234C473.388 107.234 472.232 106.782 471.393 105.877C470.559 104.965 470.143 103.686 470.143 102.039C470.143 100.483 470.602 99.2168 471.52 98.2402C472.444 97.2572 473.59 96.7656 474.957 96.7656C476.324 96.7656 477.382 97.2051 478.131 98.084C478.88 98.9629 479.254 100.184 479.254 101.746V102.615ZM477.066 101.014C477.06 100.2 476.868 99.5684 476.49 99.1191C476.113 98.6634 475.592 98.4355 474.928 98.4355C474.277 98.4355 473.723 98.6732 473.268 99.1484C472.818 99.6237 472.542 100.245 472.438 101.014H477.066ZM486.686 106.893C486.243 107.114 485.66 107.225 484.938 107.225C482.997 107.225 482.027 106.294 482.027 104.432V98.7773H480.357V97H482.027V94.6855L484.293 94.041V97H486.686V98.7773H484.293V103.777C484.293 104.37 484.4 104.793 484.615 105.047C484.83 105.301 485.188 105.428 485.689 105.428C486.074 105.428 486.406 105.317 486.686 105.096V106.893ZM496.988 102.615H490.172C490.198 103.54 490.481 104.253 491.021 104.754C491.568 105.255 492.317 105.506 493.268 105.506C494.335 105.506 495.315 105.187 496.207 104.549V106.375C495.296 106.948 494.091 107.234 492.594 107.234C491.122 107.234 489.967 106.782 489.127 105.877C488.294 104.965 487.877 103.686 487.877 102.039C487.877 100.483 488.336 99.2168 489.254 98.2402C490.178 97.2572 491.324 96.7656 492.691 96.7656C494.059 96.7656 495.117 97.2051 495.865 98.084C496.614 98.9629 496.988 100.184 496.988 101.746V102.615ZM494.801 101.014C494.794 100.2 494.602 99.5684 494.225 99.1191C493.847 98.6634 493.326 98.4355 492.662 98.4355C492.011 98.4355 491.458 98.6732 491.002 99.1484C490.553 99.6237 490.276 100.245 490.172 101.014H494.801ZM506.305 106.541C505.504 107.003 504.557 107.234 503.463 107.234C501.979 107.234 500.781 106.772 499.869 105.848C498.958 104.917 498.502 103.712 498.502 102.234C498.502 100.587 498.99 99.2656 499.967 98.2695C500.95 97.2669 502.262 96.7656 503.902 96.7656C504.814 96.7656 505.618 96.9251 506.314 97.2441V99.3535C505.618 98.8327 504.876 98.5723 504.088 98.5723C503.131 98.5723 502.346 98.8978 501.734 99.5488C501.122 100.193 500.816 101.04 500.816 102.088C500.816 103.123 501.103 103.94 501.676 104.539C502.255 105.138 503.03 105.438 504 105.438C504.814 105.438 505.582 105.148 506.305 104.568V106.541ZM513.834 106.893C513.391 107.114 512.809 107.225 512.086 107.225C510.146 107.225 509.176 106.294 509.176 104.432V98.7773H507.506V97H509.176V94.6855L511.441 94.041V97H513.834V98.7773H511.441V103.777C511.441 104.37 511.549 104.793 511.764 105.047C511.979 105.301 512.337 105.428 512.838 105.428C513.222 105.428 513.554 105.317 513.834 105.096V106.893ZM534.742 97L531.793 107H529.42L527.604 100.223C527.532 99.9622 527.486 99.6693 527.467 99.3438H527.428C527.415 99.5651 527.356 99.8516 527.252 100.203L525.279 107H522.955L520.016 97H522.359L524.176 104.207C524.234 104.422 524.273 104.708 524.293 105.066H524.361C524.381 104.793 524.433 104.5 524.518 104.188L526.539 97H528.668L530.465 104.236C530.523 104.464 530.566 104.751 530.592 105.096H530.66C530.673 104.855 530.722 104.568 530.807 104.236L532.584 97H534.742ZM545.318 107H543.053V101.531C543.053 99.5521 542.392 98.5625 541.07 98.5625C540.406 98.5625 539.846 98.849 539.391 99.4219C538.935 99.9948 538.707 100.727 538.707 101.619V107H536.432V92.1953H538.707V98.6602H538.746C539.501 97.3971 540.582 96.7656 541.988 96.7656C544.208 96.7656 545.318 98.123 545.318 100.838V107ZM556.539 102.615H549.723C549.749 103.54 550.032 104.253 550.572 104.754C551.119 105.255 551.868 105.506 552.818 105.506C553.886 105.506 554.866 105.187 555.758 104.549V106.375C554.846 106.948 553.642 107.234 552.145 107.234C550.673 107.234 549.518 106.782 548.678 105.877C547.844 104.965 547.428 103.686 547.428 102.039C547.428 100.483 547.887 99.2168 548.805 98.2402C549.729 97.2572 550.875 96.7656 552.242 96.7656C553.609 96.7656 554.667 97.2051 555.416 98.084C556.165 98.9629 556.539 100.184 556.539 101.746V102.615ZM554.352 101.014C554.345 100.2 554.153 99.5684 553.775 99.1191C553.398 98.6634 552.877 98.4355 552.213 98.4355C551.562 98.4355 551.008 98.6732 550.553 99.1484C550.104 99.6237 549.827 100.245 549.723 101.014H554.352ZM564.498 99.1582C564.225 98.9434 563.831 98.8359 563.316 98.8359C562.646 98.8359 562.086 99.1387 561.637 99.7441C561.188 100.35 560.963 101.173 560.963 102.215V107H558.697V97H560.963V99.0605H561.002C561.223 98.3574 561.562 97.8105 562.018 97.4199C562.48 97.0228 562.994 96.8242 563.561 96.8242C563.971 96.8242 564.283 96.8861 564.498 97.0098V99.1582ZM574.391 102.615H567.574C567.6 103.54 567.883 104.253 568.424 104.754C568.971 105.255 569.719 105.506 570.67 105.506C571.738 105.506 572.717 105.187 573.609 104.549V106.375C572.698 106.948 571.493 107.234 569.996 107.234C568.525 107.234 567.369 106.782 566.529 105.877C565.696 104.965 565.279 103.686 565.279 102.039C565.279 100.483 565.738 99.2168 566.656 98.2402C567.581 97.2572 568.727 96.7656 570.094 96.7656C571.461 96.7656 572.519 97.2051 573.268 98.084C574.016 98.9629 574.391 100.184 574.391 101.746V102.615ZM572.203 101.014C572.197 100.2 572.005 99.5684 571.627 99.1191C571.249 98.6634 570.729 98.4355 570.064 98.4355C569.413 98.4355 568.86 98.6732 568.404 99.1484C567.955 99.6237 567.678 100.245 567.574 101.014H572.203ZM359.137 121L354.625 132.602C353.688 134.672 352.372 135.707 350.68 135.707C350.204 135.707 349.807 135.665 349.488 135.58V133.695C349.846 133.812 350.172 133.871 350.465 133.871C351.311 133.871 351.943 133.454 352.359 132.621L353.033 130.98L349.059 121H351.568L353.951 128.266C353.977 128.357 354.036 128.598 354.127 128.988H354.176C354.208 128.839 354.267 128.604 354.352 128.285L356.852 121H359.137ZM364.928 131.234C363.385 131.234 362.151 130.769 361.227 129.838C360.309 128.9 359.85 127.66 359.85 126.117C359.85 124.438 360.328 123.126 361.285 122.182C362.249 121.238 363.544 120.766 365.172 120.766C366.734 120.766 367.952 121.225 368.824 122.143C369.697 123.061 370.133 124.333 370.133 125.961C370.133 127.556 369.661 128.835 368.717 129.799C367.779 130.756 366.516 131.234 364.928 131.234ZM365.035 122.572C364.15 122.572 363.45 122.882 362.936 123.5C362.421 124.118 362.164 124.971 362.164 126.059C362.164 127.107 362.424 127.934 362.945 128.539C363.466 129.138 364.163 129.438 365.035 129.438C365.927 129.438 366.611 129.141 367.086 128.549C367.568 127.956 367.809 127.113 367.809 126.02C367.809 124.919 367.568 124.07 367.086 123.471C366.611 122.872 365.927 122.572 365.035 122.572ZM381.168 131H378.902V129.418H378.863C378.206 130.629 377.184 131.234 375.797 131.234C373.434 131.234 372.252 129.815 372.252 126.977V121H374.518V126.742C374.518 128.539 375.211 129.438 376.598 129.438C377.268 129.438 377.818 129.19 378.248 128.695C378.684 128.201 378.902 127.553 378.902 126.752V121H381.168V131ZM389.928 123.158C389.654 122.943 389.26 122.836 388.746 122.836C388.076 122.836 387.516 123.139 387.066 123.744C386.617 124.35 386.393 125.173 386.393 126.215V131H384.127V121H386.393V123.061H386.432C386.653 122.357 386.992 121.811 387.447 121.42C387.91 121.023 388.424 120.824 388.99 120.824C389.4 120.824 389.713 120.886 389.928 121.01V123.158ZM398.18 118.9C397.809 118.9 397.49 118.78 397.223 118.539C396.962 118.298 396.832 117.992 396.832 117.621C396.832 117.25 396.962 116.941 397.223 116.693C397.49 116.446 397.809 116.322 398.18 116.322C398.564 116.322 398.889 116.446 399.156 116.693C399.423 116.941 399.557 117.25 399.557 117.621C399.557 117.973 399.423 118.275 399.156 118.529C398.889 118.777 398.564 118.9 398.18 118.9ZM399.303 131H397.037V121H399.303V131ZM404.547 131H402.271V116.195H404.547V131ZM409.781 131H407.506V116.195H409.781V131ZM421.207 126.615H414.391C414.417 127.54 414.7 128.253 415.24 128.754C415.787 129.255 416.536 129.506 417.486 129.506C418.554 129.506 419.534 129.187 420.426 128.549V130.375C419.514 130.948 418.31 131.234 416.812 131.234C415.341 131.234 414.186 130.782 413.346 129.877C412.512 128.965 412.096 127.686 412.096 126.039C412.096 124.483 412.555 123.217 413.473 122.24C414.397 121.257 415.543 120.766 416.91 120.766C418.277 120.766 419.335 121.205 420.084 122.084C420.833 122.963 421.207 124.184 421.207 125.746V126.615ZM419.02 125.014C419.013 124.2 418.821 123.568 418.443 123.119C418.066 122.663 417.545 122.436 416.881 122.436C416.23 122.436 415.676 122.673 415.221 123.148C414.771 123.624 414.495 124.245 414.391 125.014H419.02ZM432.467 130.199C432.467 133.871 430.621 135.707 426.93 135.707C425.628 135.707 424.492 135.489 423.521 135.053V132.982C424.615 133.607 425.654 133.92 426.637 133.92C429.013 133.92 430.201 132.751 430.201 130.414V129.32H430.162C429.413 130.596 428.287 131.234 426.783 131.234C425.566 131.234 424.583 130.792 423.834 129.906C423.092 129.014 422.721 127.82 422.721 126.322C422.721 124.623 423.121 123.272 423.922 122.27C424.723 121.267 425.823 120.766 427.223 120.766C428.544 120.766 429.524 121.306 430.162 122.387H430.201V121H432.467V130.199ZM430.221 126.42V125.121C430.221 124.418 429.986 123.819 429.518 123.324C429.055 122.823 428.476 122.572 427.779 122.572C426.92 122.572 426.246 122.891 425.758 123.529C425.276 124.161 425.035 125.046 425.035 126.186C425.035 127.169 425.266 127.956 425.729 128.549C426.197 129.135 426.816 129.428 427.584 129.428C428.365 129.428 429 129.148 429.488 128.588C429.977 128.021 430.221 127.299 430.221 126.42ZM443.092 131H440.895V129.438H440.855C440.165 130.635 439.153 131.234 437.818 131.234C436.835 131.234 436.064 130.967 435.504 130.434C434.951 129.9 434.674 129.193 434.674 128.314C434.674 126.426 435.761 125.326 437.936 125.014L440.904 124.594C440.904 123.168 440.227 122.455 438.873 122.455C437.682 122.455 436.607 122.865 435.65 123.686V121.703C436.705 121.078 437.923 120.766 439.303 120.766C441.829 120.766 443.092 122.009 443.092 124.496V131ZM440.904 126.088L438.805 126.381C438.154 126.465 437.662 126.625 437.33 126.859C437.005 127.087 436.842 127.491 436.842 128.07C436.842 128.493 436.992 128.842 437.291 129.115C437.597 129.382 438.004 129.516 438.512 129.516C439.202 129.516 439.771 129.275 440.221 128.793C440.676 128.305 440.904 127.693 440.904 126.957V126.088ZM448.141 131H445.865V116.195H448.141V131ZM463.766 130.541C462.965 131.003 462.018 131.234 460.924 131.234C459.439 131.234 458.242 130.772 457.33 129.848C456.419 128.917 455.963 127.712 455.963 126.234C455.963 124.587 456.451 123.266 457.428 122.27C458.411 121.267 459.723 120.766 461.363 120.766C462.275 120.766 463.079 120.925 463.775 121.244V123.354C463.079 122.833 462.337 122.572 461.549 122.572C460.592 122.572 459.807 122.898 459.195 123.549C458.583 124.193 458.277 125.04 458.277 126.088C458.277 127.123 458.564 127.94 459.137 128.539C459.716 129.138 460.491 129.438 461.461 129.438C462.275 129.438 463.043 129.148 463.766 128.568V130.541ZM470.455 131.234C468.912 131.234 467.678 130.769 466.754 129.838C465.836 128.9 465.377 127.66 465.377 126.117C465.377 124.438 465.855 123.126 466.812 122.182C467.776 121.238 469.072 120.766 470.699 120.766C472.262 120.766 473.479 121.225 474.352 122.143C475.224 123.061 475.66 124.333 475.66 125.961C475.66 127.556 475.188 128.835 474.244 129.799C473.307 130.756 472.044 131.234 470.455 131.234ZM470.562 122.572C469.677 122.572 468.977 122.882 468.463 123.5C467.949 124.118 467.691 124.971 467.691 126.059C467.691 127.107 467.952 127.934 468.473 128.539C468.993 129.138 469.69 129.438 470.562 129.438C471.454 129.438 472.138 129.141 472.613 128.549C473.095 127.956 473.336 127.113 473.336 126.02C473.336 124.919 473.095 124.07 472.613 123.471C472.138 122.872 471.454 122.572 470.562 122.572ZM486.881 131H484.615V125.365C484.615 123.497 483.954 122.562 482.633 122.562C481.943 122.562 481.373 122.823 480.924 123.344C480.475 123.858 480.25 124.509 480.25 125.297V131H477.975V121H480.25V122.66H480.289C481.038 121.397 482.118 120.766 483.531 120.766C484.618 120.766 485.449 121.12 486.021 121.83C486.594 122.533 486.881 123.552 486.881 124.887V131ZM494.928 130.893C494.485 131.114 493.902 131.225 493.18 131.225C491.24 131.225 490.27 130.294 490.27 128.432V122.777H488.6V121H490.27V118.686L492.535 118.041V121H494.928V122.777H492.535V127.777C492.535 128.37 492.643 128.793 492.857 129.047C493.072 129.301 493.43 129.428 493.932 129.428C494.316 129.428 494.648 129.317 494.928 129.096V130.893ZM505.23 126.615H498.414C498.44 127.54 498.723 128.253 499.264 128.754C499.811 129.255 500.559 129.506 501.51 129.506C502.577 129.506 503.557 129.187 504.449 128.549V130.375C503.538 130.948 502.333 131.234 500.836 131.234C499.365 131.234 498.209 130.782 497.369 129.877C496.536 128.965 496.119 127.686 496.119 126.039C496.119 124.483 496.578 123.217 497.496 122.24C498.421 121.257 499.566 120.766 500.934 120.766C502.301 120.766 503.359 121.205 504.107 122.084C504.856 122.963 505.23 124.184 505.23 125.746V126.615ZM503.043 125.014C503.036 124.2 502.844 123.568 502.467 123.119C502.089 122.663 501.568 122.436 500.904 122.436C500.253 122.436 499.7 122.673 499.244 123.148C498.795 123.624 498.518 124.245 498.414 125.014H503.043ZM516.295 131H514.029V125.365C514.029 123.497 513.368 122.562 512.047 122.562C511.357 122.562 510.787 122.823 510.338 123.344C509.889 123.858 509.664 124.509 509.664 125.297V131H507.389V121H509.664V122.66H509.703C510.452 121.397 511.533 120.766 512.945 120.766C514.033 120.766 514.863 121.12 515.436 121.83C516.008 122.533 516.295 123.552 516.295 124.887V131ZM524.342 130.893C523.899 131.114 523.316 131.225 522.594 131.225C520.654 131.225 519.684 130.294 519.684 128.432V122.777H518.014V121H519.684V118.686L521.949 118.041V121H524.342V122.777H521.949V127.777C521.949 128.37 522.057 128.793 522.271 129.047C522.486 129.301 522.844 129.428 523.346 129.428C523.73 129.428 524.062 129.317 524.342 129.096V130.893ZM532.945 118.9C532.574 118.9 532.255 118.78 531.988 118.539C531.728 118.298 531.598 117.992 531.598 117.621C531.598 117.25 531.728 116.941 531.988 116.693C532.255 116.446 532.574 116.322 532.945 116.322C533.329 116.322 533.655 116.446 533.922 116.693C534.189 116.941 534.322 117.25 534.322 117.621C534.322 117.973 534.189 118.275 533.922 118.529C533.655 118.777 533.329 118.9 532.945 118.9ZM534.068 131H531.803V121H534.068V131ZM536.412 130.688V128.588C537.258 129.232 538.193 129.555 539.215 129.555C540.582 129.555 541.266 129.151 541.266 128.344C541.266 128.116 541.207 127.924 541.09 127.768C540.973 127.605 540.813 127.462 540.611 127.338C540.416 127.214 540.182 127.104 539.908 127.006C539.641 126.908 539.342 126.798 539.01 126.674C538.6 126.511 538.229 126.339 537.896 126.156C537.571 125.974 537.298 125.769 537.076 125.541C536.861 125.307 536.699 125.043 536.588 124.75C536.477 124.457 536.422 124.115 536.422 123.725C536.422 123.243 536.536 122.82 536.764 122.455C536.992 122.084 537.298 121.775 537.682 121.527C538.066 121.273 538.502 121.085 538.99 120.961C539.479 120.831 539.983 120.766 540.504 120.766C541.428 120.766 542.255 120.906 542.984 121.186V123.168C542.281 122.686 541.474 122.445 540.562 122.445C540.276 122.445 540.016 122.475 539.781 122.533C539.553 122.592 539.358 122.673 539.195 122.777C539.033 122.882 538.906 123.008 538.814 123.158C538.723 123.301 538.678 123.461 538.678 123.637C538.678 123.852 538.723 124.034 538.814 124.184C538.906 124.333 539.039 124.467 539.215 124.584C539.397 124.695 539.612 124.799 539.859 124.896C540.113 124.988 540.403 125.089 540.729 125.199C541.158 125.375 541.542 125.554 541.881 125.736C542.226 125.919 542.519 126.127 542.76 126.361C543.001 126.589 543.186 126.856 543.316 127.162C543.447 127.462 543.512 127.82 543.512 128.236C543.512 128.744 543.395 129.187 543.16 129.564C542.926 129.942 542.613 130.255 542.223 130.502C541.832 130.749 541.38 130.932 540.865 131.049C540.357 131.173 539.82 131.234 539.254 131.234C538.16 131.234 537.213 131.052 536.412 130.688ZM359.361 155H357.096V149.531C357.096 147.552 356.435 146.562 355.113 146.562C354.449 146.562 353.889 146.849 353.434 147.422C352.978 147.995 352.75 148.727 352.75 149.619V155H350.475V140.195H352.75V146.66H352.789C353.544 145.397 354.625 144.766 356.031 144.766C358.251 144.766 359.361 146.123 359.361 148.838V155ZM363.258 142.9C362.887 142.9 362.568 142.78 362.301 142.539C362.04 142.298 361.91 141.992 361.91 141.621C361.91 141.25 362.04 140.941 362.301 140.693C362.568 140.446 362.887 140.322 363.258 140.322C363.642 140.322 363.967 140.446 364.234 140.693C364.501 140.941 364.635 141.25 364.635 141.621C364.635 141.973 364.501 142.275 364.234 142.529C363.967 142.777 363.642 142.9 363.258 142.9ZM364.381 155H362.115V145H364.381V155ZM376.441 155H374.176V153.301H374.137C373.408 154.59 372.285 155.234 370.768 155.234C369.537 155.234 368.551 154.788 367.809 153.896C367.073 152.998 366.705 151.777 366.705 150.234C366.705 148.581 367.112 147.256 367.926 146.26C368.746 145.264 369.837 144.766 371.197 144.766C372.545 144.766 373.525 145.306 374.137 146.387H374.176V140.195H376.441V155ZM374.205 150.43V149.121C374.205 148.411 373.974 147.809 373.512 147.314C373.049 146.82 372.46 146.572 371.744 146.572C370.898 146.572 370.23 146.888 369.742 147.52C369.26 148.151 369.02 149.027 369.02 150.146C369.02 151.162 369.251 151.966 369.713 152.559C370.182 153.145 370.81 153.438 371.598 153.438C372.372 153.438 373.001 153.154 373.482 152.588C373.964 152.015 374.205 151.296 374.205 150.43ZM388.492 155H386.227V153.301H386.188C385.458 154.59 384.335 155.234 382.818 155.234C381.588 155.234 380.602 154.788 379.859 153.896C379.124 152.998 378.756 151.777 378.756 150.234C378.756 148.581 379.163 147.256 379.977 146.26C380.797 145.264 381.887 144.766 383.248 144.766C384.596 144.766 385.576 145.306 386.188 146.387H386.227V140.195H388.492V155ZM386.256 150.43V149.121C386.256 148.411 386.025 147.809 385.562 147.314C385.1 146.82 384.511 146.572 383.795 146.572C382.949 146.572 382.281 146.888 381.793 147.52C381.311 148.151 381.07 149.027 381.07 150.146C381.07 151.162 381.301 151.966 381.764 152.559C382.232 153.145 382.861 153.438 383.648 153.438C384.423 153.438 385.051 153.154 385.533 152.588C386.015 152.015 386.256 151.296 386.256 150.43ZM399.918 150.615H393.102C393.128 151.54 393.411 152.253 393.951 152.754C394.498 153.255 395.247 153.506 396.197 153.506C397.265 153.506 398.245 153.187 399.137 152.549V154.375C398.225 154.948 397.021 155.234 395.523 155.234C394.052 155.234 392.896 154.782 392.057 153.877C391.223 152.965 390.807 151.686 390.807 150.039C390.807 148.483 391.266 147.217 392.184 146.24C393.108 145.257 394.254 144.766 395.621 144.766C396.988 144.766 398.046 145.205 398.795 146.084C399.544 146.963 399.918 148.184 399.918 149.746V150.615ZM397.73 149.014C397.724 148.2 397.532 147.568 397.154 147.119C396.777 146.663 396.256 146.436 395.592 146.436C394.941 146.436 394.387 146.673 393.932 147.148C393.482 147.624 393.206 148.245 393.102 149.014H397.73ZM410.982 155H408.717V149.365C408.717 147.497 408.056 146.562 406.734 146.562C406.044 146.562 405.475 146.823 405.025 147.344C404.576 147.858 404.352 148.509 404.352 149.297V155H402.076V145H404.352V146.66H404.391C405.139 145.397 406.22 144.766 407.633 144.766C408.72 144.766 409.55 145.12 410.123 145.83C410.696 146.533 410.982 147.552 410.982 148.887V155ZM414.693 155.215C414.303 155.215 413.971 155.088 413.697 154.834C413.424 154.574 413.287 154.264 413.287 153.906C413.287 153.542 413.424 153.229 413.697 152.969C413.971 152.708 414.303 152.578 414.693 152.578C415.09 152.578 415.426 152.708 415.699 152.969C415.979 153.229 416.119 153.542 416.119 153.906C416.119 154.264 415.979 154.574 415.699 154.834C415.426 155.088 415.09 155.215 414.693 155.215ZM368.102 164.996L364.264 179H361.637L358.971 169.205C358.86 168.788 358.792 168.333 358.766 167.838H358.727C358.694 168.3 358.616 168.749 358.492 169.186L355.816 179H353.131L349.215 164.996H351.764L354.303 175.25C354.407 175.68 354.472 176.129 354.498 176.598H354.547C354.573 176.266 354.664 175.816 354.82 175.25L357.691 164.996H360.084L362.74 175.328C362.831 175.68 362.9 176.096 362.945 176.578H362.984C363.004 176.253 363.079 175.823 363.209 175.289L365.699 164.996H368.102ZM377.75 174.615H370.934C370.96 175.54 371.243 176.253 371.783 176.754C372.33 177.255 373.079 177.506 374.029 177.506C375.097 177.506 376.077 177.187 376.969 176.549V178.375C376.057 178.948 374.853 179.234 373.355 179.234C371.884 179.234 370.729 178.782 369.889 177.877C369.055 176.965 368.639 175.686 368.639 174.039C368.639 172.483 369.098 171.217 370.016 170.24C370.94 169.257 372.086 168.766 373.453 168.766C374.82 168.766 375.878 169.205 376.627 170.084C377.376 170.963 377.75 172.184 377.75 173.746V174.615ZM375.562 173.014C375.556 172.2 375.364 171.568 374.986 171.119C374.609 170.663 374.088 170.436 373.424 170.436C372.773 170.436 372.219 170.673 371.764 171.148C371.314 171.624 371.038 172.245 370.934 173.014H375.562ZM391.217 171.158C390.943 170.943 390.549 170.836 390.035 170.836C389.365 170.836 388.805 171.139 388.355 171.744C387.906 172.35 387.682 173.173 387.682 174.215V179H385.416V169H387.682V171.061H387.721C387.942 170.357 388.281 169.811 388.736 169.42C389.199 169.023 389.713 168.824 390.279 168.824C390.689 168.824 391.002 168.886 391.217 169.01V171.158ZM401.539 179H399.273V177.418H399.234C398.577 178.629 397.555 179.234 396.168 179.234C393.805 179.234 392.623 177.815 392.623 174.977V169H394.889V174.742C394.889 176.539 395.582 177.438 396.969 177.438C397.639 177.438 398.189 177.19 398.619 176.695C399.055 176.201 399.273 175.553 399.273 174.752V169H401.539V179ZM413.404 179H411.139V173.365C411.139 171.497 410.478 170.562 409.156 170.562C408.466 170.562 407.896 170.823 407.447 171.344C406.998 171.858 406.773 172.509 406.773 173.297V179H404.498V169H406.773V170.66H406.812C407.561 169.397 408.642 168.766 410.055 168.766C411.142 168.766 411.972 169.12 412.545 169.83C413.118 170.533 413.404 171.552 413.404 172.887V179ZM436.637 179H434.371V173.551C434.371 172.503 434.221 171.744 433.922 171.275C433.629 170.807 433.131 170.572 432.428 170.572C431.835 170.572 431.331 170.868 430.914 171.461C430.504 172.053 430.299 172.763 430.299 173.59V179H428.023V173.365C428.023 171.503 427.366 170.572 426.051 170.572C425.439 170.572 424.934 170.852 424.537 171.412C424.146 171.972 423.951 172.698 423.951 173.59V179H421.686V169H423.951V170.582H423.99C424.713 169.371 425.764 168.766 427.145 168.766C427.835 168.766 428.437 168.958 428.951 169.342C429.472 169.719 429.827 170.217 430.016 170.836C430.758 169.456 431.865 168.766 433.336 168.766C435.536 168.766 436.637 170.123 436.637 172.838V179ZM447.076 179H444.879V177.438H444.84C444.15 178.635 443.137 179.234 441.803 179.234C440.82 179.234 440.048 178.967 439.488 178.434C438.935 177.9 438.658 177.193 438.658 176.314C438.658 174.426 439.745 173.326 441.92 173.014L444.889 172.594C444.889 171.168 444.212 170.455 442.857 170.455C441.666 170.455 440.592 170.865 439.635 171.686V169.703C440.689 169.078 441.907 168.766 443.287 168.766C445.813 168.766 447.076 170.009 447.076 172.496V179ZM444.889 174.088L442.789 174.381C442.138 174.465 441.646 174.625 441.314 174.859C440.989 175.087 440.826 175.491 440.826 176.07C440.826 176.493 440.976 176.842 441.275 177.115C441.581 177.382 441.988 177.516 442.496 177.516C443.186 177.516 443.756 177.275 444.205 176.793C444.661 176.305 444.889 175.693 444.889 174.957V174.088ZM458.756 179H456.49V173.365C456.49 171.497 455.829 170.562 454.508 170.562C453.818 170.562 453.248 170.823 452.799 171.344C452.35 171.858 452.125 172.509 452.125 173.297V179H449.85V169H452.125V170.66H452.164C452.913 169.397 453.993 168.766 455.406 168.766C456.493 168.766 457.324 169.12 457.896 169.83C458.469 170.533 458.756 171.552 458.756 172.887V179ZM470.25 179H467.984V177.418H467.945C467.288 178.629 466.266 179.234 464.879 179.234C462.516 179.234 461.334 177.815 461.334 174.977V169H463.6V174.742C463.6 176.539 464.293 177.438 465.68 177.438C466.35 177.438 466.9 177.19 467.33 176.695C467.766 176.201 467.984 175.553 467.984 174.752V169H470.25V179ZM480.885 179H478.688V177.438H478.648C477.958 178.635 476.946 179.234 475.611 179.234C474.628 179.234 473.857 178.967 473.297 178.434C472.743 177.9 472.467 177.193 472.467 176.314C472.467 174.426 473.554 173.326 475.729 173.014L478.697 172.594C478.697 171.168 478.02 170.455 476.666 170.455C475.475 170.455 474.4 170.865 473.443 171.686V169.703C474.498 169.078 475.715 168.766 477.096 168.766C479.622 168.766 480.885 170.009 480.885 172.496V179ZM478.697 174.088L476.598 174.381C475.947 174.465 475.455 174.625 475.123 174.859C474.798 175.087 474.635 175.491 474.635 176.07C474.635 176.493 474.785 176.842 475.084 177.115C475.39 177.382 475.797 177.516 476.305 177.516C476.995 177.516 477.564 177.275 478.014 176.793C478.469 176.305 478.697 175.693 478.697 174.957V174.088ZM485.934 179H483.658V164.195H485.934V179ZM502.076 179H499.879V177.438H499.84C499.15 178.635 498.137 179.234 496.803 179.234C495.82 179.234 495.048 178.967 494.488 178.434C493.935 177.9 493.658 177.193 493.658 176.314C493.658 174.426 494.745 173.326 496.92 173.014L499.889 172.594C499.889 171.168 499.212 170.455 497.857 170.455C496.666 170.455 495.592 170.865 494.635 171.686V169.703C495.689 169.078 496.907 168.766 498.287 168.766C500.813 168.766 502.076 170.009 502.076 172.496V179ZM499.889 174.088L497.789 174.381C497.138 174.465 496.646 174.625 496.314 174.859C495.989 175.087 495.826 175.491 495.826 176.07C495.826 176.493 495.976 176.842 496.275 177.115C496.581 177.382 496.988 177.516 497.496 177.516C498.186 177.516 498.756 177.275 499.205 176.793C499.661 176.305 499.889 175.693 499.889 174.957V174.088ZM513.756 179H511.49V173.365C511.49 171.497 510.829 170.562 509.508 170.562C508.818 170.562 508.248 170.823 507.799 171.344C507.35 171.858 507.125 172.509 507.125 173.297V179H504.85V169H507.125V170.66H507.164C507.913 169.397 508.993 168.766 510.406 168.766C511.493 168.766 512.324 169.12 512.896 169.83C513.469 170.533 513.756 171.552 513.756 172.887V179ZM525.621 179H523.355V177.301H523.316C522.587 178.59 521.464 179.234 519.947 179.234C518.717 179.234 517.73 178.788 516.988 177.896C516.253 176.998 515.885 175.777 515.885 174.234C515.885 172.581 516.292 171.256 517.105 170.26C517.926 169.264 519.016 168.766 520.377 168.766C521.725 168.766 522.704 169.306 523.316 170.387H523.355V164.195H525.621V179ZM523.385 174.43V173.121C523.385 172.411 523.154 171.809 522.691 171.314C522.229 170.82 521.64 170.572 520.924 170.572C520.077 170.572 519.41 170.888 518.922 171.52C518.44 172.151 518.199 173.027 518.199 174.146C518.199 175.162 518.43 175.966 518.893 176.559C519.361 177.145 519.99 177.438 520.777 177.438C521.552 177.438 522.18 177.154 522.662 176.588C523.144 176.015 523.385 175.296 523.385 174.43ZM358.15 203H355.953V201.438H355.914C355.224 202.635 354.212 203.234 352.877 203.234C351.894 203.234 351.122 202.967 350.562 202.434C350.009 201.9 349.732 201.193 349.732 200.314C349.732 198.426 350.82 197.326 352.994 197.014L355.963 196.594C355.963 195.168 355.286 194.455 353.932 194.455C352.74 194.455 351.666 194.865 350.709 195.686V193.703C351.764 193.078 352.981 192.766 354.361 192.766C356.887 192.766 358.15 194.009 358.15 196.496V203ZM355.963 198.088L353.863 198.381C353.212 198.465 352.721 198.625 352.389 198.859C352.063 199.087 351.9 199.491 351.9 200.07C351.9 200.493 352.05 200.842 352.35 201.115C352.656 201.382 353.062 201.516 353.57 201.516C354.26 201.516 354.83 201.275 355.279 200.793C355.735 200.305 355.963 199.693 355.963 198.957V198.088ZM369.645 203H367.379V201.418H367.34C366.682 202.629 365.66 203.234 364.273 203.234C361.91 203.234 360.729 201.815 360.729 198.977V193H362.994V198.742C362.994 200.539 363.688 201.438 365.074 201.438C365.745 201.438 366.295 201.19 366.725 200.695C367.161 200.201 367.379 199.553 367.379 198.752V193H369.645V203ZM377.877 202.893C377.434 203.114 376.852 203.225 376.129 203.225C374.189 203.225 373.219 202.294 373.219 200.432V194.777H371.549V193H373.219V190.686L375.484 190.041V193H377.877V194.777H375.484V199.777C375.484 200.37 375.592 200.793 375.807 201.047C376.021 201.301 376.38 201.428 376.881 201.428C377.265 201.428 377.597 201.317 377.877 201.096V202.893ZM384.146 203.234C382.604 203.234 381.37 202.769 380.445 201.838C379.527 200.9 379.068 199.66 379.068 198.117C379.068 196.438 379.547 195.126 380.504 194.182C381.467 193.238 382.763 192.766 384.391 192.766C385.953 192.766 387.171 193.225 388.043 194.143C388.915 195.061 389.352 196.333 389.352 197.961C389.352 199.556 388.88 200.835 387.936 201.799C386.998 202.756 385.735 203.234 384.146 203.234ZM384.254 194.572C383.368 194.572 382.669 194.882 382.154 195.5C381.64 196.118 381.383 196.971 381.383 198.059C381.383 199.107 381.643 199.934 382.164 200.539C382.685 201.138 383.382 201.438 384.254 201.438C385.146 201.438 385.829 201.141 386.305 200.549C386.786 199.956 387.027 199.113 387.027 198.02C387.027 196.919 386.786 196.07 386.305 195.471C385.829 194.872 385.146 194.572 384.254 194.572ZM406.617 203H404.352V197.551C404.352 196.503 404.202 195.744 403.902 195.275C403.609 194.807 403.111 194.572 402.408 194.572C401.816 194.572 401.311 194.868 400.895 195.461C400.484 196.053 400.279 196.763 400.279 197.59V203H398.004V197.365C398.004 195.503 397.346 194.572 396.031 194.572C395.419 194.572 394.915 194.852 394.518 195.412C394.127 195.972 393.932 196.698 393.932 197.59V203H391.666V193H393.932V194.582H393.971C394.693 193.371 395.745 192.766 397.125 192.766C397.815 192.766 398.417 192.958 398.932 193.342C399.452 193.719 399.807 194.217 399.996 194.836C400.738 193.456 401.845 192.766 403.316 192.766C405.517 192.766 406.617 194.123 406.617 196.838V203ZM417.057 203H414.859V201.438H414.82C414.13 202.635 413.118 203.234 411.783 203.234C410.8 203.234 410.029 202.967 409.469 202.434C408.915 201.9 408.639 201.193 408.639 200.314C408.639 198.426 409.726 197.326 411.9 197.014L414.869 196.594C414.869 195.168 414.192 194.455 412.838 194.455C411.646 194.455 410.572 194.865 409.615 195.686V193.703C410.67 193.078 411.887 192.766 413.268 192.766C415.794 192.766 417.057 194.009 417.057 196.496V203ZM414.869 198.088L412.77 198.381C412.118 198.465 411.627 198.625 411.295 198.859C410.969 199.087 410.807 199.491 410.807 200.07C410.807 200.493 410.956 200.842 411.256 201.115C411.562 201.382 411.969 201.516 412.477 201.516C413.167 201.516 413.736 201.275 414.186 200.793C414.641 200.305 414.869 199.693 414.869 198.957V198.088ZM425.104 202.893C424.661 203.114 424.078 203.225 423.355 203.225C421.415 203.225 420.445 202.294 420.445 200.432V194.777H418.775V193H420.445V190.686L422.711 190.041V193H425.104V194.777H422.711V199.777C422.711 200.37 422.818 200.793 423.033 201.047C423.248 201.301 423.606 201.428 424.107 201.428C424.492 201.428 424.824 201.317 425.104 201.096V202.893ZM435.406 198.615H428.59C428.616 199.54 428.899 200.253 429.439 200.754C429.986 201.255 430.735 201.506 431.686 201.506C432.753 201.506 433.733 201.187 434.625 200.549V202.375C433.714 202.948 432.509 203.234 431.012 203.234C429.54 203.234 428.385 202.782 427.545 201.877C426.712 200.965 426.295 199.686 426.295 198.039C426.295 196.483 426.754 195.217 427.672 194.24C428.596 193.257 429.742 192.766 431.109 192.766C432.477 192.766 433.535 193.205 434.283 194.084C435.032 194.963 435.406 196.184 435.406 197.746V198.615ZM433.219 197.014C433.212 196.2 433.02 195.568 432.643 195.119C432.265 194.663 431.744 194.436 431.08 194.436C430.429 194.436 429.876 194.673 429.42 195.148C428.971 195.624 428.694 196.245 428.59 197.014H433.219ZM446.656 203H444.391V201.301H444.352C443.622 202.59 442.499 203.234 440.982 203.234C439.752 203.234 438.766 202.788 438.023 201.896C437.288 200.998 436.92 199.777 436.92 198.234C436.92 196.581 437.327 195.256 438.141 194.26C438.961 193.264 440.051 192.766 441.412 192.766C442.76 192.766 443.74 193.306 444.352 194.387H444.391V188.195H446.656V203ZM444.42 198.43V197.121C444.42 196.411 444.189 195.809 443.727 195.314C443.264 194.82 442.675 194.572 441.959 194.572C441.113 194.572 440.445 194.888 439.957 195.52C439.475 196.151 439.234 197.027 439.234 198.146C439.234 199.162 439.465 199.966 439.928 200.559C440.396 201.145 441.025 201.438 441.812 201.438C442.587 201.438 443.215 201.154 443.697 200.588C444.179 200.015 444.42 199.296 444.42 198.43ZM454.498 202.688V200.588C455.344 201.232 456.279 201.555 457.301 201.555C458.668 201.555 459.352 201.151 459.352 200.344C459.352 200.116 459.293 199.924 459.176 199.768C459.059 199.605 458.899 199.462 458.697 199.338C458.502 199.214 458.268 199.104 457.994 199.006C457.727 198.908 457.428 198.798 457.096 198.674C456.686 198.511 456.314 198.339 455.982 198.156C455.657 197.974 455.383 197.769 455.162 197.541C454.947 197.307 454.785 197.043 454.674 196.75C454.563 196.457 454.508 196.115 454.508 195.725C454.508 195.243 454.622 194.82 454.85 194.455C455.077 194.084 455.383 193.775 455.768 193.527C456.152 193.273 456.588 193.085 457.076 192.961C457.564 192.831 458.069 192.766 458.59 192.766C459.514 192.766 460.341 192.906 461.07 193.186V195.168C460.367 194.686 459.56 194.445 458.648 194.445C458.362 194.445 458.102 194.475 457.867 194.533C457.639 194.592 457.444 194.673 457.281 194.777C457.118 194.882 456.992 195.008 456.9 195.158C456.809 195.301 456.764 195.461 456.764 195.637C456.764 195.852 456.809 196.034 456.9 196.184C456.992 196.333 457.125 196.467 457.301 196.584C457.483 196.695 457.698 196.799 457.945 196.896C458.199 196.988 458.489 197.089 458.814 197.199C459.244 197.375 459.628 197.554 459.967 197.736C460.312 197.919 460.605 198.127 460.846 198.361C461.087 198.589 461.272 198.856 461.402 199.162C461.533 199.462 461.598 199.82 461.598 200.236C461.598 200.744 461.48 201.187 461.246 201.564C461.012 201.942 460.699 202.255 460.309 202.502C459.918 202.749 459.465 202.932 458.951 203.049C458.443 203.173 457.906 203.234 457.34 203.234C456.246 203.234 455.299 203.052 454.498 202.688ZM470.914 202.541C470.113 203.003 469.166 203.234 468.072 203.234C466.588 203.234 465.39 202.772 464.479 201.848C463.567 200.917 463.111 199.712 463.111 198.234C463.111 196.587 463.6 195.266 464.576 194.27C465.559 193.267 466.871 192.766 468.512 192.766C469.423 192.766 470.227 192.925 470.924 193.244V195.354C470.227 194.833 469.485 194.572 468.697 194.572C467.74 194.572 466.956 194.898 466.344 195.549C465.732 196.193 465.426 197.04 465.426 198.088C465.426 199.123 465.712 199.94 466.285 200.539C466.865 201.138 467.639 201.438 468.609 201.438C469.423 201.438 470.191 201.148 470.914 200.568V202.541ZM480.846 203H478.648V201.438H478.609C477.919 202.635 476.907 203.234 475.572 203.234C474.589 203.234 473.818 202.967 473.258 202.434C472.704 201.9 472.428 201.193 472.428 200.314C472.428 198.426 473.515 197.326 475.689 197.014L478.658 196.594C478.658 195.168 477.981 194.455 476.627 194.455C475.436 194.455 474.361 194.865 473.404 195.686V193.703C474.459 193.078 475.676 192.766 477.057 192.766C479.583 192.766 480.846 194.009 480.846 196.496V203ZM478.658 198.088L476.559 198.381C475.908 198.465 475.416 198.625 475.084 198.859C474.758 199.087 474.596 199.491 474.596 200.07C474.596 200.493 474.745 200.842 475.045 201.115C475.351 201.382 475.758 201.516 476.266 201.516C476.956 201.516 477.525 201.275 477.975 200.793C478.43 200.305 478.658 199.693 478.658 198.957V198.088ZM492.525 203H490.26V197.365C490.26 195.497 489.599 194.562 488.277 194.562C487.587 194.562 487.018 194.823 486.568 195.344C486.119 195.858 485.895 196.509 485.895 197.297V203H483.619V193H485.895V194.66H485.934C486.682 193.397 487.763 192.766 489.176 192.766C490.263 192.766 491.093 193.12 491.666 193.83C492.239 194.533 492.525 195.552 492.525 196.887V203ZM494.674 202.688V200.588C495.52 201.232 496.454 201.555 497.477 201.555C498.844 201.555 499.527 201.151 499.527 200.344C499.527 200.116 499.469 199.924 499.352 199.768C499.234 199.605 499.075 199.462 498.873 199.338C498.678 199.214 498.443 199.104 498.17 199.006C497.903 198.908 497.604 198.798 497.271 198.674C496.861 198.511 496.49 198.339 496.158 198.156C495.833 197.974 495.559 197.769 495.338 197.541C495.123 197.307 494.96 197.043 494.85 196.75C494.739 196.457 494.684 196.115 494.684 195.725C494.684 195.243 494.798 194.82 495.025 194.455C495.253 194.084 495.559 193.775 495.943 193.527C496.327 193.273 496.764 193.085 497.252 192.961C497.74 192.831 498.245 192.766 498.766 192.766C499.69 192.766 500.517 192.906 501.246 193.186V195.168C500.543 194.686 499.736 194.445 498.824 194.445C498.538 194.445 498.277 194.475 498.043 194.533C497.815 194.592 497.62 194.673 497.457 194.777C497.294 194.882 497.167 195.008 497.076 195.158C496.985 195.301 496.939 195.461 496.939 195.637C496.939 195.852 496.985 196.034 497.076 196.184C497.167 196.333 497.301 196.467 497.477 196.584C497.659 196.695 497.874 196.799 498.121 196.896C498.375 196.988 498.665 197.089 498.99 197.199C499.42 197.375 499.804 197.554 500.143 197.736C500.488 197.919 500.781 198.127 501.021 198.361C501.262 198.589 501.448 198.856 501.578 199.162C501.708 199.462 501.773 199.82 501.773 200.236C501.773 200.744 501.656 201.187 501.422 201.564C501.188 201.942 500.875 202.255 500.484 202.502C500.094 202.749 499.641 202.932 499.127 203.049C498.619 203.173 498.082 203.234 497.516 203.234C496.422 203.234 495.475 203.052 494.674 202.688ZM504.869 203.215C504.479 203.215 504.146 203.088 503.873 202.834C503.6 202.574 503.463 202.264 503.463 201.906C503.463 201.542 503.6 201.229 503.873 200.969C504.146 200.708 504.479 200.578 504.869 200.578C505.266 200.578 505.602 200.708 505.875 200.969C506.155 201.229 506.295 201.542 506.295 201.906C506.295 202.264 506.155 202.574 505.875 202.834C505.602 203.088 505.266 203.215 504.869 203.215Z" fill="#525252"/>
<path d="M349.969 51.2612L342.749 25.0322L347.85 25.0651L352.443 44.3353L352.686 44.3369L357.847 25.1298L362.488 25.1598L367.413 44.4449L367.643 44.4464L372.485 25.2244L377.585 25.2574L370.027 51.3909L365.348 51.3606L360.225 32.9564L360.021 32.9551L354.648 51.2915L349.969 51.2612ZM387.187 51.8854C385.218 51.8726 383.52 51.4526 382.094 50.6251C380.676 49.7893 379.588 48.6146 378.831 47.1011C378.074 45.5792 377.702 43.7912 377.715 41.7373C377.728 39.7174 378.123 37.9472 378.9 36.4266C379.686 34.8976 380.776 33.7114 382.17 32.8682C383.565 32.0164 385.2 31.5965 387.075 31.6087C388.285 31.6165 389.426 31.8199 390.497 32.2189C391.577 32.6094 392.528 33.2121 393.349 34.0271C394.179 34.8422 394.829 35.8776 395.298 37.1335C395.767 38.3809 395.996 39.8654 395.985 41.5869L395.976 43.0059L379.881 42.9019L379.901 39.7826L391.56 39.858C391.557 38.9716 391.371 38.182 391 37.4893C390.63 36.788 390.109 36.2349 389.438 35.83C388.776 35.4251 388.002 35.2198 387.116 35.2141C386.17 35.208 385.337 35.4327 384.618 35.8883C383.899 36.3354 383.337 36.9284 382.932 37.6672C382.535 38.3976 382.33 39.2017 382.316 40.0795L382.298 42.8024C382.291 43.9445 382.493 44.9259 382.905 45.7468C383.318 46.5591 383.897 47.185 384.645 47.6245C385.392 48.0555 386.268 48.2742 387.274 48.2807C387.947 48.2851 388.557 48.1953 389.104 48.0113C389.651 47.8188 390.125 47.5364 390.528 47.164C390.931 46.7916 391.237 46.3291 391.445 45.7764L395.763 46.2901C395.483 47.4304 394.956 48.4242 394.184 49.2715C393.42 50.1103 392.444 50.7602 391.256 51.2213C390.069 51.6739 388.712 51.8952 387.187 51.8854ZM400.04 51.5849L400.209 25.4037L404.837 25.4336L404.774 35.226L404.966 35.2272C405.207 34.7515 405.547 34.2466 405.985 33.7125C406.424 33.1699 407.015 32.7092 407.759 32.3305C408.503 31.9432 409.45 31.7533 410.6 31.7608C412.117 31.7706 413.483 32.1672 414.696 32.9506C415.919 33.7256 416.883 34.8696 417.589 36.3827C418.304 37.8874 418.654 39.7306 418.64 41.9124C418.626 44.0686 418.261 45.8986 417.543 47.4026C416.826 48.9065 415.856 50.0508 414.632 50.8355C413.408 51.6202 412.025 52.0076 410.482 51.9976C409.357 51.9904 408.425 51.7968 407.686 51.417C406.947 51.0373 406.354 50.5817 405.905 50.0504C405.466 49.5106 405.124 49.0013 404.88 48.5224L404.611 48.5207L404.591 51.6144L400.04 51.5849ZM404.642 41.7963C404.634 43.0662 404.805 44.1795 405.157 45.1364C405.518 46.0933 406.037 46.8424 406.715 47.3837C407.402 47.9166 408.236 48.1862 409.216 48.1925C410.238 48.1991 411.097 47.9319 411.791 47.3909C412.484 46.8414 413.009 46.0906 413.365 45.1383C413.729 44.1776 413.915 43.0836 413.923 41.8563C413.931 40.6376 413.763 39.5541 413.42 38.6058C413.077 37.6576 412.561 36.9128 411.875 36.3714C411.188 35.83 410.329 35.556 409.297 35.5493C408.309 35.5429 407.468 35.7974 406.774 36.3128C406.08 36.8282 405.551 37.5535 405.187 38.4887C404.832 39.4239 404.65 40.5264 404.642 41.7963ZM445.996 32.8973C445.884 31.7801 445.387 30.9075 444.504 30.2796C443.631 29.6518 442.491 29.3334 441.084 29.3243C440.096 29.3179 439.247 29.4615 438.538 29.7553C437.828 30.049 437.284 30.4503 436.906 30.9592C436.528 31.4682 436.332 32.0507 436.32 32.7069C436.316 33.2523 436.437 33.7261 436.681 34.1283C436.934 34.5305 437.277 34.8736 437.71 35.1577C438.143 35.4332 438.623 35.6664 439.15 35.8574C439.677 36.0483 440.209 36.2094 440.745 36.3407L443.196 36.9702C444.183 37.2067 445.131 37.5239 446.04 37.9218C446.958 38.3198 447.777 38.8194 448.498 39.4207C449.227 40.022 449.802 40.7459 450.223 41.5924C450.643 42.4389 450.85 43.4289 450.843 44.5624C450.833 46.0965 450.432 47.4447 449.64 48.6073C448.849 49.7613 447.709 50.6616 446.222 51.3082C444.744 51.9464 442.956 52.2587 440.86 52.2452C438.823 52.232 437.056 51.9052 435.56 51.2649C434.073 50.6246 432.911 49.6966 432.075 48.4809C431.248 47.2653 430.806 45.788 430.749 44.049L435.415 44.0791C435.477 44.9915 435.754 45.7518 436.244 46.3601C436.734 46.9684 437.375 47.4242 438.166 47.7277C438.965 48.0311 439.859 48.1861 440.847 48.1925C441.879 48.1991 442.783 48.0516 443.561 47.7498C444.347 47.4395 444.963 47.0088 445.41 46.4577C445.857 45.8981 446.087 45.2433 446.1 44.4934C446.096 43.8115 445.899 43.2477 445.51 42.802C445.121 42.3478 444.574 41.9693 443.868 41.6664C443.171 41.3551 442.355 41.0771 441.419 40.8324L438.445 40.0461C436.293 39.4782 434.594 38.6277 433.348 37.4946C432.111 36.3531 431.499 34.8448 431.511 32.9698C431.521 31.4273 431.947 30.0791 432.79 28.9255C433.641 27.7719 434.793 26.8801 436.246 26.2503C437.699 25.612 439.342 25.2987 441.174 25.3106C443.032 25.3226 444.658 25.657 446.051 26.3137C447.454 26.962 448.551 27.8597 449.345 29.0069C450.139 30.1456 450.544 31.4522 450.56 32.9268L445.996 32.8973ZM463.382 52.378C461.421 52.3653 459.741 51.9241 458.34 51.0542C456.948 50.1844 455.878 48.9885 455.129 47.4666C454.389 45.9362 454.025 44.1781 454.038 42.1924C454.051 40.1981 454.446 38.4407 455.223 36.9201C456 35.391 457.09 34.2048 458.493 33.3616C459.905 32.5099 461.569 32.0903 463.487 32.1027C465.081 32.113 466.489 32.4161 467.713 33.0121C468.945 33.5997 469.924 34.4284 470.65 35.4985C471.376 36.56 471.786 37.7985 471.879 39.2139L467.456 39.1853C467.283 38.2382 466.862 37.4471 466.192 36.812C465.532 36.1686 464.643 35.8432 463.527 35.836C462.581 35.8299 461.748 36.0802 461.029 36.5869C460.31 37.0851 459.747 37.8059 459.34 38.7493C458.942 39.6928 458.739 40.825 458.73 42.146C458.722 43.4841 458.91 44.6359 459.296 45.6014C459.682 46.5585 460.227 47.2993 460.931 47.8237C461.643 48.3397 462.481 48.6008 463.444 48.607C464.126 48.6114 464.736 48.4875 465.275 48.2353C465.822 47.9747 466.28 47.5984 466.65 47.1064C467.02 46.6145 467.275 46.0153 467.416 45.3088L471.839 45.3374C471.719 46.7258 471.302 47.9547 470.588 49.024C469.874 50.0847 468.905 50.9137 467.683 51.5109C466.46 52.0996 465.026 52.3886 463.382 52.378ZM481.244 52.5063C479.999 52.4982 478.88 52.2694 477.886 51.8198C476.9 51.3617 476.12 50.6919 475.546 49.8103C474.981 48.9288 474.703 47.8446 474.711 46.5577C474.718 45.4497 474.929 44.5349 475.342 43.8131C475.756 43.0913 476.318 42.5154 477.028 42.0853C477.738 41.6553 478.537 41.3323 479.425 41.1164C480.322 40.8921 481.247 40.7319 482.203 40.6358C483.354 40.5239 484.288 40.4234 485.004 40.3343C485.721 40.2367 486.242 40.0866 486.567 39.8842C486.901 39.6733 487.069 39.3462 487.072 38.903L487.072 38.8263C487.079 37.8633 486.798 37.1157 486.23 36.5836C485.663 36.0515 484.842 35.782 483.768 35.7751C482.635 35.7678 481.734 36.0091 481.066 36.4991C480.406 36.9892 479.96 37.5701 479.725 38.2419L475.408 37.6003C475.757 36.4094 476.326 35.4159 477.115 34.6198C477.904 33.8153 478.867 33.2164 480.003 32.8231C481.139 32.4214 482.393 32.2249 483.765 32.2338C484.711 32.2399 485.652 32.3568 486.588 32.5844C487.525 32.8121 488.379 33.1841 489.151 33.7005C489.923 34.2083 490.541 34.8984 491.004 35.7707C491.476 36.6431 491.707 37.7313 491.699 39.0352L491.614 52.177L487.165 52.1482L487.183 49.4509L487.029 49.4499C486.744 49.9935 486.345 50.5023 485.83 50.9762C485.324 51.4417 484.687 51.8169 483.918 52.1017C483.158 52.378 482.266 52.5129 481.244 52.5063ZM482.467 49.1135C483.396 49.1196 484.203 48.9415 484.887 48.5795C485.571 48.2089 486.099 47.718 486.469 47.1067C486.848 46.4955 487.04 45.8277 487.044 45.1033L487.059 42.7894C486.914 42.9078 486.666 43.017 486.316 43.117C485.974 43.2171 485.59 43.3041 485.164 43.378C484.737 43.452 484.315 43.5174 483.897 43.5744C483.479 43.6313 483.116 43.6801 482.809 43.7208C482.118 43.81 481.499 43.9595 480.952 44.169C480.406 44.3785 479.973 44.674 479.655 45.0555C479.338 45.4285 479.177 45.9132 479.173 46.5098C479.167 47.3621 479.474 48.0075 480.094 48.4462C480.713 48.8849 481.504 49.1073 482.467 49.1135ZM500.969 40.7316L500.895 52.237L496.267 52.2071L496.394 32.5711L500.817 32.5997L500.796 35.9363L501.026 35.9378C501.485 34.8413 502.211 33.9724 503.203 33.3311C504.205 32.6898 505.438 32.3739 506.904 32.3834C508.259 32.3922 509.438 32.6896 510.44 33.2756C511.45 33.8617 512.229 34.7062 512.776 35.8092C513.331 36.9123 513.599 38.2478 513.581 39.8159L513.5 52.3185L508.872 52.2886L508.948 40.5019C508.957 39.1894 508.622 38.1603 507.945 37.4144C507.277 36.6686 506.346 36.2918 505.153 36.2841C504.343 36.2789 503.622 36.4532 502.989 36.807C502.365 37.1524 501.871 37.6564 501.509 38.3188C501.155 38.9813 500.975 39.7856 500.969 40.7316ZM527.083 52.4063L527.105 48.9803L536.252 40.1287C537.127 39.2565 537.856 38.4814 538.44 37.8033C539.024 37.1253 539.463 36.4676 539.757 35.8303C540.051 35.1929 540.2 34.5121 540.205 33.7877C540.21 32.961 540.027 32.2524 539.656 31.6619C539.285 31.0629 538.772 30.5993 538.118 30.2712C537.464 29.9431 536.719 29.7764 535.884 29.771C535.023 29.7654 534.268 29.9395 533.618 30.2933C532.968 30.6385 532.462 31.1338 532.1 31.7792C531.746 32.4247 531.566 33.1949 531.561 34.0897L527.048 34.0605C527.059 32.3987 527.447 30.9565 528.214 29.7342C528.98 28.5118 530.03 27.5683 531.364 26.9036C532.706 26.239 534.243 25.9123 535.973 25.9235C537.728 25.9348 539.269 26.2729 540.594 26.9378C541.919 27.6026 542.945 28.5084 543.67 29.6551C544.404 30.802 544.767 32.1083 544.757 33.5742C544.751 34.5543 544.557 35.5161 544.176 36.4597C543.795 37.4033 543.128 38.4473 542.174 39.5917C541.229 40.7362 539.904 42.1211 538.197 43.7465L533.655 48.3067L533.654 48.4857L545.057 48.5594L545.031 52.5224L527.083 52.4063ZM548.437 47.6863L548.462 43.9151L559.684 26.4347L562.829 26.4551L562.795 31.8243L560.877 31.8119L553.322 43.6141L553.321 43.8187L568.827 43.9189L568.802 47.818L548.437 47.6863ZM560.896 52.6249L560.935 46.6165L560.997 44.9294L561.116 26.444L565.591 26.4729L565.421 52.6542L560.896 52.6249ZM583.771 25.3632L575.131 56.6546L571.078 56.6284L579.718 25.337L583.771 25.3632ZM587.454 52.7967L598.731 30.8293L598.733 30.6504L585.808 30.5668L585.834 26.6038L603.667 26.7191L603.641 30.7716L592.376 52.8285L587.454 52.7967Z" fill="url(#paint0_linear_5980_13697)"/>
<g filter="url(#filter0_d_5980_13697)">
<circle cx="528.5" cy="287.5" r="2.5" fill="#1FA8CA" fill-opacity="0.68" shape-rendering="crispEdges"/>
</g>
<g filter="url(#filter1_d_5980_13697)">
<circle cx="445.5" cy="330.5" r="2.5" fill="#1FA8CA" fill-opacity="0.68" shape-rendering="crispEdges"/>
</g>
<g filter="url(#filter2_d_5980_13697)">
<circle cx="407.5" cy="292.5" r="2.5" fill="#1FA8CA" fill-opacity="0.68" shape-rendering="crispEdges"/>
</g>
<g filter="url(#filter3_dd_5980_13697)">
<path d="M339.5 395C372.399 236.317 569.794 232.5 610.5 395M372.399 394.999C402.5 303 543.029 305.147 569.794 394.999" stroke="#090909" stroke-opacity="0.1" shape-rendering="crispEdges"/>
</g>
<mask id="path-7-inside-1_5980_13697" fill="white">
<path d="M330 20C330 8.95432 338.954 0 350 0H597C608.046 0 617 8.95431 617 20V408.584C617 419.63 608.046 428.584 597 428.584H350C338.954 428.584 330 419.63 330 408.584V20Z"/>
</mask>
<path d="M350 0V1H597V0V-1H350V0ZM617 20H616V408.584H617H618V20H617ZM597 428.584V427.584H350V428.584V429.584H597V428.584ZM330 408.584H331V20H330H329V408.584H330ZM350 428.584V427.584C339.507 427.584 331 419.078 331 408.584H330H329C329 420.182 338.402 429.584 350 429.584V428.584ZM617 408.584H616C616 419.078 607.493 427.584 597 427.584V428.584V429.584C608.598 429.584 618 420.182 618 408.584H617ZM597 0V1C607.493 1 616 9.50659 616 20H617H618C618 8.40202 608.598 -1 597 -1V0ZM350 0V-1C338.402 -1 329 8.40203 329 20H330H331C331 9.5066 339.507 1 350 1V0Z" fill="#E5E5E5" fill-opacity="0.9" mask="url(#path-7-inside-1_5980_13697)"/>
<defs>
<filter id="filter0_d_5980_13697" x="521.8" y="280.8" width="13.4" height="13.4" filterUnits="userSpaceOnUse" color-interpolation-filters="sRGB">
<feFlood flood-opacity="0" result="BackgroundImageFix"/>
<feColorMatrix in="SourceAlpha" type="matrix" values="0 0 0 0 0 0 0 0 0 0 0 0 0 0 0 0 0 0 127 0" result="hardAlpha"/>
<feOffset/>
<feGaussianBlur stdDeviation="2.1"/>
<feComposite in2="hardAlpha" operator="out"/>
<feColorMatrix type="matrix" values="0 0 0 0 0 0 0 0 0 0 0 0 0 0 0 0 0 0 0.25 0"/>
<feBlend mode="normal" in2="BackgroundImageFix" result="effect1_dropShadow_5980_13697"/>
<feBlend mode="normal" in="SourceGraphic" in2="effect1_dropShadow_5980_13697" result="shape"/>
</filter>
<filter id="filter1_d_5980_13697" x="438.8" y="323.8" width="13.4" height="13.4" filterUnits="userSpaceOnUse" color-interpolation-filters="sRGB">
<feFlood flood-opacity="0" result="BackgroundImageFix"/>
<feColorMatrix in="SourceAlpha" type="matrix" values="0 0 0 0 0 0 0 0 0 0 0 0 0 0 0 0 0 0 127 0" result="hardAlpha"/>
<feOffset/>
<feGaussianBlur stdDeviation="2.1"/>
<feComposite in2="hardAlpha" operator="out"/>
<feColorMatrix type="matrix" values="0 0 0 0 0 0 0 0 0 0 0 0 0 0 0 0 0 0 0.25 0"/>
<feBlend mode="normal" in2="BackgroundImageFix" result="effect1_dropShadow_5980_13697"/>
<feBlend mode="normal" in="SourceGraphic" in2="effect1_dropShadow_5980_13697" result="shape"/>
</filter>
<filter id="filter2_d_5980_13697" x="400.8" y="285.8" width="13.4" height="13.4" filterUnits="userSpaceOnUse" color-interpolation-filters="sRGB">
<feFlood flood-opacity="0" result="BackgroundImageFix"/>
<feColorMatrix in="SourceAlpha" type="matrix" values="0 0 0 0 0 0 0 0 0 0 0 0 0 0 0 0 0 0 127 0" result="hardAlpha"/>
<feOffset/>
<feGaussianBlur stdDeviation="2.1"/>
<feComposite in2="hardAlpha" operator="out"/>
<feColorMatrix type="matrix" values="0 0 0 0 0 0 0 0 0 0 0 0 0 0 0 0 0 0 0.25 0"/>
<feBlend mode="normal" in2="BackgroundImageFix" result="effect1_dropShadow_5980_13697"/>
<feBlend mode="normal" in="SourceGraphic" in2="effect1_dropShadow_5980_13697" result="shape"/>
</filter>
<filter id="filter3_dd_5980_13697" x="328.51" y="260.552" width="292.975" height="147.002" filterUnits="userSpaceOnUse" color-interpolation-filters="sRGB">
<feFlood flood-opacity="0" result="BackgroundImageFix"/>
<feColorMatrix in="SourceAlpha" type="matrix" values="0 0 0 0 0 0 0 0 0 0 0 0 0 0 0 0 0 0 127 0" result="hardAlpha"/>
<feOffset dy="-3"/>
<feGaussianBlur stdDeviation="5.25"/>
<feComposite in2="hardAlpha" operator="out"/>
<feColorMatrix type="matrix" values="0 0 0 0 0.121569 0 0 0 0 0.658824 0 0 0 0 0.792157 0 0 0 1 0"/>
<feBlend mode="normal" in2="BackgroundImageFix" result="effect1_dropShadow_5980_13697"/>
<feColorMatrix in="SourceAlpha" type="matrix" values="0 0 0 0 0 0 0 0 0 0 0 0 0 0 0 0 0 0 127 0" result="hardAlpha"/>
<feOffset dy="3"/>
<feGaussianBlur stdDeviation="4.7"/>
<feComposite in2="hardAlpha" operator="out"/>
<feColorMatrix type="matrix" values="0 0 0 0 0.121569 0 0 0 0 0.658824 0 0 0 0 0.792157 0 0 0 1 0"/>
<feBlend mode="normal" in2="effect1_dropShadow_5980_13697" result="effect2_dropShadow_5980_13697"/>
<feBlend mode="normal" in="SourceGraphic" in2="effect2_dropShadow_5980_13697" result="shape"/>
</filter>
<linearGradient id="paint0_linear_5980_13697" x1="0.181033" y1="35.9994" x2="947.161" y2="42.122" gradientUnits="userSpaceOnUse">
<stop/>
<stop offset="0.105743"/>
<stop offset="1"/>
</linearGradient>
</defs>
</svg>
