<svg width="123" height="47" viewBox="0 0 123 47" fill="none" xmlns="http://www.w3.org/2000/svg">
<g filter="url(#filter0_ddi_34_6369)">
<g clip-path="url(#clip0_34_6369)">
<rect x="3" y="1" width="117" height="40" rx="10" fill="#1FA8CA"/>
<g filter="url(#filter1_dddddddd_34_6369)">
<rect x="3" y="1" width="1" height="1" fill="white" fill-opacity="0.01" shape-rendering="crispEdges"/>
</g>
<g filter="url(#filter2_ddddddddf_34_6369)">
<rect width="1" height="1" transform="translate(3 2)" fill="white" fill-opacity="0.01"/>
</g>
</g>
</g>
<rect opacity="0.24" x="3" y="3" width="116" height="36" rx="15" fill="url(#paint0_linear_34_6369)"/>
<path d="M20.3877 17.4929C20.3347 17.0223 20.1159 16.6577 19.7314 16.3991C19.347 16.1373 18.8631 16.0064 18.2797 16.0064C17.8621 16.0064 17.5009 16.0727 17.1959 16.2053C16.891 16.3345 16.654 16.5135 16.485 16.7422C16.3193 16.9676 16.2364 17.2244 16.2364 17.5128C16.2364 17.7547 16.2928 17.9635 16.4055 18.1392C16.5215 18.3149 16.6723 18.4624 16.8579 18.5817C17.0468 18.6977 17.249 18.7955 17.4644 18.875C17.6798 18.9512 17.887 19.0142 18.0858 19.0639L19.0802 19.3224C19.405 19.402 19.7381 19.5097 20.0795 19.6456C20.4208 19.7815 20.7374 19.9605 21.029 20.1825C21.3207 20.4046 21.556 20.6797 21.735 21.0078C21.9173 21.3359 22.0084 21.7287 22.0084 22.1861C22.0084 22.7628 21.8593 23.2749 21.561 23.7223C21.266 24.1697 20.8368 24.5227 20.2733 24.7812C19.7132 25.0398 19.0354 25.169 18.24 25.169C17.4777 25.169 16.8181 25.0481 16.2613 24.8061C15.7045 24.5642 15.2686 24.2211 14.9537 23.777C14.6389 23.3295 14.4649 22.7992 14.4317 22.1861H15.9729C16.0028 22.554 16.1221 22.8606 16.3309 23.1058C16.543 23.3478 16.8131 23.5284 17.1412 23.6477C17.4727 23.7637 17.8356 23.8217 18.23 23.8217C18.6642 23.8217 19.0503 23.7538 19.3884 23.6179C19.7298 23.4787 19.9983 23.2865 20.1938 23.0412C20.3894 22.7926 20.4871 22.5026 20.4871 22.1712C20.4871 21.8696 20.401 21.6226 20.2286 21.4304C20.0596 21.2382 19.8292 21.0791 19.5376 20.9531C19.2492 20.8272 18.9227 20.7161 18.5581 20.62L17.355 20.2919C16.5397 20.0698 15.8934 19.7434 15.4161 19.3125C14.9421 18.8816 14.7052 18.3116 14.7052 17.6023C14.7052 17.0156 14.8643 16.5036 15.1824 16.0661C15.5006 15.6286 15.9315 15.2888 16.4751 15.0469C17.0186 14.8016 17.6318 14.679 18.3145 14.679C19.0039 14.679 19.6121 14.8 20.1391 15.0419C20.6694 15.2839 21.087 15.617 21.392 16.0412C21.6969 16.4621 21.856 16.946 21.8692 17.4929H20.3877ZM27.2895 17.3636V18.5568H23.1183V17.3636H27.2895ZM24.2369 15.5341H25.7235V22.7578C25.7235 23.0462 25.7665 23.2633 25.8527 23.4091C25.9389 23.5516 26.0499 23.6494 26.1858 23.7024C26.325 23.7521 26.4758 23.777 26.6382 23.777C26.7575 23.777 26.8619 23.7687 26.9514 23.7521C27.0409 23.7356 27.1105 23.7223 27.1602 23.7124L27.4287 24.9403C27.3425 24.9735 27.2199 25.0066 27.0608 25.0398C26.9017 25.0762 26.7029 25.0961 26.4642 25.0994C26.0731 25.1061 25.7085 25.0365 25.3705 24.8906C25.0324 24.7448 24.759 24.5194 24.5502 24.2145C24.3414 23.9096 24.2369 23.5268 24.2369 23.0661V15.5341ZM31.1562 25.169C30.6723 25.169 30.2348 25.0795 29.8437 24.9006C29.4526 24.7183 29.1427 24.4548 28.914 24.1101C28.6886 23.7654 28.5759 23.3428 28.5759 22.8423C28.5759 22.4115 28.6588 22.0568 28.8245 21.7784C28.9902 21.5 29.2139 21.2796 29.4956 21.1172C29.7774 20.9548 30.0922 20.8321 30.4403 20.7493C30.7883 20.6664 31.1429 20.6035 31.5042 20.5604C31.9616 20.5073 32.3328 20.4643 32.6178 20.4311C32.9028 20.3946 33.11 20.3366 33.2393 20.2571C33.3685 20.1776 33.4331 20.0483 33.4331 19.8693V19.8345C33.4331 19.4003 33.3105 19.0639 33.0653 18.8253C32.8233 18.5866 32.462 18.4673 31.9814 18.4673C31.481 18.4673 31.0866 18.5784 30.7982 18.8004C30.5132 19.0192 30.316 19.2628 30.2066 19.5312L28.8096 19.2131C28.9753 18.7491 29.2172 18.3745 29.5354 18.0895C29.8569 17.8011 30.2265 17.5923 30.6441 17.4631C31.0617 17.3305 31.5009 17.2642 31.9616 17.2642C32.2665 17.2642 32.5896 17.3007 32.931 17.3736C33.2757 17.4432 33.5972 17.5724 33.8955 17.7614C34.1971 17.9503 34.444 18.2204 34.6363 18.5717C34.8285 18.9197 34.9246 19.3722 34.9246 19.929V25H33.4729V23.956H33.4133C33.3171 24.1482 33.173 24.3371 32.9807 24.5227C32.7885 24.7083 32.5416 24.8625 32.24 24.9851C31.9384 25.1077 31.5771 25.169 31.1562 25.169ZM31.4793 23.9759C31.8903 23.9759 32.2416 23.8946 32.5333 23.7322C32.8283 23.5698 33.052 23.3577 33.2045 23.0959C33.3602 22.8307 33.4381 22.5473 33.4381 22.2457V21.2614C33.3851 21.3144 33.2823 21.3641 33.1299 21.4105C32.9807 21.4536 32.81 21.4917 32.6178 21.5249C32.4256 21.5547 32.2383 21.5829 32.056 21.6094C31.8737 21.6326 31.7213 21.6525 31.5986 21.669C31.3103 21.7055 31.0468 21.7668 30.8081 21.853C30.5728 21.9392 30.3839 22.0634 30.2414 22.2259C30.1022 22.3849 30.0326 22.5971 30.0326 22.8622C30.0326 23.2301 30.1685 23.5085 30.4403 23.6974C30.712 23.883 31.0584 23.9759 31.4793 23.9759ZM36.9046 25V17.3636H38.3414V18.5767H38.4209C38.5601 18.1657 38.8054 17.8426 39.1567 17.6072C39.5113 17.3686 39.9124 17.2493 40.3598 17.2493C40.4526 17.2493 40.562 17.2526 40.6879 17.2592C40.8172 17.2659 40.9183 17.2741 40.9912 17.2841V18.706C40.9316 18.6894 40.8255 18.6712 40.673 18.6513C40.5206 18.6281 40.3681 18.6165 40.2156 18.6165C39.8643 18.6165 39.5511 18.6911 39.276 18.8402C39.0042 18.986 38.7888 19.1899 38.6297 19.4517C38.4706 19.7102 38.3911 20.0052 38.3911 20.3366V25H36.9046ZM46.2934 17.3636V18.5568H42.1222V17.3636H46.2934ZM43.2409 15.5341H44.7274V22.7578C44.7274 23.0462 44.7704 23.2633 44.8566 23.4091C44.9428 23.5516 45.0538 23.6494 45.1897 23.7024C45.3289 23.7521 45.4797 23.777 45.6421 23.777C45.7615 23.777 45.8659 23.7687 45.9553 23.7521C46.0448 23.7356 46.1144 23.7223 46.1642 23.7124L46.4326 24.9403C46.3464 24.9735 46.2238 25.0066 46.0647 25.0398C45.9056 25.0762 45.7068 25.0961 45.4681 25.0994C45.077 25.1061 44.7124 25.0365 44.3744 24.8906C44.0363 24.7448 43.7629 24.5194 43.5541 24.2145C43.3453 23.9096 43.2409 23.5268 43.2409 23.0661V15.5341ZM51.7622 25V14.8182H58.0761V16.1406H53.2984V19.2429H57.6237V20.5604H53.2984V25H51.7622ZM59.7503 25V17.3636H61.1871V18.5767H61.2666C61.4058 18.1657 61.6511 17.8426 62.0024 17.6072C62.357 17.3686 62.7581 17.2493 63.2055 17.2493C63.2983 17.2493 63.4077 17.2526 63.5336 17.2592C63.6629 17.2659 63.764 17.2741 63.8369 17.2841V18.706C63.7773 18.6894 63.6712 18.6712 63.5187 18.6513C63.3663 18.6281 63.2138 18.6165 63.0613 18.6165C62.71 18.6165 62.3968 18.6911 62.1217 18.8402C61.8499 18.986 61.6345 19.1899 61.4754 19.4517C61.3163 19.7102 61.2368 20.0052 61.2368 20.3366V25H59.7503ZM68.1411 25.1541C67.3887 25.1541 66.7407 24.9934 66.1972 24.6719C65.6569 24.3471 65.2393 23.8913 64.9443 23.3047C64.6527 22.7147 64.5068 22.0237 64.5068 21.2315C64.5068 20.4493 64.6527 19.7599 64.9443 19.1634C65.2393 18.5668 65.6503 18.1011 66.1773 17.7663C66.7076 17.4316 67.3274 17.2642 68.0367 17.2642C68.4675 17.2642 68.8852 17.3355 69.2895 17.478C69.6939 17.6205 70.0568 17.8442 70.3783 18.1491C70.6998 18.4541 70.9533 18.8501 71.1389 19.3374C71.3245 19.8213 71.4173 20.4096 71.4173 21.1023V21.6293H65.347V20.5156H69.9607C69.9607 20.1245 69.8811 19.7782 69.722 19.4766C69.5629 19.1716 69.3392 18.9313 69.0509 18.7557C68.7658 18.58 68.4311 18.4922 68.0466 18.4922C67.629 18.4922 67.2644 18.5949 66.9529 18.8004C66.6446 19.0026 66.406 19.2678 66.2369 19.5959C66.0712 19.9207 65.9884 20.2737 65.9884 20.6548V21.5249C65.9884 22.0353 66.0779 22.4695 66.2568 22.8274C66.4391 23.1854 66.6927 23.4588 67.0175 23.6477C67.3423 23.8333 67.7218 23.9261 68.156 23.9261C68.4377 23.9261 68.6946 23.8864 68.9266 23.8068C69.1586 23.724 69.3591 23.6013 69.5281 23.4389C69.6972 23.2765 69.8264 23.076 69.9159 22.8374L71.3229 23.0909C71.2102 23.5052 71.008 23.8681 70.7164 24.1797C70.428 24.4879 70.0651 24.7282 69.6276 24.9006C69.1934 25.0696 68.6979 25.1541 68.1411 25.1541ZM76.3579 25.1541C75.6055 25.1541 74.9575 24.9934 74.414 24.6719C73.8737 24.3471 73.4561 23.8913 73.1611 23.3047C72.8695 22.7147 72.7236 22.0237 72.7236 21.2315C72.7236 20.4493 72.8695 19.7599 73.1611 19.1634C73.4561 18.5668 73.8671 18.1011 74.3941 17.7663C74.9244 17.4316 75.5442 17.2642 76.2535 17.2642C76.6843 17.2642 77.1019 17.3355 77.5063 17.478C77.9107 17.6205 78.2736 17.8442 78.5951 18.1491C78.9166 18.4541 79.1701 18.8501 79.3557 19.3374C79.5413 19.8213 79.6341 20.4096 79.6341 21.1023V21.6293H73.5638V20.5156H78.1775C78.1775 20.1245 78.0979 19.7782 77.9388 19.4766C77.7797 19.1716 77.556 18.9313 77.2677 18.7557C76.9826 18.58 76.6479 18.4922 76.2634 18.4922C75.8458 18.4922 75.4812 18.5949 75.1697 18.8004C74.8614 19.0026 74.6228 19.2678 74.4537 19.5959C74.288 19.9207 74.2052 20.2737 74.2052 20.6548V21.5249C74.2052 22.0353 74.2947 22.4695 74.4736 22.8274C74.6559 23.1854 74.9095 23.4588 75.2343 23.6477C75.5591 23.8333 75.9386 23.9261 76.3728 23.9261C76.6545 23.9261 76.9114 23.8864 77.1434 23.8068C77.3754 23.724 77.5759 23.6013 77.7449 23.4389C77.914 23.2765 78.0432 23.076 78.1327 22.8374L79.5397 23.0909C79.427 23.5052 79.2248 23.8681 78.9331 24.1797C78.6448 24.4879 78.2819 24.7282 77.8444 24.9006C77.4102 25.0696 76.9147 25.1541 76.3579 25.1541Z" fill="white"/>
<path d="M97.9596 16.459C97.9596 16.1138 97.6798 15.834 97.3346 15.834C96.9894 15.834 96.7096 16.1138 96.7096 16.459C96.7096 18.4805 96.263 19.7934 95.4452 20.6112C94.6274 21.4291 93.3145 21.8757 91.293 21.8757C90.9478 21.8757 90.668 22.1555 90.668 22.5007C90.668 22.8458 90.9478 23.1257 91.293 23.1257C93.3145 23.1257 94.6274 23.5722 95.4452 24.3901C96.263 25.2079 96.7096 26.5208 96.7096 28.5423C96.7096 28.8875 96.9894 29.1673 97.3346 29.1673C97.6798 29.1673 97.9596 28.8875 97.9596 28.5423C97.9596 26.5208 98.4062 25.2079 99.224 24.3901C100.042 23.5722 101.355 23.1257 103.376 23.1257C103.722 23.1257 104.001 22.8458 104.001 22.5007C104.001 22.1555 103.722 21.8757 103.376 21.8757C101.355 21.8757 100.042 21.4291 99.224 20.6112C98.4062 19.7934 97.9596 18.4805 97.9596 16.459Z" fill="white" fill-opacity="0.9"/>
<path d="M91.5013 14.5827C91.5013 14.3526 91.3147 14.166 91.0846 14.166C90.8545 14.166 90.668 14.3526 90.668 14.5827C90.668 15.3999 90.487 15.8932 90.191 16.1891C89.8951 16.485 89.4018 16.666 88.5846 16.666C88.3545 16.666 88.168 16.8526 88.168 17.0827C88.168 17.3128 88.3545 17.4993 88.5846 17.4993C89.4018 17.4993 89.8951 17.6804 90.191 17.9763C90.487 18.2722 90.668 18.7655 90.668 19.5827C90.668 19.8128 90.8545 19.9994 91.0846 19.9994C91.3147 19.9994 91.5013 19.8128 91.5013 19.5827C91.5013 18.7655 91.6823 18.2722 91.9782 17.9763C92.2741 17.6804 92.7674 17.4993 93.5846 17.4993C93.8147 17.4993 94.0013 17.3128 94.0013 17.0827C94.0013 16.8526 93.8147 16.666 93.5846 16.666C92.7674 16.666 92.2741 16.485 91.9782 16.1891C91.6823 15.8932 91.5013 15.3999 91.5013 14.5827Z" fill="white" fill-opacity="0.9"/>
<path d="M95.668 11.2506C95.668 11.0205 95.4814 10.834 95.2513 10.834C95.0212 10.834 94.8346 11.0205 94.8346 11.2506C94.8346 11.7785 94.7173 12.0635 94.5574 12.2234C94.3974 12.3833 94.1125 12.5006 93.5846 12.5006C93.3545 12.5006 93.168 12.6872 93.168 12.9173C93.168 13.1474 93.3545 13.334 93.5846 13.334C94.1125 13.334 94.3974 13.4513 94.5574 13.6112C94.7173 13.7712 94.8346 14.0561 94.8346 14.584C94.8346 14.8141 95.0212 15.0006 95.2513 15.0006C95.4814 15.0006 95.668 14.8141 95.668 14.584C95.668 14.0561 95.7853 13.7712 95.9452 13.6112C96.1051 13.4513 96.3901 13.334 96.9179 13.334C97.1481 13.334 97.3346 13.1474 97.3346 12.9173C97.3346 12.6872 97.1481 12.5006 96.9179 12.5006C96.3901 12.5006 96.1051 12.3833 95.9452 12.2234C95.7853 12.0635 95.668 11.7785 95.668 11.2506Z" fill="white" fill-opacity="0.9"/>
<defs>
<filter id="filter0_ddi_34_6369" x="0" y="-5" width="123" height="52" filterUnits="userSpaceOnUse" color-interpolation-filters="sRGB">
<feFlood flood-opacity="0" result="BackgroundImageFix"/>
<feColorMatrix in="SourceAlpha" type="matrix" values="0 0 0 0 0 0 0 0 0 0 0 0 0 0 0 0 0 0 127 0" result="hardAlpha"/>
<feOffset dy="3"/>
<feGaussianBlur stdDeviation="1.5"/>
<feComposite in2="hardAlpha" operator="out"/>
<feColorMatrix type="matrix" values="0 0 0 0 0.184314 0 0 0 0 0.00392157 0 0 0 0 0.592157 0 0 0 0.12 0"/>
<feBlend mode="normal" in2="BackgroundImageFix" result="effect1_dropShadow_34_6369"/>
<feColorMatrix in="SourceAlpha" type="matrix" values="0 0 0 0 0 0 0 0 0 0 0 0 0 0 0 0 0 0 127 0" result="hardAlpha"/>
<feMorphology radius="1" operator="dilate" in="SourceAlpha" result="effect2_dropShadow_34_6369"/>
<feOffset/>
<feComposite in2="hardAlpha" operator="out"/>
<feColorMatrix type="matrix" values="0 0 0 0 0.184314 0 0 0 0 0.00392157 0 0 0 0 0.592157 0 0 0 0.08 0"/>
<feBlend mode="normal" in2="effect1_dropShadow_34_6369" result="effect2_dropShadow_34_6369"/>
<feBlend mode="normal" in="SourceGraphic" in2="effect2_dropShadow_34_6369" result="shape"/>
<feColorMatrix in="SourceAlpha" type="matrix" values="0 0 0 0 0 0 0 0 0 0 0 0 0 0 0 0 0 0 127 0" result="hardAlpha"/>
<feOffset dy="-6"/>
<feGaussianBlur stdDeviation="10"/>
<feComposite in2="hardAlpha" operator="arithmetic" k2="-1" k3="1"/>
<feColorMatrix type="matrix" values="0 0 0 0 0.447059 0 0 0 0 0.192157 0 0 0 0 1 0 0 0 0.32 0"/>
<feBlend mode="normal" in2="shape" result="effect3_innerShadow_34_6369"/>
</filter>
<filter id="filter1_dddddddd_34_6369" x="3" y="1" width="341" height="359" filterUnits="userSpaceOnUse" color-interpolation-filters="sRGB">
<feFlood flood-opacity="0" result="BackgroundImageFix"/>
<feColorMatrix in="SourceAlpha" type="matrix" values="0 0 0 0 0 0 0 0 0 0 0 0 0 0 0 0 0 0 127 0" result="hardAlpha"/>
<feOffset dx="99" dy="251"/>
<feComposite in2="hardAlpha" operator="out"/>
<feColorMatrix type="matrix" values="0 0 0 0 1 0 0 0 0 1 0 0 0 0 1 0 0 0 1 0"/>
<feBlend mode="normal" in2="BackgroundImageFix" result="effect1_dropShadow_34_6369"/>
<feColorMatrix in="SourceAlpha" type="matrix" values="0 0 0 0 0 0 0 0 0 0 0 0 0 0 0 0 0 0 127 0" result="hardAlpha"/>
<feOffset dx="332" dy="36"/>
<feComposite in2="hardAlpha" operator="out"/>
<feColorMatrix type="matrix" values="0 0 0 0 1 0 0 0 0 1 0 0 0 0 1 0 0 0 1 0"/>
<feBlend mode="normal" in2="effect1_dropShadow_34_6369" result="effect2_dropShadow_34_6369"/>
<feColorMatrix in="SourceAlpha" type="matrix" values="0 0 0 0 0 0 0 0 0 0 0 0 0 0 0 0 0 0 127 0" result="hardAlpha"/>
<feOffset dx="92" dy="100"/>
<feComposite in2="hardAlpha" operator="out"/>
<feColorMatrix type="matrix" values="0 0 0 0 1 0 0 0 0 1 0 0 0 0 1 0 0 0 1 0"/>
<feBlend mode="normal" in2="effect2_dropShadow_34_6369" result="effect3_dropShadow_34_6369"/>
<feColorMatrix in="SourceAlpha" type="matrix" values="0 0 0 0 0 0 0 0 0 0 0 0 0 0 0 0 0 0 127 0" result="hardAlpha"/>
<feOffset dx="340" dy="15"/>
<feComposite in2="hardAlpha" operator="out"/>
<feColorMatrix type="matrix" values="0 0 0 0 1 0 0 0 0 1 0 0 0 0 1 0 0 0 1 0"/>
<feBlend mode="normal" in2="effect3_dropShadow_34_6369" result="effect4_dropShadow_34_6369"/>
<feColorMatrix in="SourceAlpha" type="matrix" values="0 0 0 0 0 0 0 0 0 0 0 0 0 0 0 0 0 0 127 0" result="hardAlpha"/>
<feOffset dx="101" dy="268"/>
<feComposite in2="hardAlpha" operator="out"/>
<feColorMatrix type="matrix" values="0 0 0 0 1 0 0 0 0 1 0 0 0 0 1 0 0 0 1 0"/>
<feBlend mode="normal" in2="effect4_dropShadow_34_6369" result="effect5_dropShadow_34_6369"/>
<feColorMatrix in="SourceAlpha" type="matrix" values="0 0 0 0 0 0 0 0 0 0 0 0 0 0 0 0 0 0 127 0" result="hardAlpha"/>
<feOffset dx="230" dy="358"/>
<feComposite in2="hardAlpha" operator="out"/>
<feColorMatrix type="matrix" values="0 0 0 0 1 0 0 0 0 1 0 0 0 0 1 0 0 0 1 0"/>
<feBlend mode="normal" in2="effect5_dropShadow_34_6369" result="effect6_dropShadow_34_6369"/>
<feColorMatrix in="SourceAlpha" type="matrix" values="0 0 0 0 0 0 0 0 0 0 0 0 0 0 0 0 0 0 127 0" result="hardAlpha"/>
<feOffset dx="315" dy="194"/>
<feComposite in2="hardAlpha" operator="out"/>
<feColorMatrix type="matrix" values="0 0 0 0 1 0 0 0 0 1 0 0 0 0 1 0 0 0 1 0"/>
<feBlend mode="normal" in2="effect6_dropShadow_34_6369" result="effect7_dropShadow_34_6369"/>
<feColorMatrix in="SourceAlpha" type="matrix" values="0 0 0 0 0 0 0 0 0 0 0 0 0 0 0 0 0 0 127 0" result="hardAlpha"/>
<feOffset dx="331" dy="185"/>
<feComposite in2="hardAlpha" operator="out"/>
<feColorMatrix type="matrix" values="0 0 0 0 1 0 0 0 0 1 0 0 0 0 1 0 0 0 1 0"/>
<feBlend mode="normal" in2="effect7_dropShadow_34_6369" result="effect8_dropShadow_34_6369"/>
<feBlend mode="normal" in="SourceGraphic" in2="effect8_dropShadow_34_6369" result="shape"/>
</filter>
<filter id="filter2_ddddddddf_34_6369" x="2" y="1" width="303" height="268" filterUnits="userSpaceOnUse" color-interpolation-filters="sRGB">
<feFlood flood-opacity="0" result="BackgroundImageFix"/>
<feColorMatrix in="SourceAlpha" type="matrix" values="0 0 0 0 0 0 0 0 0 0 0 0 0 0 0 0 0 0 127 0" result="hardAlpha"/>
<feOffset dx="32" dy="266"/>
<feComposite in2="hardAlpha" operator="out"/>
<feColorMatrix type="matrix" values="0 0 0 0 1 0 0 0 0 1 0 0 0 0 1 0 0 0 1 0"/>
<feBlend mode="normal" in2="BackgroundImageFix" result="effect1_dropShadow_34_6369"/>
<feColorMatrix in="SourceAlpha" type="matrix" values="0 0 0 0 0 0 0 0 0 0 0 0 0 0 0 0 0 0 127 0" result="hardAlpha"/>
<feOffset dx="246" dy="15"/>
<feComposite in2="hardAlpha" operator="out"/>
<feColorMatrix type="matrix" values="0 0 0 0 1 0 0 0 0 1 0 0 0 0 1 0 0 0 1 0"/>
<feBlend mode="normal" in2="effect1_dropShadow_34_6369" result="effect2_dropShadow_34_6369"/>
<feColorMatrix in="SourceAlpha" type="matrix" values="0 0 0 0 0 0 0 0 0 0 0 0 0 0 0 0 0 0 127 0" result="hardAlpha"/>
<feOffset dx="264" dy="182"/>
<feComposite in2="hardAlpha" operator="out"/>
<feColorMatrix type="matrix" values="0 0 0 0 1 0 0 0 0 1 0 0 0 0 1 0 0 0 1 0"/>
<feBlend mode="normal" in2="effect2_dropShadow_34_6369" result="effect3_dropShadow_34_6369"/>
<feColorMatrix in="SourceAlpha" type="matrix" values="0 0 0 0 0 0 0 0 0 0 0 0 0 0 0 0 0 0 127 0" result="hardAlpha"/>
<feOffset dx="301" dy="224"/>
<feComposite in2="hardAlpha" operator="out"/>
<feColorMatrix type="matrix" values="0 0 0 0 1 0 0 0 0 1 0 0 0 0 1 0 0 0 1 0"/>
<feBlend mode="normal" in2="effect3_dropShadow_34_6369" result="effect4_dropShadow_34_6369"/>
<feColorMatrix in="SourceAlpha" type="matrix" values="0 0 0 0 0 0 0 0 0 0 0 0 0 0 0 0 0 0 127 0" result="hardAlpha"/>
<feOffset dx="146" dy="198"/>
<feComposite in2="hardAlpha" operator="out"/>
<feColorMatrix type="matrix" values="0 0 0 0 1 0 0 0 0 1 0 0 0 0 1 0 0 0 1 0"/>
<feBlend mode="normal" in2="effect4_dropShadow_34_6369" result="effect5_dropShadow_34_6369"/>
<feColorMatrix in="SourceAlpha" type="matrix" values="0 0 0 0 0 0 0 0 0 0 0 0 0 0 0 0 0 0 127 0" result="hardAlpha"/>
<feOffset dx="197" dy="202"/>
<feComposite in2="hardAlpha" operator="out"/>
<feColorMatrix type="matrix" values="0 0 0 0 1 0 0 0 0 1 0 0 0 0 1 0 0 0 1 0"/>
<feBlend mode="normal" in2="effect5_dropShadow_34_6369" result="effect6_dropShadow_34_6369"/>
<feColorMatrix in="SourceAlpha" type="matrix" values="0 0 0 0 0 0 0 0 0 0 0 0 0 0 0 0 0 0 127 0" result="hardAlpha"/>
<feOffset dx="37" dy="157"/>
<feComposite in2="hardAlpha" operator="out"/>
<feColorMatrix type="matrix" values="0 0 0 0 1 0 0 0 0 1 0 0 0 0 1 0 0 0 1 0"/>
<feBlend mode="normal" in2="effect6_dropShadow_34_6369" result="effect7_dropShadow_34_6369"/>
<feColorMatrix in="SourceAlpha" type="matrix" values="0 0 0 0 0 0 0 0 0 0 0 0 0 0 0 0 0 0 127 0" result="hardAlpha"/>
<feOffset dx="233" dy="122"/>
<feComposite in2="hardAlpha" operator="out"/>
<feColorMatrix type="matrix" values="0 0 0 0 1 0 0 0 0 1 0 0 0 0 1 0 0 0 1 0"/>
<feBlend mode="normal" in2="effect7_dropShadow_34_6369" result="effect8_dropShadow_34_6369"/>
<feBlend mode="normal" in="SourceGraphic" in2="effect8_dropShadow_34_6369" result="shape"/>
<feGaussianBlur stdDeviation="0.5" result="effect9_foregroundBlur_34_6369"/>
</filter>
<linearGradient id="paint0_linear_34_6369" x1="61" y1="3" x2="61" y2="39" gradientUnits="userSpaceOnUse">
<stop stop-color="white"/>
<stop offset="0.333333" stop-color="#1FA8CA" stop-opacity="0.83"/>
<stop offset="0.666667" stop-color="#1FA8CA" stop-opacity="0.91"/>
<stop offset="1" stop-color="white"/>
</linearGradient>
<clipPath id="clip0_34_6369">
<rect x="3" y="1" width="117" height="40" rx="10" fill="white"/>
</clipPath>
</defs>
</svg>
