<svg xmlns="http://www.w3.org/2000/svg" fill="none" viewBox="12 1 117 36">
<g filter="url(#filter0_ddddi_5748_6579)">
<g clip-path="url(#clip0_5748_6579)">
<rect x="12" y="1" width="117" height="36" rx="10" fill="#1FA8CA"/>
<g filter="url(#filter1_dddddddd_5748_6579)">
<rect x="12" y="1" width="1" height="1" fill="white" fill-opacity="0.01" shape-rendering="crispEdges"/>
</g>
<g filter="url(#filter2_ddddddddf_5748_6579)">
<rect width="1" height="1" transform="translate(12 2)" fill="white" fill-opacity="0.01"/>
</g>
</g>
</g>
<rect opacity="0.24" x="12" y="2.80005" width="116" height="32.4" rx="15" fill="url(#paint0_linear_5748_6579)"/>
<path d="M32.3877 16.4929C32.3347 16.0223 32.1159 15.6577 31.7314 15.3991C31.347 15.1373 30.8631 15.0064 30.2797 15.0064C29.8621 15.0064 29.5009 15.0727 29.1959 15.2053C28.891 15.3345 28.654 15.5135 28.485 15.7422C28.3193 15.9676 28.2364 16.2244 28.2364 16.5128C28.2364 16.7547 28.2928 16.9635 28.4055 17.1392C28.5215 17.3149 28.6723 17.4624 28.8579 17.5817C29.0468 17.6977 29.249 17.7955 29.4644 17.875C29.6798 17.9512 29.887 18.0142 30.0858 18.0639L31.0802 18.3224C31.405 18.402 31.7381 18.5097 32.0795 18.6456C32.4208 18.7815 32.7374 18.9605 33.029 19.1825C33.3207 19.4046 33.556 19.6797 33.735 20.0078C33.9173 20.3359 34.0084 20.7287 34.0084 21.1861C34.0084 21.7628 33.8593 22.2749 33.561 22.7223C33.266 23.1697 32.8368 23.5227 32.2733 23.7812C31.7132 24.0398 31.0354 24.169 30.24 24.169C29.4777 24.169 28.8181 24.0481 28.2613 23.8061C27.7045 23.5642 27.2686 23.2211 26.9537 22.777C26.6389 22.3295 26.4649 21.7992 26.4317 21.1861H27.9729C28.0028 21.554 28.1221 21.8606 28.3309 22.1058C28.543 22.3478 28.8131 22.5284 29.1412 22.6477C29.4727 22.7637 29.8356 22.8217 30.23 22.8217C30.6642 22.8217 31.0503 22.7538 31.3884 22.6179C31.7298 22.4787 31.9983 22.2865 32.1938 22.0412C32.3894 21.7926 32.4871 21.5026 32.4871 21.1712C32.4871 20.8696 32.401 20.6226 32.2286 20.4304C32.0596 20.2382 31.8292 20.0791 31.5376 19.9531C31.2492 19.8272 30.9227 19.7161 30.5581 19.62L29.355 19.2919C28.5397 19.0698 27.8934 18.7434 27.4161 18.3125C26.9421 17.8816 26.7052 17.3116 26.7052 16.6023C26.7052 16.0156 26.8643 15.5036 27.1824 15.0661C27.5006 14.6286 27.9315 14.2888 28.4751 14.0469C29.0186 13.8016 29.6318 13.679 30.3145 13.679C31.0039 13.679 31.6121 13.8 32.1391 14.0419C32.6694 14.2839 33.087 14.617 33.392 15.0412C33.6969 15.4621 33.856 15.946 33.8692 16.4929H32.3877ZM39.2895 16.3636V17.5568H35.1183V16.3636H39.2895ZM36.2369 14.5341H37.7235V21.7578C37.7235 22.0462 37.7665 22.2633 37.8527 22.4091C37.9389 22.5516 38.0499 22.6494 38.1858 22.7024C38.325 22.7521 38.4758 22.777 38.6382 22.777C38.7575 22.777 38.8619 22.7687 38.9514 22.7521C39.0409 22.7356 39.1105 22.7223 39.1602 22.7124L39.4287 23.9403C39.3425 23.9735 39.2199 24.0066 39.0608 24.0398C38.9017 24.0762 38.7029 24.0961 38.4642 24.0994C38.0731 24.1061 37.7085 24.0365 37.3705 23.8906C37.0324 23.7448 36.759 23.5194 36.5502 23.2145C36.3414 22.9096 36.2369 22.5268 36.2369 22.0661V14.5341ZM43.1562 24.169C42.6723 24.169 42.2348 24.0795 41.8437 23.9006C41.4526 23.7183 41.1427 23.4548 40.914 23.1101C40.6886 22.7654 40.5759 22.3428 40.5759 21.8423C40.5759 21.4115 40.6588 21.0568 40.8245 20.7784C40.9902 20.5 41.2139 20.2796 41.4956 20.1172C41.7774 19.9548 42.0922 19.8321 42.4403 19.7493C42.7883 19.6664 43.1429 19.6035 43.5042 19.5604C43.9616 19.5073 44.3328 19.4643 44.6178 19.4311C44.9028 19.3946 45.11 19.3366 45.2393 19.2571C45.3685 19.1776 45.4331 19.0483 45.4331 18.8693V18.8345C45.4331 18.4003 45.3105 18.0639 45.0653 17.8253C44.8233 17.5866 44.462 17.4673 43.9814 17.4673C43.481 17.4673 43.0866 17.5784 42.7982 17.8004C42.5132 18.0192 42.316 18.2628 42.2066 18.5312L40.8096 18.2131C40.9753 17.7491 41.2172 17.3745 41.5354 17.0895C41.8569 16.8011 42.2265 16.5923 42.6441 16.4631C43.0617 16.3305 43.5009 16.2642 43.9616 16.2642C44.2665 16.2642 44.5896 16.3007 44.931 16.3736C45.2757 16.4432 45.5972 16.5724 45.8955 16.7614C46.1971 16.9503 46.444 17.2204 46.6363 17.5717C46.8285 17.9197 46.9246 18.3722 46.9246 18.929V24H45.4729V22.956H45.4133C45.3171 23.1482 45.173 23.3371 44.9807 23.5227C44.7885 23.7083 44.5416 23.8625 44.24 23.9851C43.9384 24.1077 43.5771 24.169 43.1562 24.169ZM43.4793 22.9759C43.8903 22.9759 44.2416 22.8946 44.5333 22.7322C44.8283 22.5698 45.052 22.3577 45.2045 22.0959C45.3602 21.8307 45.4381 21.5473 45.4381 21.2457V20.2614C45.3851 20.3144 45.2823 20.3641 45.1299 20.4105C44.9807 20.4536 44.81 20.4917 44.6178 20.5249C44.4256 20.5547 44.2383 20.5829 44.056 20.6094C43.8737 20.6326 43.7213 20.6525 43.5986 20.669C43.3103 20.7055 43.0468 20.7668 42.8081 20.853C42.5728 20.9392 42.3839 21.0634 42.2414 21.2259C42.1022 21.3849 42.0326 21.5971 42.0326 21.8622C42.0326 22.2301 42.1685 22.5085 42.4403 22.6974C42.712 22.883 43.0584 22.9759 43.4793 22.9759ZM48.9046 24V16.3636H50.3414V17.5767H50.4209C50.5601 17.1657 50.8054 16.8426 51.1567 16.6072C51.5113 16.3686 51.9124 16.2493 52.3598 16.2493C52.4526 16.2493 52.562 16.2526 52.6879 16.2592C52.8172 16.2659 52.9183 16.2741 52.9912 16.2841V17.706C52.9316 17.6894 52.8255 17.6712 52.673 17.6513C52.5206 17.6281 52.3681 17.6165 52.2156 17.6165C51.8643 17.6165 51.5511 17.6911 51.276 17.8402C51.0042 17.986 50.7888 18.1899 50.6297 18.4517C50.4706 18.7102 50.3911 19.0052 50.3911 19.3366V24H48.9046ZM58.2934 16.3636V17.5568H54.1222V16.3636H58.2934ZM55.2409 14.5341H56.7274V21.7578C56.7274 22.0462 56.7704 22.2633 56.8566 22.4091C56.9428 22.5516 57.0538 22.6494 57.1897 22.7024C57.3289 22.7521 57.4797 22.777 57.6421 22.777C57.7615 22.777 57.8659 22.7687 57.9553 22.7521C58.0448 22.7356 58.1144 22.7223 58.1642 22.7124L58.4326 23.9403C58.3464 23.9735 58.2238 24.0066 58.0647 24.0398C57.9056 24.0762 57.7068 24.0961 57.4681 24.0994C57.077 24.1061 56.7124 24.0365 56.3744 23.8906C56.0363 23.7448 55.7629 23.5194 55.5541 23.2145C55.3453 22.9096 55.2409 22.5268 55.2409 22.0661V14.5341ZM63.7622 24V13.8182H70.0761V15.1406H65.2984V18.2429H69.6237V19.5604H65.2984V24H63.7622ZM71.7503 24V16.3636H73.1871V17.5767H73.2666C73.4058 17.1657 73.6511 16.8426 74.0024 16.6072C74.357 16.3686 74.7581 16.2493 75.2055 16.2493C75.2983 16.2493 75.4077 16.2526 75.5336 16.2592C75.6629 16.2659 75.764 16.2741 75.8369 16.2841V17.706C75.7773 17.6894 75.6712 17.6712 75.5187 17.6513C75.3663 17.6281 75.2138 17.6165 75.0613 17.6165C74.71 17.6165 74.3968 17.6911 74.1217 17.8402C73.8499 17.986 73.6345 18.1899 73.4754 18.4517C73.3163 18.7102 73.2368 19.0052 73.2368 19.3366V24H71.7503ZM80.1411 24.1541C79.3887 24.1541 78.7407 23.9934 78.1972 23.6719C77.6569 23.3471 77.2393 22.8913 76.9443 22.3047C76.6527 21.7147 76.5068 21.0237 76.5068 20.2315C76.5068 19.4493 76.6527 18.7599 76.9443 18.1634C77.2393 17.5668 77.6503 17.1011 78.1773 16.7663C78.7076 16.4316 79.3274 16.2642 80.0367 16.2642C80.4675 16.2642 80.8852 16.3355 81.2895 16.478C81.6939 16.6205 82.0568 16.8442 82.3783 17.1491C82.6998 17.4541 82.9533 17.8501 83.1389 18.3374C83.3245 18.8213 83.4173 19.4096 83.4173 20.1023V20.6293H77.347V19.5156H81.9607C81.9607 19.1245 81.8811 18.7782 81.722 18.4766C81.5629 18.1716 81.3392 17.9313 81.0509 17.7557C80.7658 17.58 80.4311 17.4922 80.0466 17.4922C79.629 17.4922 79.2644 17.5949 78.9529 17.8004C78.6446 18.0026 78.406 18.2678 78.2369 18.5959C78.0712 18.9207 77.9884 19.2737 77.9884 19.6548V20.5249C77.9884 21.0353 78.0779 21.4695 78.2568 21.8274C78.4391 22.1854 78.6927 22.4588 79.0175 22.6477C79.3423 22.8333 79.7218 22.9261 80.156 22.9261C80.4377 22.9261 80.6946 22.8864 80.9266 22.8068C81.1586 22.724 81.3591 22.6013 81.5281 22.4389C81.6972 22.2765 81.8264 22.076 81.9159 21.8374L83.3229 22.0909C83.2102 22.5052 83.008 22.8681 82.7164 23.1797C82.428 23.4879 82.0651 23.7282 81.6276 23.9006C81.1934 24.0696 80.6979 24.1541 80.1411 24.1541ZM88.3579 24.1541C87.6055 24.1541 86.9575 23.9934 86.414 23.6719C85.8737 23.3471 85.4561 22.8913 85.1611 22.3047C84.8695 21.7147 84.7236 21.0237 84.7236 20.2315C84.7236 19.4493 84.8695 18.7599 85.1611 18.1634C85.4561 17.5668 85.8671 17.1011 86.3941 16.7663C86.9244 16.4316 87.5442 16.2642 88.2535 16.2642C88.6843 16.2642 89.1019 16.3355 89.5063 16.478C89.9107 16.6205 90.2736 16.8442 90.5951 17.1491C90.9166 17.4541 91.1701 17.8501 91.3557 18.3374C91.5413 18.8213 91.6341 19.4096 91.6341 20.1023V20.6293H85.5638V19.5156H90.1775C90.1775 19.1245 90.0979 18.7782 89.9388 18.4766C89.7797 18.1716 89.556 17.9313 89.2677 17.7557C88.9826 17.58 88.6479 17.4922 88.2634 17.4922C87.8458 17.4922 87.4812 17.5949 87.1697 17.8004C86.8614 18.0026 86.6228 18.2678 86.4537 18.5959C86.288 18.9207 86.2052 19.2737 86.2052 19.6548V20.5249C86.2052 21.0353 86.2947 21.4695 86.4736 21.8274C86.6559 22.1854 86.9095 22.4588 87.2343 22.6477C87.5591 22.8333 87.9386 22.9261 88.3728 22.9261C88.6545 22.9261 88.9114 22.8864 89.1434 22.8068C89.3754 22.724 89.5759 22.6013 89.7449 22.4389C89.914 22.2765 90.0432 22.076 90.1327 21.8374L91.5397 22.0909C91.427 22.5052 91.2248 22.8681 90.9331 23.1797C90.6448 23.4879 90.2819 23.7282 89.8444 23.9006C89.4102 24.0696 88.9147 24.1541 88.3579 24.1541Z" fill="white"/>
<path d="M109.958 15.4585C109.958 15.1133 109.679 14.8335 109.333 14.8335C108.988 14.8335 108.708 15.1133 108.708 15.4585C108.708 17.48 108.262 18.7929 107.444 19.6107C106.626 20.4286 105.313 20.8752 103.292 20.8752C102.947 20.8752 102.667 21.155 102.667 21.5002C102.667 21.8453 102.947 22.1252 103.292 22.1252C105.313 22.1252 106.626 22.5717 107.444 23.3896C108.262 24.2074 108.708 25.5203 108.708 27.5418C108.708 27.887 108.988 28.1668 109.333 28.1668C109.679 28.1668 109.958 27.887 109.958 27.5418C109.958 25.5203 110.405 24.2074 111.223 23.3896C112.041 22.5717 113.354 22.1252 115.375 22.1252C115.72 22.1252 116 21.8453 116 21.5002C116 21.155 115.72 20.8752 115.375 20.8752C113.354 20.8752 112.041 20.4286 111.223 19.6107C110.405 18.7929 109.958 17.48 109.958 15.4585Z" fill="white" fill-opacity="0.9"/>
<path d="M103.5 13.5835C103.5 13.3534 103.314 13.1669 103.083 13.1669C102.853 13.1669 102.667 13.3534 102.667 13.5835C102.667 14.4007 102.486 14.894 102.19 15.1899C101.894 15.4859 101.401 15.6669 100.583 15.6669C100.353 15.6669 100.167 15.8534 100.167 16.0835C100.167 16.3136 100.353 16.5002 100.583 16.5002C101.401 16.5002 101.894 16.6812 102.19 16.9771C102.486 17.273 102.667 17.7663 102.667 18.5835C102.667 18.8136 102.853 19.0002 103.083 19.0002C103.314 19.0002 103.5 18.8136 103.5 18.5835C103.5 17.7663 103.681 17.273 103.977 16.9771C104.273 16.6812 104.766 16.5002 105.583 16.5002C105.814 16.5002 106 16.3136 106 16.0835C106 15.8534 105.814 15.6669 105.583 15.6669C104.766 15.6669 104.273 15.4859 103.977 15.1899C103.681 14.894 103.5 14.4007 103.5 13.5835Z" fill="white" fill-opacity="0.9"/>
<path d="M107.667 10.2502C107.667 10.02 107.48 9.8335 107.25 9.8335C107.02 9.8335 106.833 10.02 106.833 10.2502C106.833 10.778 106.716 11.063 106.556 11.2229C106.396 11.3828 106.111 11.5002 105.583 11.5002C105.353 11.5002 105.167 11.6867 105.167 11.9168C105.167 12.147 105.353 12.3335 105.583 12.3335C106.111 12.3335 106.396 12.4509 106.556 12.6108C106.716 12.7707 106.833 13.0557 106.833 13.5835C106.833 13.8136 107.02 14.0002 107.25 14.0002C107.48 14.0002 107.667 13.8136 107.667 13.5835C107.667 13.0557 107.784 12.7707 107.944 12.6108C108.104 12.4509 108.389 12.3335 108.917 12.3335C109.147 12.3335 109.333 12.147 109.333 11.9168C109.333 11.6867 109.147 11.5002 108.917 11.5002C108.389 11.5002 108.104 11.3828 107.944 11.2229C107.784 11.063 107.667 10.778 107.667 10.2502Z" fill="white" fill-opacity="0.9"/>
<defs>
<filter id="filter0_ddddi_5748_6579" x="0" y="-5" width="141" height="65" filterUnits="userSpaceOnUse" color-interpolation-filters="sRGB">
<feFlood flood-opacity="0" result="BackgroundImageFix"/>
<feColorMatrix in="SourceAlpha" type="matrix" values="0 0 0 0 0 0 0 0 0 0 0 0 0 0 0 0 0 0 127 0" result="hardAlpha"/>
<feOffset dy="11"/>
<feGaussianBlur stdDeviation="6"/>
<feComposite in2="hardAlpha" operator="out"/>
<feColorMatrix type="matrix" values="0 0 0 0 0.184314 0 0 0 0 0.00392157 0 0 0 0 0.592157 0 0 0 0.12 0"/>
<feBlend mode="normal" in2="BackgroundImageFix" result="effect1_dropShadow_5748_6579"/>
<feColorMatrix in="SourceAlpha" type="matrix" values="0 0 0 0 0 0 0 0 0 0 0 0 0 0 0 0 0 0 127 0" result="hardAlpha"/>
<feOffset dy="3"/>
<feGaussianBlur stdDeviation="1.5"/>
<feComposite in2="hardAlpha" operator="out"/>
<feColorMatrix type="matrix" values="0 0 0 0 0.184314 0 0 0 0 0.00392157 0 0 0 0 0.592157 0 0 0 0.12 0"/>
<feBlend mode="normal" in2="effect1_dropShadow_5748_6579" result="effect2_dropShadow_5748_6579"/>
<feColorMatrix in="SourceAlpha" type="matrix" values="0 0 0 0 0 0 0 0 0 0 0 0 0 0 0 0 0 0 127 0" result="hardAlpha"/>
<feOffset dy="1"/>
<feGaussianBlur stdDeviation="0.5"/>
<feComposite in2="hardAlpha" operator="out"/>
<feColorMatrix type="matrix" values="0 0 0 0 0.184314 0 0 0 0 0.00392157 0 0 0 0 0.592157 0 0 0 0.12 0"/>
<feBlend mode="normal" in2="effect2_dropShadow_5748_6579" result="effect3_dropShadow_5748_6579"/>
<feColorMatrix in="SourceAlpha" type="matrix" values="0 0 0 0 0 0 0 0 0 0 0 0 0 0 0 0 0 0 127 0" result="hardAlpha"/>
<feMorphology radius="1" operator="dilate" in="SourceAlpha" result="effect4_dropShadow_5748_6579"/>
<feOffset/>
<feComposite in2="hardAlpha" operator="out"/>
<feColorMatrix type="matrix" values="0 0 0 0 0.184314 0 0 0 0 0.00392157 0 0 0 0 0.592157 0 0 0 0.08 0"/>
<feBlend mode="normal" in2="effect3_dropShadow_5748_6579" result="effect4_dropShadow_5748_6579"/>
<feBlend mode="normal" in="SourceGraphic" in2="effect4_dropShadow_5748_6579" result="shape"/>
<feColorMatrix in="SourceAlpha" type="matrix" values="0 0 0 0 0 0 0 0 0 0 0 0 0 0 0 0 0 0 127 0" result="hardAlpha"/>
<feOffset dy="-6"/>
<feGaussianBlur stdDeviation="10"/>
<feComposite in2="hardAlpha" operator="arithmetic" k2="-1" k3="1"/>
<feColorMatrix type="matrix" values="0 0 0 0 0.447059 0 0 0 0 0.192157 0 0 0 0 1 0 0 0 0.32 0"/>
<feBlend mode="normal" in2="shape" result="effect5_innerShadow_5748_6579"/>
</filter>
<filter id="filter1_dddddddd_5748_6579" x="12" y="1" width="341" height="359" filterUnits="userSpaceOnUse" color-interpolation-filters="sRGB">
<feFlood flood-opacity="0" result="BackgroundImageFix"/>
<feColorMatrix in="SourceAlpha" type="matrix" values="0 0 0 0 0 0 0 0 0 0 0 0 0 0 0 0 0 0 127 0" result="hardAlpha"/>
<feOffset dx="99" dy="251"/>
<feComposite in2="hardAlpha" operator="out"/>
<feColorMatrix type="matrix" values="0 0 0 0 1 0 0 0 0 1 0 0 0 0 1 0 0 0 1 0"/>
<feBlend mode="normal" in2="BackgroundImageFix" result="effect1_dropShadow_5748_6579"/>
<feColorMatrix in="SourceAlpha" type="matrix" values="0 0 0 0 0 0 0 0 0 0 0 0 0 0 0 0 0 0 127 0" result="hardAlpha"/>
<feOffset dx="332" dy="36"/>
<feComposite in2="hardAlpha" operator="out"/>
<feColorMatrix type="matrix" values="0 0 0 0 1 0 0 0 0 1 0 0 0 0 1 0 0 0 1 0"/>
<feBlend mode="normal" in2="effect1_dropShadow_5748_6579" result="effect2_dropShadow_5748_6579"/>
<feColorMatrix in="SourceAlpha" type="matrix" values="0 0 0 0 0 0 0 0 0 0 0 0 0 0 0 0 0 0 127 0" result="hardAlpha"/>
<feOffset dx="92" dy="100"/>
<feComposite in2="hardAlpha" operator="out"/>
<feColorMatrix type="matrix" values="0 0 0 0 1 0 0 0 0 1 0 0 0 0 1 0 0 0 1 0"/>
<feBlend mode="normal" in2="effect2_dropShadow_5748_6579" result="effect3_dropShadow_5748_6579"/>
<feColorMatrix in="SourceAlpha" type="matrix" values="0 0 0 0 0 0 0 0 0 0 0 0 0 0 0 0 0 0 127 0" result="hardAlpha"/>
<feOffset dx="340" dy="15"/>
<feComposite in2="hardAlpha" operator="out"/>
<feColorMatrix type="matrix" values="0 0 0 0 1 0 0 0 0 1 0 0 0 0 1 0 0 0 1 0"/>
<feBlend mode="normal" in2="effect3_dropShadow_5748_6579" result="effect4_dropShadow_5748_6579"/>
<feColorMatrix in="SourceAlpha" type="matrix" values="0 0 0 0 0 0 0 0 0 0 0 0 0 0 0 0 0 0 127 0" result="hardAlpha"/>
<feOffset dx="101" dy="268"/>
<feComposite in2="hardAlpha" operator="out"/>
<feColorMatrix type="matrix" values="0 0 0 0 1 0 0 0 0 1 0 0 0 0 1 0 0 0 1 0"/>
<feBlend mode="normal" in2="effect4_dropShadow_5748_6579" result="effect5_dropShadow_5748_6579"/>
<feColorMatrix in="SourceAlpha" type="matrix" values="0 0 0 0 0 0 0 0 0 0 0 0 0 0 0 0 0 0 127 0" result="hardAlpha"/>
<feOffset dx="230" dy="358"/>
<feComposite in2="hardAlpha" operator="out"/>
<feColorMatrix type="matrix" values="0 0 0 0 1 0 0 0 0 1 0 0 0 0 1 0 0 0 1 0"/>
<feBlend mode="normal" in2="effect5_dropShadow_5748_6579" result="effect6_dropShadow_5748_6579"/>
<feColorMatrix in="SourceAlpha" type="matrix" values="0 0 0 0 0 0 0 0 0 0 0 0 0 0 0 0 0 0 127 0" result="hardAlpha"/>
<feOffset dx="315" dy="194"/>
<feComposite in2="hardAlpha" operator="out"/>
<feColorMatrix type="matrix" values="0 0 0 0 1 0 0 0 0 1 0 0 0 0 1 0 0 0 1 0"/>
<feBlend mode="normal" in2="effect6_dropShadow_5748_6579" result="effect7_dropShadow_5748_6579"/>
<feColorMatrix in="SourceAlpha" type="matrix" values="0 0 0 0 0 0 0 0 0 0 0 0 0 0 0 0 0 0 127 0" result="hardAlpha"/>
<feOffset dx="331" dy="185"/>
<feComposite in2="hardAlpha" operator="out"/>
<feColorMatrix type="matrix" values="0 0 0 0 1 0 0 0 0 1 0 0 0 0 1 0 0 0 1 0"/>
<feBlend mode="normal" in2="effect7_dropShadow_5748_6579" result="effect8_dropShadow_5748_6579"/>
<feBlend mode="normal" in="SourceGraphic" in2="effect8_dropShadow_5748_6579" result="shape"/>
</filter>
<filter id="filter2_ddddddddf_5748_6579" x="11" y="1" width="303" height="268" filterUnits="userSpaceOnUse" color-interpolation-filters="sRGB">
<feFlood flood-opacity="0" result="BackgroundImageFix"/>
<feColorMatrix in="SourceAlpha" type="matrix" values="0 0 0 0 0 0 0 0 0 0 0 0 0 0 0 0 0 0 127 0" result="hardAlpha"/>
<feOffset dx="32" dy="266"/>
<feComposite in2="hardAlpha" operator="out"/>
<feColorMatrix type="matrix" values="0 0 0 0 1 0 0 0 0 1 0 0 0 0 1 0 0 0 1 0"/>
<feBlend mode="normal" in2="BackgroundImageFix" result="effect1_dropShadow_5748_6579"/>
<feColorMatrix in="SourceAlpha" type="matrix" values="0 0 0 0 0 0 0 0 0 0 0 0 0 0 0 0 0 0 127 0" result="hardAlpha"/>
<feOffset dx="246" dy="15"/>
<feComposite in2="hardAlpha" operator="out"/>
<feColorMatrix type="matrix" values="0 0 0 0 1 0 0 0 0 1 0 0 0 0 1 0 0 0 1 0"/>
<feBlend mode="normal" in2="effect1_dropShadow_5748_6579" result="effect2_dropShadow_5748_6579"/>
<feColorMatrix in="SourceAlpha" type="matrix" values="0 0 0 0 0 0 0 0 0 0 0 0 0 0 0 0 0 0 127 0" result="hardAlpha"/>
<feOffset dx="264" dy="182"/>
<feComposite in2="hardAlpha" operator="out"/>
<feColorMatrix type="matrix" values="0 0 0 0 1 0 0 0 0 1 0 0 0 0 1 0 0 0 1 0"/>
<feBlend mode="normal" in2="effect2_dropShadow_5748_6579" result="effect3_dropShadow_5748_6579"/>
<feColorMatrix in="SourceAlpha" type="matrix" values="0 0 0 0 0 0 0 0 0 0 0 0 0 0 0 0 0 0 127 0" result="hardAlpha"/>
<feOffset dx="301" dy="224"/>
<feComposite in2="hardAlpha" operator="out"/>
<feColorMatrix type="matrix" values="0 0 0 0 1 0 0 0 0 1 0 0 0 0 1 0 0 0 1 0"/>
<feBlend mode="normal" in2="effect3_dropShadow_5748_6579" result="effect4_dropShadow_5748_6579"/>
<feColorMatrix in="SourceAlpha" type="matrix" values="0 0 0 0 0 0 0 0 0 0 0 0 0 0 0 0 0 0 127 0" result="hardAlpha"/>
<feOffset dx="146" dy="198"/>
<feComposite in2="hardAlpha" operator="out"/>
<feColorMatrix type="matrix" values="0 0 0 0 1 0 0 0 0 1 0 0 0 0 1 0 0 0 1 0"/>
<feBlend mode="normal" in2="effect4_dropShadow_5748_6579" result="effect5_dropShadow_5748_6579"/>
<feColorMatrix in="SourceAlpha" type="matrix" values="0 0 0 0 0 0 0 0 0 0 0 0 0 0 0 0 0 0 127 0" result="hardAlpha"/>
<feOffset dx="197" dy="202"/>
<feComposite in2="hardAlpha" operator="out"/>
<feColorMatrix type="matrix" values="0 0 0 0 1 0 0 0 0 1 0 0 0 0 1 0 0 0 1 0"/>
<feBlend mode="normal" in2="effect5_dropShadow_5748_6579" result="effect6_dropShadow_5748_6579"/>
<feColorMatrix in="SourceAlpha" type="matrix" values="0 0 0 0 0 0 0 0 0 0 0 0 0 0 0 0 0 0 127 0" result="hardAlpha"/>
<feOffset dx="37" dy="157"/>
<feComposite in2="hardAlpha" operator="out"/>
<feColorMatrix type="matrix" values="0 0 0 0 1 0 0 0 0 1 0 0 0 0 1 0 0 0 1 0"/>
<feBlend mode="normal" in2="effect6_dropShadow_5748_6579" result="effect7_dropShadow_5748_6579"/>
<feColorMatrix in="SourceAlpha" type="matrix" values="0 0 0 0 0 0 0 0 0 0 0 0 0 0 0 0 0 0 127 0" result="hardAlpha"/>
<feOffset dx="233" dy="122"/>
<feComposite in2="hardAlpha" operator="out"/>
<feColorMatrix type="matrix" values="0 0 0 0 1 0 0 0 0 1 0 0 0 0 1 0 0 0 1 0"/>
<feBlend mode="normal" in2="effect7_dropShadow_5748_6579" result="effect8_dropShadow_5748_6579"/>
<feBlend mode="normal" in="SourceGraphic" in2="effect8_dropShadow_5748_6579" result="shape"/>
<feGaussianBlur stdDeviation="0.5" result="effect9_foregroundBlur_5748_6579"/>
</filter>
<linearGradient id="paint0_linear_5748_6579" x1="70" y1="2.80005" x2="70" y2="35.2001" gradientUnits="userSpaceOnUse">
<stop stop-color="white"/>
<stop offset="0.333333" stop-color="#1FA8CA" stop-opacity="0.83"/>
<stop offset="0.666667" stop-color="#1FA8CA" stop-opacity="0.91"/>
<stop offset="1" stop-color="white"/>
</linearGradient>
<clipPath id="clip0_5748_6579">
<rect x="12" y="1" width="117" height="36" rx="10" fill="white"/>
</clipPath>
</defs>
</svg>