<svg width="116" height="37" viewBox="0 0 116 37" fill="none" xmlns="http://www.w3.org/2000/svg">
<g filter="url(#filter0_ddddi_5773_6579)">
<g clip-path="url(#clip0_5773_6579)">
<rect width="117" height="40" rx="10" fill="#1FA8CA"/>
<g filter="url(#filter1_dddddddd_5773_6579)">
<rect width="1" height="1" fill="white" fill-opacity="0.01" shape-rendering="crispEdges"/>
</g>
<g filter="url(#filter2_ddddddddf_5773_6579)">
<rect width="1" height="1" transform="translate(0 1)" fill="white" fill-opacity="0.01"/>
</g>
</g>
</g>
<path d="M17.3877 16.4929C17.3347 16.0223 17.1159 15.6577 16.7314 15.3991C16.347 15.1373 15.8631 15.0064 15.2797 15.0064C14.8621 15.0064 14.5009 15.0727 14.1959 15.2053C13.891 15.3345 13.654 15.5135 13.485 15.7422C13.3193 15.9676 13.2364 16.2244 13.2364 16.5128C13.2364 16.7547 13.2928 16.9635 13.4055 17.1392C13.5215 17.3149 13.6723 17.4624 13.8579 17.5817C14.0468 17.6977 14.249 17.7955 14.4644 17.875C14.6798 17.9512 14.887 18.0142 15.0858 18.0639L16.0802 18.3224C16.405 18.402 16.7381 18.5097 17.0795 18.6456C17.4208 18.7815 17.7374 18.9605 18.029 19.1825C18.3207 19.4046 18.556 19.6797 18.735 20.0078C18.9173 20.3359 19.0084 20.7287 19.0084 21.1861C19.0084 21.7628 18.8593 22.2749 18.561 22.7223C18.266 23.1697 17.8368 23.5227 17.2733 23.7812C16.7132 24.0398 16.0354 24.169 15.24 24.169C14.4777 24.169 13.8181 24.0481 13.2613 23.8061C12.7045 23.5642 12.2686 23.2211 11.9537 22.777C11.6389 22.3295 11.4649 21.7992 11.4317 21.1861H12.9729C13.0028 21.554 13.1221 21.8606 13.3309 22.1058C13.543 22.3478 13.8131 22.5284 14.1412 22.6477C14.4727 22.7637 14.8356 22.8217 15.23 22.8217C15.6642 22.8217 16.0503 22.7538 16.3884 22.6179C16.7298 22.4787 16.9983 22.2865 17.1938 22.0412C17.3894 21.7926 17.4871 21.5026 17.4871 21.1712C17.4871 20.8696 17.401 20.6226 17.2286 20.4304C17.0596 20.2382 16.8292 20.0791 16.5376 19.9531C16.2492 19.8272 15.9227 19.7161 15.5581 19.62L14.355 19.2919C13.5397 19.0698 12.8934 18.7434 12.4161 18.3125C11.9421 17.8816 11.7052 17.3116 11.7052 16.6023C11.7052 16.0156 11.8643 15.5036 12.1824 15.0661C12.5006 14.6286 12.9315 14.2888 13.4751 14.0469C14.0186 13.8016 14.6318 13.679 15.3145 13.679C16.0039 13.679 16.6121 13.8 17.1391 14.0419C17.6694 14.2839 18.087 14.617 18.392 15.0412C18.6969 15.4621 18.856 15.946 18.8692 16.4929H17.3877ZM24.2895 16.3636V17.5568H20.1183V16.3636H24.2895ZM21.2369 14.5341H22.7235V21.7578C22.7235 22.0462 22.7665 22.2633 22.8527 22.4091C22.9389 22.5516 23.0499 22.6494 23.1858 22.7024C23.325 22.7521 23.4758 22.777 23.6382 22.777C23.7575 22.777 23.8619 22.7687 23.9514 22.7521C24.0409 22.7356 24.1105 22.7223 24.1602 22.7124L24.4287 23.9403C24.3425 23.9735 24.2199 24.0066 24.0608 24.0398C23.9017 24.0762 23.7029 24.0961 23.4642 24.0994C23.0731 24.1061 22.7085 24.0365 22.3705 23.8906C22.0324 23.7448 21.759 23.5194 21.5502 23.2145C21.3414 22.9096 21.2369 22.5268 21.2369 22.0661V14.5341ZM28.1562 24.169C27.6723 24.169 27.2348 24.0795 26.8437 23.9006C26.4526 23.7183 26.1427 23.4548 25.914 23.1101C25.6886 22.7654 25.5759 22.3428 25.5759 21.8423C25.5759 21.4115 25.6588 21.0568 25.8245 20.7784C25.9902 20.5 26.2139 20.2796 26.4956 20.1172C26.7774 19.9548 27.0922 19.8321 27.4403 19.7493C27.7883 19.6664 28.1429 19.6035 28.5042 19.5604C28.9616 19.5073 29.3328 19.4643 29.6178 19.4311C29.9028 19.3946 30.11 19.3366 30.2393 19.2571C30.3685 19.1776 30.4331 19.0483 30.4331 18.8693V18.8345C30.4331 18.4003 30.3105 18.0639 30.0653 17.8253C29.8233 17.5866 29.462 17.4673 28.9814 17.4673C28.481 17.4673 28.0866 17.5784 27.7982 17.8004C27.5132 18.0192 27.316 18.2628 27.2066 18.5312L25.8096 18.2131C25.9753 17.7491 26.2172 17.3745 26.5354 17.0895C26.8569 16.8011 27.2265 16.5923 27.6441 16.4631C28.0617 16.3305 28.5009 16.2642 28.9616 16.2642C29.2665 16.2642 29.5896 16.3007 29.931 16.3736C30.2757 16.4432 30.5972 16.5724 30.8955 16.7614C31.1971 16.9503 31.444 17.2204 31.6363 17.5717C31.8285 17.9197 31.9246 18.3722 31.9246 18.929V24H30.4729V22.956H30.4133C30.3171 23.1482 30.173 23.3371 29.9807 23.5227C29.7885 23.7083 29.5416 23.8625 29.24 23.9851C28.9384 24.1077 28.5771 24.169 28.1562 24.169ZM28.4793 22.9759C28.8903 22.9759 29.2416 22.8946 29.5333 22.7322C29.8283 22.5698 30.052 22.3577 30.2045 22.0959C30.3602 21.8307 30.4381 21.5473 30.4381 21.2457V20.2614C30.3851 20.3144 30.2823 20.3641 30.1299 20.4105C29.9807 20.4536 29.81 20.4917 29.6178 20.5249C29.4256 20.5547 29.2383 20.5829 29.056 20.6094C28.8737 20.6326 28.7213 20.6525 28.5986 20.669C28.3103 20.7055 28.0468 20.7668 27.8081 20.853C27.5728 20.9392 27.3839 21.0634 27.2414 21.2259C27.1022 21.3849 27.0326 21.5971 27.0326 21.8622C27.0326 22.2301 27.1685 22.5085 27.4403 22.6974C27.712 22.883 28.0584 22.9759 28.4793 22.9759ZM33.9046 24V16.3636H35.3414V17.5767H35.4209C35.5601 17.1657 35.8054 16.8426 36.1567 16.6072C36.5113 16.3686 36.9124 16.2493 37.3598 16.2493C37.4526 16.2493 37.562 16.2526 37.6879 16.2592C37.8172 16.2659 37.9183 16.2741 37.9912 16.2841V17.706C37.9316 17.6894 37.8255 17.6712 37.673 17.6513C37.5206 17.6281 37.3681 17.6165 37.2156 17.6165C36.8643 17.6165 36.5511 17.6911 36.276 17.8402C36.0042 17.986 35.7888 18.1899 35.6297 18.4517C35.4706 18.7102 35.3911 19.0052 35.3911 19.3366V24H33.9046ZM43.2934 16.3636V17.5568H39.1222V16.3636H43.2934ZM40.2409 14.5341H41.7274V21.7578C41.7274 22.0462 41.7704 22.2633 41.8566 22.4091C41.9428 22.5516 42.0538 22.6494 42.1897 22.7024C42.3289 22.7521 42.4797 22.777 42.6421 22.777C42.7615 22.777 42.8659 22.7687 42.9553 22.7521C43.0448 22.7356 43.1144 22.7223 43.1642 22.7124L43.4326 23.9403C43.3464 23.9735 43.2238 24.0066 43.0647 24.0398C42.9056 24.0762 42.7068 24.0961 42.4681 24.0994C42.077 24.1061 41.7124 24.0365 41.3744 23.8906C41.0363 23.7448 40.7629 23.5194 40.5541 23.2145C40.3453 22.9096 40.2409 22.5268 40.2409 22.0661V14.5341ZM48.7622 24V13.8182H55.0761V15.1406H50.2984V18.2429H54.6237V19.5604H50.2984V24H48.7622ZM56.7503 24V16.3636H58.1871V17.5767H58.2666C58.4058 17.1657 58.6511 16.8426 59.0024 16.6072C59.357 16.3686 59.7581 16.2493 60.2055 16.2493C60.2983 16.2493 60.4077 16.2526 60.5336 16.2592C60.6629 16.2659 60.764 16.2741 60.8369 16.2841V17.706C60.7773 17.6894 60.6712 17.6712 60.5187 17.6513C60.3663 17.6281 60.2138 17.6165 60.0613 17.6165C59.71 17.6165 59.3968 17.6911 59.1217 17.8402C58.8499 17.986 58.6345 18.1899 58.4754 18.4517C58.3163 18.7102 58.2368 19.0052 58.2368 19.3366V24H56.7503ZM65.1411 24.1541C64.3887 24.1541 63.7407 23.9934 63.1972 23.6719C62.6569 23.3471 62.2393 22.8913 61.9443 22.3047C61.6527 21.7147 61.5068 21.0237 61.5068 20.2315C61.5068 19.4493 61.6527 18.7599 61.9443 18.1634C62.2393 17.5668 62.6503 17.1011 63.1773 16.7663C63.7076 16.4316 64.3274 16.2642 65.0367 16.2642C65.4675 16.2642 65.8852 16.3355 66.2895 16.478C66.6939 16.6205 67.0568 16.8442 67.3783 17.1491C67.6998 17.4541 67.9533 17.8501 68.1389 18.3374C68.3245 18.8213 68.4173 19.4096 68.4173 20.1023V20.6293H62.347V19.5156H66.9607C66.9607 19.1245 66.8811 18.7782 66.722 18.4766C66.5629 18.1716 66.3392 17.9313 66.0509 17.7557C65.7658 17.58 65.4311 17.4922 65.0466 17.4922C64.629 17.4922 64.2644 17.5949 63.9529 17.8004C63.6446 18.0026 63.406 18.2678 63.2369 18.5959C63.0712 18.9207 62.9884 19.2737 62.9884 19.6548V20.5249C62.9884 21.0353 63.0779 21.4695 63.2568 21.8274C63.4391 22.1854 63.6927 22.4588 64.0175 22.6477C64.3423 22.8333 64.7218 22.9261 65.156 22.9261C65.4377 22.9261 65.6946 22.8864 65.9266 22.8068C66.1586 22.724 66.3591 22.6013 66.5281 22.4389C66.6972 22.2765 66.8264 22.076 66.9159 21.8374L68.3229 22.0909C68.2102 22.5052 68.008 22.8681 67.7164 23.1797C67.428 23.4879 67.0651 23.7282 66.6276 23.9006C66.1934 24.0696 65.6979 24.1541 65.1411 24.1541ZM73.3579 24.1541C72.6055 24.1541 71.9575 23.9934 71.414 23.6719C70.8737 23.3471 70.4561 22.8913 70.1611 22.3047C69.8695 21.7147 69.7236 21.0237 69.7236 20.2315C69.7236 19.4493 69.8695 18.7599 70.1611 18.1634C70.4561 17.5668 70.8671 17.1011 71.3941 16.7663C71.9244 16.4316 72.5442 16.2642 73.2535 16.2642C73.6843 16.2642 74.1019 16.3355 74.5063 16.478C74.9107 16.6205 75.2736 16.8442 75.5951 17.1491C75.9166 17.4541 76.1701 17.8501 76.3557 18.3374C76.5413 18.8213 76.6341 19.4096 76.6341 20.1023V20.6293H70.5638V19.5156H75.1775C75.1775 19.1245 75.0979 18.7782 74.9388 18.4766C74.7797 18.1716 74.556 17.9313 74.2677 17.7557C73.9826 17.58 73.6479 17.4922 73.2634 17.4922C72.8458 17.4922 72.4812 17.5949 72.1697 17.8004C71.8614 18.0026 71.6228 18.2678 71.4537 18.5959C71.288 18.9207 71.2052 19.2737 71.2052 19.6548V20.5249C71.2052 21.0353 71.2947 21.4695 71.4736 21.8274C71.6559 22.1854 71.9095 22.4588 72.2343 22.6477C72.5591 22.8333 72.9386 22.9261 73.3728 22.9261C73.6545 22.9261 73.9114 22.8864 74.1434 22.8068C74.3754 22.724 74.5759 22.6013 74.7449 22.4389C74.914 22.2765 75.0432 22.076 75.1327 21.8374L76.5397 22.0909C76.427 22.5052 76.2248 22.8681 75.9331 23.1797C75.6448 23.4879 75.2819 23.7282 74.8444 23.9006C74.4102 24.0696 73.9147 24.1541 73.3579 24.1541Z" fill="white"/>
<path d="M94.9584 15.4585C94.9584 15.1133 94.6786 14.8335 94.3334 14.8335C93.9882 14.8335 93.7084 15.1133 93.7084 15.4585C93.7084 17.48 93.2618 18.7929 92.444 19.6107C91.6261 20.4286 90.3132 20.8752 88.2917 20.8752C87.9466 20.8752 87.6667 21.155 87.6667 21.5002C87.6667 21.8453 87.9466 22.1252 88.2917 22.1252C90.3132 22.1252 91.6261 22.5717 92.444 23.3896C93.2618 24.2074 93.7084 25.5203 93.7084 27.5418C93.7084 27.887 93.9882 28.1668 94.3334 28.1668C94.6786 28.1668 94.9584 27.887 94.9584 27.5418C94.9584 25.5203 95.405 24.2074 96.2228 23.3896C97.0407 22.5717 98.3536 22.1252 100.375 22.1252C100.72 22.1252 101 21.8453 101 21.5002C101 21.155 100.72 20.8752 100.375 20.8752C98.3536 20.8752 97.0407 20.4286 96.2228 19.6107C95.405 18.7929 94.9584 17.48 94.9584 15.4585Z" fill="white" fill-opacity="0.9"/>
<path d="M88.5001 13.5835C88.5001 13.3534 88.3135 13.1668 88.0834 13.1668C87.8533 13.1668 87.6667 13.3534 87.6667 13.5835C87.6667 14.4007 87.4857 14.894 87.1898 15.1899C86.8939 15.4858 86.4006 15.6668 85.5834 15.6668C85.3533 15.6668 85.1667 15.8534 85.1667 16.0835C85.1667 16.3136 85.3533 16.5002 85.5834 16.5002C86.4006 16.5002 86.8939 16.6812 87.1898 16.9771C87.4857 17.273 87.6667 17.7663 87.6667 18.5835C87.6667 18.8136 87.8533 19.0002 88.0834 19.0002C88.3135 19.0002 88.5001 18.8136 88.5001 18.5835C88.5001 17.7663 88.6811 17.273 88.977 16.9771C89.2729 16.6812 89.7662 16.5002 90.5834 16.5002C90.8135 16.5002 91.0001 16.3136 91.0001 16.0835C91.0001 15.8534 90.8135 15.6668 90.5834 15.6668C89.7662 15.6668 89.2729 15.4858 88.977 15.1899C88.6811 14.894 88.5001 14.4007 88.5001 13.5835Z" fill="white" fill-opacity="0.9"/>
<path d="M92.6667 10.2502C92.6667 10.02 92.4802 9.8335 92.2501 9.8335C92.02 9.8335 91.8334 10.02 91.8334 10.2502C91.8334 10.778 91.7161 11.063 91.5561 11.2229C91.3962 11.3828 91.1113 11.5002 90.5834 11.5002C90.3533 11.5002 90.1667 11.6867 90.1667 11.9168C90.1667 12.147 90.3533 12.3335 90.5834 12.3335C91.1113 12.3335 91.3962 12.4509 91.5561 12.6108C91.7161 12.7707 91.8334 13.0557 91.8334 13.5835C91.8334 13.8136 92.02 14.0002 92.2501 14.0002C92.4802 14.0002 92.6667 13.8136 92.6667 13.5835C92.6667 13.0557 92.7841 12.7707 92.944 12.6108C93.1039 12.4509 93.3889 12.3335 93.9167 12.3335C94.1469 12.3335 94.3334 12.147 94.3334 11.9168C94.3334 11.6867 94.1469 11.5002 93.9167 11.5002C93.3889 11.5002 93.1039 11.3828 92.944 11.2229C92.7841 11.063 92.6667 10.778 92.6667 10.2502Z" fill="white" fill-opacity="0.9"/>
<defs>
<filter id="filter0_ddddi_5773_6579" x="-12" y="-6" width="141" height="69" filterUnits="userSpaceOnUse" color-interpolation-filters="sRGB">
<feFlood flood-opacity="0" result="BackgroundImageFix"/>
<feColorMatrix in="SourceAlpha" type="matrix" values="0 0 0 0 0 0 0 0 0 0 0 0 0 0 0 0 0 0 127 0" result="hardAlpha"/>
<feOffset dy="11"/>
<feGaussianBlur stdDeviation="6"/>
<feComposite in2="hardAlpha" operator="out"/>
<feColorMatrix type="matrix" values="0 0 0 0 0.184314 0 0 0 0 0.00392157 0 0 0 0 0.592157 0 0 0 0.12 0"/>
<feBlend mode="normal" in2="BackgroundImageFix" result="effect1_dropShadow_5773_6579"/>
<feColorMatrix in="SourceAlpha" type="matrix" values="0 0 0 0 0 0 0 0 0 0 0 0 0 0 0 0 0 0 127 0" result="hardAlpha"/>
<feOffset dy="3"/>
<feGaussianBlur stdDeviation="1.5"/>
<feComposite in2="hardAlpha" operator="out"/>
<feColorMatrix type="matrix" values="0 0 0 0 0.184314 0 0 0 0 0.00392157 0 0 0 0 0.592157 0 0 0 0.12 0"/>
<feBlend mode="normal" in2="effect1_dropShadow_5773_6579" result="effect2_dropShadow_5773_6579"/>
<feColorMatrix in="SourceAlpha" type="matrix" values="0 0 0 0 0 0 0 0 0 0 0 0 0 0 0 0 0 0 127 0" result="hardAlpha"/>
<feOffset dy="1"/>
<feGaussianBlur stdDeviation="0.5"/>
<feComposite in2="hardAlpha" operator="out"/>
<feColorMatrix type="matrix" values="0 0 0 0 0.184314 0 0 0 0 0.00392157 0 0 0 0 0.592157 0 0 0 0.12 0"/>
<feBlend mode="normal" in2="effect2_dropShadow_5773_6579" result="effect3_dropShadow_5773_6579"/>
<feColorMatrix in="SourceAlpha" type="matrix" values="0 0 0 0 0 0 0 0 0 0 0 0 0 0 0 0 0 0 127 0" result="hardAlpha"/>
<feMorphology radius="1" operator="dilate" in="SourceAlpha" result="effect4_dropShadow_5773_6579"/>
<feOffset/>
<feComposite in2="hardAlpha" operator="out"/>
<feColorMatrix type="matrix" values="0 0 0 0 0.184314 0 0 0 0 0.00392157 0 0 0 0 0.592157 0 0 0 0.08 0"/>
<feBlend mode="normal" in2="effect3_dropShadow_5773_6579" result="effect4_dropShadow_5773_6579"/>
<feBlend mode="normal" in="SourceGraphic" in2="effect4_dropShadow_5773_6579" result="shape"/>
<feColorMatrix in="SourceAlpha" type="matrix" values="0 0 0 0 0 0 0 0 0 0 0 0 0 0 0 0 0 0 127 0" result="hardAlpha"/>
<feOffset dy="-6"/>
<feGaussianBlur stdDeviation="10"/>
<feComposite in2="hardAlpha" operator="arithmetic" k2="-1" k3="1"/>
<feColorMatrix type="matrix" values="0 0 0 0 0.447059 0 0 0 0 0.192157 0 0 0 0 1 0 0 0 0.32 0"/>
<feBlend mode="normal" in2="shape" result="effect5_innerShadow_5773_6579"/>
</filter>
<filter id="filter1_dddddddd_5773_6579" x="0" y="0" width="341" height="359" filterUnits="userSpaceOnUse" color-interpolation-filters="sRGB">
<feFlood flood-opacity="0" result="BackgroundImageFix"/>
<feColorMatrix in="SourceAlpha" type="matrix" values="0 0 0 0 0 0 0 0 0 0 0 0 0 0 0 0 0 0 127 0" result="hardAlpha"/>
<feOffset dx="99" dy="251"/>
<feComposite in2="hardAlpha" operator="out"/>
<feColorMatrix type="matrix" values="0 0 0 0 1 0 0 0 0 1 0 0 0 0 1 0 0 0 1 0"/>
<feBlend mode="normal" in2="BackgroundImageFix" result="effect1_dropShadow_5773_6579"/>
<feColorMatrix in="SourceAlpha" type="matrix" values="0 0 0 0 0 0 0 0 0 0 0 0 0 0 0 0 0 0 127 0" result="hardAlpha"/>
<feOffset dx="332" dy="36"/>
<feComposite in2="hardAlpha" operator="out"/>
<feColorMatrix type="matrix" values="0 0 0 0 1 0 0 0 0 1 0 0 0 0 1 0 0 0 1 0"/>
<feBlend mode="normal" in2="effect1_dropShadow_5773_6579" result="effect2_dropShadow_5773_6579"/>
<feColorMatrix in="SourceAlpha" type="matrix" values="0 0 0 0 0 0 0 0 0 0 0 0 0 0 0 0 0 0 127 0" result="hardAlpha"/>
<feOffset dx="92" dy="100"/>
<feComposite in2="hardAlpha" operator="out"/>
<feColorMatrix type="matrix" values="0 0 0 0 1 0 0 0 0 1 0 0 0 0 1 0 0 0 1 0"/>
<feBlend mode="normal" in2="effect2_dropShadow_5773_6579" result="effect3_dropShadow_5773_6579"/>
<feColorMatrix in="SourceAlpha" type="matrix" values="0 0 0 0 0 0 0 0 0 0 0 0 0 0 0 0 0 0 127 0" result="hardAlpha"/>
<feOffset dx="340" dy="15"/>
<feComposite in2="hardAlpha" operator="out"/>
<feColorMatrix type="matrix" values="0 0 0 0 1 0 0 0 0 1 0 0 0 0 1 0 0 0 1 0"/>
<feBlend mode="normal" in2="effect3_dropShadow_5773_6579" result="effect4_dropShadow_5773_6579"/>
<feColorMatrix in="SourceAlpha" type="matrix" values="0 0 0 0 0 0 0 0 0 0 0 0 0 0 0 0 0 0 127 0" result="hardAlpha"/>
<feOffset dx="101" dy="268"/>
<feComposite in2="hardAlpha" operator="out"/>
<feColorMatrix type="matrix" values="0 0 0 0 1 0 0 0 0 1 0 0 0 0 1 0 0 0 1 0"/>
<feBlend mode="normal" in2="effect4_dropShadow_5773_6579" result="effect5_dropShadow_5773_6579"/>
<feColorMatrix in="SourceAlpha" type="matrix" values="0 0 0 0 0 0 0 0 0 0 0 0 0 0 0 0 0 0 127 0" result="hardAlpha"/>
<feOffset dx="230" dy="358"/>
<feComposite in2="hardAlpha" operator="out"/>
<feColorMatrix type="matrix" values="0 0 0 0 1 0 0 0 0 1 0 0 0 0 1 0 0 0 1 0"/>
<feBlend mode="normal" in2="effect5_dropShadow_5773_6579" result="effect6_dropShadow_5773_6579"/>
<feColorMatrix in="SourceAlpha" type="matrix" values="0 0 0 0 0 0 0 0 0 0 0 0 0 0 0 0 0 0 127 0" result="hardAlpha"/>
<feOffset dx="315" dy="194"/>
<feComposite in2="hardAlpha" operator="out"/>
<feColorMatrix type="matrix" values="0 0 0 0 1 0 0 0 0 1 0 0 0 0 1 0 0 0 1 0"/>
<feBlend mode="normal" in2="effect6_dropShadow_5773_6579" result="effect7_dropShadow_5773_6579"/>
<feColorMatrix in="SourceAlpha" type="matrix" values="0 0 0 0 0 0 0 0 0 0 0 0 0 0 0 0 0 0 127 0" result="hardAlpha"/>
<feOffset dx="331" dy="185"/>
<feComposite in2="hardAlpha" operator="out"/>
<feColorMatrix type="matrix" values="0 0 0 0 1 0 0 0 0 1 0 0 0 0 1 0 0 0 1 0"/>
<feBlend mode="normal" in2="effect7_dropShadow_5773_6579" result="effect8_dropShadow_5773_6579"/>
<feBlend mode="normal" in="SourceGraphic" in2="effect8_dropShadow_5773_6579" result="shape"/>
</filter>
<filter id="filter2_ddddddddf_5773_6579" x="-1" y="0" width="303" height="268" filterUnits="userSpaceOnUse" color-interpolation-filters="sRGB">
<feFlood flood-opacity="0" result="BackgroundImageFix"/>
<feColorMatrix in="SourceAlpha" type="matrix" values="0 0 0 0 0 0 0 0 0 0 0 0 0 0 0 0 0 0 127 0" result="hardAlpha"/>
<feOffset dx="32" dy="266"/>
<feComposite in2="hardAlpha" operator="out"/>
<feColorMatrix type="matrix" values="0 0 0 0 1 0 0 0 0 1 0 0 0 0 1 0 0 0 1 0"/>
<feBlend mode="normal" in2="BackgroundImageFix" result="effect1_dropShadow_5773_6579"/>
<feColorMatrix in="SourceAlpha" type="matrix" values="0 0 0 0 0 0 0 0 0 0 0 0 0 0 0 0 0 0 127 0" result="hardAlpha"/>
<feOffset dx="246" dy="15"/>
<feComposite in2="hardAlpha" operator="out"/>
<feColorMatrix type="matrix" values="0 0 0 0 1 0 0 0 0 1 0 0 0 0 1 0 0 0 1 0"/>
<feBlend mode="normal" in2="effect1_dropShadow_5773_6579" result="effect2_dropShadow_5773_6579"/>
<feColorMatrix in="SourceAlpha" type="matrix" values="0 0 0 0 0 0 0 0 0 0 0 0 0 0 0 0 0 0 127 0" result="hardAlpha"/>
<feOffset dx="264" dy="182"/>
<feComposite in2="hardAlpha" operator="out"/>
<feColorMatrix type="matrix" values="0 0 0 0 1 0 0 0 0 1 0 0 0 0 1 0 0 0 1 0"/>
<feBlend mode="normal" in2="effect2_dropShadow_5773_6579" result="effect3_dropShadow_5773_6579"/>
<feColorMatrix in="SourceAlpha" type="matrix" values="0 0 0 0 0 0 0 0 0 0 0 0 0 0 0 0 0 0 127 0" result="hardAlpha"/>
<feOffset dx="301" dy="224"/>
<feComposite in2="hardAlpha" operator="out"/>
<feColorMatrix type="matrix" values="0 0 0 0 1 0 0 0 0 1 0 0 0 0 1 0 0 0 1 0"/>
<feBlend mode="normal" in2="effect3_dropShadow_5773_6579" result="effect4_dropShadow_5773_6579"/>
<feColorMatrix in="SourceAlpha" type="matrix" values="0 0 0 0 0 0 0 0 0 0 0 0 0 0 0 0 0 0 127 0" result="hardAlpha"/>
<feOffset dx="146" dy="198"/>
<feComposite in2="hardAlpha" operator="out"/>
<feColorMatrix type="matrix" values="0 0 0 0 1 0 0 0 0 1 0 0 0 0 1 0 0 0 1 0"/>
<feBlend mode="normal" in2="effect4_dropShadow_5773_6579" result="effect5_dropShadow_5773_6579"/>
<feColorMatrix in="SourceAlpha" type="matrix" values="0 0 0 0 0 0 0 0 0 0 0 0 0 0 0 0 0 0 127 0" result="hardAlpha"/>
<feOffset dx="197" dy="202"/>
<feComposite in2="hardAlpha" operator="out"/>
<feColorMatrix type="matrix" values="0 0 0 0 1 0 0 0 0 1 0 0 0 0 1 0 0 0 1 0"/>
<feBlend mode="normal" in2="effect5_dropShadow_5773_6579" result="effect6_dropShadow_5773_6579"/>
<feColorMatrix in="SourceAlpha" type="matrix" values="0 0 0 0 0 0 0 0 0 0 0 0 0 0 0 0 0 0 127 0" result="hardAlpha"/>
<feOffset dx="37" dy="157"/>
<feComposite in2="hardAlpha" operator="out"/>
<feColorMatrix type="matrix" values="0 0 0 0 1 0 0 0 0 1 0 0 0 0 1 0 0 0 1 0"/>
<feBlend mode="normal" in2="effect6_dropShadow_5773_6579" result="effect7_dropShadow_5773_6579"/>
<feColorMatrix in="SourceAlpha" type="matrix" values="0 0 0 0 0 0 0 0 0 0 0 0 0 0 0 0 0 0 127 0" result="hardAlpha"/>
<feOffset dx="233" dy="122"/>
<feComposite in2="hardAlpha" operator="out"/>
<feColorMatrix type="matrix" values="0 0 0 0 1 0 0 0 0 1 0 0 0 0 1 0 0 0 1 0"/>
<feBlend mode="normal" in2="effect7_dropShadow_5773_6579" result="effect8_dropShadow_5773_6579"/>
<feBlend mode="normal" in="SourceGraphic" in2="effect8_dropShadow_5773_6579" result="shape"/>
<feGaussianBlur stdDeviation="0.5" result="effect9_foregroundBlur_5773_6579"/>
</filter>
<clipPath id="clip0_5773_6579">
<rect width="117" height="40" rx="10" fill="white"/>
</clipPath>
</defs>
</svg>
