<svg width="36" height="35" viewBox="0 0 36 35" fill="none" xmlns="http://www.w3.org/2000/svg">
<g opacity="0.198347">
<path d="M17.6775 3.4089C25.4986 3.4089 31.8487 9.58261 31.8487 17.1864C31.8487 24.7902 25.4986 30.964 17.6775 30.964C9.85645 30.964 3.50635 24.7902 3.50635 17.1864C3.50635 9.58261 9.85645 3.4089 17.6775 3.4089Z" fill="#45B3E0" fill-opacity="0.89"/>
</g>
<g opacity="0.446281">
<path d="M17.6775 7.66997C23.0797 7.66997 27.4658 11.9343 27.4658 17.1864C27.4658 22.4385 23.0797 26.7028 17.6775 26.7028C12.2753 26.7028 7.88916 22.4385 7.88916 17.1864C7.88916 11.9343 12.2753 7.66997 17.6775 7.66997Z" fill="#45B3E0" fill-opacity="0.89"/>
</g>
<g opacity="0.694215">
<path d="M17.6775 11.9311C20.6608 11.9311 23.083 14.286 23.083 17.1864C23.083 20.0869 20.6608 22.4418 17.6775 22.4418C14.6942 22.4418 12.272 20.0869 12.272 17.1864C12.272 14.286 14.6942 11.9311 17.6775 11.9311Z" fill="#45B3E0" fill-opacity="0.89"/>
</g>
<g opacity="0.942149">
<path d="M17.6774 16.1922C18.2419 16.1922 18.7001 16.6377 18.7001 17.1864C18.7001 17.7351 18.2419 18.1807 17.6774 18.1807C17.113 18.1807 16.6548 17.7351 16.6548 17.1864C16.6548 16.6377 17.113 16.1922 17.6774 16.1922Z" fill="#45B3E0" fill-opacity="0.89"/>
</g>
</svg>
