<svg width="99" height="34" viewBox="0 0 99 34" fill="none" xmlns="http://www.w3.org/2000/svg">
<mask id="path-1-inside-1_5773_6575" fill="white">
<path d="M0 12C0 5.37258 5.37258 0 12 0H87C93.6274 0 99 5.37258 99 12V21.3C99 27.9274 93.6274 33.3 87 33.3H12C5.37258 33.3 0 27.9274 0 21.3V12Z"/>
</mask>
<path d="M0 12C0 5.37258 5.37258 0 12 0H87C93.6274 0 99 5.37258 99 12V21.3C99 27.9274 93.6274 33.3 87 33.3H12C5.37258 33.3 0 27.9274 0 21.3V12Z" fill="url(#paint0_linear_5773_6575)" fill-opacity="0.95"/>
<path d="M12 0V1H87V0V-1H12V0ZM99 12H98V21.3H99H100V12H99ZM87 33.3V32.3H12V33.3V34.3H87V33.3ZM0 21.3H1V12H0H-1V21.3H0ZM12 33.3V32.3C5.92487 32.3 1 27.3751 1 21.3H0H-1C-1 28.4797 4.8203 34.3 12 34.3V33.3ZM99 21.3H98C98 27.3751 93.0751 32.3 87 32.3V33.3V34.3C94.1797 34.3 100 28.4797 100 21.3H99ZM87 0V1C93.0751 1 98 5.92487 98 12H99H100C100 4.8203 94.1797 -1 87 -1V0ZM12 0V-1C4.8203 -1 -1 4.8203 -1 12H0H1C1 5.92487 5.92487 1 12 1V0Z" fill="url(#paint1_linear_5773_6575)" fill-opacity="0.95" mask="url(#path-1-inside-1_5773_6575)"/>
<path d="M47.9645 12.0909V23H46.6435V13.4759H46.5795L43.9162 15.2443V13.902L46.6435 12.0909H47.9645ZM50.8462 20.7628V19.6761L55.6403 12.0909H56.4286V13.7741H55.896L52.2738 19.5057V19.5909H58.7298V20.7628H50.8462ZM55.9812 23V20.4325V19.9265V12.0909H57.2383V23H55.9812ZM61.1507 23.0852C60.888 23.0852 60.6625 22.9911 60.4743 22.8029C60.286 22.6147 60.1919 22.3892 60.1919 22.1264C60.1919 21.8636 60.286 21.6381 60.4743 21.4499C60.6625 21.2617 60.888 21.1676 61.1507 21.1676C61.4135 21.1676 61.639 21.2617 61.8272 21.4499C62.0154 21.6381 62.1096 21.8636 62.1096 22.1264C62.1096 22.3004 62.0652 22.4602 61.9764 22.6058C61.8912 22.7514 61.7757 22.8686 61.6301 22.9574C61.4881 23.0426 61.3283 23.0852 61.1507 23.0852ZM67.5335 23.1491C66.9085 23.1491 66.3456 23.0249 65.8449 22.7763C65.3442 22.5277 64.9429 22.1868 64.6411 21.7536C64.3392 21.3203 64.1741 20.8267 64.1457 20.2727H65.4241C65.4738 20.7663 65.6975 21.1747 66.0953 21.4979C66.4965 21.8175 66.9759 21.9773 67.5335 21.9773C67.9809 21.9773 68.3786 21.8725 68.7267 21.663C69.0782 21.4535 69.3534 21.1658 69.5523 20.8001C69.7547 20.4308 69.8559 20.0135 69.8559 19.5483C69.8559 19.0724 69.7512 18.6481 69.5416 18.2752C69.3357 17.8988 69.0516 17.6023 68.6894 17.3857C68.3271 17.169 67.9134 17.0589 67.4482 17.0554C67.1144 17.0518 66.7718 17.1033 66.4202 17.2099C66.0686 17.3129 65.7792 17.446 65.5519 17.6094L64.3161 17.4602L64.9767 12.0909H70.6443V13.2628H66.0846L65.7011 16.4801H65.765C65.9887 16.3026 66.2693 16.1552 66.6066 16.038C66.944 15.9208 67.2955 15.8622 67.6613 15.8622C68.3289 15.8622 68.9237 16.022 69.4458 16.3416C69.9713 16.6577 70.3833 17.0909 70.6816 17.6413C70.9834 18.1918 71.1343 18.8203 71.1343 19.527C71.1343 20.223 70.9781 20.8445 70.6656 21.3913C70.3566 21.9347 69.9305 22.3643 69.3872 22.6804C68.8438 22.9929 68.2259 23.1491 67.5335 23.1491ZM74.4435 20.017L74.4222 18.4616H74.6779L78.2575 14.8182H79.8129L75.9989 18.6747H75.8924L74.4435 20.017ZM73.2717 23V12.0909H74.5288V23H73.2717ZM78.4705 23L75.2745 18.9517L76.1694 18.0781L80.0685 23H78.4705Z" fill="white" fill-opacity="0.7"/>
<path d="M17.9917 21.3417C18.1387 21.7126 18.1715 22.119 18.0857 22.5087L17.0207 25.7987C16.9864 25.9655 16.9952 26.1384 17.0465 26.3008C17.0977 26.4633 17.1896 26.61 17.3134 26.727C17.4372 26.844 17.5888 26.9274 17.7539 26.9693C17.919 27.0113 18.0921 27.0104 18.2567 26.9667L21.6697 25.9687C22.0374 25.8958 22.4182 25.9276 22.7687 26.0607C24.9041 27.0579 27.3231 27.2689 29.5988 26.6564C31.8746 26.0439 33.861 24.6473 35.2074 22.7131C36.5538 20.7788 37.1738 18.4311 36.958 16.0842C36.7422 13.7374 35.7044 11.5422 34.0278 9.88589C32.3511 8.22962 30.1434 7.21873 27.7941 7.03159C25.4448 6.84445 23.1048 7.49308 21.1871 8.86303C19.2694 10.233 17.8972 12.2362 17.3126 14.5193C16.7279 16.8024 16.9685 19.2186 17.9917 21.3417Z" stroke="white" stroke-opacity="0.78" stroke-width="2" stroke-linecap="round" stroke-linejoin="round"/>
<defs>
<linearGradient id="paint0_linear_5773_6575" x1="49.5" y1="0" x2="49.5" y2="33.3" gradientUnits="userSpaceOnUse">
<stop stop-color="#1FA8CA"/>
<stop offset="1" stop-color="#1FA8CA" stop-opacity="0.32"/>
</linearGradient>
<linearGradient id="paint1_linear_5773_6575" x1="49.5" y1="0" x2="49.5" y2="33.3" gradientUnits="userSpaceOnUse">
<stop stop-color="#1FA8CA"/>
<stop offset="1" stop-color="#1FA8CA" stop-opacity="0.32"/>
</linearGradient>
</defs>
</svg>
