<svg xmlns="http://www.w3.org/2000/svg" fill="none" viewBox="0 0 155 40">
<g clip-path="url(#clip0_5925_6650)">
<rect width="155" height="40" rx="10" fill="#1FA8CA"/>
<g filter="url(#filter0_dddddddd_5925_6650)">
<rect width="1" height="1" fill="white" fill-opacity="0.01" shape-rendering="crispEdges"/>
</g>
<g filter="url(#filter1_ddddddddf_5925_6650)">
<rect width="1" height="1" transform="translate(0 1)" fill="white" fill-opacity="0.01"/>
</g>
<mask id="mask0_5925_6650" style="mask-type:alpha" maskUnits="userSpaceOnUse" x="3" y="0" width="162" height="37">
<rect x="3" width="162" height="37" fill="white"/>
</mask>
<g mask="url(#mask0_5925_6650)">
</g>
<mask id="mask1_5925_6650" style="mask-type:alpha" maskUnits="userSpaceOnUse" x="3" y="0" width="162" height="37">
<rect x="3" width="162" height="37" fill="white"/>
</mask>
<g mask="url(#mask1_5925_6650)">
<path d="M137.667 11.2497C137.667 11.0196 137.48 10.833 137.25 10.833C137.02 10.833 136.834 11.0196 136.834 11.2497C136.834 11.7775 136.716 12.0625 136.556 12.2224C136.396 12.3823 136.112 12.4997 135.584 12.4997C135.354 12.4997 135.167 12.6862 135.167 12.9163C135.167 13.1465 135.354 13.333 135.584 13.333C136.112 13.333 136.396 13.4504 136.556 13.6103C136.716 13.7702 136.834 14.0552 136.834 14.583C136.834 14.8131 137.02 14.9997 137.25 14.9997C137.48 14.9997 137.667 14.8131 137.667 14.583C137.667 14.0552 137.784 13.7702 137.944 13.6103C138.104 13.4504 138.389 13.333 138.917 13.333C139.147 13.333 139.334 13.1465 139.334 12.9163C139.334 12.6862 139.147 12.4997 138.917 12.4997C138.389 12.4997 138.104 12.3823 137.944 12.2224C137.784 12.0625 137.667 11.7775 137.667 11.2497Z" fill="white" fill-opacity="0.9"/>
<path d="M133.5 14.5837C133.5 14.3535 133.314 14.167 133.084 14.167C132.854 14.167 132.667 14.3535 132.667 14.5837C132.667 15.4009 132.486 15.8942 132.19 16.1901C131.894 16.486 131.401 16.667 130.584 16.667C130.354 16.667 130.167 16.8535 130.167 17.0837C130.167 17.3138 130.354 17.5003 130.584 17.5003C131.401 17.5003 131.894 17.6813 132.19 17.9772C132.486 18.2732 132.667 18.7665 132.667 19.5837C132.667 19.8138 132.854 20.0004 133.084 20.0004C133.314 20.0004 133.5 19.8138 133.5 19.5837C133.5 18.7665 133.681 18.2732 133.977 17.9772C134.273 17.6813 134.766 17.5003 135.584 17.5003C135.814 17.5003 136 17.3138 136 17.0837C136 16.8535 135.814 16.667 135.584 16.667C134.766 16.667 134.273 16.486 133.977 16.1901C133.681 15.8942 133.5 15.4009 133.5 14.5837Z" fill="white" fill-opacity="0.9"/>
<path d="M139.959 16.459C139.959 16.1138 139.679 15.834 139.334 15.834C138.988 15.834 138.709 16.1138 138.709 16.459C138.709 18.4805 138.262 19.7934 137.444 20.6112C136.626 21.4291 135.313 21.8757 133.292 21.8757C132.947 21.8757 132.667 22.1555 132.667 22.5007C132.667 22.8458 132.947 23.1257 133.292 23.1257C135.313 23.1257 136.626 23.5722 137.444 24.3901C138.262 25.2079 138.709 26.5208 138.709 28.5423C138.709 28.8875 138.988 29.1673 139.334 29.1673C139.679 29.1673 139.959 28.8875 139.959 28.5423C139.959 26.5208 140.405 25.2079 141.223 24.3901C142.041 23.5722 143.354 23.1257 145.375 23.1257C145.721 23.1257 146 22.8458 146 22.5007C146 22.1555 145.721 21.8757 145.375 21.8757C143.354 21.8757 142.041 21.4291 141.223 20.6112C140.405 19.7934 139.959 18.4805 139.959 16.459Z" fill="white" fill-opacity="0.9"/>
</g>
<mask id="mask2_5925_6650" style="mask-type:alpha" maskUnits="userSpaceOnUse" x="3" y="0" width="162" height="37">
<rect x="3" width="162" height="37" fill="white"/>
</mask>
<g mask="url(#mask2_5925_6650)">
</g>
<mask id="mask3_5925_6650" style="mask-type:alpha" maskUnits="userSpaceOnUse" x="3" y="0" width="162" height="37">
<rect x="3" width="162" height="37" fill="white"/>
</mask>
<g mask="url(#mask3_5925_6650)">
<path d="M137.667 11.2497C137.667 11.0196 137.48 10.833 137.25 10.833C137.02 10.833 136.834 11.0196 136.834 11.2497C136.834 11.7775 136.716 12.0625 136.556 12.2224C136.396 12.3823 136.112 12.4997 135.584 12.4997C135.354 12.4997 135.167 12.6862 135.167 12.9163C135.167 13.1465 135.354 13.333 135.584 13.333C136.112 13.333 136.396 13.4504 136.556 13.6103C136.716 13.7702 136.834 14.0552 136.834 14.583C136.834 14.8131 137.02 14.9997 137.25 14.9997C137.48 14.9997 137.667 14.8131 137.667 14.583C137.667 14.0552 137.784 13.7702 137.944 13.6103C138.104 13.4504 138.389 13.333 138.917 13.333C139.147 13.333 139.334 13.1465 139.334 12.9163C139.334 12.6862 139.147 12.4997 138.917 12.4997C138.389 12.4997 138.104 12.3823 137.944 12.2224C137.784 12.0625 137.667 11.7775 137.667 11.2497Z" fill="white" fill-opacity="0.9"/>
<path d="M133.5 14.5837C133.5 14.3535 133.314 14.167 133.084 14.167C132.854 14.167 132.667 14.3535 132.667 14.5837C132.667 15.4009 132.486 15.8942 132.19 16.1901C131.894 16.486 131.401 16.667 130.584 16.667C130.354 16.667 130.167 16.8535 130.167 17.0837C130.167 17.3138 130.354 17.5003 130.584 17.5003C131.401 17.5003 131.894 17.6813 132.19 17.9772C132.486 18.2732 132.667 18.7665 132.667 19.5837C132.667 19.8138 132.854 20.0004 133.084 20.0004C133.314 20.0004 133.5 19.8138 133.5 19.5837C133.5 18.7665 133.681 18.2732 133.977 17.9772C134.273 17.6813 134.766 17.5003 135.584 17.5003C135.814 17.5003 136 17.3138 136 17.0837C136 16.8535 135.814 16.667 135.584 16.667C134.766 16.667 134.273 16.486 133.977 16.1901C133.681 15.8942 133.5 15.4009 133.5 14.5837Z" fill="white" fill-opacity="0.9"/>
<path d="M139.959 16.459C139.959 16.1138 139.679 15.834 139.334 15.834C138.988 15.834 138.709 16.1138 138.709 16.459C138.709 18.4805 138.262 19.7934 137.444 20.6112C136.626 21.4291 135.313 21.8757 133.292 21.8757C132.947 21.8757 132.667 22.1555 132.667 22.5007C132.667 22.8458 132.947 23.1257 133.292 23.1257C135.313 23.1257 136.626 23.5722 137.444 24.3901C138.262 25.2079 138.709 26.5208 138.709 28.5423C138.709 28.8875 138.988 29.1673 139.334 29.1673C139.679 29.1673 139.959 28.8875 139.959 28.5423C139.959 26.5208 140.405 25.2079 141.223 24.3901C142.041 23.5722 143.354 23.1257 145.375 23.1257C145.721 23.1257 146 22.8458 146 22.5007C146 22.1555 145.721 21.8757 145.375 21.8757C143.354 21.8757 142.041 21.4291 141.223 20.6112C140.405 19.7934 139.959 18.4805 139.959 16.459Z" fill="white" fill-opacity="0.9"/>
<rect opacity="0.24" x="3" y="2" width="149" height="36" rx="15" fill="url(#paint0_linear_5925_6650)"/>
<path d="M24.9649 18.1293H23.4138C23.3541 17.7978 23.2431 17.5062 23.0807 17.2543C22.9183 17.0024 22.7194 16.7886 22.4841 16.6129C22.2488 16.4373 21.9853 16.3047 21.6936 16.2152C21.4053 16.1257 21.0987 16.081 20.7739 16.081C20.1872 16.081 19.6619 16.2285 19.1979 16.5234C18.7372 16.8184 18.3726 17.2509 18.1041 17.821C17.839 18.3911 17.7064 19.0871 17.7064 19.9091C17.7064 20.7377 17.839 21.437 18.1041 22.0071C18.3726 22.5772 18.7388 23.008 19.2029 23.2997C19.6669 23.5914 20.1889 23.7372 20.7689 23.7372C21.0904 23.7372 21.3953 23.6941 21.6837 23.608C21.9753 23.5185 22.2388 23.3875 22.4742 23.2152C22.7095 23.0429 22.9084 22.8324 23.0708 22.5838C23.2365 22.3319 23.3508 22.0436 23.4138 21.7188L24.9649 21.7237C24.8821 22.2242 24.7213 22.6849 24.4827 23.1058C24.2474 23.5234 23.9441 23.8847 23.5729 24.1896C23.205 24.4912 22.7841 24.7249 22.3101 24.8906C21.8361 25.0563 21.3191 25.1392 20.759 25.1392C19.8773 25.1392 19.0918 24.9304 18.4024 24.5128C17.713 24.0919 17.1695 23.4903 16.7718 22.7081C16.3773 21.9259 16.1801 20.9929 16.1801 19.9091C16.1801 18.822 16.379 17.889 16.7767 17.1101C17.1744 16.3279 17.718 15.728 18.4074 15.3104C19.0968 14.8894 19.8807 14.679 20.759 14.679C21.2992 14.679 21.803 14.7569 22.2703 14.9126C22.741 15.0651 23.1636 15.2905 23.5381 15.5888C23.9126 15.8838 24.2225 16.245 24.4678 16.6726C24.713 17.0968 24.8788 17.5824 24.9649 18.1293ZM29.9005 25.1541C29.1846 25.1541 28.5598 24.9901 28.0262 24.6619C27.4926 24.3338 27.0783 23.8748 26.7833 23.2848C26.4883 22.6948 26.3408 22.0054 26.3408 21.2166C26.3408 20.4245 26.4883 19.7318 26.7833 19.1385C27.0783 18.5452 27.4926 18.0845 28.0262 17.7564C28.5598 17.4283 29.1846 17.2642 29.9005 17.2642C30.6164 17.2642 31.2412 17.4283 31.7748 17.7564C32.3084 18.0845 32.7227 18.5452 33.0177 19.1385C33.3126 19.7318 33.4601 20.4245 33.4601 21.2166C33.4601 22.0054 33.3126 22.6948 33.0177 23.2848C32.7227 23.8748 32.3084 24.3338 31.7748 24.6619C31.2412 24.9901 30.6164 25.1541 29.9005 25.1541ZM29.9055 23.9062C30.3695 23.9062 30.7539 23.7836 31.0589 23.5384C31.3638 23.2931 31.5892 22.9666 31.735 22.5589C31.8841 22.1513 31.9587 21.7022 31.9587 21.2116C31.9587 20.7244 31.8841 20.277 31.735 19.8693C31.5892 19.4583 31.3638 19.1286 31.0589 18.88C30.7539 18.6314 30.3695 18.5071 29.9055 18.5071C29.4381 18.5071 29.0503 18.6314 28.7421 18.88C28.4372 19.1286 28.2101 19.4583 28.061 19.8693C27.9152 20.277 27.8422 20.7244 27.8422 21.2116C27.8422 21.7022 27.9152 22.1513 28.061 22.5589C28.2101 22.9666 28.4372 23.2931 28.7421 23.5384C29.0503 23.7836 29.4381 23.9062 29.9055 23.9062ZM36.6059 20.4659V25H35.1194V17.3636H36.5463V18.6065H36.6407C36.8164 18.2022 37.0915 17.8774 37.466 17.6321C37.8438 17.3868 38.3195 17.2642 38.8928 17.2642C39.4132 17.2642 39.8689 17.3736 40.26 17.5923C40.6511 17.8078 40.9544 18.1293 41.1698 18.5568C41.3853 18.9844 41.493 19.513 41.493 20.1428V25H40.0065V20.3217C40.0065 19.7682 39.8623 19.3357 39.574 19.0241C39.2856 18.7093 38.8895 18.5518 38.3857 18.5518C38.041 18.5518 37.7345 18.6264 37.466 18.7756C37.2008 18.9247 36.9904 19.1435 36.8346 19.4318C36.6821 19.7169 36.6059 20.0616 36.6059 20.4659ZM47.0512 17.3636V18.5568H42.8801V17.3636H47.0512ZM43.9987 15.5341H45.4852V22.7578C45.4852 23.0462 45.5283 23.2633 45.6144 23.4091C45.7006 23.5516 45.8116 23.6494 45.9475 23.7024C46.0867 23.7521 46.2375 23.777 46.3999 23.777C46.5193 23.777 46.6237 23.7687 46.7132 23.7521C46.8026 23.7356 46.8722 23.7223 46.922 23.7124L47.1904 24.9403C47.1043 24.9735 46.9816 25.0066 46.8225 25.0398C46.6634 25.0762 46.4646 25.0961 46.2259 25.0994C45.8348 25.1061 45.4703 25.0365 45.1322 24.8906C44.7941 24.7448 44.5207 24.5194 44.3119 24.2145C44.1031 23.9096 43.9987 23.5268 43.9987 23.0661V15.5341ZM50.9179 25.169C50.434 25.169 49.9965 25.0795 49.6054 24.9006C49.2143 24.7183 48.9044 24.4548 48.6757 24.1101C48.4503 23.7654 48.3376 23.3428 48.3376 22.8423C48.3376 22.4115 48.4205 22.0568 48.5862 21.7784C48.7519 21.5 48.9756 21.2796 49.2574 21.1172C49.5391 20.9548 49.854 20.8321 50.202 20.7493C50.55 20.6664 50.9046 20.6035 51.2659 20.5604C51.7233 20.5073 52.0945 20.4643 52.3795 20.4311C52.6646 20.3946 52.8717 20.3366 53.001 20.2571C53.1302 20.1776 53.1949 20.0483 53.1949 19.8693V19.8345C53.1949 19.4003 53.0722 19.0639 52.827 18.8253C52.585 18.5866 52.2238 18.4673 51.7432 18.4673C51.2427 18.4673 50.8483 18.5784 50.5599 18.8004C50.2749 19.0192 50.0777 19.2628 49.9683 19.5312L48.5713 19.2131C48.737 18.7491 48.979 18.3745 49.2971 18.0895C49.6186 17.8011 49.9882 17.5923 50.4058 17.4631C50.8234 17.3305 51.2626 17.2642 51.7233 17.2642C52.0282 17.2642 52.3514 17.3007 52.6927 17.3736C53.0374 17.4432 53.3589 17.5724 53.6572 17.7614C53.9588 17.9503 54.2058 18.2204 54.398 18.5717C54.5902 18.9197 54.6863 19.3722 54.6863 19.929V25H53.2346V23.956H53.175C53.0789 24.1482 52.9347 24.3371 52.7425 24.5227C52.5502 24.7083 52.3033 24.8625 52.0017 24.9851C51.7001 25.1077 51.3388 25.169 50.9179 25.169ZM51.241 23.9759C51.652 23.9759 52.0033 23.8946 52.295 23.7322C52.59 23.5698 52.8137 23.3577 52.9662 23.0959C53.122 22.8307 53.1998 22.5473 53.1998 22.2457V21.2614C53.1468 21.3144 53.0441 21.3641 52.8916 21.4105C52.7425 21.4536 52.5718 21.4917 52.3795 21.5249C52.1873 21.5547 52 21.5829 51.8177 21.6094C51.6354 21.6326 51.483 21.6525 51.3604 21.669C51.072 21.7055 50.8085 21.7668 50.5699 21.853C50.3345 21.9392 50.1456 22.0634 50.0031 22.2259C49.8639 22.3849 49.7943 22.5971 49.7943 22.8622C49.7943 23.2301 49.9302 23.5085 50.202 23.6974C50.4738 23.883 50.8201 23.9759 51.241 23.9759ZM59.8829 25.1541C59.1438 25.1541 58.5074 24.9867 57.9738 24.652C57.4435 24.3139 57.0358 23.8482 56.7508 23.255C56.4658 22.6617 56.3232 21.9822 56.3232 21.2166C56.3232 20.4411 56.4691 19.7566 56.7607 19.1634C57.0524 18.5668 57.4634 18.1011 57.9937 17.7663C58.524 17.4316 59.1488 17.2642 59.868 17.2642C60.448 17.2642 60.9651 17.3719 61.4191 17.5874C61.8732 17.7995 62.2394 18.0978 62.5178 18.4822C62.7996 18.8667 62.9669 19.3158 63.02 19.8295H61.5732C61.4937 19.4716 61.3114 19.1634 61.0264 18.9048C60.7446 18.6463 60.3668 18.517 59.8928 18.517C59.4785 18.517 59.1156 18.6264 58.8041 18.8452C58.4958 19.0606 58.2555 19.3688 58.0832 19.7699C57.9108 20.1676 57.8247 20.6383 57.8247 21.1818C57.8247 21.7386 57.9092 22.2192 58.0782 22.6236C58.2472 23.0279 58.4859 23.3411 58.7941 23.5632C59.1057 23.7853 59.4719 23.8963 59.8928 23.8963C60.1746 23.8963 60.4298 23.8449 60.6585 23.7422C60.8905 23.6361 61.0844 23.4853 61.2401 23.2898C61.3992 23.0942 61.5103 22.8589 61.5732 22.5838H63.02C62.9669 23.0777 62.8062 23.5185 62.5377 23.9062C62.2693 24.294 61.9097 24.599 61.4589 24.821C61.0115 25.0431 60.4861 25.1541 59.8829 25.1541ZM68.1743 17.3636V18.5568H64.0031V17.3636H68.1743ZM65.1217 15.5341H66.6082V22.7578C66.6082 23.0462 66.6513 23.2633 66.7375 23.4091C66.8237 23.5516 66.9347 23.6494 67.0706 23.7024C67.2098 23.7521 67.3606 23.777 67.523 23.777C67.6423 23.777 67.7467 23.7687 67.8362 23.7521C67.9257 23.7356 67.9953 23.7223 68.045 23.7124L68.3135 24.9403C68.2273 24.9735 68.1047 25.0066 67.9456 25.0398C67.7865 25.0762 67.5876 25.0961 67.349 25.0994C66.9579 25.1061 66.5933 25.0365 66.2552 24.8906C65.9172 24.7448 65.6437 24.5194 65.4349 24.2145C65.2261 23.9096 65.1217 23.5268 65.1217 23.0661V15.5341ZM79.1963 17.4929C79.1433 17.0223 78.9245 16.6577 78.54 16.3991C78.1556 16.1373 77.6717 16.0064 77.0883 16.0064C76.6707 16.0064 76.3095 16.0727 76.0045 16.2053C75.6996 16.3345 75.4626 16.5135 75.2936 16.7422C75.1279 16.9676 75.045 17.2244 75.045 17.5128C75.045 17.7547 75.1014 17.9635 75.214 18.1392C75.33 18.3149 75.4809 18.4624 75.6665 18.5817C75.8554 18.6977 76.0576 18.7955 76.273 18.875C76.4884 18.9512 76.6956 19.0142 76.8944 19.0639L77.8888 19.3224C78.2136 19.402 78.5467 19.5097 78.8881 19.6456C79.2294 19.7815 79.546 19.9605 79.8376 20.1825C80.1293 20.4046 80.3646 20.6797 80.5436 21.0078C80.7259 21.3359 80.817 21.7287 80.817 22.1861C80.817 22.7628 80.6679 23.2749 80.3696 23.7223C80.0746 24.1697 79.6454 24.5227 79.0819 24.7812C78.5218 25.0398 77.844 25.169 77.0486 25.169C76.2863 25.169 75.6267 25.0481 75.0699 24.8061C74.5131 24.5642 74.0772 24.2211 73.7623 23.777C73.4475 23.3295 73.2735 22.7992 73.2403 22.1861H74.7815C74.8113 22.554 74.9307 22.8606 75.1395 23.1058C75.3516 23.3478 75.6217 23.5284 75.9498 23.6477C76.2813 23.7637 76.6442 23.8217 77.0386 23.8217C77.4728 23.8217 77.8589 23.7538 78.197 23.6179C78.5384 23.4787 78.8068 23.2865 79.0024 23.0412C79.1979 22.7926 79.2957 22.5026 79.2957 22.1712C79.2957 21.8696 79.2095 21.6226 79.0372 21.4304C78.8682 21.2382 78.6378 21.0791 78.3461 20.9531C78.0578 20.8272 77.7313 20.7161 77.3667 20.62L76.1636 20.2919C75.3483 20.0698 74.702 19.7434 74.2247 19.3125C73.7507 18.8816 73.5138 18.3116 73.5138 17.6023C73.5138 17.0156 73.6729 16.5036 73.991 16.0661C74.3092 15.6286 74.7401 15.2888 75.2836 15.0469C75.8272 14.8016 76.4404 14.679 77.1231 14.679C77.8125 14.679 78.4207 14.8 78.9477 15.0419C79.478 15.2839 79.8956 15.617 80.2006 16.0412C80.5055 16.4621 80.6646 16.946 80.6778 17.4929H79.1963ZM87.3708 21.8331V17.3636H88.8623V25H87.4007V23.6776H87.3211C87.1454 24.0852 86.8637 24.425 86.4759 24.6967C86.0915 24.9652 85.6125 25.0994 85.0392 25.0994C84.5486 25.0994 84.1144 24.9917 83.7366 24.7763C83.3621 24.5575 83.0671 24.2344 82.8517 23.8068C82.6395 23.3793 82.5335 22.8506 82.5335 22.2209V17.3636H84.02V22.0419C84.02 22.5623 84.1642 22.9766 84.4525 23.2848C84.7409 23.593 85.1154 23.7472 85.5761 23.7472C85.8545 23.7472 86.1312 23.6776 86.4063 23.5384C86.6847 23.3991 86.9151 23.1887 87.0974 22.907C87.283 22.6252 87.3741 22.2673 87.3708 21.8331ZM90.8596 27.8636V17.3636H92.3113V18.6016H92.4356C92.5218 18.4425 92.6461 18.2585 92.8085 18.0497C92.9709 17.8409 93.1963 17.6586 93.4846 17.5028C93.773 17.3438 94.1541 17.2642 94.6281 17.2642C95.2446 17.2642 95.7948 17.42 96.2787 17.7315C96.7626 18.0431 97.1421 18.4922 97.4172 19.0788C97.6956 19.6655 97.8348 20.3714 97.8348 21.1967C97.8348 22.022 97.6972 22.7296 97.4221 23.3196C97.147 23.9062 96.7692 24.3587 96.2886 24.6768C95.808 24.9917 95.2595 25.1491 94.643 25.1491C94.179 25.1491 93.7995 25.0713 93.5045 24.9155C93.2129 24.7597 92.9842 24.5774 92.8184 24.3686C92.6527 24.1598 92.5251 23.9742 92.4356 23.8118H92.3461V27.8636H90.8596ZM92.3163 21.1818C92.3163 21.7187 92.3942 22.1894 92.55 22.5938C92.7058 22.9981 92.9311 23.3146 93.2261 23.5433C93.5211 23.7687 93.8824 23.8814 94.3099 23.8814C94.7541 23.8814 95.1253 23.7637 95.4236 23.5284C95.7219 23.2898 95.9472 22.9666 96.0997 22.5589C96.2555 22.1513 96.3334 21.6922 96.3334 21.1818C96.3334 20.678 96.2571 20.2256 96.1047 19.8246C95.9555 19.4235 95.7301 19.107 95.4285 18.875C95.1302 18.643 94.7574 18.527 94.3099 18.527C93.8791 18.527 93.5145 18.638 93.2162 18.8601C92.9212 19.0821 92.6975 19.392 92.545 19.7898C92.3925 20.1875 92.3163 20.6515 92.3163 21.1818ZM99.5003 27.8636V17.3636H100.952V18.6016H101.076C101.162 18.4425 101.287 18.2585 101.449 18.0497C101.612 17.8409 101.837 17.6586 102.125 17.5028C102.414 17.3438 102.795 17.2642 103.269 17.2642C103.885 17.2642 104.435 17.42 104.919 17.7315C105.403 18.0431 105.783 18.4922 106.058 19.0788C106.336 19.6655 106.475 20.3714 106.475 21.1967C106.475 22.022 106.338 22.7296 106.063 23.3196C105.788 23.9062 105.41 24.3587 104.929 24.6768C104.449 24.9917 103.9 25.1491 103.284 25.1491C102.82 25.1491 102.44 25.0713 102.145 24.9155C101.853 24.7597 101.625 24.5774 101.459 24.3686C101.293 24.1598 101.166 23.9742 101.076 23.8118H100.987V27.8636H99.5003ZM100.957 21.1818C100.957 21.7187 101.035 22.1894 101.191 22.5938C101.346 22.9981 101.572 23.3146 101.867 23.5433C102.162 23.7687 102.523 23.8814 102.951 23.8814C103.395 23.8814 103.766 23.7637 104.064 23.5284C104.362 23.2898 104.588 22.9666 104.74 22.5589C104.896 22.1513 104.974 21.6922 104.974 21.1818C104.974 20.678 104.898 20.2256 104.745 19.8246C104.596 19.4235 104.371 19.107 104.069 18.875C103.771 18.643 103.398 18.527 102.951 18.527C102.52 18.527 102.155 18.638 101.857 18.8601C101.562 19.0821 101.338 19.392 101.186 19.7898C101.033 20.1875 100.957 20.6515 100.957 21.1818ZM111.358 25.1541C110.642 25.1541 110.017 24.9901 109.483 24.6619C108.95 24.3338 108.535 23.8748 108.24 23.2848C107.945 22.6948 107.798 22.0054 107.798 21.2166C107.798 20.4245 107.945 19.7318 108.24 19.1385C108.535 18.5452 108.95 18.0845 109.483 17.7564C110.017 17.4283 110.642 17.2642 111.358 17.2642C112.073 17.2642 112.698 17.4283 113.232 17.7564C113.765 18.0845 114.18 18.5452 114.475 19.1385C114.77 19.7318 114.917 20.4245 114.917 21.2166C114.917 22.0054 114.77 22.6948 114.475 23.2848C114.18 23.8748 113.765 24.3338 113.232 24.6619C112.698 24.9901 112.073 25.1541 111.358 25.1541ZM111.362 23.9062C111.826 23.9062 112.211 23.7836 112.516 23.5384C112.821 23.2931 113.046 22.9666 113.192 22.5589C113.341 22.1513 113.416 21.7022 113.416 21.2116C113.416 20.7244 113.341 20.277 113.192 19.8693C113.046 19.4583 112.821 19.1286 112.516 18.88C112.211 18.6314 111.826 18.5071 111.362 18.5071C110.895 18.5071 110.507 18.6314 110.199 18.88C109.894 19.1286 109.667 19.4583 109.518 19.8693C109.372 20.277 109.299 20.7244 109.299 21.2116C109.299 21.7022 109.372 22.1513 109.518 22.5589C109.667 22.9666 109.894 23.2931 110.199 23.5384C110.507 23.7836 110.895 23.9062 111.362 23.9062ZM116.576 25V17.3636H118.013V18.5767H118.093C118.232 18.1657 118.477 17.8426 118.829 17.6072C119.183 17.3686 119.584 17.2493 120.032 17.2493C120.124 17.2493 120.234 17.2526 120.36 17.2592C120.489 17.2659 120.59 17.2741 120.663 17.2841V18.706C120.603 18.6894 120.497 18.6712 120.345 18.6513C120.192 18.6281 120.04 18.6165 119.888 18.6165C119.536 18.6165 119.223 18.6911 118.948 18.8402C118.676 18.986 118.461 19.1899 118.302 19.4517C118.142 19.7102 118.063 20.0052 118.063 20.3366V25H116.576ZM125.965 17.3636V18.5568H121.794V17.3636H125.965ZM122.913 15.5341H124.399V22.7578C124.399 23.0462 124.442 23.2633 124.528 23.4091C124.615 23.5516 124.726 23.6494 124.862 23.7024C125.001 23.7521 125.152 23.777 125.314 23.777C125.433 23.777 125.538 23.7687 125.627 23.7521C125.717 23.7356 125.786 23.7223 125.836 23.7124L126.104 24.9403C126.018 24.9735 125.896 25.0066 125.737 25.0398C125.578 25.0762 125.379 25.0961 125.14 25.0994C124.749 25.1061 124.384 25.0365 124.046 24.8906C123.708 24.7448 123.435 24.5194 123.226 24.2145C123.017 23.9096 122.913 23.5268 122.913 23.0661V15.5341Z" fill="white"/>
<path d="M139.959 16.459C139.959 16.1138 139.679 15.834 139.334 15.834C138.988 15.834 138.709 16.1138 138.709 16.459C138.709 18.4805 138.262 19.7934 137.444 20.6112C136.626 21.4291 135.313 21.8757 133.292 21.8757C132.947 21.8757 132.667 22.1555 132.667 22.5007C132.667 22.8458 132.947 23.1257 133.292 23.1257C135.313 23.1257 136.626 23.5722 137.444 24.3901C138.262 25.2079 138.709 26.5208 138.709 28.5423C138.709 28.8875 138.988 29.1673 139.334 29.1673C139.679 29.1673 139.959 28.8875 139.959 28.5423C139.959 26.5208 140.405 25.2079 141.223 24.3901C142.041 23.5722 143.354 23.1257 145.375 23.1257C145.721 23.1257 146 22.8458 146 22.5007C146 22.1555 145.721 21.8757 145.375 21.8757C143.354 21.8757 142.041 21.4291 141.223 20.6112C140.405 19.7934 139.959 18.4805 139.959 16.459Z" fill="white" fill-opacity="0.9"/>
<path d="M133.5 14.5837C133.5 14.3535 133.314 14.167 133.084 14.167C132.854 14.167 132.667 14.3535 132.667 14.5837C132.667 15.4009 132.486 15.8942 132.19 16.1901C131.894 16.486 131.401 16.667 130.584 16.667C130.354 16.667 130.167 16.8535 130.167 17.0837C130.167 17.3138 130.354 17.5003 130.584 17.5003C131.401 17.5003 131.894 17.6813 132.19 17.9772C132.486 18.2732 132.667 18.7665 132.667 19.5837C132.667 19.8138 132.854 20.0004 133.084 20.0004C133.314 20.0004 133.5 19.8138 133.5 19.5837C133.5 18.7665 133.681 18.2732 133.977 17.9772C134.273 17.6813 134.766 17.5003 135.584 17.5003C135.814 17.5003 136 17.3138 136 17.0837C136 16.8535 135.814 16.667 135.584 16.667C134.766 16.667 134.273 16.486 133.977 16.1901C133.681 15.8942 133.5 15.4009 133.5 14.5837Z" fill="white" fill-opacity="0.9"/>
<path d="M137.667 11.2497C137.667 11.0196 137.48 10.833 137.25 10.833C137.02 10.833 136.834 11.0196 136.834 11.2497C136.834 11.7775 136.716 12.0625 136.556 12.2224C136.396 12.3823 136.112 12.4997 135.584 12.4997C135.354 12.4997 135.167 12.6862 135.167 12.9163C135.167 13.1465 135.354 13.333 135.584 13.333C136.112 13.333 136.396 13.4504 136.556 13.6103C136.716 13.7702 136.834 14.0552 136.834 14.583C136.834 14.8131 137.02 14.9997 137.25 14.9997C137.48 14.9997 137.667 14.8131 137.667 14.583C137.667 14.0552 137.784 13.7702 137.944 13.6103C138.104 13.4504 138.389 13.333 138.917 13.333C139.147 13.333 139.334 13.1465 139.334 12.9163C139.334 12.6862 139.147 12.4997 138.917 12.4997C138.389 12.4997 138.104 12.3823 137.944 12.2224C137.784 12.0625 137.667 11.7775 137.667 11.2497Z" fill="white" fill-opacity="0.9"/>
<rect opacity="0.24" x="3" y="2" width="149" height="36" rx="15" fill="url(#paint1_linear_5925_6650)"/>
<path d="M24.9649 18.1293H23.4138C23.3541 17.7978 23.2431 17.5062 23.0807 17.2543C22.9183 17.0024 22.7194 16.7886 22.4841 16.6129C22.2488 16.4373 21.9853 16.3047 21.6936 16.2152C21.4053 16.1257 21.0987 16.081 20.7739 16.081C20.1872 16.081 19.6619 16.2285 19.1979 16.5234C18.7372 16.8184 18.3726 17.2509 18.1041 17.821C17.839 18.3911 17.7064 19.0871 17.7064 19.9091C17.7064 20.7377 17.839 21.437 18.1041 22.0071C18.3726 22.5772 18.7388 23.008 19.2029 23.2997C19.6669 23.5914 20.1889 23.7372 20.7689 23.7372C21.0904 23.7372 21.3953 23.6941 21.6837 23.608C21.9753 23.5185 22.2388 23.3875 22.4742 23.2152C22.7095 23.0429 22.9084 22.8324 23.0708 22.5838C23.2365 22.3319 23.3508 22.0436 23.4138 21.7188L24.9649 21.7237C24.8821 22.2242 24.7213 22.6849 24.4827 23.1058C24.2474 23.5234 23.9441 23.8847 23.5729 24.1896C23.205 24.4912 22.7841 24.7249 22.3101 24.8906C21.8361 25.0563 21.3191 25.1392 20.759 25.1392C19.8773 25.1392 19.0918 24.9304 18.4024 24.5128C17.713 24.0919 17.1695 23.4903 16.7718 22.7081C16.3773 21.9259 16.1801 20.9929 16.1801 19.9091C16.1801 18.822 16.379 17.889 16.7767 17.1101C17.1744 16.3279 17.718 15.728 18.4074 15.3104C19.0968 14.8894 19.8807 14.679 20.759 14.679C21.2992 14.679 21.803 14.7569 22.2703 14.9126C22.741 15.0651 23.1636 15.2905 23.5381 15.5888C23.9126 15.8838 24.2225 16.245 24.4678 16.6726C24.713 17.0968 24.8788 17.5824 24.9649 18.1293ZM29.9005 25.1541C29.1846 25.1541 28.5598 24.9901 28.0262 24.6619C27.4926 24.3338 27.0783 23.8748 26.7833 23.2848C26.4883 22.6948 26.3408 22.0054 26.3408 21.2166C26.3408 20.4245 26.4883 19.7318 26.7833 19.1385C27.0783 18.5452 27.4926 18.0845 28.0262 17.7564C28.5598 17.4283 29.1846 17.2642 29.9005 17.2642C30.6164 17.2642 31.2412 17.4283 31.7748 17.7564C32.3084 18.0845 32.7227 18.5452 33.0177 19.1385C33.3126 19.7318 33.4601 20.4245 33.4601 21.2166C33.4601 22.0054 33.3126 22.6948 33.0177 23.2848C32.7227 23.8748 32.3084 24.3338 31.7748 24.6619C31.2412 24.9901 30.6164 25.1541 29.9005 25.1541ZM29.9055 23.9062C30.3695 23.9062 30.7539 23.7836 31.0589 23.5384C31.3638 23.2931 31.5892 22.9666 31.735 22.5589C31.8841 22.1513 31.9587 21.7022 31.9587 21.2116C31.9587 20.7244 31.8841 20.277 31.735 19.8693C31.5892 19.4583 31.3638 19.1286 31.0589 18.88C30.7539 18.6314 30.3695 18.5071 29.9055 18.5071C29.4381 18.5071 29.0503 18.6314 28.7421 18.88C28.4372 19.1286 28.2101 19.4583 28.061 19.8693C27.9152 20.277 27.8422 20.7244 27.8422 21.2116C27.8422 21.7022 27.9152 22.1513 28.061 22.5589C28.2101 22.9666 28.4372 23.2931 28.7421 23.5384C29.0503 23.7836 29.4381 23.9062 29.9055 23.9062ZM36.6059 20.4659V25H35.1194V17.3636H36.5463V18.6065H36.6407C36.8164 18.2022 37.0915 17.8774 37.466 17.6321C37.8438 17.3868 38.3195 17.2642 38.8928 17.2642C39.4132 17.2642 39.8689 17.3736 40.26 17.5923C40.6511 17.8078 40.9544 18.1293 41.1698 18.5568C41.3853 18.9844 41.493 19.513 41.493 20.1428V25H40.0065V20.3217C40.0065 19.7682 39.8623 19.3357 39.574 19.0241C39.2856 18.7093 38.8895 18.5518 38.3857 18.5518C38.041 18.5518 37.7345 18.6264 37.466 18.7756C37.2008 18.9247 36.9904 19.1435 36.8346 19.4318C36.6821 19.7169 36.6059 20.0616 36.6059 20.4659ZM47.0512 17.3636V18.5568H42.8801V17.3636H47.0512ZM43.9987 15.5341H45.4852V22.7578C45.4852 23.0462 45.5283 23.2633 45.6144 23.4091C45.7006 23.5516 45.8116 23.6494 45.9475 23.7024C46.0867 23.7521 46.2375 23.777 46.3999 23.777C46.5193 23.777 46.6237 23.7687 46.7132 23.7521C46.8026 23.7356 46.8722 23.7223 46.922 23.7124L47.1904 24.9403C47.1043 24.9735 46.9816 25.0066 46.8225 25.0398C46.6634 25.0762 46.4646 25.0961 46.2259 25.0994C45.8348 25.1061 45.4703 25.0365 45.1322 24.8906C44.7941 24.7448 44.5207 24.5194 44.3119 24.2145C44.1031 23.9096 43.9987 23.5268 43.9987 23.0661V15.5341ZM50.9179 25.169C50.434 25.169 49.9965 25.0795 49.6054 24.9006C49.2143 24.7183 48.9044 24.4548 48.6757 24.1101C48.4503 23.7654 48.3376 23.3428 48.3376 22.8423C48.3376 22.4115 48.4205 22.0568 48.5862 21.7784C48.7519 21.5 48.9756 21.2796 49.2574 21.1172C49.5391 20.9548 49.854 20.8321 50.202 20.7493C50.55 20.6664 50.9046 20.6035 51.2659 20.5604C51.7233 20.5073 52.0945 20.4643 52.3795 20.4311C52.6646 20.3946 52.8717 20.3366 53.001 20.2571C53.1302 20.1776 53.1949 20.0483 53.1949 19.8693V19.8345C53.1949 19.4003 53.0722 19.0639 52.827 18.8253C52.585 18.5866 52.2238 18.4673 51.7432 18.4673C51.2427 18.4673 50.8483 18.5784 50.5599 18.8004C50.2749 19.0192 50.0777 19.2628 49.9683 19.5312L48.5713 19.2131C48.737 18.7491 48.979 18.3745 49.2971 18.0895C49.6186 17.8011 49.9882 17.5923 50.4058 17.4631C50.8234 17.3305 51.2626 17.2642 51.7233 17.2642C52.0282 17.2642 52.3514 17.3007 52.6927 17.3736C53.0374 17.4432 53.3589 17.5724 53.6572 17.7614C53.9588 17.9503 54.2058 18.2204 54.398 18.5717C54.5902 18.9197 54.6863 19.3722 54.6863 19.929V25H53.2346V23.956H53.175C53.0789 24.1482 52.9347 24.3371 52.7425 24.5227C52.5502 24.7083 52.3033 24.8625 52.0017 24.9851C51.7001 25.1077 51.3388 25.169 50.9179 25.169ZM51.241 23.9759C51.652 23.9759 52.0033 23.8946 52.295 23.7322C52.59 23.5698 52.8137 23.3577 52.9662 23.0959C53.122 22.8307 53.1998 22.5473 53.1998 22.2457V21.2614C53.1468 21.3144 53.0441 21.3641 52.8916 21.4105C52.7425 21.4536 52.5718 21.4917 52.3795 21.5249C52.1873 21.5547 52 21.5829 51.8177 21.6094C51.6354 21.6326 51.483 21.6525 51.3604 21.669C51.072 21.7055 50.8085 21.7668 50.5699 21.853C50.3345 21.9392 50.1456 22.0634 50.0031 22.2259C49.8639 22.3849 49.7943 22.5971 49.7943 22.8622C49.7943 23.2301 49.9302 23.5085 50.202 23.6974C50.4738 23.883 50.8201 23.9759 51.241 23.9759ZM59.8829 25.1541C59.1438 25.1541 58.5074 24.9867 57.9738 24.652C57.4435 24.3139 57.0358 23.8482 56.7508 23.255C56.4658 22.6617 56.3232 21.9822 56.3232 21.2166C56.3232 20.4411 56.4691 19.7566 56.7607 19.1634C57.0524 18.5668 57.4634 18.1011 57.9937 17.7663C58.524 17.4316 59.1488 17.2642 59.868 17.2642C60.448 17.2642 60.9651 17.3719 61.4191 17.5874C61.8732 17.7995 62.2394 18.0978 62.5178 18.4822C62.7996 18.8667 62.9669 19.3158 63.02 19.8295H61.5732C61.4937 19.4716 61.3114 19.1634 61.0264 18.9048C60.7446 18.6463 60.3668 18.517 59.8928 18.517C59.4785 18.517 59.1156 18.6264 58.8041 18.8452C58.4958 19.0606 58.2555 19.3688 58.0832 19.7699C57.9108 20.1676 57.8247 20.6383 57.8247 21.1818C57.8247 21.7386 57.9092 22.2192 58.0782 22.6236C58.2472 23.0279 58.4859 23.3411 58.7941 23.5632C59.1057 23.7853 59.4719 23.8963 59.8928 23.8963C60.1746 23.8963 60.4298 23.8449 60.6585 23.7422C60.8905 23.6361 61.0844 23.4853 61.2401 23.2898C61.3992 23.0942 61.5103 22.8589 61.5732 22.5838H63.02C62.9669 23.0777 62.8062 23.5185 62.5377 23.9062C62.2693 24.294 61.9097 24.599 61.4589 24.821C61.0115 25.0431 60.4861 25.1541 59.8829 25.1541ZM68.1743 17.3636V18.5568H64.0031V17.3636H68.1743ZM65.1217 15.5341H66.6082V22.7578C66.6082 23.0462 66.6513 23.2633 66.7375 23.4091C66.8237 23.5516 66.9347 23.6494 67.0706 23.7024C67.2098 23.7521 67.3606 23.777 67.523 23.777C67.6423 23.777 67.7467 23.7687 67.8362 23.7521C67.9257 23.7356 67.9953 23.7223 68.045 23.7124L68.3135 24.9403C68.2273 24.9735 68.1047 25.0066 67.9456 25.0398C67.7865 25.0762 67.5876 25.0961 67.349 25.0994C66.9579 25.1061 66.5933 25.0365 66.2552 24.8906C65.9172 24.7448 65.6437 24.5194 65.4349 24.2145C65.2261 23.9096 65.1217 23.5268 65.1217 23.0661V15.5341ZM79.1963 17.4929C79.1433 17.0223 78.9245 16.6577 78.54 16.3991C78.1556 16.1373 77.6717 16.0064 77.0883 16.0064C76.6707 16.0064 76.3095 16.0727 76.0045 16.2053C75.6996 16.3345 75.4626 16.5135 75.2936 16.7422C75.1279 16.9676 75.045 17.2244 75.045 17.5128C75.045 17.7547 75.1014 17.9635 75.214 18.1392C75.33 18.3149 75.4809 18.4624 75.6665 18.5817C75.8554 18.6977 76.0576 18.7955 76.273 18.875C76.4884 18.9512 76.6956 19.0142 76.8944 19.0639L77.8888 19.3224C78.2136 19.402 78.5467 19.5097 78.8881 19.6456C79.2294 19.7815 79.546 19.9605 79.8376 20.1825C80.1293 20.4046 80.3646 20.6797 80.5436 21.0078C80.7259 21.3359 80.817 21.7287 80.817 22.1861C80.817 22.7628 80.6679 23.2749 80.3696 23.7223C80.0746 24.1697 79.6454 24.5227 79.0819 24.7812C78.5218 25.0398 77.844 25.169 77.0486 25.169C76.2863 25.169 75.6267 25.0481 75.0699 24.8061C74.5131 24.5642 74.0772 24.2211 73.7623 23.777C73.4475 23.3295 73.2735 22.7992 73.2403 22.1861H74.7815C74.8113 22.554 74.9307 22.8606 75.1395 23.1058C75.3516 23.3478 75.6217 23.5284 75.9498 23.6477C76.2813 23.7637 76.6442 23.8217 77.0386 23.8217C77.4728 23.8217 77.8589 23.7538 78.197 23.6179C78.5384 23.4787 78.8068 23.2865 79.0024 23.0412C79.1979 22.7926 79.2957 22.5026 79.2957 22.1712C79.2957 21.8696 79.2095 21.6226 79.0372 21.4304C78.8682 21.2382 78.6378 21.0791 78.3461 20.9531C78.0578 20.8272 77.7313 20.7161 77.3667 20.62L76.1636 20.2919C75.3483 20.0698 74.702 19.7434 74.2247 19.3125C73.7507 18.8816 73.5138 18.3116 73.5138 17.6023C73.5138 17.0156 73.6729 16.5036 73.991 16.0661C74.3092 15.6286 74.7401 15.2888 75.2836 15.0469C75.8272 14.8016 76.4404 14.679 77.1231 14.679C77.8125 14.679 78.4207 14.8 78.9477 15.0419C79.478 15.2839 79.8956 15.617 80.2006 16.0412C80.5055 16.4621 80.6646 16.946 80.6778 17.4929H79.1963ZM87.3708 21.8331V17.3636H88.8623V25H87.4007V23.6776H87.3211C87.1454 24.0852 86.8637 24.425 86.4759 24.6967C86.0915 24.9652 85.6125 25.0994 85.0392 25.0994C84.5486 25.0994 84.1144 24.9917 83.7366 24.7763C83.3621 24.5575 83.0671 24.2344 82.8517 23.8068C82.6395 23.3793 82.5335 22.8506 82.5335 22.2209V17.3636H84.02V22.0419C84.02 22.5623 84.1642 22.9766 84.4525 23.2848C84.7409 23.593 85.1154 23.7472 85.5761 23.7472C85.8545 23.7472 86.1312 23.6776 86.4063 23.5384C86.6847 23.3991 86.9151 23.1887 87.0974 22.907C87.283 22.6252 87.3741 22.2673 87.3708 21.8331ZM90.8596 27.8636V17.3636H92.3113V18.6016H92.4356C92.5218 18.4425 92.6461 18.2585 92.8085 18.0497C92.9709 17.8409 93.1963 17.6586 93.4846 17.5028C93.773 17.3438 94.1541 17.2642 94.6281 17.2642C95.2446 17.2642 95.7948 17.42 96.2787 17.7315C96.7626 18.0431 97.1421 18.4922 97.4172 19.0788C97.6956 19.6655 97.8348 20.3714 97.8348 21.1967C97.8348 22.022 97.6972 22.7296 97.4221 23.3196C97.147 23.9062 96.7692 24.3587 96.2886 24.6768C95.808 24.9917 95.2595 25.1491 94.643 25.1491C94.179 25.1491 93.7995 25.0713 93.5045 24.9155C93.2129 24.7597 92.9842 24.5774 92.8184 24.3686C92.6527 24.1598 92.5251 23.9742 92.4356 23.8118H92.3461V27.8636H90.8596ZM92.3163 21.1818C92.3163 21.7187 92.3942 22.1894 92.55 22.5938C92.7058 22.9981 92.9311 23.3146 93.2261 23.5433C93.5211 23.7687 93.8824 23.8814 94.3099 23.8814C94.7541 23.8814 95.1253 23.7637 95.4236 23.5284C95.7219 23.2898 95.9472 22.9666 96.0997 22.5589C96.2555 22.1513 96.3334 21.6922 96.3334 21.1818C96.3334 20.678 96.2571 20.2256 96.1047 19.8246C95.9555 19.4235 95.7301 19.107 95.4285 18.875C95.1302 18.643 94.7574 18.527 94.3099 18.527C93.8791 18.527 93.5145 18.638 93.2162 18.8601C92.9212 19.0821 92.6975 19.392 92.545 19.7898C92.3925 20.1875 92.3163 20.6515 92.3163 21.1818ZM99.5003 27.8636V17.3636H100.952V18.6016H101.076C101.162 18.4425 101.287 18.2585 101.449 18.0497C101.612 17.8409 101.837 17.6586 102.125 17.5028C102.414 17.3438 102.795 17.2642 103.269 17.2642C103.885 17.2642 104.435 17.42 104.919 17.7315C105.403 18.0431 105.783 18.4922 106.058 19.0788C106.336 19.6655 106.475 20.3714 106.475 21.1967C106.475 22.022 106.338 22.7296 106.063 23.3196C105.788 23.9062 105.41 24.3587 104.929 24.6768C104.449 24.9917 103.9 25.1491 103.284 25.1491C102.82 25.1491 102.44 25.0713 102.145 24.9155C101.853 24.7597 101.625 24.5774 101.459 24.3686C101.293 24.1598 101.166 23.9742 101.076 23.8118H100.987V27.8636H99.5003ZM100.957 21.1818C100.957 21.7187 101.035 22.1894 101.191 22.5938C101.346 22.9981 101.572 23.3146 101.867 23.5433C102.162 23.7687 102.523 23.8814 102.951 23.8814C103.395 23.8814 103.766 23.7637 104.064 23.5284C104.362 23.2898 104.588 22.9666 104.74 22.5589C104.896 22.1513 104.974 21.6922 104.974 21.1818C104.974 20.678 104.898 20.2256 104.745 19.8246C104.596 19.4235 104.371 19.107 104.069 18.875C103.771 18.643 103.398 18.527 102.951 18.527C102.52 18.527 102.155 18.638 101.857 18.8601C101.562 19.0821 101.338 19.392 101.186 19.7898C101.033 20.1875 100.957 20.6515 100.957 21.1818ZM111.358 25.1541C110.642 25.1541 110.017 24.9901 109.483 24.6619C108.95 24.3338 108.535 23.8748 108.24 23.2848C107.945 22.6948 107.798 22.0054 107.798 21.2166C107.798 20.4245 107.945 19.7318 108.24 19.1385C108.535 18.5452 108.95 18.0845 109.483 17.7564C110.017 17.4283 110.642 17.2642 111.358 17.2642C112.073 17.2642 112.698 17.4283 113.232 17.7564C113.765 18.0845 114.18 18.5452 114.475 19.1385C114.77 19.7318 114.917 20.4245 114.917 21.2166C114.917 22.0054 114.77 22.6948 114.475 23.2848C114.18 23.8748 113.765 24.3338 113.232 24.6619C112.698 24.9901 112.073 25.1541 111.358 25.1541ZM111.362 23.9062C111.826 23.9062 112.211 23.7836 112.516 23.5384C112.821 23.2931 113.046 22.9666 113.192 22.5589C113.341 22.1513 113.416 21.7022 113.416 21.2116C113.416 20.7244 113.341 20.277 113.192 19.8693C113.046 19.4583 112.821 19.1286 112.516 18.88C112.211 18.6314 111.826 18.5071 111.362 18.5071C110.895 18.5071 110.507 18.6314 110.199 18.88C109.894 19.1286 109.667 19.4583 109.518 19.8693C109.372 20.277 109.299 20.7244 109.299 21.2116C109.299 21.7022 109.372 22.1513 109.518 22.5589C109.667 22.9666 109.894 23.2931 110.199 23.5384C110.507 23.7836 110.895 23.9062 111.362 23.9062ZM116.576 25V17.3636H118.013V18.5767H118.093C118.232 18.1657 118.477 17.8426 118.829 17.6072C119.183 17.3686 119.584 17.2493 120.032 17.2493C120.124 17.2493 120.234 17.2526 120.36 17.2592C120.489 17.2659 120.59 17.2741 120.663 17.2841V18.706C120.603 18.6894 120.497 18.6712 120.345 18.6513C120.192 18.6281 120.04 18.6165 119.888 18.6165C119.536 18.6165 119.223 18.6911 118.948 18.8402C118.676 18.986 118.461 19.1899 118.302 19.4517C118.142 19.7102 118.063 20.0052 118.063 20.3366V25H116.576ZM125.965 17.3636V18.5568H121.794V17.3636H125.965ZM122.913 15.5341H124.399V22.7578C124.399 23.0462 124.442 23.2633 124.528 23.4091C124.615 23.5516 124.726 23.6494 124.862 23.7024C125.001 23.7521 125.152 23.777 125.314 23.777C125.433 23.777 125.538 23.7687 125.627 23.7521C125.717 23.7356 125.786 23.7223 125.836 23.7124L126.104 24.9403C126.018 24.9735 125.896 25.0066 125.737 25.0398C125.578 25.0762 125.379 25.0961 125.14 25.0994C124.749 25.1061 124.384 25.0365 124.046 24.8906C123.708 24.7448 123.435 24.5194 123.226 24.2145C123.017 23.9096 122.913 23.5268 122.913 23.0661V15.5341Z" fill="white"/>
<rect opacity="0.24" x="3" y="2" width="149" height="36" rx="15" fill="url(#paint2_linear_5925_6650)"/>
<rect opacity="0.24" x="3" y="2" width="149" height="36" rx="15" fill="url(#paint3_linear_5925_6650)"/>
<path d="M24.9649 18.1293H23.4138C23.3541 17.7978 23.2431 17.5062 23.0807 17.2543C22.9183 17.0024 22.7194 16.7886 22.4841 16.6129C22.2488 16.4373 21.9853 16.3047 21.6936 16.2152C21.4053 16.1257 21.0987 16.081 20.7739 16.081C20.1872 16.081 19.6619 16.2285 19.1979 16.5234C18.7372 16.8184 18.3726 17.2509 18.1041 17.821C17.839 18.3911 17.7064 19.0871 17.7064 19.9091C17.7064 20.7377 17.839 21.437 18.1041 22.0071C18.3726 22.5772 18.7388 23.008 19.2029 23.2997C19.6669 23.5914 20.1889 23.7372 20.7689 23.7372C21.0904 23.7372 21.3953 23.6941 21.6837 23.608C21.9753 23.5185 22.2388 23.3875 22.4742 23.2152C22.7095 23.0429 22.9084 22.8324 23.0708 22.5838C23.2365 22.3319 23.3508 22.0436 23.4138 21.7188L24.9649 21.7237C24.8821 22.2242 24.7213 22.6849 24.4827 23.1058C24.2474 23.5234 23.9441 23.8847 23.5729 24.1896C23.205 24.4912 22.7841 24.7249 22.3101 24.8906C21.8361 25.0563 21.3191 25.1392 20.759 25.1392C19.8773 25.1392 19.0918 24.9304 18.4024 24.5128C17.713 24.0919 17.1695 23.4903 16.7718 22.7081C16.3773 21.9259 16.1801 20.9929 16.1801 19.9091C16.1801 18.822 16.379 17.889 16.7767 17.1101C17.1744 16.3279 17.718 15.728 18.4074 15.3104C19.0968 14.8894 19.8807 14.679 20.759 14.679C21.2992 14.679 21.803 14.7569 22.2703 14.9126C22.741 15.0651 23.1636 15.2905 23.5381 15.5888C23.9126 15.8838 24.2225 16.245 24.4678 16.6726C24.713 17.0968 24.8788 17.5824 24.9649 18.1293ZM29.9005 25.1541C29.1846 25.1541 28.5598 24.9901 28.0262 24.6619C27.4926 24.3338 27.0783 23.8748 26.7833 23.2848C26.4883 22.6948 26.3408 22.0054 26.3408 21.2166C26.3408 20.4245 26.4883 19.7318 26.7833 19.1385C27.0783 18.5452 27.4926 18.0845 28.0262 17.7564C28.5598 17.4283 29.1846 17.2642 29.9005 17.2642C30.6164 17.2642 31.2412 17.4283 31.7748 17.7564C32.3084 18.0845 32.7227 18.5452 33.0177 19.1385C33.3126 19.7318 33.4601 20.4245 33.4601 21.2166C33.4601 22.0054 33.3126 22.6948 33.0177 23.2848C32.7227 23.8748 32.3084 24.3338 31.7748 24.6619C31.2412 24.9901 30.6164 25.1541 29.9005 25.1541ZM29.9055 23.9062C30.3695 23.9062 30.7539 23.7836 31.0589 23.5384C31.3638 23.2931 31.5892 22.9666 31.735 22.5589C31.8841 22.1513 31.9587 21.7022 31.9587 21.2116C31.9587 20.7244 31.8841 20.277 31.735 19.8693C31.5892 19.4583 31.3638 19.1286 31.0589 18.88C30.7539 18.6314 30.3695 18.5071 29.9055 18.5071C29.4381 18.5071 29.0503 18.6314 28.7421 18.88C28.4372 19.1286 28.2101 19.4583 28.061 19.8693C27.9152 20.277 27.8422 20.7244 27.8422 21.2116C27.8422 21.7022 27.9152 22.1513 28.061 22.5589C28.2101 22.9666 28.4372 23.2931 28.7421 23.5384C29.0503 23.7836 29.4381 23.9062 29.9055 23.9062ZM36.6059 20.4659V25H35.1194V17.3636H36.5463V18.6065H36.6407C36.8164 18.2022 37.0915 17.8774 37.466 17.6321C37.8438 17.3868 38.3195 17.2642 38.8928 17.2642C39.4132 17.2642 39.8689 17.3736 40.26 17.5923C40.6511 17.8078 40.9544 18.1293 41.1698 18.5568C41.3853 18.9844 41.493 19.513 41.493 20.1428V25H40.0065V20.3217C40.0065 19.7682 39.8623 19.3357 39.574 19.0241C39.2856 18.7093 38.8895 18.5518 38.3857 18.5518C38.041 18.5518 37.7345 18.6264 37.466 18.7756C37.2008 18.9247 36.9904 19.1435 36.8346 19.4318C36.6821 19.7169 36.6059 20.0616 36.6059 20.4659ZM47.0512 17.3636V18.5568H42.8801V17.3636H47.0512ZM43.9987 15.5341H45.4852V22.7578C45.4852 23.0462 45.5283 23.2633 45.6144 23.4091C45.7006 23.5516 45.8116 23.6494 45.9475 23.7024C46.0867 23.7521 46.2375 23.777 46.3999 23.777C46.5193 23.777 46.6237 23.7687 46.7132 23.7521C46.8026 23.7356 46.8722 23.7223 46.922 23.7124L47.1904 24.9403C47.1043 24.9735 46.9816 25.0066 46.8225 25.0398C46.6634 25.0762 46.4646 25.0961 46.2259 25.0994C45.8348 25.1061 45.4703 25.0365 45.1322 24.8906C44.7941 24.7448 44.5207 24.5194 44.3119 24.2145C44.1031 23.9096 43.9987 23.5268 43.9987 23.0661V15.5341ZM50.9179 25.169C50.434 25.169 49.9965 25.0795 49.6054 24.9006C49.2143 24.7183 48.9044 24.4548 48.6757 24.1101C48.4503 23.7654 48.3376 23.3428 48.3376 22.8423C48.3376 22.4115 48.4205 22.0568 48.5862 21.7784C48.7519 21.5 48.9756 21.2796 49.2574 21.1172C49.5391 20.9548 49.854 20.8321 50.202 20.7493C50.55 20.6664 50.9046 20.6035 51.2659 20.5604C51.7233 20.5073 52.0945 20.4643 52.3795 20.4311C52.6646 20.3946 52.8717 20.3366 53.001 20.2571C53.1302 20.1776 53.1949 20.0483 53.1949 19.8693V19.8345C53.1949 19.4003 53.0722 19.0639 52.827 18.8253C52.585 18.5866 52.2238 18.4673 51.7432 18.4673C51.2427 18.4673 50.8483 18.5784 50.5599 18.8004C50.2749 19.0192 50.0777 19.2628 49.9683 19.5312L48.5713 19.2131C48.737 18.7491 48.979 18.3745 49.2971 18.0895C49.6186 17.8011 49.9882 17.5923 50.4058 17.4631C50.8234 17.3305 51.2626 17.2642 51.7233 17.2642C52.0282 17.2642 52.3514 17.3007 52.6927 17.3736C53.0374 17.4432 53.3589 17.5724 53.6572 17.7614C53.9588 17.9503 54.2058 18.2204 54.398 18.5717C54.5902 18.9197 54.6863 19.3722 54.6863 19.929V25H53.2346V23.956H53.175C53.0789 24.1482 52.9347 24.3371 52.7425 24.5227C52.5502 24.7083 52.3033 24.8625 52.0017 24.9851C51.7001 25.1077 51.3388 25.169 50.9179 25.169ZM51.241 23.9759C51.652 23.9759 52.0033 23.8946 52.295 23.7322C52.59 23.5698 52.8137 23.3577 52.9662 23.0959C53.122 22.8307 53.1998 22.5473 53.1998 22.2457V21.2614C53.1468 21.3144 53.0441 21.3641 52.8916 21.4105C52.7425 21.4536 52.5718 21.4917 52.3795 21.5249C52.1873 21.5547 52 21.5829 51.8177 21.6094C51.6354 21.6326 51.483 21.6525 51.3604 21.669C51.072 21.7055 50.8085 21.7668 50.5699 21.853C50.3345 21.9392 50.1456 22.0634 50.0031 22.2259C49.8639 22.3849 49.7943 22.5971 49.7943 22.8622C49.7943 23.2301 49.9302 23.5085 50.202 23.6974C50.4738 23.883 50.8201 23.9759 51.241 23.9759ZM59.8829 25.1541C59.1438 25.1541 58.5074 24.9867 57.9738 24.652C57.4435 24.3139 57.0358 23.8482 56.7508 23.255C56.4658 22.6617 56.3232 21.9822 56.3232 21.2166C56.3232 20.4411 56.4691 19.7566 56.7607 19.1634C57.0524 18.5668 57.4634 18.1011 57.9937 17.7663C58.524 17.4316 59.1488 17.2642 59.868 17.2642C60.448 17.2642 60.9651 17.3719 61.4191 17.5874C61.8732 17.7995 62.2394 18.0978 62.5178 18.4822C62.7996 18.8667 62.9669 19.3158 63.02 19.8295H61.5732C61.4937 19.4716 61.3114 19.1634 61.0264 18.9048C60.7446 18.6463 60.3668 18.517 59.8928 18.517C59.4785 18.517 59.1156 18.6264 58.8041 18.8452C58.4958 19.0606 58.2555 19.3688 58.0832 19.7699C57.9108 20.1676 57.8247 20.6383 57.8247 21.1818C57.8247 21.7386 57.9092 22.2192 58.0782 22.6236C58.2472 23.0279 58.4859 23.3411 58.7941 23.5632C59.1057 23.7853 59.4719 23.8963 59.8928 23.8963C60.1746 23.8963 60.4298 23.8449 60.6585 23.7422C60.8905 23.6361 61.0844 23.4853 61.2401 23.2898C61.3992 23.0942 61.5103 22.8589 61.5732 22.5838H63.02C62.9669 23.0777 62.8062 23.5185 62.5377 23.9062C62.2693 24.294 61.9097 24.599 61.4589 24.821C61.0115 25.0431 60.4861 25.1541 59.8829 25.1541ZM68.1743 17.3636V18.5568H64.0031V17.3636H68.1743ZM65.1217 15.5341H66.6082V22.7578C66.6082 23.0462 66.6513 23.2633 66.7375 23.4091C66.8237 23.5516 66.9347 23.6494 67.0706 23.7024C67.2098 23.7521 67.3606 23.777 67.523 23.777C67.6423 23.777 67.7467 23.7687 67.8362 23.7521C67.9257 23.7356 67.9953 23.7223 68.045 23.7124L68.3135 24.9403C68.2273 24.9735 68.1047 25.0066 67.9456 25.0398C67.7865 25.0762 67.5876 25.0961 67.349 25.0994C66.9579 25.1061 66.5933 25.0365 66.2552 24.8906C65.9172 24.7448 65.6437 24.5194 65.4349 24.2145C65.2261 23.9096 65.1217 23.5268 65.1217 23.0661V15.5341ZM79.1963 17.4929C79.1433 17.0223 78.9245 16.6577 78.54 16.3991C78.1556 16.1373 77.6717 16.0064 77.0883 16.0064C76.6707 16.0064 76.3095 16.0727 76.0045 16.2053C75.6996 16.3345 75.4626 16.5135 75.2936 16.7422C75.1279 16.9676 75.045 17.2244 75.045 17.5128C75.045 17.7547 75.1014 17.9635 75.214 18.1392C75.33 18.3149 75.4809 18.4624 75.6665 18.5817C75.8554 18.6977 76.0576 18.7955 76.273 18.875C76.4884 18.9512 76.6956 19.0142 76.8944 19.0639L77.8888 19.3224C78.2136 19.402 78.5467 19.5097 78.8881 19.6456C79.2294 19.7815 79.546 19.9605 79.8376 20.1825C80.1293 20.4046 80.3646 20.6797 80.5436 21.0078C80.7259 21.3359 80.817 21.7287 80.817 22.1861C80.817 22.7628 80.6679 23.2749 80.3696 23.7223C80.0746 24.1697 79.6454 24.5227 79.0819 24.7812C78.5218 25.0398 77.844 25.169 77.0486 25.169C76.2863 25.169 75.6267 25.0481 75.0699 24.8061C74.5131 24.5642 74.0772 24.2211 73.7623 23.777C73.4475 23.3295 73.2735 22.7992 73.2403 22.1861H74.7815C74.8113 22.554 74.9307 22.8606 75.1395 23.1058C75.3516 23.3478 75.6217 23.5284 75.9498 23.6477C76.2813 23.7637 76.6442 23.8217 77.0386 23.8217C77.4728 23.8217 77.8589 23.7538 78.197 23.6179C78.5384 23.4787 78.8068 23.2865 79.0024 23.0412C79.1979 22.7926 79.2957 22.5026 79.2957 22.1712C79.2957 21.8696 79.2095 21.6226 79.0372 21.4304C78.8682 21.2382 78.6378 21.0791 78.3461 20.9531C78.0578 20.8272 77.7313 20.7161 77.3667 20.62L76.1636 20.2919C75.3483 20.0698 74.702 19.7434 74.2247 19.3125C73.7507 18.8816 73.5138 18.3116 73.5138 17.6023C73.5138 17.0156 73.6729 16.5036 73.991 16.0661C74.3092 15.6286 74.7401 15.2888 75.2836 15.0469C75.8272 14.8016 76.4404 14.679 77.1231 14.679C77.8125 14.679 78.4207 14.8 78.9477 15.0419C79.478 15.2839 79.8956 15.617 80.2006 16.0412C80.5055 16.4621 80.6646 16.946 80.6778 17.4929H79.1963ZM87.3708 21.8331V17.3636H88.8623V25H87.4007V23.6776H87.3211C87.1454 24.0852 86.8637 24.425 86.4759 24.6967C86.0915 24.9652 85.6125 25.0994 85.0392 25.0994C84.5486 25.0994 84.1144 24.9917 83.7366 24.7763C83.3621 24.5575 83.0671 24.2344 82.8517 23.8068C82.6395 23.3793 82.5335 22.8506 82.5335 22.2209V17.3636H84.02V22.0419C84.02 22.5623 84.1642 22.9766 84.4525 23.2848C84.7409 23.593 85.1154 23.7472 85.5761 23.7472C85.8545 23.7472 86.1312 23.6776 86.4063 23.5384C86.6847 23.3991 86.9151 23.1887 87.0974 22.907C87.283 22.6252 87.3741 22.2673 87.3708 21.8331ZM90.8596 27.8636V17.3636H92.3113V18.6016H92.4356C92.5218 18.4425 92.6461 18.2585 92.8085 18.0497C92.9709 17.8409 93.1963 17.6586 93.4846 17.5028C93.773 17.3438 94.1541 17.2642 94.6281 17.2642C95.2446 17.2642 95.7948 17.42 96.2787 17.7315C96.7626 18.0431 97.1421 18.4922 97.4172 19.0788C97.6956 19.6655 97.8348 20.3714 97.8348 21.1967C97.8348 22.022 97.6972 22.7296 97.4221 23.3196C97.147 23.9062 96.7692 24.3587 96.2886 24.6768C95.808 24.9917 95.2595 25.1491 94.643 25.1491C94.179 25.1491 93.7995 25.0713 93.5045 24.9155C93.2129 24.7597 92.9842 24.5774 92.8184 24.3686C92.6527 24.1598 92.5251 23.9742 92.4356 23.8118H92.3461V27.8636H90.8596ZM92.3163 21.1818C92.3163 21.7187 92.3942 22.1894 92.55 22.5938C92.7058 22.9981 92.9311 23.3146 93.2261 23.5433C93.5211 23.7687 93.8824 23.8814 94.3099 23.8814C94.7541 23.8814 95.1253 23.7637 95.4236 23.5284C95.7219 23.2898 95.9472 22.9666 96.0997 22.5589C96.2555 22.1513 96.3334 21.6922 96.3334 21.1818C96.3334 20.678 96.2571 20.2256 96.1047 19.8246C95.9555 19.4235 95.7301 19.107 95.4285 18.875C95.1302 18.643 94.7574 18.527 94.3099 18.527C93.8791 18.527 93.5145 18.638 93.2162 18.8601C92.9212 19.0821 92.6975 19.392 92.545 19.7898C92.3925 20.1875 92.3163 20.6515 92.3163 21.1818ZM99.5003 27.8636V17.3636H100.952V18.6016H101.076C101.162 18.4425 101.287 18.2585 101.449 18.0497C101.612 17.8409 101.837 17.6586 102.125 17.5028C102.414 17.3438 102.795 17.2642 103.269 17.2642C103.885 17.2642 104.435 17.42 104.919 17.7315C105.403 18.0431 105.783 18.4922 106.058 19.0788C106.336 19.6655 106.475 20.3714 106.475 21.1967C106.475 22.022 106.338 22.7296 106.063 23.3196C105.788 23.9062 105.41 24.3587 104.929 24.6768C104.449 24.9917 103.9 25.1491 103.284 25.1491C102.82 25.1491 102.44 25.0713 102.145 24.9155C101.853 24.7597 101.625 24.5774 101.459 24.3686C101.293 24.1598 101.166 23.9742 101.076 23.8118H100.987V27.8636H99.5003ZM100.957 21.1818C100.957 21.7187 101.035 22.1894 101.191 22.5938C101.346 22.9981 101.572 23.3146 101.867 23.5433C102.162 23.7687 102.523 23.8814 102.951 23.8814C103.395 23.8814 103.766 23.7637 104.064 23.5284C104.362 23.2898 104.588 22.9666 104.74 22.5589C104.896 22.1513 104.974 21.6922 104.974 21.1818C104.974 20.678 104.898 20.2256 104.745 19.8246C104.596 19.4235 104.371 19.107 104.069 18.875C103.771 18.643 103.398 18.527 102.951 18.527C102.52 18.527 102.155 18.638 101.857 18.8601C101.562 19.0821 101.338 19.392 101.186 19.7898C101.033 20.1875 100.957 20.6515 100.957 21.1818ZM111.358 25.1541C110.642 25.1541 110.017 24.9901 109.483 24.6619C108.95 24.3338 108.535 23.8748 108.24 23.2848C107.945 22.6948 107.798 22.0054 107.798 21.2166C107.798 20.4245 107.945 19.7318 108.24 19.1385C108.535 18.5452 108.95 18.0845 109.483 17.7564C110.017 17.4283 110.642 17.2642 111.358 17.2642C112.073 17.2642 112.698 17.4283 113.232 17.7564C113.765 18.0845 114.18 18.5452 114.475 19.1385C114.77 19.7318 114.917 20.4245 114.917 21.2166C114.917 22.0054 114.77 22.6948 114.475 23.2848C114.18 23.8748 113.765 24.3338 113.232 24.6619C112.698 24.9901 112.073 25.1541 111.358 25.1541ZM111.362 23.9062C111.826 23.9062 112.211 23.7836 112.516 23.5384C112.821 23.2931 113.046 22.9666 113.192 22.5589C113.341 22.1513 113.416 21.7022 113.416 21.2116C113.416 20.7244 113.341 20.277 113.192 19.8693C113.046 19.4583 112.821 19.1286 112.516 18.88C112.211 18.6314 111.826 18.5071 111.362 18.5071C110.895 18.5071 110.507 18.6314 110.199 18.88C109.894 19.1286 109.667 19.4583 109.518 19.8693C109.372 20.277 109.299 20.7244 109.299 21.2116C109.299 21.7022 109.372 22.1513 109.518 22.5589C109.667 22.9666 109.894 23.2931 110.199 23.5384C110.507 23.7836 110.895 23.9062 111.362 23.9062ZM116.576 25V17.3636H118.013V18.5767H118.093C118.232 18.1657 118.477 17.8426 118.829 17.6072C119.183 17.3686 119.584 17.2493 120.032 17.2493C120.124 17.2493 120.234 17.2526 120.36 17.2592C120.489 17.2659 120.59 17.2741 120.663 17.2841V18.706C120.603 18.6894 120.497 18.6712 120.345 18.6513C120.192 18.6281 120.04 18.6165 119.888 18.6165C119.536 18.6165 119.223 18.6911 118.948 18.8402C118.676 18.986 118.461 19.1899 118.302 19.4517C118.142 19.7102 118.063 20.0052 118.063 20.3366V25H116.576ZM125.965 17.3636V18.5568H121.794V17.3636H125.965ZM122.913 15.5341H124.399V22.7578C124.399 23.0462 124.442 23.2633 124.528 23.4091C124.615 23.5516 124.726 23.6494 124.862 23.7024C125.001 23.7521 125.152 23.777 125.314 23.777C125.433 23.777 125.538 23.7687 125.627 23.7521C125.717 23.7356 125.786 23.7223 125.836 23.7124L126.104 24.9403C126.018 24.9735 125.896 25.0066 125.737 25.0398C125.578 25.0762 125.379 25.0961 125.14 25.0994C124.749 25.1061 124.384 25.0365 124.046 24.8906C123.708 24.7448 123.435 24.5194 123.226 24.2145C123.017 23.9096 122.913 23.5268 122.913 23.0661V15.5341Z" fill="white"/>
<path d="M24.9649 18.1293H23.4138C23.3541 17.7978 23.2431 17.5062 23.0807 17.2543C22.9183 17.0024 22.7194 16.7886 22.4841 16.6129C22.2488 16.4373 21.9853 16.3047 21.6936 16.2152C21.4053 16.1257 21.0987 16.081 20.7739 16.081C20.1872 16.081 19.6619 16.2285 19.1979 16.5234C18.7372 16.8184 18.3726 17.2509 18.1041 17.821C17.839 18.3911 17.7064 19.0871 17.7064 19.9091C17.7064 20.7377 17.839 21.437 18.1041 22.0071C18.3726 22.5772 18.7388 23.008 19.2029 23.2997C19.6669 23.5914 20.1889 23.7372 20.7689 23.7372C21.0904 23.7372 21.3953 23.6941 21.6837 23.608C21.9753 23.5185 22.2388 23.3875 22.4742 23.2152C22.7095 23.0429 22.9084 22.8324 23.0708 22.5838C23.2365 22.3319 23.3508 22.0436 23.4138 21.7188L24.9649 21.7237C24.8821 22.2242 24.7213 22.6849 24.4827 23.1058C24.2474 23.5234 23.9441 23.8847 23.5729 24.1896C23.205 24.4912 22.7841 24.7249 22.3101 24.8906C21.8361 25.0563 21.3191 25.1392 20.759 25.1392C19.8773 25.1392 19.0918 24.9304 18.4024 24.5128C17.713 24.0919 17.1695 23.4903 16.7718 22.7081C16.3773 21.9259 16.1801 20.9929 16.1801 19.9091C16.1801 18.822 16.379 17.889 16.7767 17.1101C17.1744 16.3279 17.718 15.728 18.4074 15.3104C19.0968 14.8894 19.8807 14.679 20.759 14.679C21.2992 14.679 21.803 14.7569 22.2703 14.9126C22.741 15.0651 23.1636 15.2905 23.5381 15.5888C23.9126 15.8838 24.2225 16.245 24.4678 16.6726C24.713 17.0968 24.8788 17.5824 24.9649 18.1293ZM29.9005 25.1541C29.1846 25.1541 28.5598 24.9901 28.0262 24.6619C27.4926 24.3338 27.0783 23.8748 26.7833 23.2848C26.4883 22.6948 26.3408 22.0054 26.3408 21.2166C26.3408 20.4245 26.4883 19.7318 26.7833 19.1385C27.0783 18.5452 27.4926 18.0845 28.0262 17.7564C28.5598 17.4283 29.1846 17.2642 29.9005 17.2642C30.6164 17.2642 31.2412 17.4283 31.7748 17.7564C32.3084 18.0845 32.7227 18.5452 33.0177 19.1385C33.3126 19.7318 33.4601 20.4245 33.4601 21.2166C33.4601 22.0054 33.3126 22.6948 33.0177 23.2848C32.7227 23.8748 32.3084 24.3338 31.7748 24.6619C31.2412 24.9901 30.6164 25.1541 29.9005 25.1541ZM29.9055 23.9062C30.3695 23.9062 30.7539 23.7836 31.0589 23.5384C31.3638 23.2931 31.5892 22.9666 31.735 22.5589C31.8841 22.1513 31.9587 21.7022 31.9587 21.2116C31.9587 20.7244 31.8841 20.277 31.735 19.8693C31.5892 19.4583 31.3638 19.1286 31.0589 18.88C30.7539 18.6314 30.3695 18.5071 29.9055 18.5071C29.4381 18.5071 29.0503 18.6314 28.7421 18.88C28.4372 19.1286 28.2101 19.4583 28.061 19.8693C27.9152 20.277 27.8422 20.7244 27.8422 21.2116C27.8422 21.7022 27.9152 22.1513 28.061 22.5589C28.2101 22.9666 28.4372 23.2931 28.7421 23.5384C29.0503 23.7836 29.4381 23.9062 29.9055 23.9062ZM36.6059 20.4659V25H35.1194V17.3636H36.5463V18.6065H36.6407C36.8164 18.2022 37.0915 17.8774 37.466 17.6321C37.8438 17.3868 38.3195 17.2642 38.8928 17.2642C39.4132 17.2642 39.8689 17.3736 40.26 17.5923C40.6511 17.8078 40.9544 18.1293 41.1698 18.5568C41.3853 18.9844 41.493 19.513 41.493 20.1428V25H40.0065V20.3217C40.0065 19.7682 39.8623 19.3357 39.574 19.0241C39.2856 18.7093 38.8895 18.5518 38.3857 18.5518C38.041 18.5518 37.7345 18.6264 37.466 18.7756C37.2008 18.9247 36.9904 19.1435 36.8346 19.4318C36.6821 19.7169 36.6059 20.0616 36.6059 20.4659ZM47.0512 17.3636V18.5568H42.8801V17.3636H47.0512ZM43.9987 15.5341H45.4852V22.7578C45.4852 23.0462 45.5283 23.2633 45.6144 23.4091C45.7006 23.5516 45.8116 23.6494 45.9475 23.7024C46.0867 23.7521 46.2375 23.777 46.3999 23.777C46.5193 23.777 46.6237 23.7687 46.7132 23.7521C46.8026 23.7356 46.8722 23.7223 46.922 23.7124L47.1904 24.9403C47.1043 24.9735 46.9816 25.0066 46.8225 25.0398C46.6634 25.0762 46.4646 25.0961 46.2259 25.0994C45.8348 25.1061 45.4703 25.0365 45.1322 24.8906C44.7941 24.7448 44.5207 24.5194 44.3119 24.2145C44.1031 23.9096 43.9987 23.5268 43.9987 23.0661V15.5341ZM50.9179 25.169C50.434 25.169 49.9965 25.0795 49.6054 24.9006C49.2143 24.7183 48.9044 24.4548 48.6757 24.1101C48.4503 23.7654 48.3376 23.3428 48.3376 22.8423C48.3376 22.4115 48.4205 22.0568 48.5862 21.7784C48.7519 21.5 48.9756 21.2796 49.2574 21.1172C49.5391 20.9548 49.854 20.8321 50.202 20.7493C50.55 20.6664 50.9046 20.6035 51.2659 20.5604C51.7233 20.5073 52.0945 20.4643 52.3795 20.4311C52.6646 20.3946 52.8717 20.3366 53.001 20.2571C53.1302 20.1776 53.1949 20.0483 53.1949 19.8693V19.8345C53.1949 19.4003 53.0722 19.0639 52.827 18.8253C52.585 18.5866 52.2238 18.4673 51.7432 18.4673C51.2427 18.4673 50.8483 18.5784 50.5599 18.8004C50.2749 19.0192 50.0777 19.2628 49.9683 19.5312L48.5713 19.2131C48.737 18.7491 48.979 18.3745 49.2971 18.0895C49.6186 17.8011 49.9882 17.5923 50.4058 17.4631C50.8234 17.3305 51.2626 17.2642 51.7233 17.2642C52.0282 17.2642 52.3514 17.3007 52.6927 17.3736C53.0374 17.4432 53.3589 17.5724 53.6572 17.7614C53.9588 17.9503 54.2058 18.2204 54.398 18.5717C54.5902 18.9197 54.6863 19.3722 54.6863 19.929V25H53.2346V23.956H53.175C53.0789 24.1482 52.9347 24.3371 52.7425 24.5227C52.5502 24.7083 52.3033 24.8625 52.0017 24.9851C51.7001 25.1077 51.3388 25.169 50.9179 25.169ZM51.241 23.9759C51.652 23.9759 52.0033 23.8946 52.295 23.7322C52.59 23.5698 52.8137 23.3577 52.9662 23.0959C53.122 22.8307 53.1998 22.5473 53.1998 22.2457V21.2614C53.1468 21.3144 53.0441 21.3641 52.8916 21.4105C52.7425 21.4536 52.5718 21.4917 52.3795 21.5249C52.1873 21.5547 52 21.5829 51.8177 21.6094C51.6354 21.6326 51.483 21.6525 51.3604 21.669C51.072 21.7055 50.8085 21.7668 50.5699 21.853C50.3345 21.9392 50.1456 22.0634 50.0031 22.2259C49.8639 22.3849 49.7943 22.5971 49.7943 22.8622C49.7943 23.2301 49.9302 23.5085 50.202 23.6974C50.4738 23.883 50.8201 23.9759 51.241 23.9759ZM59.8829 25.1541C59.1438 25.1541 58.5074 24.9867 57.9738 24.652C57.4435 24.3139 57.0358 23.8482 56.7508 23.255C56.4658 22.6617 56.3232 21.9822 56.3232 21.2166C56.3232 20.4411 56.4691 19.7566 56.7607 19.1634C57.0524 18.5668 57.4634 18.1011 57.9937 17.7663C58.524 17.4316 59.1488 17.2642 59.868 17.2642C60.448 17.2642 60.9651 17.3719 61.4191 17.5874C61.8732 17.7995 62.2394 18.0978 62.5178 18.4822C62.7996 18.8667 62.9669 19.3158 63.02 19.8295H61.5732C61.4937 19.4716 61.3114 19.1634 61.0264 18.9048C60.7446 18.6463 60.3668 18.517 59.8928 18.517C59.4785 18.517 59.1156 18.6264 58.8041 18.8452C58.4958 19.0606 58.2555 19.3688 58.0832 19.7699C57.9108 20.1676 57.8247 20.6383 57.8247 21.1818C57.8247 21.7386 57.9092 22.2192 58.0782 22.6236C58.2472 23.0279 58.4859 23.3411 58.7941 23.5632C59.1057 23.7853 59.4719 23.8963 59.8928 23.8963C60.1746 23.8963 60.4298 23.8449 60.6585 23.7422C60.8905 23.6361 61.0844 23.4853 61.2401 23.2898C61.3992 23.0942 61.5103 22.8589 61.5732 22.5838H63.02C62.9669 23.0777 62.8062 23.5185 62.5377 23.9062C62.2693 24.294 61.9097 24.599 61.4589 24.821C61.0115 25.0431 60.4861 25.1541 59.8829 25.1541ZM68.1743 17.3636V18.5568H64.0031V17.3636H68.1743ZM65.1217 15.5341H66.6082V22.7578C66.6082 23.0462 66.6513 23.2633 66.7375 23.4091C66.8237 23.5516 66.9347 23.6494 67.0706 23.7024C67.2098 23.7521 67.3606 23.777 67.523 23.777C67.6423 23.777 67.7467 23.7687 67.8362 23.7521C67.9257 23.7356 67.9953 23.7223 68.045 23.7124L68.3135 24.9403C68.2273 24.9735 68.1047 25.0066 67.9456 25.0398C67.7865 25.0762 67.5876 25.0961 67.349 25.0994C66.9579 25.1061 66.5933 25.0365 66.2552 24.8906C65.9172 24.7448 65.6437 24.5194 65.4349 24.2145C65.2261 23.9096 65.1217 23.5268 65.1217 23.0661V15.5341ZM79.1963 17.4929C79.1433 17.0223 78.9245 16.6577 78.54 16.3991C78.1556 16.1373 77.6717 16.0064 77.0883 16.0064C76.6707 16.0064 76.3095 16.0727 76.0045 16.2053C75.6996 16.3345 75.4626 16.5135 75.2936 16.7422C75.1279 16.9676 75.045 17.2244 75.045 17.5128C75.045 17.7547 75.1014 17.9635 75.214 18.1392C75.33 18.3149 75.4809 18.4624 75.6665 18.5817C75.8554 18.6977 76.0576 18.7955 76.273 18.875C76.4884 18.9512 76.6956 19.0142 76.8944 19.0639L77.8888 19.3224C78.2136 19.402 78.5467 19.5097 78.8881 19.6456C79.2294 19.7815 79.546 19.9605 79.8376 20.1825C80.1293 20.4046 80.3646 20.6797 80.5436 21.0078C80.7259 21.3359 80.817 21.7287 80.817 22.1861C80.817 22.7628 80.6679 23.2749 80.3696 23.7223C80.0746 24.1697 79.6454 24.5227 79.0819 24.7812C78.5218 25.0398 77.844 25.169 77.0486 25.169C76.2863 25.169 75.6267 25.0481 75.0699 24.8061C74.5131 24.5642 74.0772 24.2211 73.7623 23.777C73.4475 23.3295 73.2735 22.7992 73.2403 22.1861H74.7815C74.8113 22.554 74.9307 22.8606 75.1395 23.1058C75.3516 23.3478 75.6217 23.5284 75.9498 23.6477C76.2813 23.7637 76.6442 23.8217 77.0386 23.8217C77.4728 23.8217 77.8589 23.7538 78.197 23.6179C78.5384 23.4787 78.8068 23.2865 79.0024 23.0412C79.1979 22.7926 79.2957 22.5026 79.2957 22.1712C79.2957 21.8696 79.2095 21.6226 79.0372 21.4304C78.8682 21.2382 78.6378 21.0791 78.3461 20.9531C78.0578 20.8272 77.7313 20.7161 77.3667 20.62L76.1636 20.2919C75.3483 20.0698 74.702 19.7434 74.2247 19.3125C73.7507 18.8816 73.5138 18.3116 73.5138 17.6023C73.5138 17.0156 73.6729 16.5036 73.991 16.0661C74.3092 15.6286 74.7401 15.2888 75.2836 15.0469C75.8272 14.8016 76.4404 14.679 77.1231 14.679C77.8125 14.679 78.4207 14.8 78.9477 15.0419C79.478 15.2839 79.8956 15.617 80.2006 16.0412C80.5055 16.4621 80.6646 16.946 80.6778 17.4929H79.1963ZM87.3708 21.8331V17.3636H88.8623V25H87.4007V23.6776H87.3211C87.1454 24.0852 86.8637 24.425 86.4759 24.6967C86.0915 24.9652 85.6125 25.0994 85.0392 25.0994C84.5486 25.0994 84.1144 24.9917 83.7366 24.7763C83.3621 24.5575 83.0671 24.2344 82.8517 23.8068C82.6395 23.3793 82.5335 22.8506 82.5335 22.2209V17.3636H84.02V22.0419C84.02 22.5623 84.1642 22.9766 84.4525 23.2848C84.7409 23.593 85.1154 23.7472 85.5761 23.7472C85.8545 23.7472 86.1312 23.6776 86.4063 23.5384C86.6847 23.3991 86.9151 23.1887 87.0974 22.907C87.283 22.6252 87.3741 22.2673 87.3708 21.8331ZM90.8596 27.8636V17.3636H92.3113V18.6016H92.4356C92.5218 18.4425 92.6461 18.2585 92.8085 18.0497C92.9709 17.8409 93.1963 17.6586 93.4846 17.5028C93.773 17.3438 94.1541 17.2642 94.6281 17.2642C95.2446 17.2642 95.7948 17.42 96.2787 17.7315C96.7626 18.0431 97.1421 18.4922 97.4172 19.0788C97.6956 19.6655 97.8348 20.3714 97.8348 21.1967C97.8348 22.022 97.6972 22.7296 97.4221 23.3196C97.147 23.9062 96.7692 24.3587 96.2886 24.6768C95.808 24.9917 95.2595 25.1491 94.643 25.1491C94.179 25.1491 93.7995 25.0713 93.5045 24.9155C93.2129 24.7597 92.9842 24.5774 92.8184 24.3686C92.6527 24.1598 92.5251 23.9742 92.4356 23.8118H92.3461V27.8636H90.8596ZM92.3163 21.1818C92.3163 21.7187 92.3942 22.1894 92.55 22.5938C92.7058 22.9981 92.9311 23.3146 93.2261 23.5433C93.5211 23.7687 93.8824 23.8814 94.3099 23.8814C94.7541 23.8814 95.1253 23.7637 95.4236 23.5284C95.7219 23.2898 95.9472 22.9666 96.0997 22.5589C96.2555 22.1513 96.3334 21.6922 96.3334 21.1818C96.3334 20.678 96.2571 20.2256 96.1047 19.8246C95.9555 19.4235 95.7301 19.107 95.4285 18.875C95.1302 18.643 94.7574 18.527 94.3099 18.527C93.8791 18.527 93.5145 18.638 93.2162 18.8601C92.9212 19.0821 92.6975 19.392 92.545 19.7898C92.3925 20.1875 92.3163 20.6515 92.3163 21.1818ZM99.5003 27.8636V17.3636H100.952V18.6016H101.076C101.162 18.4425 101.287 18.2585 101.449 18.0497C101.612 17.8409 101.837 17.6586 102.125 17.5028C102.414 17.3438 102.795 17.2642 103.269 17.2642C103.885 17.2642 104.435 17.42 104.919 17.7315C105.403 18.0431 105.783 18.4922 106.058 19.0788C106.336 19.6655 106.475 20.3714 106.475 21.1967C106.475 22.022 106.338 22.7296 106.063 23.3196C105.788 23.9062 105.41 24.3587 104.929 24.6768C104.449 24.9917 103.9 25.1491 103.284 25.1491C102.82 25.1491 102.44 25.0713 102.145 24.9155C101.853 24.7597 101.625 24.5774 101.459 24.3686C101.293 24.1598 101.166 23.9742 101.076 23.8118H100.987V27.8636H99.5003ZM100.957 21.1818C100.957 21.7187 101.035 22.1894 101.191 22.5938C101.346 22.9981 101.572 23.3146 101.867 23.5433C102.162 23.7687 102.523 23.8814 102.951 23.8814C103.395 23.8814 103.766 23.7637 104.064 23.5284C104.362 23.2898 104.588 22.9666 104.74 22.5589C104.896 22.1513 104.974 21.6922 104.974 21.1818C104.974 20.678 104.898 20.2256 104.745 19.8246C104.596 19.4235 104.371 19.107 104.069 18.875C103.771 18.643 103.398 18.527 102.951 18.527C102.52 18.527 102.155 18.638 101.857 18.8601C101.562 19.0821 101.338 19.392 101.186 19.7898C101.033 20.1875 100.957 20.6515 100.957 21.1818ZM111.358 25.1541C110.642 25.1541 110.017 24.9901 109.483 24.6619C108.95 24.3338 108.535 23.8748 108.24 23.2848C107.945 22.6948 107.798 22.0054 107.798 21.2166C107.798 20.4245 107.945 19.7318 108.24 19.1385C108.535 18.5452 108.95 18.0845 109.483 17.7564C110.017 17.4283 110.642 17.2642 111.358 17.2642C112.073 17.2642 112.698 17.4283 113.232 17.7564C113.765 18.0845 114.18 18.5452 114.475 19.1385C114.77 19.7318 114.917 20.4245 114.917 21.2166C114.917 22.0054 114.77 22.6948 114.475 23.2848C114.18 23.8748 113.765 24.3338 113.232 24.6619C112.698 24.9901 112.073 25.1541 111.358 25.1541ZM111.362 23.9062C111.826 23.9062 112.211 23.7836 112.516 23.5384C112.821 23.2931 113.046 22.9666 113.192 22.5589C113.341 22.1513 113.416 21.7022 113.416 21.2116C113.416 20.7244 113.341 20.277 113.192 19.8693C113.046 19.4583 112.821 19.1286 112.516 18.88C112.211 18.6314 111.826 18.5071 111.362 18.5071C110.895 18.5071 110.507 18.6314 110.199 18.88C109.894 19.1286 109.667 19.4583 109.518 19.8693C109.372 20.277 109.299 20.7244 109.299 21.2116C109.299 21.7022 109.372 22.1513 109.518 22.5589C109.667 22.9666 109.894 23.2931 110.199 23.5384C110.507 23.7836 110.895 23.9062 111.362 23.9062ZM116.576 25V17.3636H118.013V18.5767H118.093C118.232 18.1657 118.477 17.8426 118.829 17.6072C119.183 17.3686 119.584 17.2493 120.032 17.2493C120.124 17.2493 120.234 17.2526 120.36 17.2592C120.489 17.2659 120.59 17.2741 120.663 17.2841V18.706C120.603 18.6894 120.497 18.6712 120.345 18.6513C120.192 18.6281 120.04 18.6165 119.888 18.6165C119.536 18.6165 119.223 18.6911 118.948 18.8402C118.676 18.986 118.461 19.1899 118.302 19.4517C118.142 19.7102 118.063 20.0052 118.063 20.3366V25H116.576ZM125.965 17.3636V18.5568H121.794V17.3636H125.965ZM122.913 15.5341H124.399V22.7578C124.399 23.0462 124.442 23.2633 124.528 23.4091C124.615 23.5516 124.726 23.6494 124.862 23.7024C125.001 23.7521 125.152 23.777 125.314 23.777C125.433 23.777 125.538 23.7687 125.627 23.7521C125.717 23.7356 125.786 23.7223 125.836 23.7124L126.104 24.9403C126.018 24.9735 125.896 25.0066 125.737 25.0398C125.578 25.0762 125.379 25.0961 125.14 25.0994C124.749 25.1061 124.384 25.0365 124.046 24.8906C123.708 24.7448 123.435 24.5194 123.226 24.2145C123.017 23.9096 122.913 23.5268 122.913 23.0661V15.5341Z" fill="white"/>
<path d="M139.959 16.459C139.959 16.1138 139.679 15.834 139.334 15.834C138.988 15.834 138.709 16.1138 138.709 16.459C138.709 18.4805 138.262 19.7934 137.444 20.6112C136.626 21.4291 135.313 21.8757 133.292 21.8757C132.947 21.8757 132.667 22.1555 132.667 22.5007C132.667 22.8458 132.947 23.1257 133.292 23.1257C135.313 23.1257 136.626 23.5722 137.444 24.3901C138.262 25.2079 138.709 26.5208 138.709 28.5423C138.709 28.8875 138.988 29.1673 139.334 29.1673C139.679 29.1673 139.959 28.8875 139.959 28.5423C139.959 26.5208 140.405 25.2079 141.223 24.3901C142.041 23.5722 143.354 23.1257 145.375 23.1257C145.721 23.1257 146 22.8458 146 22.5007C146 22.1555 145.721 21.8757 145.375 21.8757C143.354 21.8757 142.041 21.4291 141.223 20.6112C140.405 19.7934 139.959 18.4805 139.959 16.459Z" fill="white" fill-opacity="0.9"/>
<path d="M133.5 14.5837C133.5 14.3535 133.314 14.167 133.084 14.167C132.854 14.167 132.667 14.3535 132.667 14.5837C132.667 15.4009 132.486 15.8942 132.19 16.1901C131.894 16.486 131.401 16.667 130.584 16.667C130.354 16.667 130.167 16.8535 130.167 17.0837C130.167 17.3138 130.354 17.5003 130.584 17.5003C131.401 17.5003 131.894 17.6813 132.19 17.9772C132.486 18.2732 132.667 18.7665 132.667 19.5837C132.667 19.8138 132.854 20.0004 133.084 20.0004C133.314 20.0004 133.5 19.8138 133.5 19.5837C133.5 18.7665 133.681 18.2732 133.977 17.9772C134.273 17.6813 134.766 17.5003 135.584 17.5003C135.814 17.5003 136 17.3138 136 17.0837C136 16.8535 135.814 16.667 135.584 16.667C134.766 16.667 134.273 16.486 133.977 16.1901C133.681 15.8942 133.5 15.4009 133.5 14.5837Z" fill="white" fill-opacity="0.9"/>
<path d="M137.667 11.2497C137.667 11.0196 137.48 10.833 137.25 10.833C137.02 10.833 136.834 11.0196 136.834 11.2497C136.834 11.7775 136.716 12.0625 136.556 12.2224C136.396 12.3823 136.112 12.4997 135.584 12.4997C135.354 12.4997 135.167 12.6862 135.167 12.9163C135.167 13.1465 135.354 13.333 135.584 13.333C136.112 13.333 136.396 13.4504 136.556 13.6103C136.716 13.7702 136.834 14.0552 136.834 14.583C136.834 14.8131 137.02 14.9997 137.25 14.9997C137.48 14.9997 137.667 14.8131 137.667 14.583C137.667 14.0552 137.784 13.7702 137.944 13.6103C138.104 13.4504 138.389 13.333 138.917 13.333C139.147 13.333 139.334 13.1465 139.334 12.9163C139.334 12.6862 139.147 12.4997 138.917 12.4997C138.389 12.4997 138.104 12.3823 137.944 12.2224C137.784 12.0625 137.667 11.7775 137.667 11.2497Z" fill="white" fill-opacity="0.9"/>
</g>
<g filter="url(#filter2_dddddddd_5925_6650)">
<rect width="1" height="1" fill="white" fill-opacity="0.01" shape-rendering="crispEdges"/>
</g>
<g filter="url(#filter3_ddddddddf_5925_6650)">
<rect width="1" height="1" transform="translate(0 1)" fill="white" fill-opacity="0.01"/>
</g>
</g>
<defs>
<filter id="filter0_dddddddd_5925_6650" x="0" y="0" width="341" height="359" filterUnits="userSpaceOnUse" color-interpolation-filters="sRGB">
<feFlood flood-opacity="0" result="BackgroundImageFix"/>
<feColorMatrix in="SourceAlpha" type="matrix" values="0 0 0 0 0 0 0 0 0 0 0 0 0 0 0 0 0 0 127 0" result="hardAlpha"/>
<feOffset dx="99" dy="251"/>
<feComposite in2="hardAlpha" operator="out"/>
<feColorMatrix type="matrix" values="0 0 0 0 1 0 0 0 0 1 0 0 0 0 1 0 0 0 1 0"/>
<feBlend mode="normal" in2="BackgroundImageFix" result="effect1_dropShadow_5925_6650"/>
<feColorMatrix in="SourceAlpha" type="matrix" values="0 0 0 0 0 0 0 0 0 0 0 0 0 0 0 0 0 0 127 0" result="hardAlpha"/>
<feOffset dx="332" dy="36"/>
<feComposite in2="hardAlpha" operator="out"/>
<feColorMatrix type="matrix" values="0 0 0 0 1 0 0 0 0 1 0 0 0 0 1 0 0 0 1 0"/>
<feBlend mode="normal" in2="effect1_dropShadow_5925_6650" result="effect2_dropShadow_5925_6650"/>
<feColorMatrix in="SourceAlpha" type="matrix" values="0 0 0 0 0 0 0 0 0 0 0 0 0 0 0 0 0 0 127 0" result="hardAlpha"/>
<feOffset dx="92" dy="100"/>
<feComposite in2="hardAlpha" operator="out"/>
<feColorMatrix type="matrix" values="0 0 0 0 1 0 0 0 0 1 0 0 0 0 1 0 0 0 1 0"/>
<feBlend mode="normal" in2="effect2_dropShadow_5925_6650" result="effect3_dropShadow_5925_6650"/>
<feColorMatrix in="SourceAlpha" type="matrix" values="0 0 0 0 0 0 0 0 0 0 0 0 0 0 0 0 0 0 127 0" result="hardAlpha"/>
<feOffset dx="340" dy="15"/>
<feComposite in2="hardAlpha" operator="out"/>
<feColorMatrix type="matrix" values="0 0 0 0 1 0 0 0 0 1 0 0 0 0 1 0 0 0 1 0"/>
<feBlend mode="normal" in2="effect3_dropShadow_5925_6650" result="effect4_dropShadow_5925_6650"/>
<feColorMatrix in="SourceAlpha" type="matrix" values="0 0 0 0 0 0 0 0 0 0 0 0 0 0 0 0 0 0 127 0" result="hardAlpha"/>
<feOffset dx="101" dy="268"/>
<feComposite in2="hardAlpha" operator="out"/>
<feColorMatrix type="matrix" values="0 0 0 0 1 0 0 0 0 1 0 0 0 0 1 0 0 0 1 0"/>
<feBlend mode="normal" in2="effect4_dropShadow_5925_6650" result="effect5_dropShadow_5925_6650"/>
<feColorMatrix in="SourceAlpha" type="matrix" values="0 0 0 0 0 0 0 0 0 0 0 0 0 0 0 0 0 0 127 0" result="hardAlpha"/>
<feOffset dx="230" dy="358"/>
<feComposite in2="hardAlpha" operator="out"/>
<feColorMatrix type="matrix" values="0 0 0 0 1 0 0 0 0 1 0 0 0 0 1 0 0 0 1 0"/>
<feBlend mode="normal" in2="effect5_dropShadow_5925_6650" result="effect6_dropShadow_5925_6650"/>
<feColorMatrix in="SourceAlpha" type="matrix" values="0 0 0 0 0 0 0 0 0 0 0 0 0 0 0 0 0 0 127 0" result="hardAlpha"/>
<feOffset dx="315" dy="194"/>
<feComposite in2="hardAlpha" operator="out"/>
<feColorMatrix type="matrix" values="0 0 0 0 1 0 0 0 0 1 0 0 0 0 1 0 0 0 1 0"/>
<feBlend mode="normal" in2="effect6_dropShadow_5925_6650" result="effect7_dropShadow_5925_6650"/>
<feColorMatrix in="SourceAlpha" type="matrix" values="0 0 0 0 0 0 0 0 0 0 0 0 0 0 0 0 0 0 127 0" result="hardAlpha"/>
<feOffset dx="331" dy="185"/>
<feComposite in2="hardAlpha" operator="out"/>
<feColorMatrix type="matrix" values="0 0 0 0 1 0 0 0 0 1 0 0 0 0 1 0 0 0 1 0"/>
<feBlend mode="normal" in2="effect7_dropShadow_5925_6650" result="effect8_dropShadow_5925_6650"/>
<feBlend mode="normal" in="SourceGraphic" in2="effect8_dropShadow_5925_6650" result="shape"/>
</filter>
<filter id="filter1_ddddddddf_5925_6650" x="-1" y="0" width="303" height="268" filterUnits="userSpaceOnUse" color-interpolation-filters="sRGB">
<feFlood flood-opacity="0" result="BackgroundImageFix"/>
<feColorMatrix in="SourceAlpha" type="matrix" values="0 0 0 0 0 0 0 0 0 0 0 0 0 0 0 0 0 0 127 0" result="hardAlpha"/>
<feOffset dx="32" dy="266"/>
<feComposite in2="hardAlpha" operator="out"/>
<feColorMatrix type="matrix" values="0 0 0 0 1 0 0 0 0 1 0 0 0 0 1 0 0 0 1 0"/>
<feBlend mode="normal" in2="BackgroundImageFix" result="effect1_dropShadow_5925_6650"/>
<feColorMatrix in="SourceAlpha" type="matrix" values="0 0 0 0 0 0 0 0 0 0 0 0 0 0 0 0 0 0 127 0" result="hardAlpha"/>
<feOffset dx="246" dy="15"/>
<feComposite in2="hardAlpha" operator="out"/>
<feColorMatrix type="matrix" values="0 0 0 0 1 0 0 0 0 1 0 0 0 0 1 0 0 0 1 0"/>
<feBlend mode="normal" in2="effect1_dropShadow_5925_6650" result="effect2_dropShadow_5925_6650"/>
<feColorMatrix in="SourceAlpha" type="matrix" values="0 0 0 0 0 0 0 0 0 0 0 0 0 0 0 0 0 0 127 0" result="hardAlpha"/>
<feOffset dx="264" dy="182"/>
<feComposite in2="hardAlpha" operator="out"/>
<feColorMatrix type="matrix" values="0 0 0 0 1 0 0 0 0 1 0 0 0 0 1 0 0 0 1 0"/>
<feBlend mode="normal" in2="effect2_dropShadow_5925_6650" result="effect3_dropShadow_5925_6650"/>
<feColorMatrix in="SourceAlpha" type="matrix" values="0 0 0 0 0 0 0 0 0 0 0 0 0 0 0 0 0 0 127 0" result="hardAlpha"/>
<feOffset dx="301" dy="224"/>
<feComposite in2="hardAlpha" operator="out"/>
<feColorMatrix type="matrix" values="0 0 0 0 1 0 0 0 0 1 0 0 0 0 1 0 0 0 1 0"/>
<feBlend mode="normal" in2="effect3_dropShadow_5925_6650" result="effect4_dropShadow_5925_6650"/>
<feColorMatrix in="SourceAlpha" type="matrix" values="0 0 0 0 0 0 0 0 0 0 0 0 0 0 0 0 0 0 127 0" result="hardAlpha"/>
<feOffset dx="146" dy="198"/>
<feComposite in2="hardAlpha" operator="out"/>
<feColorMatrix type="matrix" values="0 0 0 0 1 0 0 0 0 1 0 0 0 0 1 0 0 0 1 0"/>
<feBlend mode="normal" in2="effect4_dropShadow_5925_6650" result="effect5_dropShadow_5925_6650"/>
<feColorMatrix in="SourceAlpha" type="matrix" values="0 0 0 0 0 0 0 0 0 0 0 0 0 0 0 0 0 0 127 0" result="hardAlpha"/>
<feOffset dx="197" dy="202"/>
<feComposite in2="hardAlpha" operator="out"/>
<feColorMatrix type="matrix" values="0 0 0 0 1 0 0 0 0 1 0 0 0 0 1 0 0 0 1 0"/>
<feBlend mode="normal" in2="effect5_dropShadow_5925_6650" result="effect6_dropShadow_5925_6650"/>
<feColorMatrix in="SourceAlpha" type="matrix" values="0 0 0 0 0 0 0 0 0 0 0 0 0 0 0 0 0 0 127 0" result="hardAlpha"/>
<feOffset dx="37" dy="157"/>
<feComposite in2="hardAlpha" operator="out"/>
<feColorMatrix type="matrix" values="0 0 0 0 1 0 0 0 0 1 0 0 0 0 1 0 0 0 1 0"/>
<feBlend mode="normal" in2="effect6_dropShadow_5925_6650" result="effect7_dropShadow_5925_6650"/>
<feColorMatrix in="SourceAlpha" type="matrix" values="0 0 0 0 0 0 0 0 0 0 0 0 0 0 0 0 0 0 127 0" result="hardAlpha"/>
<feOffset dx="233" dy="122"/>
<feComposite in2="hardAlpha" operator="out"/>
<feColorMatrix type="matrix" values="0 0 0 0 1 0 0 0 0 1 0 0 0 0 1 0 0 0 1 0"/>
<feBlend mode="normal" in2="effect7_dropShadow_5925_6650" result="effect8_dropShadow_5925_6650"/>
<feBlend mode="normal" in="SourceGraphic" in2="effect8_dropShadow_5925_6650" result="shape"/>
<feGaussianBlur stdDeviation="0.5" result="effect9_foregroundBlur_5925_6650"/>
</filter>
<filter id="filter2_dddddddd_5925_6650" x="0" y="0" width="341" height="359" filterUnits="userSpaceOnUse" color-interpolation-filters="sRGB">
<feFlood flood-opacity="0" result="BackgroundImageFix"/>
<feColorMatrix in="SourceAlpha" type="matrix" values="0 0 0 0 0 0 0 0 0 0 0 0 0 0 0 0 0 0 127 0" result="hardAlpha"/>
<feOffset dx="99" dy="251"/>
<feComposite in2="hardAlpha" operator="out"/>
<feColorMatrix type="matrix" values="0 0 0 0 1 0 0 0 0 1 0 0 0 0 1 0 0 0 1 0"/>
<feBlend mode="normal" in2="BackgroundImageFix" result="effect1_dropShadow_5925_6650"/>
<feColorMatrix in="SourceAlpha" type="matrix" values="0 0 0 0 0 0 0 0 0 0 0 0 0 0 0 0 0 0 127 0" result="hardAlpha"/>
<feOffset dx="332" dy="36"/>
<feComposite in2="hardAlpha" operator="out"/>
<feColorMatrix type="matrix" values="0 0 0 0 1 0 0 0 0 1 0 0 0 0 1 0 0 0 1 0"/>
<feBlend mode="normal" in2="effect1_dropShadow_5925_6650" result="effect2_dropShadow_5925_6650"/>
<feColorMatrix in="SourceAlpha" type="matrix" values="0 0 0 0 0 0 0 0 0 0 0 0 0 0 0 0 0 0 127 0" result="hardAlpha"/>
<feOffset dx="92" dy="100"/>
<feComposite in2="hardAlpha" operator="out"/>
<feColorMatrix type="matrix" values="0 0 0 0 1 0 0 0 0 1 0 0 0 0 1 0 0 0 1 0"/>
<feBlend mode="normal" in2="effect2_dropShadow_5925_6650" result="effect3_dropShadow_5925_6650"/>
<feColorMatrix in="SourceAlpha" type="matrix" values="0 0 0 0 0 0 0 0 0 0 0 0 0 0 0 0 0 0 127 0" result="hardAlpha"/>
<feOffset dx="340" dy="15"/>
<feComposite in2="hardAlpha" operator="out"/>
<feColorMatrix type="matrix" values="0 0 0 0 1 0 0 0 0 1 0 0 0 0 1 0 0 0 1 0"/>
<feBlend mode="normal" in2="effect3_dropShadow_5925_6650" result="effect4_dropShadow_5925_6650"/>
<feColorMatrix in="SourceAlpha" type="matrix" values="0 0 0 0 0 0 0 0 0 0 0 0 0 0 0 0 0 0 127 0" result="hardAlpha"/>
<feOffset dx="101" dy="268"/>
<feComposite in2="hardAlpha" operator="out"/>
<feColorMatrix type="matrix" values="0 0 0 0 1 0 0 0 0 1 0 0 0 0 1 0 0 0 1 0"/>
<feBlend mode="normal" in2="effect4_dropShadow_5925_6650" result="effect5_dropShadow_5925_6650"/>
<feColorMatrix in="SourceAlpha" type="matrix" values="0 0 0 0 0 0 0 0 0 0 0 0 0 0 0 0 0 0 127 0" result="hardAlpha"/>
<feOffset dx="230" dy="358"/>
<feComposite in2="hardAlpha" operator="out"/>
<feColorMatrix type="matrix" values="0 0 0 0 1 0 0 0 0 1 0 0 0 0 1 0 0 0 1 0"/>
<feBlend mode="normal" in2="effect5_dropShadow_5925_6650" result="effect6_dropShadow_5925_6650"/>
<feColorMatrix in="SourceAlpha" type="matrix" values="0 0 0 0 0 0 0 0 0 0 0 0 0 0 0 0 0 0 127 0" result="hardAlpha"/>
<feOffset dx="315" dy="194"/>
<feComposite in2="hardAlpha" operator="out"/>
<feColorMatrix type="matrix" values="0 0 0 0 1 0 0 0 0 1 0 0 0 0 1 0 0 0 1 0"/>
<feBlend mode="normal" in2="effect6_dropShadow_5925_6650" result="effect7_dropShadow_5925_6650"/>
<feColorMatrix in="SourceAlpha" type="matrix" values="0 0 0 0 0 0 0 0 0 0 0 0 0 0 0 0 0 0 127 0" result="hardAlpha"/>
<feOffset dx="331" dy="185"/>
<feComposite in2="hardAlpha" operator="out"/>
<feColorMatrix type="matrix" values="0 0 0 0 1 0 0 0 0 1 0 0 0 0 1 0 0 0 1 0"/>
<feBlend mode="normal" in2="effect7_dropShadow_5925_6650" result="effect8_dropShadow_5925_6650"/>
<feBlend mode="normal" in="SourceGraphic" in2="effect8_dropShadow_5925_6650" result="shape"/>
</filter>
<filter id="filter3_ddddddddf_5925_6650" x="-1" y="0" width="303" height="268" filterUnits="userSpaceOnUse" color-interpolation-filters="sRGB">
<feFlood flood-opacity="0" result="BackgroundImageFix"/>
<feColorMatrix in="SourceAlpha" type="matrix" values="0 0 0 0 0 0 0 0 0 0 0 0 0 0 0 0 0 0 127 0" result="hardAlpha"/>
<feOffset dx="32" dy="266"/>
<feComposite in2="hardAlpha" operator="out"/>
<feColorMatrix type="matrix" values="0 0 0 0 1 0 0 0 0 1 0 0 0 0 1 0 0 0 1 0"/>
<feBlend mode="normal" in2="BackgroundImageFix" result="effect1_dropShadow_5925_6650"/>
<feColorMatrix in="SourceAlpha" type="matrix" values="0 0 0 0 0 0 0 0 0 0 0 0 0 0 0 0 0 0 127 0" result="hardAlpha"/>
<feOffset dx="246" dy="15"/>
<feComposite in2="hardAlpha" operator="out"/>
<feColorMatrix type="matrix" values="0 0 0 0 1 0 0 0 0 1 0 0 0 0 1 0 0 0 1 0"/>
<feBlend mode="normal" in2="effect1_dropShadow_5925_6650" result="effect2_dropShadow_5925_6650"/>
<feColorMatrix in="SourceAlpha" type="matrix" values="0 0 0 0 0 0 0 0 0 0 0 0 0 0 0 0 0 0 127 0" result="hardAlpha"/>
<feOffset dx="264" dy="182"/>
<feComposite in2="hardAlpha" operator="out"/>
<feColorMatrix type="matrix" values="0 0 0 0 1 0 0 0 0 1 0 0 0 0 1 0 0 0 1 0"/>
<feBlend mode="normal" in2="effect2_dropShadow_5925_6650" result="effect3_dropShadow_5925_6650"/>
<feColorMatrix in="SourceAlpha" type="matrix" values="0 0 0 0 0 0 0 0 0 0 0 0 0 0 0 0 0 0 127 0" result="hardAlpha"/>
<feOffset dx="301" dy="224"/>
<feComposite in2="hardAlpha" operator="out"/>
<feColorMatrix type="matrix" values="0 0 0 0 1 0 0 0 0 1 0 0 0 0 1 0 0 0 1 0"/>
<feBlend mode="normal" in2="effect3_dropShadow_5925_6650" result="effect4_dropShadow_5925_6650"/>
<feColorMatrix in="SourceAlpha" type="matrix" values="0 0 0 0 0 0 0 0 0 0 0 0 0 0 0 0 0 0 127 0" result="hardAlpha"/>
<feOffset dx="146" dy="198"/>
<feComposite in2="hardAlpha" operator="out"/>
<feColorMatrix type="matrix" values="0 0 0 0 1 0 0 0 0 1 0 0 0 0 1 0 0 0 1 0"/>
<feBlend mode="normal" in2="effect4_dropShadow_5925_6650" result="effect5_dropShadow_5925_6650"/>
<feColorMatrix in="SourceAlpha" type="matrix" values="0 0 0 0 0 0 0 0 0 0 0 0 0 0 0 0 0 0 127 0" result="hardAlpha"/>
<feOffset dx="197" dy="202"/>
<feComposite in2="hardAlpha" operator="out"/>
<feColorMatrix type="matrix" values="0 0 0 0 1 0 0 0 0 1 0 0 0 0 1 0 0 0 1 0"/>
<feBlend mode="normal" in2="effect5_dropShadow_5925_6650" result="effect6_dropShadow_5925_6650"/>
<feColorMatrix in="SourceAlpha" type="matrix" values="0 0 0 0 0 0 0 0 0 0 0 0 0 0 0 0 0 0 127 0" result="hardAlpha"/>
<feOffset dx="37" dy="157"/>
<feComposite in2="hardAlpha" operator="out"/>
<feColorMatrix type="matrix" values="0 0 0 0 1 0 0 0 0 1 0 0 0 0 1 0 0 0 1 0"/>
<feBlend mode="normal" in2="effect6_dropShadow_5925_6650" result="effect7_dropShadow_5925_6650"/>
<feColorMatrix in="SourceAlpha" type="matrix" values="0 0 0 0 0 0 0 0 0 0 0 0 0 0 0 0 0 0 127 0" result="hardAlpha"/>
<feOffset dx="233" dy="122"/>
<feComposite in2="hardAlpha" operator="out"/>
<feColorMatrix type="matrix" values="0 0 0 0 1 0 0 0 0 1 0 0 0 0 1 0 0 0 1 0"/>
<feBlend mode="normal" in2="effect7_dropShadow_5925_6650" result="effect8_dropShadow_5925_6650"/>
<feBlend mode="normal" in="SourceGraphic" in2="effect8_dropShadow_5925_6650" result="shape"/>
<feGaussianBlur stdDeviation="0.5" result="effect9_foregroundBlur_5925_6650"/>
</filter>
<linearGradient id="paint0_linear_5925_6650" x1="77.5" y1="2" x2="77.5" y2="38" gradientUnits="userSpaceOnUse">
<stop stop-color="white"/>
<stop offset="0.333333" stop-color="#1FA8CA" stop-opacity="0.83"/>
<stop offset="0.666667" stop-color="#1FA8CA" stop-opacity="0.91"/>
<stop offset="1" stop-color="white"/>
</linearGradient>
<linearGradient id="paint1_linear_5925_6650" x1="77.5" y1="2" x2="77.5" y2="38" gradientUnits="userSpaceOnUse">
<stop stop-color="white"/>
<stop offset="0.333333" stop-color="#1FA8CA" stop-opacity="0.83"/>
<stop offset="0.666667" stop-color="#1FA8CA" stop-opacity="0.91"/>
<stop offset="1" stop-color="white"/>
</linearGradient>
<linearGradient id="paint2_linear_5925_6650" x1="77.5" y1="2" x2="77.5" y2="38" gradientUnits="userSpaceOnUse">
<stop stop-color="white"/>
<stop offset="0.333333" stop-color="#1FA8CA" stop-opacity="0.83"/>
<stop offset="0.666667" stop-color="#1FA8CA" stop-opacity="0.91"/>
<stop offset="1" stop-color="white"/>
</linearGradient>
<linearGradient id="paint3_linear_5925_6650" x1="77.5" y1="2" x2="77.5" y2="38" gradientUnits="userSpaceOnUse">
<stop stop-color="white"/>
<stop offset="0.333333" stop-color="#1FA8CA" stop-opacity="0.83"/>
<stop offset="0.666667" stop-color="#1FA8CA" stop-opacity="0.91"/>
<stop offset="1" stop-color="white"/>
</linearGradient>
<clipPath id="clip0_5925_6650">
<rect width="155" height="40" rx="10" fill="white"/>
</clipPath>
</defs>
</svg>