<svg xmlns="http://www.w3.org/2000/svg" fill="none" viewBox="12 1 155 40">
<g filter="url(#filter0_ddddi_5992_20381)">
<g clip-path="url(#clip0_5992_20381)">
<rect x="12" y="1" width="155" height="40" rx="10" fill="#1FA8CA"/>
<g filter="url(#filter1_dddddddd_5992_20381)">
<rect x="12" y="1" width="1" height="1" fill="white" fill-opacity="0.01" shape-rendering="crispEdges"/>
</g>
<g filter="url(#filter2_ddddddddf_5992_20381)">
<rect width="1" height="1" transform="translate(12 2)" fill="white" fill-opacity="0.01"/>
</g>
<mask id="mask0_5992_20381" style="mask-type:alpha" maskUnits="userSpaceOnUse" x="15" y="1" width="162" height="37">
<rect x="15" y="1" width="162" height="37" fill="white"/>
</mask>
<g mask="url(#mask0_5992_20381)">
<rect opacity="0.24" x="15" y="3" width="149" height="36" rx="15" fill="url(#paint0_linear_5992_20381)"/>
<path d="M36.9649 19.1293H35.4138C35.3541 18.7978 35.2431 18.5062 35.0807 18.2543C34.9183 18.0024 34.7194 17.7886 34.4841 17.6129C34.2488 17.4373 33.9853 17.3047 33.6936 17.2152C33.4053 17.1257 33.0987 17.081 32.7739 17.081C32.1872 17.081 31.6619 17.2285 31.1979 17.5234C30.7372 17.8184 30.3726 18.2509 30.1041 18.821C29.839 19.3911 29.7064 20.0871 29.7064 20.9091C29.7064 21.7377 29.839 22.437 30.1041 23.0071C30.3726 23.5772 30.7388 24.008 31.2029 24.2997C31.6669 24.5914 32.1889 24.7372 32.7689 24.7372C33.0904 24.7372 33.3953 24.6941 33.6837 24.608C33.9753 24.5185 34.2388 24.3875 34.4742 24.2152C34.7095 24.0429 34.9084 23.8324 35.0708 23.5838C35.2365 23.3319 35.3508 23.0436 35.4138 22.7188L36.9649 22.7237C36.8821 23.2242 36.7213 23.6849 36.4827 24.1058C36.2474 24.5234 35.9441 24.8847 35.5729 25.1896C35.205 25.4912 34.7841 25.7249 34.3101 25.8906C33.8361 26.0563 33.3191 26.1392 32.759 26.1392C31.8773 26.1392 31.0918 25.9304 30.4024 25.5128C29.713 25.0919 29.1695 24.4903 28.7718 23.7081C28.3773 22.9259 28.1801 21.9929 28.1801 20.9091C28.1801 19.822 28.379 18.889 28.7767 18.1101C29.1744 17.3279 29.718 16.728 30.4074 16.3104C31.0968 15.8894 31.8807 15.679 32.759 15.679C33.2992 15.679 33.803 15.7569 34.2703 15.9126C34.741 16.0651 35.1636 16.2905 35.5381 16.5888C35.9126 16.8838 36.2225 17.245 36.4678 17.6726C36.713 18.0968 36.8788 18.5824 36.9649 19.1293ZM41.9005 26.1541C41.1846 26.1541 40.5598 25.9901 40.0262 25.6619C39.4926 25.3338 39.0783 24.8748 38.7833 24.2848C38.4883 23.6948 38.3408 23.0054 38.3408 22.2166C38.3408 21.4245 38.4883 20.7318 38.7833 20.1385C39.0783 19.5452 39.4926 19.0845 40.0262 18.7564C40.5598 18.4283 41.1846 18.2642 41.9005 18.2642C42.6164 18.2642 43.2412 18.4283 43.7748 18.7564C44.3084 19.0845 44.7227 19.5452 45.0177 20.1385C45.3126 20.7318 45.4601 21.4245 45.4601 22.2166C45.4601 23.0054 45.3126 23.6948 45.0177 24.2848C44.7227 24.8748 44.3084 25.3338 43.7748 25.6619C43.2412 25.9901 42.6164 26.1541 41.9005 26.1541ZM41.9055 24.9062C42.3695 24.9062 42.7539 24.7836 43.0589 24.5384C43.3638 24.2931 43.5892 23.9666 43.735 23.5589C43.8841 23.1513 43.9587 22.7022 43.9587 22.2116C43.9587 21.7244 43.8841 21.277 43.735 20.8693C43.5892 20.4583 43.3638 20.1286 43.0589 19.88C42.7539 19.6314 42.3695 19.5071 41.9055 19.5071C41.4381 19.5071 41.0503 19.6314 40.7421 19.88C40.4372 20.1286 40.2101 20.4583 40.061 20.8693C39.9152 21.277 39.8422 21.7244 39.8422 22.2116C39.8422 22.7022 39.9152 23.1513 40.061 23.5589C40.2101 23.9666 40.4372 24.2931 40.7421 24.5384C41.0503 24.7836 41.4381 24.9062 41.9055 24.9062ZM48.6059 21.4659V26H47.1194V18.3636H48.5463V19.6065H48.6407C48.8164 19.2022 49.0915 18.8774 49.466 18.6321C49.8438 18.3868 50.3195 18.2642 50.8928 18.2642C51.4132 18.2642 51.8689 18.3736 52.26 18.5923C52.6511 18.8078 52.9544 19.1293 53.1698 19.5568C53.3853 19.9844 53.493 20.513 53.493 21.1428V26H52.0065V21.3217C52.0065 20.7682 51.8623 20.3357 51.574 20.0241C51.2856 19.7093 50.8895 19.5518 50.3857 19.5518C50.041 19.5518 49.7345 19.6264 49.466 19.7756C49.2008 19.9247 48.9904 20.1435 48.8346 20.4318C48.6821 20.7169 48.6059 21.0616 48.6059 21.4659ZM59.0512 18.3636V19.5568H54.8801V18.3636H59.0512ZM55.9987 16.5341H57.4852V23.7578C57.4852 24.0462 57.5283 24.2633 57.6144 24.4091C57.7006 24.5516 57.8116 24.6494 57.9475 24.7024C58.0867 24.7521 58.2375 24.777 58.3999 24.777C58.5193 24.777 58.6237 24.7687 58.7132 24.7521C58.8026 24.7356 58.8722 24.7223 58.922 24.7124L59.1904 25.9403C59.1043 25.9735 58.9816 26.0066 58.8225 26.0398C58.6634 26.0762 58.4646 26.0961 58.2259 26.0994C57.8348 26.1061 57.4703 26.0365 57.1322 25.8906C56.7941 25.7448 56.5207 25.5194 56.3119 25.2145C56.1031 24.9096 55.9987 24.5268 55.9987 24.0661V16.5341ZM62.9179 26.169C62.434 26.169 61.9965 26.0795 61.6054 25.9006C61.2143 25.7183 60.9044 25.4548 60.6757 25.1101C60.4503 24.7654 60.3376 24.3428 60.3376 23.8423C60.3376 23.4115 60.4205 23.0568 60.5862 22.7784C60.7519 22.5 60.9756 22.2796 61.2574 22.1172C61.5391 21.9548 61.854 21.8321 62.202 21.7493C62.55 21.6664 62.9046 21.6035 63.2659 21.5604C63.7233 21.5073 64.0945 21.4643 64.3795 21.4311C64.6646 21.3946 64.8717 21.3366 65.001 21.2571C65.1302 21.1776 65.1949 21.0483 65.1949 20.8693V20.8345C65.1949 20.4003 65.0722 20.0639 64.827 19.8253C64.585 19.5866 64.2238 19.4673 63.7432 19.4673C63.2427 19.4673 62.8483 19.5784 62.5599 19.8004C62.2749 20.0192 62.0777 20.2628 61.9683 20.5312L60.5713 20.2131C60.737 19.7491 60.979 19.3745 61.2971 19.0895C61.6186 18.8011 61.9882 18.5923 62.4058 18.4631C62.8234 18.3305 63.2626 18.2642 63.7233 18.2642C64.0282 18.2642 64.3514 18.3007 64.6927 18.3736C65.0374 18.4432 65.3589 18.5724 65.6572 18.7614C65.9588 18.9503 66.2058 19.2204 66.398 19.5717C66.5902 19.9197 66.6863 20.3722 66.6863 20.929V26H65.2346V24.956H65.175C65.0789 25.1482 64.9347 25.3371 64.7425 25.5227C64.5502 25.7083 64.3033 25.8625 64.0017 25.9851C63.7001 26.1077 63.3388 26.169 62.9179 26.169ZM63.241 24.9759C63.652 24.9759 64.0033 24.8946 64.295 24.7322C64.59 24.5698 64.8137 24.3577 64.9662 24.0959C65.122 23.8307 65.1998 23.5473 65.1998 23.2457V22.2614C65.1468 22.3144 65.0441 22.3641 64.8916 22.4105C64.7425 22.4536 64.5718 22.4917 64.3795 22.5249C64.1873 22.5547 64 22.5829 63.8177 22.6094C63.6354 22.6326 63.483 22.6525 63.3604 22.669C63.072 22.7055 62.8085 22.7668 62.5699 22.853C62.3345 22.9392 62.1456 23.0634 62.0031 23.2259C61.8639 23.3849 61.7943 23.5971 61.7943 23.8622C61.7943 24.2301 61.9302 24.5085 62.202 24.6974C62.4738 24.883 62.8201 24.9759 63.241 24.9759ZM71.8829 26.1541C71.1438 26.1541 70.5074 25.9867 69.9738 25.652C69.4435 25.3139 69.0358 24.8482 68.7508 24.255C68.4658 23.6617 68.3232 22.9822 68.3232 22.2166C68.3232 21.4411 68.4691 20.7566 68.7607 20.1634C69.0524 19.5668 69.4634 19.1011 69.9937 18.7663C70.524 18.4316 71.1488 18.2642 71.868 18.2642C72.448 18.2642 72.9651 18.3719 73.4191 18.5874C73.8732 18.7995 74.2394 19.0978 74.5178 19.4822C74.7996 19.8667 74.9669 20.3158 75.02 20.8295H73.5732C73.4937 20.4716 73.3114 20.1634 73.0264 19.9048C72.7446 19.6463 72.3668 19.517 71.8928 19.517C71.4785 19.517 71.1156 19.6264 70.8041 19.8452C70.4958 20.0606 70.2555 20.3688 70.0832 20.7699C69.9108 21.1676 69.8247 21.6383 69.8247 22.1818C69.8247 22.7386 69.9092 23.2192 70.0782 23.6236C70.2472 24.0279 70.4859 24.3411 70.7941 24.5632C71.1057 24.7853 71.4719 24.8963 71.8928 24.8963C72.1746 24.8963 72.4298 24.8449 72.6585 24.7422C72.8905 24.6361 73.0844 24.4853 73.2401 24.2898C73.3992 24.0942 73.5103 23.8589 73.5732 23.5838H75.02C74.9669 24.0777 74.8062 24.5185 74.5377 24.9062C74.2693 25.294 73.9097 25.599 73.4589 25.821C73.0115 26.0431 72.4861 26.1541 71.8829 26.1541ZM80.1743 18.3636V19.5568H76.0031V18.3636H80.1743ZM77.1217 16.5341H78.6082V23.7578C78.6082 24.0462 78.6513 24.2633 78.7375 24.4091C78.8237 24.5516 78.9347 24.6494 79.0706 24.7024C79.2098 24.7521 79.3606 24.777 79.523 24.777C79.6423 24.777 79.7467 24.7687 79.8362 24.7521C79.9257 24.7356 79.9953 24.7223 80.045 24.7124L80.3135 25.9403C80.2273 25.9735 80.1047 26.0066 79.9456 26.0398C79.7865 26.0762 79.5876 26.0961 79.349 26.0994C78.9579 26.1061 78.5933 26.0365 78.2552 25.8906C77.9172 25.7448 77.6437 25.5194 77.4349 25.2145C77.2261 24.9096 77.1217 24.5268 77.1217 24.0661V16.5341ZM91.1963 18.4929C91.1433 18.0223 90.9245 17.6577 90.54 17.3991C90.1556 17.1373 89.6717 17.0064 89.0883 17.0064C88.6707 17.0064 88.3095 17.0727 88.0045 17.2053C87.6996 17.3345 87.4626 17.5135 87.2936 17.7422C87.1279 17.9676 87.045 18.2244 87.045 18.5128C87.045 18.7547 87.1014 18.9635 87.214 19.1392C87.33 19.3149 87.4809 19.4624 87.6665 19.5817C87.8554 19.6977 88.0576 19.7955 88.273 19.875C88.4884 19.9512 88.6956 20.0142 88.8944 20.0639L89.8888 20.3224C90.2136 20.402 90.5467 20.5097 90.8881 20.6456C91.2294 20.7815 91.546 20.9605 91.8376 21.1825C92.1293 21.4046 92.3646 21.6797 92.5436 22.0078C92.7259 22.3359 92.817 22.7287 92.817 23.1861C92.817 23.7628 92.6679 24.2749 92.3696 24.7223C92.0746 25.1697 91.6454 25.5227 91.0819 25.7812C90.5218 26.0398 89.844 26.169 89.0486 26.169C88.2863 26.169 87.6267 26.0481 87.0699 25.8061C86.5131 25.5642 86.0772 25.2211 85.7623 24.777C85.4475 24.3295 85.2735 23.7992 85.2403 23.1861H86.7815C86.8113 23.554 86.9307 23.8606 87.1395 24.1058C87.3516 24.3478 87.6217 24.5284 87.9498 24.6477C88.2813 24.7637 88.6442 24.8217 89.0386 24.8217C89.4728 24.8217 89.8589 24.7538 90.197 24.6179C90.5384 24.4787 90.8068 24.2865 91.0024 24.0412C91.1979 23.7926 91.2957 23.5026 91.2957 23.1712C91.2957 22.8696 91.2095 22.6226 91.0372 22.4304C90.8682 22.2382 90.6378 22.0791 90.3461 21.9531C90.0578 21.8272 89.7313 21.7161 89.3667 21.62L88.1636 21.2919C87.3483 21.0698 86.702 20.7434 86.2247 20.3125C85.7507 19.8816 85.5138 19.3116 85.5138 18.6023C85.5138 18.0156 85.6729 17.5036 85.991 17.0661C86.3092 16.6286 86.7401 16.2888 87.2836 16.0469C87.8272 15.8016 88.4404 15.679 89.1231 15.679C89.8125 15.679 90.4207 15.8 90.9477 16.0419C91.478 16.2839 91.8956 16.617 92.2006 17.0412C92.5055 17.4621 92.6646 17.946 92.6778 18.4929H91.1963ZM99.3708 22.8331V18.3636H100.862V26H99.4007V24.6776H99.3211C99.1454 25.0852 98.8637 25.425 98.4759 25.6967C98.0915 25.9652 97.6125 26.0994 97.0392 26.0994C96.5486 26.0994 96.1144 25.9917 95.7366 25.7763C95.3621 25.5575 95.0671 25.2344 94.8517 24.8068C94.6395 24.3793 94.5335 23.8506 94.5335 23.2209V18.3636H96.02V23.0419C96.02 23.5623 96.1642 23.9766 96.4525 24.2848C96.7409 24.593 97.1154 24.7472 97.5761 24.7472C97.8545 24.7472 98.1312 24.6776 98.4063 24.5384C98.6847 24.3991 98.9151 24.1887 99.0974 23.907C99.283 23.6252 99.3741 23.2673 99.3708 22.8331ZM102.86 28.8636V18.3636H104.311V19.6016H104.436C104.522 19.4425 104.646 19.2585 104.809 19.0497C104.971 18.8409 105.196 18.6586 105.485 18.5028C105.773 18.3438 106.154 18.2642 106.628 18.2642C107.245 18.2642 107.795 18.42 108.279 18.7315C108.763 19.0431 109.142 19.4922 109.417 20.0788C109.696 20.6655 109.835 21.3714 109.835 22.1967C109.835 23.022 109.697 23.7296 109.422 24.3196C109.147 24.9062 108.769 25.3587 108.289 25.6768C107.808 25.9917 107.259 26.1491 106.643 26.1491C106.179 26.1491 105.8 26.0713 105.505 25.9155C105.213 25.7597 104.984 25.5774 104.818 25.3686C104.653 25.1598 104.525 24.9742 104.436 24.8118H104.346V28.8636H102.86ZM104.316 22.1818C104.316 22.7187 104.394 23.1894 104.55 23.5938C104.706 23.9981 104.931 24.3146 105.226 24.5433C105.521 24.7687 105.882 24.8814 106.31 24.8814C106.754 24.8814 107.125 24.7637 107.424 24.5284C107.722 24.2898 107.947 23.9666 108.1 23.5589C108.255 23.1513 108.333 22.6922 108.333 22.1818C108.333 21.678 108.257 21.2256 108.105 20.8246C107.956 20.4235 107.73 20.107 107.429 19.875C107.13 19.643 106.757 19.527 106.31 19.527C105.879 19.527 105.514 19.638 105.216 19.8601C104.921 20.0821 104.697 20.392 104.545 20.7898C104.393 21.1875 104.316 21.6515 104.316 22.1818ZM111.5 28.8636V18.3636H112.952V19.6016H113.076C113.162 19.4425 113.287 19.2585 113.449 19.0497C113.612 18.8409 113.837 18.6586 114.125 18.5028C114.414 18.3438 114.795 18.2642 115.269 18.2642C115.885 18.2642 116.435 18.42 116.919 18.7315C117.403 19.0431 117.783 19.4922 118.058 20.0788C118.336 20.6655 118.475 21.3714 118.475 22.1967C118.475 23.022 118.338 23.7296 118.063 24.3196C117.788 24.9062 117.41 25.3587 116.929 25.6768C116.449 25.9917 115.9 26.1491 115.284 26.1491C114.82 26.1491 114.44 26.0713 114.145 25.9155C113.853 25.7597 113.625 25.5774 113.459 25.3686C113.293 25.1598 113.166 24.9742 113.076 24.8118H112.987V28.8636H111.5ZM112.957 22.1818C112.957 22.7187 113.035 23.1894 113.191 23.5938C113.346 23.9981 113.572 24.3146 113.867 24.5433C114.162 24.7687 114.523 24.8814 114.951 24.8814C115.395 24.8814 115.766 24.7637 116.064 24.5284C116.362 24.2898 116.588 23.9666 116.74 23.5589C116.896 23.1513 116.974 22.6922 116.974 22.1818C116.974 21.678 116.898 21.2256 116.745 20.8246C116.596 20.4235 116.371 20.107 116.069 19.875C115.771 19.643 115.398 19.527 114.951 19.527C114.52 19.527 114.155 19.638 113.857 19.8601C113.562 20.0821 113.338 20.392 113.186 20.7898C113.033 21.1875 112.957 21.6515 112.957 22.1818ZM123.358 26.1541C122.642 26.1541 122.017 25.9901 121.483 25.6619C120.95 25.3338 120.535 24.8748 120.24 24.2848C119.945 23.6948 119.798 23.0054 119.798 22.2166C119.798 21.4245 119.945 20.7318 120.24 20.1385C120.535 19.5452 120.95 19.0845 121.483 18.7564C122.017 18.4283 122.642 18.2642 123.358 18.2642C124.073 18.2642 124.698 18.4283 125.232 18.7564C125.765 19.0845 126.18 19.5452 126.475 20.1385C126.77 20.7318 126.917 21.4245 126.917 22.2166C126.917 23.0054 126.77 23.6948 126.475 24.2848C126.18 24.8748 125.765 25.3338 125.232 25.6619C124.698 25.9901 124.073 26.1541 123.358 26.1541ZM123.362 24.9062C123.826 24.9062 124.211 24.7836 124.516 24.5384C124.821 24.2931 125.046 23.9666 125.192 23.5589C125.341 23.1513 125.416 22.7022 125.416 22.2116C125.416 21.7244 125.341 21.277 125.192 20.8693C125.046 20.4583 124.821 20.1286 124.516 19.88C124.211 19.6314 123.826 19.5071 123.362 19.5071C122.895 19.5071 122.507 19.6314 122.199 19.88C121.894 20.1286 121.667 20.4583 121.518 20.8693C121.372 21.277 121.299 21.7244 121.299 22.2116C121.299 22.7022 121.372 23.1513 121.518 23.5589C121.667 23.9666 121.894 24.2931 122.199 24.5384C122.507 24.7836 122.895 24.9062 123.362 24.9062ZM128.576 26V18.3636H130.013V19.5767H130.093C130.232 19.1657 130.477 18.8426 130.829 18.6072C131.183 18.3686 131.584 18.2493 132.032 18.2493C132.124 18.2493 132.234 18.2526 132.36 18.2592C132.489 18.2659 132.59 18.2741 132.663 18.2841V19.706C132.603 19.6894 132.497 19.6712 132.345 19.6513C132.192 19.6281 132.04 19.6165 131.888 19.6165C131.536 19.6165 131.223 19.6911 130.948 19.8402C130.676 19.986 130.461 20.1899 130.302 20.4517C130.142 20.7102 130.063 21.0052 130.063 21.3366V26H128.576ZM137.965 18.3636V19.5568H133.794V18.3636H137.965ZM134.913 16.5341H136.399V23.7578C136.399 24.0462 136.442 24.2633 136.528 24.4091C136.615 24.5516 136.726 24.6494 136.862 24.7024C137.001 24.7521 137.152 24.777 137.314 24.777C137.433 24.777 137.538 24.7687 137.627 24.7521C137.717 24.7356 137.786 24.7223 137.836 24.7124L138.104 25.9403C138.018 25.9735 137.896 26.0066 137.737 26.0398C137.578 26.0762 137.379 26.0961 137.14 26.0994C136.749 26.1061 136.384 26.0365 136.046 25.8906C135.708 25.7448 135.435 25.5194 135.226 25.2145C135.017 24.9096 134.913 24.5268 134.913 24.0661V16.5341Z" fill="white"/>
<path d="M151.958 17.4585C151.958 17.1133 151.679 16.8335 151.333 16.8335C150.988 16.8335 150.708 17.1133 150.708 17.4585C150.708 19.48 150.262 20.7929 149.444 21.6107C148.626 22.4286 147.313 22.8752 145.292 22.8752C144.947 22.8752 144.667 23.155 144.667 23.5002C144.667 23.8453 144.947 24.1252 145.292 24.1252C147.313 24.1252 148.626 24.5717 149.444 25.3896C150.262 26.2074 150.708 27.5203 150.708 29.5418C150.708 29.887 150.988 30.1668 151.333 30.1668C151.679 30.1668 151.958 29.887 151.958 29.5418C151.958 27.5203 152.405 26.2074 153.223 25.3896C154.041 24.5717 155.354 24.1252 157.375 24.1252C157.72 24.1252 158 23.8453 158 23.5002C158 23.155 157.72 22.8752 157.375 22.8752C155.354 22.8752 154.041 22.4286 153.223 21.6107C152.405 20.7929 151.958 19.48 151.958 17.4585Z" fill="white" fill-opacity="0.9"/>
<path d="M145.5 15.5835C145.5 15.3534 145.314 15.1669 145.083 15.1669C144.853 15.1669 144.667 15.3534 144.667 15.5835C144.667 16.4007 144.486 16.894 144.19 17.1899C143.894 17.4859 143.401 17.6669 142.583 17.6669C142.353 17.6669 142.167 17.8534 142.167 18.0835C142.167 18.3136 142.353 18.5002 142.583 18.5002C143.401 18.5002 143.894 18.6812 144.19 18.9771C144.486 19.273 144.667 19.7663 144.667 20.5835C144.667 20.8136 144.853 21.0002 145.083 21.0002C145.314 21.0002 145.5 20.8136 145.5 20.5835C145.5 19.7663 145.681 19.273 145.977 18.9771C146.273 18.6812 146.766 18.5002 147.583 18.5002C147.814 18.5002 148 18.3136 148 18.0835C148 17.8534 147.814 17.6669 147.583 17.6669C146.766 17.6669 146.273 17.4859 145.977 17.1899C145.681 16.894 145.5 16.4007 145.5 15.5835Z" fill="white" fill-opacity="0.9"/>
<path d="M149.667 12.2502C149.667 12.02 149.48 11.8335 149.25 11.8335C149.02 11.8335 148.833 12.02 148.833 12.2502C148.833 12.778 148.716 13.063 148.556 13.2229C148.396 13.3828 148.111 13.5002 147.583 13.5002C147.353 13.5002 147.167 13.6867 147.167 13.9168C147.167 14.147 147.353 14.3335 147.583 14.3335C148.111 14.3335 148.396 14.4509 148.556 14.6108C148.716 14.7707 148.833 15.0557 148.833 15.5835C148.833 15.8136 149.02 16.0002 149.25 16.0002C149.48 16.0002 149.667 15.8136 149.667 15.5835C149.667 15.0557 149.784 14.7707 149.944 14.6108C150.104 14.4509 150.389 14.3335 150.917 14.3335C151.147 14.3335 151.333 14.147 151.333 13.9168C151.333 13.6867 151.147 13.5002 150.917 13.5002C150.389 13.5002 150.104 13.3828 149.944 13.2229C149.784 13.063 149.667 12.778 149.667 12.2502Z" fill="white" fill-opacity="0.9"/>
</g>
</g>
</g>
<defs>
<filter id="filter0_ddddi_5992_20381" x="0" y="-5" width="179" height="69" filterUnits="userSpaceOnUse" color-interpolation-filters="sRGB">
<feFlood flood-opacity="0" result="BackgroundImageFix"/>
<feColorMatrix in="SourceAlpha" type="matrix" values="0 0 0 0 0 0 0 0 0 0 0 0 0 0 0 0 0 0 127 0" result="hardAlpha"/>
<feOffset dy="11"/>
<feGaussianBlur stdDeviation="6"/>
<feComposite in2="hardAlpha" operator="out"/>
<feColorMatrix type="matrix" values="0 0 0 0 0.184314 0 0 0 0 0.00392157 0 0 0 0 0.592157 0 0 0 0.12 0"/>
<feBlend mode="normal" in2="BackgroundImageFix" result="effect1_dropShadow_5992_20381"/>
<feColorMatrix in="SourceAlpha" type="matrix" values="0 0 0 0 0 0 0 0 0 0 0 0 0 0 0 0 0 0 127 0" result="hardAlpha"/>
<feOffset dy="3"/>
<feGaussianBlur stdDeviation="1.5"/>
<feComposite in2="hardAlpha" operator="out"/>
<feColorMatrix type="matrix" values="0 0 0 0 0.184314 0 0 0 0 0.00392157 0 0 0 0 0.592157 0 0 0 0.12 0"/>
<feBlend mode="normal" in2="effect1_dropShadow_5992_20381" result="effect2_dropShadow_5992_20381"/>
<feColorMatrix in="SourceAlpha" type="matrix" values="0 0 0 0 0 0 0 0 0 0 0 0 0 0 0 0 0 0 127 0" result="hardAlpha"/>
<feOffset dy="1"/>
<feGaussianBlur stdDeviation="0.5"/>
<feComposite in2="hardAlpha" operator="out"/>
<feColorMatrix type="matrix" values="0 0 0 0 0.184314 0 0 0 0 0.00392157 0 0 0 0 0.592157 0 0 0 0.12 0"/>
<feBlend mode="normal" in2="effect2_dropShadow_5992_20381" result="effect3_dropShadow_5992_20381"/>
<feColorMatrix in="SourceAlpha" type="matrix" values="0 0 0 0 0 0 0 0 0 0 0 0 0 0 0 0 0 0 127 0" result="hardAlpha"/>
<feMorphology radius="1" operator="dilate" in="SourceAlpha" result="effect4_dropShadow_5992_20381"/>
<feOffset/>
<feComposite in2="hardAlpha" operator="out"/>
<feColorMatrix type="matrix" values="0 0 0 0 0.184314 0 0 0 0 0.00392157 0 0 0 0 0.592157 0 0 0 0.08 0"/>
<feBlend mode="normal" in2="effect3_dropShadow_5992_20381" result="effect4_dropShadow_5992_20381"/>
<feBlend mode="normal" in="SourceGraphic" in2="effect4_dropShadow_5992_20381" result="shape"/>
<feColorMatrix in="SourceAlpha" type="matrix" values="0 0 0 0 0 0 0 0 0 0 0 0 0 0 0 0 0 0 127 0" result="hardAlpha"/>
<feOffset dy="-6"/>
<feGaussianBlur stdDeviation="10"/>
<feComposite in2="hardAlpha" operator="arithmetic" k2="-1" k3="1"/>
<feColorMatrix type="matrix" values="0 0 0 0 0.447059 0 0 0 0 0.192157 0 0 0 0 1 0 0 0 0.32 0"/>
<feBlend mode="normal" in2="shape" result="effect5_innerShadow_5992_20381"/>
</filter>
<filter id="filter1_dddddddd_5992_20381" x="12" y="1" width="341" height="359" filterUnits="userSpaceOnUse" color-interpolation-filters="sRGB">
<feFlood flood-opacity="0" result="BackgroundImageFix"/>
<feColorMatrix in="SourceAlpha" type="matrix" values="0 0 0 0 0 0 0 0 0 0 0 0 0 0 0 0 0 0 127 0" result="hardAlpha"/>
<feOffset dx="99" dy="251"/>
<feComposite in2="hardAlpha" operator="out"/>
<feColorMatrix type="matrix" values="0 0 0 0 1 0 0 0 0 1 0 0 0 0 1 0 0 0 1 0"/>
<feBlend mode="normal" in2="BackgroundImageFix" result="effect1_dropShadow_5992_20381"/>
<feColorMatrix in="SourceAlpha" type="matrix" values="0 0 0 0 0 0 0 0 0 0 0 0 0 0 0 0 0 0 127 0" result="hardAlpha"/>
<feOffset dx="332" dy="36"/>
<feComposite in2="hardAlpha" operator="out"/>
<feColorMatrix type="matrix" values="0 0 0 0 1 0 0 0 0 1 0 0 0 0 1 0 0 0 1 0"/>
<feBlend mode="normal" in2="effect1_dropShadow_5992_20381" result="effect2_dropShadow_5992_20381"/>
<feColorMatrix in="SourceAlpha" type="matrix" values="0 0 0 0 0 0 0 0 0 0 0 0 0 0 0 0 0 0 127 0" result="hardAlpha"/>
<feOffset dx="92" dy="100"/>
<feComposite in2="hardAlpha" operator="out"/>
<feColorMatrix type="matrix" values="0 0 0 0 1 0 0 0 0 1 0 0 0 0 1 0 0 0 1 0"/>
<feBlend mode="normal" in2="effect2_dropShadow_5992_20381" result="effect3_dropShadow_5992_20381"/>
<feColorMatrix in="SourceAlpha" type="matrix" values="0 0 0 0 0 0 0 0 0 0 0 0 0 0 0 0 0 0 127 0" result="hardAlpha"/>
<feOffset dx="340" dy="15"/>
<feComposite in2="hardAlpha" operator="out"/>
<feColorMatrix type="matrix" values="0 0 0 0 1 0 0 0 0 1 0 0 0 0 1 0 0 0 1 0"/>
<feBlend mode="normal" in2="effect3_dropShadow_5992_20381" result="effect4_dropShadow_5992_20381"/>
<feColorMatrix in="SourceAlpha" type="matrix" values="0 0 0 0 0 0 0 0 0 0 0 0 0 0 0 0 0 0 127 0" result="hardAlpha"/>
<feOffset dx="101" dy="268"/>
<feComposite in2="hardAlpha" operator="out"/>
<feColorMatrix type="matrix" values="0 0 0 0 1 0 0 0 0 1 0 0 0 0 1 0 0 0 1 0"/>
<feBlend mode="normal" in2="effect4_dropShadow_5992_20381" result="effect5_dropShadow_5992_20381"/>
<feColorMatrix in="SourceAlpha" type="matrix" values="0 0 0 0 0 0 0 0 0 0 0 0 0 0 0 0 0 0 127 0" result="hardAlpha"/>
<feOffset dx="230" dy="358"/>
<feComposite in2="hardAlpha" operator="out"/>
<feColorMatrix type="matrix" values="0 0 0 0 1 0 0 0 0 1 0 0 0 0 1 0 0 0 1 0"/>
<feBlend mode="normal" in2="effect5_dropShadow_5992_20381" result="effect6_dropShadow_5992_20381"/>
<feColorMatrix in="SourceAlpha" type="matrix" values="0 0 0 0 0 0 0 0 0 0 0 0 0 0 0 0 0 0 127 0" result="hardAlpha"/>
<feOffset dx="315" dy="194"/>
<feComposite in2="hardAlpha" operator="out"/>
<feColorMatrix type="matrix" values="0 0 0 0 1 0 0 0 0 1 0 0 0 0 1 0 0 0 1 0"/>
<feBlend mode="normal" in2="effect6_dropShadow_5992_20381" result="effect7_dropShadow_5992_20381"/>
<feColorMatrix in="SourceAlpha" type="matrix" values="0 0 0 0 0 0 0 0 0 0 0 0 0 0 0 0 0 0 127 0" result="hardAlpha"/>
<feOffset dx="331" dy="185"/>
<feComposite in2="hardAlpha" operator="out"/>
<feColorMatrix type="matrix" values="0 0 0 0 1 0 0 0 0 1 0 0 0 0 1 0 0 0 1 0"/>
<feBlend mode="normal" in2="effect7_dropShadow_5992_20381" result="effect8_dropShadow_5992_20381"/>
<feBlend mode="normal" in="SourceGraphic" in2="effect8_dropShadow_5992_20381" result="shape"/>
</filter>
<filter id="filter2_ddddddddf_5992_20381" x="11" y="1" width="303" height="268" filterUnits="userSpaceOnUse" color-interpolation-filters="sRGB">
<feFlood flood-opacity="0" result="BackgroundImageFix"/>
<feColorMatrix in="SourceAlpha" type="matrix" values="0 0 0 0 0 0 0 0 0 0 0 0 0 0 0 0 0 0 127 0" result="hardAlpha"/>
<feOffset dx="32" dy="266"/>
<feComposite in2="hardAlpha" operator="out"/>
<feColorMatrix type="matrix" values="0 0 0 0 1 0 0 0 0 1 0 0 0 0 1 0 0 0 1 0"/>
<feBlend mode="normal" in2="BackgroundImageFix" result="effect1_dropShadow_5992_20381"/>
<feColorMatrix in="SourceAlpha" type="matrix" values="0 0 0 0 0 0 0 0 0 0 0 0 0 0 0 0 0 0 127 0" result="hardAlpha"/>
<feOffset dx="246" dy="15"/>
<feComposite in2="hardAlpha" operator="out"/>
<feColorMatrix type="matrix" values="0 0 0 0 1 0 0 0 0 1 0 0 0 0 1 0 0 0 1 0"/>
<feBlend mode="normal" in2="effect1_dropShadow_5992_20381" result="effect2_dropShadow_5992_20381"/>
<feColorMatrix in="SourceAlpha" type="matrix" values="0 0 0 0 0 0 0 0 0 0 0 0 0 0 0 0 0 0 127 0" result="hardAlpha"/>
<feOffset dx="264" dy="182"/>
<feComposite in2="hardAlpha" operator="out"/>
<feColorMatrix type="matrix" values="0 0 0 0 1 0 0 0 0 1 0 0 0 0 1 0 0 0 1 0"/>
<feBlend mode="normal" in2="effect2_dropShadow_5992_20381" result="effect3_dropShadow_5992_20381"/>
<feColorMatrix in="SourceAlpha" type="matrix" values="0 0 0 0 0 0 0 0 0 0 0 0 0 0 0 0 0 0 127 0" result="hardAlpha"/>
<feOffset dx="301" dy="224"/>
<feComposite in2="hardAlpha" operator="out"/>
<feColorMatrix type="matrix" values="0 0 0 0 1 0 0 0 0 1 0 0 0 0 1 0 0 0 1 0"/>
<feBlend mode="normal" in2="effect3_dropShadow_5992_20381" result="effect4_dropShadow_5992_20381"/>
<feColorMatrix in="SourceAlpha" type="matrix" values="0 0 0 0 0 0 0 0 0 0 0 0 0 0 0 0 0 0 127 0" result="hardAlpha"/>
<feOffset dx="146" dy="198"/>
<feComposite in2="hardAlpha" operator="out"/>
<feColorMatrix type="matrix" values="0 0 0 0 1 0 0 0 0 1 0 0 0 0 1 0 0 0 1 0"/>
<feBlend mode="normal" in2="effect4_dropShadow_5992_20381" result="effect5_dropShadow_5992_20381"/>
<feColorMatrix in="SourceAlpha" type="matrix" values="0 0 0 0 0 0 0 0 0 0 0 0 0 0 0 0 0 0 127 0" result="hardAlpha"/>
<feOffset dx="197" dy="202"/>
<feComposite in2="hardAlpha" operator="out"/>
<feColorMatrix type="matrix" values="0 0 0 0 1 0 0 0 0 1 0 0 0 0 1 0 0 0 1 0"/>
<feBlend mode="normal" in2="effect5_dropShadow_5992_20381" result="effect6_dropShadow_5992_20381"/>
<feColorMatrix in="SourceAlpha" type="matrix" values="0 0 0 0 0 0 0 0 0 0 0 0 0 0 0 0 0 0 127 0" result="hardAlpha"/>
<feOffset dx="37" dy="157"/>
<feComposite in2="hardAlpha" operator="out"/>
<feColorMatrix type="matrix" values="0 0 0 0 1 0 0 0 0 1 0 0 0 0 1 0 0 0 1 0"/>
<feBlend mode="normal" in2="effect6_dropShadow_5992_20381" result="effect7_dropShadow_5992_20381"/>
<feColorMatrix in="SourceAlpha" type="matrix" values="0 0 0 0 0 0 0 0 0 0 0 0 0 0 0 0 0 0 127 0" result="hardAlpha"/>
<feOffset dx="233" dy="122"/>
<feComposite in2="hardAlpha" operator="out"/>
<feColorMatrix type="matrix" values="0 0 0 0 1 0 0 0 0 1 0 0 0 0 1 0 0 0 1 0"/>
<feBlend mode="normal" in2="effect7_dropShadow_5992_20381" result="effect8_dropShadow_5992_20381"/>
<feBlend mode="normal" in="SourceGraphic" in2="effect8_dropShadow_5992_20381" result="shape"/>
<feGaussianBlur stdDeviation="0.5" result="effect9_foregroundBlur_5992_20381"/>
</filter>
<linearGradient id="paint0_linear_5992_20381" x1="89.5" y1="3" x2="89.5" y2="39" gradientUnits="userSpaceOnUse">
<stop stop-color="white"/>
<stop offset="0.333333" stop-color="#1FA8CA" stop-opacity="0.83"/>
<stop offset="0.666667" stop-color="#1FA8CA" stop-opacity="0.91"/>
<stop offset="1" stop-color="white"/>
</linearGradient>
<clipPath id="clip0_5992_20381">
<rect x="12" y="1" width="155" height="40" rx="10" fill="white"/>
</clipPath>
</defs>
</svg>