<svg width="107" height="31" viewBox="0 0 107 31" fill="none" xmlns="http://www.w3.org/2000/svg">
<g filter="url(#filter0_dd_5743_10211)">
<g clip-path="url(#clip0_5743_10211)">
<rect width="107" height="31" rx="15.5" fill="white"/>
<rect y="0.19043" width="107" height="30" fill="white"/>
<rect x="3" y="3" width="101" height="25" rx="12.5" fill="url(#paint0_linear_5743_10211)"/>
<path d="M15.375 20H12.233V9.81818H15.5142C16.5019 9.81818 17.3471 10.022 18.0497 10.4297C18.7524 10.834 19.291 11.4157 19.6655 12.1747C20.04 12.9304 20.2273 13.8352 20.2273 14.8892C20.2273 15.9498 20.0384 16.8629 19.6605 17.6286C19.2827 18.3909 18.7325 18.9775 18.0099 19.3885C17.2874 19.7962 16.4091 20 15.375 20ZM13.4659 18.9062H15.2955C16.1373 18.9062 16.835 18.7438 17.3885 18.419C17.942 18.0942 18.3546 17.6319 18.6264 17.032C18.8982 16.4321 19.0341 15.7178 19.0341 14.8892C19.0341 14.0672 18.8999 13.3596 18.6314 12.7663C18.3629 12.1697 17.9619 11.7124 17.4283 11.3942C16.8946 11.0727 16.2301 10.9119 15.4347 10.9119H13.4659V18.9062ZM23.9835 20.179C23.4996 20.179 23.0605 20.0878 22.6661 19.9055C22.2716 19.7199 21.9584 19.4531 21.7264 19.1051C21.4944 18.7538 21.3784 18.3295 21.3784 17.8324C21.3784 17.3949 21.4646 17.0402 21.6369 16.7685C21.8093 16.4934 22.0396 16.2779 22.328 16.1222C22.6163 15.9664 22.9345 15.8504 23.2825 15.7741C23.6339 15.6946 23.9868 15.6316 24.3415 15.5852C24.8055 15.5256 25.1817 15.4808 25.47 15.451C25.7617 15.4179 25.9738 15.3632 26.1064 15.2869C26.2423 15.2107 26.3102 15.0781 26.3102 14.8892V14.8494C26.3102 14.3589 26.176 13.9777 25.9075 13.706C25.6424 13.4342 25.2397 13.2983 24.6994 13.2983C24.1393 13.2983 23.7001 13.4209 23.382 13.6662C23.0638 13.9115 22.8401 14.1733 22.7108 14.4517L21.5972 14.054C21.796 13.59 22.0612 13.2287 22.3926 12.9702C22.7274 12.7083 23.092 12.526 23.4864 12.4233C23.8841 12.3172 24.2752 12.2642 24.6597 12.2642C24.9049 12.2642 25.1866 12.294 25.5048 12.3537C25.8263 12.41 26.1362 12.5277 26.4345 12.7067C26.7361 12.8857 26.9864 13.1558 27.1852 13.517C27.3841 13.8783 27.4835 14.3622 27.4835 14.9688V20H26.3102V18.9659H26.2506C26.171 19.1316 26.0384 19.3089 25.8528 19.4979C25.6672 19.6868 25.4203 19.8475 25.1121 19.9801C24.8038 20.1127 24.4277 20.179 23.9835 20.179ZM24.1625 19.125C24.6265 19.125 25.0176 19.0339 25.3358 18.8516C25.6573 18.6693 25.8992 18.4339 26.0616 18.1456C26.2274 17.8572 26.3102 17.554 26.3102 17.2358V16.1619C26.2605 16.2216 26.1511 16.2763 25.9821 16.326C25.8164 16.3724 25.6241 16.4138 25.4054 16.4503C25.19 16.4834 24.9795 16.5133 24.774 16.5398C24.5718 16.563 24.4078 16.5829 24.2818 16.5994C23.9769 16.6392 23.6919 16.7038 23.4267 16.7933C23.1649 16.8795 22.9527 17.0104 22.7903 17.1861C22.6313 17.3584 22.5517 17.5937 22.5517 17.892C22.5517 18.2997 22.7025 18.608 23.0041 18.8168C23.309 19.0223 23.6952 19.125 24.1625 19.125ZM32.5461 12.3636V13.358H28.5887V12.3636H32.5461ZM29.7421 10.5341H30.9154V17.8125C30.9154 18.1439 30.9634 18.3925 31.0596 18.5582C31.159 18.7206 31.2849 18.83 31.4374 18.8864C31.5932 18.9394 31.7572 18.9659 31.9296 18.9659C32.0588 18.9659 32.1649 18.9593 32.2478 18.946C32.3306 18.9295 32.3969 18.9162 32.4466 18.9062L32.6853 19.9602C32.6057 19.9901 32.4947 20.0199 32.3522 20.0497C32.2096 20.0829 32.029 20.0994 31.8103 20.0994C31.4788 20.0994 31.154 20.0282 30.8358 19.8857C30.521 19.7431 30.2591 19.526 30.0503 19.2344C29.8448 18.9427 29.7421 18.5748 29.7421 18.1307V10.5341ZM36.1581 20.179C35.6742 20.179 35.2351 20.0878 34.8407 19.9055C34.4462 19.7199 34.133 19.4531 33.901 19.1051C33.669 18.7538 33.553 18.3295 33.553 17.8324C33.553 17.3949 33.6392 17.0402 33.8115 16.7685C33.9839 16.4934 34.2142 16.2779 34.5026 16.1222C34.7909 15.9664 35.1091 15.8504 35.4571 15.7741C35.8085 15.6946 36.1614 15.6316 36.5161 15.5852C36.9801 15.5256 37.3563 15.4808 37.6446 15.451C37.9363 15.4179 38.1484 15.3632 38.281 15.2869C38.4169 15.2107 38.4848 15.0781 38.4848 14.8892V14.8494C38.4848 14.3589 38.3506 13.9777 38.0821 13.706C37.817 13.4342 37.4143 13.2983 36.874 13.2983C36.3139 13.2983 35.8748 13.4209 35.5566 13.6662C35.2384 13.9115 35.0147 14.1733 34.8854 14.4517L33.7718 14.054C33.9706 13.59 34.2358 13.2287 34.5672 12.9702C34.902 12.7083 35.2666 12.526 35.661 12.4233C36.0587 12.3172 36.4498 12.2642 36.8343 12.2642C37.0795 12.2642 37.3613 12.294 37.6794 12.3537C38.0009 12.41 38.3108 12.5277 38.6091 12.7067C38.9107 12.8857 39.161 13.1558 39.3598 13.517C39.5587 13.8783 39.6581 14.3622 39.6581 14.9688V20H38.4848V18.9659H38.4252C38.3456 19.1316 38.2131 19.3089 38.0274 19.4979C37.8418 19.6868 37.5949 19.8475 37.2867 19.9801C36.9784 20.1127 36.6023 20.179 36.1581 20.179ZM36.3371 19.125C36.8011 19.125 37.1922 19.0339 37.5104 18.8516C37.8319 18.6693 38.0739 18.4339 38.2363 18.1456C38.402 17.8572 38.4848 17.554 38.4848 17.2358V16.1619C38.4351 16.2216 38.3257 16.2763 38.1567 16.326C37.991 16.3724 37.7988 16.4138 37.58 16.4503C37.3646 16.4834 37.1541 16.5133 36.9486 16.5398C36.7464 16.563 36.5824 16.5829 36.4564 16.5994C36.1515 16.6392 35.8665 16.7038 35.6013 16.7933C35.3395 16.8795 35.1274 17.0104 34.9649 17.1861C34.8059 17.3584 34.7263 17.5937 34.7263 17.892C34.7263 18.2997 34.8771 18.608 35.1787 18.8168C35.4837 19.0223 35.8698 19.125 36.3371 19.125ZM50.6644 12.3636C50.6048 11.8598 50.3628 11.4688 49.9386 11.1903C49.5143 10.9119 48.994 10.7727 48.3775 10.7727C47.9267 10.7727 47.5323 10.8456 47.1942 10.9915C46.8595 11.1373 46.5977 11.3378 46.4087 11.593C46.2231 11.8482 46.1303 12.1383 46.1303 12.4631C46.1303 12.7348 46.195 12.9685 46.3242 13.1641C46.4568 13.3563 46.6258 13.517 46.8313 13.6463C47.0368 13.7723 47.2522 13.8767 47.4776 13.9595C47.703 14.0391 47.9102 14.1037 48.0991 14.1534L49.1332 14.4318C49.3983 14.5014 49.6933 14.5975 50.0181 14.7202C50.3462 14.8428 50.6594 15.0102 50.9577 15.2223C51.2594 15.4311 51.5079 15.6996 51.7035 16.0277C51.899 16.3558 51.9968 16.7585 51.9968 17.2358C51.9968 17.786 51.8526 18.2831 51.5643 18.7273C51.2792 19.1714 50.8616 19.5244 50.3114 19.7862C49.7646 20.0481 49.1 20.179 48.3178 20.179C47.5887 20.179 46.9573 20.0613 46.4237 19.826C45.8933 19.5907 45.4757 19.2625 45.1708 18.8416C44.8692 18.4207 44.6985 17.9318 44.6587 17.375H45.9315C45.9646 17.7595 46.0939 18.0777 46.3192 18.3295C46.5479 18.5781 46.8363 18.7637 47.1843 18.8864C47.5356 19.0057 47.9135 19.0653 48.3178 19.0653C48.7885 19.0653 49.2111 18.9891 49.5856 18.8366C49.9601 18.6809 50.2567 18.4654 50.4755 18.1903C50.6942 17.9119 50.8036 17.5871 50.8036 17.2159C50.8036 16.8778 50.7092 16.6027 50.5202 16.3906C50.3313 16.1785 50.0827 16.0062 49.7745 15.8736C49.4663 15.741 49.1332 15.625 48.7752 15.5256L47.5224 15.1676C46.7269 14.9389 46.0972 14.6125 45.6332 14.1882C45.1692 13.764 44.9371 13.2088 44.9371 12.5227C44.9371 11.9527 45.0913 11.4555 45.3995 11.0312C45.7111 10.6037 46.1287 10.2723 46.6523 10.0369C47.1793 9.7983 47.7676 9.67898 48.4173 9.67898C49.0735 9.67898 49.6568 9.79664 50.1673 10.032C50.6777 10.264 51.082 10.5821 51.3803 10.9865C51.6819 11.3909 51.841 11.8499 51.8576 12.3636H50.6644ZM56.5672 20.1591C55.8778 20.1591 55.2729 19.995 54.7525 19.6669C54.2355 19.3388 53.8311 18.8797 53.5395 18.2898C53.2511 17.6998 53.1069 17.0104 53.1069 16.2216C53.1069 15.4261 53.2511 14.7318 53.5395 14.1385C53.8311 13.5452 54.2355 13.0845 54.7525 12.7564C55.2729 12.4283 55.8778 12.2642 56.5672 12.2642C57.2565 12.2642 57.8598 12.4283 58.3768 12.7564C58.8972 13.0845 59.3015 13.5452 59.5899 14.1385C59.8815 14.7318 60.0274 15.4261 60.0274 16.2216C60.0274 17.0104 59.8815 17.6998 59.5899 18.2898C59.3015 18.8797 58.8972 19.3388 58.3768 19.6669C57.8598 19.995 57.2565 20.1591 56.5672 20.1591ZM56.5672 19.1051C57.0908 19.1051 57.5217 18.9709 57.8598 18.7024C58.1978 18.4339 58.4481 18.081 58.6105 17.6435C58.7729 17.206 58.8541 16.732 58.8541 16.2216C58.8541 15.7112 58.7729 15.2356 58.6105 14.7947C58.4481 14.3539 58.1978 13.9976 57.8598 13.7259C57.5217 13.4541 57.0908 13.3182 56.5672 13.3182C56.0435 13.3182 55.6126 13.4541 55.2745 13.7259C54.9365 13.9976 54.6862 14.3539 54.5238 14.7947C54.3614 15.2356 54.2802 15.7112 54.2802 16.2216C54.2802 16.732 54.3614 17.206 54.5238 17.6435C54.6862 18.081 54.9365 18.4339 55.2745 18.7024C55.6126 18.9709 56.0435 19.1051 56.5672 19.1051ZM66.2309 16.8778V12.3636H67.4042V20H66.2309V18.7074H66.1514C65.9724 19.0952 65.694 19.425 65.3161 19.6967C64.9383 19.9652 64.461 20.0994 63.8843 20.0994C63.407 20.0994 62.9828 19.995 62.6116 19.7862C62.2404 19.5741 61.9487 19.2559 61.7366 18.8317C61.5245 18.4041 61.4184 17.8655 61.4184 17.2159V12.3636H62.5917V17.1364C62.5917 17.6932 62.7475 18.1373 63.059 18.4688C63.3739 18.8002 63.7749 18.9659 64.2621 18.9659C64.5538 18.9659 64.8505 18.8913 65.1521 18.7422C65.457 18.593 65.7122 18.3643 65.9177 18.0561C66.1265 17.7479 66.2309 17.3551 66.2309 16.8778ZM69.1532 20V12.3636H70.2867V13.517H70.3662C70.5054 13.1392 70.7573 12.8326 71.1219 12.5973C71.4865 12.362 71.8975 12.2443 72.3549 12.2443C72.441 12.2443 72.5488 12.246 72.678 12.2493C72.8073 12.2526 72.9051 12.2576 72.9713 12.2642V13.4574C72.9316 13.4474 72.8404 13.4325 72.6979 13.4126C72.5587 13.3894 72.4112 13.3778 72.2554 13.3778C71.8842 13.3778 71.5528 13.4557 71.2611 13.6115C70.9728 13.764 70.7441 13.9761 70.575 14.2479C70.4093 14.5163 70.3265 14.8229 70.3265 15.1676V20H69.1532ZM76.832 20.1591C76.1161 20.1591 75.4996 19.9901 74.9826 19.652C74.4655 19.3139 74.0678 18.8482 73.7894 18.255C73.511 17.6617 73.3718 16.9839 73.3718 16.2216C73.3718 15.446 73.5143 14.7616 73.7993 14.1683C74.0877 13.5717 74.4887 13.1061 75.0025 12.7713C75.5195 12.4332 76.1227 12.2642 76.8121 12.2642C77.349 12.2642 77.8329 12.3636 78.2638 12.5625C78.6947 12.7614 79.0477 13.0398 79.3228 13.3977C79.5979 13.7557 79.7686 14.1733 79.8348 14.6506H78.6615C78.5721 14.3026 78.3732 13.9943 78.065 13.7259C77.76 13.4541 77.349 13.3182 76.832 13.3182C76.3746 13.3182 75.9736 13.4375 75.6289 13.6761C75.2875 13.9115 75.0207 14.2446 74.8284 14.6754C74.6395 15.103 74.5451 15.6051 74.5451 16.1818C74.5451 16.7718 74.6379 17.2855 74.8235 17.723C75.0124 18.1605 75.2775 18.5002 75.6189 18.7422C75.9636 18.9841 76.368 19.1051 76.832 19.1051C77.1369 19.1051 77.4137 19.0521 77.6623 18.946C77.9108 18.84 78.1213 18.6875 78.2936 18.4886C78.466 18.2898 78.5886 18.0511 78.6615 17.7727H79.8348C79.7686 18.2235 79.6045 18.6295 79.3427 18.9908C79.0841 19.3487 78.7411 19.6338 78.3135 19.8459C77.8893 20.0547 77.3954 20.1591 76.832 20.1591ZM84.3517 20.1591C83.6159 20.1591 82.9812 19.9967 82.4476 19.6719C81.9173 19.3438 81.508 18.8864 81.2196 18.2997C80.9346 17.7098 80.7921 17.0237 80.7921 16.2415C80.7921 15.4593 80.9346 14.7699 81.2196 14.1733C81.508 13.5734 81.909 13.1061 82.4228 12.7713C82.9398 12.4332 83.543 12.2642 84.2324 12.2642C84.6301 12.2642 85.0229 12.3305 85.4107 12.4631C85.7985 12.5956 86.1515 12.8111 86.4696 13.1094C86.7878 13.4044 87.0414 13.7955 87.2303 14.2827C87.4192 14.7699 87.5137 15.3698 87.5137 16.0824V16.5795H81.6273V15.5653H86.3205C86.3205 15.1345 86.2343 14.75 86.062 14.4119C85.8929 14.0739 85.651 13.8071 85.3361 13.6115C85.0246 13.416 84.6567 13.3182 84.2324 13.3182C83.7651 13.3182 83.3607 13.4342 83.0194 13.6662C82.6813 13.8949 82.4211 14.1932 82.2388 14.5611C82.0565 14.929 81.9654 15.3234 81.9654 15.7443V16.4205C81.9654 16.9972 82.0648 17.486 82.2637 17.8871C82.4658 18.2848 82.7459 18.5881 83.1039 18.7969C83.4618 19.0024 83.8778 19.1051 84.3517 19.1051C84.66 19.1051 84.9384 19.062 85.187 18.9759C85.4389 18.8864 85.656 18.7538 85.8382 18.5781C86.0205 18.3991 86.1614 18.1771 86.2608 17.9119L87.3944 18.2301C87.275 18.6146 87.0745 18.9527 86.7928 19.2443C86.5111 19.5327 86.1631 19.758 85.7488 19.9205C85.3345 20.0795 84.8688 20.1591 84.3517 20.1591ZM94.3076 14.0739L93.2536 14.3722C93.1873 14.1965 93.0895 14.0258 92.9603 13.8601C92.8343 13.6911 92.662 13.5518 92.4432 13.4425C92.2245 13.3331 91.9444 13.2784 91.603 13.2784C91.1357 13.2784 90.7462 13.3861 90.4347 13.6016C90.1265 13.8137 89.9723 14.0838 89.9723 14.4119C89.9723 14.7036 90.0784 14.9339 90.2905 15.103C90.5026 15.272 90.8341 15.4129 91.2848 15.5256L92.4184 15.804C93.1011 15.9697 93.6099 16.2232 93.9446 16.5646C94.2794 16.9027 94.4468 17.3385 94.4468 17.8722C94.4468 18.3097 94.3208 18.7008 94.0689 19.0455C93.8203 19.3902 93.4723 19.6619 93.0249 19.8608C92.5774 20.0597 92.0571 20.1591 91.4638 20.1591C90.6849 20.1591 90.0403 19.9901 89.5299 19.652C89.0194 19.3139 88.6963 18.8201 88.5604 18.1705L89.674 17.892C89.7801 18.303 89.9806 18.6113 90.2756 18.8168C90.5739 19.0223 90.9633 19.125 91.4439 19.125C91.9908 19.125 92.425 19.009 92.7465 18.777C93.0713 18.5417 93.2337 18.2599 93.2337 17.9318C93.2337 17.6667 93.1409 17.4446 92.9553 17.2656C92.7697 17.0833 92.4846 16.9474 92.1002 16.858L90.8274 16.5597C90.1281 16.3939 89.6144 16.1371 89.2863 15.7891C88.9614 15.4377 88.799 14.9986 88.799 14.4716C88.799 14.0407 88.92 13.6596 89.162 13.3281C89.4072 12.9967 89.7403 12.7365 90.1613 12.5476C90.5855 12.3587 91.0661 12.2642 91.603 12.2642C92.3587 12.2642 92.952 12.4299 93.3828 12.7614C93.817 13.0928 94.1253 13.5303 94.3076 14.0739Z" fill="white"/>
<mask id="path-5-inside-1_5743_10211" fill="white">
<path d="M3 16.4438C3 9.01898 9.01898 3 16.4438 3H90.5562C97.981 3 104 9.01898 104 16.4438C104 23.8685 97.981 29.8875 90.5562 29.8875H16.4438C9.01897 29.8875 3 23.8685 3 16.4438Z"/>
</mask>
<path d="M16.4438 3V4H90.5562V3V2H16.4438V3ZM90.5562 29.8875V28.8875H16.4438V29.8875V30.8875H90.5562V29.8875ZM16.4438 29.8875V28.8875C9.57126 28.8875 4 23.3163 4 16.4438H3H2C2 24.4208 8.46669 30.8875 16.4438 30.8875V29.8875ZM104 16.4438H103C103 23.3163 97.4287 28.8875 90.5562 28.8875V29.8875V30.8875C98.5333 30.8875 105 24.4208 105 16.4438H104ZM90.5562 3V4C97.4287 4 103 9.57126 103 16.4438H104H105C105 8.4667 98.5333 2 90.5562 2V3ZM16.4438 3V2C8.46669 2 2 8.4667 2 16.4438H3H4C4 9.57126 9.57126 4 16.4438 4V3Z" fill="white" fill-opacity="0.57" mask="url(#path-5-inside-1_5743_10211)"/>
<mask id="path-7-inside-2_5743_10211" fill="white">
<path d="M0 16.2574C0 7.2787 7.2787 0 16.2574 0H90.7426C99.7213 0 107 7.2787 107 16.2574C107 25.2362 99.7213 32.5149 90.7426 32.5149H16.2574C7.2787 32.5149 0 25.2362 0 16.2574Z"/>
</mask>
<path d="M16.2574 0V1H90.7426V0V-1H16.2574V0ZM90.7426 32.5149V31.5149H16.2574V32.5149V33.5149H90.7426V32.5149ZM16.2574 32.5149V31.5149C7.83099 31.5149 1 24.6839 1 16.2574H0H-1C-1 25.7885 6.72642 33.5149 16.2574 33.5149V32.5149ZM107 16.2574H106C106 24.6839 99.169 31.5149 90.7426 31.5149V32.5149V33.5149C100.274 33.5149 108 25.7885 108 16.2574H107ZM90.7426 0V1C99.169 1 106 7.83098 106 16.2574H107H108C108 6.72641 100.274 -1 90.7426 -1V0ZM16.2574 0V-1C6.72642 -1 -1 6.72641 -1 16.2574H0H1C1 7.83098 7.83099 1 16.2574 1V0Z" fill="#F0F0FF" mask="url(#path-7-inside-2_5743_10211)"/>
</g>
</g>
<defs>
<filter id="filter0_dd_5743_10211" x="0" y="0" width="107" height="33.0771" filterUnits="userSpaceOnUse" color-interpolation-filters="sRGB">
<feFlood flood-opacity="0" result="BackgroundImageFix"/>
<feColorMatrix in="SourceAlpha" type="matrix" values="0 0 0 0 0 0 0 0 0 0 0 0 0 0 0 0 0 0 127 0" result="hardAlpha"/>
<feMorphology radius="2.5" operator="erode" in="SourceAlpha" result="effect1_dropShadow_5743_10211"/>
<feOffset dy="2.28853"/>
<feGaussianBlur stdDeviation="1.14427"/>
<feComposite in2="hardAlpha" operator="out"/>
<feColorMatrix type="matrix" values="0 0 0 0 0.164706 0 0 0 0 0.156863 0 0 0 0 0.180392 0 0 0 0.16 0"/>
<feBlend mode="normal" in2="BackgroundImageFix" result="effect1_dropShadow_5743_10211"/>
<feColorMatrix in="SourceAlpha" type="matrix" values="0 0 0 0 0 0 0 0 0 0 0 0 0 0 0 0 0 0 127 0" result="hardAlpha"/>
<feMorphology radius="1.25" operator="erode" in="SourceAlpha" result="effect2_dropShadow_5743_10211"/>
<feOffset dy="0.602187"/>
<feGaussianBlur stdDeviation="0.301093"/>
<feComposite in2="hardAlpha" operator="out"/>
<feColorMatrix type="matrix" values="0 0 0 0 0.164706 0 0 0 0 0.156863 0 0 0 0 0.180392 0 0 0 0.18 0"/>
<feBlend mode="normal" in2="effect1_dropShadow_5743_10211" result="effect2_dropShadow_5743_10211"/>
<feBlend mode="normal" in="SourceGraphic" in2="effect2_dropShadow_5743_10211" result="shape"/>
</filter>
<linearGradient id="paint0_linear_5743_10211" x1="84.0321" y1="47.5419" x2="22.1238" y2="-15.7158" gradientUnits="userSpaceOnUse">
<stop stop-color="#1FA8CA"/>
<stop offset="0.556869" stop-color="#1FA8CA"/>
<stop offset="1" stop-color="#1FA8CA" stop-opacity="0.32"/>
</linearGradient>
<clipPath id="clip0_5743_10211">
<rect width="107" height="31" rx="15.5" fill="white"/>
</clipPath>
</defs>
</svg>
