<svg width="254" height="111" viewBox="0 0 254 111" fill="none" xmlns="http://www.w3.org/2000/svg">
<g opacity="0.9">
<path d="M23.5511 91.4727V18.7454H28.2102V91.4727H23.5511ZM38.125 41.3022C37.822 38.6128 36.572 36.5295 34.375 35.0522C32.178 33.556 29.4129 32.8079 26.0795 32.8079C23.6932 32.8079 21.6288 33.1867 19.8864 33.9443C18.1439 34.6829 16.7898 35.7056 15.8239 37.0125C14.8769 38.3003 14.4034 39.7681 14.4034 41.4159C14.4034 42.7984 14.7254 43.9916 15.3693 44.9954C16.0322 45.9992 16.8939 46.842 17.9545 47.5238C19.0341 48.1867 20.1894 48.7454 21.4205 49.2C22.6515 49.6356 23.8352 49.9954 24.9716 50.2795L30.6534 51.7568C32.5095 52.2113 34.4129 52.8268 36.3636 53.6034C38.3144 54.3799 40.1231 55.4026 41.7898 56.6715C43.4564 57.9405 44.8011 59.5125 45.8239 61.3875C46.8655 63.2625 47.3864 65.5068 47.3864 68.1204C47.3864 71.4159 46.5341 74.342 44.8295 76.8988C43.1439 79.4556 40.6913 81.4727 37.4716 82.95C34.2708 84.4272 30.3977 85.1659 25.8523 85.1659C21.4962 85.1659 17.7273 84.4746 14.5455 83.092C11.3636 81.7094 8.87311 79.7492 7.07386 77.2113C5.27462 74.6545 4.2803 71.6242 4.09091 68.1204H12.8977C13.0682 70.2227 13.75 71.9746 14.9432 73.3761C16.1553 74.7587 17.6989 75.7909 19.5739 76.4727C21.4678 77.1356 23.5417 77.467 25.7955 77.467C28.2765 77.467 30.483 77.0787 32.4148 76.3022C34.3655 75.5068 35.8996 74.4083 37.017 73.0068C38.1345 71.5863 38.6932 69.9291 38.6932 68.0352C38.6932 66.3117 38.2008 64.9007 37.2159 63.8022C36.25 62.7037 34.9337 61.7946 33.267 61.075C31.6193 60.3553 29.7538 59.7208 27.6705 59.1715L20.7955 57.2965C16.1364 56.0276 12.4432 54.1621 9.71591 51.7C7.00758 49.2378 5.65341 45.9803 5.65341 41.9272C5.65341 38.5749 6.5625 35.6488 8.38068 33.1488C10.1989 30.6488 12.661 28.7075 15.767 27.325C18.8731 25.9234 22.3769 25.2227 26.2784 25.2227C30.2178 25.2227 33.6932 25.914 36.7045 27.2965C39.7348 28.6791 42.1212 30.5825 43.8636 33.0068C45.6061 35.4121 46.5152 38.1772 46.5909 41.3022H38.125Z" fill="url(#paint0_linear_5674_14622)"/>
<mask id="mask0_5674_14622" style="mask-type:alpha" maskUnits="userSpaceOnUse" x="52" y="0" width="202" height="108">
<rect x="52" width="201.8" height="108" fill="url(#paint1_linear_5674_14622)"/>
</mask>
<g mask="url(#mask0_5674_14622)">
<g filter="url(#filter0_d_5674_14622)">
<path d="M116.461 74.6454L116.092 77.7704C115.827 80.1568 115.353 82.581 114.671 85.0432C114.008 87.5242 113.308 89.8064 112.569 91.8897C111.83 93.9731 111.234 95.6113 110.779 96.8045H103.847C104.112 95.6492 104.472 94.0772 104.927 92.0886C105.4 90.1 105.855 87.8651 106.291 85.3841C106.726 82.903 107.02 80.3841 107.171 77.8272L107.37 74.6454H116.461Z" fill="#231645"/>
</g>
<g filter="url(#filter1_d_5674_14622)">
<path d="M77.9964 72.378C73.3184 72.378 69.3033 71.1943 65.951 68.8268C62.6177 66.4405 60.0514 63.003 58.2521 58.5143C56.4718 54.0068 55.5817 48.5806 55.5817 42.2359C55.6006 35.8912 56.5002 30.4935 58.2805 26.0427C60.0798 21.573 62.6461 18.164 65.9794 15.8155C69.3317 13.467 73.3373 12.2927 77.9964 12.2927C82.6555 12.2927 86.6612 13.467 90.0135 15.8155C93.3658 18.164 95.932 21.573 97.7123 26.0427C99.5116 30.5124 100.411 35.9102 100.411 42.2359C100.411 48.5996 99.5116 54.0352 97.7123 58.5427C95.932 63.0314 93.3658 66.4594 90.0135 68.8268C86.6802 71.1943 82.6745 72.378 77.9964 72.378ZM77.9964 63.4859C81.6328 63.4859 84.5021 61.6962 86.6044 58.1166C88.7256 54.5181 89.7862 49.2246 89.7862 42.2359C89.7862 37.6147 89.3033 33.7321 88.3374 30.5882C87.3714 27.4443 86.0078 25.0768 84.2464 23.4859C82.4851 21.8761 80.4017 21.0712 77.9964 21.0712C74.379 21.0712 71.5192 22.8704 69.4169 26.4689C67.3146 30.0484 66.254 35.3041 66.2351 42.2359C66.2161 46.8761 66.6802 50.7776 67.6271 53.9405C68.593 57.1034 69.9567 59.4897 71.718 61.0996C73.4794 62.6905 75.5722 63.4859 77.9964 63.4859Z" fill="black"/>
<path d="M87.6165 94.1882V152.37H77.0767V104.444H76.7358L63.1278 113.137V103.478L77.5881 94.1882H87.6165Z" fill="white"/>
</g>
<g filter="url(#filter2_d_5674_14622)">
<path d="M143.796 27.6879C139.118 27.6879 135.103 26.5042 131.751 24.1368C128.418 21.7504 125.851 18.3129 124.052 13.8243C122.272 9.3167 121.382 3.89056 121.382 -2.45414C121.401 -8.79883 122.3 -14.1966 124.081 -18.6473C125.88 -23.117 128.446 -26.5261 131.779 -28.8746C135.132 -31.2231 139.137 -32.3973 143.796 -32.3973C148.456 -32.3973 152.461 -31.2231 155.814 -28.8746C159.166 -26.5261 161.732 -23.117 163.512 -18.6473C165.312 -14.1776 166.211 -8.77989 166.211 -2.45414C166.211 3.9095 165.312 9.34511 163.512 13.8527C161.732 18.3413 159.166 21.7694 155.814 24.1368C152.48 26.5042 148.475 27.6879 143.796 27.6879ZM143.796 18.7959C147.433 18.7959 150.302 17.0061 152.404 13.4265C154.526 9.82806 155.586 4.5345 155.586 -2.45414C155.586 -7.07535 155.103 -10.9579 154.137 -14.1019C153.171 -17.2458 151.808 -19.6132 150.046 -21.2041C148.285 -22.814 146.202 -23.6189 143.796 -23.6189C140.179 -23.6189 137.319 -21.8197 135.217 -18.2212C133.115 -14.6416 132.054 -9.38595 132.035 -2.45414C132.016 2.18602 132.48 6.08753 133.427 9.25041C134.393 12.4133 135.757 14.7997 137.518 16.4095C139.279 18.0004 141.372 18.7959 143.796 18.7959Z" fill="black"/>
<path d="M153.417 49.3981V107.58H142.877V59.6538H142.536L128.928 68.347V58.6879L143.388 49.3981H153.417Z" fill="black"/>
</g>
<g filter="url(#filter3_d_5674_14622)">
<path d="M185.796 38.8979C181.118 38.8979 177.103 37.7142 173.751 35.3467C170.418 32.9604 167.851 29.5229 166.052 25.0342C164.272 20.5267 163.382 15.1005 163.382 8.75582C163.401 2.41113 164.3 -2.9866 166.081 -7.43736C167.88 -11.9071 170.446 -15.3161 173.779 -17.6646C177.132 -20.0131 181.137 -21.1874 185.796 -21.1874C190.456 -21.1874 194.461 -20.0131 197.814 -17.6646C201.166 -15.3161 203.732 -11.9071 205.512 -7.43736C207.312 -2.96766 208.211 2.43007 208.211 8.75582C208.211 15.1195 207.312 20.5551 205.512 25.0626C203.732 29.5513 201.166 32.9793 197.814 35.3467C194.48 37.7142 190.475 38.8979 185.796 38.8979ZM185.796 30.0058C189.433 30.0058 192.302 28.2161 194.404 24.6365C196.526 21.038 197.586 15.7445 197.586 8.75582C197.586 4.13461 197.103 0.252037 196.137 -2.8919C195.171 -6.03584 193.808 -8.40327 192.046 -9.99417C190.285 -11.604 188.202 -12.4089 185.796 -12.4089C182.179 -12.4089 179.319 -10.6097 177.217 -7.01122C175.115 -3.43168 174.054 1.82401 174.035 8.75582C174.016 13.396 174.48 17.2975 175.427 20.4604C176.393 23.6232 177.757 26.0096 179.518 27.6195C181.279 29.2104 183.372 30.0058 185.796 30.0058Z" fill="#231645"/>
<path d="M195.417 60.6081V118.79H184.877V70.8638H184.536L170.928 79.557V69.8979L185.388 60.6081H195.417Z" fill="#231645"/>
</g>
<g filter="url(#filter4_d_5674_14622)">
<path d="M227.796 61.2979C223.118 61.2979 219.103 60.1142 215.751 57.7468C212.418 55.3604 209.851 51.9229 208.052 47.4343C206.272 42.9267 205.382 37.5005 205.382 31.1558C205.401 24.8112 206.3 19.4134 208.081 14.9627C209.88 10.493 212.446 7.08388 215.779 4.7354C219.132 2.38691 223.137 1.21267 227.796 1.21267C232.456 1.21267 236.461 2.38691 239.814 4.7354C243.166 7.08388 245.732 10.493 247.512 14.9627C249.312 19.4324 250.211 24.8301 250.211 31.1558C250.211 37.5195 249.312 42.9551 247.512 47.4627C245.732 51.9513 243.166 55.3793 239.814 57.7468C236.48 60.1142 232.475 61.2979 227.796 61.2979ZM227.796 52.4059C231.433 52.4059 234.302 50.6161 236.404 47.0365C238.526 43.438 239.586 38.1445 239.586 31.1558C239.586 26.5346 239.103 22.6521 238.137 19.5081C237.171 16.3642 235.808 13.9968 234.046 12.4059C232.285 10.796 230.202 9.99108 227.796 9.99108C224.179 9.99108 221.319 11.7903 219.217 15.3888C217.115 18.9683 216.054 24.224 216.035 31.1558C216.016 35.796 216.48 39.6975 217.427 42.8604C218.393 46.0233 219.757 48.4096 221.518 50.0195C223.279 51.6104 225.372 52.4059 227.796 52.4059Z" fill="black"/>
<path d="M237.417 83.0081V141.19H226.877V93.2638H226.536L212.928 101.957V92.2979L227.388 83.0081H237.417Z" fill="white"/>
</g>
</g>
</g>
<defs>
<filter id="filter0_d_5674_14622" x="90" y="14" width="41.8" height="90.8046" filterUnits="userSpaceOnUse" color-interpolation-filters="sRGB">
<feFlood flood-opacity="0" result="BackgroundImageFix"/>
<feColorMatrix in="SourceAlpha" type="matrix" values="0 0 0 0 0 0 0 0 0 0 0 0 0 0 0 0 0 0 127 0" result="hardAlpha"/>
<feOffset dy="4"/>
<feGaussianBlur stdDeviation="2"/>
<feComposite in2="hardAlpha" operator="out"/>
<feColorMatrix type="matrix" values="0 0 0 0 0 0 0 0 0 0 0 0 0 0 0 0 0 0 0.25 0"/>
<feBlend mode="normal" in2="BackgroundImageFix" result="effect1_dropShadow_5674_14622"/>
<feBlend mode="normal" in="SourceGraphic" in2="effect1_dropShadow_5674_14622" result="shape"/>
</filter>
<filter id="filter1_d_5674_14622" x="48" y="2.67004" width="60" height="818.9" filterUnits="userSpaceOnUse" color-interpolation-filters="sRGB">
<feFlood flood-opacity="0" result="BackgroundImageFix"/>
<feColorMatrix in="SourceAlpha" type="matrix" values="0 0 0 0 0 0 0 0 0 0 0 0 0 0 0 0 0 0 127 0" result="hardAlpha"/>
<feOffset dy="4"/>
<feGaussianBlur stdDeviation="2"/>
<feComposite in2="hardAlpha" operator="out"/>
<feColorMatrix type="matrix" values="0 0 0 0 0 0 0 0 0 0 0 0 0 0 0 0 0 0 0.25 0"/>
<feBlend mode="normal" in2="BackgroundImageFix" result="effect1_dropShadow_5674_14622"/>
<feBlend mode="normal" in="SourceGraphic" in2="effect1_dropShadow_5674_14622" result="shape"/>
</filter>
<filter id="filter2_d_5674_14622" x="113.8" y="-42.02" width="60" height="818" filterUnits="userSpaceOnUse" color-interpolation-filters="sRGB">
<feFlood flood-opacity="0" result="BackgroundImageFix"/>
<feColorMatrix in="SourceAlpha" type="matrix" values="0 0 0 0 0 0 0 0 0 0 0 0 0 0 0 0 0 0 127 0" result="hardAlpha"/>
<feOffset dy="4"/>
<feGaussianBlur stdDeviation="2"/>
<feComposite in2="hardAlpha" operator="out"/>
<feColorMatrix type="matrix" values="0 0 0 0 0 0 0 0 0 0 0 0 0 0 0 0 0 0 0.25 0"/>
<feBlend mode="normal" in2="BackgroundImageFix" result="effect1_dropShadow_5674_14622"/>
<feBlend mode="normal" in="SourceGraphic" in2="effect1_dropShadow_5674_14622" result="shape"/>
</filter>
<filter id="filter3_d_5674_14622" x="155.8" y="-30.8101" width="60" height="818" filterUnits="userSpaceOnUse" color-interpolation-filters="sRGB">
<feFlood flood-opacity="0" result="BackgroundImageFix"/>
<feColorMatrix in="SourceAlpha" type="matrix" values="0 0 0 0 0 0 0 0 0 0 0 0 0 0 0 0 0 0 127 0" result="hardAlpha"/>
<feOffset dy="4"/>
<feGaussianBlur stdDeviation="2"/>
<feComposite in2="hardAlpha" operator="out"/>
<feColorMatrix type="matrix" values="0 0 0 0 0 0 0 0 0 0 0 0 0 0 0 0 0 0 0.25 0"/>
<feBlend mode="normal" in2="BackgroundImageFix" result="effect1_dropShadow_5674_14622"/>
<feBlend mode="normal" in="SourceGraphic" in2="effect1_dropShadow_5674_14622" result="shape"/>
</filter>
<filter id="filter4_d_5674_14622" x="197.8" y="-8.41003" width="60" height="818" filterUnits="userSpaceOnUse" color-interpolation-filters="sRGB">
<feFlood flood-opacity="0" result="BackgroundImageFix"/>
<feColorMatrix in="SourceAlpha" type="matrix" values="0 0 0 0 0 0 0 0 0 0 0 0 0 0 0 0 0 0 127 0" result="hardAlpha"/>
<feOffset dy="4"/>
<feGaussianBlur stdDeviation="2"/>
<feComposite in2="hardAlpha" operator="out"/>
<feColorMatrix type="matrix" values="0 0 0 0 0 0 0 0 0 0 0 0 0 0 0 0 0 0 0.25 0"/>
<feBlend mode="normal" in2="BackgroundImageFix" result="effect1_dropShadow_5674_14622"/>
<feBlend mode="normal" in="SourceGraphic" in2="effect1_dropShadow_5674_14622" result="shape"/>
</filter>
<linearGradient id="paint0_linear_5674_14622" x1="26" y1="7.19995" x2="26" y2="103.2" gradientUnits="userSpaceOnUse">
<stop stop-color="#1FCA80"/>
<stop offset="1" stop-color="#1FCA80" stop-opacity="0.32"/>
</linearGradient>
<linearGradient id="paint1_linear_5674_14622" x1="152.9" y1="0" x2="152.9" y2="108" gradientUnits="userSpaceOnUse">
<stop offset="0.05" stop-opacity="0"/>
<stop offset="0.25"/>
<stop offset="0.75"/>
<stop offset="0.95" stop-opacity="0"/>
</linearGradient>
</defs>
</svg>
