<svg width="44" height="73" viewBox="0 0 44 73" fill="none" xmlns="http://www.w3.org/2000/svg">
<path d="M19.4603 72.7273V4.00543e-05H24.1194V72.7273H19.4603ZM34.0342 22.5569C33.7311 19.8675 32.4811 17.7841 30.2842 16.3069C28.0872 14.8106 25.3221 14.0625 21.9887 14.0625C19.6024 14.0625 17.538 14.4413 15.7955 15.1989C14.0531 15.9375 12.699 16.9603 11.733 18.2671C10.7861 19.555 10.3126 21.0228 10.3126 22.6705C10.3126 24.0531 10.6346 25.2463 11.2785 26.25C11.9414 27.2538 12.8031 28.0966 13.8637 28.7785C14.9433 29.4413 16.0986 30 17.3296 30.4546C18.5607 30.8902 19.7444 31.25 20.8808 31.5341L26.5626 33.0114C28.4186 33.466 30.3221 34.0815 32.2728 34.858C34.2236 35.6345 36.0323 36.6572 37.699 37.9262C39.3656 39.1951 40.7103 40.7671 41.733 42.6421C42.7747 44.5171 43.2955 46.7614 43.2955 49.375C43.2955 52.6705 42.4433 55.5966 40.7387 58.1535C39.0531 60.7103 36.6005 62.7273 33.3808 64.2046C30.18 65.6819 26.3069 66.4205 21.7615 66.4205C17.4054 66.4205 13.6365 65.7292 10.4546 64.3466C7.27282 62.9641 4.78229 61.0038 2.98304 58.466C1.1838 55.9091 0.189483 52.8788 8.90493e-05 49.375H8.80691C8.97736 51.4773 9.65918 53.2292 10.8524 54.6307C12.0645 56.0133 13.608 57.0455 15.483 57.7273C17.377 58.3902 19.4508 58.7216 21.7046 58.7216C24.1857 58.7216 26.3921 58.3334 28.324 57.5569C30.2747 56.7614 31.8088 55.6629 32.9262 54.2614C34.0437 52.841 34.6024 51.1838 34.6024 49.2898C34.6024 47.5663 34.1099 46.1553 33.1251 45.0569C32.1592 43.9584 30.8429 43.0493 29.1762 42.3296C27.5285 41.6099 25.663 40.9754 23.5796 40.4262L16.7046 38.5512C12.0455 37.2822 8.35236 35.4167 5.62509 32.9546C2.91676 30.4925 1.56259 27.2349 1.56259 23.1819C1.56259 19.8296 2.47168 16.9035 4.28986 14.4035C6.10804 11.9035 8.57017 9.96216 11.6762 8.57959C14.7823 7.17807 18.2861 6.47731 22.1876 6.47731C26.127 6.47731 29.6024 7.1686 32.6137 8.55118C35.644 9.93376 38.0304 11.8372 39.7728 14.2614C41.5152 16.6667 42.4243 19.4319 42.5001 22.5569H34.0342Z" fill="url(#paint0_linear_5743_8253)"/>
<defs>
<linearGradient id="paint0_linear_5743_8253" x1="21.9092" y1="-11.5454" x2="21.9092" y2="84.4546" gradientUnits="userSpaceOnUse">
<stop stop-color="#1FCA80"/>
<stop offset="1" stop-color="#1FCA80" stop-opacity="0.32"/>
</linearGradient>
</defs>
</svg>
