<svg width="40" height="23" viewBox="0 0 40 23" fill="none" xmlns="http://www.w3.org/2000/svg">
<path d="M22.8962 16.0545C22.8975 16.054 22.8983 16.0511 22.8999 16.049C22.8983 16.0511 22.8973 16.054 22.8962 16.0545Z" fill="#E3E4E3"/>
<path d="M22.9112 16.0258C22.9075 16.0334 22.9033 16.0409 22.8994 16.0492C22.9041 16.0404 22.9078 16.0326 22.9112 16.0258Z" fill="#E3E4E3"/>
<path d="M22.8881 16.0713C22.8831 16.0783 22.8791 16.0872 22.8759 16.092C22.8787 16.0876 22.8825 16.0798 22.8881 16.0713Z" fill="#E3E4E3"/>
<path d="M39.5508 18.2857L2.37349 22.917L0.108101 4.68416L37.2852 0.0528372L39.5508 18.2857Z" fill="url(#paint0_linear_5674_14871)"/>
<path d="M36.1447 15.4497L5.33127 19.2882L3.84961 7.36404L34.663 3.52548L36.1447 15.4497Z" fill="url(#paint1_linear_5674_14871)"/>
<path d="M26.5139 8.20483C28.2689 11.6576 26.8974 15.8815 23.4507 17.6391C20.004 19.3966 15.7871 18.0225 14.0322 14.5697C12.2772 11.1169 13.6486 6.89309 17.0953 5.13546C20.5421 3.37782 24.7589 4.75209 26.5139 8.20483Z" fill="url(#paint2_linear_5674_14871)"/>
<path d="M10.2607 12.1515C10.6092 12.837 10.3369 13.6756 9.65259 14.0245C8.96833 14.3734 8.13113 14.1006 7.7828 13.4151C7.43436 12.7297 7.70659 11.8911 8.39085 11.5421C9.0751 11.1932 9.91231 11.4661 10.2607 12.1515Z" fill="url(#paint3_linear_5674_14871)"/>
<path d="M2.14939 5.91399L4.03731 21.1083L37.6983 16.9149L35.8102 1.72069L2.14939 5.91399ZM36.1447 15.4498L5.33125 19.2884L3.84958 7.36407L34.6629 3.52563L36.1447 15.4498Z" fill="url(#paint4_linear_5674_14871)"/>
<path d="M33.2449 9.05581C33.5933 9.74126 33.321 10.5799 32.6367 10.9288C31.9525 11.2777 31.1153 11.0049 30.7669 10.3194C30.4185 9.63397 30.6907 8.79538 31.375 8.44643C32.0592 8.09747 32.8964 8.37035 33.2449 9.05581Z" fill="url(#paint5_linear_5674_14871)"/>
<path d="M21.4238 14.385L21.5743 15.3965L20.7792 15.515L20.633 14.5315C19.8957 14.6381 19.1886 14.5977 18.5115 14.4095L18.3196 13.1184C18.5518 13.2333 18.8858 13.3217 19.3216 13.3835C19.7575 13.4457 20.1401 13.4615 20.4695 13.4315L20.2173 11.7349C19.3279 11.5912 18.7046 11.3849 18.3473 11.1157C17.9901 10.8468 17.7778 10.4854 17.7103 10.0315C17.6378 9.54393 17.7774 9.09809 18.1294 8.69497C18.481 8.29145 18.9848 8.01242 19.6408 7.85745L19.5118 6.99054L20.3068 6.87207L20.433 7.72027C21.2032 7.63696 21.7905 7.65751 22.195 7.78162L22.3819 9.0396C21.8344 8.8516 21.2387 8.775 20.595 8.81054L20.8577 10.577C21.6889 10.7042 22.3004 10.8998 22.692 11.1635C23.0837 11.4277 23.3128 11.7832 23.3793 12.2307C23.4561 12.7467 23.3254 13.1911 22.9878 13.5635C22.6498 13.9364 22.1286 14.2099 21.4238 14.385ZM20.0225 10.4252L19.8028 8.94772C19.31 9.10072 19.0913 9.36339 19.1467 9.73626C19.1943 10.0565 19.4862 10.286 20.0225 10.4252ZM21.0517 11.8821L21.2616 13.2943C21.7703 13.1489 21.997 12.8879 21.941 12.5118C21.8957 12.2074 21.5992 11.9977 21.0517 11.8821Z" fill="#E9F5E7"/>
<defs>
<linearGradient id="paint0_linear_5674_14871" x1="19.4905" y1="0.607248" x2="20.1684" y2="22.3626" gradientUnits="userSpaceOnUse">
<stop stop-color="#0A8C15" stop-opacity="0.32"/>
<stop offset="1" stop-color="#0A8C15"/>
</linearGradient>
<linearGradient id="paint1_linear_5674_14871" x1="19.7661" y1="3.98961" x2="20.2282" y2="18.8241" gradientUnits="userSpaceOnUse">
<stop stop-color="#25803B" stop-opacity="0.32"/>
<stop offset="1" stop-color="#25803B"/>
</linearGradient>
<linearGradient id="paint2_linear_5674_14871" x1="20.0545" y1="4.3738" x2="20.4916" y2="18.4007" gradientUnits="userSpaceOnUse">
<stop stop-color="#12D91C" stop-opacity="0.32"/>
<stop offset="1" stop-color="#12D91C"/>
</linearGradient>
<linearGradient id="paint3_linear_5674_14871" x1="8.97838" y1="11.3909" x2="9.06514" y2="14.1757" gradientUnits="userSpaceOnUse">
<stop stop-color="white" stop-opacity="0.32"/>
<stop offset="1" stop-color="white"/>
</linearGradient>
<linearGradient id="paint4_linear_5674_14871" x1="19.6375" y1="2.22457" x2="20.2101" y2="20.6044" gradientUnits="userSpaceOnUse">
<stop stop-color="#2CED4F" stop-opacity="0.32"/>
<stop offset="1" stop-color="#2CED4F"/>
</linearGradient>
<linearGradient id="paint5_linear_5674_14871" x1="31.9625" y1="8.29521" x2="32.0493" y2="11.08" gradientUnits="userSpaceOnUse">
<stop stop-color="white" stop-opacity="0.32"/>
<stop offset="1" stop-color="white" stop-opacity="0.32"/>
</linearGradient>
</defs>
</svg>
