<svg width="234" height="74" viewBox="0 0 234 74" fill="none" xmlns="http://www.w3.org/2000/svg">
<path d="M46.0001 9.05371C17.0644 9.05371 0 38.1996 0 38.1996C0 38.1996 17.0644 67.346 46.0001 67.346C74.9358 67.346 92.0002 38.1996 92.0002 38.1996C92.0002 38.1996 74.9356 9.05371 46.0001 9.05371ZM46.0001 57.5779C35.5255 57.5779 27.0342 48.9022 27.0342 38.1996C27.0342 27.4977 35.5253 18.8218 46.0001 18.8218C56.4744 18.8218 64.966 27.4975 64.966 38.1996C64.9658 48.902 56.4744 57.5779 46.0001 57.5779Z" fill="url(#paint0_linear_5979_13305)" fill-opacity="0.9"/>
<path d="M46 44.2649C49.2783 44.2649 51.936 41.5495 51.936 38.1998C51.936 34.8502 49.2783 32.1348 46 32.1348C42.7216 32.1348 40.064 34.8502 40.064 38.1998C40.064 41.5495 42.7216 44.2649 46 44.2649Z" fill="url(#paint1_linear_5979_13305)"/>
<g filter="url(#filter0_d_5979_13305)">
<path d="M123.932 65.9659C119.443 65.947 115.608 64.7633 112.426 62.4148C109.244 60.0663 106.811 56.6477 105.125 52.1591C103.439 47.6705 102.597 42.2633 102.597 35.9375C102.597 29.6307 103.439 24.2424 105.125 19.7727C106.83 15.303 109.273 11.8939 112.455 9.54545C115.655 7.19697 119.481 6.02273 123.932 6.02273C128.383 6.02273 132.199 7.20644 135.381 9.57386C138.563 11.9223 140.996 15.3314 142.682 19.8011C144.386 24.2519 145.239 29.6307 145.239 35.9375C145.239 42.2822 144.396 47.6989 142.71 52.1875C141.025 56.6572 138.591 60.0758 135.409 62.4432C132.227 64.7917 128.402 65.9659 123.932 65.9659ZM123.932 58.3807C127.871 58.3807 130.949 56.4583 133.165 52.6136C135.4 48.7689 136.517 43.2102 136.517 35.9375C136.517 31.108 136.006 27.0265 134.983 23.6932C133.979 20.3409 132.53 17.803 130.636 16.0795C128.761 14.3371 126.527 13.4659 123.932 13.4659C120.011 13.4659 116.934 15.3977 114.699 19.2614C112.464 23.125 111.337 28.6837 111.318 35.9375C111.318 40.786 111.82 44.8864 112.824 48.2386C113.847 51.572 115.295 54.1004 117.17 55.8239C119.045 57.5284 121.299 58.3807 123.932 58.3807Z" fill="black"/>
</g>
<g filter="url(#filter1_d_5979_13305)">
<path d="M165.932 65.9659C161.443 65.947 157.608 64.7633 154.426 62.4148C151.244 60.0663 148.811 56.6477 147.125 52.1591C145.439 47.6705 144.597 42.2633 144.597 35.9375C144.597 29.6307 145.439 24.2424 147.125 19.7727C148.83 15.303 151.273 11.8939 154.455 9.54545C157.655 7.19697 161.481 6.02273 165.932 6.02273C170.383 6.02273 174.199 7.20644 177.381 9.57386C180.563 11.9223 182.996 15.3314 184.682 19.8011C186.386 24.2519 187.239 29.6307 187.239 35.9375C187.239 42.2822 186.396 47.6989 184.71 52.1875C183.025 56.6572 180.591 60.0758 177.409 62.4432C174.227 64.7917 170.402 65.9659 165.932 65.9659ZM165.932 58.3807C169.871 58.3807 172.949 56.4583 175.165 52.6136C177.4 48.7689 178.517 43.2102 178.517 35.9375C178.517 31.108 178.006 27.0265 176.983 23.6932C175.979 20.3409 174.53 17.803 172.636 16.0795C170.761 14.3371 168.527 13.4659 165.932 13.4659C162.011 13.4659 158.934 15.3977 156.699 19.2614C154.464 23.125 153.337 28.6837 153.318 35.9375C153.318 40.786 153.82 44.8864 154.824 48.2386C155.847 51.572 157.295 54.1004 159.17 55.8239C161.045 57.5284 163.299 58.3807 165.932 58.3807Z" fill="black"/>
</g>
<g filter="url(#filter2_d_5979_13305)">
<path d="M207.932 65.9659C203.443 65.947 199.608 64.7633 196.426 62.4148C193.244 60.0663 190.811 56.6477 189.125 52.1591C187.439 47.6705 186.597 42.2633 186.597 35.9375C186.597 29.6307 187.439 24.2424 189.125 19.7727C190.83 15.303 193.273 11.8939 196.455 9.54545C199.655 7.19697 203.481 6.02273 207.932 6.02273C212.383 6.02273 216.199 7.20644 219.381 9.57386C222.563 11.9223 224.996 15.3314 226.682 19.8011C228.386 24.2519 229.239 29.6307 229.239 35.9375C229.239 42.2822 228.396 47.6989 226.71 52.1875C225.025 56.6572 222.591 60.0758 219.409 62.4432C216.227 64.7917 212.402 65.9659 207.932 65.9659ZM207.932 58.3807C211.871 58.3807 214.949 56.4583 217.165 52.6136C219.4 48.7689 220.517 43.2102 220.517 35.9375C220.517 31.108 220.006 27.0265 218.983 23.6932C217.979 20.3409 216.53 17.803 214.636 16.0795C212.761 14.3371 210.527 13.4659 207.932 13.4659C204.011 13.4659 200.934 15.3977 198.699 19.2614C196.464 23.125 195.337 28.6837 195.318 35.9375C195.318 40.786 195.82 44.8864 196.824 48.2386C197.847 51.572 199.295 54.1004 201.17 55.8239C203.045 57.5284 205.299 58.3807 207.932 58.3807Z" fill="black"/>
</g>
<defs>
<filter id="filter0_d_5979_13305" x="98.5967" y="6.02271" width="50.6421" height="67.9431" filterUnits="userSpaceOnUse" color-interpolation-filters="sRGB">
<feFlood flood-opacity="0" result="BackgroundImageFix"/>
<feColorMatrix in="SourceAlpha" type="matrix" values="0 0 0 0 0 0 0 0 0 0 0 0 0 0 0 0 0 0 127 0" result="hardAlpha"/>
<feOffset dy="4"/>
<feGaussianBlur stdDeviation="2"/>
<feComposite in2="hardAlpha" operator="out"/>
<feColorMatrix type="matrix" values="0 0 0 0 0 0 0 0 0 0 0 0 0 0 0 0 0 0 0.25 0"/>
<feBlend mode="normal" in2="BackgroundImageFix" result="effect1_dropShadow_5979_13305"/>
<feBlend mode="normal" in="SourceGraphic" in2="effect1_dropShadow_5979_13305" result="shape"/>
</filter>
<filter id="filter1_d_5979_13305" x="140.597" y="6.02271" width="50.6421" height="67.9431" filterUnits="userSpaceOnUse" color-interpolation-filters="sRGB">
<feFlood flood-opacity="0" result="BackgroundImageFix"/>
<feColorMatrix in="SourceAlpha" type="matrix" values="0 0 0 0 0 0 0 0 0 0 0 0 0 0 0 0 0 0 127 0" result="hardAlpha"/>
<feOffset dy="4"/>
<feGaussianBlur stdDeviation="2"/>
<feComposite in2="hardAlpha" operator="out"/>
<feColorMatrix type="matrix" values="0 0 0 0 0 0 0 0 0 0 0 0 0 0 0 0 0 0 0.25 0"/>
<feBlend mode="normal" in2="BackgroundImageFix" result="effect1_dropShadow_5979_13305"/>
<feBlend mode="normal" in="SourceGraphic" in2="effect1_dropShadow_5979_13305" result="shape"/>
</filter>
<filter id="filter2_d_5979_13305" x="182.597" y="6.02271" width="50.6421" height="67.9431" filterUnits="userSpaceOnUse" color-interpolation-filters="sRGB">
<feFlood flood-opacity="0" result="BackgroundImageFix"/>
<feColorMatrix in="SourceAlpha" type="matrix" values="0 0 0 0 0 0 0 0 0 0 0 0 0 0 0 0 0 0 127 0" result="hardAlpha"/>
<feOffset dy="4"/>
<feGaussianBlur stdDeviation="2"/>
<feComposite in2="hardAlpha" operator="out"/>
<feColorMatrix type="matrix" values="0 0 0 0 0 0 0 0 0 0 0 0 0 0 0 0 0 0 0.25 0"/>
<feBlend mode="normal" in2="BackgroundImageFix" result="effect1_dropShadow_5979_13305"/>
<feBlend mode="normal" in="SourceGraphic" in2="effect1_dropShadow_5979_13305" result="shape"/>
</filter>
<linearGradient id="paint0_linear_5979_13305" x1="46.0001" y1="9.05371" x2="46.0001" y2="67.346" gradientUnits="userSpaceOnUse">
<stop stop-color="#DB47BB" stop-opacity="0.32"/>
<stop offset="1" stop-color="#DB47BB"/>
</linearGradient>
<linearGradient id="paint1_linear_5979_13305" x1="46" y1="32.1348" x2="46" y2="44.2649" gradientUnits="userSpaceOnUse">
<stop stop-color="#DB47BB"/>
<stop offset="1" stop-color="#DB47BB" stop-opacity="0.32"/>
</linearGradient>
</defs>
</svg>
