<svg width="99" height="34" viewBox="0 0 99 34" fill="none" xmlns="http://www.w3.org/2000/svg">
<mask id="path-1-inside-1_5773_6572" fill="white">
<path d="M0 12C0 5.37258 5.37258 0 12 0H87C93.6274 0 99 5.37258 99 12V21.3C99 27.9274 93.6274 33.3 87 33.3H12C5.37258 33.3 0 27.9274 0 21.3V12Z"/>
</mask>
<path d="M0 12C0 5.37258 5.37258 0 12 0H87C93.6274 0 99 5.37258 99 12V21.3C99 27.9274 93.6274 33.3 87 33.3H12C5.37258 33.3 0 27.9274 0 21.3V12Z" fill="url(#paint0_linear_5773_6572)" fill-opacity="0.95"/>
<path d="M12 0V1H87V0V-1H12V0ZM99 12H98V21.3H99H100V12H99ZM87 33.3V32.3H12V33.3V34.3H87V33.3ZM0 21.3H1V12H0H-1V21.3H0ZM12 33.3V32.3C5.92487 32.3 1 27.3751 1 21.3H0H-1C-1 28.4797 4.8203 34.3 12 34.3V33.3ZM99 21.3H98C98 27.3751 93.0751 32.3 87 32.3V33.3V34.3C94.1797 34.3 100 28.4797 100 21.3H99ZM87 0V1C93.0751 1 98 5.92487 98 12H99H100C100 4.8203 94.1797 -1 87 -1V0ZM12 0V-1C4.8203 -1 -1 4.8203 -1 12H0H1C1 5.92487 5.92487 1 12 1V0Z" fill="url(#paint1_linear_5773_6572)" fill-opacity="0.95" mask="url(#path-1-inside-1_5773_6572)"/>
<path d="M46.9645 12.0909V23H45.6435V13.4759H45.5795L42.9162 15.2443V13.902L45.6435 12.0909H46.9645ZM50.1019 23V22.0412L53.7028 18.0994C54.1254 17.6378 54.4734 17.2365 54.7468 16.8956C55.0202 16.5511 55.2227 16.228 55.354 15.9261C55.489 15.6207 55.5565 15.3011 55.5565 14.9673C55.5565 14.5838 55.4641 14.2518 55.2795 13.9712C55.0984 13.6907 54.8498 13.4741 54.5337 13.3214C54.2177 13.1687 53.8626 13.0923 53.4684 13.0923C53.0494 13.0923 52.6836 13.1793 52.3711 13.3533C52.0621 13.5238 51.8224 13.7635 51.652 14.0724C51.4851 14.3814 51.4016 14.7436 51.4016 15.1591H50.1445C50.1445 14.5199 50.2919 13.9588 50.5866 13.4759C50.8814 12.9929 51.2827 12.6165 51.7905 12.3466C52.3018 12.0767 52.8754 11.9418 53.511 11.9418C54.1502 11.9418 54.7166 12.0767 55.2102 12.3466C55.7038 12.6165 56.0909 12.9805 56.3714 13.4386C56.652 13.8967 56.7923 14.4062 56.7923 14.9673C56.7923 15.3686 56.7195 15.761 56.5739 16.1445C56.4318 16.5245 56.1832 16.9489 55.8281 17.4176C55.4766 17.8828 54.9883 18.451 54.3633 19.1222L51.913 21.7429V21.8281H56.984V23H50.1019ZM60.1214 23.0852C59.8587 23.0852 59.6332 22.9911 59.445 22.8029C59.2567 22.6147 59.1626 22.3892 59.1626 22.1264C59.1626 21.8636 59.2567 21.6381 59.445 21.4499C59.6332 21.2617 59.8587 21.1676 60.1214 21.1676C60.3842 21.1676 60.6097 21.2617 60.7979 21.4499C60.9862 21.6381 61.0803 21.8636 61.0803 22.1264C61.0803 22.3004 61.0359 22.4602 60.9471 22.6058C60.8619 22.7514 60.7464 22.8686 60.6009 22.9574C60.4588 23.0426 60.299 23.0852 60.1214 23.0852ZM63.0591 20.7628V19.6761L67.8532 12.0909H68.6415V13.7741H68.1088L64.4867 19.5057V19.5909H70.9426V20.7628H63.0591ZM68.1941 23V20.4325V19.9265V12.0909H69.4512V23H68.1941ZM74.132 20.017L74.1107 18.4616H74.3664L77.9459 14.8182H79.5013L75.6874 18.6747H75.5809L74.132 20.017ZM72.9601 23V12.0909H74.2172V23H72.9601ZM78.159 23L74.963 18.9517L75.8579 18.0781L79.757 23H78.159Z" fill="white" fill-opacity="0.7"/>
<path d="M33 26V24C33 22.9391 32.5786 21.9217 31.8284 21.1716C31.0783 20.4214 30.0609 20 29 20H23C21.9391 20 20.9217 20.4214 20.1716 21.1716C19.4214 21.9217 19 22.9391 19 24V26" stroke="white" stroke-opacity="0.78" stroke-width="2" stroke-linecap="round" stroke-linejoin="round"/>
<path d="M26 16C28.2091 16 30 14.2091 30 12C30 9.79086 28.2091 8 26 8C23.7909 8 22 9.79086 22 12C22 14.2091 23.7909 16 26 16Z" stroke="white" stroke-opacity="0.78" stroke-width="2" stroke-linecap="round" stroke-linejoin="round"/>
<path d="M36 13V19" stroke="white" stroke-opacity="0.78" stroke-width="2" stroke-linecap="round" stroke-linejoin="round"/>
<path d="M39 16H33" stroke="white" stroke-opacity="0.78" stroke-width="2" stroke-linecap="round" stroke-linejoin="round"/>
<defs>
<linearGradient id="paint0_linear_5773_6572" x1="49.5" y1="0" x2="49.5" y2="33.3" gradientUnits="userSpaceOnUse">
<stop stop-color="#1FA8CA"/>
<stop offset="1" stop-color="#1FA8CA" stop-opacity="0.32"/>
</linearGradient>
<linearGradient id="paint1_linear_5773_6572" x1="49.5" y1="0" x2="49.5" y2="33.3" gradientUnits="userSpaceOnUse">
<stop stop-color="#1FA8CA"/>
<stop offset="1" stop-color="#1FA8CA" stop-opacity="0.32"/>
</linearGradient>
</defs>
</svg>
