<svg width="157" height="43" viewBox="0 0 157 43" fill="none" xmlns="http://www.w3.org/2000/svg">
<g filter="url(#filter0_ddi_5804_6574)">
<g clip-path="url(#clip0_5804_6574)">
<rect x="1" y="1" width="155" height="40" rx="10" fill="#1FA8CA"/>
<g filter="url(#filter1_dddddddd_5804_6574)">
<rect x="1" y="1" width="1" height="1" fill="white" fill-opacity="0.01" shape-rendering="crispEdges"/>
</g>
<g filter="url(#filter2_ddddddddf_5804_6574)">
<rect width="1" height="1" transform="translate(1 2)" fill="white" fill-opacity="0.01"/>
</g>
<mask id="mask0_5804_6574" style="mask-type:alpha" maskUnits="userSpaceOnUse" x="4" y="1" width="162" height="37">
<rect x="4" y="1" width="162" height="37" fill="white"/>
</mask>
<g mask="url(#mask0_5804_6574)">
<rect opacity="0.24" x="4" y="3" width="149" height="36" rx="15" fill="url(#paint0_linear_5804_6574)"/>
<path d="M24.4672 19.0348C24.3711 18.7332 24.2419 18.4631 24.0795 18.2244C23.9204 17.9825 23.7298 17.777 23.5077 17.608C23.2857 17.4356 23.0321 17.3047 22.7471 17.2152C22.4653 17.1257 22.1555 17.081 21.8174 17.081C21.244 17.081 20.7269 17.2285 20.2662 17.5234C19.8055 17.8184 19.441 18.2509 19.1725 18.821C18.9073 19.3878 18.7748 20.0821 18.7748 20.9041C18.7748 21.7294 18.909 22.4271 19.1775 22.9972C19.4459 23.5672 19.8138 23.9998 20.2812 24.2947C20.7485 24.5897 21.2805 24.7372 21.877 24.7372C22.4305 24.7372 22.9128 24.6245 23.3238 24.3991C23.7381 24.1738 24.0579 23.8556 24.2833 23.4446C24.512 23.0303 24.6263 22.5431 24.6263 21.983L25.0241 22.0575H22.1107V20.7898H26.1128V21.9482C26.1128 22.8033 25.9305 23.5457 25.566 24.1754C25.2047 24.8018 24.7042 25.2857 24.0645 25.6271C23.4282 25.9685 22.699 26.1392 21.877 26.1392C20.9556 26.1392 20.1469 25.9271 19.4509 25.5028C18.7582 25.0786 18.218 24.477 17.8302 23.6982C17.4424 22.916 17.2485 21.9879 17.2485 20.9141C17.2485 20.102 17.3612 19.3729 17.5866 18.7266C17.8119 18.0803 18.1285 17.5317 18.5361 17.081C18.9471 16.6269 19.4294 16.2805 19.9829 16.0419C20.5397 15.8 21.1479 15.679 21.8074 15.679C22.3576 15.679 22.8697 15.7602 23.3437 15.9226C23.8209 16.085 24.2452 16.3153 24.6164 16.6136C24.9909 16.9119 25.3008 17.2666 25.5461 17.6776C25.7913 18.0852 25.9571 18.5376 26.0432 19.0348H24.4672ZM31.2348 26.1541C30.4825 26.1541 29.8345 25.9934 29.2909 25.6719C28.7507 25.3471 28.3331 24.8913 28.0381 24.3047C27.7464 23.7147 27.6006 23.0237 27.6006 22.2315C27.6006 21.4493 27.7464 20.7599 28.0381 20.1634C28.3331 19.5668 28.7441 19.1011 29.271 18.7663C29.8013 18.4316 30.4211 18.2642 31.1304 18.2642C31.5613 18.2642 31.9789 18.3355 32.3833 18.478C32.7876 18.6205 33.1505 18.8442 33.472 19.1491C33.7935 19.4541 34.0471 19.8501 34.2327 20.3374C34.4183 20.8213 34.5111 21.4096 34.5111 22.1023V22.6293H28.4408V21.5156H33.0544C33.0544 21.1245 32.9749 20.7782 32.8158 20.4766C32.6567 20.1716 32.433 19.9313 32.1446 19.7557C31.8596 19.58 31.5248 19.4922 31.1404 19.4922C30.7227 19.4922 30.3582 19.5949 30.0466 19.8004C29.7384 20.0026 29.4997 20.2678 29.3307 20.5959C29.165 20.9207 29.0821 21.2737 29.0821 21.6548V22.5249C29.0821 23.0353 29.1716 23.4695 29.3506 23.8274C29.5329 24.1854 29.7864 24.4588 30.1112 24.6477C30.4361 24.8333 30.8155 24.9261 31.2497 24.9261C31.5315 24.9261 31.7883 24.8864 32.0203 24.8068C32.2523 24.724 32.4529 24.6013 32.6219 24.4389C32.7909 24.2765 32.9202 24.076 33.0097 23.8374L34.4166 24.0909C34.3039 24.5052 34.1018 24.8681 33.8101 25.1797C33.5218 25.4879 33.1588 25.7282 32.7213 25.9006C32.2871 26.0696 31.7916 26.1541 31.2348 26.1541ZM39.7251 18.3636V19.5568H35.5539V18.3636H39.7251ZM36.6725 16.5341H38.159V23.7578C38.159 24.0462 38.2021 24.2633 38.2883 24.4091C38.3744 24.5516 38.4855 24.6494 38.6214 24.7024C38.7606 24.7521 38.9114 24.777 39.0738 24.777C39.1931 24.777 39.2975 24.7687 39.387 24.7521C39.4765 24.7356 39.5461 24.7223 39.5958 24.7124L39.8643 25.9403C39.7781 25.9735 39.6555 26.0066 39.4964 26.0398C39.3373 26.0762 39.1384 26.0961 38.8998 26.0994C38.5087 26.1061 38.1441 26.0365 37.806 25.8906C37.468 25.7448 37.1945 25.5194 36.9857 25.2145C36.7769 24.9096 36.6725 24.5268 36.6725 24.0661V16.5341ZM50.7471 18.4929C50.694 18.0223 50.4753 17.6577 50.0908 17.3991C49.7064 17.1373 49.2224 17.0064 48.6391 17.0064C48.2215 17.0064 47.8602 17.0727 47.5553 17.2053C47.2504 17.3345 47.0134 17.5135 46.8444 17.7422C46.6787 17.9676 46.5958 18.2244 46.5958 18.5128C46.5958 18.7547 46.6521 18.9635 46.7648 19.1392C46.8808 19.3149 47.0316 19.4624 47.2172 19.5817C47.4062 19.6977 47.6083 19.7955 47.8238 19.875C48.0392 19.9512 48.2464 20.0142 48.4452 20.0639L49.4395 20.3224C49.7644 20.402 50.0974 20.5097 50.4388 20.6456C50.7802 20.7815 51.0967 20.9605 51.3884 21.1825C51.6801 21.4046 51.9154 21.6797 52.0944 22.0078C52.2767 22.3359 52.3678 22.7287 52.3678 23.1861C52.3678 23.7628 52.2187 24.2749 51.9204 24.7223C51.6254 25.1697 51.1962 25.5227 50.6327 25.7812C50.0726 26.0398 49.3948 26.169 48.5993 26.169C47.837 26.169 47.1775 26.0481 46.6206 25.8061C46.0638 25.5642 45.628 25.2211 45.3131 24.777C44.9983 24.3295 44.8242 23.7992 44.7911 23.1861H46.3323C46.3621 23.554 46.4814 23.8606 46.6903 24.1058C46.9024 24.3478 47.1725 24.5284 47.5006 24.6477C47.8321 24.7637 48.195 24.8217 48.5894 24.8217C49.0236 24.8217 49.4097 24.7538 49.7478 24.6179C50.0892 24.4787 50.3576 24.2865 50.5532 24.0412C50.7487 23.7926 50.8465 23.5026 50.8465 23.1712C50.8465 22.8696 50.7603 22.6226 50.588 22.4304C50.4189 22.2382 50.1886 22.0791 49.8969 21.9531C49.6086 21.8272 49.2821 21.7161 48.9175 21.62L47.7144 21.2919C46.8991 21.0698 46.2528 20.7434 45.7755 20.3125C45.3015 19.8816 45.0645 19.3116 45.0645 18.6023C45.0645 18.0156 45.2236 17.5036 45.5418 17.0661C45.86 16.6286 46.2909 16.2888 46.8344 16.0469C47.378 15.8016 47.9912 15.679 48.6739 15.679C49.3633 15.679 49.9715 15.8 50.4985 16.0419C51.0288 16.2839 51.4464 16.617 51.7513 17.0412C52.0563 17.4621 52.2153 17.946 52.2286 18.4929H50.7471ZM57.6489 18.3636V19.5568H53.4777V18.3636H57.6489ZM54.5963 16.5341H56.0828V23.7578C56.0828 24.0462 56.1259 24.2633 56.2121 24.4091C56.2983 24.5516 56.4093 24.6494 56.5452 24.7024C56.6844 24.7521 56.8352 24.777 56.9976 24.777C57.1169 24.777 57.2213 24.7687 57.3108 24.7521C57.4003 24.7356 57.4699 24.7223 57.5196 24.7124L57.7881 25.9403C57.7019 25.9735 57.5793 26.0066 57.4202 26.0398C57.2611 26.0762 57.0622 26.0961 56.8236 26.0994C56.4325 26.1061 56.0679 26.0365 55.7298 25.8906C55.3918 25.7448 55.1183 25.5194 54.9095 25.2145C54.7007 24.9096 54.5963 24.5268 54.5963 24.0661V16.5341ZM61.5155 26.169C61.0316 26.169 60.5941 26.0795 60.203 25.9006C59.8119 25.7183 59.502 25.4548 59.2733 25.1101C59.048 24.7654 58.9353 24.3428 58.9353 23.8423C58.9353 23.4115 59.0181 23.0568 59.1839 22.7784C59.3496 22.5 59.5733 22.2796 59.855 22.1172C60.1367 21.9548 60.4516 21.8321 60.7996 21.7493C61.1476 21.6664 61.5023 21.6035 61.8635 21.5604C62.3209 21.5073 62.6921 21.4643 62.9772 21.4311C63.2622 21.3946 63.4694 21.3366 63.5986 21.2571C63.7279 21.1776 63.7925 21.0483 63.7925 20.8693V20.8345C63.7925 20.4003 63.6699 20.0639 63.4246 19.8253C63.1827 19.5866 62.8214 19.4673 62.3408 19.4673C61.8403 19.4673 61.4459 19.5784 61.1576 19.8004C60.8725 20.0192 60.6753 20.2628 60.566 20.5312L59.1689 20.2131C59.3347 19.7491 59.5766 19.3745 59.8948 19.0895C60.2163 18.8011 60.5858 18.5923 61.0035 18.4631C61.4211 18.3305 61.8602 18.2642 62.3209 18.2642C62.6259 18.2642 62.949 18.3007 63.2904 18.3736C63.6351 18.4432 63.9566 18.5724 64.2549 18.7614C64.5565 18.9503 64.8034 19.2204 64.9956 19.5717C65.1879 19.9197 65.284 20.3722 65.284 20.929V26H63.8323V24.956H63.7726C63.6765 25.1482 63.5323 25.3371 63.3401 25.5227C63.1479 25.7083 62.901 25.8625 62.5993 25.9851C62.2977 26.1077 61.9365 26.169 61.5155 26.169ZM61.8387 24.9759C62.2497 24.9759 62.601 24.8946 62.8927 24.7322C63.1876 24.5698 63.4114 24.3577 63.5638 24.0959C63.7196 23.8307 63.7975 23.5473 63.7975 23.2457V22.2614C63.7445 22.3144 63.6417 22.3641 63.4893 22.4105C63.3401 22.4536 63.1694 22.4917 62.9772 22.5249C62.7849 22.5547 62.5977 22.5829 62.4154 22.6094C62.2331 22.6326 62.0806 22.6525 61.958 22.669C61.6697 22.7055 61.4062 22.7668 61.1675 22.853C60.9322 22.9392 60.7433 23.0634 60.6008 23.2259C60.4616 23.3849 60.392 23.5971 60.392 23.8622C60.392 24.2301 60.5278 24.5085 60.7996 24.6974C61.0714 24.883 61.4178 24.9759 61.8387 24.9759ZM67.2639 26V18.3636H68.7007V19.5767H68.7803C68.9195 19.1657 69.1647 18.8426 69.5161 18.6072C69.8707 18.3686 70.2718 18.2493 70.7192 18.2493C70.812 18.2493 70.9214 18.2526 71.0473 18.2592C71.1766 18.2659 71.2777 18.2741 71.3506 18.2841V19.706C71.2909 19.6894 71.1849 19.6712 71.0324 19.6513C70.8799 19.6281 70.7275 19.6165 70.575 19.6165C70.2237 19.6165 69.9105 19.6911 69.6354 19.8402C69.3636 19.986 69.1482 20.1899 68.9891 20.4517C68.83 20.7102 68.7504 21.0052 68.7504 21.3366V26H67.2639ZM76.6528 18.3636V19.5568H72.4816V18.3636H76.6528ZM73.6002 16.5341H75.0867V23.7578C75.0867 24.0462 75.1298 24.2633 75.216 24.4091C75.3022 24.5516 75.4132 24.6494 75.5491 24.7024C75.6883 24.7521 75.8391 24.777 76.0015 24.777C76.1208 24.777 76.2252 24.7687 76.3147 24.7521C76.4042 24.7356 76.4738 24.7223 76.5235 24.7124L76.792 25.9403C76.7058 25.9735 76.5832 26.0066 76.4241 26.0398C76.265 26.0762 76.0661 26.0961 75.8275 26.0994C75.4364 26.1061 75.0718 26.0365 74.7338 25.8906C74.3957 25.7448 74.1222 25.5194 73.9134 25.2145C73.7046 24.9096 73.6002 24.5268 73.6002 24.0661V16.5341ZM81.5063 26.1541C80.7539 26.1541 80.106 25.9934 79.5624 25.6719C79.0222 25.3471 78.6046 24.8913 78.3096 24.3047C78.0179 23.7147 77.8721 23.0237 77.8721 22.2315C77.8721 21.4493 78.0179 20.7599 78.3096 20.1634C78.6046 19.5668 79.0155 19.1011 79.5425 18.7663C80.0728 18.4316 80.6926 18.2642 81.4019 18.2642C81.8328 18.2642 82.2504 18.3355 82.6547 18.478C83.0591 18.6205 83.422 18.8442 83.7435 19.1491C84.065 19.4541 84.3186 19.8501 84.5042 20.3374C84.6898 20.8213 84.7826 21.4096 84.7826 22.1023V22.6293H78.7123V21.5156H83.3259C83.3259 21.1245 83.2464 20.7782 83.0873 20.4766C82.9282 20.1716 82.7045 19.9313 82.4161 19.7557C82.1311 19.58 81.7963 19.4922 81.4118 19.4922C80.9942 19.4922 80.6296 19.5949 80.3181 19.8004C80.0099 20.0026 79.7712 20.2678 79.6022 20.5959C79.4365 20.9207 79.3536 21.2737 79.3536 21.6548V22.5249C79.3536 23.0353 79.4431 23.4695 79.6221 23.8274C79.8044 24.1854 80.0579 24.4588 80.3827 24.6477C80.7075 24.8333 81.087 24.9261 81.5212 24.9261C81.8029 24.9261 82.0598 24.8864 82.2918 24.8068C82.5238 24.724 82.7243 24.6013 82.8934 24.4389C83.0624 24.2765 83.1917 24.076 83.2812 23.8374L84.6881 24.0909C84.5754 24.5052 84.3733 24.8681 84.0816 25.1797C83.7932 25.4879 83.4303 25.7282 82.9928 25.9006C82.5586 26.0696 82.0631 26.1541 81.5063 26.1541ZM89.2906 26.1491C88.6741 26.1491 88.1239 25.9917 87.64 25.6768C87.1594 25.3587 86.7816 24.9062 86.5065 24.3196C86.2347 23.7296 86.0988 23.022 86.0988 22.1967C86.0988 21.3714 86.2364 20.6655 86.5115 20.0788C86.7899 19.4922 87.171 19.0431 87.6549 18.7315C88.1388 18.42 88.6874 18.2642 89.3005 18.2642C89.7745 18.2642 90.1556 18.3438 90.444 18.5028C90.7356 18.6586 90.961 18.8409 91.1201 19.0497C91.2825 19.2585 91.4085 19.4425 91.498 19.6016H91.5874V15.8182H93.074V26H91.6222V24.8118H91.498C91.4085 24.9742 91.2792 25.1598 91.1102 25.3686C90.9445 25.5774 90.7158 25.7597 90.4241 25.9155C90.1324 26.0713 89.7546 26.1491 89.2906 26.1491ZM89.6187 24.8814C90.0463 24.8814 90.4075 24.7687 90.7025 24.5433C91.0008 24.3146 91.2262 23.9981 91.3786 23.5938C91.5344 23.1894 91.6123 22.7187 91.6123 22.1818C91.6123 21.6515 91.5361 21.1875 91.3836 20.7898C91.2311 20.392 91.0074 20.0821 90.7124 19.8601C90.4175 19.638 90.0529 19.527 89.6187 19.527C89.1713 19.527 88.7984 19.643 88.5001 19.875C88.2018 20.107 87.9764 20.4235 87.824 20.8246C87.6748 21.2256 87.6002 21.678 87.6002 22.1818C87.6002 22.6922 87.6765 23.1513 87.8289 23.5589C87.9814 23.9666 88.2068 24.2898 88.5051 24.5284C88.8067 24.7637 89.1779 24.8814 89.6187 24.8814ZM99.02 26V15.8182H105.334V17.1406H100.556V20.2429H104.881V21.5604H100.556V26H99.02ZM107.008 26V18.3636H108.445V19.5767H108.524C108.664 19.1657 108.909 18.8426 109.26 18.6072C109.615 18.3686 110.016 18.2493 110.463 18.2493C110.556 18.2493 110.666 18.2526 110.791 18.2592C110.921 18.2659 111.022 18.2741 111.095 18.2841V19.706C111.035 19.6894 110.929 19.6712 110.777 19.6513C110.624 19.6281 110.472 19.6165 110.319 19.6165C109.968 19.6165 109.655 19.6911 109.38 19.8402C109.108 19.986 108.892 20.1899 108.733 20.4517C108.574 20.7102 108.495 21.0052 108.495 21.3366V26H107.008ZM115.399 26.1541C114.647 26.1541 113.999 25.9934 113.455 25.6719C112.915 25.3471 112.497 24.8913 112.202 24.3047C111.91 23.7147 111.765 23.0237 111.765 22.2315C111.765 21.4493 111.91 20.7599 112.202 20.1634C112.497 19.5668 112.908 19.1011 113.435 18.7663C113.965 18.4316 114.585 18.2642 115.294 18.2642C115.725 18.2642 116.143 18.3355 116.547 18.478C116.952 18.6205 117.315 18.8442 117.636 19.1491C117.958 19.4541 118.211 19.8501 118.397 20.3374C118.582 20.8213 118.675 21.4096 118.675 22.1023V22.6293H112.605V21.5156H117.218C117.218 21.1245 117.139 20.7782 116.98 20.4766C116.821 20.1716 116.597 19.9313 116.309 19.7557C116.024 19.58 115.689 19.4922 115.304 19.4922C114.887 19.4922 114.522 19.5949 114.211 19.8004C113.902 20.0026 113.664 20.2678 113.495 20.5959C113.329 20.9207 113.246 21.2737 113.246 21.6548V22.5249C113.246 23.0353 113.336 23.4695 113.515 23.8274C113.697 24.1854 113.95 24.4588 114.275 24.6477C114.6 24.8333 114.98 24.9261 115.414 24.9261C115.696 24.9261 115.952 24.8864 116.184 24.8068C116.416 24.724 116.617 24.6013 116.786 24.4389C116.955 24.2765 117.084 24.076 117.174 23.8374L118.581 24.0909C118.468 24.5052 118.266 24.8681 117.974 25.1797C117.686 25.4879 117.323 25.7282 116.885 25.9006C116.451 26.0696 115.956 26.1541 115.399 26.1541ZM123.616 26.1541C122.863 26.1541 122.215 25.9934 121.672 25.6719C121.132 25.3471 120.714 24.8913 120.419 24.3047C120.127 23.7147 119.981 23.0237 119.981 22.2315C119.981 21.4493 120.127 20.7599 120.419 20.1634C120.714 19.5668 121.125 19.1011 121.652 18.7663C122.182 18.4316 122.802 18.2642 123.511 18.2642C123.942 18.2642 124.36 18.3355 124.764 18.478C125.168 18.6205 125.531 18.8442 125.853 19.1491C126.174 19.4541 126.428 19.8501 126.614 20.3374C126.799 20.8213 126.892 21.4096 126.892 22.1023V22.6293H120.822V21.5156H125.435C125.435 21.1245 125.356 20.7782 125.197 20.4766C125.038 20.1716 124.814 19.9313 124.525 19.7557C124.24 19.58 123.906 19.4922 123.521 19.4922C123.104 19.4922 122.739 19.5949 122.427 19.8004C122.119 20.0026 121.881 20.2678 121.712 20.5959C121.546 20.9207 121.463 21.2737 121.463 21.6548V22.5249C121.463 23.0353 121.552 23.4695 121.731 23.8274C121.914 24.1854 122.167 24.4588 122.492 24.6477C122.817 24.8333 123.196 24.9261 123.631 24.9261C123.912 24.9261 124.169 24.8864 124.401 24.8068C124.633 24.724 124.834 24.6013 125.003 24.4389C125.172 24.2765 125.301 24.076 125.391 23.8374L126.797 24.0909C126.685 24.5052 126.483 24.8681 126.191 25.1797C125.903 25.4879 125.54 25.7282 125.102 25.9006C124.668 26.0696 124.172 26.1541 123.616 26.1541Z" fill="white"/>
<path d="M140.958 17.4585C140.958 17.1133 140.679 16.8335 140.333 16.8335C139.988 16.8335 139.708 17.1133 139.708 17.4585C139.708 19.48 139.262 20.7929 138.444 21.6107C137.626 22.4286 136.313 22.8752 134.292 22.8752C133.947 22.8752 133.667 23.155 133.667 23.5002C133.667 23.8453 133.947 24.1252 134.292 24.1252C136.313 24.1252 137.626 24.5717 138.444 25.3896C139.262 26.2074 139.708 27.5203 139.708 29.5418C139.708 29.887 139.988 30.1668 140.333 30.1668C140.679 30.1668 140.958 29.887 140.958 29.5418C140.958 27.5203 141.405 26.2074 142.223 25.3896C143.041 24.5717 144.354 24.1252 146.375 24.1252C146.72 24.1252 147 23.8453 147 23.5002C147 23.155 146.72 22.8752 146.375 22.8752C144.354 22.8752 143.041 22.4286 142.223 21.6107C141.405 20.7929 140.958 19.48 140.958 17.4585Z" fill="white" fill-opacity="0.9"/>
<path d="M134.5 15.5837C134.5 15.3535 134.314 15.167 134.083 15.167C133.853 15.167 133.667 15.3535 133.667 15.5837C133.667 16.4009 133.486 16.8942 133.19 17.1901C132.894 17.486 132.401 17.667 131.583 17.667C131.353 17.667 131.167 17.8535 131.167 18.0837C131.167 18.3138 131.353 18.5003 131.583 18.5003C132.401 18.5003 132.894 18.6813 133.19 18.9772C133.486 19.2732 133.667 19.7665 133.667 20.5837C133.667 20.8138 133.853 21.0004 134.083 21.0004C134.314 21.0004 134.5 20.8138 134.5 20.5837C134.5 19.7665 134.681 19.2732 134.977 18.9772C135.273 18.6813 135.766 18.5003 136.583 18.5003C136.814 18.5003 137 18.3138 137 18.0837C137 17.8535 136.814 17.667 136.583 17.667C135.766 17.667 135.273 17.486 134.977 17.1901C134.681 16.8942 134.5 16.4009 134.5 15.5837Z" fill="white" fill-opacity="0.9"/>
<path d="M138.667 12.2502C138.667 12.02 138.48 11.8335 138.25 11.8335C138.02 11.8335 137.833 12.02 137.833 12.2502C137.833 12.778 137.716 13.063 137.556 13.2229C137.396 13.3828 137.111 13.5002 136.583 13.5002C136.353 13.5002 136.167 13.6867 136.167 13.9168C136.167 14.147 136.353 14.3335 136.583 14.3335C137.111 14.3335 137.396 14.4509 137.556 14.6108C137.716 14.7707 137.833 15.0557 137.833 15.5835C137.833 15.8136 138.02 16.0002 138.25 16.0002C138.48 16.0002 138.667 15.8136 138.667 15.5835C138.667 15.0557 138.784 14.7707 138.944 14.6108C139.104 14.4509 139.389 14.3335 139.917 14.3335C140.147 14.3335 140.333 14.147 140.333 13.9168C140.333 13.6867 140.147 13.5002 139.917 13.5002C139.389 13.5002 139.104 13.3828 138.944 13.2229C138.784 13.063 138.667 12.778 138.667 12.2502Z" fill="white" fill-opacity="0.9"/>
</g>
</g>
</g>
<defs>
<filter id="filter0_ddi_5804_6574" x="0" y="-5" width="157" height="48" filterUnits="userSpaceOnUse" color-interpolation-filters="sRGB">
<feFlood flood-opacity="0" result="BackgroundImageFix"/>
<feColorMatrix in="SourceAlpha" type="matrix" values="0 0 0 0 0 0 0 0 0 0 0 0 0 0 0 0 0 0 127 0" result="hardAlpha"/>
<feOffset dy="1"/>
<feGaussianBlur stdDeviation="0.5"/>
<feComposite in2="hardAlpha" operator="out"/>
<feColorMatrix type="matrix" values="0 0 0 0 0.184314 0 0 0 0 0.00392157 0 0 0 0 0.592157 0 0 0 0.12 0"/>
<feBlend mode="normal" in2="BackgroundImageFix" result="effect1_dropShadow_5804_6574"/>
<feColorMatrix in="SourceAlpha" type="matrix" values="0 0 0 0 0 0 0 0 0 0 0 0 0 0 0 0 0 0 127 0" result="hardAlpha"/>
<feMorphology radius="1" operator="dilate" in="SourceAlpha" result="effect2_dropShadow_5804_6574"/>
<feOffset/>
<feComposite in2="hardAlpha" operator="out"/>
<feColorMatrix type="matrix" values="0 0 0 0 0.184314 0 0 0 0 0.00392157 0 0 0 0 0.592157 0 0 0 0.08 0"/>
<feBlend mode="normal" in2="effect1_dropShadow_5804_6574" result="effect2_dropShadow_5804_6574"/>
<feBlend mode="normal" in="SourceGraphic" in2="effect2_dropShadow_5804_6574" result="shape"/>
<feColorMatrix in="SourceAlpha" type="matrix" values="0 0 0 0 0 0 0 0 0 0 0 0 0 0 0 0 0 0 127 0" result="hardAlpha"/>
<feOffset dy="-6"/>
<feGaussianBlur stdDeviation="10"/>
<feComposite in2="hardAlpha" operator="arithmetic" k2="-1" k3="1"/>
<feColorMatrix type="matrix" values="0 0 0 0 0.447059 0 0 0 0 0.192157 0 0 0 0 1 0 0 0 0.32 0"/>
<feBlend mode="normal" in2="shape" result="effect3_innerShadow_5804_6574"/>
</filter>
<filter id="filter1_dddddddd_5804_6574" x="1" y="1" width="341" height="359" filterUnits="userSpaceOnUse" color-interpolation-filters="sRGB">
<feFlood flood-opacity="0" result="BackgroundImageFix"/>
<feColorMatrix in="SourceAlpha" type="matrix" values="0 0 0 0 0 0 0 0 0 0 0 0 0 0 0 0 0 0 127 0" result="hardAlpha"/>
<feOffset dx="99" dy="251"/>
<feComposite in2="hardAlpha" operator="out"/>
<feColorMatrix type="matrix" values="0 0 0 0 1 0 0 0 0 1 0 0 0 0 1 0 0 0 1 0"/>
<feBlend mode="normal" in2="BackgroundImageFix" result="effect1_dropShadow_5804_6574"/>
<feColorMatrix in="SourceAlpha" type="matrix" values="0 0 0 0 0 0 0 0 0 0 0 0 0 0 0 0 0 0 127 0" result="hardAlpha"/>
<feOffset dx="332" dy="36"/>
<feComposite in2="hardAlpha" operator="out"/>
<feColorMatrix type="matrix" values="0 0 0 0 1 0 0 0 0 1 0 0 0 0 1 0 0 0 1 0"/>
<feBlend mode="normal" in2="effect1_dropShadow_5804_6574" result="effect2_dropShadow_5804_6574"/>
<feColorMatrix in="SourceAlpha" type="matrix" values="0 0 0 0 0 0 0 0 0 0 0 0 0 0 0 0 0 0 127 0" result="hardAlpha"/>
<feOffset dx="92" dy="100"/>
<feComposite in2="hardAlpha" operator="out"/>
<feColorMatrix type="matrix" values="0 0 0 0 1 0 0 0 0 1 0 0 0 0 1 0 0 0 1 0"/>
<feBlend mode="normal" in2="effect2_dropShadow_5804_6574" result="effect3_dropShadow_5804_6574"/>
<feColorMatrix in="SourceAlpha" type="matrix" values="0 0 0 0 0 0 0 0 0 0 0 0 0 0 0 0 0 0 127 0" result="hardAlpha"/>
<feOffset dx="340" dy="15"/>
<feComposite in2="hardAlpha" operator="out"/>
<feColorMatrix type="matrix" values="0 0 0 0 1 0 0 0 0 1 0 0 0 0 1 0 0 0 1 0"/>
<feBlend mode="normal" in2="effect3_dropShadow_5804_6574" result="effect4_dropShadow_5804_6574"/>
<feColorMatrix in="SourceAlpha" type="matrix" values="0 0 0 0 0 0 0 0 0 0 0 0 0 0 0 0 0 0 127 0" result="hardAlpha"/>
<feOffset dx="101" dy="268"/>
<feComposite in2="hardAlpha" operator="out"/>
<feColorMatrix type="matrix" values="0 0 0 0 1 0 0 0 0 1 0 0 0 0 1 0 0 0 1 0"/>
<feBlend mode="normal" in2="effect4_dropShadow_5804_6574" result="effect5_dropShadow_5804_6574"/>
<feColorMatrix in="SourceAlpha" type="matrix" values="0 0 0 0 0 0 0 0 0 0 0 0 0 0 0 0 0 0 127 0" result="hardAlpha"/>
<feOffset dx="230" dy="358"/>
<feComposite in2="hardAlpha" operator="out"/>
<feColorMatrix type="matrix" values="0 0 0 0 1 0 0 0 0 1 0 0 0 0 1 0 0 0 1 0"/>
<feBlend mode="normal" in2="effect5_dropShadow_5804_6574" result="effect6_dropShadow_5804_6574"/>
<feColorMatrix in="SourceAlpha" type="matrix" values="0 0 0 0 0 0 0 0 0 0 0 0 0 0 0 0 0 0 127 0" result="hardAlpha"/>
<feOffset dx="315" dy="194"/>
<feComposite in2="hardAlpha" operator="out"/>
<feColorMatrix type="matrix" values="0 0 0 0 1 0 0 0 0 1 0 0 0 0 1 0 0 0 1 0"/>
<feBlend mode="normal" in2="effect6_dropShadow_5804_6574" result="effect7_dropShadow_5804_6574"/>
<feColorMatrix in="SourceAlpha" type="matrix" values="0 0 0 0 0 0 0 0 0 0 0 0 0 0 0 0 0 0 127 0" result="hardAlpha"/>
<feOffset dx="331" dy="185"/>
<feComposite in2="hardAlpha" operator="out"/>
<feColorMatrix type="matrix" values="0 0 0 0 1 0 0 0 0 1 0 0 0 0 1 0 0 0 1 0"/>
<feBlend mode="normal" in2="effect7_dropShadow_5804_6574" result="effect8_dropShadow_5804_6574"/>
<feBlend mode="normal" in="SourceGraphic" in2="effect8_dropShadow_5804_6574" result="shape"/>
</filter>
<filter id="filter2_ddddddddf_5804_6574" x="0" y="1" width="303" height="268" filterUnits="userSpaceOnUse" color-interpolation-filters="sRGB">
<feFlood flood-opacity="0" result="BackgroundImageFix"/>
<feColorMatrix in="SourceAlpha" type="matrix" values="0 0 0 0 0 0 0 0 0 0 0 0 0 0 0 0 0 0 127 0" result="hardAlpha"/>
<feOffset dx="32" dy="266"/>
<feComposite in2="hardAlpha" operator="out"/>
<feColorMatrix type="matrix" values="0 0 0 0 1 0 0 0 0 1 0 0 0 0 1 0 0 0 1 0"/>
<feBlend mode="normal" in2="BackgroundImageFix" result="effect1_dropShadow_5804_6574"/>
<feColorMatrix in="SourceAlpha" type="matrix" values="0 0 0 0 0 0 0 0 0 0 0 0 0 0 0 0 0 0 127 0" result="hardAlpha"/>
<feOffset dx="246" dy="15"/>
<feComposite in2="hardAlpha" operator="out"/>
<feColorMatrix type="matrix" values="0 0 0 0 1 0 0 0 0 1 0 0 0 0 1 0 0 0 1 0"/>
<feBlend mode="normal" in2="effect1_dropShadow_5804_6574" result="effect2_dropShadow_5804_6574"/>
<feColorMatrix in="SourceAlpha" type="matrix" values="0 0 0 0 0 0 0 0 0 0 0 0 0 0 0 0 0 0 127 0" result="hardAlpha"/>
<feOffset dx="264" dy="182"/>
<feComposite in2="hardAlpha" operator="out"/>
<feColorMatrix type="matrix" values="0 0 0 0 1 0 0 0 0 1 0 0 0 0 1 0 0 0 1 0"/>
<feBlend mode="normal" in2="effect2_dropShadow_5804_6574" result="effect3_dropShadow_5804_6574"/>
<feColorMatrix in="SourceAlpha" type="matrix" values="0 0 0 0 0 0 0 0 0 0 0 0 0 0 0 0 0 0 127 0" result="hardAlpha"/>
<feOffset dx="301" dy="224"/>
<feComposite in2="hardAlpha" operator="out"/>
<feColorMatrix type="matrix" values="0 0 0 0 1 0 0 0 0 1 0 0 0 0 1 0 0 0 1 0"/>
<feBlend mode="normal" in2="effect3_dropShadow_5804_6574" result="effect4_dropShadow_5804_6574"/>
<feColorMatrix in="SourceAlpha" type="matrix" values="0 0 0 0 0 0 0 0 0 0 0 0 0 0 0 0 0 0 127 0" result="hardAlpha"/>
<feOffset dx="146" dy="198"/>
<feComposite in2="hardAlpha" operator="out"/>
<feColorMatrix type="matrix" values="0 0 0 0 1 0 0 0 0 1 0 0 0 0 1 0 0 0 1 0"/>
<feBlend mode="normal" in2="effect4_dropShadow_5804_6574" result="effect5_dropShadow_5804_6574"/>
<feColorMatrix in="SourceAlpha" type="matrix" values="0 0 0 0 0 0 0 0 0 0 0 0 0 0 0 0 0 0 127 0" result="hardAlpha"/>
<feOffset dx="197" dy="202"/>
<feComposite in2="hardAlpha" operator="out"/>
<feColorMatrix type="matrix" values="0 0 0 0 1 0 0 0 0 1 0 0 0 0 1 0 0 0 1 0"/>
<feBlend mode="normal" in2="effect5_dropShadow_5804_6574" result="effect6_dropShadow_5804_6574"/>
<feColorMatrix in="SourceAlpha" type="matrix" values="0 0 0 0 0 0 0 0 0 0 0 0 0 0 0 0 0 0 127 0" result="hardAlpha"/>
<feOffset dx="37" dy="157"/>
<feComposite in2="hardAlpha" operator="out"/>
<feColorMatrix type="matrix" values="0 0 0 0 1 0 0 0 0 1 0 0 0 0 1 0 0 0 1 0"/>
<feBlend mode="normal" in2="effect6_dropShadow_5804_6574" result="effect7_dropShadow_5804_6574"/>
<feColorMatrix in="SourceAlpha" type="matrix" values="0 0 0 0 0 0 0 0 0 0 0 0 0 0 0 0 0 0 127 0" result="hardAlpha"/>
<feOffset dx="233" dy="122"/>
<feComposite in2="hardAlpha" operator="out"/>
<feColorMatrix type="matrix" values="0 0 0 0 1 0 0 0 0 1 0 0 0 0 1 0 0 0 1 0"/>
<feBlend mode="normal" in2="effect7_dropShadow_5804_6574" result="effect8_dropShadow_5804_6574"/>
<feBlend mode="normal" in="SourceGraphic" in2="effect8_dropShadow_5804_6574" result="shape"/>
<feGaussianBlur stdDeviation="0.5" result="effect9_foregroundBlur_5804_6574"/>
</filter>
<linearGradient id="paint0_linear_5804_6574" x1="78.5" y1="3" x2="78.5" y2="39" gradientUnits="userSpaceOnUse">
<stop stop-color="white"/>
<stop offset="0.333333" stop-color="#1FA8CA" stop-opacity="0.83"/>
<stop offset="0.666667" stop-color="#1FA8CA" stop-opacity="0.91"/>
<stop offset="1" stop-color="white"/>
</linearGradient>
<clipPath id="clip0_5804_6574">
<rect x="1" y="1" width="155" height="40" rx="10" fill="white"/>
</clipPath>
</defs>
</svg>
