<svg width="38" height="38" viewBox="0 0 38 38" fill="none" xmlns="http://www.w3.org/2000/svg">
<rect y="0.5" width="38" height="37" rx="13" fill="#1FA8CA"/>
<path d="M5 19C5 11.3426 11.3426 5.13513 19 5.13513V5.13513C26.6574 5.13513 33 11.3426 33 19V19C33 26.6574 26.6574 32.8649 19 32.8649V32.8649C11.3426 32.8649 5 26.6574 5 19V19Z" fill="url(#paint0_linear_5830_6751)" fill-opacity="0.77"/>
<path d="M5 19C5 11.3426 11.3426 5.13513 19 5.13513V5.13513C26.6574 5.13513 33 11.3426 33 19V19C33 26.6574 26.6574 32.8649 19 32.8649V32.8649C11.3426 32.8649 5 26.6574 5 19V19Z" fill="url(#paint1_radial_5830_6751)" fill-opacity="0.01" style="mix-blend-mode:overlay"/>
<path d="M19 14.3784C20.6566 14.3785 21.9998 15.6597 22 17.2407C22 17.7596 21.8551 18.2457 21.6019 18.6646C20.9492 19.7444 20.0991 21.0307 20.4994 22.2272L20.6742 22.7499C21.0568 23.8935 20.2057 25.0756 18.9998 25.0756C17.794 25.0756 16.9429 23.8938 17.3252 22.7502L17.5001 22.227C17.9001 21.0304 17.0501 19.7443 16.3978 18.6644C16.1448 18.2455 16 17.7595 16 17.2407C16.0002 15.6596 17.3433 14.3784 19 14.3784Z" fill="#1FA8CA"/>
<defs>
<linearGradient id="paint0_linear_5830_6751" x1="5" y1="5.57536" x2="35.5317" y2="29.1452" gradientUnits="userSpaceOnUse">
<stop stop-color="#CAF5FF"/>
<stop offset="1" stop-color="white"/>
</linearGradient>
<radialGradient id="paint1_radial_5830_6751" cx="0" cy="0" r="1" gradientUnits="userSpaceOnUse" gradientTransform="translate(19 19) rotate(90) scale(13.8649 14)">
<stop stop-color="#1FA8CA" stop-opacity="0.32"/>
<stop offset="1" stop-color="white"/>
</radialGradient>
</defs>
</svg>
