<svg width="99" height="38" viewBox="0 0 99 38" fill="none" xmlns="http://www.w3.org/2000/svg">
<mask id="path-1-inside-1_5773_6573" fill="white">
<path d="M0 12C0 5.37259 5.37258 0 12 0H87C93.6274 0 99 5.37258 99 12V25.6C99 32.2274 93.6274 37.6 87 37.6H12C5.37258 37.6 0 32.2274 0 25.6V12Z"/>
</mask>
<path d="M0 12C0 5.37259 5.37258 0 12 0H87C93.6274 0 99 5.37258 99 12V25.6C99 32.2274 93.6274 37.6 87 37.6H12C5.37258 37.6 0 32.2274 0 25.6V12Z" fill="url(#paint0_linear_5773_6573)" fill-opacity="0.95"/>
<path d="M12 0V1H87V0V-1H12V0ZM99 12H98V25.6H99H100V12H99ZM87 37.6V36.6H12V37.6V38.6H87V37.6ZM0 25.6H1V12H0H-1V25.6H0ZM12 37.6V36.6C5.92487 36.6 1 31.6751 1 25.6H0H-1C-1 32.7797 4.8203 38.6 12 38.6V37.6ZM99 25.6H98C98 31.6751 93.0751 36.6 87 36.6V37.6V38.6C94.1797 38.6 100 32.7797 100 25.6H99ZM87 0V1C93.0751 1 98 5.92487 98 12H99H100C100 4.8203 94.1797 -1 87 -1V0ZM12 0V-1C4.8203 -1 -1 4.82031 -1 12H0H1C1 5.92487 5.92487 1 12 1V0Z" fill="url(#paint1_linear_5773_6573)" fill-opacity="0.95" mask="url(#path-1-inside-1_5773_6573)"/>
<path d="M49.9645 15.0909V26H48.6435V16.4759H48.5795L45.9162 18.2443V16.902L48.6435 15.0909H49.9645ZM56.6602 26.1491C55.8576 26.1491 55.174 25.9308 54.6094 25.494C54.0447 25.0536 53.6133 24.4162 53.315 23.5817C53.0167 22.7436 52.8675 21.7315 52.8675 20.5455C52.8675 19.3665 53.0167 18.3597 53.315 17.5252C53.6168 16.6871 54.0501 16.0479 54.6147 15.6076C55.1829 15.1637 55.8647 14.9418 56.6602 14.9418C57.4556 14.9418 58.1357 15.1637 58.7003 15.6076C59.2685 16.0479 59.7017 16.6871 60 17.5252C60.3018 18.3597 60.4528 19.3665 60.4528 20.5455C60.4528 21.7315 60.3036 22.7436 60.0053 23.5817C59.707 24.4162 59.2756 25.0536 58.7109 25.494C58.1463 25.9308 57.4627 26.1491 56.6602 26.1491ZM56.6602 24.9773C57.4556 24.9773 58.0735 24.5937 58.5138 23.8267C58.9542 23.0597 59.1744 21.9659 59.1744 20.5455C59.1744 19.6009 59.0732 18.7965 58.8707 18.1325C58.6719 17.4684 58.3842 16.9624 58.0078 16.6143C57.6349 16.2663 57.1857 16.0923 56.6602 16.0923C55.8718 16.0923 55.2557 16.4812 54.8118 17.2589C54.3679 18.033 54.146 19.1286 54.146 20.5455C54.146 21.4901 54.2454 22.2926 54.4442 22.9531C54.6431 23.6136 54.929 24.1161 55.3018 24.4606C55.6783 24.805 56.131 24.9773 56.6602 24.9773ZM66.3121 15.0909V26H64.9911V16.4759H64.9272L62.2638 18.2443V16.902L64.9911 15.0909H66.3121ZM70.6428 23.017L70.6214 21.4616H70.8771L74.4567 17.8182H76.0121L72.1982 21.6747H72.0916L70.6428 23.017ZM69.4709 26V15.0909H70.728V26H69.4709ZM74.6697 26L71.4737 21.9517L72.3686 21.0781L76.2678 26H74.6697Z" fill="white" fill-opacity="0.7"/>
<path d="M29 12.88L28 17H33.83C34.1405 17 34.4467 17.0723 34.7244 17.2111C35.0021 17.35 35.2437 17.5516 35.43 17.8C35.6163 18.0484 35.7422 18.3367 35.7977 18.6422C35.8533 18.9477 35.8369 19.2619 35.75 19.56L33.42 27.56C33.2988 27.9754 33.0462 28.3404 32.7 28.6C32.3538 28.8596 31.9327 29 31.5 29H18C17.4696 29 16.9609 28.7893 16.5858 28.4142C16.2107 28.0391 16 27.5304 16 27V19C16 18.4696 16.2107 17.9609 16.5858 17.5858C16.9609 17.2107 17.4696 17 18 17H20.76C21.1321 16.9998 21.4967 16.8958 21.813 16.6997C22.1292 16.5036 22.3844 16.2232 22.55 15.89L26 9C26.4716 9.00584 26.9357 9.11817 27.3578 9.3286C27.7799 9.53902 28.1489 9.84211 28.4374 10.2152C28.7259 10.5883 28.9263 11.0218 29.0237 11.4832C29.1212 11.9446 29.113 12.4221 29 12.88Z" stroke="white" stroke-opacity="0.78" stroke-width="2" stroke-linecap="round" stroke-linejoin="round"/>
<defs>
<linearGradient id="paint0_linear_5773_6573" x1="49.5" y1="0" x2="49.5" y2="37.6" gradientUnits="userSpaceOnUse">
<stop stop-color="#AD699E"/>
<stop offset="1" stop-color="#AD699E" stop-opacity="0.32"/>
</linearGradient>
<linearGradient id="paint1_linear_5773_6573" x1="49.5" y1="0" x2="49.5" y2="37.6" gradientUnits="userSpaceOnUse">
<stop stop-color="#AD699E"/>
<stop offset="1" stop-color="#AD699E" stop-opacity="0.32"/>
</linearGradient>
</defs>
</svg>
