<svg width="67" height="34" viewBox="0 0 67 34" fill="none" xmlns="http://www.w3.org/2000/svg">
<g filter="url(#filter0_d_2_27562)">
<rect x="1" y="1" width="65" height="32" rx="6" fill="white"/>
<path d="M14.3501 22V11.8182H15.8863V20.6776H20.4999V22H14.3501ZM25.3497 22.1541C24.6338 22.1541 24.009 21.9901 23.4754 21.6619C22.9418 21.3338 22.5275 20.8748 22.2325 20.2848C21.9375 19.6948 21.79 19.0054 21.79 18.2166C21.79 17.4245 21.9375 16.7318 22.2325 16.1385C22.5275 15.5452 22.9418 15.0845 23.4754 14.7564C24.009 14.4283 24.6338 14.2642 25.3497 14.2642C26.0656 14.2642 26.6904 14.4283 27.224 14.7564C27.7576 15.0845 28.1719 15.5452 28.4669 16.1385C28.7619 16.7318 28.9094 17.4245 28.9094 18.2166C28.9094 19.0054 28.7619 19.6948 28.4669 20.2848C28.1719 20.8748 27.7576 21.3338 27.224 21.6619C26.6904 21.9901 26.0656 22.1541 25.3497 22.1541ZM25.3547 20.9062C25.8187 20.9062 26.2032 20.7836 26.5081 20.5384C26.813 20.2931 27.0384 19.9666 27.1842 19.5589C27.3334 19.1513 27.4079 18.7022 27.4079 18.2116C27.4079 17.7244 27.3334 17.277 27.1842 16.8693C27.0384 16.4583 26.813 16.1286 26.5081 15.88C26.2032 15.6314 25.8187 15.5071 25.3547 15.5071C24.8873 15.5071 24.4996 15.6314 24.1913 15.88C23.8864 16.1286 23.6594 16.4583 23.5102 16.8693C23.3644 17.277 23.2915 17.7244 23.2915 18.2116C23.2915 18.7022 23.3644 19.1513 23.5102 19.5589C23.6594 19.9666 23.8864 20.2931 24.1913 20.5384C24.4996 20.7836 24.8873 20.9062 25.3547 20.9062ZM33.7703 25.0227C33.1638 25.0227 32.6418 24.9432 32.2043 24.7841C31.7701 24.625 31.4155 24.4145 31.1404 24.1527C30.8653 23.8909 30.6598 23.6042 30.5239 23.2926L31.8016 22.7656C31.8911 22.9115 32.0104 23.0656 32.1595 23.228C32.312 23.3937 32.5175 23.5346 32.776 23.6506C33.0378 23.7666 33.3743 23.8246 33.7852 23.8246C34.3487 23.8246 34.8144 23.687 35.1823 23.4119C35.5502 23.1402 35.7341 22.706 35.7341 22.1094V20.608H35.6396C35.5502 20.7704 35.4209 20.951 35.2519 21.1499C35.0861 21.3487 34.8575 21.5211 34.5658 21.6669C34.2741 21.8127 33.8946 21.8857 33.4273 21.8857C32.8241 21.8857 32.2805 21.7448 31.7966 21.4631C31.316 21.178 30.9349 20.7588 30.6531 20.2053C30.3747 19.6484 30.2355 18.964 30.2355 18.152C30.2355 17.34 30.3731 16.6439 30.6482 16.0639C30.9266 15.4839 31.3077 15.0398 31.7916 14.7315C32.2755 14.42 32.8241 14.2642 33.4372 14.2642C33.9112 14.2642 34.294 14.3438 34.5857 14.5028C34.8773 14.6586 35.1044 14.8409 35.2668 15.0497C35.4325 15.2585 35.5601 15.4425 35.6496 15.6016H35.759V14.3636H37.2156V22.169C37.2156 22.8253 37.0632 23.3639 36.7583 23.7848C36.4533 24.2057 36.0407 24.5173 35.5203 24.7195C35.0033 24.9216 34.42 25.0227 33.7703 25.0227ZM33.7554 20.6527C34.183 20.6527 34.5442 20.5533 34.8392 20.3544C35.1375 20.1522 35.3629 19.8639 35.5154 19.4893C35.6711 19.1115 35.749 18.6591 35.749 18.1321C35.749 17.6184 35.6728 17.166 35.5203 16.7749C35.3679 16.3838 35.1441 16.0788 34.8492 15.8601C34.5542 15.638 34.1896 15.527 33.7554 15.527C33.308 15.527 32.9351 15.643 32.6368 15.875C32.3385 16.1037 32.1131 16.4152 31.9607 16.8097C31.8115 17.2041 31.7369 17.6449 31.7369 18.1321C31.7369 18.6326 31.8132 19.0717 31.9656 19.4496C32.1181 19.8274 32.3435 20.1224 32.6418 20.3345C32.9434 20.5466 33.3146 20.6527 33.7554 20.6527ZM42.9143 22V14.3636H44.4008V22H42.9143ZM43.665 13.1854C43.4065 13.1854 43.1845 13.0992 42.9988 12.9268C42.8166 12.7512 42.7254 12.5424 42.7254 12.3004C42.7254 12.0552 42.8166 11.8464 42.9988 11.674C43.1845 11.4983 43.4065 11.4105 43.665 11.4105C43.9236 11.4105 44.144 11.4983 44.3263 11.674C44.5119 11.8464 44.6047 12.0552 44.6047 12.3004C44.6047 12.5424 44.5119 12.7512 44.3263 12.9268C44.144 13.0992 43.9236 13.1854 43.665 13.1854ZM47.8872 17.4659V22H46.4007V14.3636H47.8275V15.6065H47.922C48.0976 15.2022 48.3727 14.8774 48.7472 14.6321C49.1251 14.3868 49.6007 14.2642 50.1741 14.2642C50.6945 14.2642 51.1502 14.3736 51.5413 14.5923C51.9324 14.8078 52.2356 15.1293 52.4511 15.5568C52.6665 15.9844 52.7742 16.513 52.7742 17.1428V22H51.2877V17.3217C51.2877 16.7682 51.1436 16.3357 50.8552 16.0241C50.5669 15.7093 50.1708 15.5518 49.667 15.5518C49.3223 15.5518 49.0157 15.6264 48.7472 15.7756C48.4821 15.9247 48.2716 16.1435 48.1159 16.4318C47.9634 16.7169 47.8872 17.0616 47.8872 17.4659Z" fill="#231645"/>
</g>
<defs>
<filter id="filter0_d_2_27562" x="0" y="0" width="67" height="34" filterUnits="userSpaceOnUse" color-interpolation-filters="sRGB">
<feFlood flood-opacity="0" result="BackgroundImageFix"/>
<feColorMatrix in="SourceAlpha" type="matrix" values="0 0 0 0 0 0 0 0 0 0 0 0 0 0 0 0 0 0 127 0" result="hardAlpha"/>
<feMorphology radius="1" operator="dilate" in="SourceAlpha" result="effect1_dropShadow_2_27562"/>
<feOffset/>
<feComposite in2="hardAlpha" operator="out"/>
<feColorMatrix type="matrix" values="0 0 0 0 0.184314 0 0 0 0 0.00392157 0 0 0 0 0.592157 0 0 0 0.08 0"/>
<feBlend mode="normal" in2="BackgroundImageFix" result="effect1_dropShadow_2_27562"/>
<feBlend mode="normal" in="SourceGraphic" in2="effect1_dropShadow_2_27562" result="shape"/>
</filter>
</defs>
</svg>
