<svg xmlns="http://www.w3.org/2000/svg" fill="none" viewBox="4 1 65 32">
<g filter="url(#filter0_ddddd_5743_33869)">
<rect x="4" y="1" width="65" height="32" rx="6" fill="white"/>
<path d="M17.3501 22V11.8182H18.8863V20.6776H23.4999V22H17.3501ZM28.3497 22.1541C27.6338 22.1541 27.009 21.9901 26.4754 21.6619C25.9418 21.3338 25.5275 20.8748 25.2325 20.2848C24.9375 19.6948 24.79 19.0054 24.79 18.2166C24.79 17.4245 24.9375 16.7318 25.2325 16.1385C25.5275 15.5452 25.9418 15.0845 26.4754 14.7564C27.009 14.4283 27.6338 14.2642 28.3497 14.2642C29.0656 14.2642 29.6904 14.4283 30.224 14.7564C30.7576 15.0845 31.1719 15.5452 31.4669 16.1385C31.7619 16.7318 31.9094 17.4245 31.9094 18.2166C31.9094 19.0054 31.7619 19.6948 31.4669 20.2848C31.1719 20.8748 30.7576 21.3338 30.224 21.6619C29.6904 21.9901 29.0656 22.1541 28.3497 22.1541ZM28.3547 20.9062C28.8187 20.9062 29.2032 20.7836 29.5081 20.5384C29.813 20.2931 30.0384 19.9666 30.1842 19.5589C30.3334 19.1513 30.4079 18.7022 30.4079 18.2116C30.4079 17.7244 30.3334 17.277 30.1842 16.8693C30.0384 16.4583 29.813 16.1286 29.5081 15.88C29.2032 15.6314 28.8187 15.5071 28.3547 15.5071C27.8873 15.5071 27.4996 15.6314 27.1913 15.88C26.8864 16.1286 26.6594 16.4583 26.5102 16.8693C26.3644 17.277 26.2915 17.7244 26.2915 18.2116C26.2915 18.7022 26.3644 19.1513 26.5102 19.5589C26.6594 19.9666 26.8864 20.2931 27.1913 20.5384C27.4996 20.7836 27.8873 20.9062 28.3547 20.9062ZM36.7703 25.0227C36.1638 25.0227 35.6418 24.9432 35.2043 24.7841C34.7701 24.625 34.4155 24.4145 34.1404 24.1527C33.8653 23.8909 33.6598 23.6042 33.5239 23.2926L34.8016 22.7656C34.8911 22.9115 35.0104 23.0656 35.1595 23.228C35.312 23.3937 35.5175 23.5346 35.776 23.6506C36.0378 23.7666 36.3743 23.8246 36.7852 23.8246C37.3487 23.8246 37.8144 23.687 38.1823 23.4119C38.5502 23.1402 38.7341 22.706 38.7341 22.1094V20.608H38.6396C38.5502 20.7704 38.4209 20.951 38.2519 21.1499C38.0861 21.3487 37.8575 21.5211 37.5658 21.6669C37.2741 21.8127 36.8946 21.8857 36.4273 21.8857C35.8241 21.8857 35.2805 21.7448 34.7966 21.4631C34.316 21.178 33.9349 20.7588 33.6531 20.2053C33.3747 19.6484 33.2355 18.964 33.2355 18.152C33.2355 17.34 33.3731 16.6439 33.6482 16.0639C33.9266 15.4839 34.3077 15.0398 34.7916 14.7315C35.2755 14.42 35.8241 14.2642 36.4372 14.2642C36.9112 14.2642 37.294 14.3438 37.5857 14.5028C37.8773 14.6586 38.1044 14.8409 38.2668 15.0497C38.4325 15.2585 38.5601 15.4425 38.6496 15.6016H38.759V14.3636H40.2156V22.169C40.2156 22.8253 40.0632 23.3639 39.7583 23.7848C39.4533 24.2057 39.0407 24.5173 38.5203 24.7195C38.0033 24.9216 37.42 25.0227 36.7703 25.0227ZM36.7554 20.6527C37.183 20.6527 37.5442 20.5533 37.8392 20.3544C38.1375 20.1522 38.3629 19.8639 38.5154 19.4893C38.6711 19.1115 38.749 18.6591 38.749 18.1321C38.749 17.6184 38.6728 17.166 38.5203 16.7749C38.3679 16.3838 38.1441 16.0788 37.8492 15.8601C37.5542 15.638 37.1896 15.527 36.7554 15.527C36.308 15.527 35.9351 15.643 35.6368 15.875C35.3385 16.1037 35.1131 16.4152 34.9607 16.8097C34.8115 17.2041 34.7369 17.6449 34.7369 18.1321C34.7369 18.6326 34.8132 19.0717 34.9656 19.4496C35.1181 19.8274 35.3435 20.1224 35.6418 20.3345C35.9434 20.5466 36.3146 20.6527 36.7554 20.6527ZM45.9143 22V14.3636H47.4008V22H45.9143ZM46.665 13.1854C46.4065 13.1854 46.1845 13.0992 45.9988 12.9268C45.8166 12.7512 45.7254 12.5424 45.7254 12.3004C45.7254 12.0552 45.8166 11.8464 45.9988 11.674C46.1845 11.4983 46.4065 11.4105 46.665 11.4105C46.9236 11.4105 47.144 11.4983 47.3263 11.674C47.5119 11.8464 47.6047 12.0552 47.6047 12.3004C47.6047 12.5424 47.5119 12.7512 47.3263 12.9268C47.144 13.0992 46.9236 13.1854 46.665 13.1854ZM50.8872 17.4659V22H49.4007V14.3636H50.8275V15.6065H50.922C51.0976 15.2022 51.3727 14.8774 51.7472 14.6321C52.1251 14.3868 52.6007 14.2642 53.1741 14.2642C53.6945 14.2642 54.1502 14.3736 54.5413 14.5923C54.9324 14.8078 55.2356 15.1293 55.4511 15.5568C55.6665 15.9844 55.7742 16.513 55.7742 17.1428V22H54.2877V17.3217C54.2877 16.7682 54.1436 16.3357 53.8552 16.0241C53.5669 15.7093 53.1708 15.5518 52.667 15.5518C52.3223 15.5518 52.0157 15.6264 51.7472 15.7756C51.4821 15.9247 51.2716 16.1435 51.1159 16.4318C50.9634 16.7169 50.8872 17.0616 50.8872 17.4659Z" fill="black"/>
</g>
<defs>
<filter id="filter0_ddddd_5743_33869" x="0" y="0" width="73" height="48" filterUnits="userSpaceOnUse" color-interpolation-filters="sRGB">
<feFlood flood-opacity="0" result="BackgroundImageFix"/>
<feColorMatrix in="SourceAlpha" type="matrix" values="0 0 0 0 0 0 0 0 0 0 0 0 0 0 0 0 0 0 127 0" result="hardAlpha"/>
<feOffset dy="11"/>
<feGaussianBlur stdDeviation="2"/>
<feComposite in2="hardAlpha" operator="out"/>
<feColorMatrix type="matrix" values="0 0 0 0 0.184314 0 0 0 0 0.00392157 0 0 0 0 0.592157 0 0 0 0.01 0"/>
<feBlend mode="normal" in2="BackgroundImageFix" result="effect1_dropShadow_5743_33869"/>
<feColorMatrix in="SourceAlpha" type="matrix" values="0 0 0 0 0 0 0 0 0 0 0 0 0 0 0 0 0 0 127 0" result="hardAlpha"/>
<feOffset dy="6"/>
<feGaussianBlur stdDeviation="2"/>
<feComposite in2="hardAlpha" operator="out"/>
<feColorMatrix type="matrix" values="0 0 0 0 0.184314 0 0 0 0 0.00392157 0 0 0 0 0.592157 0 0 0 0.02 0"/>
<feBlend mode="normal" in2="effect1_dropShadow_5743_33869" result="effect2_dropShadow_5743_33869"/>
<feColorMatrix in="SourceAlpha" type="matrix" values="0 0 0 0 0 0 0 0 0 0 0 0 0 0 0 0 0 0 127 0" result="hardAlpha"/>
<feOffset dy="3"/>
<feGaussianBlur stdDeviation="1.5"/>
<feComposite in2="hardAlpha" operator="out"/>
<feColorMatrix type="matrix" values="0 0 0 0 0.184314 0 0 0 0 0.00392157 0 0 0 0 0.592157 0 0 0 0.03 0"/>
<feBlend mode="normal" in2="effect2_dropShadow_5743_33869" result="effect3_dropShadow_5743_33869"/>
<feColorMatrix in="SourceAlpha" type="matrix" values="0 0 0 0 0 0 0 0 0 0 0 0 0 0 0 0 0 0 127 0" result="hardAlpha"/>
<feOffset dy="1"/>
<feGaussianBlur stdDeviation="0.5"/>
<feComposite in2="hardAlpha" operator="out"/>
<feColorMatrix type="matrix" values="0 0 0 0 0.184314 0 0 0 0 0.00392157 0 0 0 0 0.592157 0 0 0 0.04 0"/>
<feBlend mode="normal" in2="effect3_dropShadow_5743_33869" result="effect4_dropShadow_5743_33869"/>
<feColorMatrix in="SourceAlpha" type="matrix" values="0 0 0 0 0 0 0 0 0 0 0 0 0 0 0 0 0 0 127 0" result="hardAlpha"/>
<feMorphology radius="1" operator="dilate" in="SourceAlpha" result="effect5_dropShadow_5743_33869"/>
<feOffset/>
<feComposite in2="hardAlpha" operator="out"/>
<feColorMatrix type="matrix" values="0 0 0 0 0.184314 0 0 0 0 0.00392157 0 0 0 0 0.592157 0 0 0 0.08 0"/>
<feBlend mode="normal" in2="effect4_dropShadow_5743_33869" result="effect5_dropShadow_5743_33869"/>
<feBlend mode="normal" in="SourceGraphic" in2="effect5_dropShadow_5743_33869" result="shape"/>
</filter>
</defs>
</svg>