<svg width="99" height="34" viewBox="0 0 99 34" fill="none" xmlns="http://www.w3.org/2000/svg">
<path d="M15 14.5162C15 13.4034 15.3376 12.3167 15.9681 11.3998C16.5987 10.4829 17.4925 9.77881 18.5316 9.38055C19.5707 8.98229 20.7062 8.9086 21.788 9.1692C22.8699 9.4298 23.8472 10.0124 24.591 10.8402C24.6434 10.8962 24.7067 10.9408 24.7771 10.9714C24.8474 11.0019 24.9233 11.0176 25 11.0176C25.0767 11.0176 25.1526 11.0019 25.2229 10.9714C25.2933 10.9408 25.3566 10.8962 25.409 10.8402C26.1504 10.0071 27.128 9.41952 28.2116 9.15575C29.2952 8.89199 30.4335 8.9645 31.4749 9.36364C32.5163 9.76277 33.4114 10.4696 34.0411 11.3901C34.6708 12.3105 35.0053 13.4009 35 14.5162C35 16.8062 33.5 18.5162 32 20.0162L26.508 25.3292C26.3217 25.5432 26.0919 25.7151 25.834 25.8335C25.5762 25.9518 25.296 26.014 25.0123 26.0158C24.7285 26.0176 24.4476 25.959 24.1883 25.8439C23.9289 25.7288 23.697 25.5598 23.508 25.3482L18 20.0162C16.5 18.5162 15 16.8162 15 14.5162Z" stroke="black" stroke-opacity="0.27" stroke-width="2" stroke-linecap="round" stroke-linejoin="round"/>
<mask id="path-2-inside-1_5773_6578" fill="white">
<path d="M0 12C0 5.37258 5.37258 0 12 0H87C93.6274 0 99 5.37258 99 12V21.3C99 27.9274 93.6274 33.3 87 33.3H12C5.37258 33.3 0 27.9274 0 21.3V12Z"/>
</mask>
<path d="M0 12C0 5.37258 5.37258 0 12 0H87C93.6274 0 99 5.37258 99 12V21.3C99 27.9274 93.6274 33.3 87 33.3H12C5.37258 33.3 0 27.9274 0 21.3V12Z" fill="url(#paint0_linear_5773_6578)" fill-opacity="0.95"/>
<path d="M12 0V1H87V0V-1H12V0ZM99 12H98V21.3H99H100V12H99ZM87 33.3V32.3H12V33.3V34.3H87V33.3ZM0 21.3H1V12H0H-1V21.3H0ZM12 33.3V32.3C5.92487 32.3 1 27.3751 1 21.3H0H-1C-1 28.4797 4.8203 34.3 12 34.3V33.3ZM99 21.3H98C98 27.3751 93.0751 32.3 87 32.3V33.3V34.3C94.1797 34.3 100 28.4797 100 21.3H99ZM87 0V1C93.0751 1 98 5.92487 98 12H99H100C100 4.8203 94.1797 -1 87 -1V0ZM12 0V-1C4.8203 -1 -1 4.8203 -1 12H0H1C1 5.92487 5.92487 1 12 1V0Z" fill="url(#paint1_linear_5773_6578)" fill-opacity="0.95" mask="url(#path-2-inside-1_5773_6578)"/>
<path d="M41.8736 19.7628V18.6761L46.6676 11.0909H47.456V12.7741H46.9233L43.3011 18.5057V18.5909H49.7571V19.7628H41.8736ZM47.0085 22V19.4325V18.9265V11.0909H48.2656V22H47.0085ZM55.1624 22.1491C54.5374 22.1491 53.9745 22.0249 53.4738 21.7763C52.9731 21.5277 52.5718 21.1868 52.27 20.7536C51.9681 20.3203 51.803 19.8267 51.7746 19.2727H53.053C53.1027 19.7663 53.3264 20.1747 53.7242 20.4979C54.1254 20.8175 54.6048 20.9773 55.1624 20.9773C55.6098 20.9773 56.0075 20.8725 56.3556 20.663C56.7071 20.4535 56.9823 20.1658 57.1812 19.8001C57.3836 19.4308 57.4848 19.0135 57.4848 18.5483C57.4848 18.0724 57.3801 17.6481 57.1705 17.2752C56.9646 16.8988 56.6805 16.6023 56.3183 16.3857C55.9561 16.169 55.5423 16.0589 55.0771 16.0554C54.7433 16.0518 54.4007 16.1033 54.0491 16.2099C53.6975 16.3129 53.4081 16.446 53.1808 16.6094L51.945 16.4602L52.6056 11.0909H58.2732V12.2628H53.7135L53.33 15.4801H53.3939C53.6176 15.3026 53.8982 15.1552 54.2355 15.038C54.5729 14.9208 54.9244 14.8622 55.2902 14.8622C55.9578 14.8622 56.5526 15.022 57.0747 15.3416C57.6002 15.6577 58.0122 16.0909 58.3105 16.6413C58.6123 17.1918 58.7632 17.8203 58.7632 18.527C58.7632 19.223 58.607 19.8445 58.2945 20.3913C57.9855 20.9347 57.5594 21.3643 57.0161 21.6804C56.4727 21.9929 55.8548 22.1491 55.1624 22.1491ZM61.4066 22.0852C61.1438 22.0852 60.9183 21.9911 60.7301 21.8029C60.5419 21.6147 60.4478 21.3892 60.4478 21.1264C60.4478 20.8636 60.5419 20.6381 60.7301 20.4499C60.9183 20.2617 61.1438 20.1676 61.4066 20.1676C61.6694 20.1676 61.8949 20.2617 62.0831 20.4499C62.2713 20.6381 62.3654 20.8636 62.3654 21.1264C62.3654 21.3004 62.321 21.4602 62.2322 21.6058C62.147 21.7514 62.0316 21.8686 61.886 21.9574C61.744 22.0426 61.5842 22.0852 61.4066 22.0852ZM67.9704 10.9418C68.4179 10.9453 68.8653 11.0305 69.3128 11.1974C69.7602 11.3643 70.1686 11.6413 70.5379 12.0284C70.9072 12.4119 71.2037 12.9357 71.4275 13.5998C71.6512 14.2638 71.7631 15.0966 71.7631 16.098C71.7631 17.0675 71.6707 17.9286 71.4861 18.6815C71.305 19.4308 71.0422 20.0629 70.6977 20.5778C70.3568 21.0927 69.9413 21.4833 69.4513 21.7496C68.9648 22.016 68.4143 22.1491 67.8 22.1491C67.1892 22.1491 66.6441 22.0284 66.1647 21.7869C65.6888 21.5419 65.2982 21.2028 64.9928 20.7695C64.691 20.3327 64.4974 19.8267 64.4122 19.2514H65.7119C65.8291 19.7521 66.0617 20.1658 66.4097 20.4925C66.7613 20.8157 67.2247 20.9773 67.8 20.9773C68.6416 20.9773 69.3057 20.6097 69.7922 19.8746C70.2822 19.1396 70.5273 18.1009 70.5273 16.7585H70.442C70.2432 17.0568 70.007 17.3143 69.7336 17.5309C69.4601 17.7475 69.1565 17.9144 68.8227 18.0316C68.4889 18.1488 68.1338 18.2074 67.7574 18.2074C67.1324 18.2074 66.5589 18.0529 66.0368 17.744C65.5184 17.4315 65.1029 17.0036 64.7904 16.4602C64.4814 15.9134 64.327 15.2884 64.327 14.5852C64.327 13.9176 64.4761 13.3068 64.7744 12.7528C65.0763 12.1953 65.4988 11.7514 66.0422 11.4212C66.589 11.0909 67.2318 10.9311 67.9704 10.9418ZM67.9704 12.1136C67.523 12.1136 67.1199 12.2255 66.7613 12.4492C66.4062 12.6694 66.1238 12.9677 65.9143 13.3441C65.7084 13.717 65.6054 14.1307 65.6054 14.5852C65.6054 15.0398 65.7048 15.4535 65.9037 15.8263C66.1061 16.1957 66.3813 16.4904 66.7293 16.7106C67.0809 16.9272 67.4804 17.0355 67.9278 17.0355C68.2652 17.0355 68.5795 16.9698 68.8707 16.8384C69.1618 16.7035 69.4157 16.5206 69.6324 16.2898C69.8525 16.0554 70.0248 15.7908 70.1491 15.4961C70.2733 15.1978 70.3355 14.8871 70.3355 14.5639C70.3355 14.1378 70.2325 13.7383 70.0265 13.3654C69.8241 12.9925 69.5436 12.6907 69.1849 12.4599C68.8298 12.229 68.425 12.1136 67.9704 12.1136ZM75.051 19.017L75.0297 17.4616H75.2853L78.8649 13.8182H80.4203L76.6064 17.6747H76.4998L75.051 19.017ZM73.8791 22V11.0909H75.1362V22H73.8791ZM79.0779 22L75.8819 17.9517L76.7768 17.0781L80.676 22H79.0779Z" fill="white" fill-opacity="0.7"/>
<defs>
<linearGradient id="paint0_linear_5773_6578" x1="49.5" y1="0" x2="49.5" y2="33.3" gradientUnits="userSpaceOnUse">
<stop stop-color="#1FA8CA"/>
<stop offset="1" stop-color="#1FA8CA" stop-opacity="0.32"/>
</linearGradient>
<linearGradient id="paint1_linear_5773_6578" x1="49.5" y1="0" x2="49.5" y2="33.3" gradientUnits="userSpaceOnUse">
<stop stop-color="#1FA8CA"/>
<stop offset="1" stop-color="#1FA8CA" stop-opacity="0.32"/>
</linearGradient>
</defs>
</svg>
