<svg width="29" height="28" viewBox="0 0 29 28" fill="none" xmlns="http://www.w3.org/2000/svg">
<path d="M13.5165 0.484392C13.9051 -0.161428 14.8414 -0.16143 15.2301 0.48439L19.4214 7.44889C19.561 7.6809 19.7888 7.84637 20.0526 7.90746L27.9714 9.74148C28.7057 9.91155 28.995 10.802 28.5009 11.3712L23.1725 17.5095C22.995 17.714 22.908 17.9818 22.9314 18.2515L23.6342 26.3495C23.6994 27.1004 22.9419 27.6508 22.2478 27.3567L14.7634 24.1859C14.514 24.0803 14.2325 24.0803 13.9832 24.1859L6.49874 27.3567C5.80471 27.6508 5.04723 27.1004 5.1124 26.3495L5.8152 18.2515C5.83861 17.9818 5.75162 17.714 5.57411 17.5095L0.245659 11.3712C-0.24845 10.802 0.0408802 9.91155 0.775194 9.74148L8.69401 7.90746C8.95781 7.84637 9.18556 7.6809 9.32519 7.44889L13.5165 0.484392Z" fill="url(#paint0_linear_5769_1682)"/>
<defs>
<linearGradient id="paint0_linear_5769_1682" x1="14.3733" y1="-0.939331" x2="14.3733" y2="31.0607" gradientUnits="userSpaceOnUse">
<stop stop-color="#E08DC3"/>
<stop offset="1" stop-color="#E08DC3" stop-opacity="0.32"/>
</linearGradient>
</defs>
</svg>
