<svg width="115" height="90" viewBox="0 0 115 90" fill="none" xmlns="http://www.w3.org/2000/svg">
<path d="M115 69.8473C115 73.2061 114.293 76.1832 112.878 78.7786C111.604 81.2214 109.907 83.2824 107.784 84.9618C105.662 86.6412 103.328 87.9389 100.781 88.855C98.3756 89.6183 96.1119 90 93.9896 90C90.7355 90 87.4106 89.2366 84.015 87.7099C80.7609 86.0305 77.7897 83.6641 75.1015 80.6107C72.4133 77.5573 70.2203 73.8931 68.5225 69.6183C66.8247 65.3435 65.9758 60.6107 65.9758 55.4198C65.9758 46.4122 67.5321 38.7023 70.6447 32.2901C73.8989 25.8779 77.719 20.5344 82.105 16.2595C86.6324 11.8321 91.2307 8.39695 95.8997 5.9542C100.71 3.35878 104.672 1.52672 107.784 0.458015V7.78626C104.955 9.61832 101.913 11.6031 98.6586 13.7405C95.5459 15.8779 92.6455 18.3969 89.9573 21.2977C87.4106 24.1985 85.2883 27.4809 83.5905 31.145C81.8927 34.8092 81.0438 38.9313 81.0438 43.5115C81.0438 45.8015 81.2561 47.6336 81.6805 49.0076C82.105 50.3817 82.6002 51.4504 83.1661 52.2137C83.8735 52.9771 84.5102 53.5115 85.0761 53.8168C85.7835 54.1221 86.3495 54.2748 86.7739 54.2748C88.3303 54.2748 90.2403 53.8168 92.504 52.9008C94.7678 51.8321 96.89 51.2977 98.8708 51.2977C100.71 51.2977 102.549 51.7557 104.389 52.6718C106.369 53.4351 108.138 54.6565 109.694 56.3359C111.251 57.8626 112.524 59.771 113.514 62.0611C114.505 64.3511 115 66.9466 115 69.8473ZM48.812 69.3893C48.812 72.7481 48.1046 75.7252 46.6897 78.3206C45.4164 80.916 43.7186 83.0534 41.5963 84.7328C39.474 86.2595 37.1396 87.4809 34.5928 88.3969C32.1876 89.1603 29.8531 89.542 27.5894 89.542C24.3353 89.542 21.0811 88.7786 17.827 87.2519C14.5729 85.5725 11.6017 83.2824 8.9135 80.3817C6.2253 77.3282 4.0323 73.6641 2.33449 69.3893C0.778162 65.1145 0 60.3817 0 55.1908C0 46.1832 1.55632 38.4733 4.66897 32.0611C7.92311 25.4962 11.7432 20.0763 16.1292 15.8015C20.6567 11.374 25.2549 7.93893 29.9239 5.49618C34.5928 2.90076 38.4837 1.0687 41.5963 0V7.55725C38.7666 9.38931 35.7247 11.374 32.4706 13.5115C29.3579 15.6489 26.4575 18.1679 23.7693 21.0687C21.2226 23.9695 19.0296 27.2519 17.1903 30.916C15.4925 34.4275 14.6436 38.5496 14.6436 43.2824C14.6436 47.5573 15.4218 50.3817 16.9781 51.7557C18.6759 53.1298 19.9492 53.8168 20.7982 53.8168C22.213 53.8168 24.0523 53.3588 26.316 52.4427C28.5798 51.5267 30.702 51.0687 32.6828 51.0687C34.5221 51.0687 36.3614 51.5267 38.2007 52.4427C40.1815 53.2061 41.95 54.4275 43.5063 56.1069C45.0627 57.6336 46.336 59.542 47.3264 61.8321C48.3168 63.9695 48.812 66.4886 48.812 69.3893Z" fill="url(#paint0_linear_5743_8140)" fill-opacity="0.19"/>
<defs>
<linearGradient id="paint0_linear_5743_8140" x1="57.5" y1="0" x2="57.5" y2="90" gradientUnits="userSpaceOnUse">
<stop stop-color="#DB47BB"/>
<stop offset="1" stop-color="#DB47BB" stop-opacity="0.32"/>
</linearGradient>
</defs>
</svg>
