<svg width="900" height="64" viewBox="0 0 900 64" fill="none" xmlns="http://www.w3.org/2000/svg">
<g clip-path="url(#clip0_5839_13148)">
<rect width="900" height="64" rx="16" fill="url(#paint0_radial_5839_13148)"/>
<path d="M0 16C0 7.16344 7.16344 0 16 0H360V64H16C7.16344 64 0 56.8366 0 48V16Z" fill="url(#paint1_radial_5839_13148)"/>
<mask id="path-3-inside-1_5839_13148" fill="white">
<path d="M0 16C0 7.16344 7.16344 0 16 0H360V64H16C7.16344 64 0 56.8366 0 48V16Z"/>
</mask>
<path d="M14.7666 62.3467C14.828 62.3519 14.8895 62.3569 14.9512 62.3613C15.0139 62.3658 15.0767 62.3693 15.1396 62.373C15.1865 62.3758 15.2333 62.3785 15.2803 62.3809C15.3799 62.3858 15.4798 62.3907 15.5801 62.3936C15.5973 62.394 15.6146 62.3951 15.6318 62.3955C15.7542 62.3986 15.8769 62.4004 16 62.4004V65.5996C15.5047 65.5996 15.0139 65.5783 14.5283 65.5381C14.467 65.533 14.4059 65.5272 14.3447 65.5215L14.4932 63.9297L14.5264 63.5732L14.6426 62.3369C14.6838 62.3408 14.7252 62.3432 14.7666 62.3467ZM17.4961 62.4004V65.5996H16V62.4004H17.4961ZM22.4814 62.4004V65.5996H19.4902V62.4004H22.4814ZM27.4668 62.4004V65.5996H24.4756V62.4004H27.4668ZM32.4521 62.4004V65.5996H29.4609V62.4004H32.4521ZM37.4375 62.4004V65.5996H34.4463V62.4004H37.4375ZM42.4229 62.4004V65.5996H39.4316V62.4004H42.4229ZM47.4092 62.4004V65.5996H44.417V62.4004H47.4092ZM52.3945 62.4004V65.5996H49.4033V62.4004H52.3945ZM57.3799 62.4004V65.5996H54.3887V62.4004H57.3799ZM62.3652 62.4004V65.5996H59.374V62.4004H62.3652ZM67.3506 62.4004V65.5996H64.3594V62.4004H67.3506ZM72.3359 62.4004V65.5996H69.3447V62.4004H72.3359ZM77.3213 62.4004V65.5996H74.3301V62.4004H77.3213ZM82.3076 62.4004V65.5996H79.3164V62.4004H82.3076ZM87.293 62.4004V65.5996H84.3018V62.4004H87.293ZM92.2783 62.4004V65.5996H89.2871V62.4004H92.2783ZM97.2637 62.4004V65.5996H94.2725V62.4004H97.2637ZM102.249 62.4004V65.5996H99.2578V62.4004H102.249ZM107.234 62.4004V65.5996H104.243V62.4004H107.234ZM112.221 62.4004V65.5996H109.229V62.4004H112.221ZM117.206 62.4004V65.5996H114.215V62.4004H117.206ZM122.191 62.4004V65.5996H119.2V62.4004H122.191ZM127.177 62.4004V65.5996H124.186V62.4004H127.177ZM132.162 62.4004V65.5996H129.171V62.4004H132.162ZM137.147 62.4004V65.5996H134.156V62.4004H137.147ZM142.133 62.4004V65.5996H139.142V62.4004H142.133ZM147.119 62.4004V65.5996H144.128V62.4004H147.119ZM152.104 62.4004V65.5996H149.113V62.4004H152.104ZM157.09 62.4004V65.5996H154.099V62.4004H157.09ZM162.075 62.4004V65.5996H159.084V62.4004H162.075ZM167.061 62.4004V65.5996H164.069V62.4004H167.061ZM172.046 62.4004V65.5996H169.055V62.4004H172.046ZM177.032 62.4004V65.5996H174.04V62.4004H177.032ZM182.018 62.4004V65.5996H179.026V62.4004H182.018ZM187.003 62.4004V65.5996H184.012V62.4004H187.003ZM191.988 62.4004V65.5996H188.997V62.4004H191.988ZM196.974 62.4004V65.5996H193.982V62.4004H196.974ZM201.959 62.4004V65.5996H198.968V62.4004H201.959ZM206.945 62.4004V65.5996H203.953V62.4004H206.945ZM211.931 62.4004V65.5996H208.939V62.4004H211.931ZM216.916 62.4004V65.5996H213.925V62.4004H216.916ZM221.901 62.4004V65.5996H218.91V62.4004H221.901ZM226.887 62.4004V65.5996H223.896V62.4004H226.887ZM231.872 62.4004V65.5996H228.881V62.4004H231.872ZM236.857 62.4004V65.5996H233.866V62.4004H236.857ZM241.844 62.4004V65.5996H238.853V62.4004H241.844ZM246.829 62.4004V65.5996H243.838V62.4004H246.829ZM251.814 62.4004V65.5996H248.823V62.4004H251.814ZM256.8 62.4004V65.5996H253.809V62.4004H256.8ZM261.785 62.4004V65.5996H258.794V62.4004H261.785ZM266.771 62.4004V65.5996H263.779V62.4004H266.771ZM271.757 62.4004V65.5996H268.765V62.4004H271.757ZM276.742 62.4004V65.5996H273.751V62.4004H276.742ZM281.728 62.4004V65.5996H278.736V62.4004H281.728ZM286.713 62.4004V65.5996H283.722V62.4004H286.713ZM291.698 62.4004V65.5996H288.707V62.4004H291.698ZM296.684 62.4004V65.5996H293.692V62.4004H296.684ZM301.669 62.4004V65.5996H298.678V62.4004H301.669ZM306.655 62.4004V65.5996H303.664V62.4004H306.655ZM311.641 62.4004V65.5996H308.649V62.4004H311.641ZM316.626 62.4004V65.5996H313.635V62.4004H316.626ZM321.611 62.4004V65.5996H318.62V62.4004H321.611ZM326.597 62.4004V65.5996H323.605V62.4004H326.597ZM331.582 62.4004V65.5996H328.591V62.4004H331.582ZM336.568 62.4004V65.5996H333.577V62.4004H336.568ZM341.554 62.4004V65.5996H338.562V62.4004H341.554ZM346.539 62.4004V65.5996H343.548V62.4004H346.539ZM351.524 62.4004V65.5996H348.533V62.4004H351.524ZM356.51 62.4004V65.5996H353.519V62.4004H356.51ZM360 62.4004V65.5996H358.504V62.4004H360ZM10.3486 61.248C10.3902 61.2658 10.4319 61.2834 10.4736 61.3008C10.5388 61.3279 10.6042 61.3547 10.6699 61.3809C10.7066 61.3955 10.7435 61.4095 10.7803 61.4238C10.8588 61.4544 10.9375 61.4845 11.0166 61.5137C11.0374 61.5213 11.0583 61.5286 11.0791 61.5361C11.272 61.6063 11.4664 61.6733 11.6631 61.7354C11.7004 61.7471 11.738 61.7581 11.7754 61.7695C11.85 61.7924 11.9249 61.8143 12 61.8359C12.0296 61.8445 12.0592 61.853 12.0889 61.8613C12.1829 61.8878 12.2773 61.9129 12.3721 61.9375C12.3877 61.9416 12.4033 61.9462 12.4189 61.9502C12.503 61.9717 12.5872 61.9927 12.6719 62.0127C12.7128 62.0224 12.7539 62.0317 12.7949 62.041C12.8152 62.0456 12.8352 62.0512 12.8555 62.0557L12.5078 63.6182L12.1602 65.1777C12.141 65.1735 12.1216 65.1703 12.1025 65.166C11.0599 64.9302 10.0522 64.6021 9.08887 64.1904C9.06166 64.1788 9.03495 64.1661 9.00781 64.1543L9.64355 62.6875L10.2803 61.2197C10.3029 61.2295 10.3259 61.2384 10.3486 61.248ZM6.48926 58.8115C6.54936 58.8644 6.60991 58.9168 6.6709 58.9688C6.70819 59.0005 6.74559 59.0321 6.7832 59.0635C6.83525 59.1069 6.88777 59.1497 6.94043 59.1924C6.96867 59.2153 6.99698 59.2381 7.02539 59.2607C7.08499 59.3083 7.14471 59.3557 7.20508 59.4023C7.23851 59.4282 7.272 59.4539 7.30566 59.4795C7.36033 59.521 7.41543 59.5618 7.4707 59.6025C7.51217 59.6331 7.5539 59.6633 7.5957 59.6934C7.64004 59.7253 7.68478 59.7567 7.72949 59.7881C7.79035 59.8309 7.85154 59.8732 7.91309 59.915C7.93653 59.931 7.95986 59.9471 7.9834 59.9629C8.04342 60.0032 8.10341 60.0436 8.16406 60.083C8.21229 60.1143 8.26095 60.145 8.30957 60.1758C8.36145 60.2086 8.41349 60.2412 8.46582 60.2734C8.50922 60.3001 8.55297 60.3263 8.59668 60.3525C8.62123 60.3673 8.64528 60.3829 8.66992 60.3975L7.85449 61.7744L7.03809 63.1494C7.01056 63.1331 6.98348 63.1161 6.95605 63.0996C6.03241 62.5453 5.16328 61.9096 4.36035 61.2012L5.41895 60.002L5.82715 59.5391L6.47754 58.8018C6.48129 58.8051 6.48551 58.8082 6.48926 58.8115ZM3.64648 55.4023C3.67273 55.4461 3.69889 55.4898 3.72559 55.5332C3.75778 55.5855 3.7904 55.6376 3.82324 55.6895C3.85261 55.7359 3.88223 55.7821 3.91211 55.8281C3.95228 55.89 3.99308 55.9515 4.03418 56.0127C4.05063 56.0372 4.06739 56.0615 4.08398 56.0859C4.12584 56.1475 4.16816 56.2087 4.21094 56.2695C4.23914 56.3097 4.2673 56.3498 4.2959 56.3896C4.32922 56.436 4.36263 56.4823 4.39648 56.5283C4.43718 56.5836 4.47807 56.6387 4.51953 56.6934C4.53665 56.7159 4.55404 56.7383 4.57129 56.7607C4.62313 56.8283 4.67551 56.8953 4.72852 56.9619C4.75433 56.9943 4.78055 57.0264 4.80664 57.0586C4.84931 57.1113 4.89215 57.1638 4.93555 57.2158C4.96366 57.2495 4.99209 57.283 5.02051 57.3164C5.06893 57.3734 5.11771 57.4301 5.16699 57.4863C5.17743 57.4982 5.18776 57.5106 5.19824 57.5225L3.99805 58.5811L3.39844 59.1104L3.39746 59.1094L2.79785 59.6387C2.0894 58.8356 1.45371 57.9668 0.899414 57.043C0.882955 57.0155 0.865923 56.9885 0.849609 56.9609L2.22559 56.1455L3.60254 55.3301C3.61692 55.3543 3.63197 55.3782 3.64648 55.4023ZM1.95801 51.2041C1.96669 51.2423 1.97637 51.2803 1.98535 51.3184C2.03224 51.5172 2.08265 51.7146 2.1377 51.9102C2.14376 51.9317 2.15009 51.9531 2.15625 51.9746C2.18011 52.0579 2.20418 52.141 2.22949 52.2236C2.24096 52.2611 2.25191 52.2986 2.26367 52.3359C2.35595 52.6286 2.4582 52.9169 2.56836 53.2012C2.5849 53.2439 2.60123 53.2866 2.61816 53.3291C2.64435 53.3948 2.67112 53.4602 2.69824 53.5254C2.71483 53.5653 2.73209 53.6048 2.74902 53.6445C2.75968 53.6695 2.76948 53.6948 2.78027 53.7197L1.3125 54.3564L-0.154297 54.9912C-0.166057 54.9641 -0.178802 54.9374 -0.19043 54.9102C-0.602097 53.9468 -0.930246 52.9392 -1.16602 51.8965C-1.17034 51.8774 -1.17348 51.858 -1.17773 51.8389L0.381836 51.4922L1.94434 51.1445C1.94876 51.1644 1.9535 51.1842 1.95801 51.2041ZM1.59961 48C1.59961 48.2411 1.60649 48.4807 1.61816 48.7188C1.62002 48.7566 1.62285 48.7943 1.625 48.832C1.6291 48.9041 1.63254 48.9761 1.6377 49.0479C1.6411 49.0951 1.64556 49.1423 1.64941 49.1895C1.65399 49.2455 1.65787 49.3016 1.66309 49.3574L0.865234 49.4316L0.866211 49.4326L0.0703125 49.5068L-1.52148 49.6543C-1.52718 49.5932 -1.53301 49.532 -1.53809 49.4707C-1.54291 49.4125 -1.54751 49.3542 -1.55176 49.2959C-1.5672 49.0837 -1.57808 48.8705 -1.58594 48.6562C-1.59394 48.4384 -1.59961 48.2197 -1.59961 48V46.4004H1.59961V48ZM1.59961 41.0664V44.2666H-1.59961V41.0664H1.59961ZM1.59961 35.7334V38.9336H-1.59961V35.7334H1.59961ZM1.59961 30.4004V33.5996H-1.59961V30.4004H1.59961ZM1.59961 25.0664V28.2666H-1.59961V25.0664H1.59961ZM1.59961 19.7334V22.9336H-1.59961V19.7334H1.59961ZM1.59961 17.5996H-1.59961V16C-1.59961 15.7711 -1.59462 15.5433 -1.58594 15.3164C-1.57809 15.111 -1.56658 14.9066 -1.55176 14.7031C-1.54665 14.633 -1.54109 14.563 -1.53516 14.4932C-1.53095 14.4436 -1.5261 14.3942 -1.52148 14.3447L0.0703125 14.4932L0.866211 14.5674H0.865234L1.66309 14.6426C1.6596 14.6799 1.6575 14.7174 1.6543 14.7549C1.6487 14.8202 1.64242 14.8856 1.6377 14.9512C1.61282 15.2973 1.59961 15.647 1.59961 16V17.5996ZM1.3125 9.64355L2.78027 10.2803C2.77042 10.303 2.76072 10.3258 2.75098 10.3486C2.73322 10.3902 2.71562 10.4319 2.69824 10.4736C2.67112 10.5388 2.64435 10.6042 2.61816 10.6699C2.60539 10.702 2.59361 10.7344 2.58105 10.7666C2.46964 11.0521 2.36681 11.3418 2.27344 11.6357C2.25867 11.6822 2.2438 11.7287 2.22949 11.7754C2.21221 11.8318 2.19629 11.8886 2.17969 11.9453C2.16568 11.9931 2.15122 12.0408 2.1377 12.0889C2.08343 12.2816 2.03267 12.4759 1.98633 12.6719C1.97664 12.7128 1.96734 12.7539 1.95801 12.7949C1.95343 12.8151 1.94883 12.8353 1.94434 12.8555L0.381836 12.5078L-1.17773 12.1602C-1.17348 12.141 -1.17034 12.1216 -1.16602 12.1025C-0.930194 11.0599 -0.60214 10.0522 -0.19043 9.08887C-0.178801 9.06166 -0.166058 9.03495 -0.154297 9.00781L1.3125 9.64355ZM2.79785 4.36035L3.74805 5.19824L3.99805 5.41895L5.19824 6.47754C5.19159 6.48508 5.18437 6.49245 5.17773 6.5C5.12808 6.55652 5.07905 6.6136 5.03027 6.6709C5.00136 6.70485 4.97293 6.73921 4.94434 6.77344C4.89808 6.8288 4.85207 6.88437 4.80664 6.94043C4.78375 6.96867 4.76096 6.99698 4.73828 7.02539C4.68768 7.0888 4.63744 7.15252 4.58789 7.2168C4.56508 7.24639 4.54212 7.27589 4.51953 7.30566C4.47807 7.36033 4.43718 7.41544 4.39648 7.4707C4.36595 7.51217 4.33576 7.5539 4.30566 7.5957C4.27374 7.64004 4.24236 7.68478 4.21094 7.72949C4.16816 7.79035 4.12584 7.85154 4.08398 7.91309C4.07449 7.92705 4.06511 7.94108 4.05566 7.95508C4.00734 8.02667 3.95917 8.0984 3.91211 8.1709C3.88223 8.21694 3.85261 8.26317 3.82324 8.30957C3.7904 8.36145 3.75778 8.4135 3.72559 8.46582C3.71181 8.48821 3.69823 8.51073 3.68457 8.5332L3.60254 8.66992L2.22559 7.85449L0.849609 7.03809C0.865924 7.01056 0.882954 6.98348 0.899414 6.95605C1.45373 6.03232 2.08939 5.16336 2.79785 4.36035ZM7.85449 2.22559L8.66992 3.60254L8.5332 3.68457C8.51073 3.69823 8.48821 3.71181 8.46582 3.72559C8.4135 3.75778 8.36145 3.7904 8.30957 3.82324C8.26317 3.85261 8.21694 3.88223 8.1709 3.91211C8.10803 3.95292 8.04559 3.99437 7.9834 4.03613C7.95986 4.05194 7.93653 4.06804 7.91309 4.08398C7.85154 4.12584 7.79035 4.16816 7.72949 4.21094C7.68478 4.24236 7.64004 4.27374 7.5957 4.30566C7.5539 4.33576 7.51217 4.36595 7.4707 4.39648C7.41544 4.43718 7.36033 4.47807 7.30566 4.51953C7.27589 4.54212 7.24639 4.56508 7.2168 4.58789C7.15252 4.63744 7.0888 4.68768 7.02539 4.73828C6.99789 4.76023 6.97069 4.78254 6.94336 4.80469C6.88978 4.84809 6.83614 4.8914 6.7832 4.93555C6.74559 4.96692 6.70819 4.99853 6.6709 5.03027C6.6136 5.07905 6.55652 5.12808 6.5 5.17773C6.49245 5.18437 6.48508 5.19159 6.47754 5.19824L5.41895 3.99805L5.22559 3.7793L4.88965 3.39844V3.39746L4.36035 2.79785C5.16336 2.08939 6.03232 1.45373 6.95605 0.899414C6.98348 0.882954 7.01056 0.865924 7.03809 0.849609L7.85449 2.22559ZM12.5078 0.381836L12.8555 1.94434C12.8353 1.94883 12.8151 1.95343 12.7949 1.95801C12.7539 1.96734 12.7128 1.97664 12.6719 1.98633C12.5873 2.00634 12.503 2.02733 12.4189 2.04883C12.4033 2.05284 12.3877 2.05746 12.3721 2.06152C12.2773 2.08611 12.1829 2.11124 12.0889 2.1377C12.0592 2.14605 12.0296 2.15455 12 2.16309C11.9298 2.18335 11.8598 2.20429 11.79 2.22559C11.7478 2.23849 11.7052 2.25039 11.6631 2.26367C11.4665 2.32569 11.272 2.39276 11.0791 2.46289C11.0583 2.47046 11.0374 2.47769 11.0166 2.48535C10.9375 2.51454 10.8588 2.54466 10.7803 2.5752C10.7435 2.58951 10.7066 2.60355 10.6699 2.61816C10.6104 2.64191 10.5514 2.66689 10.4922 2.69141C10.4443 2.71125 10.3963 2.73064 10.3486 2.75098C10.3258 2.76072 10.303 2.77042 10.2803 2.78027L9.64355 1.3125L9.00781 -0.154297C9.03495 -0.166058 9.06166 -0.178801 9.08887 -0.19043C10.0522 -0.60214 11.0599 -0.930194 12.1025 -1.16602C12.1216 -1.17034 12.141 -1.17348 12.1602 -1.17773L12.5078 0.381836ZM16 1.59961C15.8769 1.59961 15.7541 1.60045 15.6318 1.60352C15.6146 1.60395 15.5973 1.60497 15.5801 1.60547C15.4798 1.60833 15.3799 1.61327 15.2803 1.61816C15.2333 1.62047 15.1865 1.62322 15.1396 1.62598C15.0767 1.62968 15.0139 1.63319 14.9512 1.6377C14.8895 1.64213 14.828 1.64713 14.7666 1.65234C14.7252 1.65585 14.6839 1.65923 14.6426 1.66309L14.4932 0.0703125L14.3447 -1.52148C14.4059 -1.52719 14.467 -1.53301 14.5283 -1.53809C15.0139 -1.57834 15.5047 -1.59961 16 -1.59961V1.59961ZM17.4961 -1.59961V1.59961H16V-1.59961H17.4961ZM22.4814 -1.59961V1.59961H19.4902V-1.59961H22.4814ZM27.4668 -1.59961V1.59961H24.4756V-1.59961H27.4668ZM32.4521 -1.59961V1.59961H29.4609V-1.59961H32.4521ZM37.4375 -1.59961V1.59961H34.4463V-1.59961H37.4375ZM42.4229 -1.59961V1.59961H39.4316V-1.59961H42.4229ZM47.4092 -1.59961V1.59961H44.418V-1.59961H47.4092ZM52.3945 -1.59961V1.59961H49.4033V-1.59961H52.3945ZM57.3799 -1.59961V1.59961H54.3887V-1.59961H57.3799ZM62.3652 -1.59961V1.59961H59.374V-1.59961H62.3652ZM67.3506 -1.59961V1.59961H64.3594V-1.59961H67.3506ZM72.3359 -1.59961V1.59961H69.3447V-1.59961H72.3359ZM77.3223 -1.59961V1.59961H74.3311V-1.59961H77.3223ZM82.3076 -1.59961V1.59961H79.3164V-1.59961H82.3076ZM87.293 -1.59961V1.59961H84.3018V-1.59961H87.293ZM92.2783 -1.59961V1.59961H89.2871V-1.59961H92.2783ZM97.2637 -1.59961V1.59961H94.2725V-1.59961H97.2637ZM102.249 -1.59961V1.59961H99.2578V-1.59961H102.249ZM107.235 -1.59961V1.59961H104.243V-1.59961H107.235ZM112.221 -1.59961V1.59961H109.229V-1.59961H112.221ZM117.206 -1.59961V1.59961H114.215V-1.59961H117.206ZM122.191 -1.59961V1.59961H119.2V-1.59961H122.191ZM127.177 -1.59961V1.59961H124.186V-1.59961H127.177ZM132.162 -1.59961V1.59961H129.171V-1.59961H132.162ZM137.147 -1.59961V1.59961H134.156V-1.59961H137.147ZM142.134 -1.59961V1.59961H139.143V-1.59961H142.134ZM147.119 -1.59961V1.59961H144.128V-1.59961H147.119ZM152.104 -1.59961V1.59961H149.113V-1.59961H152.104ZM157.09 -1.59961V1.59961H154.099V-1.59961H157.09ZM162.075 -1.59961V1.59961H159.084V-1.59961H162.075ZM167.061 -1.59961V1.59961H164.069V-1.59961H167.061ZM172.047 -1.59961V1.59961H169.055V-1.59961H172.047ZM177.032 -1.59961V1.59961H174.041V-1.59961H177.032ZM182.018 -1.59961V1.59961H179.026V-1.59961H182.018ZM187.003 -1.59961V1.59961H184.012V-1.59961H187.003ZM191.988 -1.59961V1.59961H188.997V-1.59961H191.988ZM196.974 -1.59961V1.59961H193.982V-1.59961H196.974ZM201.96 -1.59961V1.59961H198.968V-1.59961H201.96ZM206.945 -1.59961V1.59961H203.954V-1.59961H206.945ZM211.931 -1.59961V1.59961H208.939V-1.59961H211.931ZM216.916 -1.59961V1.59961H213.925V-1.59961H216.916ZM221.901 -1.59961V1.59961H218.91V-1.59961H221.901ZM226.887 -1.59961V1.59961H223.896V-1.59961H226.887ZM231.872 -1.59961V1.59961H228.881V-1.59961H231.872ZM236.858 -1.59961V1.59961H233.867V-1.59961H236.858ZM241.844 -1.59961V1.59961H238.853V-1.59961H241.844ZM246.829 -1.59961V1.59961H243.838V-1.59961H246.829ZM251.814 -1.59961V1.59961H248.823V-1.59961H251.814ZM256.8 -1.59961V1.59961H253.809V-1.59961H256.8ZM261.785 -1.59961V1.59961H258.794V-1.59961H261.785ZM266.771 -1.59961V1.59961H263.779V-1.59961H266.771ZM271.757 -1.59961V1.59961H268.766V-1.59961H271.757ZM276.742 -1.59961V1.59961H273.751V-1.59961H276.742ZM281.728 -1.59961V1.59961H278.736V-1.59961H281.728ZM286.713 -1.59961V1.59961H283.722V-1.59961H286.713ZM291.698 -1.59961V1.59961H288.707V-1.59961H291.698ZM296.684 -1.59961V1.59961H293.692V-1.59961H296.684ZM301.67 -1.59961V1.59961H298.679V-1.59961H301.67ZM306.655 -1.59961V1.59961H303.664V-1.59961H306.655ZM311.641 -1.59961V1.59961H308.649V-1.59961H311.641ZM316.626 -1.59961V1.59961H313.635V-1.59961H316.626ZM321.611 -1.59961V1.59961H318.62V-1.59961H321.611ZM326.597 -1.59961V1.59961H323.605V-1.59961H326.597ZM331.583 -1.59961V1.59961H328.591V-1.59961H331.583ZM336.568 -1.59961V1.59961H333.577V-1.59961H336.568ZM341.554 -1.59961V1.59961H338.562V-1.59961H341.554ZM346.539 -1.59961V1.59961H343.548V-1.59961H346.539ZM351.524 -1.59961V1.59961H348.533V-1.59961H351.524ZM356.51 -1.59961V1.59961H353.519V-1.59961H356.51ZM360 -1.59961V1.59961H358.504V-1.59961H360Z" fill="#605E68" mask="url(#path-3-inside-1_5839_13148)"/>
<g opacity="0.75">
<path d="M24.8516 38.7923L39.3828 32.5813C40.0469 32.2688 40.0469 31.3313 39.3828 31.0188L24.8516 24.8079C24.2656 24.5735 23.6797 24.9641 23.6797 25.5501V29.4173C23.6797 29.8079 23.9922 30.1594 24.3828 30.2376L36.1797 31.8001L24.3828 33.3626C23.9922 33.4407 23.6797 33.7923 23.6797 34.1829V38.0501C23.6797 38.636 24.2656 39.0266 24.8516 38.7923Z" fill="white"/>
</g>
<path d="M55.232 39V27.08H59.568C60.368 27.08 61.072 27.2293 61.68 27.528C62.2987 27.816 62.7787 28.2427 63.12 28.808C63.4613 29.3627 63.632 30.0293 63.632 30.808C63.632 31.576 63.456 32.2373 63.104 32.792C62.7627 33.3467 62.288 33.7733 61.68 34.072C61.072 34.3707 60.368 34.52 59.568 34.52H57.12V39H55.232ZM57.12 32.84H59.616C60.0427 32.84 60.416 32.7547 60.736 32.584C61.056 32.4133 61.3067 32.1787 61.488 31.88C61.6693 31.5707 61.76 31.208 61.76 30.792C61.76 30.376 61.6693 30.0187 61.488 29.72C61.3067 29.4107 61.056 29.176 60.736 29.016C60.416 28.8453 60.0427 28.76 59.616 28.76H57.12V32.84ZM65.3997 39V26.888H67.2078V39H65.3997ZM71.9136 39.192C71.327 39.192 70.8096 39.0907 70.3616 38.888C69.9243 38.6747 69.583 38.3867 69.3376 38.024C69.0923 37.6507 68.9696 37.2133 68.9696 36.712C68.9696 36.2427 69.071 35.8213 69.2736 35.448C69.487 35.0747 69.8123 34.76 70.2496 34.504C70.687 34.248 71.2363 34.0667 71.8976 33.96L74.9056 33.464V34.888L72.2496 35.352C71.7696 35.4373 71.4176 35.592 71.1936 35.816C70.9696 36.0293 70.8576 36.3067 70.8576 36.648C70.8576 36.9787 70.9803 37.2507 71.2256 37.464C71.4816 37.6667 71.807 37.768 72.2016 37.768C72.6923 37.768 73.119 37.6613 73.4816 37.448C73.855 37.2347 74.143 36.952 74.3456 36.6C74.5483 36.2373 74.6496 35.8373 74.6496 35.4V33.176C74.6496 32.7493 74.4896 32.4027 74.1696 32.136C73.8603 31.8587 73.4443 31.72 72.9216 31.72C72.4416 31.72 72.0203 31.848 71.6576 32.104C71.3056 32.3493 71.0443 32.6693 70.8736 33.064L69.3696 32.312C69.5296 31.8853 69.791 31.512 70.1536 31.192C70.5163 30.8613 70.9376 30.6053 71.4176 30.424C71.9083 30.2427 72.4256 30.152 72.9696 30.152C73.6523 30.152 74.255 30.28 74.7776 30.536C75.311 30.792 75.7216 31.1493 76.0096 31.608C76.3083 32.056 76.4576 32.5787 76.4576 33.176V39H74.7296V37.432L75.0976 37.48C74.895 37.832 74.6336 38.136 74.3136 38.392C74.0043 38.648 73.647 38.8453 73.2416 38.984C72.847 39.1227 72.4043 39.192 71.9136 39.192ZM82.1594 39.096C81.2527 39.096 80.5487 38.84 80.0474 38.328C79.546 37.816 79.2954 37.096 79.2954 36.168V31.976H77.7754V30.344H78.0154C78.4207 30.344 78.7354 30.2267 78.9594 29.992C79.1834 29.7573 79.2954 29.4373 79.2954 29.032V28.36H81.1034V30.344H83.0714V31.976H81.1034V36.088C81.1034 36.3867 81.1514 36.6427 81.2474 36.856C81.3434 37.0587 81.498 37.2187 81.7114 37.336C81.9247 37.4427 82.202 37.496 82.5434 37.496C82.6287 37.496 82.7247 37.4907 82.8314 37.48C82.938 37.4693 83.0394 37.4587 83.1354 37.448V39C82.986 39.0213 82.8207 39.0427 82.6394 39.064C82.458 39.0853 82.298 39.096 82.1594 39.096ZM85.8758 39V31.976H84.2758V30.344H85.8758V29.896C85.8758 29.2453 86.0091 28.7013 86.2758 28.264C86.5424 27.816 86.9104 27.4747 87.3798 27.24C87.8598 27.0053 88.4091 26.888 89.0278 26.888C89.1451 26.888 89.2784 26.8987 89.4278 26.92C89.5771 26.9307 89.6998 26.9467 89.7958 26.968V28.536C89.7104 28.5147 89.6144 28.504 89.5078 28.504C89.4011 28.4933 89.3158 28.488 89.2518 28.488C88.7718 28.488 88.3878 28.6 88.0998 28.824C87.8118 29.0373 87.6678 29.3947 87.6678 29.896V30.344H89.6518V31.976H87.6678V39H85.8758ZM95.1851 39.192C94.3531 39.192 93.5905 38.9947 92.8971 38.6C92.2145 38.2053 91.6705 37.6667 91.2651 36.984C90.8598 36.3013 90.6571 35.528 90.6571 34.664C90.6571 33.7893 90.8598 33.016 91.2651 32.344C91.6705 31.6613 92.2145 31.128 92.8971 30.744C93.5798 30.3493 94.3425 30.152 95.1851 30.152C96.0385 30.152 96.8011 30.3493 97.4731 30.744C98.1558 31.128 98.6945 31.6613 99.0891 32.344C99.4945 33.016 99.6971 33.7893 99.6971 34.664C99.6971 35.5387 99.4945 36.3173 99.0891 37C98.6838 37.6827 98.1398 38.2213 97.4571 38.616C96.7745 39 96.0171 39.192 95.1851 39.192ZM95.1851 37.512C95.6971 37.512 96.1505 37.3893 96.5451 37.144C96.9398 36.8987 97.2491 36.5627 97.4731 36.136C97.7078 35.6987 97.8251 35.208 97.8251 34.664C97.8251 34.12 97.7078 33.6347 97.4731 33.208C97.2491 32.7813 96.9398 32.4453 96.5451 32.2C96.1505 31.9547 95.6971 31.832 95.1851 31.832C94.6838 31.832 94.2305 31.9547 93.8251 32.2C93.4305 32.4453 93.1158 32.7813 92.8811 33.208C92.6571 33.6347 92.5451 34.12 92.5451 34.664C92.5451 35.208 92.6571 35.6987 92.8811 36.136C93.1158 36.5627 93.4305 36.8987 93.8251 37.144C94.2305 37.3893 94.6838 37.512 95.1851 37.512ZM101.462 39V30.344H103.19V32.088L103.03 31.832C103.222 31.2667 103.532 30.8613 103.958 30.616C104.385 30.36 104.897 30.232 105.494 30.232H106.022V31.88H105.27C104.673 31.88 104.188 32.0667 103.814 32.44C103.452 32.8027 103.27 33.3253 103.27 34.008V39H101.462ZM107.259 39V30.344H108.987V32.216L108.763 31.928C108.944 31.3413 109.275 30.8987 109.755 30.6C110.235 30.3013 110.784 30.152 111.403 30.152C112.096 30.152 112.71 30.3387 113.243 30.712C113.787 31.0747 114.15 31.56 114.331 32.168L113.819 32.216C114.075 31.5227 114.464 31.0053 114.987 30.664C115.52 30.3227 116.128 30.152 116.811 30.152C117.408 30.152 117.947 30.2907 118.427 30.568C118.918 30.8453 119.307 31.2293 119.595 31.72C119.883 32.2107 120.027 32.7707 120.027 33.4V39H118.219V33.896C118.219 33.4587 118.139 33.0907 117.979 32.792C117.83 32.4827 117.616 32.248 117.339 32.088C117.072 31.9173 116.758 31.832 116.395 31.832C116.032 31.832 115.712 31.9173 115.435 32.088C115.158 32.248 114.939 32.4827 114.779 32.792C114.619 33.1013 114.539 33.4693 114.539 33.896V39H112.747V33.896C112.747 33.4587 112.667 33.0907 112.507 32.792C112.358 32.4827 112.144 32.248 111.867 32.088C111.6 31.9173 111.28 31.832 110.907 31.832C110.544 31.832 110.224 31.9173 109.947 32.088C109.67 32.248 109.451 32.4827 109.291 32.792C109.142 33.1013 109.067 33.4693 109.067 33.896V39H107.259ZM130.487 39.192C129.644 39.192 128.86 39.0373 128.135 38.728C127.42 38.4187 126.796 37.992 126.263 37.448C125.74 36.8933 125.33 36.2427 125.031 35.496C124.732 34.7493 124.583 33.928 124.583 33.032C124.583 32.1467 124.727 31.3307 125.015 30.584C125.314 29.8267 125.73 29.176 126.263 28.632C126.796 28.0773 127.42 27.6507 128.135 27.352C128.85 27.0427 129.634 26.888 130.487 26.888C131.33 26.888 132.082 27.032 132.743 27.32C133.415 27.608 133.98 27.9867 134.439 28.456C134.898 28.9147 135.228 29.416 135.431 29.96L133.735 30.76C133.479 30.12 133.068 29.6027 132.503 29.208C131.948 28.8027 131.276 28.6 130.487 28.6C129.698 28.6 128.999 28.7867 128.391 29.16C127.783 29.5333 127.308 30.0507 126.967 30.712C126.636 31.3733 126.471 32.1467 126.471 33.032C126.471 33.9173 126.636 34.696 126.967 35.368C127.308 36.0293 127.783 36.5467 128.391 36.92C128.999 37.2827 129.698 37.464 130.487 37.464C131.276 37.464 131.948 37.2667 132.503 36.872C133.068 36.4773 133.479 35.96 133.735 35.32L135.431 36.12C135.228 36.6533 134.898 37.1547 134.439 37.624C133.98 38.0933 133.415 38.472 132.743 38.76C132.082 39.048 131.33 39.192 130.487 39.192ZM141.216 39.192C140.384 39.192 139.622 38.9947 138.928 38.6C138.246 38.2053 137.702 37.6667 137.296 36.984C136.891 36.3013 136.688 35.528 136.688 34.664C136.688 33.7893 136.891 33.016 137.296 32.344C137.702 31.6613 138.246 31.128 138.928 30.744C139.611 30.3493 140.374 30.152 141.216 30.152C142.07 30.152 142.832 30.3493 143.504 30.744C144.187 31.128 144.726 31.6613 145.12 32.344C145.526 33.016 145.728 33.7893 145.728 34.664C145.728 35.5387 145.526 36.3173 145.12 37C144.715 37.6827 144.171 38.2213 143.488 38.616C142.806 39 142.048 39.192 141.216 39.192ZM141.216 37.512C141.728 37.512 142.182 37.3893 142.576 37.144C142.971 36.8987 143.28 36.5627 143.504 36.136C143.739 35.6987 143.856 35.208 143.856 34.664C143.856 34.12 143.739 33.6347 143.504 33.208C143.28 32.7813 142.971 32.4453 142.576 32.2C142.182 31.9547 141.728 31.832 141.216 31.832C140.715 31.832 140.262 31.9547 139.856 32.2C139.462 32.4453 139.147 32.7813 138.912 33.208C138.688 33.6347 138.576 34.12 138.576 34.664C138.576 35.208 138.688 35.6987 138.912 36.136C139.147 36.5627 139.462 36.8987 139.856 37.144C140.262 37.3893 140.715 37.512 141.216 37.512ZM149.849 39L146.457 30.344H148.425L151.033 37.4H150.313L152.921 30.344H154.905L151.497 39H149.849ZM160.042 39.192C159.178 39.192 158.41 38.9947 157.738 38.6C157.077 38.1947 156.559 37.6507 156.186 36.968C155.813 36.2747 155.626 35.5013 155.626 34.648C155.626 33.7733 155.813 33 156.186 32.328C156.57 31.656 157.082 31.128 157.722 30.744C158.362 30.3493 159.087 30.152 159.898 30.152C160.549 30.152 161.13 30.264 161.642 30.488C162.154 30.712 162.586 31.0213 162.938 31.416C163.29 31.8 163.557 32.2427 163.738 32.744C163.93 33.2453 164.026 33.7787 164.026 34.344C164.026 34.4827 164.021 34.6267 164.01 34.776C163.999 34.9253 163.978 35.064 163.946 35.192H157.05V33.752H162.922L162.058 34.408C162.165 33.8853 162.127 33.4213 161.946 33.016C161.775 32.6 161.509 32.2747 161.146 32.04C160.794 31.7947 160.378 31.672 159.898 31.672C159.418 31.672 158.991 31.7947 158.618 32.04C158.245 32.2747 157.957 32.616 157.754 33.064C157.551 33.5013 157.471 34.0347 157.514 34.664C157.461 35.2507 157.541 35.7627 157.754 36.2C157.978 36.6373 158.287 36.9787 158.682 37.224C159.087 37.4693 159.546 37.592 160.058 37.592C160.581 37.592 161.023 37.4747 161.386 37.24C161.759 37.0053 162.053 36.7013 162.266 36.328L163.738 37.048C163.567 37.4533 163.301 37.8213 162.938 38.152C162.586 38.472 162.159 38.728 161.658 38.92C161.167 39.1013 160.629 39.192 160.042 39.192ZM165.79 39V30.344H167.518V32.088L167.358 31.832C167.55 31.2667 167.86 30.8613 168.286 30.616C168.713 30.36 169.225 30.232 169.822 30.232H170.35V31.88H169.598C169.001 31.88 168.516 32.0667 168.142 32.44C167.78 32.8027 167.598 33.3253 167.598 34.008V39H165.79ZM174.179 39.192C173.593 39.192 173.075 39.0907 172.627 38.888C172.19 38.6747 171.849 38.3867 171.603 38.024C171.358 37.6507 171.235 37.2133 171.235 36.712C171.235 36.2427 171.337 35.8213 171.539 35.448C171.753 35.0747 172.078 34.76 172.515 34.504C172.953 34.248 173.502 34.0667 174.163 33.96L177.171 33.464V34.888L174.515 35.352C174.035 35.4373 173.683 35.592 173.459 35.816C173.235 36.0293 173.123 36.3067 173.123 36.648C173.123 36.9787 173.246 37.2507 173.491 37.464C173.747 37.6667 174.073 37.768 174.467 37.768C174.958 37.768 175.385 37.6613 175.747 37.448C176.121 37.2347 176.409 36.952 176.611 36.6C176.814 36.2373 176.915 35.8373 176.915 35.4V33.176C176.915 32.7493 176.755 32.4027 176.435 32.136C176.126 31.8587 175.71 31.72 175.187 31.72C174.707 31.72 174.286 31.848 173.923 32.104C173.571 32.3493 173.31 32.6693 173.139 33.064L171.635 32.312C171.795 31.8853 172.057 31.512 172.419 31.192C172.782 30.8613 173.203 30.6053 173.683 30.424C174.174 30.2427 174.691 30.152 175.235 30.152C175.918 30.152 176.521 30.28 177.043 30.536C177.577 30.792 177.987 31.1493 178.275 31.608C178.574 32.056 178.723 32.5787 178.723 33.176V39H176.995V37.432L177.363 37.48C177.161 37.832 176.899 38.136 176.579 38.392C176.27 38.648 175.913 38.8453 175.507 38.984C175.113 39.1227 174.67 39.192 174.179 39.192ZM185.013 42.52C184.384 42.52 183.803 42.4187 183.269 42.216C182.736 42.0133 182.277 41.7307 181.893 41.368C181.509 41.016 181.221 40.6 181.029 40.12L182.693 39.432C182.843 39.8373 183.115 40.1733 183.509 40.44C183.915 40.7067 184.411 40.84 184.997 40.84C185.456 40.84 185.867 40.7493 186.229 40.568C186.592 40.3973 186.88 40.1413 187.093 39.8C187.307 39.4693 187.413 39.0693 187.413 38.6V36.648L187.733 37.016C187.435 37.5707 187.019 37.992 186.485 38.28C185.963 38.568 185.371 38.712 184.709 38.712C183.909 38.712 183.189 38.5253 182.549 38.152C181.909 37.7787 181.403 37.2667 181.029 36.616C180.667 35.9653 180.485 35.2347 180.485 34.424C180.485 33.6027 180.667 32.872 181.029 32.232C181.403 31.592 181.904 31.0853 182.533 30.712C183.163 30.3387 183.883 30.152 184.693 30.152C185.355 30.152 185.941 30.296 186.453 30.584C186.976 30.8613 187.403 31.2667 187.733 31.8L187.493 32.248V30.344H189.205V38.6C189.205 39.3467 189.024 40.0133 188.661 40.6C188.309 41.1973 187.819 41.6667 187.189 42.008C186.56 42.3493 185.835 42.52 185.013 42.52ZM184.917 37.032C185.397 37.032 185.824 36.92 186.197 36.696C186.571 36.4613 186.864 36.152 187.077 35.768C187.301 35.3733 187.413 34.9307 187.413 34.44C187.413 33.9493 187.301 33.5067 187.077 33.112C186.853 32.7173 186.555 32.408 186.181 32.184C185.808 31.9493 185.387 31.832 184.917 31.832C184.427 31.832 183.989 31.9493 183.605 32.184C183.221 32.408 182.917 32.7173 182.693 33.112C182.48 33.496 182.373 33.9387 182.373 34.44C182.373 34.92 182.48 35.3573 182.693 35.752C182.917 36.1467 183.221 36.4613 183.605 36.696C183.989 36.92 184.427 37.032 184.917 37.032ZM195.386 39.192C194.522 39.192 193.754 38.9947 193.082 38.6C192.42 38.1947 191.903 37.6507 191.53 36.968C191.156 36.2747 190.97 35.5013 190.97 34.648C190.97 33.7733 191.156 33 191.53 32.328C191.914 31.656 192.426 31.128 193.066 30.744C193.706 30.3493 194.431 30.152 195.242 30.152C195.892 30.152 196.474 30.264 196.986 30.488C197.498 30.712 197.93 31.0213 198.282 31.416C198.634 31.8 198.9 32.2427 199.082 32.744C199.274 33.2453 199.37 33.7787 199.37 34.344C199.37 34.4827 199.364 34.6267 199.354 34.776C199.343 34.9253 199.322 35.064 199.29 35.192H192.394V33.752H198.266L197.402 34.408C197.508 33.8853 197.471 33.4213 197.29 33.016C197.119 32.6 196.852 32.2747 196.49 32.04C196.138 31.7947 195.722 31.672 195.242 31.672C194.762 31.672 194.335 31.7947 193.962 32.04C193.588 32.2747 193.3 32.616 193.098 33.064C192.895 33.5013 192.815 34.0347 192.858 34.664C192.804 35.2507 192.884 35.7627 193.098 36.2C193.322 36.6373 193.631 36.9787 194.026 37.224C194.431 37.4693 194.89 37.592 195.402 37.592C195.924 37.592 196.367 37.4747 196.73 37.24C197.103 37.0053 197.396 36.7013 197.61 36.328L199.082 37.048C198.911 37.4533 198.644 37.8213 198.282 38.152C197.93 38.472 197.503 38.728 197.002 38.92C196.511 39.1013 195.972 39.192 195.386 39.192Z" fill="white"/>
<mask id="path-7-inside-2_5839_13148" fill="white">
<path d="M0 16C0 7.16344 7.16344 0 16 0H884C892.837 0 900 7.16344 900 16V48C900 56.8366 892.837 64 884 64H16C7.16346 64 0 56.8366 0 48V16Z"/>
</mask>
<path d="M16 0V1H884V0V-1H16V0ZM900 16H899V48H900H901V16H900ZM884 64V63H16V64V65H884V64ZM0 48H1V16H0H-1V48H0ZM16 64V63C7.71575 63 1 56.2843 1 48H0H-1C-1 57.3888 6.61118 65 16 65V64ZM900 48H899C899 56.2843 892.284 63 884 63V64V65C893.389 65 901 57.3888 901 48H900ZM884 0V1C892.284 1 899 7.71573 899 16H900H901C901 6.61116 893.389 -1 884 -1V0ZM16 0V-1C6.61116 -1 -1 6.61116 -1 16H0H1C1 7.71573 7.71573 1 16 1V0Z" fill="white" mask="url(#path-7-inside-2_5839_13148)"/>
<path d="M360 -23H909C917.837 -23 925 -15.8366 925 -7V71C925 79.8366 917.837 87 909 87H360V-23Z" fill="url(#paint2_radial_5839_13148)"/>
</g>
<defs>
<radialGradient id="paint0_radial_5839_13148" cx="0" cy="0" r="1" gradientUnits="userSpaceOnUse" gradientTransform="translate(450 11.52) scale(738 52.48)">
<stop stop-color="white"/>
<stop offset="1" stop-color="white"/>
</radialGradient>
<radialGradient id="paint1_radial_5839_13148" cx="0" cy="0" r="1" gradientUnits="userSpaceOnUse" gradientTransform="translate(180 11.52) scale(295.2 52.48)">
<stop stop-color="#3D3B34"/>
<stop offset="1" stop-color="#332E2C"/>
</radialGradient>
<radialGradient id="paint2_radial_5839_13148" cx="0" cy="0" r="1" gradientUnits="userSpaceOnUse" gradientTransform="translate(642.5 -3.2) scale(463.3 90.2)">
<stop stop-color="#1FA8CA" stop-opacity="0.32"/>
<stop offset="1" stop-color="#1FA8CA"/>
</radialGradient>
<clipPath id="clip0_5839_13148">
<rect width="900" height="64" rx="16" fill="white"/>
</clipPath>
</defs>
</svg>
