<svg width="900" height="64" viewBox="0 0 900 64" fill="none" xmlns="http://www.w3.org/2000/svg">
<g clip-path="url(#clip0_5743_6959)">
<rect width="900" height="64" rx="16" fill="url(#paint0_radial_5743_6959)"/>
<path d="M239 0H719C727.837 0 735 7.16344 735 16V48C735 56.8366 727.837 64 719 64H239V0Z" fill="url(#paint1_radial_5743_6959)"/>
<mask id="path-3-inside-1_5743_6959" fill="white">
<path d="M0 16C0 7.16344 7.16344 0 16 0H884C892.837 0 900 7.16344 900 16V48C900 56.8366 892.837 64 884 64H16C7.16346 64 0 56.8366 0 48V16Z"/>
</mask>
<path d="M16 0V1H884V0V-1H16V0ZM900 16H899V48H900H901V16H900ZM884 64V63H16V64V65H884V64ZM0 48H1V16H0H-1V48H0ZM16 64V63C7.71575 63 1 56.2843 1 48H0H-1C-1 57.3888 6.61118 65 16 65V64ZM900 48H899C899 56.2843 892.284 63 884 63V64V65C893.389 65 901 57.3888 901 48H900ZM884 0V1C892.284 1 899 7.71573 899 16H900H901C901 6.61116 893.389 -1 884 -1V0ZM16 0V-1C6.61116 -1 -1 6.61116 -1 16H0H1C1 7.71573 7.71573 1 16 1V0Z" fill="white" mask="url(#path-3-inside-1_5743_6959)"/>
<path d="M370 16C370 7.16344 362.837 0 354 0H-131V64H354C362.837 64 370 56.8366 370 48V16Z" fill="url(#paint2_radial_5743_6959)"/>
<mask id="path-6-inside-2_5743_6959" fill="white">
<path d="M370 16C370 7.16344 362.837 0 354 0H-131V64H354C362.837 64 370 56.8366 370 48V16Z"/>
</mask>
<path d="M355.233 62.3467C355.172 62.3519 355.11 62.3569 355.049 62.3613C354.986 62.3658 354.923 62.3693 354.86 62.373C354.814 62.3758 354.767 62.3785 354.72 62.3809C354.62 62.3858 354.52 62.3907 354.42 62.3936C354.403 62.394 354.385 62.3951 354.368 62.3955C354.246 62.3986 354.123 62.4004 354 62.4004V65.5996C354.495 65.5996 354.986 65.5783 355.472 65.5381C355.533 65.533 355.594 65.5272 355.655 65.5215L355.507 63.9297L355.474 63.5732L355.357 62.3369C355.316 62.3408 355.275 62.3432 355.233 62.3467ZM352.5 62.4004V65.5996H354V62.4004H352.5ZM347.5 62.4004V65.5996H350.5V62.4004H347.5ZM342.5 62.4004V65.5996H345.5V62.4004H342.5ZM337.5 62.4004V65.5996H340.5V62.4004H337.5ZM332.5 62.4004V65.5996H335.5V62.4004H332.5ZM327.5 62.4004V65.5996H330.5V62.4004H327.5ZM322.5 62.4004V65.5996H325.5V62.4004H322.5ZM317.5 62.4004V65.5996H320.5V62.4004H317.5ZM312.5 62.4004V65.5996H315.5V62.4004H312.5ZM307.5 62.4004V65.5996H310.5V62.4004H307.5ZM302.5 62.4004V65.5996H305.5V62.4004H302.5ZM297.5 62.4004V65.5996H300.5V62.4004H297.5ZM292.5 62.4004V65.5996H295.5V62.4004H292.5ZM287.5 62.4004V65.5996H290.5V62.4004H287.5ZM282.5 62.4004V65.5996H285.5V62.4004H282.5ZM277.5 62.4004V65.5996H280.5V62.4004H277.5ZM272.5 62.4004V65.5996H275.5V62.4004H272.5ZM267.5 62.4004V65.5996H270.5V62.4004H267.5ZM262.5 62.4004V65.5996H265.5V62.4004H262.5ZM257.5 62.4004V65.5996H260.5V62.4004H257.5ZM252.5 62.4004V65.5996H255.5V62.4004H252.5ZM247.5 62.4004V65.5996H250.5V62.4004H247.5ZM242.5 62.4004V65.5996H245.5V62.4004H242.5ZM237.5 62.4004V65.5996H240.5V62.4004H237.5ZM232.5 62.4004V65.5996H235.5V62.4004H232.5ZM227.5 62.4004V65.5996H230.5V62.4004H227.5ZM222.5 62.4004V65.5996H225.5V62.4004H222.5ZM217.5 62.4004V65.5996H220.5V62.4004H217.5ZM212.5 62.4004V65.5996H215.5V62.4004H212.5ZM207.5 62.4004V65.5996H210.5V62.4004H207.5ZM202.5 62.4004V65.5996H205.5V62.4004H202.5ZM197.5 62.4004V65.5996H200.5V62.4004H197.5ZM192.5 62.4004V65.5996H195.5V62.4004H192.5ZM187.5 62.4004V65.5996H190.5V62.4004H187.5ZM182.5 62.4004V65.5996H185.5V62.4004H182.5ZM177.5 62.4004V65.5996H180.5V62.4004H177.5ZM172.5 62.4004V65.5996H175.5V62.4004H172.5ZM167.5 62.4004V65.5996H170.5V62.4004H167.5ZM162.5 62.4004V65.5996H165.5V62.4004H162.5ZM157.5 62.4004V65.5996H160.5V62.4004H157.5ZM152.5 62.4004V65.5996H155.5V62.4004H152.5ZM147.5 62.4004V65.5996H150.5V62.4004H147.5ZM142.5 62.4004V65.5996H145.5V62.4004H142.5ZM137.5 62.4004V65.5996H140.5V62.4004H137.5ZM132.5 62.4004V65.5996H135.5V62.4004H132.5ZM127.5 62.4004V65.5996H130.5V62.4004H127.5ZM122.5 62.4004V65.5996H125.5V62.4004H122.5ZM117.5 62.4004V65.5996H120.5V62.4004H117.5ZM112.5 62.4004V65.5996H115.5V62.4004H112.5ZM107.5 62.4004V65.5996H110.5V62.4004H107.5ZM102.5 62.4004V65.5996H105.5V62.4004H102.5ZM97.5 62.4004V65.5996H100.5V62.4004H97.5ZM92.5 62.4004V65.5996H95.5V62.4004H92.5ZM87.5 62.4004V65.5996H90.5V62.4004H87.5ZM82.5 62.4004V65.5996H85.5V62.4004H82.5ZM77.5 62.4004V65.5996H80.5V62.4004H77.5ZM72.5 62.4004V65.5996H75.5V62.4004H72.5ZM67.5 62.4004V65.5996H70.5V62.4004H67.5ZM62.5 62.4004V65.5996H65.5V62.4004H62.5ZM57.5 62.4004V65.5996H60.5V62.4004H57.5ZM52.5 62.4004V65.5996H55.5V62.4004H52.5ZM47.5 62.4004V65.5996H50.5V62.4004H47.5ZM42.5 62.4004V65.5996H45.5V62.4004H42.5ZM37.5 62.4004V65.5996H40.5V62.4004H37.5ZM32.5 62.4004V65.5996H35.5V62.4004H32.5ZM27.5 62.4004V65.5996H30.5V62.4004H27.5ZM22.5 62.4004V65.5996H25.5V62.4004H22.5ZM17.5 62.4004V65.5996H20.5V62.4004H17.5ZM12.5 62.4004V65.5996H15.5V62.4004H12.5ZM7.5 62.4004V65.5996H10.5V62.4004H7.5ZM2.5 62.4004V65.5996H5.5V62.4004H2.5ZM-2.5 62.4004V65.5996H0.5V62.4004H-2.5ZM-7.5 62.4004V65.5996H-4.5V62.4004H-7.5ZM-12.5 62.4004V65.5996H-9.5V62.4004H-12.5ZM-17.5 62.4004V65.5996H-14.5V62.4004H-17.5ZM-22.5 62.4004V65.5996H-19.5V62.4004H-22.5ZM-27.5 62.4004V65.5996H-24.5V62.4004H-27.5ZM-32.5 62.4004V65.5996H-29.5V62.4004H-32.5ZM-37.5 62.4004V65.5996H-34.5V62.4004H-37.5ZM-42.5 62.4004V65.5996H-39.5V62.4004H-42.5ZM-47.5 62.4004V65.5996H-44.5V62.4004H-47.5ZM-52.5 62.4004V65.5996H-49.5V62.4004H-52.5ZM-57.5 62.4004V65.5996H-54.5V62.4004H-57.5ZM-62.5 62.4004V65.5996H-59.5V62.4004H-62.5ZM-67.5 62.4004V65.5996H-64.5V62.4004H-67.5ZM-72.5 62.4004V65.5996H-69.5V62.4004H-72.5ZM-77.5 62.4004V65.5996H-74.5V62.4004H-77.5ZM-82.5 62.4004V65.5996H-79.5V62.4004H-82.5ZM-87.5 62.4004V65.5996H-84.5V62.4004H-87.5ZM-92.5 62.4004V65.5996H-89.5V62.4004H-92.5ZM-97.5 62.4004V65.5996H-94.5V62.4004H-97.5ZM-102.5 62.4004V65.5996H-99.5V62.4004H-102.5ZM-107.5 62.4004V65.5996H-104.5V62.4004H-107.5ZM-112.5 62.4004V65.5996H-109.5V62.4004H-112.5ZM-117.5 62.4004V65.5996H-114.5V62.4004H-117.5ZM-122.5 62.4004V65.5996H-119.5V62.4004H-122.5ZM-127.5 62.4004V65.5996H-124.5V62.4004H-127.5ZM-131 62.4004V65.5996H-129.5V62.4004H-131ZM359.651 61.248C359.61 61.2658 359.568 61.2834 359.526 61.3008C359.461 61.3279 359.396 61.3547 359.33 61.3809C359.293 61.3955 359.257 61.4095 359.22 61.4238C359.141 61.4544 359.063 61.4845 358.983 61.5137C358.963 61.5213 358.942 61.5286 358.921 61.5361C358.728 61.6063 358.534 61.6733 358.337 61.7354C358.3 61.7471 358.262 61.7581 358.225 61.7695C358.15 61.7924 358.075 61.8143 358 61.8359C357.97 61.8445 357.941 61.853 357.911 61.8613C357.817 61.8878 357.723 61.9129 357.628 61.9375C357.612 61.9416 357.597 61.9462 357.581 61.9502C357.497 61.9717 357.413 61.9927 357.328 62.0127C357.287 62.0224 357.246 62.0317 357.205 62.041C357.185 62.0456 357.165 62.0512 357.145 62.0557L357.492 63.6182L357.84 65.1777C357.859 65.1735 357.878 65.1703 357.897 65.166C358.94 64.9302 359.948 64.6021 360.911 64.1904C360.938 64.1788 360.965 64.1661 360.992 64.1543L360.356 62.6875L359.72 61.2197C359.697 61.2295 359.674 61.2384 359.651 61.248ZM363.511 58.8115C363.451 58.8644 363.39 58.9168 363.329 58.9688C363.292 59.0005 363.254 59.0321 363.217 59.0635C363.165 59.1069 363.112 59.1497 363.06 59.1924C363.031 59.2153 363.003 59.2381 362.975 59.2607C362.915 59.3083 362.855 59.3557 362.795 59.4023C362.761 59.4282 362.728 59.4539 362.694 59.4795C362.64 59.521 362.585 59.5618 362.529 59.6025C362.488 59.6331 362.446 59.6633 362.404 59.6934C362.36 59.7253 362.315 59.7567 362.271 59.7881C362.21 59.8309 362.148 59.8732 362.087 59.915C362.063 59.931 362.04 59.9471 362.017 59.9629C361.957 60.0032 361.897 60.0436 361.836 60.083C361.788 60.1143 361.739 60.145 361.69 60.1758C361.639 60.2086 361.587 60.2412 361.534 60.2734C361.491 60.3001 361.447 60.3263 361.403 60.3525C361.379 60.3673 361.355 60.3829 361.33 60.3975L362.146 61.7744L362.962 63.1494C362.989 63.1331 363.017 63.1161 363.044 63.0996C363.968 62.5453 364.837 61.9096 365.64 61.2012L364.581 60.002L364.173 59.5391L363.522 58.8018C363.519 58.8051 363.514 58.8082 363.511 58.8115ZM366.354 55.4023C366.327 55.4461 366.301 55.4898 366.274 55.5332C366.242 55.5855 366.21 55.6376 366.177 55.6895C366.147 55.7359 366.118 55.7821 366.088 55.8281C366.048 55.89 366.007 55.9515 365.966 56.0127C365.949 56.0372 365.933 56.0615 365.916 56.0859C365.874 56.1475 365.832 56.2087 365.789 56.2695C365.761 56.3097 365.733 56.3498 365.704 56.3896C365.671 56.436 365.637 56.4823 365.604 56.5283C365.563 56.5836 365.522 56.6387 365.48 56.6934C365.463 56.7159 365.446 56.7383 365.429 56.7607C365.377 56.8283 365.324 56.8953 365.271 56.9619C365.246 56.9943 365.219 57.0264 365.193 57.0586C365.151 57.1113 365.108 57.1638 365.064 57.2158C365.036 57.2495 365.008 57.283 364.979 57.3164C364.931 57.3734 364.882 57.4301 364.833 57.4863C364.823 57.4982 364.812 57.5106 364.802 57.5225L366.002 58.5811L366.602 59.1104L366.603 59.1094L367.202 59.6387C367.911 58.8356 368.546 57.9668 369.101 57.043C369.117 57.0155 369.134 56.9885 369.15 56.9609L367.774 56.1455L366.397 55.3301C366.383 55.3543 366.368 55.3782 366.354 55.4023ZM368.042 51.2041C368.033 51.2423 368.024 51.2803 368.015 51.3184C367.968 51.5172 367.917 51.7146 367.862 51.9102C367.856 51.9317 367.85 51.9531 367.844 51.9746C367.82 52.0579 367.796 52.141 367.771 52.2236C367.759 52.2611 367.748 52.2986 367.736 52.3359C367.644 52.6286 367.542 52.9169 367.432 53.2012C367.415 53.2439 367.399 53.2866 367.382 53.3291C367.356 53.3948 367.329 53.4602 367.302 53.5254C367.285 53.5653 367.268 53.6048 367.251 53.6445C367.24 53.6695 367.231 53.6948 367.22 53.7197L368.688 54.3564L370.154 54.9912C370.166 54.9641 370.179 54.9374 370.19 54.9102C370.602 53.9468 370.93 52.9392 371.166 51.8965C371.17 51.8774 371.173 51.858 371.178 51.8389L369.618 51.4922L368.056 51.1445C368.051 51.1644 368.047 51.1842 368.042 51.2041ZM368.4 48C368.4 48.2411 368.394 48.4807 368.382 48.7188C368.38 48.7566 368.377 48.7943 368.375 48.832C368.371 48.9041 368.367 48.9761 368.362 49.0479C368.359 49.0951 368.354 49.1423 368.351 49.1895C368.346 49.2455 368.342 49.3016 368.337 49.3574L369.135 49.4316L369.134 49.4326L369.93 49.5068L371.521 49.6543C371.527 49.5932 371.533 49.532 371.538 49.4707C371.543 49.4125 371.548 49.3542 371.552 49.2959C371.567 49.0837 371.578 48.8705 371.586 48.6562C371.594 48.4384 371.6 48.2197 371.6 48V46.4004H368.4V48ZM368.4 41.0664V44.2666H371.6V41.0664H368.4ZM368.4 35.7334V38.9336H371.6V35.7334H368.4ZM368.4 30.4004V33.5996H371.6V30.4004H368.4ZM368.4 25.0664V28.2666H371.6V25.0664H368.4ZM368.4 19.7334V22.9336H371.6V19.7334H368.4ZM368.4 17.5996H371.6V16C371.6 15.7711 371.595 15.5433 371.586 15.3164C371.578 15.111 371.567 14.9066 371.552 14.7031C371.547 14.633 371.541 14.563 371.535 14.4932C371.531 14.4436 371.526 14.3942 371.521 14.3447L369.93 14.4932L369.134 14.5674H369.135L368.337 14.6426C368.34 14.6799 368.343 14.7174 368.346 14.7549C368.351 14.8202 368.358 14.8856 368.362 14.9512C368.387 15.2973 368.4 15.647 368.4 16V17.5996ZM368.688 9.64355L367.22 10.2803C367.23 10.303 367.239 10.3258 367.249 10.3486C367.267 10.3902 367.284 10.4319 367.302 10.4736C367.329 10.5388 367.356 10.6042 367.382 10.6699C367.395 10.702 367.406 10.7344 367.419 10.7666C367.53 11.0521 367.633 11.3418 367.727 11.6357C367.741 11.6822 367.756 11.7287 367.771 11.7754C367.788 11.8318 367.804 11.8886 367.82 11.9453C367.834 11.9931 367.849 12.0408 367.862 12.0889C367.917 12.2816 367.967 12.4759 368.014 12.6719C368.023 12.7128 368.033 12.7539 368.042 12.7949C368.047 12.8151 368.051 12.8353 368.056 12.8555L369.618 12.5078L371.178 12.1602C371.173 12.141 371.17 12.1216 371.166 12.1025C370.93 11.0599 370.602 10.0522 370.19 9.08887C370.179 9.06166 370.166 9.03495 370.154 9.00781L368.688 9.64355ZM367.202 4.36035L366.252 5.19824L366.002 5.41895L364.802 6.47754C364.808 6.48508 364.816 6.49245 364.822 6.5C364.872 6.55652 364.921 6.6136 364.97 6.6709C364.999 6.70485 365.027 6.73921 365.056 6.77344C365.102 6.8288 365.148 6.88437 365.193 6.94043C365.216 6.96867 365.239 6.99698 365.262 7.02539C365.312 7.0888 365.363 7.15252 365.412 7.2168C365.435 7.24639 365.458 7.27589 365.48 7.30566C365.522 7.36033 365.563 7.41544 365.604 7.4707C365.634 7.51217 365.664 7.5539 365.694 7.5957C365.726 7.64004 365.758 7.68478 365.789 7.72949C365.832 7.79035 365.874 7.85154 365.916 7.91309C365.926 7.92705 365.935 7.94108 365.944 7.95508C365.993 8.02667 366.041 8.0984 366.088 8.1709C366.118 8.21694 366.147 8.26317 366.177 8.30957C366.21 8.36145 366.242 8.4135 366.274 8.46582C366.288 8.48821 366.302 8.51073 366.315 8.5332L366.397 8.66992L367.774 7.85449L369.15 7.03809C369.134 7.01056 369.117 6.98348 369.101 6.95605C368.546 6.03232 367.911 5.16336 367.202 4.36035ZM362.146 2.22559L361.33 3.60254L361.467 3.68457C361.489 3.69823 361.512 3.71181 361.534 3.72559C361.587 3.75778 361.639 3.7904 361.69 3.82324C361.737 3.85261 361.783 3.88223 361.829 3.91211C361.892 3.95292 361.954 3.99437 362.017 4.03613C362.04 4.05194 362.063 4.06804 362.087 4.08398C362.148 4.12584 362.21 4.16816 362.271 4.21094C362.315 4.24236 362.36 4.27374 362.404 4.30566C362.446 4.33576 362.488 4.36595 362.529 4.39648C362.585 4.43718 362.64 4.47807 362.694 4.51953C362.724 4.54212 362.754 4.56508 362.783 4.58789C362.847 4.63744 362.911 4.68768 362.975 4.73828C363.002 4.76023 363.029 4.78254 363.057 4.80469C363.11 4.84809 363.164 4.8914 363.217 4.93555C363.254 4.96692 363.292 4.99853 363.329 5.03027C363.386 5.07905 363.443 5.12808 363.5 5.17773C363.508 5.18437 363.515 5.19159 363.522 5.19824L364.581 3.99805L364.774 3.7793L365.11 3.39844V3.39746L365.64 2.79785C364.837 2.08939 363.968 1.45373 363.044 0.899414C363.017 0.882954 362.989 0.865924 362.962 0.849609L362.146 2.22559ZM357.492 0.381836L357.145 1.94434C357.165 1.94883 357.185 1.95343 357.205 1.95801C357.246 1.96734 357.287 1.97664 357.328 1.98633C357.413 2.00634 357.497 2.02733 357.581 2.04883C357.597 2.05284 357.612 2.05746 357.628 2.06152C357.723 2.08611 357.817 2.11124 357.911 2.1377C357.941 2.14605 357.97 2.15455 358 2.16309C358.07 2.18335 358.14 2.20429 358.21 2.22559C358.252 2.23849 358.295 2.25039 358.337 2.26367C358.534 2.32569 358.728 2.39276 358.921 2.46289C358.942 2.47046 358.963 2.47769 358.983 2.48535C359.063 2.51454 359.141 2.54466 359.22 2.5752C359.257 2.58951 359.293 2.60355 359.33 2.61816C359.39 2.64191 359.449 2.66689 359.508 2.69141C359.556 2.71125 359.604 2.73064 359.651 2.75098C359.674 2.76072 359.697 2.77042 359.72 2.78027L360.356 1.3125L360.992 -0.154297C360.965 -0.166058 360.938 -0.178801 360.911 -0.19043C359.948 -0.60214 358.94 -0.930194 357.897 -1.16602C357.878 -1.17034 357.859 -1.17348 357.84 -1.17773L357.492 0.381836ZM354 1.59961C354.123 1.59961 354.246 1.60045 354.368 1.60352C354.385 1.60395 354.403 1.60497 354.42 1.60547C354.52 1.60833 354.62 1.61327 354.72 1.61816C354.767 1.62047 354.814 1.62322 354.86 1.62598C354.923 1.62968 354.986 1.63319 355.049 1.6377C355.11 1.64213 355.172 1.64713 355.233 1.65234C355.275 1.65585 355.316 1.65923 355.357 1.66309L355.507 0.0703125L355.655 -1.52148C355.594 -1.52719 355.533 -1.53301 355.472 -1.53809C354.986 -1.57834 354.495 -1.59961 354 -1.59961V1.59961ZM352.5 -1.59961V1.59961H354V-1.59961H352.5ZM347.5 -1.59961V1.59961H350.5V-1.59961H347.5ZM342.5 -1.59961V1.59961H345.5V-1.59961H342.5ZM337.5 -1.59961V1.59961H340.5V-1.59961H337.5ZM332.5 -1.59961V1.59961H335.5V-1.59961H332.5ZM327.5 -1.59961V1.59961H330.5V-1.59961H327.5ZM322.5 -1.59961V1.59961H325.5V-1.59961H322.5ZM317.5 -1.59961V1.59961H320.5V-1.59961H317.5ZM312.5 -1.59961V1.59961H315.5V-1.59961H312.5ZM307.5 -1.59961V1.59961H310.5V-1.59961H307.5ZM302.5 -1.59961V1.59961H305.5V-1.59961H302.5ZM297.5 -1.59961V1.59961H300.5V-1.59961H297.5ZM292.5 -1.59961V1.59961H295.5V-1.59961H292.5ZM287.5 -1.59961V1.59961H290.5V-1.59961H287.5ZM282.5 -1.59961V1.59961H285.5V-1.59961H282.5ZM277.5 -1.59961V1.59961H280.5V-1.59961H277.5ZM272.5 -1.59961V1.59961H275.5V-1.59961H272.5ZM267.5 -1.59961V1.59961H270.5V-1.59961H267.5ZM262.5 -1.59961V1.59961H265.5V-1.59961H262.5ZM257.5 -1.59961V1.59961H260.5V-1.59961H257.5ZM252.5 -1.59961V1.59961H255.5V-1.59961H252.5ZM247.5 -1.59961V1.59961H250.5V-1.59961H247.5ZM242.5 -1.59961V1.59961H245.5V-1.59961H242.5ZM237.5 -1.59961V1.59961H240.5V-1.59961H237.5ZM232.5 -1.59961V1.59961H235.5V-1.59961H232.5ZM227.5 -1.59961V1.59961H230.5V-1.59961H227.5ZM222.5 -1.59961V1.59961H225.5V-1.59961H222.5ZM217.5 -1.59961V1.59961H220.5V-1.59961H217.5ZM212.5 -1.59961V1.59961H215.5V-1.59961H212.5ZM207.5 -1.59961V1.59961H210.5V-1.59961H207.5ZM202.5 -1.59961V1.59961H205.5V-1.59961H202.5ZM197.5 -1.59961V1.59961H200.5V-1.59961H197.5ZM192.5 -1.59961V1.59961H195.5V-1.59961H192.5ZM187.5 -1.59961V1.59961H190.5V-1.59961H187.5ZM182.5 -1.59961V1.59961H185.5V-1.59961H182.5ZM177.5 -1.59961V1.59961H180.5V-1.59961H177.5ZM172.5 -1.59961V1.59961H175.5V-1.59961H172.5ZM167.5 -1.59961V1.59961H170.5V-1.59961H167.5ZM162.5 -1.59961V1.59961H165.5V-1.59961H162.5ZM157.5 -1.59961V1.59961H160.5V-1.59961H157.5ZM152.5 -1.59961V1.59961H155.5V-1.59961H152.5ZM147.5 -1.59961V1.59961H150.5V-1.59961H147.5ZM142.5 -1.59961V1.59961H145.5V-1.59961H142.5ZM137.5 -1.59961V1.59961H140.5V-1.59961H137.5ZM132.5 -1.59961V1.59961H135.5V-1.59961H132.5ZM127.5 -1.59961V1.59961H130.5V-1.59961H127.5ZM122.5 -1.59961V1.59961H125.5V-1.59961H122.5ZM117.5 -1.59961V1.59961H120.5V-1.59961H117.5ZM112.5 -1.59961V1.59961H115.5V-1.59961H112.5ZM107.5 -1.59961V1.59961H110.5V-1.59961H107.5ZM102.5 -1.59961V1.59961H105.5V-1.59961H102.5ZM97.5 -1.59961V1.59961H100.5V-1.59961H97.5ZM92.5 -1.59961V1.59961H95.5V-1.59961H92.5ZM87.5 -1.59961V1.59961H90.5V-1.59961H87.5ZM82.5 -1.59961V1.59961H85.5V-1.59961H82.5ZM77.5 -1.59961V1.59961H80.5V-1.59961H77.5ZM72.5 -1.59961V1.59961H75.5V-1.59961H72.5ZM67.5 -1.59961V1.59961H70.5V-1.59961H67.5ZM62.5 -1.59961V1.59961H65.5V-1.59961H62.5ZM57.5 -1.59961V1.59961H60.5V-1.59961H57.5ZM52.5 -1.59961V1.59961H55.5V-1.59961H52.5ZM47.5 -1.59961V1.59961H50.5V-1.59961H47.5ZM42.5 -1.59961V1.59961H45.5V-1.59961H42.5ZM37.5 -1.59961V1.59961H40.5V-1.59961H37.5ZM32.5 -1.59961V1.59961H35.5V-1.59961H32.5ZM27.5 -1.59961V1.59961H30.5V-1.59961H27.5ZM22.5 -1.59961V1.59961H25.5V-1.59961H22.5ZM17.5 -1.59961V1.59961H20.5V-1.59961H17.5ZM12.5 -1.59961V1.59961H15.5V-1.59961H12.5ZM7.5 -1.59961V1.59961H10.5V-1.59961H7.5ZM2.5 -1.59961V1.59961H5.5V-1.59961H2.5ZM-2.5 -1.59961V1.59961H0.5V-1.59961H-2.5ZM-7.5 -1.59961V1.59961H-4.5V-1.59961H-7.5ZM-12.5 -1.59961V1.59961H-9.5V-1.59961H-12.5ZM-17.5 -1.59961V1.59961H-14.5V-1.59961H-17.5ZM-22.5 -1.59961V1.59961H-19.5V-1.59961H-22.5ZM-27.5 -1.59961V1.59961H-24.5V-1.59961H-27.5ZM-32.5 -1.59961V1.59961H-29.5V-1.59961H-32.5ZM-37.5 -1.59961V1.59961H-34.5V-1.59961H-37.5ZM-42.5 -1.59961V1.59961H-39.5V-1.59961H-42.5ZM-47.5 -1.59961V1.59961H-44.5V-1.59961H-47.5ZM-52.5 -1.59961V1.59961H-49.5V-1.59961H-52.5ZM-57.5 -1.59961V1.59961H-54.5V-1.59961H-57.5ZM-62.5 -1.59961V1.59961H-59.5V-1.59961H-62.5ZM-67.5 -1.59961V1.59961H-64.5V-1.59961H-67.5ZM-72.5 -1.59961V1.59961H-69.5V-1.59961H-72.5ZM-77.5 -1.59961V1.59961H-74.5V-1.59961H-77.5ZM-82.5 -1.59961V1.59961H-79.5V-1.59961H-82.5ZM-87.5 -1.59961V1.59961H-84.5V-1.59961H-87.5ZM-92.5 -1.59961V1.59961H-89.5V-1.59961H-92.5ZM-97.5 -1.59961V1.59961H-94.5V-1.59961H-97.5ZM-102.5 -1.59961V1.59961H-99.5V-1.59961H-102.5ZM-107.5 -1.59961V1.59961H-104.5V-1.59961H-107.5ZM-112.5 -1.59961V1.59961H-109.5V-1.59961H-112.5ZM-117.5 -1.59961V1.59961H-114.5V-1.59961H-117.5ZM-122.5 -1.59961V1.59961H-119.5V-1.59961H-122.5ZM-127.5 -1.59961V1.59961H-124.5V-1.59961H-127.5ZM-131 -1.59961V1.59961H-129.5V-1.59961H-131Z" fill="#605E68" mask="url(#path-6-inside-2_5743_6959)"/>
<g opacity="0.75">
<path d="M30 23.4795C25.3906 23.4795 21.6797 27.1904 21.6797 31.7998C21.6797 36.4092 25.3906 40.1201 30 40.1201C34.6094 40.1201 38.3203 36.4092 38.3203 31.7998C38.3203 27.1904 34.6094 23.4795 30 23.4795ZM30.7422 36.6045V36.917C30.7422 37.3076 30.3906 37.6201 30 37.6201C29.6094 37.6201 29.2578 37.3076 29.2578 36.917V36.5654C28.75 36.4092 27.6562 36.0576 27.0312 34.8076C26.8359 34.417 27.0312 33.9873 27.3828 33.8311L27.4609 33.792C27.8125 33.6357 28.1641 33.792 28.3594 34.1045C28.6328 34.6123 29.1406 35.2764 30.1172 35.2764C30.8984 35.2764 31.7578 34.8467 31.7578 33.9092C31.7578 33.1279 31.2109 32.6982 29.8828 32.2295C28.9453 31.917 27.0703 31.3701 27.0703 29.4561C27.0703 29.3779 27.1094 27.4639 29.2578 26.9951V26.6826C29.2578 26.292 29.6094 25.9795 30 25.9795C30.3906 25.9795 30.7422 26.292 30.7422 26.6826V26.9951C31.6406 27.1514 32.1875 27.6592 32.5391 28.0889C32.8125 28.4404 32.6562 28.9873 32.2266 29.1826C31.9141 29.2998 31.6016 29.1826 31.3672 28.9482C31.1328 28.6357 30.7422 28.2842 30.0391 28.2842C29.4531 28.2842 28.5547 28.5967 28.5547 29.4561C28.5547 30.2373 29.2578 30.5498 30.7422 31.0576C32.7344 31.7217 33.2422 32.7373 33.2422 33.9092C33.2422 36.0967 31.1719 36.5264 30.7422 36.6045Z" fill="white"/>
</g>
<path d="M53.232 39V27.08H57.568C58.368 27.08 59.072 27.2293 59.68 27.528C60.288 27.816 60.7627 28.2427 61.104 28.808C61.456 29.3627 61.632 30.0293 61.632 30.808C61.632 31.6293 61.424 32.3333 61.008 32.92C60.6027 33.5067 60.0533 33.9333 59.36 34.2L62.112 39H59.968L57.04 33.8L58.272 34.52H55.12V39H53.232ZM55.12 32.84H57.6C58.0373 32.84 58.416 32.7547 58.736 32.584C59.056 32.4133 59.3013 32.1787 59.472 31.88C59.6533 31.5707 59.744 31.208 59.744 30.792C59.744 30.376 59.6533 30.0187 59.472 29.72C59.3013 29.4107 59.056 29.176 58.736 29.016C58.416 28.8453 58.0373 28.76 57.6 28.76H55.12V32.84ZM67.1044 39.192C66.2404 39.192 65.4724 38.9947 64.8004 38.6C64.139 38.1947 63.6217 37.6507 63.2484 36.968C62.875 36.2747 62.6884 35.5013 62.6884 34.648C62.6884 33.7733 62.875 33 63.2484 32.328C63.6324 31.656 64.1444 31.128 64.7844 30.744C65.4244 30.3493 66.1497 30.152 66.9604 30.152C67.611 30.152 68.1924 30.264 68.7044 30.488C69.2164 30.712 69.6484 31.0213 70.0004 31.416C70.3524 31.8 70.619 32.2427 70.8004 32.744C70.9924 33.2453 71.0884 33.7787 71.0884 34.344C71.0884 34.4827 71.083 34.6267 71.0724 34.776C71.0617 34.9253 71.0404 35.064 71.0084 35.192H64.1124V33.752H69.9844L69.1204 34.408C69.227 33.8853 69.1897 33.4213 69.0084 33.016C68.8377 32.6 68.571 32.2747 68.2084 32.04C67.8564 31.7947 67.4404 31.672 66.9604 31.672C66.4804 31.672 66.0537 31.7947 65.6804 32.04C65.307 32.2747 65.019 32.616 64.8164 33.064C64.6137 33.5013 64.5337 34.0347 64.5764 34.664C64.523 35.2507 64.603 35.7627 64.8164 36.2C65.0404 36.6373 65.3497 36.9787 65.7444 37.224C66.1497 37.4693 66.6084 37.592 67.1204 37.592C67.643 37.592 68.0857 37.4747 68.4484 37.24C68.8217 37.0053 69.115 36.7013 69.3284 36.328L70.8004 37.048C70.6297 37.4533 70.363 37.8213 70.0004 38.152C69.6484 38.472 69.2217 38.728 68.7204 38.92C68.2297 39.1013 67.691 39.192 67.1044 39.192ZM76.0529 39.192C75.1675 39.192 74.3889 38.9733 73.7169 38.536C73.0555 38.0987 72.5915 37.512 72.3249 36.776L73.7169 36.12C73.9515 36.6107 74.2715 37 74.6769 37.288C75.0929 37.576 75.5515 37.72 76.0529 37.72C76.4795 37.72 76.8262 37.624 77.0929 37.432C77.3595 37.24 77.4929 36.9787 77.4929 36.648C77.4929 36.4347 77.4342 36.264 77.3169 36.136C77.1995 35.9973 77.0502 35.8853 76.8689 35.8C76.6982 35.7147 76.5222 35.6507 76.3409 35.608L74.9809 35.224C74.2342 35.0107 73.6742 34.6907 73.3009 34.264C72.9382 33.8267 72.7569 33.32 72.7569 32.744C72.7569 32.2213 72.8902 31.768 73.1569 31.384C73.4235 30.9893 73.7915 30.6853 74.2609 30.472C74.7302 30.2587 75.2582 30.152 75.8449 30.152C76.6342 30.152 77.3382 30.3493 77.9569 30.744C78.5755 31.128 79.0129 31.6667 79.2689 32.36L77.8769 33.016C77.7062 32.6 77.4342 32.2693 77.0609 32.024C76.6982 31.7787 76.2875 31.656 75.8289 31.656C75.4342 31.656 75.1195 31.752 74.8849 31.944C74.6502 32.1253 74.5329 32.3653 74.5329 32.664C74.5329 32.8667 74.5862 33.0373 74.6929 33.176C74.7995 33.304 74.9382 33.4107 75.1089 33.496C75.2795 33.5707 75.4555 33.6347 75.6369 33.688L77.0449 34.104C77.7595 34.3067 78.3089 34.6267 78.6929 35.064C79.0769 35.4907 79.2689 36.0027 79.2689 36.6C79.2689 37.112 79.1302 37.5653 78.8529 37.96C78.5862 38.344 78.2129 38.648 77.7329 38.872C77.2529 39.0853 76.6929 39.192 76.0529 39.192ZM85.2164 39.192C84.3844 39.192 83.6217 38.9947 82.9284 38.6C82.2457 38.2053 81.7017 37.6667 81.2964 36.984C80.891 36.3013 80.6884 35.528 80.6884 34.664C80.6884 33.7893 80.891 33.016 81.2964 32.344C81.7017 31.6613 82.2457 31.128 82.9284 30.744C83.611 30.3493 84.3737 30.152 85.2164 30.152C86.0697 30.152 86.8324 30.3493 87.5044 30.744C88.187 31.128 88.7257 31.6613 89.1204 32.344C89.5257 33.016 89.7284 33.7893 89.7284 34.664C89.7284 35.5387 89.5257 36.3173 89.1204 37C88.715 37.6827 88.171 38.2213 87.4884 38.616C86.8057 39 86.0484 39.192 85.2164 39.192ZM85.2164 37.512C85.7284 37.512 86.1817 37.3893 86.5764 37.144C86.971 36.8987 87.2804 36.5627 87.5044 36.136C87.739 35.6987 87.8564 35.208 87.8564 34.664C87.8564 34.12 87.739 33.6347 87.5044 33.208C87.2804 32.7813 86.971 32.4453 86.5764 32.2C86.1817 31.9547 85.7284 31.832 85.2164 31.832C84.715 31.832 84.2617 31.9547 83.8564 32.2C83.4617 32.4453 83.147 32.7813 82.9124 33.208C82.6884 33.6347 82.5764 34.12 82.5764 34.664C82.5764 35.208 82.6884 35.6987 82.9124 36.136C83.147 36.5627 83.4617 36.8987 83.8564 37.144C84.2617 37.3893 84.715 37.512 85.2164 37.512ZM91.4935 39V26.888H93.3015V39H91.4935ZM98.5034 39.192C97.8527 39.192 97.282 39.048 96.7914 38.76C96.3007 38.4613 95.9167 38.0507 95.6394 37.528C95.3727 36.9947 95.2394 36.3813 95.2394 35.688V30.344H97.0474V35.528C97.0474 35.9227 97.1274 36.2693 97.2874 36.568C97.4474 36.8667 97.6714 37.1013 97.9594 37.272C98.2474 37.432 98.578 37.512 98.9514 37.512C99.3354 37.512 99.6714 37.4267 99.9594 37.256C100.247 37.0853 100.471 36.8453 100.631 36.536C100.802 36.2267 100.887 35.864 100.887 35.448V30.344H102.679V39H100.967V37.304L101.159 37.528C100.957 38.0613 100.621 38.472 100.151 38.76C99.682 39.048 99.1327 39.192 98.5034 39.192ZM108.534 39.096C107.628 39.096 106.924 38.84 106.422 38.328C105.921 37.816 105.67 37.096 105.67 36.168V31.976H104.15V30.344H104.39C104.796 30.344 105.11 30.2267 105.334 29.992C105.558 29.7573 105.67 29.4373 105.67 29.032V28.36H107.478V30.344H109.446V31.976H107.478V36.088C107.478 36.3867 107.526 36.6427 107.622 36.856C107.718 37.0587 107.873 37.2187 108.086 37.336C108.3 37.4427 108.577 37.496 108.918 37.496C109.004 37.496 109.1 37.4907 109.206 37.48C109.313 37.4693 109.414 37.4587 109.51 37.448V39C109.361 39.0213 109.196 39.0427 109.014 39.064C108.833 39.0853 108.673 39.096 108.534 39.096ZM111.275 39V30.344H113.083V39H111.275ZM111.275 29.16V27.08H113.083V29.16H111.275ZM119.373 39.192C118.541 39.192 117.778 38.9947 117.085 38.6C116.402 38.2053 115.858 37.6667 115.453 36.984C115.047 36.3013 114.845 35.528 114.845 34.664C114.845 33.7893 115.047 33.016 115.453 32.344C115.858 31.6613 116.402 31.128 117.085 30.744C117.767 30.3493 118.53 30.152 119.373 30.152C120.226 30.152 120.989 30.3493 121.661 30.744C122.343 31.128 122.882 31.6613 123.277 32.344C123.682 33.016 123.885 33.7893 123.885 34.664C123.885 35.5387 123.682 36.3173 123.277 37C122.871 37.6827 122.327 38.2213 121.645 38.616C120.962 39 120.205 39.192 119.373 39.192ZM119.373 37.512C119.885 37.512 120.338 37.3893 120.733 37.144C121.127 36.8987 121.437 36.5627 121.661 36.136C121.895 35.6987 122.013 35.208 122.013 34.664C122.013 34.12 121.895 33.6347 121.661 33.208C121.437 32.7813 121.127 32.4453 120.733 32.2C120.338 31.9547 119.885 31.832 119.373 31.832C118.871 31.832 118.418 31.9547 118.013 32.2C117.618 32.4453 117.303 32.7813 117.069 33.208C116.845 33.6347 116.733 34.12 116.733 34.664C116.733 35.208 116.845 35.6987 117.069 36.136C117.303 36.5627 117.618 36.8987 118.013 37.144C118.418 37.3893 118.871 37.512 119.373 37.512ZM125.65 39V30.344H127.378V32.04L127.17 31.816C127.383 31.272 127.724 30.8613 128.194 30.584C128.663 30.296 129.207 30.152 129.826 30.152C130.466 30.152 131.031 30.2907 131.522 30.568C132.012 30.8453 132.396 31.2293 132.674 31.72C132.951 32.2107 133.09 32.776 133.09 33.416V39H131.298V33.896C131.298 33.4587 131.218 33.0907 131.058 32.792C130.898 32.4827 130.668 32.248 130.37 32.088C130.082 31.9173 129.751 31.832 129.378 31.832C129.004 31.832 128.668 31.9173 128.37 32.088C128.082 32.248 127.858 32.4827 127.698 32.792C127.538 33.1013 127.458 33.4693 127.458 33.896V39H125.65ZM142.174 39.192C141.427 39.192 140.734 39.0533 140.094 38.776C139.454 38.488 138.91 38.0987 138.462 37.608C138.014 37.1173 137.683 36.552 137.47 35.912L139.07 35.24C139.358 35.976 139.779 36.5413 140.334 36.936C140.888 37.3307 141.528 37.528 142.254 37.528C142.68 37.528 143.054 37.464 143.374 37.336C143.694 37.1973 143.939 37.0053 144.11 36.76C144.291 36.5147 144.382 36.232 144.382 35.912C144.382 35.4747 144.259 35.128 144.014 34.872C143.768 34.616 143.406 34.4133 142.926 34.264L140.686 33.56C139.79 33.2827 139.107 32.8613 138.638 32.296C138.168 31.72 137.934 31.048 137.934 30.28C137.934 29.608 138.099 29.0213 138.43 28.52C138.76 28.008 139.214 27.608 139.79 27.32C140.376 27.032 141.043 26.888 141.79 26.888C142.504 26.888 143.155 27.016 143.742 27.272C144.328 27.5173 144.83 27.8587 145.246 28.296C145.672 28.7333 145.982 29.24 146.174 29.816L144.606 30.504C144.371 29.8747 144.003 29.3893 143.502 29.048C143.011 28.7067 142.44 28.536 141.79 28.536C141.395 28.536 141.048 28.6053 140.75 28.744C140.451 28.872 140.216 29.064 140.046 29.32C139.886 29.5653 139.806 29.8533 139.806 30.184C139.806 30.568 139.928 30.9093 140.174 31.208C140.419 31.5067 140.792 31.7307 141.294 31.88L143.374 32.536C144.323 32.824 145.038 33.24 145.518 33.784C145.998 34.3173 146.238 34.984 146.238 35.784C146.238 36.4453 146.062 37.032 145.71 37.544C145.368 38.056 144.894 38.4613 144.286 38.76C143.678 39.048 142.974 39.192 142.174 39.192ZM148.181 42.2V30.344H149.909V32.136L149.701 31.72C150.021 31.2293 150.448 30.8453 150.981 30.568C151.514 30.2907 152.122 30.152 152.805 30.152C153.626 30.152 154.362 30.3493 155.013 30.744C155.674 31.1387 156.192 31.6773 156.565 32.36C156.949 33.0427 157.141 33.8107 157.141 34.664C157.141 35.5173 156.949 36.2853 156.565 36.968C156.192 37.6507 155.68 38.1947 155.029 38.6C154.378 38.9947 153.637 39.192 152.805 39.192C152.133 39.192 151.52 39.0533 150.965 38.776C150.421 38.4987 150 38.0987 149.701 37.576L149.989 37.24V42.2H148.181ZM152.629 37.512C153.141 37.512 153.594 37.3893 153.989 37.144C154.384 36.8987 154.693 36.5627 154.917 36.136C155.152 35.6987 155.269 35.208 155.269 34.664C155.269 34.12 155.152 33.6347 154.917 33.208C154.693 32.7813 154.384 32.4453 153.989 32.2C153.594 31.9547 153.141 31.832 152.629 31.832C152.128 31.832 151.674 31.9547 151.269 32.2C150.874 32.4453 150.56 32.7813 150.325 33.208C150.101 33.6347 149.989 34.12 149.989 34.664C149.989 35.208 150.101 35.6987 150.325 36.136C150.56 36.5627 150.874 36.8987 151.269 37.144C151.674 37.3893 152.128 37.512 152.629 37.512ZM162.964 39.192C162.1 39.192 161.332 38.9947 160.66 38.6C159.998 38.1947 159.481 37.6507 159.108 36.968C158.734 36.2747 158.548 35.5013 158.548 34.648C158.548 33.7733 158.734 33 159.108 32.328C159.492 31.656 160.004 31.128 160.644 30.744C161.284 30.3493 162.009 30.152 162.82 30.152C163.47 30.152 164.052 30.264 164.564 30.488C165.076 30.712 165.508 31.0213 165.86 31.416C166.212 31.8 166.478 32.2427 166.66 32.744C166.852 33.2453 166.948 33.7787 166.948 34.344C166.948 34.4827 166.942 34.6267 166.932 34.776C166.921 34.9253 166.9 35.064 166.868 35.192H159.972V33.752H165.844L164.98 34.408C165.086 33.8853 165.049 33.4213 164.868 33.016C164.697 32.6 164.43 32.2747 164.068 32.04C163.716 31.7947 163.3 31.672 162.82 31.672C162.34 31.672 161.913 31.7947 161.54 32.04C161.166 32.2747 160.878 32.616 160.676 33.064C160.473 33.5013 160.393 34.0347 160.436 34.664C160.382 35.2507 160.462 35.7627 160.676 36.2C160.9 36.6373 161.209 36.9787 161.604 37.224C162.009 37.4693 162.468 37.592 162.98 37.592C163.502 37.592 163.945 37.4747 164.308 37.24C164.681 37.0053 164.974 36.7013 165.188 36.328L166.66 37.048C166.489 37.4533 166.222 37.8213 165.86 38.152C165.508 38.472 165.081 38.728 164.58 38.92C164.089 39.1013 163.55 39.192 162.964 39.192ZM172.776 39.192C171.912 39.192 171.144 38.9947 170.472 38.6C169.811 38.1947 169.294 37.6507 168.92 36.968C168.547 36.2747 168.36 35.5013 168.36 34.648C168.36 33.7733 168.547 33 168.92 32.328C169.304 31.656 169.816 31.128 170.456 30.744C171.096 30.3493 171.822 30.152 172.632 30.152C173.283 30.152 173.864 30.264 174.376 30.488C174.888 30.712 175.32 31.0213 175.672 31.416C176.024 31.8 176.291 32.2427 176.472 32.744C176.664 33.2453 176.76 33.7787 176.76 34.344C176.76 34.4827 176.755 34.6267 176.744 34.776C176.734 34.9253 176.712 35.064 176.68 35.192H169.784V33.752H175.656L174.792 34.408C174.899 33.8853 174.862 33.4213 174.68 33.016C174.51 32.6 174.243 32.2747 173.88 32.04C173.528 31.7947 173.112 31.672 172.632 31.672C172.152 31.672 171.726 31.7947 171.352 32.04C170.979 32.2747 170.691 32.616 170.488 33.064C170.286 33.5013 170.206 34.0347 170.248 34.664C170.195 35.2507 170.275 35.7627 170.488 36.2C170.712 36.6373 171.022 36.9787 171.416 37.224C171.822 37.4693 172.28 37.592 172.792 37.592C173.315 37.592 173.758 37.4747 174.12 37.24C174.494 37.0053 174.787 36.7013 175 36.328L176.472 37.048C176.302 37.4533 176.035 37.8213 175.672 38.152C175.32 38.472 174.894 38.728 174.392 38.92C173.902 39.1013 173.363 39.192 172.776 39.192ZM182.525 39.192C181.693 39.192 180.946 38.9947 180.285 38.6C179.634 38.1947 179.117 37.6507 178.733 36.968C178.359 36.2853 178.173 35.5173 178.173 34.664C178.173 33.8107 178.365 33.0427 178.749 32.36C179.133 31.6773 179.65 31.1387 180.301 30.744C180.951 30.3493 181.687 30.152 182.509 30.152C183.202 30.152 183.815 30.2907 184.349 30.568C184.882 30.8453 185.303 31.2293 185.613 31.72L185.341 32.136V26.888H187.133V39H185.421V37.24L185.629 37.576C185.33 38.0987 184.903 38.4987 184.349 38.776C183.794 39.0533 183.186 39.192 182.525 39.192ZM182.701 37.512C183.202 37.512 183.65 37.3893 184.045 37.144C184.45 36.8987 184.765 36.5627 184.989 36.136C185.223 35.6987 185.341 35.208 185.341 34.664C185.341 34.12 185.223 33.6347 184.989 33.208C184.765 32.7813 184.45 32.4453 184.045 32.2C183.65 31.9547 183.202 31.832 182.701 31.832C182.199 31.832 181.746 31.9547 181.341 32.2C180.935 32.4453 180.621 32.7813 180.397 33.208C180.173 33.6347 180.061 34.12 180.061 34.664C180.061 35.208 180.173 35.6987 180.397 36.136C180.621 36.5627 180.93 36.8987 181.325 37.144C181.73 37.3893 182.189 37.512 182.701 37.512Z" fill="white"/>
</g>
<defs>
<radialGradient id="paint0_radial_5743_6959" cx="0" cy="0" r="1" gradientUnits="userSpaceOnUse" gradientTransform="translate(450 11.52) scale(738 52.48)">
<stop stop-color="white"/>
<stop offset="1" stop-color="white"/>
</radialGradient>
<radialGradient id="paint1_radial_5743_6959" cx="0" cy="0" r="1" gradientUnits="userSpaceOnUse" gradientTransform="translate(487 11.52) scale(406.72 52.48)">
<stop stop-color="#1FA8CA" stop-opacity="0.32"/>
<stop offset="1" stop-color="#1FA8CA"/>
</radialGradient>
<radialGradient id="paint2_radial_5743_6959" cx="0" cy="0" r="1" gradientUnits="userSpaceOnUse" gradientTransform="translate(119.5 11.52) rotate(180) scale(410.82 52.48)">
<stop stop-color="#3D3B34"/>
<stop offset="1" stop-color="#332E2C"/>
</radialGradient>
<clipPath id="clip0_5743_6959">
<rect width="900" height="64" rx="16" fill="white"/>
</clipPath>
</defs>
</svg>
