<svg width="900" height="64" viewBox="0 0 900 64" fill="none" xmlns="http://www.w3.org/2000/svg">
<g clip-path="url(#clip0_5743_6942)">
<rect width="900" height="64" rx="16" fill="url(#paint0_radial_5743_6942)"/>
<mask id="path-2-inside-1_5743_6942" fill="white">
<path d="M0 16C0 7.16344 7.16344 0 16 0H884C892.837 0 900 7.16344 900 16V48C900 56.8366 892.837 64 884 64H16C7.16346 64 0 56.8366 0 48V16Z"/>
</mask>
<path d="M16 0V1H884V0V-1H16V0ZM900 16H899V48H900H901V16H900ZM884 64V63H16V64V65H884V64ZM0 48H1V16H0H-1V48H0ZM16 64V63C7.71575 63 1 56.2843 1 48H0H-1C-1 57.3888 6.61118 65 16 65V64ZM900 48H899C899 56.2843 892.284 63 884 63V64V65C893.389 65 901 57.3888 901 48H900ZM884 0V1C892.284 1 899 7.71573 899 16H900H901C901 6.61116 893.389 -1 884 -1V0ZM16 0V-1C6.61116 -1 -1 6.61116 -1 16H0H1C1 7.71573 7.71573 1 16 1V0Z" fill="white" mask="url(#path-2-inside-1_5743_6942)"/>
<path d="M317 0H802C810.837 0 818 7.16344 818 16V48C818 56.8366 810.837 64 802 64H317V0Z" fill="url(#paint1_radial_5743_6942)"/>
<path d="M370 16C370 7.16344 362.837 0 354 0H-53V64H354C362.837 64 370 56.8366 370 48V16Z" fill="url(#paint2_radial_5743_6942)"/>
<mask id="path-6-inside-2_5743_6942" fill="white">
<path d="M370 16C370 7.16344 362.837 0 354 0H-53V64H354C362.837 64 370 56.8366 370 48V16Z"/>
</mask>
<path d="M355.233 62.3467C355.172 62.3519 355.11 62.3569 355.049 62.3613C354.986 62.3658 354.923 62.3693 354.86 62.373C354.814 62.3758 354.767 62.3785 354.72 62.3809C354.62 62.3858 354.52 62.3907 354.42 62.3936C354.403 62.394 354.385 62.3951 354.368 62.3955C354.246 62.3986 354.123 62.4004 354 62.4004V65.5996C354.495 65.5996 354.986 65.5783 355.472 65.5381C355.533 65.533 355.594 65.5272 355.655 65.5215L355.507 63.9297L355.474 63.5732L355.357 62.3369C355.316 62.3408 355.275 62.3432 355.233 62.3467ZM352.492 62.4004V65.5996H354V62.4004H352.492ZM347.468 62.4004V65.5996H350.482V62.4004H347.468ZM342.443 62.4004V65.5996H345.458V62.4004H342.443ZM337.419 62.4004V65.5996H340.434V62.4004H337.419ZM332.394 62.4004V65.5996H335.408V62.4004H332.394ZM327.369 62.4004V65.5996H330.384V62.4004H327.369ZM322.345 62.4004V65.5996H325.359V62.4004H322.345ZM317.319 62.4004V65.5996H320.335V62.4004H317.319ZM312.295 62.4004V65.5996H315.31V62.4004H312.295ZM307.271 62.4004V65.5996H310.285V62.4004H307.271ZM302.246 62.4004V65.5996H305.261V62.4004H302.246ZM297.221 62.4004V65.5996H300.235V62.4004H297.221ZM292.196 62.4004V65.5996H295.211V62.4004H292.196ZM287.172 62.4004V65.5996H290.187V62.4004H287.172ZM282.146 62.4004V65.5996H285.162V62.4004H282.146ZM277.122 62.4004V65.5996H280.137V62.4004H277.122ZM272.098 62.4004V65.5996H275.112V62.4004H272.098ZM267.073 62.4004V65.5996H270.088V62.4004H267.073ZM262.048 62.4004V65.5996H265.062V62.4004H262.048ZM257.023 62.4004V65.5996H260.038V62.4004H257.023ZM251.999 62.4004V65.5996H255.014V62.4004H251.999ZM246.974 62.4004V65.5996H249.989V62.4004H246.974ZM241.949 62.4004V65.5996H244.964V62.4004H241.949ZM236.925 62.4004V65.5996H239.939V62.4004H236.925ZM231.9 62.4004V65.5996H234.915V62.4004H231.9ZM226.875 62.4004V65.5996H229.89V62.4004H226.875ZM221.851 62.4004V65.5996H224.865V62.4004H221.851ZM216.826 62.4004V65.5996H219.841V62.4004H216.826ZM211.801 62.4004V65.5996H214.816V62.4004H211.801ZM206.776 62.4004V65.5996H209.791V62.4004H206.776ZM201.752 62.4004V65.5996H204.767V62.4004H201.752ZM196.728 62.4004V65.5996H199.742V62.4004H196.728ZM191.702 62.4004V65.5996H194.717V62.4004H191.702ZM186.678 62.4004V65.5996H189.692V62.4004H186.678ZM181.653 62.4004V65.5996H184.668V62.4004H181.653ZM176.628 62.4004V65.5996H179.644V62.4004H176.628ZM171.604 62.4004V65.5996H174.618V62.4004H171.604ZM166.579 62.4004V65.5996H169.594V62.4004H166.579ZM161.555 62.4004V65.5996H164.569V62.4004H161.555ZM156.529 62.4004V65.5996H159.544V62.4004H156.529ZM151.505 62.4004V65.5996H154.52V62.4004H151.505ZM146.48 62.4004V65.5996H149.495V62.4004H146.48ZM141.455 62.4004V65.5996H144.471V62.4004H141.455ZM136.431 62.4004V65.5996H139.445V62.4004H136.431ZM131.406 62.4004V65.5996H134.421V62.4004H131.406ZM126.382 62.4004V65.5996H129.396V62.4004H126.382ZM121.356 62.4004V65.5996H124.372V62.4004H121.356ZM116.332 62.4004V65.5996H119.347V62.4004H116.332ZM111.308 62.4004V65.5996H114.322V62.4004H111.308ZM106.283 62.4004V65.5996H109.298V62.4004H106.283ZM101.258 62.4004V65.5996H104.272V62.4004H101.258ZM96.2334 62.4004V65.5996H99.248V62.4004H96.2334ZM91.209 62.4004V65.5996H94.2236V62.4004H91.209ZM86.1836 62.4004V65.5996H89.1992V62.4004H86.1836ZM81.1592 62.4004V65.5996H84.1738V62.4004H81.1592ZM76.1348 62.4004V65.5996H79.1494V62.4004H76.1348ZM71.1104 62.4004V65.5996H74.125V62.4004H71.1104ZM66.085 62.4004V65.5996H69.0996V62.4004H66.085ZM61.0605 62.4004V65.5996H64.0752V62.4004H61.0605ZM56.0361 62.4004V65.5996H59.0508V62.4004H56.0361ZM51.0107 62.4004V65.5996H54.0264V62.4004H51.0107ZM45.9863 62.4004V65.5996H49.001V62.4004H45.9863ZM40.9619 62.4004V65.5996H43.9766V62.4004H40.9619ZM35.9375 62.4004V65.5996H38.9521V62.4004H35.9375ZM30.9121 62.4004V65.5996H33.9268V62.4004H30.9121ZM25.8877 62.4004V65.5996H28.9023V62.4004H25.8877ZM20.8633 62.4004V65.5996H23.8779V62.4004H20.8633ZM15.8379 62.4004V65.5996H18.8535V62.4004H15.8379ZM10.8135 62.4004V65.5996H13.8281V62.4004H10.8135ZM5.78906 62.4004V65.5996H8.80371V62.4004H5.78906ZM0.764648 62.4004V65.5996H3.7793V62.4004H0.764648ZM-4.26074 62.4004V65.5996H-1.24609V62.4004H-4.26074ZM-9.28516 62.4004V65.5996H-6.27051V62.4004H-9.28516ZM-14.3096 62.4004V65.5996H-11.2949V62.4004H-14.3096ZM-19.335 62.4004V65.5996H-16.3193V62.4004H-19.335ZM-24.3594 62.4004V65.5996H-21.3447V62.4004H-24.3594ZM-29.3838 62.4004V65.5996H-26.3691V62.4004H-29.3838ZM-34.4082 62.4004V65.5996H-31.3936V62.4004H-34.4082ZM-39.4336 62.4004V65.5996H-36.418V62.4004H-39.4336ZM-44.458 62.4004V65.5996H-41.4434V62.4004H-44.458ZM-49.4824 62.4004V65.5996H-46.4678V62.4004H-49.4824ZM-53 62.4004V65.5996H-51.4922V62.4004H-53ZM359.651 61.248C359.61 61.2658 359.568 61.2834 359.526 61.3008C359.461 61.3279 359.396 61.3547 359.33 61.3809C359.293 61.3955 359.257 61.4095 359.22 61.4238C359.141 61.4544 359.063 61.4845 358.983 61.5137C358.963 61.5213 358.942 61.5286 358.921 61.5361C358.728 61.6063 358.534 61.6733 358.337 61.7354C358.3 61.7471 358.262 61.7581 358.225 61.7695C358.15 61.7924 358.075 61.8143 358 61.8359C357.97 61.8445 357.941 61.853 357.911 61.8613C357.817 61.8878 357.723 61.9129 357.628 61.9375C357.612 61.9416 357.597 61.9462 357.581 61.9502C357.497 61.9717 357.413 61.9927 357.328 62.0127C357.287 62.0224 357.246 62.0317 357.205 62.041C357.185 62.0456 357.165 62.0512 357.145 62.0557L357.492 63.6182L357.84 65.1777C357.859 65.1735 357.878 65.1703 357.897 65.166C358.94 64.9302 359.948 64.6021 360.911 64.1904C360.938 64.1788 360.965 64.1661 360.992 64.1543L360.356 62.6875L359.72 61.2197C359.697 61.2295 359.674 61.2384 359.651 61.248ZM363.511 58.8115C363.451 58.8644 363.39 58.9168 363.329 58.9688C363.292 59.0005 363.254 59.0321 363.217 59.0635C363.165 59.1069 363.112 59.1497 363.06 59.1924C363.031 59.2153 363.003 59.2381 362.975 59.2607C362.915 59.3083 362.855 59.3557 362.795 59.4023C362.761 59.4282 362.728 59.4539 362.694 59.4795C362.64 59.521 362.585 59.5618 362.529 59.6025C362.488 59.6331 362.446 59.6633 362.404 59.6934C362.36 59.7253 362.315 59.7567 362.271 59.7881C362.21 59.8309 362.148 59.8732 362.087 59.915C362.063 59.931 362.04 59.9471 362.017 59.9629C361.957 60.0032 361.897 60.0436 361.836 60.083C361.788 60.1143 361.739 60.145 361.69 60.1758C361.639 60.2086 361.587 60.2412 361.534 60.2734C361.491 60.3001 361.447 60.3263 361.403 60.3525C361.379 60.3673 361.355 60.3829 361.33 60.3975L362.146 61.7744L362.962 63.1494C362.989 63.1331 363.017 63.1161 363.044 63.0996C363.968 62.5453 364.837 61.9096 365.64 61.2012L364.581 60.002L364.173 59.5391L363.522 58.8018C363.519 58.8051 363.514 58.8082 363.511 58.8115ZM366.354 55.4023C366.327 55.4461 366.301 55.4898 366.274 55.5332C366.242 55.5855 366.21 55.6376 366.177 55.6895C366.147 55.7359 366.118 55.7821 366.088 55.8281C366.048 55.89 366.007 55.9515 365.966 56.0127C365.949 56.0372 365.933 56.0615 365.916 56.0859C365.874 56.1475 365.832 56.2087 365.789 56.2695C365.761 56.3097 365.733 56.3498 365.704 56.3896C365.671 56.436 365.637 56.4823 365.604 56.5283C365.563 56.5836 365.522 56.6387 365.48 56.6934C365.463 56.7159 365.446 56.7383 365.429 56.7607C365.377 56.8283 365.324 56.8953 365.271 56.9619C365.246 56.9943 365.219 57.0264 365.193 57.0586C365.151 57.1113 365.108 57.1638 365.064 57.2158C365.036 57.2495 365.008 57.283 364.979 57.3164C364.931 57.3734 364.882 57.4301 364.833 57.4863C364.823 57.4982 364.812 57.5106 364.802 57.5225L366.002 58.5811L366.602 59.1104L366.603 59.1094L367.202 59.6387C367.911 58.8356 368.546 57.9668 369.101 57.043C369.117 57.0155 369.134 56.9885 369.15 56.9609L367.774 56.1455L366.397 55.3301C366.383 55.3543 366.368 55.3782 366.354 55.4023ZM368.042 51.2041C368.033 51.2423 368.024 51.2803 368.015 51.3184C367.968 51.5172 367.917 51.7146 367.862 51.9102C367.856 51.9317 367.85 51.9531 367.844 51.9746C367.82 52.0579 367.796 52.141 367.771 52.2236C367.759 52.2611 367.748 52.2986 367.736 52.3359C367.644 52.6286 367.542 52.9169 367.432 53.2012C367.415 53.2439 367.399 53.2866 367.382 53.3291C367.356 53.3948 367.329 53.4602 367.302 53.5254C367.285 53.5653 367.268 53.6048 367.251 53.6445C367.24 53.6695 367.231 53.6948 367.22 53.7197L368.688 54.3564L370.154 54.9912C370.166 54.9641 370.179 54.9374 370.19 54.9102C370.602 53.9468 370.93 52.9392 371.166 51.8965C371.17 51.8774 371.173 51.858 371.178 51.8389L369.618 51.4922L368.056 51.1445C368.051 51.1644 368.047 51.1842 368.042 51.2041ZM368.4 48C368.4 48.2411 368.394 48.4807 368.382 48.7188C368.38 48.7566 368.377 48.7943 368.375 48.832C368.371 48.9041 368.367 48.9761 368.362 49.0479C368.359 49.0951 368.354 49.1423 368.351 49.1895C368.346 49.2455 368.342 49.3016 368.337 49.3574L369.135 49.4316L369.134 49.4326L369.93 49.5068L371.521 49.6543C371.527 49.5932 371.533 49.532 371.538 49.4707C371.543 49.4125 371.548 49.3542 371.552 49.2959C371.567 49.0837 371.578 48.8705 371.586 48.6562C371.594 48.4384 371.6 48.2197 371.6 48V46.4004H368.4V48ZM368.4 41.0664V44.2666H371.6V41.0664H368.4ZM368.4 35.7334V38.9336H371.6V35.7334H368.4ZM368.4 30.4004V33.5996H371.6V30.4004H368.4ZM368.4 25.0664V28.2666H371.6V25.0664H368.4ZM368.4 19.7334V22.9336H371.6V19.7334H368.4ZM368.4 17.5996H371.6V16C371.6 15.7711 371.595 15.5433 371.586 15.3164C371.578 15.111 371.567 14.9066 371.552 14.7031C371.547 14.633 371.541 14.563 371.535 14.4932C371.531 14.4436 371.526 14.3942 371.521 14.3447L369.93 14.4932L369.134 14.5674H369.135L368.337 14.6426C368.34 14.6799 368.343 14.7174 368.346 14.7549C368.351 14.8202 368.358 14.8856 368.362 14.9512C368.387 15.2973 368.4 15.647 368.4 16V17.5996ZM368.688 9.64355L367.22 10.2803C367.23 10.303 367.239 10.3258 367.249 10.3486C367.267 10.3902 367.284 10.4319 367.302 10.4736C367.329 10.5388 367.356 10.6042 367.382 10.6699C367.395 10.702 367.406 10.7344 367.419 10.7666C367.53 11.0521 367.633 11.3418 367.727 11.6357C367.741 11.6822 367.756 11.7287 367.771 11.7754C367.788 11.8318 367.804 11.8886 367.82 11.9453C367.834 11.9931 367.849 12.0408 367.862 12.0889C367.917 12.2816 367.967 12.4759 368.014 12.6719C368.023 12.7128 368.033 12.7539 368.042 12.7949C368.047 12.8151 368.051 12.8353 368.056 12.8555L369.618 12.5078L371.178 12.1602C371.173 12.141 371.17 12.1216 371.166 12.1025C370.93 11.0599 370.602 10.0522 370.19 9.08887C370.179 9.06166 370.166 9.03495 370.154 9.00781L368.688 9.64355ZM367.202 4.36035L366.252 5.19824L366.002 5.41895L364.802 6.47754C364.808 6.48508 364.816 6.49245 364.822 6.5C364.872 6.55652 364.921 6.6136 364.97 6.6709C364.999 6.70485 365.027 6.73921 365.056 6.77344C365.102 6.8288 365.148 6.88437 365.193 6.94043C365.216 6.96867 365.239 6.99698 365.262 7.02539C365.312 7.0888 365.363 7.15252 365.412 7.2168C365.435 7.24639 365.458 7.27589 365.48 7.30566C365.522 7.36033 365.563 7.41544 365.604 7.4707C365.634 7.51217 365.664 7.5539 365.694 7.5957C365.726 7.64004 365.758 7.68478 365.789 7.72949C365.832 7.79035 365.874 7.85154 365.916 7.91309C365.926 7.92705 365.935 7.94108 365.944 7.95508C365.993 8.02667 366.041 8.0984 366.088 8.1709C366.118 8.21694 366.147 8.26317 366.177 8.30957C366.21 8.36145 366.242 8.4135 366.274 8.46582C366.288 8.48821 366.302 8.51073 366.315 8.5332L366.397 8.66992L367.774 7.85449L369.15 7.03809C369.134 7.01056 369.117 6.98348 369.101 6.95605C368.546 6.03232 367.911 5.16336 367.202 4.36035ZM362.146 2.22559L361.33 3.60254L361.467 3.68457C361.489 3.69823 361.512 3.71181 361.534 3.72559C361.587 3.75778 361.639 3.7904 361.69 3.82324C361.737 3.85261 361.783 3.88223 361.829 3.91211C361.892 3.95292 361.954 3.99437 362.017 4.03613C362.04 4.05194 362.063 4.06804 362.087 4.08398C362.148 4.12584 362.21 4.16816 362.271 4.21094C362.315 4.24236 362.36 4.27374 362.404 4.30566C362.446 4.33576 362.488 4.36595 362.529 4.39648C362.585 4.43718 362.64 4.47807 362.694 4.51953C362.724 4.54212 362.754 4.56508 362.783 4.58789C362.847 4.63744 362.911 4.68768 362.975 4.73828C363.002 4.76023 363.029 4.78254 363.057 4.80469C363.11 4.84809 363.164 4.8914 363.217 4.93555C363.254 4.96692 363.292 4.99853 363.329 5.03027C363.386 5.07905 363.443 5.12808 363.5 5.17773C363.508 5.18437 363.515 5.19159 363.522 5.19824L364.581 3.99805L364.774 3.7793L365.11 3.39844V3.39746L365.64 2.79785C364.837 2.08939 363.968 1.45373 363.044 0.899414C363.017 0.882954 362.989 0.865924 362.962 0.849609L362.146 2.22559ZM357.492 0.381836L357.145 1.94434C357.165 1.94883 357.185 1.95343 357.205 1.95801C357.246 1.96734 357.287 1.97664 357.328 1.98633C357.413 2.00634 357.497 2.02733 357.581 2.04883C357.597 2.05284 357.612 2.05746 357.628 2.06152C357.723 2.08611 357.817 2.11124 357.911 2.1377C357.941 2.14605 357.97 2.15455 358 2.16309C358.07 2.18335 358.14 2.20429 358.21 2.22559C358.252 2.23849 358.295 2.25039 358.337 2.26367C358.534 2.32569 358.728 2.39276 358.921 2.46289C358.942 2.47046 358.963 2.47769 358.983 2.48535C359.063 2.51454 359.141 2.54466 359.22 2.5752C359.257 2.58951 359.293 2.60355 359.33 2.61816C359.39 2.64191 359.449 2.66689 359.508 2.69141C359.556 2.71125 359.604 2.73064 359.651 2.75098C359.674 2.76072 359.697 2.77042 359.72 2.78027L360.356 1.3125L360.992 -0.154297C360.965 -0.166058 360.938 -0.178801 360.911 -0.19043C359.948 -0.60214 358.94 -0.930194 357.897 -1.16602C357.878 -1.17034 357.859 -1.17348 357.84 -1.17773L357.492 0.381836ZM354 1.59961C354.123 1.59961 354.246 1.60045 354.368 1.60352C354.385 1.60395 354.403 1.60497 354.42 1.60547C354.52 1.60833 354.62 1.61327 354.72 1.61816C354.767 1.62047 354.814 1.62322 354.86 1.62598C354.923 1.62968 354.986 1.63319 355.049 1.6377C355.11 1.64213 355.172 1.64713 355.233 1.65234C355.275 1.65585 355.316 1.65923 355.357 1.66309L355.507 0.0703125L355.655 -1.52148C355.594 -1.52719 355.533 -1.53301 355.472 -1.53809C354.986 -1.57834 354.495 -1.59961 354 -1.59961V1.59961ZM352.492 -1.59961V1.59961H354V-1.59961H352.492ZM347.468 -1.59961V1.59961H350.482V-1.59961H347.468ZM342.443 -1.59961V1.59961H345.458V-1.59961H342.443ZM337.418 -1.59961V1.59961H340.434V-1.59961H337.418ZM332.394 -1.59961V1.59961H335.408V-1.59961H332.394ZM327.369 -1.59961V1.59961H330.384V-1.59961H327.369ZM322.345 -1.59961V1.59961H325.359V-1.59961H322.345ZM317.319 -1.59961V1.59961H320.335V-1.59961H317.319ZM312.295 -1.59961V1.59961H315.31V-1.59961H312.295ZM307.271 -1.59961V1.59961H310.285V-1.59961H307.271ZM302.246 -1.59961V1.59961H305.261V-1.59961H302.246ZM297.221 -1.59961V1.59961H300.235V-1.59961H297.221ZM292.196 -1.59961V1.59961H295.211V-1.59961H292.196ZM287.172 -1.59961V1.59961H290.187V-1.59961H287.172ZM282.146 -1.59961V1.59961H285.162V-1.59961H282.146ZM277.122 -1.59961V1.59961H280.137V-1.59961H277.122ZM272.098 -1.59961V1.59961H275.112V-1.59961H272.098ZM267.073 -1.59961V1.59961H270.088V-1.59961H267.073ZM262.048 -1.59961V1.59961H265.062V-1.59961H262.048ZM257.023 -1.59961V1.59961H260.038V-1.59961H257.023ZM251.999 -1.59961V1.59961H255.014V-1.59961H251.999ZM246.974 -1.59961V1.59961H249.989V-1.59961H246.974ZM241.949 -1.59961V1.59961H244.964V-1.59961H241.949ZM236.925 -1.59961V1.59961H239.939V-1.59961H236.925ZM231.9 -1.59961V1.59961H234.915V-1.59961H231.9ZM226.875 -1.59961V1.59961H229.89V-1.59961H226.875ZM221.851 -1.59961V1.59961H224.865V-1.59961H221.851ZM216.826 -1.59961V1.59961H219.841V-1.59961H216.826ZM211.801 -1.59961V1.59961H214.816V-1.59961H211.801ZM206.776 -1.59961V1.59961H209.791V-1.59961H206.776ZM201.752 -1.59961V1.59961H204.767V-1.59961H201.752ZM196.728 -1.59961V1.59961H199.742V-1.59961H196.728ZM191.702 -1.59961V1.59961H194.718V-1.59961H191.702ZM186.678 -1.59961V1.59961H189.692V-1.59961H186.678ZM181.653 -1.59961V1.59961H184.668V-1.59961H181.653ZM176.628 -1.59961V1.59961H179.644V-1.59961H176.628ZM171.604 -1.59961V1.59961H174.618V-1.59961H171.604ZM166.579 -1.59961V1.59961H169.594V-1.59961H166.579ZM161.555 -1.59961V1.59961H164.569V-1.59961H161.555ZM156.529 -1.59961V1.59961H159.545V-1.59961H156.529ZM151.505 -1.59961V1.59961H154.52V-1.59961H151.505ZM146.48 -1.59961V1.59961H149.495V-1.59961H146.48ZM141.456 -1.59961V1.59961H144.471V-1.59961H141.456ZM136.431 -1.59961V1.59961H139.445V-1.59961H136.431ZM131.406 -1.59961V1.59961H134.421V-1.59961H131.406ZM126.382 -1.59961V1.59961H129.396V-1.59961H126.382ZM121.356 -1.59961V1.59961H124.372V-1.59961H121.356ZM116.332 -1.59961V1.59961H119.347V-1.59961H116.332ZM111.308 -1.59961V1.59961H114.322V-1.59961H111.308ZM106.283 -1.59961V1.59961H109.298V-1.59961H106.283ZM101.258 -1.59961V1.59961H104.272V-1.59961H101.258ZM96.2334 -1.59961V1.59961H99.248V-1.59961H96.2334ZM91.209 -1.59961V1.59961H94.2236V-1.59961H91.209ZM86.1836 -1.59961V1.59961H89.1992V-1.59961H86.1836ZM81.1592 -1.59961V1.59961H84.1738V-1.59961H81.1592ZM76.1348 -1.59961V1.59961H79.1494V-1.59961H76.1348ZM71.1104 -1.59961V1.59961H74.125V-1.59961H71.1104ZM66.085 -1.59961V1.59961H69.0996V-1.59961H66.085ZM61.0605 -1.59961V1.59961H64.0752V-1.59961H61.0605ZM56.0361 -1.59961V1.59961H59.0508V-1.59961H56.0361ZM51.0107 -1.59961V1.59961H54.0264V-1.59961H51.0107ZM45.9863 -1.59961V1.59961H49.001V-1.59961H45.9863ZM40.9619 -1.59961V1.59961H43.9766V-1.59961H40.9619ZM35.9375 -1.59961V1.59961H38.9521V-1.59961H35.9375ZM30.9121 -1.59961V1.59961H33.9268V-1.59961H30.9121ZM25.8877 -1.59961V1.59961H28.9023V-1.59961H25.8877ZM20.8633 -1.59961V1.59961H23.8779V-1.59961H20.8633ZM15.8379 -1.59961V1.59961H18.8535V-1.59961H15.8379ZM10.8135 -1.59961V1.59961H13.8281V-1.59961H10.8135ZM5.78906 -1.59961V1.59961H8.80371V-1.59961H5.78906ZM0.764648 -1.59961V1.59961H3.7793V-1.59961H0.764648ZM-4.26074 -1.59961V1.59961H-1.24609V-1.59961H-4.26074ZM-9.28516 -1.59961V1.59961H-6.27051V-1.59961H-9.28516ZM-14.3096 -1.59961V1.59961H-11.2949V-1.59961H-14.3096ZM-19.335 -1.59961V1.59961H-16.3193V-1.59961H-19.335ZM-24.3594 -1.59961V1.59961H-21.3447V-1.59961H-24.3594ZM-29.3838 -1.59961V1.59961H-26.3691V-1.59961H-29.3838ZM-34.4082 -1.59961V1.59961H-31.3936V-1.59961H-34.4082ZM-39.4336 -1.59961V1.59961H-36.4189V-1.59961H-39.4336ZM-44.458 -1.59961V1.59961H-41.4434V-1.59961H-44.458ZM-49.4824 -1.59961V1.59961H-46.4678V-1.59961H-49.4824ZM-53 -1.59961V1.59961H-51.4922V-1.59961H-53Z" fill="#605E68" mask="url(#path-6-inside-2_5743_6942)"/>
<g opacity="0.75">
<path d="M29.1797 36.7998H30.8203C31.2891 36.7998 31.6797 36.4092 31.6797 35.9795C31.6797 35.5107 31.2891 35.1201 30.8203 35.1201H29.1797C28.7109 35.1201 28.3203 35.5107 28.3203 35.9795C28.3203 36.4092 28.7109 36.7998 29.1797 36.7998ZM22.5 27.6201C22.5 28.0889 22.8906 28.4795 23.3203 28.4795H36.6797C37.1094 28.4795 37.5 28.0889 37.5 27.6201C37.5 27.1904 37.1094 26.7998 36.6797 26.7998H23.3203C22.8906 26.7998 22.5 27.1904 22.5 27.6201ZM25.8203 32.6201H34.1797C34.6094 32.6201 35 32.2686 35 31.7998C35 31.3311 34.6094 30.9795 34.1797 30.9795H25.8203C25.3906 30.9795 25 31.3311 25 31.7998C25 32.2686 25.3906 32.6201 25.8203 32.6201Z" fill="white"/>
</g>
<path d="M55.344 39V28.76H52.176V27.08H60.336V28.76H57.216V39H55.344ZM63.2105 39.192C62.6238 39.192 62.1065 39.0907 61.6585 38.888C61.2212 38.6747 60.8798 38.3867 60.6345 38.024C60.3892 37.6507 60.2665 37.2133 60.2665 36.712C60.2665 36.2427 60.3678 35.8213 60.5705 35.448C60.7838 35.0747 61.1092 34.76 61.5465 34.504C61.9838 34.248 62.5332 34.0667 63.1945 33.96L66.2025 33.464V34.888L63.5465 35.352C63.0665 35.4373 62.7145 35.592 62.4905 35.816C62.2665 36.0293 62.1545 36.3067 62.1545 36.648C62.1545 36.9787 62.2772 37.2507 62.5225 37.464C62.7785 37.6667 63.1038 37.768 63.4985 37.768C63.9892 37.768 64.4158 37.6613 64.7785 37.448C65.1518 37.2347 65.4398 36.952 65.6425 36.6C65.8452 36.2373 65.9465 35.8373 65.9465 35.4V33.176C65.9465 32.7493 65.7865 32.4027 65.4665 32.136C65.1572 31.8587 64.7412 31.72 64.2185 31.72C63.7385 31.72 63.3172 31.848 62.9545 32.104C62.6025 32.3493 62.3412 32.6693 62.1705 33.064L60.6665 32.312C60.8265 31.8853 61.0878 31.512 61.4505 31.192C61.8132 30.8613 62.2345 30.6053 62.7145 30.424C63.2052 30.2427 63.7225 30.152 64.2665 30.152C64.9492 30.152 65.5518 30.28 66.0745 30.536C66.6078 30.792 67.0185 31.1493 67.3065 31.608C67.6052 32.056 67.7545 32.5787 67.7545 33.176V39H66.0265V37.432L66.3945 37.48C66.1918 37.832 65.9305 38.136 65.6105 38.392C65.3012 38.648 64.9438 38.8453 64.5385 38.984C64.1438 39.1227 63.7012 39.192 63.2105 39.192ZM69.8685 39V26.888H71.6765V35L70.9725 34.824L75.3085 30.344H77.5645L74.3005 33.816L77.7085 39H75.6285L72.5885 34.408L73.6605 34.264L71.1005 36.984L71.6765 35.784V39H69.8685ZM82.8544 39.192C81.9904 39.192 81.2224 38.9947 80.5504 38.6C79.889 38.1947 79.3717 37.6507 78.9984 36.968C78.625 36.2747 78.4384 35.5013 78.4384 34.648C78.4384 33.7733 78.625 33 78.9984 32.328C79.3824 31.656 79.8944 31.128 80.5344 30.744C81.1744 30.3493 81.8997 30.152 82.7104 30.152C83.361 30.152 83.9424 30.264 84.4544 30.488C84.9664 30.712 85.3984 31.0213 85.7504 31.416C86.1024 31.8 86.369 32.2427 86.5504 32.744C86.7424 33.2453 86.8384 33.7787 86.8384 34.344C86.8384 34.4827 86.833 34.6267 86.8224 34.776C86.8117 34.9253 86.7904 35.064 86.7584 35.192H79.8624V33.752H85.7344L84.8704 34.408C84.977 33.8853 84.9397 33.4213 84.7584 33.016C84.5877 32.6 84.321 32.2747 83.9584 32.04C83.6064 31.7947 83.1904 31.672 82.7104 31.672C82.2304 31.672 81.8037 31.7947 81.4304 32.04C81.057 32.2747 80.769 32.616 80.5664 33.064C80.3637 33.5013 80.2837 34.0347 80.3264 34.664C80.273 35.2507 80.353 35.7627 80.5664 36.2C80.7904 36.6373 81.0997 36.9787 81.4944 37.224C81.8997 37.4693 82.3584 37.592 82.8704 37.592C83.393 37.592 83.8357 37.4747 84.1984 37.24C84.5717 37.0053 84.865 36.7013 85.0784 36.328L86.5504 37.048C86.3797 37.4533 86.113 37.8213 85.7504 38.152C85.3984 38.472 84.9717 38.728 84.4704 38.92C83.9797 39.1013 83.441 39.192 82.8544 39.192ZM92.6029 39.192C91.7709 39.192 91.0242 38.9947 90.3629 38.6C89.7122 38.1947 89.1949 37.6507 88.8109 36.968C88.4375 36.2853 88.2509 35.5173 88.2509 34.664C88.2509 33.8107 88.4429 33.0427 88.8269 32.36C89.2109 31.6773 89.7282 31.1387 90.3789 30.744C91.0295 30.3493 91.7655 30.152 92.5869 30.152C93.2802 30.152 93.8935 30.2907 94.4269 30.568C94.9602 30.8453 95.3815 31.2293 95.6909 31.72L95.4189 32.136V26.888H97.2109V39H95.4989V37.24L95.7069 37.576C95.4082 38.0987 94.9815 38.4987 94.4269 38.776C93.8722 39.0533 93.2642 39.192 92.6029 39.192ZM92.7789 37.512C93.2802 37.512 93.7282 37.3893 94.1229 37.144C94.5282 36.8987 94.8429 36.5627 95.0669 36.136C95.3015 35.6987 95.4189 35.208 95.4189 34.664C95.4189 34.12 95.3015 33.6347 95.0669 33.208C94.8429 32.7813 94.5282 32.4453 94.1229 32.2C93.7282 31.9547 93.2802 31.832 92.7789 31.832C92.2775 31.832 91.8242 31.9547 91.4189 32.2C91.0135 32.4453 90.6989 32.7813 90.4749 33.208C90.2509 33.6347 90.1389 34.12 90.1389 34.664C90.1389 35.208 90.2509 35.6987 90.4749 36.136C90.6989 36.5627 91.0082 36.8987 91.4029 37.144C91.8082 37.3893 92.2669 37.512 92.7789 37.512ZM103.498 39.192C102.666 39.192 101.903 38.9947 101.21 38.6C100.527 38.2053 99.983 37.6667 99.5776 36.984C99.1723 36.3013 98.9696 35.528 98.9696 34.664C98.9696 33.7893 99.1723 33.016 99.5776 32.344C99.983 31.6613 100.527 31.128 101.21 30.744C101.892 30.3493 102.655 30.152 103.498 30.152C104.351 30.152 105.114 30.3493 105.786 30.744C106.468 31.128 107.007 31.6613 107.402 32.344C107.807 33.016 108.01 33.7893 108.01 34.664C108.01 35.5387 107.807 36.3173 107.402 37C106.996 37.6827 106.452 38.2213 105.77 38.616C105.087 39 104.33 39.192 103.498 39.192ZM103.498 37.512C104.01 37.512 104.463 37.3893 104.858 37.144C105.252 36.8987 105.562 36.5627 105.786 36.136C106.02 35.6987 106.138 35.208 106.138 34.664C106.138 34.12 106.02 33.6347 105.786 33.208C105.562 32.7813 105.252 32.4453 104.858 32.2C104.463 31.9547 104.01 31.832 103.498 31.832C102.996 31.832 102.543 31.9547 102.138 32.2C101.743 32.4453 101.428 32.7813 101.194 33.208C100.97 33.6347 100.858 34.12 100.858 34.664C100.858 35.208 100.97 35.6987 101.194 36.136C101.428 36.5627 101.743 36.8987 102.138 37.144C102.543 37.3893 102.996 37.512 103.498 37.512ZM111.715 39L108.739 30.344H110.659L112.931 37.24H112.259L114.579 30.344H116.227L118.531 37.24H117.859L120.147 30.344H122.067L119.075 39H117.443L115.107 31.944H115.699L113.363 39H111.715ZM123.306 39V30.344H125.034V32.04L124.826 31.816C125.039 31.272 125.381 30.8613 125.85 30.584C126.319 30.296 126.863 30.152 127.482 30.152C128.122 30.152 128.687 30.2907 129.178 30.568C129.669 30.8453 130.053 31.2293 130.33 31.72C130.607 32.2107 130.746 32.776 130.746 33.416V39H128.954V33.896C128.954 33.4587 128.874 33.0907 128.714 32.792C128.554 32.4827 128.325 32.248 128.026 32.088C127.738 31.9173 127.407 31.832 127.034 31.832C126.661 31.832 126.325 31.9173 126.026 32.088C125.738 32.248 125.514 32.4827 125.354 32.792C125.194 33.1013 125.114 33.4693 125.114 33.896V39H123.306ZM139.83 39.192C139.083 39.192 138.39 39.0533 137.75 38.776C137.11 38.488 136.566 38.0987 136.118 37.608C135.67 37.1173 135.339 36.552 135.126 35.912L136.726 35.24C137.014 35.976 137.435 36.5413 137.99 36.936C138.545 37.3307 139.185 37.528 139.91 37.528C140.337 37.528 140.71 37.464 141.03 37.336C141.35 37.1973 141.595 37.0053 141.766 36.76C141.947 36.5147 142.038 36.232 142.038 35.912C142.038 35.4747 141.915 35.128 141.67 34.872C141.425 34.616 141.062 34.4133 140.582 34.264L138.342 33.56C137.446 33.2827 136.763 32.8613 136.294 32.296C135.825 31.72 135.59 31.048 135.59 30.28C135.59 29.608 135.755 29.0213 136.086 28.52C136.417 28.008 136.87 27.608 137.446 27.32C138.033 27.032 138.699 26.888 139.446 26.888C140.161 26.888 140.811 27.016 141.398 27.272C141.985 27.5173 142.486 27.8587 142.902 28.296C143.329 28.7333 143.638 29.24 143.83 29.816L142.262 30.504C142.027 29.8747 141.659 29.3893 141.158 29.048C140.667 28.7067 140.097 28.536 139.446 28.536C139.051 28.536 138.705 28.6053 138.406 28.744C138.107 28.872 137.873 29.064 137.702 29.32C137.542 29.5653 137.462 29.8533 137.462 30.184C137.462 30.568 137.585 30.9093 137.83 31.208C138.075 31.5067 138.449 31.7307 138.95 31.88L141.03 32.536C141.979 32.824 142.694 33.24 143.174 33.784C143.654 34.3173 143.894 34.984 143.894 35.784C143.894 36.4453 143.718 37.032 143.366 37.544C143.025 38.056 142.55 38.4613 141.942 38.76C141.334 39.048 140.63 39.192 139.83 39.192ZM148.925 39.192C148.275 39.192 147.704 39.048 147.213 38.76C146.723 38.4613 146.339 38.0507 146.061 37.528C145.795 36.9947 145.661 36.3813 145.661 35.688V30.344H147.469V35.528C147.469 35.9227 147.549 36.2693 147.709 36.568C147.869 36.8667 148.093 37.1013 148.381 37.272C148.669 37.432 149 37.512 149.373 37.512C149.757 37.512 150.093 37.4267 150.381 37.256C150.669 37.0853 150.893 36.8453 151.053 36.536C151.224 36.2267 151.309 35.864 151.309 35.448V30.344H153.101V39H151.389V37.304L151.581 37.528C151.379 38.0613 151.043 38.472 150.573 38.76C150.104 39.048 149.555 39.192 148.925 39.192ZM159.324 39.192C158.46 39.192 157.692 38.9947 157.02 38.6C156.359 38.1947 155.831 37.6507 155.436 36.968C155.052 36.2853 154.86 35.512 154.86 34.648C154.86 33.7947 155.052 33.0267 155.436 32.344C155.82 31.6613 156.348 31.128 157.02 30.744C157.692 30.3493 158.46 30.152 159.324 30.152C159.911 30.152 160.46 30.2587 160.972 30.472C161.484 30.6747 161.927 30.9573 162.3 31.32C162.684 31.6827 162.967 32.104 163.148 32.584L161.564 33.32C161.383 32.872 161.09 32.5147 160.684 32.248C160.29 31.9707 159.836 31.832 159.324 31.832C158.834 31.832 158.391 31.9547 157.996 32.2C157.612 32.4347 157.308 32.7707 157.084 33.208C156.86 33.6347 156.748 34.12 156.748 34.664C156.748 35.208 156.86 35.6987 157.084 36.136C157.308 36.5627 157.612 36.8987 157.996 37.144C158.391 37.3893 158.834 37.512 159.324 37.512C159.847 37.512 160.3 37.3787 160.684 37.112C161.079 36.8347 161.372 36.4667 161.564 36.008L163.148 36.76C162.978 37.2187 162.7 37.6347 162.316 38.008C161.943 38.3707 161.5 38.6587 160.988 38.872C160.476 39.0853 159.922 39.192 159.324 39.192ZM169.027 39.192C168.163 39.192 167.395 38.9947 166.723 38.6C166.062 38.1947 165.534 37.6507 165.139 36.968C164.755 36.2853 164.563 35.512 164.563 34.648C164.563 33.7947 164.755 33.0267 165.139 32.344C165.523 31.6613 166.051 31.128 166.723 30.744C167.395 30.3493 168.163 30.152 169.027 30.152C169.614 30.152 170.163 30.2587 170.675 30.472C171.187 30.6747 171.63 30.9573 172.003 31.32C172.387 31.6827 172.67 32.104 172.851 32.584L171.267 33.32C171.086 32.872 170.793 32.5147 170.387 32.248C169.993 31.9707 169.539 31.832 169.027 31.832C168.537 31.832 168.094 31.9547 167.699 32.2C167.315 32.4347 167.011 32.7707 166.787 33.208C166.563 33.6347 166.451 34.12 166.451 34.664C166.451 35.208 166.563 35.6987 166.787 36.136C167.011 36.5627 167.315 36.8987 167.699 37.144C168.094 37.3893 168.537 37.512 169.027 37.512C169.55 37.512 170.003 37.3787 170.387 37.112C170.782 36.8347 171.075 36.4667 171.267 36.008L172.851 36.76C172.681 37.2187 172.403 37.6347 172.019 38.008C171.646 38.3707 171.203 38.6587 170.691 38.872C170.179 39.0853 169.625 39.192 169.027 39.192ZM178.683 39.192C177.819 39.192 177.051 38.9947 176.379 38.6C175.717 38.1947 175.2 37.6507 174.827 36.968C174.453 36.2747 174.267 35.5013 174.267 34.648C174.267 33.7733 174.453 33 174.827 32.328C175.211 31.656 175.723 31.128 176.363 30.744C177.003 30.3493 177.728 30.152 178.539 30.152C179.189 30.152 179.771 30.264 180.283 30.488C180.795 30.712 181.227 31.0213 181.579 31.416C181.931 31.8 182.197 32.2427 182.378 32.744C182.571 33.2453 182.667 33.7787 182.667 34.344C182.667 34.4827 182.661 34.6267 182.651 34.776C182.64 34.9253 182.619 35.064 182.587 35.192H175.691V33.752H181.562L180.699 34.408C180.805 33.8853 180.768 33.4213 180.587 33.016C180.416 32.6 180.149 32.2747 179.787 32.04C179.435 31.7947 179.019 31.672 178.539 31.672C178.059 31.672 177.632 31.7947 177.259 32.04C176.885 32.2747 176.597 32.616 176.395 33.064C176.192 33.5013 176.112 34.0347 176.155 34.664C176.101 35.2507 176.181 35.7627 176.395 36.2C176.619 36.6373 176.928 36.9787 177.323 37.224C177.728 37.4693 178.187 37.592 178.699 37.592C179.221 37.592 179.664 37.4747 180.027 37.24C180.4 37.0053 180.693 36.7013 180.907 36.328L182.378 37.048C182.208 37.4533 181.941 37.8213 181.579 38.152C181.227 38.472 180.8 38.728 180.299 38.92C179.808 39.1013 179.269 39.192 178.683 39.192ZM187.631 39.192C186.746 39.192 185.967 38.9733 185.295 38.536C184.634 38.0987 184.17 37.512 183.903 36.776L185.295 36.12C185.53 36.6107 185.85 37 186.255 37.288C186.671 37.576 187.13 37.72 187.631 37.72C188.058 37.72 188.404 37.624 188.671 37.432C188.938 37.24 189.071 36.9787 189.071 36.648C189.071 36.4347 189.012 36.264 188.895 36.136C188.778 35.9973 188.628 35.8853 188.447 35.8C188.276 35.7147 188.1 35.6507 187.919 35.608L186.559 35.224C185.812 35.0107 185.252 34.6907 184.879 34.264C184.516 33.8267 184.335 33.32 184.335 32.744C184.335 32.2213 184.468 31.768 184.735 31.384C185.002 30.9893 185.37 30.6853 185.839 30.472C186.308 30.2587 186.836 30.152 187.423 30.152C188.212 30.152 188.916 30.3493 189.535 30.744C190.154 31.128 190.591 31.6667 190.847 32.36L189.455 33.016C189.284 32.6 189.012 32.2693 188.639 32.024C188.276 31.7787 187.866 31.656 187.407 31.656C187.012 31.656 186.698 31.752 186.463 31.944C186.228 32.1253 186.111 32.3653 186.111 32.664C186.111 32.8667 186.164 33.0373 186.271 33.176C186.378 33.304 186.516 33.4107 186.687 33.496C186.858 33.5707 187.034 33.6347 187.215 33.688L188.623 34.104C189.338 34.3067 189.887 34.6267 190.271 35.064C190.655 35.4907 190.847 36.0027 190.847 36.6C190.847 37.112 190.708 37.5653 190.431 37.96C190.164 38.344 189.791 38.648 189.311 38.872C188.831 39.0853 188.271 39.192 187.631 39.192ZM195.819 39.192C194.933 39.192 194.155 38.9733 193.483 38.536C192.821 38.0987 192.357 37.512 192.09 36.776L193.483 36.12C193.717 36.6107 194.037 37 194.443 37.288C194.859 37.576 195.317 37.72 195.819 37.72C196.245 37.72 196.592 37.624 196.859 37.432C197.125 37.24 197.259 36.9787 197.259 36.648C197.259 36.4347 197.2 36.264 197.083 36.136C196.965 35.9973 196.816 35.8853 196.635 35.8C196.464 35.7147 196.288 35.6507 196.107 35.608L194.747 35.224C194 35.0107 193.44 34.6907 193.067 34.264C192.704 33.8267 192.523 33.32 192.523 32.744C192.523 32.2213 192.656 31.768 192.923 31.384C193.189 30.9893 193.557 30.6853 194.027 30.472C194.496 30.2587 195.024 30.152 195.611 30.152C196.4 30.152 197.104 30.3493 197.723 30.744C198.341 31.128 198.779 31.6667 199.035 32.36L197.643 33.016C197.472 32.6 197.2 32.2693 196.827 32.024C196.464 31.7787 196.053 31.656 195.595 31.656C195.2 31.656 194.885 31.752 194.651 31.944C194.416 32.1253 194.299 32.3653 194.299 32.664C194.299 32.8667 194.352 33.0373 194.459 33.176C194.565 33.304 194.704 33.4107 194.875 33.496C195.045 33.5707 195.221 33.6347 195.403 33.688L196.811 34.104C197.525 34.3067 198.075 34.6267 198.459 35.064C198.843 35.4907 199.035 36.0027 199.035 36.6C199.035 37.112 198.896 37.5653 198.619 37.96C198.352 38.344 197.979 38.648 197.499 38.872C197.019 39.0853 196.459 39.192 195.819 39.192ZM203.779 39V27.08H208.115C208.915 27.08 209.619 27.2293 210.227 27.528C210.835 27.816 211.31 28.2427 211.651 28.808C212.003 29.3627 212.179 30.0293 212.179 30.808C212.179 31.6293 211.971 32.3333 211.555 32.92C211.15 33.5067 210.6 33.9333 209.907 34.2L212.659 39H210.515L207.587 33.8L208.819 34.52H205.667V39H203.779ZM205.667 32.84H208.147C208.584 32.84 208.963 32.7547 209.283 32.584C209.603 32.4133 209.848 32.1787 210.019 31.88C210.2 31.5707 210.291 31.208 210.291 30.792C210.291 30.376 210.2 30.0187 210.019 29.72C209.848 29.4107 209.603 29.176 209.283 29.016C208.963 28.8453 208.584 28.76 208.147 28.76H205.667V32.84ZM216.664 39.192C216.077 39.192 215.56 39.0907 215.112 38.888C214.674 38.6747 214.333 38.3867 214.088 38.024C213.842 37.6507 213.72 37.2133 213.72 36.712C213.72 36.2427 213.821 35.8213 214.024 35.448C214.237 35.0747 214.562 34.76 215 34.504C215.437 34.248 215.986 34.0667 216.648 33.96L219.656 33.464V34.888L217 35.352C216.52 35.4373 216.168 35.592 215.944 35.816C215.72 36.0293 215.608 36.3067 215.608 36.648C215.608 36.9787 215.73 37.2507 215.976 37.464C216.232 37.6667 216.557 37.768 216.952 37.768C217.442 37.768 217.869 37.6613 218.232 37.448C218.605 37.2347 218.893 36.952 219.096 36.6C219.298 36.2373 219.4 35.8373 219.4 35.4V33.176C219.4 32.7493 219.24 32.4027 218.92 32.136C218.61 31.8587 218.194 31.72 217.672 31.72C217.192 31.72 216.77 31.848 216.408 32.104C216.056 32.3493 215.794 32.6693 215.624 33.064L214.12 32.312C214.28 31.8853 214.541 31.512 214.904 31.192C215.266 30.8613 215.688 30.6053 216.168 30.424C216.658 30.2427 217.176 30.152 217.72 30.152C218.402 30.152 219.005 30.28 219.528 30.536C220.061 30.792 220.472 31.1493 220.76 31.608C221.058 32.056 221.208 32.5787 221.208 33.176V39H219.48V37.432L219.848 37.48C219.645 37.832 219.384 38.136 219.064 38.392C218.754 38.648 218.397 38.8453 217.992 38.984C217.597 39.1227 217.154 39.192 216.664 39.192ZM226.909 39.096C226.003 39.096 225.299 38.84 224.797 38.328C224.296 37.816 224.045 37.096 224.045 36.168V31.976H222.525V30.344H222.765C223.171 30.344 223.485 30.2267 223.709 29.992C223.933 29.7573 224.045 29.4373 224.045 29.032V28.36H225.853V30.344H227.821V31.976H225.853V36.088C225.853 36.3867 225.901 36.6427 225.997 36.856C226.093 37.0587 226.248 37.2187 226.461 37.336C226.675 37.4427 226.952 37.496 227.293 37.496C227.379 37.496 227.475 37.4907 227.581 37.48C227.688 37.4693 227.789 37.4587 227.885 37.448V39C227.736 39.0213 227.571 39.0427 227.389 39.064C227.208 39.0853 227.048 39.096 226.909 39.096ZM233.558 39.192C232.694 39.192 231.926 38.9947 231.254 38.6C230.592 38.1947 230.075 37.6507 229.702 36.968C229.328 36.2747 229.142 35.5013 229.142 34.648C229.142 33.7733 229.328 33 229.702 32.328C230.086 31.656 230.598 31.128 231.238 30.744C231.878 30.3493 232.603 30.152 233.414 30.152C234.064 30.152 234.646 30.264 235.158 30.488C235.67 30.712 236.102 31.0213 236.454 31.416C236.806 31.8 237.072 32.2427 237.253 32.744C237.446 33.2453 237.542 33.7787 237.542 34.344C237.542 34.4827 237.536 34.6267 237.526 34.776C237.515 34.9253 237.494 35.064 237.462 35.192H230.566V33.752H236.438L235.574 34.408C235.68 33.8853 235.643 33.4213 235.462 33.016C235.291 32.6 235.024 32.2747 234.662 32.04C234.31 31.7947 233.894 31.672 233.414 31.672C232.934 31.672 232.507 31.7947 232.134 32.04C231.76 32.2747 231.472 32.616 231.27 33.064C231.067 33.5013 230.987 34.0347 231.03 34.664C230.976 35.2507 231.056 35.7627 231.27 36.2C231.494 36.6373 231.803 36.9787 232.198 37.224C232.603 37.4693 233.062 37.592 233.574 37.592C234.096 37.592 234.539 37.4747 234.902 37.24C235.275 37.0053 235.568 36.7013 235.782 36.328L237.253 37.048C237.083 37.4533 236.816 37.8213 236.454 38.152C236.102 38.472 235.675 38.728 235.174 38.92C234.683 39.1013 234.144 39.192 233.558 39.192Z" fill="white"/>
</g>
<defs>
<radialGradient id="paint0_radial_5743_6942" cx="0" cy="0" r="1" gradientUnits="userSpaceOnUse" gradientTransform="translate(450 11.52) scale(738 52.48)">
<stop stop-color="white"/>
<stop offset="1" stop-color="white"/>
</radialGradient>
<radialGradient id="paint1_radial_5743_6942" cx="0" cy="0" r="1" gradientUnits="userSpaceOnUse" gradientTransform="translate(567.5 11.52) scale(410.82 52.48)">
<stop stop-color="#1FA8CA" stop-opacity="0.32"/>
<stop offset="1" stop-color="#1FA8CA"/>
</radialGradient>
<radialGradient id="paint2_radial_5743_6942" cx="0" cy="0" r="1" gradientUnits="userSpaceOnUse" gradientTransform="translate(158.5 11.52) rotate(180) scale(346.86 52.48)">
<stop stop-color="#3D3B34"/>
<stop offset="1" stop-color="#332E2C"/>
</radialGradient>
<clipPath id="clip0_5743_6942">
<rect width="900" height="64" rx="16" fill="white"/>
</clipPath>
</defs>
</svg>
