<svg width="900" height="64" viewBox="0 0 900 64" fill="none" xmlns="http://www.w3.org/2000/svg">
<mask id="path-1-inside-1_5838_13142" fill="white">
<path d="M0 16C0 7.16344 7.16344 0 16 0H884C892.837 0 900 7.16344 900 16V48C900 56.8366 892.837 64 884 64H16C7.16346 64 0 56.8366 0 48V16Z"/>
</mask>
<path d="M16 0V1H884V0V-1H16V0ZM900 16H899V48H900H901V16H900ZM884 64V63H16V64V65H884V64ZM0 48H1V16H0H-1V48H0ZM16 64V63C7.71575 63 1 56.2843 1 48H0H-1C-1 57.3888 6.61118 65 16 65V64ZM900 48H899C899 56.2843 892.284 63 884 63V64V65C893.389 65 901 57.3888 901 48H900ZM884 0V1C892.284 1 899 7.71573 899 16H900H901C901 6.61116 893.389 -1 884 -1V0ZM16 0V-1C6.61116 -1 -1 6.61116 -1 16H0H1C1 7.71573 7.71573 1 16 1V0Z" fill="white" mask="url(#path-1-inside-1_5838_13142)"/>
<path d="M0 16C0 7.16344 7.16344 0 16 0H202V64H16C7.16344 64 0 56.8366 0 48V16Z" fill="url(#paint0_radial_5838_13142)"/>
<mask id="path-4-inside-2_5838_13142" fill="white">
<path d="M0 16C0 7.16344 7.16344 0 16 0H202V64H16C7.16344 64 0 56.8366 0 48V16Z"/>
</mask>
<path d="M14.7666 62.3467C14.828 62.3519 14.8895 62.3569 14.9512 62.3613C15.0139 62.3658 15.0767 62.3693 15.1396 62.373C15.1865 62.3758 15.2333 62.3785 15.2803 62.3809C15.3799 62.3858 15.4798 62.3907 15.5801 62.3936C15.5973 62.394 15.6146 62.3951 15.6318 62.3955C15.7542 62.3986 15.8769 62.4004 16 62.4004V65.5996C15.5047 65.5996 15.0139 65.5783 14.5283 65.5381C14.467 65.533 14.4059 65.5272 14.3447 65.5215L14.4932 63.9297L14.5264 63.5732L14.6426 62.3369C14.6838 62.3408 14.7252 62.3432 14.7666 62.3467ZM17.5078 62.4004V65.5996H16V62.4004H17.5078ZM22.5352 62.4004V65.5996H19.5186V62.4004H22.5352ZM27.5625 62.4004V65.5996H24.5459V62.4004H27.5625ZM32.5889 62.4004V65.5996H29.5732V62.4004H32.5889ZM37.6162 62.4004V65.5996H34.5996V62.4004H37.6162ZM42.6436 62.4004V65.5996H39.627V62.4004H42.6436ZM47.6699 62.4004V65.5996H44.6543V62.4004H47.6699ZM52.6973 62.4004V65.5996H49.6807V62.4004H52.6973ZM57.7246 62.4004V65.5996H54.708V62.4004H57.7246ZM62.751 62.4004V65.5996H59.7354V62.4004H62.751ZM67.7783 62.4004V65.5996H64.7617V62.4004H67.7783ZM72.8057 62.4004V65.5996H69.7891V62.4004H72.8057ZM77.832 62.4004V65.5996H74.8164V62.4004H77.832ZM82.8594 62.4004V65.5996H79.8428V62.4004H82.8594ZM87.8867 62.4004V65.5996H84.8701V62.4004H87.8867ZM92.9131 62.4004V65.5996H89.8975V62.4004H92.9131ZM97.9404 62.4004V65.5996H94.9248V62.4004H97.9404ZM102.968 62.4004V65.5996H99.9512V62.4004H102.968ZM107.994 62.4004V65.5996H104.979V62.4004H107.994ZM113.021 62.4004V65.5996H110.006V62.4004H113.021ZM118.049 62.4004V65.5996H115.032V62.4004H118.049ZM123.075 62.4004V65.5996H120.06V62.4004H123.075ZM128.103 62.4004V65.5996H125.087V62.4004H128.103ZM133.13 62.4004V65.5996H130.113V62.4004H133.13ZM138.156 62.4004V65.5996H135.141V62.4004H138.156ZM143.184 62.4004V65.5996H140.168V62.4004H143.184ZM148.211 62.4004V65.5996H145.194V62.4004H148.211ZM153.238 62.4004V65.5996H150.222V62.4004H153.238ZM158.265 62.4004V65.5996H155.249V62.4004H158.265ZM163.292 62.4004V65.5996H160.275V62.4004H163.292ZM168.319 62.4004V65.5996H165.303V62.4004H168.319ZM173.346 62.4004V65.5996H170.33V62.4004H173.346ZM178.373 62.4004V65.5996H175.356V62.4004H178.373ZM183.4 62.4004V65.5996H180.384V62.4004H183.4ZM188.427 62.4004V65.5996H185.411V62.4004H188.427ZM193.454 62.4004V65.5996H190.438V62.4004H193.454ZM198.481 62.4004V65.5996H195.465V62.4004H198.481ZM202 62.4004V65.5996H200.492V62.4004H202ZM10.3486 61.248C10.3902 61.2658 10.4319 61.2834 10.4736 61.3008C10.5388 61.3279 10.6042 61.3547 10.6699 61.3809C10.7066 61.3955 10.7435 61.4095 10.7803 61.4238C10.8588 61.4544 10.9375 61.4845 11.0166 61.5137C11.0374 61.5213 11.0583 61.5286 11.0791 61.5361C11.272 61.6063 11.4664 61.6733 11.6631 61.7354C11.7004 61.7471 11.738 61.7581 11.7754 61.7695C11.85 61.7924 11.9249 61.8143 12 61.8359C12.0296 61.8445 12.0592 61.853 12.0889 61.8613C12.1829 61.8878 12.2773 61.9129 12.3721 61.9375C12.3877 61.9416 12.4033 61.9462 12.4189 61.9502C12.503 61.9717 12.5872 61.9927 12.6719 62.0127C12.7128 62.0224 12.7539 62.0317 12.7949 62.041C12.8152 62.0456 12.8352 62.0512 12.8555 62.0557L12.5078 63.6182L12.1602 65.1777C12.141 65.1735 12.1216 65.1703 12.1025 65.166C11.0599 64.9302 10.0522 64.6021 9.08887 64.1904C9.06166 64.1788 9.03495 64.1661 9.00781 64.1543L9.64355 62.6875L10.2803 61.2197C10.3029 61.2295 10.3259 61.2384 10.3486 61.248ZM6.48926 58.8115C6.54936 58.8644 6.60991 58.9168 6.6709 58.9688C6.70819 59.0005 6.74559 59.0321 6.7832 59.0635C6.83525 59.1069 6.88777 59.1497 6.94043 59.1924C6.96867 59.2153 6.99698 59.2381 7.02539 59.2607C7.08499 59.3083 7.14471 59.3557 7.20508 59.4023C7.23851 59.4282 7.272 59.4539 7.30566 59.4795C7.36033 59.521 7.41543 59.5618 7.4707 59.6025C7.51217 59.6331 7.5539 59.6633 7.5957 59.6934C7.64004 59.7253 7.68478 59.7567 7.72949 59.7881C7.79035 59.8309 7.85154 59.8732 7.91309 59.915C7.93653 59.931 7.95986 59.9471 7.9834 59.9629C8.04342 60.0032 8.10341 60.0436 8.16406 60.083C8.21229 60.1143 8.26095 60.145 8.30957 60.1758C8.36145 60.2086 8.41349 60.2412 8.46582 60.2734C8.50922 60.3001 8.55297 60.3263 8.59668 60.3525C8.62123 60.3673 8.64528 60.3829 8.66992 60.3975L7.85449 61.7744L7.03809 63.1494C7.01056 63.1331 6.98348 63.1161 6.95605 63.0996C6.03241 62.5453 5.16328 61.9096 4.36035 61.2012L5.41895 60.002L5.82715 59.5391L6.47754 58.8018C6.48129 58.8051 6.48551 58.8082 6.48926 58.8115ZM3.64648 55.4023C3.67273 55.4461 3.69889 55.4898 3.72559 55.5332C3.75778 55.5855 3.7904 55.6376 3.82324 55.6895C3.85261 55.7359 3.88223 55.7821 3.91211 55.8281C3.95228 55.89 3.99308 55.9515 4.03418 56.0127C4.05063 56.0372 4.06739 56.0615 4.08398 56.0859C4.12584 56.1475 4.16816 56.2087 4.21094 56.2695C4.23914 56.3097 4.2673 56.3498 4.2959 56.3896C4.32922 56.436 4.36263 56.4823 4.39648 56.5283C4.43718 56.5836 4.47807 56.6387 4.51953 56.6934C4.53665 56.7159 4.55404 56.7383 4.57129 56.7607C4.62313 56.8283 4.67551 56.8953 4.72852 56.9619C4.75433 56.9943 4.78055 57.0264 4.80664 57.0586C4.84931 57.1113 4.89215 57.1638 4.93555 57.2158C4.96366 57.2495 4.99209 57.283 5.02051 57.3164C5.06893 57.3734 5.11771 57.4301 5.16699 57.4863C5.17743 57.4982 5.18776 57.5106 5.19824 57.5225L3.99805 58.5811L3.39844 59.1104L3.39746 59.1094L2.79785 59.6387C2.0894 58.8356 1.45371 57.9668 0.899414 57.043C0.882955 57.0155 0.865923 56.9885 0.849609 56.9609L2.22559 56.1455L3.60254 55.3301C3.61692 55.3543 3.63197 55.3782 3.64648 55.4023ZM1.95801 51.2041C1.96669 51.2423 1.97637 51.2803 1.98535 51.3184C2.03224 51.5172 2.08265 51.7146 2.1377 51.9102C2.14376 51.9317 2.15009 51.9531 2.15625 51.9746C2.18011 52.0579 2.20418 52.141 2.22949 52.2236C2.24096 52.2611 2.25191 52.2986 2.26367 52.3359C2.35595 52.6286 2.4582 52.9169 2.56836 53.2012C2.5849 53.2439 2.60123 53.2866 2.61816 53.3291C2.64435 53.3948 2.67112 53.4602 2.69824 53.5254C2.71483 53.5653 2.73209 53.6048 2.74902 53.6445C2.75968 53.6695 2.76948 53.6948 2.78027 53.7197L1.3125 54.3564L-0.154297 54.9912C-0.166057 54.9641 -0.178802 54.9374 -0.19043 54.9102C-0.602097 53.9468 -0.930246 52.9392 -1.16602 51.8965C-1.17034 51.8774 -1.17348 51.858 -1.17773 51.8389L0.381836 51.4922L1.94434 51.1445C1.94876 51.1644 1.9535 51.1842 1.95801 51.2041ZM1.59961 48C1.59961 48.2411 1.60649 48.4807 1.61816 48.7188C1.62002 48.7566 1.62285 48.7943 1.625 48.832C1.6291 48.9041 1.63254 48.9761 1.6377 49.0479C1.6411 49.0951 1.64556 49.1423 1.64941 49.1895C1.65399 49.2455 1.65787 49.3016 1.66309 49.3574L0.865234 49.4316L0.866211 49.4326L0.0703125 49.5068L-1.52148 49.6543C-1.52718 49.5932 -1.53301 49.532 -1.53809 49.4707C-1.54291 49.4125 -1.54751 49.3542 -1.55176 49.2959C-1.5672 49.0837 -1.57808 48.8705 -1.58594 48.6562C-1.59394 48.4384 -1.59961 48.2197 -1.59961 48V46.4004H1.59961V48ZM1.59961 41.0664V44.2666H-1.59961V41.0664H1.59961ZM1.59961 35.7334V38.9336H-1.59961V35.7334H1.59961ZM1.59961 30.4004V33.5996H-1.59961V30.4004H1.59961ZM1.59961 25.0664V28.2666H-1.59961V25.0664H1.59961ZM1.59961 19.7334V22.9336H-1.59961V19.7334H1.59961ZM1.59961 17.5996H-1.59961V16C-1.59961 15.7711 -1.59462 15.5433 -1.58594 15.3164C-1.57809 15.111 -1.56658 14.9066 -1.55176 14.7031C-1.54665 14.633 -1.54109 14.563 -1.53516 14.4932C-1.53095 14.4436 -1.5261 14.3942 -1.52148 14.3447L0.0703125 14.4932L0.866211 14.5674H0.865234L1.66309 14.6426C1.6596 14.6799 1.6575 14.7174 1.6543 14.7549C1.6487 14.8202 1.64242 14.8856 1.6377 14.9512C1.61282 15.2973 1.59961 15.647 1.59961 16V17.5996ZM1.3125 9.64355L2.78027 10.2803C2.77042 10.303 2.76072 10.3258 2.75098 10.3486C2.73322 10.3902 2.71562 10.4319 2.69824 10.4736C2.67112 10.5388 2.64435 10.6042 2.61816 10.6699C2.60539 10.702 2.59361 10.7344 2.58105 10.7666C2.46964 11.0521 2.36681 11.3418 2.27344 11.6357C2.25867 11.6822 2.2438 11.7287 2.22949 11.7754C2.21221 11.8318 2.19629 11.8886 2.17969 11.9453C2.16568 11.9931 2.15122 12.0408 2.1377 12.0889C2.08343 12.2816 2.03267 12.4759 1.98633 12.6719C1.97664 12.7128 1.96734 12.7539 1.95801 12.7949C1.95343 12.8151 1.94883 12.8353 1.94434 12.8555L0.381836 12.5078L-1.17773 12.1602C-1.17348 12.141 -1.17034 12.1216 -1.16602 12.1025C-0.930194 11.0599 -0.60214 10.0522 -0.19043 9.08887C-0.178801 9.06166 -0.166058 9.03495 -0.154297 9.00781L1.3125 9.64355ZM2.79785 4.36035L3.74805 5.19824L3.99805 5.41895L5.19824 6.47754C5.19159 6.48508 5.18437 6.49245 5.17773 6.5C5.12808 6.55652 5.07905 6.6136 5.03027 6.6709C5.00136 6.70485 4.97293 6.73921 4.94434 6.77344C4.89808 6.8288 4.85207 6.88437 4.80664 6.94043C4.78375 6.96867 4.76096 6.99698 4.73828 7.02539C4.68768 7.0888 4.63744 7.15252 4.58789 7.2168C4.56508 7.24639 4.54212 7.27589 4.51953 7.30566C4.47807 7.36033 4.43718 7.41544 4.39648 7.4707C4.36595 7.51217 4.33576 7.5539 4.30566 7.5957C4.27374 7.64004 4.24236 7.68478 4.21094 7.72949C4.16816 7.79035 4.12584 7.85154 4.08398 7.91309C4.07449 7.92705 4.06511 7.94108 4.05566 7.95508C4.00734 8.02667 3.95917 8.0984 3.91211 8.1709C3.88223 8.21694 3.85261 8.26317 3.82324 8.30957C3.7904 8.36145 3.75778 8.4135 3.72559 8.46582C3.71181 8.48821 3.69823 8.51073 3.68457 8.5332L3.60254 8.66992L2.22559 7.85449L0.849609 7.03809C0.865924 7.01056 0.882954 6.98348 0.899414 6.95605C1.45373 6.03232 2.08939 5.16336 2.79785 4.36035ZM7.85449 2.22559L8.66992 3.60254L8.5332 3.68457C8.51073 3.69823 8.48821 3.71181 8.46582 3.72559C8.4135 3.75778 8.36145 3.7904 8.30957 3.82324C8.26317 3.85261 8.21694 3.88223 8.1709 3.91211C8.10803 3.95292 8.04559 3.99437 7.9834 4.03613C7.95986 4.05194 7.93653 4.06804 7.91309 4.08398C7.85154 4.12584 7.79035 4.16816 7.72949 4.21094C7.68478 4.24236 7.64004 4.27374 7.5957 4.30566C7.5539 4.33576 7.51217 4.36595 7.4707 4.39648C7.41544 4.43718 7.36033 4.47807 7.30566 4.51953C7.27589 4.54212 7.24639 4.56508 7.2168 4.58789C7.15252 4.63744 7.0888 4.68768 7.02539 4.73828C6.99789 4.76023 6.97069 4.78254 6.94336 4.80469C6.88978 4.84809 6.83614 4.8914 6.7832 4.93555C6.74559 4.96692 6.70819 4.99853 6.6709 5.03027C6.6136 5.07905 6.55652 5.12808 6.5 5.17773C6.49245 5.18437 6.48508 5.19159 6.47754 5.19824L5.41895 3.99805L5.22559 3.7793L4.88965 3.39844V3.39746L4.36035 2.79785C5.16336 2.08939 6.03232 1.45373 6.95605 0.899414C6.98348 0.882954 7.01056 0.865924 7.03809 0.849609L7.85449 2.22559ZM12.5078 0.381836L12.8555 1.94434C12.8353 1.94883 12.8151 1.95343 12.7949 1.95801C12.7539 1.96734 12.7128 1.97664 12.6719 1.98633C12.5873 2.00634 12.503 2.02733 12.4189 2.04883C12.4033 2.05284 12.3877 2.05746 12.3721 2.06152C12.2773 2.08611 12.1829 2.11124 12.0889 2.1377C12.0592 2.14605 12.0296 2.15455 12 2.16309C11.9298 2.18335 11.8598 2.20429 11.79 2.22559C11.7478 2.23849 11.7052 2.25039 11.6631 2.26367C11.4665 2.32569 11.272 2.39276 11.0791 2.46289C11.0583 2.47046 11.0374 2.47769 11.0166 2.48535C10.9375 2.51454 10.8588 2.54466 10.7803 2.5752C10.7435 2.58951 10.7066 2.60355 10.6699 2.61816C10.6104 2.64191 10.5514 2.66689 10.4922 2.69141C10.4443 2.71125 10.3963 2.73064 10.3486 2.75098C10.3258 2.76072 10.303 2.77042 10.2803 2.78027L9.64355 1.3125L9.00781 -0.154297C9.03495 -0.166058 9.06166 -0.178801 9.08887 -0.19043C10.0522 -0.60214 11.0599 -0.930194 12.1025 -1.16602C12.1216 -1.17034 12.141 -1.17348 12.1602 -1.17773L12.5078 0.381836ZM16 1.59961C15.8769 1.59961 15.7541 1.60045 15.6318 1.60352C15.6146 1.60395 15.5973 1.60497 15.5801 1.60547C15.4798 1.60833 15.3799 1.61327 15.2803 1.61816C15.2333 1.62047 15.1865 1.62322 15.1396 1.62598C15.0767 1.62968 15.0139 1.63319 14.9512 1.6377C14.8895 1.64213 14.828 1.64713 14.7666 1.65234C14.7252 1.65585 14.6839 1.65923 14.6426 1.66309L14.4932 0.0703125L14.3447 -1.52148C14.4059 -1.52719 14.467 -1.53301 14.5283 -1.53809C15.0139 -1.57834 15.5047 -1.59961 16 -1.59961V1.59961ZM17.5078 -1.59961V1.59961H16V-1.59961H17.5078ZM22.5352 -1.59961V1.59961H19.5186V-1.59961H22.5352ZM27.5625 -1.59961V1.59961H24.5459V-1.59961H27.5625ZM32.5889 -1.59961V1.59961H29.5732V-1.59961H32.5889ZM37.6162 -1.59961V1.59961H34.5996V-1.59961H37.6162ZM42.6436 -1.59961V1.59961H39.627V-1.59961H42.6436ZM47.6699 -1.59961V1.59961H44.6543V-1.59961H47.6699ZM52.6973 -1.59961V1.59961H49.6807V-1.59961H52.6973ZM57.7246 -1.59961V1.59961H54.708V-1.59961H57.7246ZM62.751 -1.59961V1.59961H59.7354V-1.59961H62.751ZM67.7783 -1.59961V1.59961H64.7617V-1.59961H67.7783ZM72.8057 -1.59961V1.59961H69.7891V-1.59961H72.8057ZM77.832 -1.59961V1.59961H74.8164V-1.59961H77.832ZM82.8594 -1.59961V1.59961H79.8438V-1.59961H82.8594ZM87.8867 -1.59961V1.59961H84.8701V-1.59961H87.8867ZM92.9131 -1.59961V1.59961H89.8975V-1.59961H92.9131ZM97.9404 -1.59961V1.59961H94.9248V-1.59961H97.9404ZM102.968 -1.59961V1.59961H99.9512V-1.59961H102.968ZM107.994 -1.59961V1.59961H104.979V-1.59961H107.994ZM113.021 -1.59961V1.59961H110.006V-1.59961H113.021ZM118.049 -1.59961V1.59961H115.032V-1.59961H118.049ZM123.075 -1.59961V1.59961H120.06V-1.59961H123.075ZM128.103 -1.59961V1.59961H125.087V-1.59961H128.103ZM133.13 -1.59961V1.59961H130.113V-1.59961H133.13ZM138.157 -1.59961V1.59961H135.141V-1.59961H138.157ZM143.184 -1.59961V1.59961H140.168V-1.59961H143.184ZM148.211 -1.59961V1.59961H145.194V-1.59961H148.211ZM153.238 -1.59961V1.59961H150.222V-1.59961H153.238ZM158.265 -1.59961V1.59961H155.249V-1.59961H158.265ZM163.292 -1.59961V1.59961H160.275V-1.59961H163.292ZM168.319 -1.59961V1.59961H165.303V-1.59961H168.319ZM173.346 -1.59961V1.59961H170.33V-1.59961H173.346ZM178.373 -1.59961V1.59961H175.356V-1.59961H178.373ZM183.4 -1.59961V1.59961H180.384V-1.59961H183.4ZM188.427 -1.59961V1.59961H185.411V-1.59961H188.427ZM193.454 -1.59961V1.59961H190.438V-1.59961H193.454ZM198.481 -1.59961V1.59961H195.465V-1.59961H198.481ZM202 -1.59961V1.59961H200.492V-1.59961H202Z" fill="#605E68" mask="url(#path-4-inside-2_5838_13142)"/>
<g opacity="0.75">
<path d="M22 23.4795C17.3906 23.4795 13.6797 27.1904 13.6797 31.7998C13.6797 36.4092 17.3906 40.1201 22 40.1201C26.6094 40.1201 30.3203 36.4092 30.3203 31.7998C30.3203 27.1904 26.6094 23.4795 22 23.4795ZM22.7422 36.6045V36.917C22.7422 37.3076 22.3906 37.6201 22 37.6201C21.6094 37.6201 21.2578 37.3076 21.2578 36.917V36.5654C20.75 36.4092 19.6562 36.0576 19.0312 34.8076C18.8359 34.417 19.0312 33.9873 19.3828 33.8311L19.4609 33.792C19.8125 33.6357 20.1641 33.792 20.3594 34.1045C20.6328 34.6123 21.1406 35.2764 22.1172 35.2764C22.8984 35.2764 23.7578 34.8467 23.7578 33.9092C23.7578 33.1279 23.2109 32.6982 21.8828 32.2295C20.9453 31.917 19.0703 31.3701 19.0703 29.4561C19.0703 29.3779 19.1094 27.4639 21.2578 26.9951V26.6826C21.2578 26.292 21.6094 25.9795 22 25.9795C22.3906 25.9795 22.7422 26.292 22.7422 26.6826V26.9951C23.6406 27.1514 24.1875 27.6592 24.5391 28.0889C24.8125 28.4404 24.6562 28.9873 24.2266 29.1826C23.9141 29.2998 23.6016 29.1826 23.3672 28.9482C23.1328 28.6357 22.7422 28.2842 22.0391 28.2842C21.4531 28.2842 20.5547 28.5967 20.5547 29.4561C20.5547 30.2373 21.2578 30.5498 22.7422 31.0576C24.7344 31.7217 25.2422 32.7373 25.2422 33.9092C25.2422 36.0967 23.1719 36.5264 22.7422 36.6045Z" fill="white"/>
</g>
<path d="M45.232 39V27.08H49.136C50.3733 27.08 51.4453 27.3307 52.352 27.832C53.2693 28.3227 53.9787 29.016 54.48 29.912C54.9813 30.808 55.232 31.848 55.232 33.032C55.232 34.2053 54.9813 35.2453 54.48 36.152C53.9787 37.048 53.2693 37.7467 52.352 38.248C51.4453 38.7493 50.3733 39 49.136 39H45.232ZM47.12 37.32H49.168C50.0107 37.32 50.7413 37.144 51.36 36.792C51.9893 36.44 52.4747 35.944 52.816 35.304C53.1573 34.664 53.328 33.9067 53.328 33.032C53.328 32.1573 53.152 31.4053 52.8 30.776C52.4587 30.136 51.9787 29.64 51.36 29.288C50.7413 28.936 50.0107 28.76 49.168 28.76H47.12V37.32ZM60.9794 39.192C60.1154 39.192 59.3474 38.9947 58.6754 38.6C58.014 38.1947 57.4967 37.6507 57.1234 36.968C56.75 36.2747 56.5634 35.5013 56.5634 34.648C56.5634 33.7733 56.75 33 57.1234 32.328C57.5074 31.656 58.0194 31.128 58.6594 30.744C59.2994 30.3493 60.0247 30.152 60.8354 30.152C61.486 30.152 62.0674 30.264 62.5794 30.488C63.0914 30.712 63.5234 31.0213 63.8754 31.416C64.2274 31.8 64.494 32.2427 64.6754 32.744C64.8674 33.2453 64.9634 33.7787 64.9634 34.344C64.9634 34.4827 64.958 34.6267 64.9474 34.776C64.9367 34.9253 64.9154 35.064 64.8834 35.192H57.9874V33.752H63.8594L62.9954 34.408C63.102 33.8853 63.0647 33.4213 62.8834 33.016C62.7127 32.6 62.446 32.2747 62.0834 32.04C61.7314 31.7947 61.3154 31.672 60.8354 31.672C60.3554 31.672 59.9287 31.7947 59.5554 32.04C59.182 32.2747 58.894 32.616 58.6914 33.064C58.4887 33.5013 58.4087 34.0347 58.4514 34.664C58.398 35.2507 58.478 35.7627 58.6914 36.2C58.9154 36.6373 59.2247 36.9787 59.6194 37.224C60.0247 37.4693 60.4834 37.592 60.9954 37.592C61.518 37.592 61.9607 37.4747 62.3234 37.24C62.6967 37.0053 62.99 36.7013 63.2034 36.328L64.6754 37.048C64.5047 37.4533 64.238 37.8213 63.8754 38.152C63.5234 38.472 63.0967 38.728 62.5954 38.92C62.1047 39.1013 61.566 39.192 60.9794 39.192ZM70.7919 39.192C69.9279 39.192 69.1599 38.9947 68.4879 38.6C67.8265 38.1947 67.3092 37.6507 66.9359 36.968C66.5625 36.2747 66.3759 35.5013 66.3759 34.648C66.3759 33.7733 66.5625 33 66.9359 32.328C67.3199 31.656 67.8319 31.128 68.4719 30.744C69.1119 30.3493 69.8372 30.152 70.6479 30.152C71.2985 30.152 71.8799 30.264 72.3919 30.488C72.9039 30.712 73.3359 31.0213 73.6879 31.416C74.0399 31.8 74.3065 32.2427 74.4879 32.744C74.6799 33.2453 74.7759 33.7787 74.7759 34.344C74.7759 34.4827 74.7705 34.6267 74.7599 34.776C74.7492 34.9253 74.7279 35.064 74.6959 35.192H67.7999V33.752H73.6719L72.8079 34.408C72.9145 33.8853 72.8772 33.4213 72.6959 33.016C72.5252 32.6 72.2585 32.2747 71.8959 32.04C71.5439 31.7947 71.1279 31.672 70.6479 31.672C70.1679 31.672 69.7412 31.7947 69.3679 32.04C68.9945 32.2747 68.7065 32.616 68.5039 33.064C68.3012 33.5013 68.2212 34.0347 68.2639 34.664C68.2105 35.2507 68.2905 35.7627 68.5039 36.2C68.7279 36.6373 69.0372 36.9787 69.4319 37.224C69.8372 37.4693 70.2959 37.592 70.8079 37.592C71.3305 37.592 71.7732 37.4747 72.1359 37.24C72.5092 37.0053 72.8025 36.7013 73.0159 36.328L74.4879 37.048C74.3172 37.4533 74.0505 37.8213 73.6879 38.152C73.3359 38.472 72.9092 38.728 72.4079 38.92C71.9172 39.1013 71.3785 39.192 70.7919 39.192ZM76.5404 42.2V30.344H78.2684V32.136L78.0604 31.72C78.3804 31.2293 78.807 30.8453 79.3404 30.568C79.8737 30.2907 80.4817 30.152 81.1644 30.152C81.9857 30.152 82.7217 30.3493 83.3724 30.744C84.0337 31.1387 84.551 31.6773 84.9244 32.36C85.3084 33.0427 85.5004 33.8107 85.5004 34.664C85.5004 35.5173 85.3084 36.2853 84.9244 36.968C84.551 37.6507 84.039 38.1947 83.3884 38.6C82.7377 38.9947 81.9964 39.192 81.1644 39.192C80.4924 39.192 79.879 39.0533 79.3244 38.776C78.7804 38.4987 78.359 38.0987 78.0604 37.576L78.3484 37.24V42.2H76.5404ZM80.9884 37.512C81.5004 37.512 81.9537 37.3893 82.3484 37.144C82.743 36.8987 83.0524 36.5627 83.2764 36.136C83.511 35.6987 83.6284 35.208 83.6284 34.664C83.6284 34.12 83.511 33.6347 83.2764 33.208C83.0524 32.7813 82.743 32.4453 82.3484 32.2C81.9537 31.9547 81.5004 31.832 80.9884 31.832C80.487 31.832 80.0337 31.9547 79.6284 32.2C79.2337 32.4453 78.919 32.7813 78.6844 33.208C78.4604 33.6347 78.3484 34.12 78.3484 34.664C78.3484 35.208 78.4604 35.6987 78.6844 36.136C78.919 36.5627 79.2337 36.8987 79.6284 37.144C80.0337 37.3893 80.487 37.512 80.9884 37.512ZM90.232 39V27.08H92.12V39H90.232ZM94.4154 39V30.344H96.1434V32.04L95.9354 31.816C96.1487 31.272 96.49 30.8613 96.9594 30.584C97.4287 30.296 97.9727 30.152 98.5914 30.152C99.2314 30.152 99.7967 30.2907 100.287 30.568C100.778 30.8453 101.162 31.2293 101.439 31.72C101.717 32.2107 101.855 32.776 101.855 33.416V39H100.063V33.896C100.063 33.4587 99.9834 33.0907 99.8234 32.792C99.6634 32.4827 99.434 32.248 99.1354 32.088C98.8474 31.9173 98.5167 31.832 98.1434 31.832C97.77 31.832 97.434 31.9173 97.1354 32.088C96.8474 32.248 96.6234 32.4827 96.4634 32.792C96.3034 33.1013 96.2234 33.4693 96.2234 33.896V39H94.4154ZM106.146 39L102.754 30.344H104.722L107.33 37.4H106.61L109.218 30.344H111.202L107.794 39H106.146ZM116.339 39.192C115.475 39.192 114.707 38.9947 114.035 38.6C113.373 38.1947 112.856 37.6507 112.483 36.968C112.109 36.2747 111.923 35.5013 111.923 34.648C111.923 33.7733 112.109 33 112.483 32.328C112.867 31.656 113.379 31.128 114.019 30.744C114.659 30.3493 115.384 30.152 116.195 30.152C116.845 30.152 117.427 30.264 117.939 30.488C118.451 30.712 118.883 31.0213 119.235 31.416C119.587 31.8 119.853 32.2427 120.035 32.744C120.227 33.2453 120.323 33.7787 120.323 34.344C120.323 34.4827 120.317 34.6267 120.307 34.776C120.296 34.9253 120.275 35.064 120.243 35.192H113.347V33.752H119.219L118.355 34.408C118.461 33.8853 118.424 33.4213 118.243 33.016C118.072 32.6 117.805 32.2747 117.443 32.04C117.091 31.7947 116.675 31.672 116.195 31.672C115.715 31.672 115.288 31.7947 114.915 32.04C114.541 32.2747 114.253 32.616 114.051 33.064C113.848 33.5013 113.768 34.0347 113.811 34.664C113.757 35.2507 113.837 35.7627 114.051 36.2C114.275 36.6373 114.584 36.9787 114.979 37.224C115.384 37.4693 115.843 37.592 116.355 37.592C116.877 37.592 117.32 37.4747 117.683 37.24C118.056 37.0053 118.349 36.7013 118.563 36.328L120.035 37.048C119.864 37.4533 119.597 37.8213 119.235 38.152C118.883 38.472 118.456 38.728 117.955 38.92C117.464 39.1013 116.925 39.192 116.339 39.192ZM125.287 39.192C124.402 39.192 123.623 38.9733 122.951 38.536C122.29 38.0987 121.826 37.512 121.559 36.776L122.951 36.12C123.186 36.6107 123.506 37 123.911 37.288C124.327 37.576 124.786 37.72 125.287 37.72C125.714 37.72 126.061 37.624 126.327 37.432C126.594 37.24 126.727 36.9787 126.727 36.648C126.727 36.4347 126.669 36.264 126.551 36.136C126.434 35.9973 126.285 35.8853 126.103 35.8C125.933 35.7147 125.757 35.6507 125.575 35.608L124.215 35.224C123.469 35.0107 122.909 34.6907 122.535 34.264C122.173 33.8267 121.991 33.32 121.991 32.744C121.991 32.2213 122.125 31.768 122.391 31.384C122.658 30.9893 123.026 30.6853 123.495 30.472C123.965 30.2587 124.493 30.152 125.079 30.152C125.869 30.152 126.573 30.3493 127.191 30.744C127.81 31.128 128.247 31.6667 128.503 32.36L127.111 33.016C126.941 32.6 126.669 32.2693 126.295 32.024C125.933 31.7787 125.522 31.656 125.063 31.656C124.669 31.656 124.354 31.752 124.119 31.944C123.885 32.1253 123.767 32.3653 123.767 32.664C123.767 32.8667 123.821 33.0373 123.927 33.176C124.034 33.304 124.173 33.4107 124.343 33.496C124.514 33.5707 124.69 33.6347 124.871 33.688L126.279 34.104C126.994 34.3067 127.543 34.6267 127.927 35.064C128.311 35.4907 128.503 36.0027 128.503 36.6C128.503 37.112 128.365 37.5653 128.087 37.96C127.821 38.344 127.447 38.648 126.967 38.872C126.487 39.0853 125.927 39.192 125.287 39.192ZM134.019 39.096C133.112 39.096 132.408 38.84 131.907 38.328C131.405 37.816 131.155 37.096 131.155 36.168V31.976H129.635V30.344H129.875C130.28 30.344 130.595 30.2267 130.819 29.992C131.043 29.7573 131.155 29.4373 131.155 29.032V28.36H132.963V30.344H134.931V31.976H132.963V36.088C132.963 36.3867 133.011 36.6427 133.107 36.856C133.203 37.0587 133.357 37.2187 133.571 37.336C133.784 37.4427 134.061 37.496 134.403 37.496C134.488 37.496 134.584 37.4907 134.691 37.48C134.797 37.4693 134.899 37.4587 134.995 37.448V39C134.845 39.0213 134.68 39.0427 134.499 39.064C134.317 39.0853 134.157 39.096 134.019 39.096ZM136.759 39V30.344H138.567V39H136.759ZM136.759 29.16V27.08H138.567V29.16H136.759ZM144.857 42.52C144.228 42.52 143.646 42.4187 143.113 42.216C142.58 42.0133 142.121 41.7307 141.737 41.368C141.353 41.016 141.065 40.6 140.873 40.12L142.537 39.432C142.686 39.8373 142.958 40.1733 143.353 40.44C143.758 40.7067 144.254 40.84 144.841 40.84C145.3 40.84 145.71 40.7493 146.073 40.568C146.436 40.3973 146.724 40.1413 146.937 39.8C147.15 39.4693 147.257 39.0693 147.257 38.6V36.648L147.577 37.016C147.278 37.5707 146.862 37.992 146.329 38.28C145.806 38.568 145.214 38.712 144.553 38.712C143.753 38.712 143.033 38.5253 142.393 38.152C141.753 37.7787 141.246 37.2667 140.873 36.616C140.51 35.9653 140.329 35.2347 140.329 34.424C140.329 33.6027 140.51 32.872 140.873 32.232C141.246 31.592 141.748 31.0853 142.377 30.712C143.006 30.3387 143.726 30.152 144.537 30.152C145.198 30.152 145.785 30.296 146.297 30.584C146.82 30.8613 147.246 31.2667 147.577 31.8L147.337 32.248V30.344H149.049V38.6C149.049 39.3467 148.868 40.0133 148.505 40.6C148.153 41.1973 147.662 41.6667 147.033 42.008C146.404 42.3493 145.678 42.52 144.857 42.52ZM144.761 37.032C145.241 37.032 145.668 36.92 146.041 36.696C146.414 36.4613 146.708 36.152 146.921 35.768C147.145 35.3733 147.257 34.9307 147.257 34.44C147.257 33.9493 147.145 33.5067 146.921 33.112C146.697 32.7173 146.398 32.408 146.025 32.184C145.652 31.9493 145.23 31.832 144.761 31.832C144.27 31.832 143.833 31.9493 143.449 32.184C143.065 32.408 142.761 32.7173 142.537 33.112C142.324 33.496 142.217 33.9387 142.217 34.44C142.217 34.92 142.324 35.3573 142.537 35.752C142.761 36.1467 143.065 36.4613 143.449 36.696C143.833 36.92 144.27 37.032 144.761 37.032ZM153.757 39.192C153.171 39.192 152.653 39.0907 152.205 38.888C151.768 38.6747 151.427 38.3867 151.181 38.024C150.936 37.6507 150.813 37.2133 150.813 36.712C150.813 36.2427 150.915 35.8213 151.117 35.448C151.331 35.0747 151.656 34.76 152.093 34.504C152.531 34.248 153.08 34.0667 153.741 33.96L156.749 33.464V34.888L154.093 35.352C153.613 35.4373 153.261 35.592 153.037 35.816C152.813 36.0293 152.701 36.3067 152.701 36.648C152.701 36.9787 152.824 37.2507 153.069 37.464C153.325 37.6667 153.651 37.768 154.045 37.768C154.536 37.768 154.963 37.6613 155.325 37.448C155.699 37.2347 155.987 36.952 156.189 36.6C156.392 36.2373 156.493 35.8373 156.493 35.4V33.176C156.493 32.7493 156.333 32.4027 156.013 32.136C155.704 31.8587 155.288 31.72 154.765 31.72C154.285 31.72 153.864 31.848 153.501 32.104C153.149 32.3493 152.888 32.6693 152.717 33.064L151.213 32.312C151.373 31.8853 151.635 31.512 151.997 31.192C152.36 30.8613 152.781 30.6053 153.261 30.424C153.752 30.2427 154.269 30.152 154.813 30.152C155.496 30.152 156.099 30.28 156.621 30.536C157.155 30.792 157.565 31.1493 157.853 31.608C158.152 32.056 158.301 32.5787 158.301 33.176V39H156.573V37.432L156.941 37.48C156.739 37.832 156.477 38.136 156.157 38.392C155.848 38.648 155.491 38.8453 155.085 38.984C154.691 39.1227 154.248 39.192 153.757 39.192ZM164.003 39.096C163.096 39.096 162.392 38.84 161.891 38.328C161.39 37.816 161.139 37.096 161.139 36.168V31.976H159.619V30.344H159.859C160.264 30.344 160.579 30.2267 160.803 29.992C161.027 29.7573 161.139 29.4373 161.139 29.032V28.36H162.947V30.344H164.915V31.976H162.947V36.088C162.947 36.3867 162.995 36.6427 163.091 36.856C163.187 37.0587 163.342 37.2187 163.555 37.336C163.768 37.4427 164.046 37.496 164.387 37.496C164.472 37.496 164.568 37.4907 164.675 37.48C164.782 37.4693 164.883 37.4587 164.979 37.448V39C164.83 39.0213 164.664 39.0427 164.483 39.064C164.302 39.0853 164.142 39.096 164.003 39.096ZM166.743 39V30.344H168.552V39H166.743ZM166.743 29.16V27.08H168.552V29.16H166.743ZM174.841 39.192C174.009 39.192 173.247 38.9947 172.553 38.6C171.871 38.2053 171.327 37.6667 170.921 36.984C170.516 36.3013 170.313 35.528 170.313 34.664C170.313 33.7893 170.516 33.016 170.921 32.344C171.327 31.6613 171.871 31.128 172.553 30.744C173.236 30.3493 173.999 30.152 174.841 30.152C175.695 30.152 176.457 30.3493 177.129 30.744C177.812 31.128 178.351 31.6613 178.745 32.344C179.151 33.016 179.353 33.7893 179.353 34.664C179.353 35.5387 179.151 36.3173 178.745 37C178.34 37.6827 177.796 38.2213 177.113 38.616C176.431 39 175.673 39.192 174.841 39.192ZM174.841 37.512C175.353 37.512 175.807 37.3893 176.201 37.144C176.596 36.8987 176.905 36.5627 177.129 36.136C177.364 35.6987 177.481 35.208 177.481 34.664C177.481 34.12 177.364 33.6347 177.129 33.208C176.905 32.7813 176.596 32.4453 176.201 32.2C175.807 31.9547 175.353 31.832 174.841 31.832C174.34 31.832 173.887 31.9547 173.481 32.2C173.087 32.4453 172.772 32.7813 172.537 33.208C172.313 33.6347 172.201 34.12 172.201 34.664C172.201 35.208 172.313 35.6987 172.537 36.136C172.772 36.5627 173.087 36.8987 173.481 37.144C173.887 37.3893 174.34 37.512 174.841 37.512ZM181.118 39V30.344H182.847V32.04L182.639 31.816C182.852 31.272 183.193 30.8613 183.663 30.584C184.132 30.296 184.676 30.152 185.295 30.152C185.935 30.152 186.5 30.2907 186.991 30.568C187.481 30.8453 187.865 31.2293 188.142 31.72C188.42 32.2107 188.559 32.776 188.559 33.416V39H186.767V33.896C186.767 33.4587 186.687 33.0907 186.527 32.792C186.367 32.4827 186.137 32.248 185.839 32.088C185.551 31.9173 185.22 31.832 184.847 31.832C184.473 31.832 184.137 31.9173 183.839 32.088C183.551 32.248 183.327 32.4827 183.167 32.792C183.007 33.1013 182.927 33.4693 182.927 33.896V39H181.118Z" fill="white"/>
<path d="M202 0H609C617.837 0 625 7.16344 625 16V48C625 56.8366 617.837 64 609 64H202V0Z" fill="url(#paint1_radial_5838_13142)"/>
<defs>
<radialGradient id="paint0_radial_5838_13142" cx="0" cy="0" r="1" gradientUnits="userSpaceOnUse" gradientTransform="translate(101 11.52) scale(165.64 52.48)">
<stop stop-color="#3D3B34"/>
<stop offset="1" stop-color="#332E2C"/>
</radialGradient>
<radialGradient id="paint1_radial_5838_13142" cx="0" cy="0" r="1" gradientUnits="userSpaceOnUse" gradientTransform="translate(413.5 11.52) scale(346.86 52.48)">
<stop stop-color="#1FA8CA" stop-opacity="0.32"/>
<stop offset="1" stop-color="#1FA8CA"/>
</radialGradient>
</defs>
</svg>
