<svg width="161" height="47" viewBox="0 0 161 47" fill="none" xmlns="http://www.w3.org/2000/svg">
<g filter="url(#filter0_dddi_5743_10286)">
<g clip-path="url(#clip0_5743_10286)">
<rect x="3" y="1" width="155" height="40" rx="10" fill="#1FA8CA"/>
<g filter="url(#filter1_dddddddd_5743_10286)">
<rect x="3" y="1" width="1" height="1" fill="white" fill-opacity="0.01" shape-rendering="crispEdges"/>
</g>
<g filter="url(#filter2_ddddddddf_5743_10286)">
<rect width="1" height="1" transform="translate(3 2)" fill="white" fill-opacity="0.01"/>
</g>
<mask id="mask0_5743_10286" style="mask-type:alpha" maskUnits="userSpaceOnUse" x="6" y="1" width="162" height="37">
<rect x="6" y="1" width="162" height="37" fill="white"/>
</mask>
<g mask="url(#mask0_5743_10286)">
<rect opacity="0.24" x="6" y="3" width="149" height="36" rx="15" fill="url(#paint0_linear_5743_10286)"/>
<path d="M41.5703 18.4929C41.5173 18.0223 41.2985 17.6577 40.9141 17.3991C40.5296 17.1373 40.0457 17.0064 39.4624 17.0064C39.0447 17.0064 38.6835 17.0727 38.3786 17.2053C38.0736 17.3345 37.8366 17.5135 37.6676 17.7422C37.5019 17.9676 37.419 18.2244 37.419 18.5128C37.419 18.7547 37.4754 18.9635 37.5881 19.1392C37.7041 19.3149 37.8549 19.4624 38.0405 19.5817C38.2294 19.6977 38.4316 19.7955 38.647 19.875C38.8625 19.9512 39.0696 20.0142 39.2685 20.0639L40.2628 20.3224C40.5876 20.402 40.9207 20.5097 41.2621 20.6456C41.6035 20.7815 41.92 20.9605 42.2116 21.1825C42.5033 21.4046 42.7386 21.6797 42.9176 22.0078C43.0999 22.3359 43.1911 22.7287 43.1911 23.1861C43.1911 23.7628 43.0419 24.2749 42.7436 24.7223C42.4486 25.1697 42.0194 25.5227 41.456 25.7812C40.8958 26.0398 40.218 26.169 39.4226 26.169C38.6603 26.169 38.0007 26.0481 37.4439 25.8061C36.8871 25.5642 36.4512 25.2211 36.1364 24.777C35.8215 24.3295 35.6475 23.7992 35.6143 23.1861H37.1555C37.1854 23.554 37.3047 23.8606 37.5135 24.1058C37.7256 24.3478 37.9957 24.5284 38.3239 24.6477C38.6553 24.7637 39.0182 24.8217 39.4126 24.8217C39.8468 24.8217 40.233 24.7538 40.571 24.6179C40.9124 24.4787 41.1809 24.2865 41.3764 24.0412C41.572 23.7926 41.6697 23.5026 41.6697 23.1712C41.6697 22.8696 41.5836 22.6226 41.4112 22.4304C41.2422 22.2382 41.0118 22.0791 40.7202 21.9531C40.4318 21.8272 40.1054 21.7161 39.7408 21.62L38.5376 21.2919C37.7223 21.0698 37.076 20.7434 36.5987 20.3125C36.1248 19.8816 35.8878 19.3116 35.8878 18.6023C35.8878 18.0156 36.0469 17.5036 36.3651 17.0661C36.6832 16.6286 37.1141 16.2888 37.6577 16.0469C38.2012 15.8016 38.8144 15.679 39.4972 15.679C40.1866 15.679 40.7947 15.8 41.3217 16.0419C41.852 16.2839 42.2696 16.617 42.5746 17.0412C42.8795 17.4621 43.0386 17.946 43.0518 18.4929H41.5703ZM48.1987 26.1541C47.4463 26.1541 46.7984 25.9934 46.2548 25.6719C45.7145 25.3471 45.2969 24.8913 45.002 24.3047C44.7103 23.7147 44.5645 23.0237 44.5645 22.2315C44.5645 21.4493 44.7103 20.7599 45.002 20.1634C45.2969 19.5668 45.7079 19.1011 46.2349 18.7663C46.7652 18.4316 47.385 18.2642 48.0943 18.2642C48.5252 18.2642 48.9428 18.3355 49.3471 18.478C49.7515 18.6205 50.1144 18.8442 50.4359 19.1491C50.7574 19.4541 51.0109 19.8501 51.1966 20.3374C51.3822 20.8213 51.475 21.4096 51.475 22.1023V22.6293H45.4047V21.5156H50.0183C50.0183 21.1245 49.9387 20.7782 49.7797 20.4766C49.6206 20.1716 49.3968 19.9313 49.1085 19.7557C48.8234 19.58 48.4887 19.4922 48.1042 19.4922C47.6866 19.4922 47.322 19.5949 47.0105 19.8004C46.7022 20.0026 46.4636 20.2678 46.2946 20.5959C46.1288 20.9207 46.046 21.2737 46.046 21.6548V22.5249C46.046 23.0353 46.1355 23.4695 46.3145 23.8274C46.4967 24.1854 46.7503 24.4588 47.0751 24.6477C47.3999 24.8333 47.7794 24.9261 48.2136 24.9261C48.4953 24.9261 48.7522 24.8864 48.9842 24.8068C49.2162 24.724 49.4167 24.6013 49.5858 24.4389C49.7548 24.2765 49.8841 24.076 49.9735 23.8374L51.3805 24.0909C51.2678 24.5052 51.0656 24.8681 50.774 25.1797C50.4856 25.4879 50.1227 25.7282 49.6852 25.9006C49.251 26.0696 48.7555 26.1541 48.1987 26.1541ZM56.4155 26.1541C55.6631 26.1541 55.0152 25.9934 54.4716 25.6719C53.9313 25.3471 53.5137 24.8913 53.2188 24.3047C52.9271 23.7147 52.7812 23.0237 52.7812 22.2315C52.7812 21.4493 52.9271 20.7599 53.2188 20.1634C53.5137 19.5668 53.9247 19.1011 54.4517 18.7663C54.982 18.4316 55.6018 18.2642 56.3111 18.2642C56.742 18.2642 57.1596 18.3355 57.5639 18.478C57.9683 18.6205 58.3312 18.8442 58.6527 19.1491C58.9742 19.4541 59.2277 19.8501 59.4134 20.3374C59.599 20.8213 59.6918 21.4096 59.6918 22.1023V22.6293H53.6214V21.5156H58.2351C58.2351 21.1245 58.1555 20.7782 57.9964 20.4766C57.8374 20.1716 57.6136 19.9313 57.3253 19.7557C57.0402 19.58 56.7055 19.4922 56.321 19.4922C55.9034 19.4922 55.5388 19.5949 55.2273 19.8004C54.919 20.0026 54.6804 20.2678 54.5114 20.5959C54.3456 20.9207 54.2628 21.2737 54.2628 21.6548V22.5249C54.2628 23.0353 54.3523 23.4695 54.5312 23.8274C54.7135 24.1854 54.9671 24.4588 55.2919 24.6477C55.6167 24.8333 55.9962 24.9261 56.4304 24.9261C56.7121 24.9261 56.969 24.8864 57.201 24.8068C57.433 24.724 57.6335 24.6013 57.8026 24.4389C57.9716 24.2765 58.1009 24.076 58.1903 23.8374L59.5973 24.0909C59.4846 24.5052 59.2824 24.8681 58.9908 25.1797C58.7024 25.4879 58.3395 25.7282 57.902 25.9006C57.4678 26.0696 56.9723 26.1541 56.4155 26.1541ZM65.1655 26V15.8182H68.7947C69.5836 15.8182 70.2382 15.9541 70.7585 16.2259C71.2822 16.4976 71.6733 16.8738 71.9318 17.3544C72.1903 17.8317 72.3196 18.3835 72.3196 19.0099C72.3196 19.633 72.1887 20.1816 71.9268 20.6555C71.6683 21.1262 71.2772 21.4924 70.7536 21.7543C70.2332 22.0161 69.5786 22.147 68.7898 22.147H66.0405V20.8246H68.6506C69.1477 20.8246 69.5521 20.7533 69.8636 20.6108C70.1785 20.4683 70.4089 20.2611 70.5547 19.9893C70.7005 19.7176 70.7734 19.3911 70.7734 19.0099C70.7734 18.6255 70.6989 18.2924 70.5497 18.0107C70.4039 17.7289 70.1735 17.5135 69.8587 17.3643C69.5471 17.2119 69.1378 17.1357 68.6307 17.1357H66.7017V26H65.1655ZM70.1918 21.4062L72.7074 26H70.9574L68.4915 21.4062H70.1918ZM77.2651 26.1541C76.5127 26.1541 75.8648 25.9934 75.3212 25.6719C74.781 25.3471 74.3633 24.8913 74.0684 24.3047C73.7767 23.7147 73.6309 23.0237 73.6309 22.2315C73.6309 21.4493 73.7767 20.7599 74.0684 20.1634C74.3633 19.5668 74.7743 19.1011 75.3013 18.7663C75.8316 18.4316 76.4514 18.2642 77.1607 18.2642C77.5916 18.2642 78.0092 18.3355 78.4135 18.478C78.8179 18.6205 79.1808 18.8442 79.5023 19.1491C79.8238 19.4541 80.0774 19.8501 80.263 20.3374C80.4486 20.8213 80.5414 21.4096 80.5414 22.1023V22.6293H74.4711V21.5156H79.0847C79.0847 21.1245 79.0051 20.7782 78.8461 20.4766C78.687 20.1716 78.4632 19.9313 78.1749 19.7557C77.8899 19.58 77.5551 19.4922 77.1706 19.4922C76.753 19.4922 76.3884 19.5949 76.0769 19.8004C75.7686 20.0026 75.53 20.2678 75.361 20.5959C75.1953 20.9207 75.1124 21.2737 75.1124 21.6548V22.5249C75.1124 23.0353 75.2019 23.4695 75.3809 23.8274C75.5632 24.1854 75.8167 24.4588 76.1415 24.6477C76.4663 24.8333 76.8458 24.9261 77.28 24.9261C77.5617 24.9261 77.8186 24.8864 78.0506 24.8068C78.2826 24.724 78.4831 24.6013 78.6522 24.4389C78.8212 24.2765 78.9505 24.076 79.04 23.8374L80.4469 24.0909C80.3342 24.5052 80.132 24.8681 79.8404 25.1797C79.552 25.4879 79.1891 25.7282 78.7516 25.9006C78.3174 26.0696 77.8219 26.1541 77.2651 26.1541ZM87.913 20.228L86.5657 20.4666C86.5094 20.2943 86.4199 20.1302 86.2972 19.9744C86.1779 19.8187 86.0155 19.6911 85.81 19.5916C85.6045 19.4922 85.3477 19.4425 85.0394 19.4425C84.6185 19.4425 84.2672 19.5369 83.9854 19.7259C83.7037 19.9115 83.5629 20.1518 83.5629 20.4467C83.5629 20.7019 83.6573 20.9074 83.8462 21.0632C84.0352 21.219 84.3401 21.3466 84.761 21.446L85.9741 21.7244C86.6767 21.8868 87.2004 22.1371 87.5451 22.4751C87.8898 22.8132 88.0621 23.2524 88.0621 23.7926C88.0621 24.25 87.9296 24.6577 87.6644 25.0156C87.4026 25.3703 87.0363 25.6487 86.5657 25.8509C86.0984 26.053 85.5565 26.1541 84.94 26.1541C84.0849 26.1541 83.3872 25.9718 82.8469 25.6072C82.3067 25.2393 81.9753 24.7173 81.8526 24.0412L83.2894 23.8224C83.3789 24.197 83.5629 24.4804 83.8413 24.6726C84.1197 24.8615 84.4826 24.956 84.93 24.956C85.4173 24.956 85.8067 24.8549 86.0984 24.6527C86.39 24.4472 86.5359 24.197 86.5359 23.902C86.5359 23.6634 86.4464 23.4628 86.2674 23.3004C86.0917 23.138 85.8216 23.0154 85.457 22.9325L84.1644 22.6491C83.4518 22.4867 82.9248 22.2282 82.5835 21.8736C82.2454 21.5189 82.0763 21.0698 82.0763 20.5263C82.0763 20.0755 82.2023 19.6811 82.4542 19.343C82.7061 19.005 83.0541 18.7415 83.4982 18.5526C83.9424 18.3603 84.4511 18.2642 85.0245 18.2642C85.8498 18.2642 86.4994 18.4432 86.9734 18.8011C87.4473 19.1558 87.7605 19.6314 87.913 20.228ZM94.5339 22.8331V18.3636H96.0254V26H94.5637V24.6776H94.4842C94.3085 25.0852 94.0268 25.425 93.639 25.6967C93.2546 25.9652 92.7756 26.0994 92.2022 26.0994C91.7117 26.0994 91.2775 25.9917 90.8997 25.7763C90.5252 25.5575 90.2302 25.2344 90.0147 24.8068C89.8026 24.3793 89.6966 23.8506 89.6966 23.2209V18.3636H91.1831V23.0419C91.1831 23.5623 91.3272 23.9766 91.6156 24.2848C91.9039 24.593 92.2785 24.7472 92.7392 24.7472C93.0176 24.7472 93.2943 24.6776 93.5694 24.5384C93.8478 24.3991 94.0782 24.1887 94.2605 23.907C94.4461 23.6252 94.5372 23.2673 94.5339 22.8331ZM99.5092 15.8182V26H98.0227V15.8182H99.5092ZM105.074 18.3636V19.5568H100.903V18.3636H105.074ZM102.021 16.5341H103.508V23.7578C103.508 24.0462 103.551 24.2633 103.637 24.4091C103.723 24.5516 103.834 24.6494 103.97 24.7024C104.109 24.7521 104.26 24.777 104.422 24.777C104.542 24.777 104.646 24.7687 104.736 24.7521C104.825 24.7356 104.895 24.7223 104.944 24.7124L105.213 25.9403C105.127 25.9735 105.004 26.0066 104.845 26.0398C104.686 26.0762 104.487 26.0961 104.248 26.0994C103.857 26.1061 103.493 26.0365 103.155 25.8906C102.817 25.7448 102.543 25.5194 102.334 25.2145C102.126 24.9096 102.021 24.5268 102.021 24.0661V16.5341ZM112.317 20.228L110.97 20.4666C110.914 20.2943 110.824 20.1302 110.702 19.9744C110.582 19.8187 110.42 19.6911 110.214 19.5916C110.009 19.4922 109.752 19.4425 109.444 19.4425C109.023 19.4425 108.671 19.5369 108.39 19.7259C108.108 19.9115 107.967 20.1518 107.967 20.4467C107.967 20.7019 108.062 20.9074 108.251 21.0632C108.439 21.219 108.744 21.3466 109.165 21.446L110.378 21.7244C111.081 21.8868 111.605 22.1371 111.949 22.4751C112.294 22.8132 112.466 23.2524 112.466 23.7926C112.466 24.25 112.334 24.6577 112.069 25.0156C111.807 25.3703 111.441 25.6487 110.97 25.8509C110.503 26.053 109.961 26.1541 109.344 26.1541C108.489 26.1541 107.791 25.9718 107.251 25.6072C106.711 25.2393 106.38 24.7173 106.257 24.0412L107.694 23.8224C107.783 24.197 107.967 24.4804 108.246 24.6726C108.524 24.8615 108.887 24.956 109.334 24.956C109.822 24.956 110.211 24.8549 110.503 24.6527C110.794 24.4472 110.94 24.197 110.94 23.902C110.94 23.6634 110.851 23.4628 110.672 23.3004C110.496 23.138 110.226 23.0154 109.861 22.9325L108.569 22.6491C107.856 22.4867 107.329 22.2282 106.988 21.8736C106.65 21.5189 106.481 21.0698 106.481 20.5263C106.481 20.0755 106.607 19.6811 106.858 19.343C107.11 19.005 107.458 18.7415 107.903 18.5526C108.347 18.3603 108.855 18.2642 109.429 18.2642C110.254 18.2642 110.904 18.4432 111.378 18.8011C111.852 19.1558 112.165 19.6314 112.317 20.228Z" fill="white"/>
<path d="M142.958 17.4585C142.958 17.1133 142.679 16.8335 142.333 16.8335C141.988 16.8335 141.708 17.1133 141.708 17.4585C141.708 19.48 141.262 20.7929 140.444 21.6107C139.626 22.4286 138.313 22.8752 136.292 22.8752C135.947 22.8752 135.667 23.155 135.667 23.5002C135.667 23.8453 135.947 24.1252 136.292 24.1252C138.313 24.1252 139.626 24.5717 140.444 25.3896C141.262 26.2074 141.708 27.5203 141.708 29.5418C141.708 29.887 141.988 30.1668 142.333 30.1668C142.679 30.1668 142.958 29.887 142.958 29.5418C142.958 27.5203 143.405 26.2074 144.223 25.3896C145.041 24.5717 146.354 24.1252 148.375 24.1252C148.72 24.1252 149 23.8453 149 23.5002C149 23.155 148.72 22.8752 148.375 22.8752C146.354 22.8752 145.041 22.4286 144.223 21.6107C143.405 20.7929 142.958 19.48 142.958 17.4585Z" fill="white" fill-opacity="0.9"/>
<path d="M136.5 15.5837C136.5 15.3535 136.314 15.167 136.083 15.167C135.853 15.167 135.667 15.3535 135.667 15.5837C135.667 16.4009 135.486 16.8942 135.19 17.1901C134.894 17.486 134.401 17.667 133.583 17.667C133.353 17.667 133.167 17.8535 133.167 18.0837C133.167 18.3138 133.353 18.5003 133.583 18.5003C134.401 18.5003 134.894 18.6813 135.19 18.9772C135.486 19.2732 135.667 19.7665 135.667 20.5837C135.667 20.8138 135.853 21.0004 136.083 21.0004C136.314 21.0004 136.5 20.8138 136.5 20.5837C136.5 19.7665 136.681 19.2732 136.977 18.9772C137.273 18.6813 137.766 18.5003 138.583 18.5003C138.814 18.5003 139 18.3138 139 18.0837C139 17.8535 138.814 17.667 138.583 17.667C137.766 17.667 137.273 17.486 136.977 17.1901C136.681 16.8942 136.5 16.4009 136.5 15.5837Z" fill="white" fill-opacity="0.9"/>
<path d="M140.667 12.2502C140.667 12.02 140.48 11.8335 140.25 11.8335C140.02 11.8335 139.833 12.02 139.833 12.2502C139.833 12.778 139.716 13.063 139.556 13.2229C139.396 13.3828 139.111 13.5002 138.583 13.5002C138.353 13.5002 138.167 13.6867 138.167 13.9168C138.167 14.147 138.353 14.3335 138.583 14.3335C139.111 14.3335 139.396 14.4509 139.556 14.6108C139.716 14.7707 139.833 15.0557 139.833 15.5835C139.833 15.8136 140.02 16.0002 140.25 16.0002C140.48 16.0002 140.667 15.8136 140.667 15.5835C140.667 15.0557 140.784 14.7707 140.944 14.6108C141.104 14.4509 141.389 14.3335 141.917 14.3335C142.147 14.3335 142.333 14.147 142.333 13.9168C142.333 13.6867 142.147 13.5002 141.917 13.5002C141.389 13.5002 141.104 13.3828 140.944 13.2229C140.784 13.063 140.667 12.778 140.667 12.2502Z" fill="white" fill-opacity="0.9"/>
</g>
</g>
</g>
<defs>
<filter id="filter0_dddi_5743_10286" x="0" y="-5" width="161" height="52" filterUnits="userSpaceOnUse" color-interpolation-filters="sRGB">
<feFlood flood-opacity="0" result="BackgroundImageFix"/>
<feColorMatrix in="SourceAlpha" type="matrix" values="0 0 0 0 0 0 0 0 0 0 0 0 0 0 0 0 0 0 127 0" result="hardAlpha"/>
<feOffset dy="3"/>
<feGaussianBlur stdDeviation="1.5"/>
<feComposite in2="hardAlpha" operator="out"/>
<feColorMatrix type="matrix" values="0 0 0 0 0.184314 0 0 0 0 0.00392157 0 0 0 0 0.592157 0 0 0 0.12 0"/>
<feBlend mode="normal" in2="BackgroundImageFix" result="effect1_dropShadow_5743_10286"/>
<feColorMatrix in="SourceAlpha" type="matrix" values="0 0 0 0 0 0 0 0 0 0 0 0 0 0 0 0 0 0 127 0" result="hardAlpha"/>
<feOffset dy="1"/>
<feGaussianBlur stdDeviation="0.5"/>
<feComposite in2="hardAlpha" operator="out"/>
<feColorMatrix type="matrix" values="0 0 0 0 0.184314 0 0 0 0 0.00392157 0 0 0 0 0.592157 0 0 0 0.12 0"/>
<feBlend mode="normal" in2="effect1_dropShadow_5743_10286" result="effect2_dropShadow_5743_10286"/>
<feColorMatrix in="SourceAlpha" type="matrix" values="0 0 0 0 0 0 0 0 0 0 0 0 0 0 0 0 0 0 127 0" result="hardAlpha"/>
<feMorphology radius="1" operator="dilate" in="SourceAlpha" result="effect3_dropShadow_5743_10286"/>
<feOffset/>
<feComposite in2="hardAlpha" operator="out"/>
<feColorMatrix type="matrix" values="0 0 0 0 0.184314 0 0 0 0 0.00392157 0 0 0 0 0.592157 0 0 0 0.08 0"/>
<feBlend mode="normal" in2="effect2_dropShadow_5743_10286" result="effect3_dropShadow_5743_10286"/>
<feBlend mode="normal" in="SourceGraphic" in2="effect3_dropShadow_5743_10286" result="shape"/>
<feColorMatrix in="SourceAlpha" type="matrix" values="0 0 0 0 0 0 0 0 0 0 0 0 0 0 0 0 0 0 127 0" result="hardAlpha"/>
<feOffset dy="-6"/>
<feGaussianBlur stdDeviation="10"/>
<feComposite in2="hardAlpha" operator="arithmetic" k2="-1" k3="1"/>
<feColorMatrix type="matrix" values="0 0 0 0 0.447059 0 0 0 0 0.192157 0 0 0 0 1 0 0 0 0.32 0"/>
<feBlend mode="normal" in2="shape" result="effect4_innerShadow_5743_10286"/>
</filter>
<filter id="filter1_dddddddd_5743_10286" x="3" y="1" width="341" height="359" filterUnits="userSpaceOnUse" color-interpolation-filters="sRGB">
<feFlood flood-opacity="0" result="BackgroundImageFix"/>
<feColorMatrix in="SourceAlpha" type="matrix" values="0 0 0 0 0 0 0 0 0 0 0 0 0 0 0 0 0 0 127 0" result="hardAlpha"/>
<feOffset dx="99" dy="251"/>
<feComposite in2="hardAlpha" operator="out"/>
<feColorMatrix type="matrix" values="0 0 0 0 1 0 0 0 0 1 0 0 0 0 1 0 0 0 1 0"/>
<feBlend mode="normal" in2="BackgroundImageFix" result="effect1_dropShadow_5743_10286"/>
<feColorMatrix in="SourceAlpha" type="matrix" values="0 0 0 0 0 0 0 0 0 0 0 0 0 0 0 0 0 0 127 0" result="hardAlpha"/>
<feOffset dx="332" dy="36"/>
<feComposite in2="hardAlpha" operator="out"/>
<feColorMatrix type="matrix" values="0 0 0 0 1 0 0 0 0 1 0 0 0 0 1 0 0 0 1 0"/>
<feBlend mode="normal" in2="effect1_dropShadow_5743_10286" result="effect2_dropShadow_5743_10286"/>
<feColorMatrix in="SourceAlpha" type="matrix" values="0 0 0 0 0 0 0 0 0 0 0 0 0 0 0 0 0 0 127 0" result="hardAlpha"/>
<feOffset dx="92" dy="100"/>
<feComposite in2="hardAlpha" operator="out"/>
<feColorMatrix type="matrix" values="0 0 0 0 1 0 0 0 0 1 0 0 0 0 1 0 0 0 1 0"/>
<feBlend mode="normal" in2="effect2_dropShadow_5743_10286" result="effect3_dropShadow_5743_10286"/>
<feColorMatrix in="SourceAlpha" type="matrix" values="0 0 0 0 0 0 0 0 0 0 0 0 0 0 0 0 0 0 127 0" result="hardAlpha"/>
<feOffset dx="340" dy="15"/>
<feComposite in2="hardAlpha" operator="out"/>
<feColorMatrix type="matrix" values="0 0 0 0 1 0 0 0 0 1 0 0 0 0 1 0 0 0 1 0"/>
<feBlend mode="normal" in2="effect3_dropShadow_5743_10286" result="effect4_dropShadow_5743_10286"/>
<feColorMatrix in="SourceAlpha" type="matrix" values="0 0 0 0 0 0 0 0 0 0 0 0 0 0 0 0 0 0 127 0" result="hardAlpha"/>
<feOffset dx="101" dy="268"/>
<feComposite in2="hardAlpha" operator="out"/>
<feColorMatrix type="matrix" values="0 0 0 0 1 0 0 0 0 1 0 0 0 0 1 0 0 0 1 0"/>
<feBlend mode="normal" in2="effect4_dropShadow_5743_10286" result="effect5_dropShadow_5743_10286"/>
<feColorMatrix in="SourceAlpha" type="matrix" values="0 0 0 0 0 0 0 0 0 0 0 0 0 0 0 0 0 0 127 0" result="hardAlpha"/>
<feOffset dx="230" dy="358"/>
<feComposite in2="hardAlpha" operator="out"/>
<feColorMatrix type="matrix" values="0 0 0 0 1 0 0 0 0 1 0 0 0 0 1 0 0 0 1 0"/>
<feBlend mode="normal" in2="effect5_dropShadow_5743_10286" result="effect6_dropShadow_5743_10286"/>
<feColorMatrix in="SourceAlpha" type="matrix" values="0 0 0 0 0 0 0 0 0 0 0 0 0 0 0 0 0 0 127 0" result="hardAlpha"/>
<feOffset dx="315" dy="194"/>
<feComposite in2="hardAlpha" operator="out"/>
<feColorMatrix type="matrix" values="0 0 0 0 1 0 0 0 0 1 0 0 0 0 1 0 0 0 1 0"/>
<feBlend mode="normal" in2="effect6_dropShadow_5743_10286" result="effect7_dropShadow_5743_10286"/>
<feColorMatrix in="SourceAlpha" type="matrix" values="0 0 0 0 0 0 0 0 0 0 0 0 0 0 0 0 0 0 127 0" result="hardAlpha"/>
<feOffset dx="331" dy="185"/>
<feComposite in2="hardAlpha" operator="out"/>
<feColorMatrix type="matrix" values="0 0 0 0 1 0 0 0 0 1 0 0 0 0 1 0 0 0 1 0"/>
<feBlend mode="normal" in2="effect7_dropShadow_5743_10286" result="effect8_dropShadow_5743_10286"/>
<feBlend mode="normal" in="SourceGraphic" in2="effect8_dropShadow_5743_10286" result="shape"/>
</filter>
<filter id="filter2_ddddddddf_5743_10286" x="2" y="1" width="303" height="268" filterUnits="userSpaceOnUse" color-interpolation-filters="sRGB">
<feFlood flood-opacity="0" result="BackgroundImageFix"/>
<feColorMatrix in="SourceAlpha" type="matrix" values="0 0 0 0 0 0 0 0 0 0 0 0 0 0 0 0 0 0 127 0" result="hardAlpha"/>
<feOffset dx="32" dy="266"/>
<feComposite in2="hardAlpha" operator="out"/>
<feColorMatrix type="matrix" values="0 0 0 0 1 0 0 0 0 1 0 0 0 0 1 0 0 0 1 0"/>
<feBlend mode="normal" in2="BackgroundImageFix" result="effect1_dropShadow_5743_10286"/>
<feColorMatrix in="SourceAlpha" type="matrix" values="0 0 0 0 0 0 0 0 0 0 0 0 0 0 0 0 0 0 127 0" result="hardAlpha"/>
<feOffset dx="246" dy="15"/>
<feComposite in2="hardAlpha" operator="out"/>
<feColorMatrix type="matrix" values="0 0 0 0 1 0 0 0 0 1 0 0 0 0 1 0 0 0 1 0"/>
<feBlend mode="normal" in2="effect1_dropShadow_5743_10286" result="effect2_dropShadow_5743_10286"/>
<feColorMatrix in="SourceAlpha" type="matrix" values="0 0 0 0 0 0 0 0 0 0 0 0 0 0 0 0 0 0 127 0" result="hardAlpha"/>
<feOffset dx="264" dy="182"/>
<feComposite in2="hardAlpha" operator="out"/>
<feColorMatrix type="matrix" values="0 0 0 0 1 0 0 0 0 1 0 0 0 0 1 0 0 0 1 0"/>
<feBlend mode="normal" in2="effect2_dropShadow_5743_10286" result="effect3_dropShadow_5743_10286"/>
<feColorMatrix in="SourceAlpha" type="matrix" values="0 0 0 0 0 0 0 0 0 0 0 0 0 0 0 0 0 0 127 0" result="hardAlpha"/>
<feOffset dx="301" dy="224"/>
<feComposite in2="hardAlpha" operator="out"/>
<feColorMatrix type="matrix" values="0 0 0 0 1 0 0 0 0 1 0 0 0 0 1 0 0 0 1 0"/>
<feBlend mode="normal" in2="effect3_dropShadow_5743_10286" result="effect4_dropShadow_5743_10286"/>
<feColorMatrix in="SourceAlpha" type="matrix" values="0 0 0 0 0 0 0 0 0 0 0 0 0 0 0 0 0 0 127 0" result="hardAlpha"/>
<feOffset dx="146" dy="198"/>
<feComposite in2="hardAlpha" operator="out"/>
<feColorMatrix type="matrix" values="0 0 0 0 1 0 0 0 0 1 0 0 0 0 1 0 0 0 1 0"/>
<feBlend mode="normal" in2="effect4_dropShadow_5743_10286" result="effect5_dropShadow_5743_10286"/>
<feColorMatrix in="SourceAlpha" type="matrix" values="0 0 0 0 0 0 0 0 0 0 0 0 0 0 0 0 0 0 127 0" result="hardAlpha"/>
<feOffset dx="197" dy="202"/>
<feComposite in2="hardAlpha" operator="out"/>
<feColorMatrix type="matrix" values="0 0 0 0 1 0 0 0 0 1 0 0 0 0 1 0 0 0 1 0"/>
<feBlend mode="normal" in2="effect5_dropShadow_5743_10286" result="effect6_dropShadow_5743_10286"/>
<feColorMatrix in="SourceAlpha" type="matrix" values="0 0 0 0 0 0 0 0 0 0 0 0 0 0 0 0 0 0 127 0" result="hardAlpha"/>
<feOffset dx="37" dy="157"/>
<feComposite in2="hardAlpha" operator="out"/>
<feColorMatrix type="matrix" values="0 0 0 0 1 0 0 0 0 1 0 0 0 0 1 0 0 0 1 0"/>
<feBlend mode="normal" in2="effect6_dropShadow_5743_10286" result="effect7_dropShadow_5743_10286"/>
<feColorMatrix in="SourceAlpha" type="matrix" values="0 0 0 0 0 0 0 0 0 0 0 0 0 0 0 0 0 0 127 0" result="hardAlpha"/>
<feOffset dx="233" dy="122"/>
<feComposite in2="hardAlpha" operator="out"/>
<feColorMatrix type="matrix" values="0 0 0 0 1 0 0 0 0 1 0 0 0 0 1 0 0 0 1 0"/>
<feBlend mode="normal" in2="effect7_dropShadow_5743_10286" result="effect8_dropShadow_5743_10286"/>
<feBlend mode="normal" in="SourceGraphic" in2="effect8_dropShadow_5743_10286" result="shape"/>
<feGaussianBlur stdDeviation="0.5" result="effect9_foregroundBlur_5743_10286"/>
</filter>
<linearGradient id="paint0_linear_5743_10286" x1="80.5" y1="3" x2="80.5" y2="39" gradientUnits="userSpaceOnUse">
<stop stop-color="white"/>
<stop offset="0.333333" stop-color="#1FA8CA" stop-opacity="0.83"/>
<stop offset="0.666667" stop-color="#1FA8CA" stop-opacity="0.91"/>
<stop offset="1" stop-color="white"/>
</linearGradient>
<clipPath id="clip0_5743_10286">
<rect x="3" y="1" width="155" height="40" rx="10" fill="white"/>
</clipPath>
</defs>
</svg>
