<svg width="293" height="35" viewBox="0 0 293 35" fill="none" xmlns="http://www.w3.org/2000/svg">
<g opacity="0.35">
<g clip-path="url(#clip0_5820_6574)">
<rect y="0.989456" width="293" height="31.6627" rx="15.8314" fill="url(#paint0_radial_5820_6574)"/>
</g>
</g>
<g opacity="0.198347">
<path d="M29.6765 4.36243C37.4973 4.36243 43.8472 10.4711 43.8472 17.9947C43.8472 25.5184 37.4973 31.6271 29.6765 31.6271C21.8557 31.6271 15.5059 25.5184 15.5059 17.9947C15.5059 10.4711 21.8557 4.36243 29.6765 4.36243Z" fill="#45B3E0" fill-opacity="0.89"/>
</g>
<g opacity="0.446281">
<path d="M29.6764 8.57858C35.0784 8.57858 39.4644 12.798 39.4644 17.9947C39.4644 23.1915 35.0784 27.4109 29.6764 27.4109C24.2744 27.4109 19.8884 23.1915 19.8884 17.9947C19.8884 12.798 24.2744 8.57858 29.6764 8.57858Z" fill="#45B3E0" fill-opacity="0.89"/>
</g>
<g opacity="0.694215">
<path d="M29.6763 12.7948C32.6595 12.7948 35.0816 15.1249 35.0816 17.9948C35.0816 20.8646 32.6595 23.1947 29.6763 23.1947C26.6931 23.1947 24.271 20.8646 24.271 17.9948C24.271 15.1249 26.6931 12.7948 29.6763 12.7948Z" fill="#45B3E0" fill-opacity="0.89"/>
</g>
<g opacity="0.942149">
<path d="M29.6764 17.011C30.2408 17.011 30.6991 17.4518 30.6991 17.9947C30.6991 18.5377 30.2408 18.9785 29.6764 18.9785C29.112 18.9785 28.6538 18.5377 28.6538 17.9947C28.6538 17.4518 29.112 17.011 29.6764 17.011Z" fill="#45B3E0" fill-opacity="0.89"/>
</g>
<defs>
<radialGradient id="paint0_radial_5820_6574" cx="0" cy="0" r="1" gradientUnits="userSpaceOnUse" gradientTransform="translate(146.5 32.6522) scale(146.5 31.6627)">
<stop stop-color="#1FA8CA" stop-opacity="0.58"/>
<stop offset="1" stop-color="white"/>
</radialGradient>
<clipPath id="clip0_5820_6574">
<rect y="0.989456" width="293" height="31.6627" rx="15.8314" fill="white"/>
</clipPath>
</defs>
</svg>
