<svg width="293" height="35" viewBox="0 0 293 35" fill="none" xmlns="http://www.w3.org/2000/svg">
<g opacity="0.35">
<g clip-path="url(#clip0_5820_6574)">
<rect y="0.989456" width="293" height="31.6627" rx="15.8314" fill="url(#paint0_radial_5820_6574)"/>
</g>
</g>
<path d="M79.2288 13.1779H80.4901L83.4561 20.4222H83.5583L86.5242 13.1779H87.7856V21.9051H86.797V15.2745H86.7117L83.9845 21.9051H83.0299L80.3026 15.2745H80.2174V21.9051H79.2288V13.1779ZM92.0273 22.0415C91.4364 22.0415 90.9179 21.9009 90.4719 21.6196C90.0287 21.3384 89.6821 20.9449 89.4321 20.4392C89.185 19.9335 89.0614 19.3426 89.0614 18.6665C89.0614 17.9847 89.185 17.3895 89.4321 16.881C89.6821 16.3725 90.0287 15.9776 90.4719 15.6963C90.9179 15.4151 91.4364 15.2745 92.0273 15.2745C92.6182 15.2745 93.1352 15.4151 93.5784 15.6963C94.0244 15.9776 94.371 16.3725 94.6182 16.881C94.8682 17.3895 94.9932 17.9847 94.9932 18.6665C94.9932 19.3426 94.8682 19.9335 94.6182 20.4392C94.371 20.9449 94.0244 21.3384 93.5784 21.6196C93.1352 21.9009 92.6182 22.0415 92.0273 22.0415ZM92.0273 21.1381C92.4761 21.1381 92.8455 21.023 93.1352 20.7929C93.425 20.5628 93.6395 20.2602 93.7787 19.8852C93.9179 19.5102 93.9875 19.104 93.9875 18.6665C93.9875 18.229 93.9179 17.8213 93.7787 17.4435C93.6395 17.0656 93.425 16.7602 93.1352 16.5273C92.8455 16.2943 92.4761 16.1779 92.0273 16.1779C91.5784 16.1779 91.2091 16.2943 90.9193 16.5273C90.6296 16.7602 90.4151 17.0656 90.2759 17.4435C90.1367 17.8213 90.0671 18.229 90.0671 18.6665C90.0671 19.104 90.1367 19.5102 90.2759 19.8852C90.4151 20.2602 90.6296 20.5628 90.9193 20.7929C91.2091 21.023 91.5784 21.1381 92.0273 21.1381ZM97.134 17.9676V21.9051H96.1284V15.3597H97.0999V16.3824H97.1852C97.3386 16.05 97.5715 15.783 97.884 15.5813C98.1965 15.3767 98.5999 15.2745 99.0943 15.2745C99.5374 15.2745 99.9252 15.3654 100.258 15.5472C100.59 15.7262 100.849 15.9989 101.033 16.3654C101.218 16.729 101.31 17.1892 101.31 17.746V21.9051H100.304V17.8142C100.304 17.3 100.171 16.8995 99.9039 16.6125C99.6369 16.3227 99.2704 16.1779 98.8045 16.1779C98.4835 16.1779 98.1965 16.2475 97.9437 16.3867C97.6937 16.5259 97.4962 16.729 97.3514 16.996C97.2065 17.2631 97.134 17.587 97.134 17.9676ZM102.748 21.9051V15.3597H103.754V21.9051H102.748ZM103.259 14.2688C103.063 14.2688 102.894 14.202 102.752 14.0685C102.613 13.935 102.543 13.7745 102.543 13.587C102.543 13.3995 102.613 13.2389 102.752 13.1054C102.894 12.9719 103.063 12.9051 103.259 12.9051C103.455 12.9051 103.623 12.9719 103.762 13.1054C103.904 13.2389 103.975 13.3995 103.975 13.587C103.975 13.7745 103.904 13.935 103.762 14.0685C103.623 14.202 103.455 14.2688 103.259 14.2688ZM108.042 15.3597V16.212H104.65V15.3597H108.042ZM105.639 13.7915H106.644V20.0301C106.644 20.3142 106.686 20.5273 106.768 20.6693C106.853 20.8085 106.961 20.9023 107.092 20.9506C107.225 20.996 107.366 21.0188 107.514 21.0188C107.625 21.0188 107.715 21.0131 107.786 21.0017C107.857 20.9875 107.914 20.9762 107.957 20.9676L108.161 21.871C108.093 21.8966 107.998 21.9222 107.876 21.9477C107.754 21.9762 107.599 21.9904 107.411 21.9904C107.127 21.9904 106.849 21.9293 106.576 21.8071C106.306 21.685 106.082 21.4989 105.903 21.2489C105.727 20.9989 105.639 20.6835 105.639 20.3029V13.7915ZM111.744 22.0415C111.153 22.0415 110.634 21.9009 110.188 21.6196C109.745 21.3384 109.399 20.9449 109.149 20.4392C108.901 19.9335 108.778 19.3426 108.778 18.6665C108.778 17.9847 108.901 17.3895 109.149 16.881C109.399 16.3725 109.745 15.9776 110.188 15.6963C110.634 15.4151 111.153 15.2745 111.744 15.2745C112.335 15.2745 112.852 15.4151 113.295 15.6963C113.741 15.9776 114.087 16.3725 114.335 16.881C114.585 17.3895 114.71 17.9847 114.71 18.6665C114.71 19.3426 114.585 19.9335 114.335 20.4392C114.087 20.9449 113.741 21.3384 113.295 21.6196C112.852 21.9009 112.335 22.0415 111.744 22.0415ZM111.744 21.1381C112.193 21.1381 112.562 21.023 112.852 20.7929C113.141 20.5628 113.356 20.2602 113.495 19.8852C113.634 19.5102 113.704 19.104 113.704 18.6665C113.704 18.229 113.634 17.8213 113.495 17.4435C113.356 17.0656 113.141 16.7602 112.852 16.5273C112.562 16.2943 112.193 16.1779 111.744 16.1779C111.295 16.1779 110.926 16.2943 110.636 16.5273C110.346 16.7602 110.131 17.0656 109.992 17.4435C109.853 17.8213 109.783 18.229 109.783 18.6665C109.783 19.104 109.853 19.5102 109.992 19.8852C110.131 20.2602 110.346 20.5628 110.636 20.7929C110.926 21.023 111.295 21.1381 111.744 21.1381ZM115.845 21.9051V15.3597H116.816V16.3483H116.885C117.004 16.0245 117.22 15.7617 117.532 15.56C117.845 15.3583 118.197 15.2574 118.589 15.2574C118.663 15.2574 118.755 15.2588 118.866 15.2617C118.977 15.2645 119.061 15.2688 119.117 15.2745V16.2972C119.083 16.2887 119.005 16.2759 118.883 16.2588C118.764 16.2389 118.637 16.229 118.504 16.229C118.186 16.229 117.902 16.2958 117.652 16.4293C117.404 16.56 117.208 16.7418 117.064 16.9747C116.921 17.2049 116.85 17.4676 116.85 17.7631V21.9051H115.845ZM119.91 21.9051V15.3597H120.915V21.9051H119.91ZM120.421 14.2688C120.225 14.2688 120.056 14.202 119.914 14.0685C119.775 13.935 119.705 13.7745 119.705 13.587C119.705 13.3995 119.775 13.2389 119.914 13.1054C120.056 12.9719 120.225 12.9051 120.421 12.9051C120.617 12.9051 120.785 12.9719 120.924 13.1054C121.066 13.2389 121.137 13.3995 121.137 13.587C121.137 13.7745 121.066 13.935 120.924 14.0685C120.785 14.202 120.617 14.2688 120.421 14.2688ZM123.363 17.9676V21.9051H122.357V15.3597H123.329V16.3824H123.414C123.567 16.05 123.8 15.783 124.113 15.5813C124.425 15.3767 124.829 15.2745 125.323 15.2745C125.766 15.2745 126.154 15.3654 126.487 15.5472C126.819 15.7262 127.077 15.9989 127.262 16.3654C127.447 16.729 127.539 17.1892 127.539 17.746V21.9051H126.533V17.8142C126.533 17.3 126.4 16.8995 126.133 16.6125C125.866 16.3227 125.499 16.1779 125.033 16.1779C124.712 16.1779 124.425 16.2475 124.173 16.3867C123.923 16.5259 123.725 16.729 123.58 16.996C123.435 17.2631 123.363 17.587 123.363 17.9676ZM131.619 24.496C131.133 24.496 130.715 24.4335 130.366 24.3085C130.017 24.1864 129.725 24.0245 129.492 23.8227C129.262 23.6239 129.079 23.4108 128.943 23.1835L129.744 22.621C129.835 22.7404 129.95 22.8767 130.089 23.0301C130.228 23.1864 130.419 23.3213 130.66 23.435C130.904 23.5514 131.224 23.6097 131.619 23.6097C132.147 23.6097 132.583 23.4818 132.927 23.2262C133.271 22.9705 133.443 22.5699 133.443 22.0245V20.6949H133.357C133.284 20.8142 133.178 20.962 133.042 21.1381C132.909 21.3114 132.715 21.4662 132.463 21.6026C132.213 21.7361 131.875 21.8029 131.448 21.8029C130.92 21.8029 130.446 21.6779 130.025 21.4279C129.607 21.1779 129.277 20.8142 129.032 20.337C128.791 19.8597 128.67 19.2801 128.67 18.5983C128.67 17.9279 128.788 17.3441 129.024 16.8469C129.259 16.3469 129.588 15.9605 130.008 15.6878C130.428 15.4122 130.914 15.2745 131.465 15.2745C131.892 15.2745 132.23 15.3455 132.48 15.4875C132.732 15.6267 132.926 15.7858 133.059 15.9648C133.196 16.1409 133.301 16.2858 133.375 16.3995H133.477V15.3597H134.448V22.0926C134.448 22.6551 134.321 23.1125 134.065 23.4648C133.812 23.8199 133.471 24.0799 133.042 24.2446C132.616 24.4122 132.142 24.496 131.619 24.496ZM131.585 20.8995C131.988 20.8995 132.329 20.8071 132.607 20.6225C132.886 20.4378 133.098 20.1722 133.242 19.8256C133.387 19.479 133.46 19.0642 133.46 18.5813C133.46 18.1097 133.389 17.6935 133.247 17.3327C133.105 16.9719 132.894 16.6892 132.616 16.4847C132.338 16.2801 131.994 16.1779 131.585 16.1779C131.159 16.1779 130.803 16.2858 130.519 16.5017C130.238 16.7176 130.027 17.0074 129.884 17.371C129.745 17.7347 129.676 18.1381 129.676 18.5813C129.676 19.0358 129.747 19.4378 129.889 19.7872C130.034 20.1338 130.247 20.4066 130.528 20.6054C130.812 20.8014 131.164 20.8995 131.585 20.8995ZM140.79 22.0585C140.376 22.0585 139.999 21.9804 139.661 21.8242C139.323 21.6651 139.055 21.4364 138.856 21.1381C138.657 20.837 138.557 20.4733 138.557 20.0472C138.557 19.6722 138.631 19.3682 138.779 19.1352C138.927 18.8995 139.124 18.7148 139.371 18.5813C139.619 18.4477 139.891 18.3483 140.19 18.283C140.491 18.2148 140.793 18.1608 141.097 18.121C141.495 18.0699 141.817 18.0316 142.065 18.006C142.315 17.9776 142.496 17.9307 142.61 17.8654C142.727 17.8 142.785 17.6864 142.785 17.5245V17.4904C142.785 17.0699 142.67 16.7432 142.44 16.5102C142.212 16.2773 141.867 16.1608 141.404 16.1608C140.924 16.1608 140.548 16.2659 140.275 16.4762C140.002 16.6864 139.81 16.9108 139.7 17.1495L138.745 16.8085C138.915 16.4108 139.143 16.1012 139.427 15.8796C139.714 15.6551 140.026 15.4989 140.364 15.4108C140.705 15.3199 141.04 15.2745 141.37 15.2745C141.58 15.2745 141.822 15.3 142.094 15.3512C142.37 15.3995 142.636 15.5003 142.891 15.6537C143.15 15.8071 143.364 16.0387 143.535 16.3483C143.705 16.658 143.79 17.0727 143.79 17.5926V21.9051H142.785V21.0188H142.734C142.665 21.1608 142.552 21.3128 142.393 21.4747C142.234 21.6367 142.022 21.7745 141.758 21.8881C141.494 22.0017 141.171 22.0585 140.79 22.0585ZM140.944 21.1551C141.342 21.1551 141.677 21.077 141.95 20.9208C142.225 20.7645 142.432 20.5628 142.572 20.3156C142.714 20.0685 142.785 19.8085 142.785 19.5358V18.6154C142.742 18.6665 142.648 18.7134 142.503 18.756C142.361 18.7958 142.197 18.8313 142.009 18.8625C141.825 18.8909 141.644 18.9165 141.468 18.9392C141.295 18.9591 141.154 18.9762 141.046 18.9904C140.785 19.0245 140.54 19.0799 140.313 19.1566C140.089 19.2304 139.907 19.3426 139.768 19.4932C139.631 19.6409 139.563 19.8426 139.563 20.0983C139.563 20.4477 139.692 20.712 139.951 20.8909C140.212 21.0671 140.543 21.1551 140.944 21.1551ZM146.232 17.9676V21.9051H145.226V15.3597H146.198V16.3824H146.283C146.436 16.05 146.669 15.783 146.982 15.5813C147.294 15.3767 147.698 15.2745 148.192 15.2745C148.635 15.2745 149.023 15.3654 149.355 15.5472C149.688 15.7262 149.946 15.9989 150.131 16.3654C150.315 16.729 150.408 17.1892 150.408 17.746V21.9051H149.402V17.8142C149.402 17.3 149.269 16.8995 149.002 16.6125C148.735 16.3227 148.368 16.1779 147.902 16.1779C147.581 16.1779 147.294 16.2475 147.041 16.3867C146.791 16.5259 146.594 16.729 146.449 16.996C146.304 17.2631 146.232 17.587 146.232 17.9676ZM154.317 22.0415C153.772 22.0415 153.29 21.9037 152.873 21.6281C152.455 21.3497 152.128 20.9577 151.892 20.452C151.657 19.9435 151.539 19.3426 151.539 18.6495C151.539 17.962 151.657 17.3654 151.892 16.8597C152.128 16.354 152.456 15.9634 152.877 15.6878C153.297 15.4122 153.783 15.2745 154.334 15.2745C154.76 15.2745 155.097 15.3455 155.344 15.4875C155.594 15.6267 155.784 15.7858 155.915 15.9648C156.049 16.1409 156.152 16.2858 156.226 16.3995H156.311V13.1779H157.317V21.9051H156.346V20.8995H156.226C156.152 21.0188 156.047 21.1693 155.911 21.3512C155.775 21.5301 155.58 21.6906 155.327 21.8327C155.074 21.9719 154.738 22.0415 154.317 22.0415ZM154.453 21.1381C154.857 21.1381 155.198 21.033 155.476 20.8227C155.755 20.6097 155.966 20.3156 156.111 19.9406C156.256 19.5628 156.328 19.1267 156.328 18.6324C156.328 18.1438 156.257 17.7162 156.115 17.3497C155.973 16.9804 155.763 16.6935 155.485 16.4889C155.206 16.2816 154.863 16.1779 154.453 16.1779C154.027 16.1779 153.672 16.2872 153.388 16.506C153.107 16.7219 152.895 17.0159 152.753 17.3881C152.614 17.7574 152.544 18.1722 152.544 18.6324C152.544 19.0983 152.615 19.5216 152.757 19.9023C152.902 20.2801 153.115 20.5813 153.397 20.8057C153.681 21.0273 154.033 21.1381 154.453 21.1381ZM161.533 14.1154V13.1779H168.078V14.1154H165.334V21.9051H164.277V14.1154H161.533ZM170.208 22.0585C169.794 22.0585 169.417 21.9804 169.079 21.8242C168.741 21.6651 168.473 21.4364 168.274 21.1381C168.075 20.837 167.975 20.4733 167.975 20.0472C167.975 19.6722 168.049 19.3682 168.197 19.1352C168.345 18.8995 168.542 18.7148 168.789 18.5813C169.037 18.4477 169.309 18.3483 169.608 18.283C169.909 18.2148 170.211 18.1608 170.515 18.121C170.913 18.0699 171.235 18.0316 171.483 18.006C171.733 17.9776 171.914 17.9307 172.028 17.8654C172.144 17.8 172.203 17.6864 172.203 17.5245V17.4904C172.203 17.0699 172.088 16.7432 171.858 16.5102C171.63 16.2773 171.285 16.1608 170.822 16.1608C170.342 16.1608 169.965 16.2659 169.693 16.4762C169.42 16.6864 169.228 16.9108 169.117 17.1495L168.163 16.8085C168.333 16.4108 168.561 16.1012 168.845 15.8796C169.132 15.6551 169.444 15.4989 169.782 15.4108C170.123 15.3199 170.458 15.2745 170.788 15.2745C170.998 15.2745 171.24 15.3 171.512 15.3512C171.788 15.3995 172.054 15.5003 172.309 15.6537C172.568 15.8071 172.782 16.0387 172.953 16.3483C173.123 16.658 173.208 17.0727 173.208 17.5926V21.9051H172.203V21.0188H172.152C172.083 21.1608 171.97 21.3128 171.811 21.4747C171.652 21.6367 171.44 21.7745 171.176 21.8881C170.912 22.0017 170.589 22.0585 170.208 22.0585ZM170.362 21.1551C170.76 21.1551 171.095 21.077 171.367 20.9208C171.643 20.7645 171.85 20.5628 171.99 20.3156C172.132 20.0685 172.203 19.8085 172.203 19.5358V18.6154C172.16 18.6665 172.066 18.7134 171.921 18.756C171.779 18.7958 171.615 18.8313 171.427 18.8625C171.242 18.8909 171.062 18.9165 170.886 18.9392C170.713 18.9591 170.572 18.9762 170.464 18.9904C170.203 19.0245 169.958 19.0799 169.731 19.1566C169.507 19.2304 169.325 19.3426 169.186 19.4932C169.049 19.6409 168.981 19.8426 168.981 20.0983C168.981 20.4477 169.11 20.712 169.369 20.8909C169.63 21.0671 169.961 21.1551 170.362 21.1551ZM175.581 19.5188L175.564 18.2745H175.769L178.633 15.3597H179.877L176.826 18.4449H176.741L175.581 19.5188ZM174.644 21.9051V13.1779H175.65V21.9051H174.644ZM178.803 21.9051L176.246 18.6665L176.962 17.9676L180.081 21.9051H178.803ZM183.246 22.0415C182.615 22.0415 182.071 21.9023 181.614 21.6239C181.159 21.3426 180.809 20.9506 180.561 20.4477C180.317 19.9421 180.195 19.354 180.195 18.6835C180.195 18.0131 180.317 17.4222 180.561 16.9108C180.809 16.3966 181.152 15.996 181.593 15.7091C182.036 15.4193 182.553 15.2745 183.144 15.2745C183.485 15.2745 183.821 15.3313 184.154 15.4449C184.486 15.5585 184.789 15.7432 185.061 15.9989C185.334 16.2517 185.552 16.587 185.713 17.0046C185.875 17.4222 185.956 17.9364 185.956 18.5472V18.9733H180.911V18.104H184.934C184.934 17.7347 184.86 17.4051 184.712 17.1154C184.567 16.8256 184.36 16.5969 184.09 16.4293C183.823 16.2617 183.507 16.1779 183.144 16.1779C182.743 16.1779 182.397 16.2773 182.104 16.4762C181.814 16.6722 181.591 16.9279 181.435 17.2432C181.279 17.5585 181.201 17.8966 181.201 18.2574V18.837C181.201 19.3313 181.286 19.7503 181.456 20.0941C181.63 20.435 181.87 20.6949 182.177 20.8739C182.483 21.05 182.84 21.1381 183.246 21.1381C183.51 21.1381 183.749 21.1012 183.962 21.0273C184.178 20.9506 184.364 20.837 184.52 20.6864C184.677 20.533 184.797 20.3426 184.882 20.1154L185.854 20.3881C185.752 20.7176 185.58 21.0074 185.338 21.2574C185.097 21.5046 184.799 21.6977 184.444 21.837C184.088 21.9733 183.689 22.0415 183.246 22.0415ZM189.558 22.0415C189.012 22.0415 188.531 21.9037 188.113 21.6281C187.696 21.3497 187.369 20.9577 187.133 20.452C186.897 19.9435 186.779 19.3426 186.779 18.6495C186.779 17.962 186.897 17.3654 187.133 16.8597C187.369 16.354 187.697 15.9634 188.117 15.6878C188.538 15.4122 189.024 15.2745 189.575 15.2745C190.001 15.2745 190.338 15.3455 190.585 15.4875C190.835 15.6267 191.025 15.7858 191.156 15.9648C191.289 16.1409 191.393 16.2858 191.467 16.3995H191.552V13.1779H192.558V21.9051H191.586V20.8995H191.467C191.393 21.0188 191.288 21.1693 191.152 21.3512C191.015 21.5301 190.821 21.6906 190.568 21.8327C190.315 21.9719 189.978 22.0415 189.558 22.0415ZM189.694 21.1381C190.098 21.1381 190.438 21.033 190.717 20.8227C190.995 20.6097 191.207 20.3156 191.352 19.9406C191.497 19.5628 191.569 19.1267 191.569 18.6324C191.569 18.1438 191.498 17.7162 191.356 17.3497C191.214 16.9804 191.004 16.6935 190.725 16.4889C190.447 16.2816 190.103 16.1779 189.694 16.1779C189.268 16.1779 188.913 16.2872 188.629 16.506C188.348 16.7219 188.136 17.0159 187.994 17.3881C187.855 17.7574 187.785 18.1722 187.785 18.6324C187.785 19.0983 187.856 19.5216 187.998 19.9023C188.143 20.2801 188.356 20.5813 188.637 20.8057C188.921 21.0273 189.274 21.1381 189.694 21.1381ZM196.798 22.0415C196.207 22.0415 195.689 21.9009 195.243 21.6196C194.8 21.3384 194.453 20.9449 194.203 20.4392C193.956 19.9335 193.832 19.3426 193.832 18.6665C193.832 17.9847 193.956 17.3895 194.203 16.881C194.453 16.3725 194.8 15.9776 195.243 15.6963C195.689 15.4151 196.207 15.2745 196.798 15.2745C197.389 15.2745 197.906 15.4151 198.35 15.6963C198.796 15.9776 199.142 16.3725 199.389 16.881C199.639 17.3895 199.764 17.9847 199.764 18.6665C199.764 19.3426 199.639 19.9335 199.389 20.4392C199.142 20.9449 198.796 21.3384 198.35 21.6196C197.906 21.9009 197.389 22.0415 196.798 22.0415ZM196.798 21.1381C197.247 21.1381 197.617 21.023 197.906 20.7929C198.196 20.5628 198.411 20.2602 198.55 19.8852C198.689 19.5102 198.759 19.104 198.759 18.6665C198.759 18.229 198.689 17.8213 198.55 17.4435C198.411 17.0656 198.196 16.7602 197.906 16.5273C197.617 16.2943 197.247 16.1779 196.798 16.1779C196.35 16.1779 195.98 16.2943 195.69 16.5273C195.401 16.7602 195.186 17.0656 195.047 17.4435C194.908 17.8213 194.838 18.229 194.838 18.6665C194.838 19.104 194.908 19.5102 195.047 19.8852C195.186 20.2602 195.401 20.5628 195.69 20.7929C195.98 21.023 196.35 21.1381 196.798 21.1381ZM202.16 21.9051L200.165 15.3597H201.222L202.637 20.371H202.705L204.103 15.3597H205.177L206.557 20.354H206.626L208.04 15.3597H209.097L207.103 21.9051H206.114L204.682 16.8767H204.58L203.148 21.9051H202.16ZM211.032 17.9676V21.9051H210.027V15.3597H210.998V16.3824H211.084C211.237 16.05 211.47 15.783 211.782 15.5813C212.095 15.3767 212.498 15.2745 212.993 15.2745C213.436 15.2745 213.824 15.3654 214.156 15.5472C214.488 15.7262 214.747 15.9989 214.932 16.3654C215.116 16.729 215.209 17.1892 215.209 17.746V21.9051H214.203V17.8142C214.203 17.3 214.069 16.8995 213.802 16.6125C213.535 16.3227 213.169 16.1779 212.703 16.1779C212.382 16.1779 212.095 16.2475 211.842 16.3867C211.592 16.5259 211.395 16.729 211.25 16.996C211.105 17.2631 211.032 17.587 211.032 17.9676ZM224.53 15.3597C224.479 14.9279 224.272 14.5926 223.908 14.354C223.545 14.1154 223.099 13.996 222.57 13.996C222.184 13.996 221.846 14.0585 221.556 14.1835C221.269 14.3085 221.045 14.4804 220.883 14.6992C220.724 14.9179 220.644 15.1665 220.644 15.4449C220.644 15.6779 220.699 15.8781 220.81 16.0458C220.924 16.2105 221.069 16.3483 221.245 16.4591C221.421 16.5671 221.606 16.6566 221.799 16.7276C221.992 16.7958 222.17 16.8512 222.332 16.8938L223.218 17.1324C223.445 17.1921 223.698 17.2745 223.976 17.3796C224.258 17.4847 224.526 17.6281 224.782 17.81C225.04 17.9889 225.253 18.2191 225.421 18.5003C225.589 18.7816 225.672 19.1267 225.672 19.5358C225.672 20.0074 225.549 20.4335 225.302 20.8142C225.057 21.1949 224.699 21.4975 224.228 21.7219C223.759 21.9463 223.19 22.0585 222.519 22.0585C221.894 22.0585 221.353 21.9577 220.895 21.756C220.441 21.5543 220.083 21.273 219.822 20.9122C219.563 20.5514 219.417 20.1324 219.383 19.6551H220.474C220.502 19.9847 220.613 20.2574 220.806 20.4733C221.002 20.6864 221.249 20.8455 221.547 20.9506C221.849 21.0529 222.172 21.104 222.519 21.104C222.922 21.104 223.285 21.0387 223.606 20.908C223.927 20.7745 224.181 20.5898 224.368 20.354C224.556 20.1154 224.65 19.837 224.65 19.5188C224.65 19.229 224.569 18.9932 224.407 18.8114C224.245 18.6296 224.032 18.4818 223.768 18.3682C223.503 18.2546 223.218 18.1551 222.911 18.0699L221.837 17.7631C221.155 17.5671 220.616 17.2872 220.218 16.9236C219.82 16.56 219.621 16.0841 219.621 15.496C219.621 15.0074 219.753 14.5813 220.018 14.2176C220.285 13.8512 220.643 13.5671 221.091 13.3654C221.543 13.1608 222.047 13.0585 222.604 13.0585C223.167 13.0585 223.667 13.1594 224.104 13.3611C224.542 13.56 224.888 13.8327 225.144 14.1793C225.403 14.5259 225.539 14.9193 225.553 15.3597H224.53ZM229.618 22.0415C228.987 22.0415 228.443 21.9023 227.986 21.6239C227.531 21.3426 227.18 20.9506 226.933 20.4477C226.689 19.9421 226.567 19.354 226.567 18.6835C226.567 18.0131 226.689 17.4222 226.933 16.9108C227.18 16.3966 227.524 15.996 227.965 15.7091C228.408 15.4193 228.925 15.2745 229.516 15.2745C229.857 15.2745 230.193 15.3313 230.526 15.4449C230.858 15.5585 231.161 15.7432 231.433 15.9989C231.706 16.2517 231.923 16.587 232.085 17.0046C232.247 17.4222 232.328 17.9364 232.328 18.5472V18.9733H227.283V18.104H231.305C231.305 17.7347 231.232 17.4051 231.084 17.1154C230.939 16.8256 230.732 16.5969 230.462 16.4293C230.195 16.2617 229.879 16.1779 229.516 16.1779C229.115 16.1779 228.769 16.2773 228.476 16.4762C228.186 16.6722 227.963 16.9279 227.807 17.2432C227.651 17.5585 227.573 17.8966 227.573 18.2574V18.837C227.573 19.3313 227.658 19.7503 227.828 20.0941C228.002 20.435 228.242 20.6949 228.548 20.8739C228.855 21.05 229.212 21.1381 229.618 21.1381C229.882 21.1381 230.121 21.1012 230.334 21.0273C230.55 20.9506 230.736 20.837 230.892 20.6864C231.048 20.533 231.169 20.3426 231.254 20.1154L232.226 20.3881C232.124 20.7176 231.952 21.0074 231.71 21.2574C231.469 21.5046 231.171 21.6977 230.815 21.837C230.46 21.9733 230.061 22.0415 229.618 22.0415ZM233.458 21.9051V15.3597H234.43V16.3483H234.498C234.617 16.0245 234.833 15.7617 235.146 15.56C235.458 15.3583 235.81 15.2574 236.202 15.2574C236.276 15.2574 236.369 15.2588 236.479 15.2617C236.59 15.2645 236.674 15.2688 236.731 15.2745V16.2972C236.697 16.2887 236.619 16.2759 236.496 16.2588C236.377 16.2389 236.251 16.229 236.117 16.229C235.799 16.229 235.515 16.2958 235.265 16.4293C235.018 16.56 234.822 16.7418 234.677 16.9747C234.535 17.2049 234.464 17.4676 234.464 17.7631V21.9051H233.458ZM243.074 15.3597L240.654 21.9051H239.631L237.211 15.3597H238.302L240.108 20.5756H240.177L241.983 15.3597H243.074ZM244.002 21.9051V15.3597H245.007V21.9051H244.002ZM244.513 14.2688C244.317 14.2688 244.148 14.202 244.006 14.0685C243.867 13.935 243.797 13.7745 243.797 13.587C243.797 13.3995 243.867 13.2389 244.006 13.1054C244.148 12.9719 244.317 12.9051 244.513 12.9051C244.709 12.9051 244.877 12.9719 245.016 13.1054C245.158 13.2389 245.229 13.3995 245.229 13.587C245.229 13.7745 245.158 13.935 245.016 14.0685C244.877 14.202 244.709 14.2688 244.513 14.2688ZM249.109 22.0415C248.495 22.0415 247.966 21.8966 247.523 21.6068C247.08 21.3171 246.739 20.9179 246.501 20.4094C246.262 19.9009 246.143 19.3199 246.143 18.6665C246.143 18.0017 246.265 17.4151 246.509 16.9066C246.756 16.3952 247.1 15.996 247.54 15.7091C247.984 15.4193 248.501 15.2745 249.091 15.2745C249.552 15.2745 249.966 15.3597 250.336 15.5301C250.705 15.7006 251.008 15.9392 251.243 16.246C251.479 16.5529 251.626 16.9108 251.682 17.3199H250.677C250.6 17.0216 250.43 16.7574 250.165 16.5273C249.904 16.2943 249.552 16.1779 249.109 16.1779C248.716 16.1779 248.373 16.2801 248.077 16.4847C247.785 16.6864 247.556 16.9719 247.391 17.3412C247.229 17.7077 247.148 18.1381 247.148 18.6324C247.148 19.1381 247.228 19.5784 247.387 19.9534C247.549 20.3284 247.776 20.6196 248.069 20.827C248.364 21.0344 248.711 21.1381 249.109 21.1381C249.37 21.1381 249.607 21.0926 249.82 21.0017C250.033 20.9108 250.214 20.7801 250.361 20.6097C250.509 20.4392 250.614 20.2347 250.677 19.996H251.682C251.626 20.3824 251.485 20.7304 251.261 21.0401C251.039 21.3469 250.745 21.5912 250.378 21.773C250.015 21.952 249.591 22.0415 249.109 22.0415ZM255.497 22.0415C254.866 22.0415 254.322 21.9023 253.865 21.6239C253.41 21.3426 253.059 20.9506 252.812 20.4477C252.568 19.9421 252.446 19.354 252.446 18.6835C252.446 18.0131 252.568 17.4222 252.812 16.9108C253.059 16.3966 253.403 15.996 253.843 15.7091C254.287 15.4193 254.804 15.2745 255.395 15.2745C255.736 15.2745 256.072 15.3313 256.405 15.4449C256.737 15.5585 257.04 15.7432 257.312 15.9989C257.585 16.2517 257.802 16.587 257.964 17.0046C258.126 17.4222 258.207 17.9364 258.207 18.5472V18.9733H253.162V18.104H257.184C257.184 17.7347 257.111 17.4051 256.963 17.1154C256.818 16.8256 256.611 16.5969 256.341 16.4293C256.074 16.2617 255.758 16.1779 255.395 16.1779C254.994 16.1779 254.647 16.2773 254.355 16.4762C254.065 16.6722 253.842 16.9279 253.686 17.2432C253.53 17.5585 253.451 17.8966 253.451 18.2574V18.837C253.451 19.3313 253.537 19.7503 253.707 20.0941C253.88 20.435 254.12 20.6949 254.427 20.8739C254.734 21.05 255.091 21.1381 255.497 21.1381C255.761 21.1381 256 21.1012 256.213 21.0273C256.429 20.9506 256.615 20.837 256.771 20.6864C256.927 20.533 257.048 20.3426 257.133 20.1154L258.105 20.3881C258.003 20.7176 257.831 21.0074 257.589 21.2574C257.348 21.5046 257.049 21.6977 256.694 21.837C256.339 21.9733 255.94 22.0415 255.497 22.0415Z" fill="#1FA8CA"/>
<g opacity="0.198347">
<path d="M29.6765 4.36243C37.4973 4.36243 43.8472 10.4711 43.8472 17.9947C43.8472 25.5184 37.4973 31.6271 29.6765 31.6271C21.8557 31.6271 15.5059 25.5184 15.5059 17.9947C15.5059 10.4711 21.8557 4.36243 29.6765 4.36243Z" fill="#45B3E0" fill-opacity="0.89"/>
</g>
<g opacity="0.446281">
<path d="M29.6764 8.57858C35.0784 8.57858 39.4644 12.798 39.4644 17.9947C39.4644 23.1915 35.0784 27.4109 29.6764 27.4109C24.2744 27.4109 19.8884 23.1915 19.8884 17.9947C19.8884 12.798 24.2744 8.57858 29.6764 8.57858Z" fill="#45B3E0" fill-opacity="0.89"/>
</g>
<g opacity="0.694215">
<path d="M29.6763 12.7948C32.6595 12.7948 35.0816 15.1249 35.0816 17.9948C35.0816 20.8646 32.6595 23.1947 29.6763 23.1947C26.6931 23.1947 24.271 20.8646 24.271 17.9948C24.271 15.1249 26.6931 12.7948 29.6763 12.7948Z" fill="#45B3E0" fill-opacity="0.89"/>
</g>
<g opacity="0.942149">
<path d="M29.6764 17.011C30.2408 17.011 30.6991 17.4518 30.6991 17.9947C30.6991 18.5377 30.2408 18.9785 29.6764 18.9785C29.112 18.9785 28.6538 18.5377 28.6538 17.9947C28.6538 17.4518 29.112 17.011 29.6764 17.011Z" fill="#45B3E0" fill-opacity="0.89"/>
</g>
<defs>
<radialGradient id="paint0_radial_5820_6574" cx="0" cy="0" r="1" gradientUnits="userSpaceOnUse" gradientTransform="translate(146.5 32.6522) scale(146.5 31.6627)">
<stop stop-color="#1FA8CA" stop-opacity="0.58"/>
<stop offset="1" stop-color="white"/>
</radialGradient>
<clipPath id="clip0_5820_6574">
<rect y="0.989456" width="293" height="31.6627" rx="15.8314" fill="white"/>
</clipPath>
</defs>
</svg>
