<svg xmlns="http://www.w3.org/2000/svg" fill="none" viewBox="4 0.82 293 32">
<g opacity="0.35" filter="url(#filter0_di_5755_6586)">
<g clip-path="url(#clip0_5755_6586)">
<rect x="4" y="0.989461" width="293" height="31.6627" rx="15.8314" fill="url(#paint0_radial_5755_6586)" shape-rendering="crispEdges"/>
<g clip-path="url(#clip1_5755_6586)">
<g clip-path="url(#clip2_5755_6586)">
<rect x="58.998" y="0.820833" width="237" height="32" rx="16" fill="url(#paint1_linear_5755_6586)"/>
</g>
</g>
</g>
</g>
<path d="M83.2288 13.1779H84.4901L87.4561 20.4222H87.5583L90.5242 13.1779H91.7856V21.9051H90.797V15.2745H90.7117L87.9845 21.9051H87.0299L84.3026 15.2745H84.2174V21.9051H83.2288V13.1779ZM96.0273 22.0415C95.4364 22.0415 94.9179 21.9009 94.4719 21.6196C94.0287 21.3384 93.6821 20.9449 93.4321 20.4392C93.185 19.9336 93.0614 19.3426 93.0614 18.6665C93.0614 17.9847 93.185 17.3895 93.4321 16.881C93.6821 16.3725 94.0287 15.9776 94.4719 15.6963C94.9179 15.4151 95.4364 15.2745 96.0273 15.2745C96.6182 15.2745 97.1352 15.4151 97.5784 15.6963C98.0244 15.9776 98.371 16.3725 98.6182 16.881C98.8682 17.3895 98.9932 17.9847 98.9932 18.6665C98.9932 19.3426 98.8682 19.9336 98.6182 20.4392C98.371 20.9449 98.0244 21.3384 97.5784 21.6196C97.1352 21.9009 96.6182 22.0415 96.0273 22.0415ZM96.0273 21.1381C96.4761 21.1381 96.8455 21.023 97.1352 20.7929C97.425 20.5628 97.6395 20.2603 97.7787 19.8853C97.9179 19.5103 97.9875 19.104 97.9875 18.6665C97.9875 18.229 97.9179 17.8213 97.7787 17.4435C97.6395 17.0657 97.425 16.7603 97.1352 16.5273C96.8455 16.2944 96.4761 16.1779 96.0273 16.1779C95.5784 16.1779 95.2091 16.2944 94.9193 16.5273C94.6296 16.7603 94.4151 17.0657 94.2759 17.4435C94.1367 17.8213 94.0671 18.229 94.0671 18.6665C94.0671 19.104 94.1367 19.5103 94.2759 19.8853C94.4151 20.2603 94.6296 20.5628 94.9193 20.7929C95.2091 21.023 95.5784 21.1381 96.0273 21.1381ZM101.134 17.9676V21.9051H100.128V15.3597H101.1V16.3824H101.185C101.339 16.05 101.572 15.783 101.884 15.5813C102.197 15.3767 102.6 15.2745 103.094 15.2745C103.537 15.2745 103.925 15.3654 104.258 15.5472C104.59 15.7262 104.849 15.9989 105.033 16.3654C105.218 16.729 105.31 17.1892 105.31 17.7461V21.9051H104.304V17.8142C104.304 17.3 104.171 16.8995 103.904 16.6125C103.637 16.3228 103.27 16.1779 102.804 16.1779C102.483 16.1779 102.197 16.2475 101.944 16.3867C101.694 16.5259 101.496 16.729 101.351 16.9961C101.206 17.2631 101.134 17.587 101.134 17.9676ZM106.748 21.9051V15.3597H107.754V21.9051H106.748ZM107.259 14.2688C107.063 14.2688 106.894 14.202 106.752 14.0685C106.613 13.935 106.543 13.7745 106.543 13.587C106.543 13.3995 106.613 13.239 106.752 13.1054C106.894 12.9719 107.063 12.9051 107.259 12.9051C107.455 12.9051 107.623 12.9719 107.762 13.1054C107.904 13.239 107.975 13.3995 107.975 13.587C107.975 13.7745 107.904 13.935 107.762 14.0685C107.623 14.202 107.455 14.2688 107.259 14.2688ZM112.042 15.3597V16.212H108.65V15.3597H112.042ZM109.639 13.7915H110.644V20.0301C110.644 20.3142 110.686 20.5273 110.768 20.6694C110.853 20.8086 110.961 20.9023 111.092 20.9506C111.225 20.9961 111.366 21.0188 111.514 21.0188C111.625 21.0188 111.715 21.0131 111.786 21.0017C111.857 20.9875 111.914 20.9762 111.957 20.9676L112.161 21.8711C112.093 21.8966 111.998 21.9222 111.876 21.9478C111.754 21.9762 111.599 21.9904 111.411 21.9904C111.127 21.9904 110.849 21.9293 110.576 21.8071C110.306 21.685 110.082 21.4989 109.903 21.2489C109.727 20.9989 109.639 20.6836 109.639 20.3029V13.7915ZM115.744 22.0415C115.153 22.0415 114.634 21.9009 114.188 21.6196C113.745 21.3384 113.399 20.9449 113.149 20.4392C112.901 19.9336 112.778 19.3426 112.778 18.6665C112.778 17.9847 112.901 17.3895 113.149 16.881C113.399 16.3725 113.745 15.9776 114.188 15.6963C114.634 15.4151 115.153 15.2745 115.744 15.2745C116.335 15.2745 116.852 15.4151 117.295 15.6963C117.741 15.9776 118.087 16.3725 118.335 16.881C118.585 17.3895 118.71 17.9847 118.71 18.6665C118.71 19.3426 118.585 19.9336 118.335 20.4392C118.087 20.9449 117.741 21.3384 117.295 21.6196C116.852 21.9009 116.335 22.0415 115.744 22.0415ZM115.744 21.1381C116.193 21.1381 116.562 21.023 116.852 20.7929C117.141 20.5628 117.356 20.2603 117.495 19.8853C117.634 19.5103 117.704 19.104 117.704 18.6665C117.704 18.229 117.634 17.8213 117.495 17.4435C117.356 17.0657 117.141 16.7603 116.852 16.5273C116.562 16.2944 116.193 16.1779 115.744 16.1779C115.295 16.1779 114.926 16.2944 114.636 16.5273C114.346 16.7603 114.131 17.0657 113.992 17.4435C113.853 17.8213 113.783 18.229 113.783 18.6665C113.783 19.104 113.853 19.5103 113.992 19.8853C114.131 20.2603 114.346 20.5628 114.636 20.7929C114.926 21.023 115.295 21.1381 115.744 21.1381ZM119.845 21.9051V15.3597H120.816V16.3483H120.885C121.004 16.0245 121.22 15.7617 121.532 15.56C121.845 15.3583 122.197 15.2574 122.589 15.2574C122.663 15.2574 122.755 15.2588 122.866 15.2617C122.977 15.2645 123.061 15.2688 123.117 15.2745V16.2972C123.083 16.2887 123.005 16.2759 122.883 16.2588C122.764 16.239 122.637 16.229 122.504 16.229C122.186 16.229 121.902 16.2958 121.652 16.4293C121.404 16.56 121.208 16.7418 121.064 16.9747C120.921 17.2049 120.85 17.4676 120.85 17.7631V21.9051H119.845ZM123.91 21.9051V15.3597H124.915V21.9051H123.91ZM124.421 14.2688C124.225 14.2688 124.056 14.202 123.914 14.0685C123.775 13.935 123.705 13.7745 123.705 13.587C123.705 13.3995 123.775 13.239 123.914 13.1054C124.056 12.9719 124.225 12.9051 124.421 12.9051C124.617 12.9051 124.785 12.9719 124.924 13.1054C125.066 13.239 125.137 13.3995 125.137 13.587C125.137 13.7745 125.066 13.935 124.924 14.0685C124.785 14.202 124.617 14.2688 124.421 14.2688ZM127.363 17.9676V21.9051H126.357V15.3597H127.329V16.3824H127.414C127.567 16.05 127.8 15.783 128.113 15.5813C128.425 15.3767 128.829 15.2745 129.323 15.2745C129.766 15.2745 130.154 15.3654 130.487 15.5472C130.819 15.7262 131.077 15.9989 131.262 16.3654C131.447 16.729 131.539 17.1892 131.539 17.7461V21.9051H130.533V17.8142C130.533 17.3 130.4 16.8995 130.133 16.6125C129.866 16.3228 129.499 16.1779 129.033 16.1779C128.712 16.1779 128.425 16.2475 128.173 16.3867C127.923 16.5259 127.725 16.729 127.58 16.9961C127.435 17.2631 127.363 17.587 127.363 17.9676ZM135.619 24.4961C135.133 24.4961 134.715 24.4336 134.366 24.3086C134.017 24.1864 133.725 24.0245 133.492 23.8228C133.262 23.6239 133.079 23.4108 132.943 23.1836L133.744 22.6211C133.835 22.7404 133.95 22.8767 134.089 23.0301C134.228 23.1864 134.419 23.3213 134.66 23.435C134.904 23.5515 135.224 23.6097 135.619 23.6097C136.147 23.6097 136.583 23.4819 136.927 23.2262C137.271 22.9705 137.443 22.5699 137.443 22.0245V20.6949H137.357C137.284 20.8142 137.178 20.962 137.042 21.1381C136.909 21.3114 136.715 21.4662 136.463 21.6026C136.213 21.7361 135.875 21.8029 135.448 21.8029C134.92 21.8029 134.446 21.6779 134.025 21.4279C133.607 21.1779 133.277 20.8142 133.032 20.337C132.791 19.8597 132.67 19.2801 132.67 18.5983C132.67 17.9279 132.788 17.3441 133.024 16.8469C133.259 16.3469 133.588 15.9605 134.008 15.6878C134.428 15.4122 134.914 15.2745 135.465 15.2745C135.892 15.2745 136.23 15.3455 136.48 15.4875C136.732 15.6267 136.926 15.7858 137.059 15.9648C137.196 16.1409 137.301 16.2858 137.375 16.3995H137.477V15.3597H138.448V22.0926C138.448 22.6551 138.321 23.1125 138.065 23.4648C137.812 23.8199 137.471 24.0799 137.042 24.2446C136.616 24.4122 136.142 24.4961 135.619 24.4961ZM135.585 20.8995C135.988 20.8995 136.329 20.8071 136.607 20.6225C136.886 20.4378 137.098 20.1722 137.242 19.8256C137.387 19.479 137.46 19.0642 137.46 18.5813C137.46 18.1097 137.389 17.6935 137.247 17.3327C137.105 16.9719 136.894 16.6892 136.616 16.4847C136.338 16.2801 135.994 16.1779 135.585 16.1779C135.159 16.1779 134.803 16.2858 134.519 16.5017C134.238 16.7176 134.027 17.0074 133.884 17.3711C133.745 17.7347 133.676 18.1381 133.676 18.5813C133.676 19.0358 133.747 19.4378 133.889 19.7872C134.034 20.1338 134.247 20.4066 134.528 20.6054C134.812 20.8015 135.164 20.8995 135.585 20.8995ZM144.79 22.0586C144.376 22.0586 143.999 21.9804 143.661 21.8242C143.323 21.6651 143.055 21.4364 142.856 21.1381C142.657 20.837 142.557 20.4733 142.557 20.0472C142.557 19.6722 142.631 19.3682 142.779 19.1353C142.927 18.8995 143.124 18.7148 143.371 18.5813C143.619 18.4478 143.891 18.3483 144.19 18.283C144.491 18.2148 144.793 18.1608 145.097 18.1211C145.495 18.0699 145.817 18.0316 146.065 18.006C146.315 17.9776 146.496 17.9307 146.61 17.8654C146.727 17.8 146.785 17.6864 146.785 17.5245V17.4904C146.785 17.0699 146.67 16.7432 146.44 16.5103C146.212 16.2773 145.867 16.1608 145.404 16.1608C144.924 16.1608 144.548 16.2659 144.275 16.4762C144.002 16.6864 143.81 16.9108 143.7 17.1495L142.745 16.8086C142.915 16.4108 143.143 16.1012 143.427 15.8796C143.714 15.6551 144.026 15.4989 144.364 15.4108C144.705 15.3199 145.04 15.2745 145.37 15.2745C145.58 15.2745 145.822 15.3 146.094 15.3512C146.37 15.3995 146.636 15.5003 146.891 15.6537C147.15 15.8071 147.364 16.0387 147.535 16.3483C147.705 16.658 147.79 17.0728 147.79 17.5926V21.9051H146.785V21.0188H146.734C146.665 21.1608 146.552 21.3128 146.393 21.4747C146.234 21.6367 146.022 21.7745 145.758 21.8881C145.494 22.0017 145.171 22.0586 144.79 22.0586ZM144.944 21.1551C145.342 21.1551 145.677 21.077 145.95 20.9208C146.225 20.7645 146.432 20.5628 146.572 20.3157C146.714 20.0685 146.785 19.8086 146.785 19.5358V18.6154C146.742 18.6665 146.648 18.7134 146.503 18.756C146.361 18.7958 146.197 18.8313 146.009 18.8625C145.825 18.8909 145.644 18.9165 145.468 18.9392C145.295 18.9591 145.154 18.9762 145.046 18.9904C144.785 19.0245 144.54 19.0799 144.313 19.1566C144.089 19.2304 143.907 19.3426 143.768 19.4932C143.631 19.6409 143.563 19.8426 143.563 20.0983C143.563 20.4478 143.692 20.712 143.951 20.8909C144.212 21.0671 144.543 21.1551 144.944 21.1551ZM150.232 17.9676V21.9051H149.226V15.3597H150.198V16.3824H150.283C150.436 16.05 150.669 15.783 150.982 15.5813C151.294 15.3767 151.698 15.2745 152.192 15.2745C152.635 15.2745 153.023 15.3654 153.355 15.5472C153.688 15.7262 153.946 15.9989 154.131 16.3654C154.315 16.729 154.408 17.1892 154.408 17.7461V21.9051H153.402V17.8142C153.402 17.3 153.269 16.8995 153.002 16.6125C152.735 16.3228 152.368 16.1779 151.902 16.1779C151.581 16.1779 151.294 16.2475 151.041 16.3867C150.791 16.5259 150.594 16.729 150.449 16.9961C150.304 17.2631 150.232 17.587 150.232 17.9676ZM158.317 22.0415C157.772 22.0415 157.29 21.9037 156.873 21.6282C156.455 21.3497 156.128 20.9577 155.892 20.452C155.657 19.9435 155.539 19.3426 155.539 18.6495C155.539 17.962 155.657 17.3654 155.892 16.8597C156.128 16.354 156.456 15.9634 156.877 15.6878C157.297 15.4122 157.783 15.2745 158.334 15.2745C158.76 15.2745 159.097 15.3455 159.344 15.4875C159.594 15.6267 159.784 15.7858 159.915 15.9648C160.049 16.1409 160.152 16.2858 160.226 16.3995H160.311V13.1779H161.317V21.9051H160.346V20.8995H160.226C160.152 21.0188 160.047 21.1694 159.911 21.3512C159.775 21.5301 159.58 21.6907 159.327 21.8327C159.074 21.9719 158.738 22.0415 158.317 22.0415ZM158.453 21.1381C158.857 21.1381 159.198 21.033 159.476 20.8228C159.755 20.6097 159.966 20.3157 160.111 19.9407C160.256 19.5628 160.328 19.1267 160.328 18.6324C160.328 18.1438 160.257 17.7162 160.115 17.3497C159.973 16.9804 159.763 16.6935 159.485 16.489C159.206 16.2816 158.863 16.1779 158.453 16.1779C158.027 16.1779 157.672 16.2872 157.388 16.506C157.107 16.7219 156.895 17.0159 156.753 17.3881C156.614 17.7574 156.544 18.1722 156.544 18.6324C156.544 19.0983 156.615 19.5216 156.757 19.9023C156.902 20.2801 157.115 20.5813 157.397 20.8057C157.681 21.0273 158.033 21.1381 158.453 21.1381ZM165.533 14.1154V13.1779H172.078V14.1154H169.334V21.9051H168.277V14.1154H165.533ZM174.208 22.0586C173.794 22.0586 173.417 21.9804 173.079 21.8242C172.741 21.6651 172.473 21.4364 172.274 21.1381C172.075 20.837 171.975 20.4733 171.975 20.0472C171.975 19.6722 172.049 19.3682 172.197 19.1353C172.345 18.8995 172.542 18.7148 172.789 18.5813C173.037 18.4478 173.309 18.3483 173.608 18.283C173.909 18.2148 174.211 18.1608 174.515 18.1211C174.913 18.0699 175.235 18.0316 175.483 18.006C175.733 17.9776 175.914 17.9307 176.028 17.8654C176.144 17.8 176.203 17.6864 176.203 17.5245V17.4904C176.203 17.0699 176.088 16.7432 175.858 16.5103C175.63 16.2773 175.285 16.1608 174.822 16.1608C174.342 16.1608 173.965 16.2659 173.693 16.4762C173.42 16.6864 173.228 16.9108 173.117 17.1495L172.163 16.8086C172.333 16.4108 172.561 16.1012 172.845 15.8796C173.132 15.6551 173.444 15.4989 173.782 15.4108C174.123 15.3199 174.458 15.2745 174.788 15.2745C174.998 15.2745 175.24 15.3 175.512 15.3512C175.788 15.3995 176.054 15.5003 176.309 15.6537C176.568 15.8071 176.782 16.0387 176.953 16.3483C177.123 16.658 177.208 17.0728 177.208 17.5926V21.9051H176.203V21.0188H176.152C176.083 21.1608 175.97 21.3128 175.811 21.4747C175.652 21.6367 175.44 21.7745 175.176 21.8881C174.912 22.0017 174.589 22.0586 174.208 22.0586ZM174.362 21.1551C174.76 21.1551 175.095 21.077 175.367 20.9208C175.643 20.7645 175.85 20.5628 175.99 20.3157C176.132 20.0685 176.203 19.8086 176.203 19.5358V18.6154C176.16 18.6665 176.066 18.7134 175.921 18.756C175.779 18.7958 175.615 18.8313 175.427 18.8625C175.242 18.8909 175.062 18.9165 174.886 18.9392C174.713 18.9591 174.572 18.9762 174.464 18.9904C174.203 19.0245 173.958 19.0799 173.731 19.1566C173.507 19.2304 173.325 19.3426 173.186 19.4932C173.049 19.6409 172.981 19.8426 172.981 20.0983C172.981 20.4478 173.11 20.712 173.369 20.8909C173.63 21.0671 173.961 21.1551 174.362 21.1551ZM179.581 19.5188L179.564 18.2745H179.769L182.633 15.3597H183.877L180.826 18.4449H180.741L179.581 19.5188ZM178.644 21.9051V13.1779H179.65V21.9051H178.644ZM182.803 21.9051L180.246 18.6665L180.962 17.9676L184.081 21.9051H182.803ZM187.246 22.0415C186.615 22.0415 186.071 21.9023 185.614 21.6239C185.159 21.3426 184.809 20.9506 184.561 20.4478C184.317 19.9421 184.195 19.354 184.195 18.6836C184.195 18.0131 184.317 17.4222 184.561 16.9108C184.809 16.3966 185.152 15.9961 185.593 15.7091C186.036 15.4194 186.553 15.2745 187.144 15.2745C187.485 15.2745 187.821 15.3313 188.154 15.4449C188.486 15.5586 188.789 15.7432 189.061 15.9989C189.334 16.2517 189.552 16.587 189.713 17.0046C189.875 17.4222 189.956 17.9364 189.956 18.5472V18.9733H184.911V18.104H188.934C188.934 17.7347 188.86 17.4051 188.712 17.1154C188.567 16.8256 188.36 16.5969 188.09 16.4293C187.823 16.2617 187.507 16.1779 187.144 16.1779C186.743 16.1779 186.397 16.2773 186.104 16.4762C185.814 16.6722 185.591 16.9279 185.435 17.2432C185.279 17.5586 185.201 17.8966 185.201 18.2574V18.837C185.201 19.3313 185.286 19.7503 185.456 20.0941C185.63 20.435 185.87 20.6949 186.177 20.8739C186.483 21.05 186.84 21.1381 187.246 21.1381C187.51 21.1381 187.749 21.1012 187.962 21.0273C188.178 20.9506 188.364 20.837 188.52 20.6864C188.677 20.533 188.797 20.3426 188.882 20.1154L189.854 20.3881C189.752 20.7176 189.58 21.0074 189.338 21.2574C189.097 21.5046 188.799 21.6978 188.444 21.837C188.088 21.9733 187.689 22.0415 187.246 22.0415ZM193.558 22.0415C193.012 22.0415 192.531 21.9037 192.113 21.6282C191.696 21.3497 191.369 20.9577 191.133 20.452C190.897 19.9435 190.779 19.3426 190.779 18.6495C190.779 17.962 190.897 17.3654 191.133 16.8597C191.369 16.354 191.697 15.9634 192.117 15.6878C192.538 15.4122 193.024 15.2745 193.575 15.2745C194.001 15.2745 194.338 15.3455 194.585 15.4875C194.835 15.6267 195.025 15.7858 195.156 15.9648C195.289 16.1409 195.393 16.2858 195.467 16.3995H195.552V13.1779H196.558V21.9051H195.586V20.8995H195.467C195.393 21.0188 195.288 21.1694 195.152 21.3512C195.015 21.5301 194.821 21.6907 194.568 21.8327C194.315 21.9719 193.978 22.0415 193.558 22.0415ZM193.694 21.1381C194.098 21.1381 194.438 21.033 194.717 20.8228C194.995 20.6097 195.207 20.3157 195.352 19.9407C195.497 19.5628 195.569 19.1267 195.569 18.6324C195.569 18.1438 195.498 17.7162 195.356 17.3497C195.214 16.9804 195.004 16.6935 194.725 16.489C194.447 16.2816 194.103 16.1779 193.694 16.1779C193.268 16.1779 192.913 16.2872 192.629 16.506C192.348 16.7219 192.136 17.0159 191.994 17.3881C191.855 17.7574 191.785 18.1722 191.785 18.6324C191.785 19.0983 191.856 19.5216 191.998 19.9023C192.143 20.2801 192.356 20.5813 192.637 20.8057C192.921 21.0273 193.274 21.1381 193.694 21.1381ZM200.798 22.0415C200.207 22.0415 199.689 21.9009 199.243 21.6196C198.8 21.3384 198.453 20.9449 198.203 20.4392C197.956 19.9336 197.832 19.3426 197.832 18.6665C197.832 17.9847 197.956 17.3895 198.203 16.881C198.453 16.3725 198.8 15.9776 199.243 15.6963C199.689 15.4151 200.207 15.2745 200.798 15.2745C201.389 15.2745 201.906 15.4151 202.35 15.6963C202.796 15.9776 203.142 16.3725 203.389 16.881C203.639 17.3895 203.764 17.9847 203.764 18.6665C203.764 19.3426 203.639 19.9336 203.389 20.4392C203.142 20.9449 202.796 21.3384 202.35 21.6196C201.906 21.9009 201.389 22.0415 200.798 22.0415ZM200.798 21.1381C201.247 21.1381 201.617 21.023 201.906 20.7929C202.196 20.5628 202.411 20.2603 202.55 19.8853C202.689 19.5103 202.759 19.104 202.759 18.6665C202.759 18.229 202.689 17.8213 202.55 17.4435C202.411 17.0657 202.196 16.7603 201.906 16.5273C201.617 16.2944 201.247 16.1779 200.798 16.1779C200.35 16.1779 199.98 16.2944 199.69 16.5273C199.401 16.7603 199.186 17.0657 199.047 17.4435C198.908 17.8213 198.838 18.229 198.838 18.6665C198.838 19.104 198.908 19.5103 199.047 19.8853C199.186 20.2603 199.401 20.5628 199.69 20.7929C199.98 21.023 200.35 21.1381 200.798 21.1381ZM206.16 21.9051L204.165 15.3597H205.222L206.637 20.3711H206.705L208.103 15.3597H209.177L210.557 20.354H210.626L212.04 15.3597H213.097L211.103 21.9051H210.114L208.682 16.8767H208.58L207.148 21.9051H206.16ZM215.032 17.9676V21.9051H214.027V15.3597H214.998V16.3824H215.084C215.237 16.05 215.47 15.783 215.782 15.5813C216.095 15.3767 216.498 15.2745 216.993 15.2745C217.436 15.2745 217.824 15.3654 218.156 15.5472C218.488 15.7262 218.747 15.9989 218.932 16.3654C219.116 16.729 219.209 17.1892 219.209 17.7461V21.9051H218.203V17.8142C218.203 17.3 218.069 16.8995 217.802 16.6125C217.535 16.3228 217.169 16.1779 216.703 16.1779C216.382 16.1779 216.095 16.2475 215.842 16.3867C215.592 16.5259 215.395 16.729 215.25 16.9961C215.105 17.2631 215.032 17.587 215.032 17.9676ZM228.53 15.3597C228.479 14.9279 228.272 14.5926 227.908 14.354C227.545 14.1154 227.099 13.9961 226.57 13.9961C226.184 13.9961 225.846 14.0586 225.556 14.1836C225.269 14.3086 225.045 14.4804 224.883 14.6992C224.724 14.9179 224.644 15.1665 224.644 15.4449C224.644 15.6779 224.699 15.8782 224.81 16.0458C224.924 16.2105 225.069 16.3483 225.245 16.4591C225.421 16.5671 225.606 16.6566 225.799 16.7276C225.992 16.7958 226.17 16.8512 226.332 16.8938L227.218 17.1324C227.445 17.1921 227.698 17.2745 227.976 17.3796C228.258 17.4847 228.526 17.6282 228.782 17.81C229.04 17.989 229.253 18.2191 229.421 18.5003C229.589 18.7816 229.672 19.1267 229.672 19.5358C229.672 20.0074 229.549 20.4336 229.302 20.8142C229.057 21.1949 228.699 21.4975 228.228 21.7219C227.759 21.9463 227.19 22.0586 226.519 22.0586C225.894 22.0586 225.353 21.9577 224.895 21.756C224.441 21.5543 224.083 21.273 223.822 20.9122C223.563 20.5515 223.417 20.1324 223.383 19.6551H224.474C224.502 19.9847 224.613 20.2574 224.806 20.4733C225.002 20.6864 225.249 20.8455 225.547 20.9506C225.849 21.0529 226.172 21.104 226.519 21.104C226.922 21.104 227.285 21.0387 227.606 20.908C227.927 20.7745 228.181 20.5898 228.368 20.354C228.556 20.1154 228.65 19.837 228.65 19.5188C228.65 19.229 228.569 18.9932 228.407 18.8114C228.245 18.6296 228.032 18.4819 227.768 18.3682C227.503 18.2546 227.218 18.1551 226.911 18.0699L225.837 17.7631C225.155 17.5671 224.616 17.2872 224.218 16.9236C223.82 16.56 223.621 16.0841 223.621 15.4961C223.621 15.0074 223.753 14.5813 224.018 14.2176C224.285 13.8512 224.643 13.5671 225.091 13.3654C225.543 13.1608 226.047 13.0586 226.604 13.0586C227.167 13.0586 227.667 13.1594 228.104 13.3611C228.542 13.56 228.888 13.8327 229.144 14.1793C229.403 14.5259 229.539 14.9194 229.553 15.3597H228.53ZM233.618 22.0415C232.987 22.0415 232.443 21.9023 231.986 21.6239C231.531 21.3426 231.18 20.9506 230.933 20.4478C230.689 19.9421 230.567 19.354 230.567 18.6836C230.567 18.0131 230.689 17.4222 230.933 16.9108C231.18 16.3966 231.524 15.9961 231.965 15.7091C232.408 15.4194 232.925 15.2745 233.516 15.2745C233.857 15.2745 234.193 15.3313 234.526 15.4449C234.858 15.5586 235.161 15.7432 235.433 15.9989C235.706 16.2517 235.923 16.587 236.085 17.0046C236.247 17.4222 236.328 17.9364 236.328 18.5472V18.9733H231.283V18.104H235.305C235.305 17.7347 235.232 17.4051 235.084 17.1154C234.939 16.8256 234.732 16.5969 234.462 16.4293C234.195 16.2617 233.879 16.1779 233.516 16.1779C233.115 16.1779 232.769 16.2773 232.476 16.4762C232.186 16.6722 231.963 16.9279 231.807 17.2432C231.651 17.5586 231.573 17.8966 231.573 18.2574V18.837C231.573 19.3313 231.658 19.7503 231.828 20.0941C232.002 20.435 232.242 20.6949 232.548 20.8739C232.855 21.05 233.212 21.1381 233.618 21.1381C233.882 21.1381 234.121 21.1012 234.334 21.0273C234.55 20.9506 234.736 20.837 234.892 20.6864C235.048 20.533 235.169 20.3426 235.254 20.1154L236.226 20.3881C236.124 20.7176 235.952 21.0074 235.71 21.2574C235.469 21.5046 235.171 21.6978 234.815 21.837C234.46 21.9733 234.061 22.0415 233.618 22.0415ZM237.458 21.9051V15.3597H238.43V16.3483H238.498C238.617 16.0245 238.833 15.7617 239.146 15.56C239.458 15.3583 239.81 15.2574 240.202 15.2574C240.276 15.2574 240.369 15.2588 240.479 15.2617C240.59 15.2645 240.674 15.2688 240.731 15.2745V16.2972C240.697 16.2887 240.619 16.2759 240.496 16.2588C240.377 16.239 240.251 16.229 240.117 16.229C239.799 16.229 239.515 16.2958 239.265 16.4293C239.018 16.56 238.822 16.7418 238.677 16.9747C238.535 17.2049 238.464 17.4676 238.464 17.7631V21.9051H237.458ZM247.074 15.3597L244.654 21.9051H243.631L241.211 15.3597H242.302L244.108 20.5756H244.177L245.983 15.3597H247.074ZM248.002 21.9051V15.3597H249.007V21.9051H248.002ZM248.513 14.2688C248.317 14.2688 248.148 14.202 248.006 14.0685C247.867 13.935 247.797 13.7745 247.797 13.587C247.797 13.3995 247.867 13.239 248.006 13.1054C248.148 12.9719 248.317 12.9051 248.513 12.9051C248.709 12.9051 248.877 12.9719 249.016 13.1054C249.158 13.239 249.229 13.3995 249.229 13.587C249.229 13.7745 249.158 13.935 249.016 14.0685C248.877 14.202 248.709 14.2688 248.513 14.2688ZM253.109 22.0415C252.495 22.0415 251.966 21.8966 251.523 21.6069C251.08 21.3171 250.739 20.9179 250.501 20.4094C250.262 19.9009 250.143 19.3199 250.143 18.6665C250.143 18.0017 250.265 17.4151 250.509 16.9066C250.756 16.3952 251.1 15.9961 251.54 15.7091C251.984 15.4194 252.501 15.2745 253.091 15.2745C253.552 15.2745 253.966 15.3597 254.336 15.5301C254.705 15.7006 255.008 15.9392 255.243 16.2461C255.479 16.5529 255.626 16.9108 255.682 17.3199H254.677C254.6 17.0216 254.43 16.7574 254.165 16.5273C253.904 16.2944 253.552 16.1779 253.109 16.1779C252.716 16.1779 252.373 16.2801 252.077 16.4847C251.785 16.6864 251.556 16.9719 251.391 17.3412C251.229 17.7077 251.148 18.1381 251.148 18.6324C251.148 19.1381 251.228 19.5784 251.387 19.9534C251.549 20.3284 251.776 20.6196 252.069 20.827C252.364 21.0344 252.711 21.1381 253.109 21.1381C253.37 21.1381 253.607 21.0926 253.82 21.0017C254.033 20.9108 254.214 20.7801 254.361 20.6097C254.509 20.4392 254.614 20.2347 254.677 19.9961H255.682C255.626 20.3824 255.485 20.7304 255.261 21.0401C255.039 21.3469 254.745 21.5912 254.378 21.773C254.015 21.952 253.591 22.0415 253.109 22.0415ZM259.497 22.0415C258.866 22.0415 258.322 21.9023 257.865 21.6239C257.41 21.3426 257.059 20.9506 256.812 20.4478C256.568 19.9421 256.446 19.354 256.446 18.6836C256.446 18.0131 256.568 17.4222 256.812 16.9108C257.059 16.3966 257.403 15.9961 257.843 15.7091C258.287 15.4194 258.804 15.2745 259.395 15.2745C259.736 15.2745 260.072 15.3313 260.405 15.4449C260.737 15.5586 261.04 15.7432 261.312 15.9989C261.585 16.2517 261.802 16.587 261.964 17.0046C262.126 17.4222 262.207 17.9364 262.207 18.5472V18.9733H257.162V18.104H261.184C261.184 17.7347 261.111 17.4051 260.963 17.1154C260.818 16.8256 260.611 16.5969 260.341 16.4293C260.074 16.2617 259.758 16.1779 259.395 16.1779C258.994 16.1779 258.647 16.2773 258.355 16.4762C258.065 16.6722 257.842 16.9279 257.686 17.2432C257.53 17.5586 257.451 17.8966 257.451 18.2574V18.837C257.451 19.3313 257.537 19.7503 257.707 20.0941C257.88 20.435 258.12 20.6949 258.427 20.8739C258.734 21.05 259.091 21.1381 259.497 21.1381C259.761 21.1381 260 21.1012 260.213 21.0273C260.429 20.9506 260.615 20.837 260.771 20.6864C260.927 20.533 261.048 20.3426 261.133 20.1154L262.105 20.3881C262.003 20.7176 261.831 21.0074 261.589 21.2574C261.348 21.5046 261.049 21.6978 260.694 21.837C260.339 21.9733 259.94 22.0415 259.497 22.0415Z" fill="#1FA8CA"/>
<g opacity="0.198347">
<path d="M33.6765 4.36244C41.4973 4.36244 47.8472 10.4711 47.8472 17.9948C47.8472 25.5184 41.4973 31.6271 33.6765 31.6271C25.8557 31.6271 19.5059 25.5184 19.5059 17.9948C19.5059 10.4711 25.8557 4.36244 33.6765 4.36244Z" fill="#45B3E0" fill-opacity="0.89"/>
</g>
<g opacity="0.446281">
<path d="M33.6764 8.57859C39.0784 8.57859 43.4644 12.798 43.4644 17.9947C43.4644 23.1915 39.0784 27.4109 33.6764 27.4109C28.2744 27.4109 23.8884 23.1915 23.8884 17.9947C23.8884 12.798 28.2744 8.57859 33.6764 8.57859Z" fill="#45B3E0" fill-opacity="0.89"/>
</g>
<g opacity="0.694215">
<path d="M33.6763 12.7948C36.6595 12.7948 39.0816 15.1249 39.0816 17.9948C39.0816 20.8646 36.6595 23.1947 33.6763 23.1947C30.6931 23.1947 28.271 20.8646 28.271 17.9948C28.271 15.1249 30.6931 12.7948 33.6763 12.7948Z" fill="#45B3E0" fill-opacity="0.89"/>
</g>
<g opacity="0.942149">
<path d="M33.6764 17.011C34.2408 17.011 34.6991 17.4518 34.6991 17.9947C34.6991 18.5377 34.2408 18.9785 33.6764 18.9785C33.112 18.9785 32.6538 18.5377 32.6538 17.9947C32.6538 17.4518 33.112 17.011 33.6764 17.011Z" fill="#45B3E0" fill-opacity="0.89"/>
</g>
<defs>
<filter id="filter0_di_5755_6586" x="0" y="0.989461" width="301" height="39.6627" filterUnits="userSpaceOnUse" color-interpolation-filters="sRGB">
<feFlood flood-opacity="0" result="BackgroundImageFix"/>
<feColorMatrix in="SourceAlpha" type="matrix" values="0 0 0 0 0 0 0 0 0 0 0 0 0 0 0 0 0 0 127 0" result="hardAlpha"/>
<feOffset dy="4"/>
<feGaussianBlur stdDeviation="2"/>
<feComposite in2="hardAlpha" operator="out"/>
<feColorMatrix type="matrix" values="0 0 0 0 0 0 0 0 0 0 0 0 0 0 0 0 0 0 0.25 0"/>
<feBlend mode="normal" in2="BackgroundImageFix" result="effect1_dropShadow_5755_6586"/>
<feBlend mode="normal" in="SourceGraphic" in2="effect1_dropShadow_5755_6586" result="shape"/>
<feColorMatrix in="SourceAlpha" type="matrix" values="0 0 0 0 0 0 0 0 0 0 0 0 0 0 0 0 0 0 127 0" result="hardAlpha"/>
<feOffset dy="4"/>
<feGaussianBlur stdDeviation="2"/>
<feComposite in2="hardAlpha" operator="arithmetic" k2="-1" k3="1"/>
<feColorMatrix type="matrix" values="0 0 0 0 0 0 0 0 0 0 0 0 0 0 0 0 0 0 0.14 0"/>
<feBlend mode="normal" in2="shape" result="effect2_innerShadow_5755_6586"/>
</filter>
<radialGradient id="paint0_radial_5755_6586" cx="0" cy="0" r="1" gradientUnits="userSpaceOnUse" gradientTransform="translate(150.5 32.6522) scale(146.5 31.6627)">
<stop stop-color="#1FA8CA" stop-opacity="0.58"/>
<stop offset="1" stop-color="white"/>
</radialGradient>
<linearGradient id="paint1_linear_5755_6586" x1="58.998" y1="16.8208" x2="295.998" y2="16.8208" gradientUnits="userSpaceOnUse">
<stop stop-color="white"/>
<stop offset="1" stop-color="white" stop-opacity="0.1"/>
</linearGradient>
<clipPath id="clip0_5755_6586">
<rect x="4" y="0.989461" width="293" height="31.6627" rx="15.8314" fill="white"/>
</clipPath>
<clipPath id="clip1_5755_6586">
<rect x="58.998" y="0.989461" width="223.992" height="31.6627" rx="15.8314" fill="white"/>
</clipPath>
<clipPath id="clip2_5755_6586">
<rect x="58.998" y="0.820833" width="237" height="32" rx="16" fill="white"/>
</clipPath>
</defs>
</svg>