<svg width="116" height="31" viewBox="0 0 116 31" fill="none" xmlns="http://www.w3.org/2000/svg">
<g filter="url(#filter0_dd_5743_10271)">
<g clip-path="url(#clip0_5743_10271)">
<rect width="116" height="31" rx="15.5" fill="white"/>
<rect y="0.19043" width="116" height="30" fill="white"/>
<rect x="3" y="3" width="110" height="25" rx="12.5" fill="url(#paint0_linear_5743_10271)"/>
<path d="M17.8011 12.3636C17.7415 11.8598 17.4995 11.4688 17.0753 11.1903C16.651 10.9119 16.1307 10.7727 15.5142 10.7727C15.0634 10.7727 14.669 10.8456 14.331 10.9915C13.9962 11.1373 13.7344 11.3378 13.5455 11.593C13.3598 11.8482 13.267 12.1383 13.267 12.4631C13.267 12.7348 13.3317 12.9685 13.4609 13.1641C13.5935 13.3563 13.7625 13.517 13.968 13.6463C14.1735 13.7723 14.389 13.8767 14.6143 13.9595C14.8397 14.0391 15.0469 14.1037 15.2358 14.1534L16.2699 14.4318C16.535 14.5014 16.83 14.5975 17.1548 14.7202C17.483 14.8428 17.7962 15.0102 18.0945 15.2223C18.3961 15.4311 18.6446 15.6996 18.8402 16.0277C19.0357 16.3558 19.1335 16.7585 19.1335 17.2358C19.1335 17.786 18.9893 18.2831 18.701 18.7273C18.416 19.1714 17.9983 19.5244 17.4482 19.7862C16.9013 20.0481 16.2367 20.179 15.4545 20.179C14.7254 20.179 14.094 20.0613 13.5604 19.826C13.0301 19.5907 12.6125 19.2625 12.3075 18.8416C12.0059 18.4207 11.8352 17.9318 11.7955 17.375H13.0682C13.1013 17.7595 13.2306 18.0777 13.456 18.3295C13.6847 18.5781 13.973 18.7637 14.321 18.8864C14.6723 19.0057 15.0502 19.0653 15.4545 19.0653C15.9252 19.0653 16.3478 18.9891 16.7223 18.8366C17.0968 18.6809 17.3935 18.4654 17.6122 18.1903C17.831 17.9119 17.9403 17.5871 17.9403 17.2159C17.9403 16.8778 17.8459 16.6027 17.657 16.3906C17.468 16.1785 17.2195 16.0062 16.9112 15.8736C16.603 15.741 16.2699 15.625 15.9119 15.5256L14.6591 15.1676C13.8636 14.9389 13.2339 14.6125 12.7699 14.1882C12.3059 13.764 12.0739 13.2088 12.0739 12.5227C12.0739 11.9527 12.228 11.4555 12.5362 11.0312C12.8478 10.6037 13.2654 10.2723 13.7891 10.0369C14.3161 9.7983 14.9044 9.67898 15.554 9.67898C16.2102 9.67898 16.7936 9.79664 17.304 10.032C17.8144 10.264 18.2188 10.5821 18.517 10.9865C18.8187 11.3909 18.9777 11.8499 18.9943 12.3636H17.8011ZM20.6016 20V12.3636H21.7351V13.5568H21.8346C21.9936 13.1491 22.2505 12.8326 22.6051 12.6072C22.9598 12.3786 23.3857 12.2642 23.8828 12.2642C24.3866 12.2642 24.8059 12.3786 25.1407 12.6072C25.4787 12.8326 25.7422 13.1491 25.9311 13.5568H26.0107C26.2062 13.1624 26.4996 12.8492 26.8907 12.6172C27.2818 12.3819 27.7507 12.2642 28.2976 12.2642C28.9804 12.2642 29.5389 12.478 29.973 12.9055C30.4072 13.3298 30.6243 13.991 30.6243 14.8892V20H29.451V14.8892C29.451 14.3258 29.2969 13.9231 28.9887 13.6811C28.6804 13.4392 28.3175 13.3182 27.8999 13.3182C27.363 13.3182 26.947 13.4806 26.652 13.8054C26.357 14.1269 26.2096 14.5346 26.2096 15.0284V20H25.0164V14.7699C25.0164 14.3357 24.8755 13.986 24.5938 13.7209C24.3121 13.4524 23.9491 13.3182 23.505 13.3182C23.2001 13.3182 22.915 13.3994 22.6499 13.5618C22.3881 13.7242 22.1759 13.9496 22.0135 14.2379C21.8544 14.523 21.7749 14.8527 21.7749 15.2273V20H20.6016ZM34.6167 20.179C34.1328 20.179 33.6937 20.0878 33.2993 19.9055C32.9048 19.7199 32.5916 19.4531 32.3596 19.1051C32.1276 18.7538 32.0116 18.3295 32.0116 17.8324C32.0116 17.3949 32.0978 17.0402 32.2701 16.7685C32.4425 16.4934 32.6728 16.2779 32.9612 16.1222C33.2495 15.9664 33.5677 15.8504 33.9157 15.7741C34.2671 15.6946 34.62 15.6316 34.9747 15.5852C35.4387 15.5256 35.8149 15.4808 36.1032 15.451C36.3949 15.4179 36.607 15.3632 36.7396 15.2869C36.8755 15.2107 36.9434 15.0781 36.9434 14.8892V14.8494C36.9434 14.3589 36.8092 13.9777 36.5407 13.706C36.2756 13.4342 35.8729 13.2983 35.3326 13.2983C34.7725 13.2983 34.3333 13.4209 34.0152 13.6662C33.697 13.9115 33.4733 14.1733 33.344 14.4517L32.2304 14.054C32.4292 13.59 32.6944 13.2287 33.0258 12.9702C33.3606 12.7083 33.7252 12.526 34.1196 12.4233C34.5173 12.3172 34.9084 12.2642 35.2929 12.2642C35.5381 12.2642 35.8199 12.294 36.138 12.3537C36.4595 12.41 36.7694 12.5277 37.0677 12.7067C37.3693 12.8857 37.6196 13.1558 37.8184 13.517C38.0173 13.8783 38.1167 14.3622 38.1167 14.9688V20H36.9434V18.9659H36.8838C36.8042 19.1316 36.6717 19.3089 36.486 19.4979C36.3004 19.6868 36.0535 19.8475 35.7453 19.9801C35.437 20.1127 35.0609 20.179 34.6167 20.179ZM34.7957 19.125C35.2597 19.125 35.6508 19.0339 35.969 18.8516C36.2905 18.6693 36.5324 18.4339 36.6949 18.1456C36.8606 17.8572 36.9434 17.554 36.9434 17.2358V16.1619C36.8937 16.2216 36.7843 16.2763 36.6153 16.326C36.4496 16.3724 36.2574 16.4138 36.0386 16.4503C35.8232 16.4834 35.6127 16.5133 35.4072 16.5398C35.205 16.563 35.041 16.5829 34.915 16.5994C34.6101 16.6392 34.3251 16.7038 34.0599 16.7933C33.7981 16.8795 33.586 17.0104 33.4235 17.1861C33.2645 17.3584 33.1849 17.5937 33.1849 17.892C33.1849 18.2997 33.3357 18.608 33.6373 18.8168C33.9422 19.0223 34.3284 19.125 34.7957 19.125ZM39.8582 20V12.3636H40.9918V13.517H41.0713C41.2105 13.1392 41.4624 12.8326 41.827 12.5973C42.1916 12.362 42.6026 12.2443 43.0599 12.2443C43.1461 12.2443 43.2538 12.246 43.3831 12.2493C43.5124 12.2526 43.6101 12.2576 43.6764 12.2642V13.4574C43.6366 13.4474 43.5455 13.4325 43.403 13.4126C43.2638 13.3894 43.1163 13.3778 42.9605 13.3778C42.5893 13.3778 42.2579 13.4557 41.9662 13.6115C41.6778 13.764 41.4491 13.9761 41.2801 14.2479C41.1144 14.5163 41.0315 14.8229 41.0315 15.1676V20H39.8582ZM48.4668 12.3636V13.358H44.5094V12.3636H48.4668ZM45.6628 10.5341H46.8361V17.8125C46.8361 18.1439 46.8841 18.3925 46.9803 18.5582C47.0797 18.7206 47.2056 18.83 47.3581 18.8864C47.5139 18.9394 47.6779 18.9659 47.8503 18.9659C47.9795 18.9659 48.0856 18.9593 48.1685 18.946C48.2513 18.9295 48.3176 18.9162 48.3673 18.9062L48.606 19.9602C48.5264 19.9901 48.4154 20.0199 48.2729 20.0497C48.1304 20.0829 47.9497 20.0994 47.731 20.0994C47.3995 20.0994 47.0747 20.0282 46.7565 19.8857C46.4417 19.7431 46.1798 19.526 45.971 19.2344C45.7655 18.9427 45.6628 18.5748 45.6628 18.1307V10.5341ZM61.7214 13H60.4885C60.4156 12.6454 60.288 12.3338 60.1057 12.0653C59.9267 11.7969 59.708 11.5715 59.4494 11.3892C59.1942 11.2036 58.9108 11.0644 58.5993 10.9716C58.2877 10.8788 57.9629 10.8324 57.6249 10.8324C57.0084 10.8324 56.4499 10.9882 55.9494 11.2997C55.4523 11.6113 55.0562 12.0703 54.7612 12.6768C54.4696 13.2834 54.3237 14.0275 54.3237 14.9091C54.3237 15.7907 54.4696 16.5348 54.7612 17.1413C55.0562 17.7479 55.4523 18.2069 55.9494 18.5185C56.4499 18.83 57.0084 18.9858 57.6249 18.9858C57.9629 18.9858 58.2877 18.9394 58.5993 18.8466C58.9108 18.7538 59.1942 18.6162 59.4494 18.4339C59.708 18.2483 59.9267 18.0213 60.1057 17.7528C60.288 17.4811 60.4156 17.1695 60.4885 16.8182H61.7214C61.6286 17.3385 61.4596 17.8042 61.2143 18.2152C60.9691 18.6262 60.6642 18.9759 60.2996 19.2642C59.935 19.5492 59.5257 19.7663 59.0716 19.9155C58.6208 20.0646 58.1386 20.1392 57.6249 20.1392C56.7565 20.1392 55.9842 19.9271 55.3081 19.5028C54.632 19.0786 54.1 18.4754 53.7122 17.6932C53.3244 16.911 53.1305 15.983 53.1305 14.9091C53.1305 13.8352 53.3244 12.9072 53.7122 12.125C54.1 11.3428 54.632 10.7396 55.3081 10.3153C55.9842 9.8911 56.7565 9.67898 57.6249 9.67898C58.1386 9.67898 58.6208 9.75355 59.0716 9.9027C59.5257 10.0518 59.935 10.2706 60.2996 10.5589C60.6642 10.844 60.9691 11.192 61.2143 11.603C61.4596 12.0107 61.6286 12.4763 61.7214 13ZM64.328 9.81818V20H63.1547V9.81818H64.328ZM69.2787 20.1591C68.5429 20.1591 67.9082 19.9967 67.3746 19.6719C66.8443 19.3438 66.4349 18.8864 66.1466 18.2997C65.8616 17.7098 65.719 17.0237 65.719 16.2415C65.719 15.4593 65.8616 14.7699 66.1466 14.1733C66.4349 13.5734 66.836 13.1061 67.3497 12.7713C67.8668 12.4332 68.47 12.2642 69.1594 12.2642C69.5571 12.2642 69.9499 12.3305 70.3376 12.4631C70.7254 12.5956 71.0784 12.8111 71.3966 13.1094C71.7148 13.4044 71.9683 13.7955 72.1572 14.2827C72.3462 14.7699 72.4406 15.3698 72.4406 16.0824V16.5795H66.5543V15.5653H71.2474C71.2474 15.1345 71.1613 14.75 70.9889 14.4119C70.8199 14.0739 70.5779 13.8071 70.2631 13.6115C69.9515 13.416 69.5836 13.3182 69.1594 13.3182C68.692 13.3182 68.2877 13.4342 67.9463 13.6662C67.6082 13.8949 67.3481 14.1932 67.1658 14.5611C66.9835 14.929 66.8923 15.3234 66.8923 15.7443V16.4205C66.8923 16.9972 66.9918 17.486 67.1906 17.8871C67.3928 18.2848 67.6729 18.5881 68.0308 18.7969C68.3888 19.0024 68.8047 19.1051 69.2787 19.1051C69.5869 19.1051 69.8653 19.062 70.1139 18.9759C70.3658 18.8864 70.5829 18.7538 70.7652 18.5781C70.9475 18.3991 71.0884 18.1771 71.1878 17.9119L72.3213 18.2301C72.202 18.6146 72.0015 18.9527 71.7197 19.2443C71.438 19.5327 71.09 19.758 70.6757 19.9205C70.2614 20.0795 69.7957 20.1591 69.2787 20.1591ZM76.0726 20.179C75.5887 20.179 75.1495 20.0878 74.7551 19.9055C74.3607 19.7199 74.0475 19.4531 73.8155 19.1051C73.5835 18.7538 73.4675 18.3295 73.4675 17.8324C73.4675 17.3949 73.5536 17.0402 73.726 16.7685C73.8983 16.4934 74.1287 16.2779 74.417 16.1222C74.7054 15.9664 75.0236 15.8504 75.3716 15.7741C75.7229 15.6946 76.0759 15.6316 76.4305 15.5852C76.8946 15.5256 77.2707 15.4808 77.5591 15.451C77.8508 15.4179 78.0629 15.3632 78.1955 15.2869C78.3313 15.2107 78.3993 15.0781 78.3993 14.8892V14.8494C78.3993 14.3589 78.2651 13.9777 77.9966 13.706C77.7314 13.4342 77.3287 13.2983 76.7885 13.2983C76.2284 13.2983 75.7892 13.4209 75.471 13.6662C75.1528 13.9115 74.9291 14.1733 74.7999 14.4517L73.6862 14.054C73.8851 13.59 74.1502 13.2287 74.4817 12.9702C74.8164 12.7083 75.181 12.526 75.5754 12.4233C75.9732 12.3172 76.3643 12.2642 76.7487 12.2642C76.994 12.2642 77.2757 12.294 77.5939 12.3537C77.9154 12.41 78.2253 12.5277 78.5236 12.7067C78.8252 12.8857 79.0754 13.1558 79.2743 13.517C79.4732 13.8783 79.5726 14.3622 79.5726 14.9688V20H78.3993V18.9659H78.3396C78.2601 19.1316 78.1275 19.3089 77.9419 19.4979C77.7563 19.6868 77.5094 19.8475 77.2011 19.9801C76.8929 20.1127 76.5167 20.179 76.0726 20.179ZM76.2516 19.125C76.7156 19.125 77.1067 19.0339 77.4249 18.8516C77.7464 18.6693 77.9883 18.4339 78.1507 18.1456C78.3164 17.8572 78.3993 17.554 78.3993 17.2358V16.1619C78.3496 16.2216 78.2402 16.2763 78.0712 16.326C77.9054 16.3724 77.7132 16.4138 77.4945 16.4503C77.279 16.4834 77.0686 16.5133 76.8631 16.5398C76.6609 16.563 76.4968 16.5829 76.3709 16.5994C76.066 16.6392 75.7809 16.7038 75.5158 16.7933C75.2539 16.8795 75.0418 17.0104 74.8794 17.1861C74.7203 17.3584 74.6408 17.5937 74.6408 17.892C74.6408 18.2997 74.7916 18.608 75.0932 18.8168C75.3981 19.0223 75.7842 19.125 76.2516 19.125ZM82.4874 15.4062V20H81.3141V12.3636H82.4476V13.5568H82.5471C82.726 13.169 82.9978 12.8575 83.3624 12.6222C83.727 12.3835 84.1976 12.2642 84.7743 12.2642C85.2914 12.2642 85.7438 12.3703 86.1316 12.5824C86.5194 12.7912 86.821 13.1094 87.0364 13.5369C87.2518 13.9612 87.3596 14.4981 87.3596 15.1477V20H86.1863V15.2273C86.1863 14.6274 86.0305 14.16 85.7189 13.8253C85.4074 13.4872 84.9798 13.3182 84.4363 13.3182C84.0617 13.3182 83.727 13.3994 83.432 13.5618C83.1403 13.7242 82.91 13.9612 82.7409 14.2727C82.5719 14.5843 82.4874 14.9621 82.4874 15.4062ZM93.916 16.8778V12.3636H95.0893V20H93.916V18.7074H93.8365C93.6575 19.0952 93.3791 19.425 93.0013 19.6967C92.6234 19.9652 92.1462 20.0994 91.5695 20.0994C91.0922 20.0994 90.6679 19.995 90.2967 19.7862C89.9255 19.5741 89.6339 19.2559 89.4217 18.8317C89.2096 18.4041 89.1035 17.8655 89.1035 17.2159V12.3636H90.2768V17.1364C90.2768 17.6932 90.4326 18.1373 90.7442 18.4688C91.059 18.8002 91.4601 18.9659 91.9473 18.9659C92.239 18.9659 92.5356 18.8913 92.8372 18.7422C93.1421 18.593 93.3973 18.3643 93.6028 18.0561C93.8116 17.7479 93.916 17.3551 93.916 16.8778ZM96.8383 22.8636V12.3636H97.9718V13.5767H98.111C98.1972 13.4441 98.3165 13.2751 98.469 13.0696C98.6248 12.8608 98.8468 12.6752 99.1352 12.5128C99.4269 12.3471 99.8213 12.2642 100.318 12.2642C100.961 12.2642 101.528 12.425 102.019 12.7464C102.509 13.0679 102.892 13.5237 103.167 14.1136C103.442 14.7036 103.58 15.3996 103.58 16.2017C103.58 17.0104 103.442 17.7114 103.167 18.3047C102.892 18.8946 102.511 19.352 102.024 19.6768C101.536 19.9983 100.975 20.1591 100.338 20.1591C99.8478 20.1591 99.455 20.0779 99.16 19.9155C98.8651 19.7498 98.638 19.5625 98.4789 19.3537C98.3198 19.1416 98.1972 18.9659 98.111 18.8267H98.0116V22.8636H96.8383ZM97.9917 16.1818C97.9917 16.7585 98.0762 17.2673 98.2453 17.7081C98.4143 18.1456 98.6612 18.4886 98.986 18.7372C99.3109 18.9825 99.7086 19.1051 100.179 19.1051C100.67 19.1051 101.079 18.9759 101.407 18.7173C101.739 18.4555 101.987 18.1042 102.153 17.6634C102.322 17.2192 102.406 16.7254 102.406 16.1818C102.406 15.6449 102.324 15.161 102.158 14.7301C101.996 14.2959 101.749 13.9529 101.417 13.701C101.089 13.4458 100.676 13.3182 100.179 13.3182C99.702 13.3182 99.3009 13.4392 98.9761 13.6811C98.6513 13.9197 98.406 14.2545 98.2403 14.6854C98.0746 15.1129 97.9917 15.6117 97.9917 16.1818Z" fill="white"/>
<mask id="path-5-inside-1_5743_10271" fill="white">
<path d="M3 16.5381C3 9.0612 9.0612 3 16.5381 3H99.4619C106.939 3 113 9.0612 113 16.5381C113 24.0149 106.939 30.0761 99.4619 30.0761H16.5381C9.06121 30.0761 3 24.0149 3 16.5381Z"/>
</mask>
<path d="M16.5381 3V4H99.4619V3V2H16.5381V3ZM99.4619 30.0761V29.0761H16.5381V30.0761V31.0761H99.4619V30.0761ZM16.5381 30.0761V29.0761C9.61349 29.0761 4 23.4627 4 16.5381H3H2C2 24.5672 8.50892 31.0761 16.5381 31.0761V30.0761ZM113 16.5381H112C112 23.4627 106.387 29.0761 99.4619 29.0761V30.0761V31.0761C107.491 31.0761 114 24.5672 114 16.5381H113ZM99.4619 3V4C106.387 4 112 9.61349 112 16.5381H113H114C114 8.50892 107.491 2 99.4619 2V3ZM16.5381 3V2C8.50892 2 2 8.50892 2 16.5381H3H4C4 9.61349 9.61349 4 16.5381 4V3Z" fill="white" fill-opacity="0.57" mask="url(#path-5-inside-1_5743_10271)"/>
<mask id="path-7-inside-2_5743_10271" fill="white">
<path d="M0 16.3332C0 7.31262 7.31262 0 16.3332 0H99.6668C108.687 0 116 7.31262 116 16.3332C116 25.3538 108.687 32.6664 99.6668 32.6664H16.3332C7.31262 32.6664 0 25.3538 0 16.3332Z"/>
</mask>
<path d="M16.3332 0V1H99.6668V0V-1H16.3332V0ZM99.6668 32.6664V31.6664H16.3332V32.6664V33.6664H99.6668V32.6664ZM16.3332 32.6664V31.6664C7.86491 31.6664 1 24.8015 1 16.3332H0H-1C-1 25.906 6.76034 33.6664 16.3332 33.6664V32.6664ZM116 16.3332H115C115 24.8015 108.135 31.6664 99.6668 31.6664V32.6664V33.6664C109.24 33.6664 117 25.906 117 16.3332H116ZM99.6668 0V1C108.135 1 115 7.8649 115 16.3332H116H117C117 6.76033 109.24 -1 99.6668 -1V0ZM16.3332 0V-1C6.76033 -1 -1 6.76033 -1 16.3332H0H1C1 7.8649 7.8649 1 16.3332 1V0Z" fill="#F0F0FF" mask="url(#path-7-inside-2_5743_10271)"/>
</g>
</g>
<defs>
<filter id="filter0_dd_5743_10271" x="0" y="0" width="116" height="33.0771" filterUnits="userSpaceOnUse" color-interpolation-filters="sRGB">
<feFlood flood-opacity="0" result="BackgroundImageFix"/>
<feColorMatrix in="SourceAlpha" type="matrix" values="0 0 0 0 0 0 0 0 0 0 0 0 0 0 0 0 0 0 127 0" result="hardAlpha"/>
<feMorphology radius="2.5" operator="erode" in="SourceAlpha" result="effect1_dropShadow_5743_10271"/>
<feOffset dy="2.28853"/>
<feGaussianBlur stdDeviation="1.14427"/>
<feComposite in2="hardAlpha" operator="out"/>
<feColorMatrix type="matrix" values="0 0 0 0 0.164706 0 0 0 0 0.156863 0 0 0 0 0.180392 0 0 0 0.16 0"/>
<feBlend mode="normal" in2="BackgroundImageFix" result="effect1_dropShadow_5743_10271"/>
<feColorMatrix in="SourceAlpha" type="matrix" values="0 0 0 0 0 0 0 0 0 0 0 0 0 0 0 0 0 0 127 0" result="hardAlpha"/>
<feMorphology radius="1.25" operator="erode" in="SourceAlpha" result="effect2_dropShadow_5743_10271"/>
<feOffset dy="0.602187"/>
<feGaussianBlur stdDeviation="0.301093"/>
<feComposite in2="hardAlpha" operator="out"/>
<feColorMatrix type="matrix" values="0 0 0 0 0.164706 0 0 0 0 0.156863 0 0 0 0 0.180392 0 0 0 0.18 0"/>
<feBlend mode="normal" in2="effect1_dropShadow_5743_10271" result="effect2_dropShadow_5743_10271"/>
<feBlend mode="normal" in="SourceGraphic" in2="effect2_dropShadow_5743_10271" result="shape"/>
</filter>
<linearGradient id="paint0_linear_5743_10271" x1="90.6996" y1="49.8391" x2="24.3519" y2="-17.9102" gradientUnits="userSpaceOnUse">
<stop stop-color="#1FA8CA" stop-opacity="0.32"/>
<stop offset="0.556869" stop-color="#1FA8CA"/>
<stop offset="1" stop-color="#1FA8CA" stop-opacity="0.32"/>
</linearGradient>
<clipPath id="clip0_5743_10271">
<rect width="116" height="31" rx="15.5" fill="white"/>
</clipPath>
</defs>
</svg>
