<svg width="20" height="20" viewBox="0 0 20 20" fill="none" xmlns="http://www.w3.org/2000/svg">
<mask id="mask0_5674_17090" style="mask-type:alpha" maskUnits="userSpaceOnUse" x="0" y="0" width="20" height="20">
<g clip-path="url(#clip0_5674_17090)">
<g clip-path="url(#clip1_5674_17090)">
<path d="M11.402 2.85721L12.9306 5.62157C13.1401 6.00102 13.6657 6.36148 14.098 6.41021L16.6711 6.73364C18.3186 6.93717 18.7435 8.10639 17.6223 9.33107L15.7121 11.4058C15.3932 11.7535 15.2277 12.4168 15.3558 12.872L16.0251 15.3146C16.5515 17.2431 15.5504 18.0424 13.7911 17.0952L11.3334 15.7717C10.8858 15.5298 10.1748 15.565 9.75429 15.8366L7.41469 17.351C5.73985 18.4334 4.67411 17.7208 5.04161 15.7574L5.51221 13.2725C5.60007 12.808 5.38943 12.1598 5.04174 11.8409L2.967 9.93071C1.74954 8.80533 2.07703 7.6059 3.69935 7.26584L6.2325 6.73671C6.66001 6.64385 7.15544 6.25196 7.32938 5.85324L8.62718 2.96776C9.32518 1.41007 10.5767 1.36108 11.402 2.85721Z" fill="black"/>
</g>
</g>
</mask>
<g mask="url(#mask0_5674_17090)">
<rect width="20" height="20" fill="#FCB823"/>
</g>
<defs>
<clipPath id="clip0_5674_17090">
<rect width="20" height="20" fill="white"/>
</clipPath>
<clipPath id="clip1_5674_17090">
<rect width="20" height="20" fill="white"/>
</clipPath>
</defs>
</svg>
