<svg width="161" height="47" viewBox="0 0 161 47" fill="none" xmlns="http://www.w3.org/2000/svg">
<g filter="url(#filter0_dddi_5674_17104)">
<g clip-path="url(#clip0_5674_17104)">
<rect x="3" y="1" width="155" height="40" rx="10" fill="#1FA8CA"/>
<g filter="url(#filter1_dddddddd_5674_17104)">
<rect x="3" y="1" width="1" height="1" fill="white" fill-opacity="0.01" shape-rendering="crispEdges"/>
</g>
<g filter="url(#filter2_ddddddddf_5674_17104)">
<rect width="1" height="1" transform="translate(3 2)" fill="white" fill-opacity="0.01"/>
</g>
<mask id="mask0_5674_17104" style="mask-type:alpha" maskUnits="userSpaceOnUse" x="6" y="1" width="162" height="37">
<rect x="6" y="1" width="162" height="37" fill="white"/>
</mask>
<g mask="url(#mask0_5674_17104)">
<rect opacity="0.24" x="6" y="3" width="149" height="36" rx="15" fill="url(#paint0_linear_5674_17104)"/>
<path d="M28.8896 18.4929C28.8366 18.0223 28.6179 17.6577 28.2334 17.3991C27.8489 17.1373 27.365 17.0064 26.7817 17.0064C26.3641 17.0064 26.0028 17.0727 25.6979 17.2053C25.393 17.3345 25.156 17.5135 24.9869 17.7422C24.8212 17.9676 24.7384 18.2244 24.7384 18.5128C24.7384 18.7547 24.7947 18.9635 24.9074 19.1392C25.0234 19.3149 25.1742 19.4624 25.3598 19.5817C25.5487 19.6977 25.7509 19.7955 25.9664 19.875C26.1818 19.9512 26.3889 20.0142 26.5878 20.0639L27.5821 20.3224C27.9069 20.402 28.24 20.5097 28.5814 20.6456C28.9228 20.7815 29.2393 20.9605 29.531 21.1825C29.8227 21.4046 30.058 21.6797 30.2369 22.0078C30.4192 22.3359 30.5104 22.7287 30.5104 23.1861C30.5104 23.7628 30.3612 24.2749 30.0629 24.7223C29.768 25.1697 29.3387 25.5227 28.7753 25.7812C28.2152 26.0398 27.5374 26.169 26.7419 26.169C25.9796 26.169 25.32 26.0481 24.7632 25.8061C24.2064 25.5642 23.7706 25.2211 23.4557 24.777C23.1408 24.3295 22.9668 23.7992 22.9337 23.1861H24.4749C24.5047 23.554 24.624 23.8606 24.8328 24.1058C25.045 24.3478 25.3151 24.5284 25.6432 24.6477C25.9746 24.7637 26.3376 24.8217 26.732 24.8217C27.1662 24.8217 27.5523 24.7538 27.8904 24.6179C28.2317 24.4787 28.5002 24.2865 28.6958 24.0412C28.8913 23.7926 28.9891 23.5026 28.9891 23.1712C28.9891 22.8696 28.9029 22.6226 28.7306 22.4304C28.5615 22.2382 28.3312 22.0791 28.0395 21.9531C27.7512 21.8272 27.4247 21.7161 27.0601 21.62L25.857 21.2919C25.0416 21.0698 24.3953 20.7434 23.9181 20.3125C23.4441 19.8816 23.2071 19.3116 23.2071 18.6023C23.2071 18.0156 23.3662 17.5036 23.6844 17.0661C24.0026 16.6286 24.4334 16.2888 24.977 16.0469C25.5206 15.8016 26.1337 15.679 26.8165 15.679C27.5059 15.679 28.1141 15.8 28.6411 16.0419C29.1714 16.2839 29.589 16.617 29.8939 17.0412C30.1988 17.4621 30.3579 17.946 30.3712 18.4929H28.8896ZM35.7915 18.3636V19.5568H31.6203V18.3636H35.7915ZM32.7389 16.5341H34.2254V23.7578C34.2254 24.0462 34.2685 24.2633 34.3547 24.4091C34.4408 24.5516 34.5519 24.6494 34.6878 24.7024C34.827 24.7521 34.9778 24.777 35.1402 24.777C35.2595 24.777 35.3639 24.7687 35.4534 24.7521C35.5429 24.7356 35.6125 24.7223 35.6622 24.7124L35.9307 25.9403C35.8445 25.9735 35.7219 26.0066 35.5628 26.0398C35.4037 26.0762 35.2048 26.0961 34.9662 26.0994C34.5751 26.1061 34.2105 26.0365 33.8724 25.8906C33.5344 25.7448 33.2609 25.5194 33.0521 25.2145C32.8433 24.9096 32.7389 24.5268 32.7389 24.0661V16.5341ZM39.6581 26.169C39.1742 26.169 38.7367 26.0795 38.3456 25.9006C37.9545 25.7183 37.6446 25.4548 37.4159 25.1101C37.1905 24.7654 37.0779 24.3428 37.0779 23.8423C37.0779 23.4115 37.1607 23.0568 37.3264 22.7784C37.4922 22.5 37.7159 22.2796 37.9976 22.1172C38.2793 21.9548 38.5942 21.8321 38.9422 21.7493C39.2902 21.6664 39.6449 21.6035 40.0061 21.5604C40.4635 21.5073 40.8347 21.4643 41.1198 21.4311C41.4048 21.3946 41.6119 21.3366 41.7412 21.2571C41.8705 21.1776 41.9351 21.0483 41.9351 20.8693V20.8345C41.9351 20.4003 41.8125 20.0639 41.5672 19.8253C41.3253 19.5866 40.964 19.4673 40.4834 19.4673C39.9829 19.4673 39.5885 19.5784 39.3002 19.8004C39.0151 20.0192 38.8179 20.2628 38.7085 20.5312L37.3115 20.2131C37.4772 19.7491 37.7192 19.3745 38.0374 19.0895C38.3589 18.8011 38.7284 18.5923 39.146 18.4631C39.5637 18.3305 40.0028 18.2642 40.4635 18.2642C40.7684 18.2642 41.0916 18.3007 41.433 18.3736C41.7777 18.4432 42.0992 18.5724 42.3975 18.7614C42.6991 18.9503 42.946 19.2204 43.1382 19.5717C43.3305 19.9197 43.4266 20.3722 43.4266 20.929V26H41.9749V24.956H41.9152C41.8191 25.1482 41.6749 25.3371 41.4827 25.5227C41.2905 25.7083 41.0435 25.8625 40.7419 25.9851C40.4403 26.1077 40.079 26.169 39.6581 26.169ZM39.9813 24.9759C40.3923 24.9759 40.7436 24.8946 41.0352 24.7322C41.3302 24.5698 41.5539 24.3577 41.7064 24.0959C41.8622 23.8307 41.9401 23.5473 41.9401 23.2457V22.2614C41.887 22.3144 41.7843 22.3641 41.6318 22.4105C41.4827 22.4536 41.312 22.4917 41.1198 22.5249C40.9275 22.5547 40.7403 22.5829 40.558 22.6094C40.3757 22.6326 40.2232 22.6525 40.1006 22.669C39.8122 22.7055 39.5487 22.7668 39.3101 22.853C39.0748 22.9392 38.8859 23.0634 38.7433 23.2259C38.6041 23.3849 38.5345 23.5971 38.5345 23.8622C38.5345 24.2301 38.6704 24.5085 38.9422 24.6974C39.214 24.883 39.5603 24.9759 39.9813 24.9759ZM45.4065 26V18.3636H46.8433V19.5767H46.9229C47.0621 19.1657 47.3073 18.8426 47.6586 18.6072C48.0133 18.3686 48.4143 18.2493 48.8618 18.2493C48.9546 18.2493 49.064 18.2526 49.1899 18.2592C49.3192 18.2659 49.4202 18.2741 49.4932 18.2841V19.706C49.4335 19.6894 49.3274 19.6712 49.175 19.6513C49.0225 19.6281 48.8701 19.6165 48.7176 19.6165C48.3663 19.6165 48.0531 19.6911 47.778 19.8402C47.5062 19.986 47.2907 20.1899 47.1317 20.4517C46.9726 20.7102 46.893 21.0052 46.893 21.3366V26H45.4065ZM54.7954 18.3636V19.5568H50.6242V18.3636H54.7954ZM51.7428 16.5341H53.2293V23.7578C53.2293 24.0462 53.2724 24.2633 53.3586 24.4091C53.4448 24.5516 53.5558 24.6494 53.6917 24.7024C53.8309 24.7521 53.9817 24.777 54.1441 24.777C54.2634 24.777 54.3678 24.7687 54.4573 24.7521C54.5468 24.7356 54.6164 24.7223 54.6661 24.7124L54.9346 25.9403C54.8484 25.9735 54.7258 26.0066 54.5667 26.0398C54.4076 26.0762 54.2087 26.0961 53.9701 26.0994C53.579 26.1061 53.2144 26.0365 52.8763 25.8906C52.5383 25.7448 52.2648 25.5194 52.056 25.2145C51.8472 24.9096 51.7428 24.5268 51.7428 24.0661V16.5341ZM60.2641 26V15.8182H66.578V17.1406H61.8003V20.2429H66.1256V21.5604H61.8003V26H60.2641ZM68.2522 26V18.3636H69.689V19.5767H69.7686C69.9078 19.1657 70.153 18.8426 70.5044 18.6072C70.859 18.3686 71.26 18.2493 71.7075 18.2493C71.8003 18.2493 71.9097 18.2526 72.0356 18.2592C72.1649 18.2659 72.266 18.2741 72.3389 18.2841V19.706C72.2792 19.6894 72.1731 19.6712 72.0207 19.6513C71.8682 19.6281 71.7158 19.6165 71.5633 19.6165C71.212 19.6165 70.8988 19.6911 70.6237 19.8402C70.3519 19.986 70.1365 20.1899 69.9774 20.4517C69.8183 20.7102 69.7387 21.0052 69.7387 21.3366V26H68.2522ZM76.643 26.1541C75.8907 26.1541 75.2427 25.9934 74.6991 25.6719C74.1589 25.3471 73.7413 24.8913 73.4463 24.3047C73.1546 23.7147 73.0088 23.0237 73.0088 22.2315C73.0088 21.4493 73.1546 20.7599 73.4463 20.1634C73.7413 19.5668 74.1523 19.1011 74.6792 18.7663C75.2095 18.4316 75.8293 18.2642 76.5386 18.2642C76.9695 18.2642 77.3871 18.3355 77.7915 18.478C78.1958 18.6205 78.5587 18.8442 78.8802 19.1491C79.2017 19.4541 79.4553 19.8501 79.6409 20.3374C79.8265 20.8213 79.9193 21.4096 79.9193 22.1023V22.6293H73.849V21.5156H78.4626C78.4626 21.1245 78.3831 20.7782 78.224 20.4766C78.0649 20.1716 77.8412 19.9313 77.5528 19.7557C77.2678 19.58 76.933 19.4922 76.5486 19.4922C76.1309 19.4922 75.7664 19.5949 75.4548 19.8004C75.1466 20.0026 74.9079 20.2678 74.7389 20.5959C74.5732 20.9207 74.4903 21.2737 74.4903 21.6548V22.5249C74.4903 23.0353 74.5798 23.4695 74.7588 23.8274C74.9411 24.1854 75.1946 24.4588 75.5194 24.6477C75.8443 24.8333 76.2238 24.9261 76.6579 24.9261C76.9397 24.9261 77.1965 24.8864 77.4285 24.8068C77.6605 24.724 77.8611 24.6013 78.0301 24.4389C78.1991 24.2765 78.3284 24.076 78.4179 23.8374L79.8248 24.0909C79.7122 24.5052 79.51 24.8681 79.2183 25.1797C78.93 25.4879 78.567 25.7282 78.1295 25.9006C77.6953 26.0696 77.1998 26.1541 76.643 26.1541ZM84.8598 26.1541C84.1075 26.1541 83.4595 25.9934 82.9159 25.6719C82.3757 25.3471 81.9581 24.8913 81.6631 24.3047C81.3714 23.7147 81.2256 23.0237 81.2256 22.2315C81.2256 21.4493 81.3714 20.7599 81.6631 20.1634C81.9581 19.5668 82.3691 19.1011 82.896 18.7663C83.4263 18.4316 84.0461 18.2642 84.7554 18.2642C85.1863 18.2642 85.6039 18.3355 86.0083 18.478C86.4126 18.6205 86.7755 18.8442 87.097 19.1491C87.4185 19.4541 87.6721 19.8501 87.8577 20.3374C88.0433 20.8213 88.1361 21.4096 88.1361 22.1023V22.6293H82.0658V21.5156H86.6794C86.6794 21.1245 86.5999 20.7782 86.4408 20.4766C86.2817 20.1716 86.058 19.9313 85.7696 19.7557C85.4846 19.58 85.1498 19.4922 84.7654 19.4922C84.3477 19.4922 83.9832 19.5949 83.6716 19.8004C83.3634 20.0026 83.1247 20.2678 82.9557 20.5959C82.79 20.9207 82.7071 21.2737 82.7071 21.6548V22.5249C82.7071 23.0353 82.7966 23.4695 82.9756 23.8274C83.1579 24.1854 83.4114 24.4588 83.7362 24.6477C84.0611 24.8333 84.4405 24.9261 84.8747 24.9261C85.1565 24.9261 85.4133 24.8864 85.6453 24.8068C85.8773 24.724 86.0779 24.6013 86.2469 24.4389C86.4159 24.2765 86.5452 24.076 86.6347 23.8374L88.0416 24.0909C87.9289 24.5052 87.7268 24.8681 87.4351 25.1797C87.1468 25.4879 86.7838 25.7282 86.3463 25.9006C85.9121 26.0696 85.4166 26.1541 84.8598 26.1541ZM99.1631 18.4929C99.1101 18.0223 98.8913 17.6577 98.5068 17.3991C98.1224 17.1373 97.6385 17.0064 97.0551 17.0064C96.6375 17.0064 96.2762 17.0727 95.9713 17.2053C95.6664 17.3345 95.4294 17.5135 95.2604 17.7422C95.0947 17.9676 95.0118 18.2244 95.0118 18.5128C95.0118 18.7547 95.0682 18.9635 95.1808 19.1392C95.2968 19.3149 95.4477 19.4624 95.6333 19.5817C95.8222 19.6977 96.0244 19.7955 96.2398 19.875C96.4552 19.9512 96.6624 20.0142 96.8612 20.0639L97.8556 20.3224C98.1804 20.402 98.5135 20.5097 98.8548 20.6456C99.1962 20.7815 99.5128 20.9605 99.8044 21.1825C100.096 21.4046 100.331 21.6797 100.51 22.0078C100.693 22.3359 100.784 22.7287 100.784 23.1861C100.784 23.7628 100.635 24.2749 100.336 24.7223C100.041 25.1697 99.6122 25.5227 99.0487 25.7812C98.4886 26.0398 97.8108 26.169 97.0154 26.169C96.253 26.169 95.5935 26.0481 95.0367 25.8061C94.4798 25.5642 94.044 25.2211 93.7291 24.777C93.4143 24.3295 93.2403 23.7992 93.2071 23.1861H94.7483C94.7781 23.554 94.8975 23.8606 95.1063 24.1058C95.3184 24.3478 95.5885 24.5284 95.9166 24.6477C96.2481 24.7637 96.611 24.8217 97.0054 24.8217C97.4396 24.8217 97.8257 24.7538 98.1638 24.6179C98.5052 24.4787 98.7736 24.2865 98.9692 24.0412C99.1647 23.7926 99.2625 23.5026 99.2625 23.1712C99.2625 22.8696 99.1763 22.6226 99.004 22.4304C98.835 22.2382 98.6046 22.0791 98.3129 21.9531C98.0246 21.8272 97.6981 21.7161 97.3335 21.62L96.1304 21.2919C95.3151 21.0698 94.6688 20.7434 94.1915 20.3125C93.7175 19.8816 93.4806 19.3116 93.4806 18.6023C93.4806 18.0156 93.6396 17.5036 93.9578 17.0661C94.276 16.6286 94.7069 16.2888 95.2504 16.0469C95.794 15.8016 96.4072 15.679 97.0899 15.679C97.7793 15.679 98.3875 15.8 98.9145 16.0419C99.4448 16.2839 99.8624 16.617 100.167 17.0412C100.472 17.4621 100.631 17.946 100.645 18.4929H99.1631ZM105.717 26.1541C104.978 26.1541 104.341 25.9867 103.808 25.652C103.277 25.3139 102.87 24.8482 102.585 24.255C102.3 23.6617 102.157 22.9822 102.157 22.2166C102.157 21.4411 102.303 20.7566 102.595 20.1634C102.886 19.5668 103.297 19.1011 103.828 18.7663C104.358 18.4316 104.983 18.2642 105.702 18.2642C106.282 18.2642 106.799 18.3719 107.253 18.5874C107.707 18.7995 108.073 19.0978 108.352 19.4822C108.634 19.8667 108.801 20.3158 108.854 20.8295H107.407C107.328 20.4716 107.145 20.1634 106.86 19.9048C106.579 19.6463 106.201 19.517 105.727 19.517C105.313 19.517 104.95 19.6264 104.638 19.8452C104.33 20.0606 104.09 20.3688 103.917 20.7699C103.745 21.1676 103.659 21.6383 103.659 22.1818C103.659 22.7386 103.743 23.2192 103.912 23.6236C104.081 24.0279 104.32 24.3411 104.628 24.5632C104.94 24.7853 105.306 24.8963 105.727 24.8963C106.009 24.8963 106.264 24.8449 106.492 24.7422C106.724 24.6361 106.918 24.4853 107.074 24.2898C107.233 24.0942 107.344 23.8589 107.407 23.5838H108.854C108.801 24.0777 108.64 24.5185 108.372 24.9062C108.103 25.294 107.744 25.599 107.293 25.821C106.845 26.0431 106.32 26.1541 105.717 26.1541ZM112.666 26.169C112.182 26.169 111.745 26.0795 111.353 25.9006C110.962 25.7183 110.652 25.4548 110.424 25.1101C110.198 24.7654 110.086 24.3428 110.086 23.8423C110.086 23.4115 110.169 23.0568 110.334 22.7784C110.5 22.5 110.724 22.2796 111.005 22.1172C111.287 21.9548 111.602 21.8321 111.95 21.7493C112.298 21.6664 112.653 21.6035 113.014 21.5604C113.471 21.5073 113.843 21.4643 114.128 21.4311C114.413 21.3946 114.62 21.3366 114.749 21.2571C114.878 21.1776 114.943 21.0483 114.943 20.8693V20.8345C114.943 20.4003 114.82 20.0639 114.575 19.8253C114.333 19.5866 113.972 19.4673 113.491 19.4673C112.991 19.4673 112.596 19.5784 112.308 19.8004C112.023 20.0192 111.826 20.2628 111.716 20.5312L110.319 20.2131C110.485 19.7491 110.727 19.3745 111.045 19.0895C111.367 18.8011 111.736 18.5923 112.154 18.4631C112.571 18.3305 113.011 18.2642 113.471 18.2642C113.776 18.2642 114.099 18.3007 114.441 18.3736C114.785 18.4432 115.107 18.5724 115.405 18.7614C115.707 18.9503 115.954 19.2204 116.146 19.5717C116.338 19.9197 116.434 20.3722 116.434 20.929V26H114.983V24.956H114.923C114.827 25.1482 114.683 25.3371 114.491 25.5227C114.298 25.7083 114.051 25.8625 113.75 25.9851C113.448 26.1077 113.087 26.169 112.666 26.169ZM112.989 24.9759C113.4 24.9759 113.751 24.8946 114.043 24.7322C114.338 24.5698 114.562 24.3577 114.714 24.0959C114.87 23.8307 114.948 23.5473 114.948 23.2457V22.2614C114.895 22.3144 114.792 22.3641 114.64 22.4105C114.491 22.4536 114.32 22.4917 114.128 22.5249C113.935 22.5547 113.748 22.5829 113.566 22.6094C113.383 22.6326 113.231 22.6525 113.108 22.669C112.82 22.7055 112.557 22.7668 112.318 22.853C112.083 22.9392 111.894 23.0634 111.751 23.2259C111.612 23.3849 111.542 23.5971 111.542 23.8622C111.542 24.2301 111.678 24.5085 111.95 24.6974C112.222 24.883 112.568 24.9759 112.989 24.9759ZM119.901 21.4659V26H118.414V18.3636H119.841V19.6065H119.936C120.111 19.2022 120.386 18.8774 120.761 18.6321C121.139 18.3868 121.614 18.2642 122.188 18.2642C122.708 18.2642 123.164 18.3736 123.555 18.5923C123.946 18.8078 124.249 19.1293 124.465 19.5568C124.68 19.9844 124.788 20.513 124.788 21.1428V26H123.301V21.3217C123.301 20.7682 123.157 20.3357 122.869 20.0241C122.581 19.7093 122.184 19.5518 121.681 19.5518C121.336 19.5518 121.029 19.6264 120.761 19.7756C120.496 19.9247 120.285 20.1435 120.13 20.4318C119.977 20.7169 119.901 21.0616 119.901 21.4659Z" fill="white"/>
<path d="M142.958 17.459C142.958 17.1138 142.679 16.834 142.333 16.834C141.988 16.834 141.708 17.1138 141.708 17.459C141.708 19.4805 141.262 20.7934 140.444 21.6112C139.626 22.4291 138.313 22.8757 136.292 22.8757C135.947 22.8757 135.667 23.1555 135.667 23.5007C135.667 23.8458 135.947 24.1257 136.292 24.1257C138.313 24.1257 139.626 24.5722 140.444 25.3901C141.262 26.2079 141.708 27.5208 141.708 29.5423C141.708 29.8875 141.988 30.1673 142.333 30.1673C142.679 30.1673 142.958 29.8875 142.958 29.5423C142.958 27.5208 143.405 26.2079 144.223 25.3901C145.041 24.5722 146.354 24.1257 148.375 24.1257C148.72 24.1257 149 23.8458 149 23.5007C149 23.1555 148.72 22.8757 148.375 22.8757C146.354 22.8757 145.041 22.4291 144.223 21.6112C143.405 20.7934 142.958 19.4805 142.958 17.459Z" fill="white" fill-opacity="0.9"/>
<path d="M136.5 15.5837C136.5 15.3535 136.314 15.167 136.083 15.167C135.853 15.167 135.667 15.3535 135.667 15.5837C135.667 16.4009 135.486 16.8942 135.19 17.1901C134.894 17.486 134.401 17.667 133.583 17.667C133.353 17.667 133.167 17.8535 133.167 18.0837C133.167 18.3138 133.353 18.5003 133.583 18.5003C134.401 18.5003 134.894 18.6813 135.19 18.9772C135.486 19.2732 135.667 19.7665 135.667 20.5837C135.667 20.8138 135.853 21.0004 136.083 21.0004C136.314 21.0004 136.5 20.8138 136.5 20.5837C136.5 19.7665 136.681 19.2732 136.977 18.9772C137.273 18.6813 137.766 18.5003 138.583 18.5003C138.814 18.5003 139 18.3138 139 18.0837C139 17.8535 138.814 17.667 138.583 17.667C137.766 17.667 137.273 17.486 136.977 17.1901C136.681 16.8942 136.5 16.4009 136.5 15.5837Z" fill="white" fill-opacity="0.9"/>
<path d="M140.667 12.2497C140.667 12.0196 140.48 11.833 140.25 11.833C140.02 11.833 139.833 12.0196 139.833 12.2497C139.833 12.7775 139.716 13.0625 139.556 13.2224C139.396 13.3823 139.111 13.4997 138.583 13.4997C138.353 13.4997 138.167 13.6862 138.167 13.9163C138.167 14.1465 138.353 14.333 138.583 14.333C139.111 14.333 139.396 14.4504 139.556 14.6103C139.716 14.7702 139.833 15.0552 139.833 15.583C139.833 15.8131 140.02 15.9997 140.25 15.9997C140.48 15.9997 140.667 15.8131 140.667 15.583C140.667 15.0552 140.784 14.7702 140.944 14.6103C141.104 14.4504 141.389 14.333 141.917 14.333C142.147 14.333 142.333 14.1465 142.333 13.9163C142.333 13.6862 142.147 13.4997 141.917 13.4997C141.389 13.4997 141.104 13.3823 140.944 13.2224C140.784 13.0625 140.667 12.7775 140.667 12.2497Z" fill="white" fill-opacity="0.9"/>
</g>
</g>
</g>
<defs>
<filter id="filter0_dddi_5674_17104" x="0" y="-5" width="161" height="52" filterUnits="userSpaceOnUse" color-interpolation-filters="sRGB">
<feFlood flood-opacity="0" result="BackgroundImageFix"/>
<feColorMatrix in="SourceAlpha" type="matrix" values="0 0 0 0 0 0 0 0 0 0 0 0 0 0 0 0 0 0 127 0" result="hardAlpha"/>
<feOffset dy="3"/>
<feGaussianBlur stdDeviation="1.5"/>
<feComposite in2="hardAlpha" operator="out"/>
<feColorMatrix type="matrix" values="0 0 0 0 0.184314 0 0 0 0 0.00392157 0 0 0 0 0.592157 0 0 0 0.12 0"/>
<feBlend mode="normal" in2="BackgroundImageFix" result="effect1_dropShadow_5674_17104"/>
<feColorMatrix in="SourceAlpha" type="matrix" values="0 0 0 0 0 0 0 0 0 0 0 0 0 0 0 0 0 0 127 0" result="hardAlpha"/>
<feOffset dy="1"/>
<feGaussianBlur stdDeviation="0.5"/>
<feComposite in2="hardAlpha" operator="out"/>
<feColorMatrix type="matrix" values="0 0 0 0 0.184314 0 0 0 0 0.00392157 0 0 0 0 0.592157 0 0 0 0.12 0"/>
<feBlend mode="normal" in2="effect1_dropShadow_5674_17104" result="effect2_dropShadow_5674_17104"/>
<feColorMatrix in="SourceAlpha" type="matrix" values="0 0 0 0 0 0 0 0 0 0 0 0 0 0 0 0 0 0 127 0" result="hardAlpha"/>
<feMorphology radius="1" operator="dilate" in="SourceAlpha" result="effect3_dropShadow_5674_17104"/>
<feOffset/>
<feComposite in2="hardAlpha" operator="out"/>
<feColorMatrix type="matrix" values="0 0 0 0 0.184314 0 0 0 0 0.00392157 0 0 0 0 0.592157 0 0 0 0.08 0"/>
<feBlend mode="normal" in2="effect2_dropShadow_5674_17104" result="effect3_dropShadow_5674_17104"/>
<feBlend mode="normal" in="SourceGraphic" in2="effect3_dropShadow_5674_17104" result="shape"/>
<feColorMatrix in="SourceAlpha" type="matrix" values="0 0 0 0 0 0 0 0 0 0 0 0 0 0 0 0 0 0 127 0" result="hardAlpha"/>
<feOffset dy="-6"/>
<feGaussianBlur stdDeviation="10"/>
<feComposite in2="hardAlpha" operator="arithmetic" k2="-1" k3="1"/>
<feColorMatrix type="matrix" values="0 0 0 0 0.447059 0 0 0 0 0.192157 0 0 0 0 1 0 0 0 0.32 0"/>
<feBlend mode="normal" in2="shape" result="effect4_innerShadow_5674_17104"/>
</filter>
<filter id="filter1_dddddddd_5674_17104" x="3" y="1" width="341" height="359" filterUnits="userSpaceOnUse" color-interpolation-filters="sRGB">
<feFlood flood-opacity="0" result="BackgroundImageFix"/>
<feColorMatrix in="SourceAlpha" type="matrix" values="0 0 0 0 0 0 0 0 0 0 0 0 0 0 0 0 0 0 127 0" result="hardAlpha"/>
<feOffset dx="99" dy="251"/>
<feComposite in2="hardAlpha" operator="out"/>
<feColorMatrix type="matrix" values="0 0 0 0 1 0 0 0 0 1 0 0 0 0 1 0 0 0 1 0"/>
<feBlend mode="normal" in2="BackgroundImageFix" result="effect1_dropShadow_5674_17104"/>
<feColorMatrix in="SourceAlpha" type="matrix" values="0 0 0 0 0 0 0 0 0 0 0 0 0 0 0 0 0 0 127 0" result="hardAlpha"/>
<feOffset dx="332" dy="36"/>
<feComposite in2="hardAlpha" operator="out"/>
<feColorMatrix type="matrix" values="0 0 0 0 1 0 0 0 0 1 0 0 0 0 1 0 0 0 1 0"/>
<feBlend mode="normal" in2="effect1_dropShadow_5674_17104" result="effect2_dropShadow_5674_17104"/>
<feColorMatrix in="SourceAlpha" type="matrix" values="0 0 0 0 0 0 0 0 0 0 0 0 0 0 0 0 0 0 127 0" result="hardAlpha"/>
<feOffset dx="92" dy="100"/>
<feComposite in2="hardAlpha" operator="out"/>
<feColorMatrix type="matrix" values="0 0 0 0 1 0 0 0 0 1 0 0 0 0 1 0 0 0 1 0"/>
<feBlend mode="normal" in2="effect2_dropShadow_5674_17104" result="effect3_dropShadow_5674_17104"/>
<feColorMatrix in="SourceAlpha" type="matrix" values="0 0 0 0 0 0 0 0 0 0 0 0 0 0 0 0 0 0 127 0" result="hardAlpha"/>
<feOffset dx="340" dy="15"/>
<feComposite in2="hardAlpha" operator="out"/>
<feColorMatrix type="matrix" values="0 0 0 0 1 0 0 0 0 1 0 0 0 0 1 0 0 0 1 0"/>
<feBlend mode="normal" in2="effect3_dropShadow_5674_17104" result="effect4_dropShadow_5674_17104"/>
<feColorMatrix in="SourceAlpha" type="matrix" values="0 0 0 0 0 0 0 0 0 0 0 0 0 0 0 0 0 0 127 0" result="hardAlpha"/>
<feOffset dx="101" dy="268"/>
<feComposite in2="hardAlpha" operator="out"/>
<feColorMatrix type="matrix" values="0 0 0 0 1 0 0 0 0 1 0 0 0 0 1 0 0 0 1 0"/>
<feBlend mode="normal" in2="effect4_dropShadow_5674_17104" result="effect5_dropShadow_5674_17104"/>
<feColorMatrix in="SourceAlpha" type="matrix" values="0 0 0 0 0 0 0 0 0 0 0 0 0 0 0 0 0 0 127 0" result="hardAlpha"/>
<feOffset dx="230" dy="358"/>
<feComposite in2="hardAlpha" operator="out"/>
<feColorMatrix type="matrix" values="0 0 0 0 1 0 0 0 0 1 0 0 0 0 1 0 0 0 1 0"/>
<feBlend mode="normal" in2="effect5_dropShadow_5674_17104" result="effect6_dropShadow_5674_17104"/>
<feColorMatrix in="SourceAlpha" type="matrix" values="0 0 0 0 0 0 0 0 0 0 0 0 0 0 0 0 0 0 127 0" result="hardAlpha"/>
<feOffset dx="315" dy="194"/>
<feComposite in2="hardAlpha" operator="out"/>
<feColorMatrix type="matrix" values="0 0 0 0 1 0 0 0 0 1 0 0 0 0 1 0 0 0 1 0"/>
<feBlend mode="normal" in2="effect6_dropShadow_5674_17104" result="effect7_dropShadow_5674_17104"/>
<feColorMatrix in="SourceAlpha" type="matrix" values="0 0 0 0 0 0 0 0 0 0 0 0 0 0 0 0 0 0 127 0" result="hardAlpha"/>
<feOffset dx="331" dy="185"/>
<feComposite in2="hardAlpha" operator="out"/>
<feColorMatrix type="matrix" values="0 0 0 0 1 0 0 0 0 1 0 0 0 0 1 0 0 0 1 0"/>
<feBlend mode="normal" in2="effect7_dropShadow_5674_17104" result="effect8_dropShadow_5674_17104"/>
<feBlend mode="normal" in="SourceGraphic" in2="effect8_dropShadow_5674_17104" result="shape"/>
</filter>
<filter id="filter2_ddddddddf_5674_17104" x="2" y="1" width="303" height="268" filterUnits="userSpaceOnUse" color-interpolation-filters="sRGB">
<feFlood flood-opacity="0" result="BackgroundImageFix"/>
<feColorMatrix in="SourceAlpha" type="matrix" values="0 0 0 0 0 0 0 0 0 0 0 0 0 0 0 0 0 0 127 0" result="hardAlpha"/>
<feOffset dx="32" dy="266"/>
<feComposite in2="hardAlpha" operator="out"/>
<feColorMatrix type="matrix" values="0 0 0 0 1 0 0 0 0 1 0 0 0 0 1 0 0 0 1 0"/>
<feBlend mode="normal" in2="BackgroundImageFix" result="effect1_dropShadow_5674_17104"/>
<feColorMatrix in="SourceAlpha" type="matrix" values="0 0 0 0 0 0 0 0 0 0 0 0 0 0 0 0 0 0 127 0" result="hardAlpha"/>
<feOffset dx="246" dy="15"/>
<feComposite in2="hardAlpha" operator="out"/>
<feColorMatrix type="matrix" values="0 0 0 0 1 0 0 0 0 1 0 0 0 0 1 0 0 0 1 0"/>
<feBlend mode="normal" in2="effect1_dropShadow_5674_17104" result="effect2_dropShadow_5674_17104"/>
<feColorMatrix in="SourceAlpha" type="matrix" values="0 0 0 0 0 0 0 0 0 0 0 0 0 0 0 0 0 0 127 0" result="hardAlpha"/>
<feOffset dx="264" dy="182"/>
<feComposite in2="hardAlpha" operator="out"/>
<feColorMatrix type="matrix" values="0 0 0 0 1 0 0 0 0 1 0 0 0 0 1 0 0 0 1 0"/>
<feBlend mode="normal" in2="effect2_dropShadow_5674_17104" result="effect3_dropShadow_5674_17104"/>
<feColorMatrix in="SourceAlpha" type="matrix" values="0 0 0 0 0 0 0 0 0 0 0 0 0 0 0 0 0 0 127 0" result="hardAlpha"/>
<feOffset dx="301" dy="224"/>
<feComposite in2="hardAlpha" operator="out"/>
<feColorMatrix type="matrix" values="0 0 0 0 1 0 0 0 0 1 0 0 0 0 1 0 0 0 1 0"/>
<feBlend mode="normal" in2="effect3_dropShadow_5674_17104" result="effect4_dropShadow_5674_17104"/>
<feColorMatrix in="SourceAlpha" type="matrix" values="0 0 0 0 0 0 0 0 0 0 0 0 0 0 0 0 0 0 127 0" result="hardAlpha"/>
<feOffset dx="146" dy="198"/>
<feComposite in2="hardAlpha" operator="out"/>
<feColorMatrix type="matrix" values="0 0 0 0 1 0 0 0 0 1 0 0 0 0 1 0 0 0 1 0"/>
<feBlend mode="normal" in2="effect4_dropShadow_5674_17104" result="effect5_dropShadow_5674_17104"/>
<feColorMatrix in="SourceAlpha" type="matrix" values="0 0 0 0 0 0 0 0 0 0 0 0 0 0 0 0 0 0 127 0" result="hardAlpha"/>
<feOffset dx="197" dy="202"/>
<feComposite in2="hardAlpha" operator="out"/>
<feColorMatrix type="matrix" values="0 0 0 0 1 0 0 0 0 1 0 0 0 0 1 0 0 0 1 0"/>
<feBlend mode="normal" in2="effect5_dropShadow_5674_17104" result="effect6_dropShadow_5674_17104"/>
<feColorMatrix in="SourceAlpha" type="matrix" values="0 0 0 0 0 0 0 0 0 0 0 0 0 0 0 0 0 0 127 0" result="hardAlpha"/>
<feOffset dx="37" dy="157"/>
<feComposite in2="hardAlpha" operator="out"/>
<feColorMatrix type="matrix" values="0 0 0 0 1 0 0 0 0 1 0 0 0 0 1 0 0 0 1 0"/>
<feBlend mode="normal" in2="effect6_dropShadow_5674_17104" result="effect7_dropShadow_5674_17104"/>
<feColorMatrix in="SourceAlpha" type="matrix" values="0 0 0 0 0 0 0 0 0 0 0 0 0 0 0 0 0 0 127 0" result="hardAlpha"/>
<feOffset dx="233" dy="122"/>
<feComposite in2="hardAlpha" operator="out"/>
<feColorMatrix type="matrix" values="0 0 0 0 1 0 0 0 0 1 0 0 0 0 1 0 0 0 1 0"/>
<feBlend mode="normal" in2="effect7_dropShadow_5674_17104" result="effect8_dropShadow_5674_17104"/>
<feBlend mode="normal" in="SourceGraphic" in2="effect8_dropShadow_5674_17104" result="shape"/>
<feGaussianBlur stdDeviation="0.5" result="effect9_foregroundBlur_5674_17104"/>
</filter>
<linearGradient id="paint0_linear_5674_17104" x1="80.5" y1="3" x2="80.5" y2="39" gradientUnits="userSpaceOnUse">
<stop stop-color="white"/>
<stop offset="0.333333" stop-color="#1FA8CA" stop-opacity="0.83"/>
<stop offset="0.666667" stop-color="#1FA8CA" stop-opacity="0.91"/>
<stop offset="1" stop-color="white"/>
</linearGradient>
<clipPath id="clip0_5674_17104">
<rect x="3" y="1" width="155" height="40" rx="10" fill="white"/>
</clipPath>
</defs>
</svg>
