<svg width="161" height="47" viewBox="0 0 161 47" fill="none" xmlns="http://www.w3.org/2000/svg">
<g filter="url(#filter0_dddi_5743_10316)">
<g clip-path="url(#clip0_5743_10316)">
<rect x="3" y="1" width="155" height="40" rx="10" fill="#1FA8CA"/>
<g filter="url(#filter1_dddddddd_5743_10316)">
<rect x="3" y="1" width="1" height="1" fill="white" fill-opacity="0.01" shape-rendering="crispEdges"/>
</g>
<g filter="url(#filter2_ddddddddf_5743_10316)">
<rect width="1" height="1" transform="translate(3 2)" fill="white" fill-opacity="0.01"/>
</g>
<mask id="mask0_5743_10316" style="mask-type:alpha" maskUnits="userSpaceOnUse" x="6" y="1" width="162" height="37">
<rect x="6" y="1" width="162" height="37" fill="white"/>
</mask>
<g mask="url(#mask0_5743_10316)">
<rect opacity="0.24" x="6" y="3" width="149" height="36" rx="15" fill="url(#paint0_linear_5743_10316)"/>
<path d="M30.9541 18.4929C30.9011 18.0223 30.6823 17.6577 30.2979 17.3991C29.9134 17.1373 29.4295 17.0064 28.8461 17.0064C28.4285 17.0064 28.0673 17.0727 27.7623 17.2053C27.4574 17.3345 27.2204 17.5135 27.0514 17.7422C26.8857 17.9676 26.8028 18.2244 26.8028 18.5128C26.8028 18.7547 26.8592 18.9635 26.9719 19.1392C27.0879 19.3149 27.2387 19.4624 27.4243 19.5817C27.6132 19.6977 27.8154 19.7955 28.0308 19.875C28.2462 19.9512 28.4534 20.0142 28.6523 20.0639L29.6466 20.3224C29.9714 20.402 30.3045 20.5097 30.6459 20.6456C30.9872 20.7815 31.3038 20.9605 31.5954 21.1825C31.8871 21.4046 32.1224 21.6797 32.3014 22.0078C32.4837 22.3359 32.5748 22.7287 32.5748 23.1861C32.5748 23.7628 32.4257 24.2749 32.1274 24.7223C31.8324 25.1697 31.4032 25.5227 30.8398 25.7812C30.2796 26.0398 29.6018 26.169 28.8064 26.169C28.0441 26.169 27.3845 26.0481 26.8277 25.8061C26.2709 25.5642 25.835 25.2211 25.5202 24.777C25.2053 24.3295 25.0313 23.7992 24.9981 23.1861H26.5393C26.5692 23.554 26.6885 23.8606 26.8973 24.1058C27.1094 24.3478 27.3795 24.5284 27.7077 24.6477C28.0391 24.7637 28.402 24.8217 28.7964 24.8217C29.2306 24.8217 29.6167 24.7538 29.9548 24.6179C30.2962 24.4787 30.5647 24.2865 30.7602 24.0412C30.9558 23.7926 31.0535 23.5026 31.0535 23.1712C31.0535 22.8696 30.9674 22.6226 30.795 22.4304C30.626 22.2382 30.3956 22.0791 30.104 21.9531C29.8156 21.8272 29.4891 21.7161 29.1246 21.62L27.9214 21.2919C27.1061 21.0698 26.4598 20.7434 25.9825 20.3125C25.5086 19.8816 25.2716 19.3116 25.2716 18.6023C25.2716 18.0156 25.4307 17.5036 25.7488 17.0661C26.067 16.6286 26.4979 16.2888 27.0415 16.0469C27.585 15.8016 28.1982 15.679 28.8809 15.679C29.5703 15.679 30.1785 15.8 30.7055 16.0419C31.2358 16.2839 31.6534 16.617 31.9584 17.0412C32.2633 17.4621 32.4224 17.946 32.4356 18.4929H30.9541ZM37.8559 18.3636V19.5568H33.6847V18.3636H37.8559ZM34.8034 16.5341H36.2899V23.7578C36.2899 24.0462 36.3329 24.2633 36.4191 24.4091C36.5053 24.5516 36.6163 24.6494 36.7522 24.7024C36.8914 24.7521 37.0422 24.777 37.2046 24.777C37.324 24.777 37.4284 24.7687 37.5178 24.7521C37.6073 24.7356 37.6769 24.7223 37.7267 24.7124L37.9951 25.9403C37.9089 25.9735 37.7863 26.0066 37.6272 26.0398C37.4681 26.0762 37.2693 26.0961 37.0306 26.0994C36.6395 26.1061 36.2749 26.0365 35.9369 25.8906C35.5988 25.7448 35.3254 25.5194 35.1166 25.2145C34.9078 24.9096 34.8034 24.5268 34.8034 24.0661V16.5341ZM41.7226 26.169C41.2387 26.169 40.8012 26.0795 40.4101 25.9006C40.019 25.7183 39.7091 25.4548 39.4804 25.1101C39.255 24.7654 39.1423 24.3428 39.1423 23.8423C39.1423 23.4115 39.2252 23.0568 39.3909 22.7784C39.5566 22.5 39.7803 22.2796 40.0621 22.1172C40.3438 21.9548 40.6586 21.8321 41.0067 21.7493C41.3547 21.6664 41.7093 21.6035 42.0706 21.5604C42.528 21.5073 42.8992 21.4643 43.1842 21.4311C43.4693 21.3946 43.6764 21.3366 43.8057 21.2571C43.9349 21.1776 43.9996 21.0483 43.9996 20.8693V20.8345C43.9996 20.4003 43.8769 20.0639 43.6317 19.8253C43.3897 19.5866 43.0284 19.4673 42.5479 19.4673C42.0474 19.4673 41.653 19.5784 41.3646 19.8004C41.0796 20.0192 40.8824 20.2628 40.773 20.5312L39.376 20.2131C39.5417 19.7491 39.7836 19.3745 40.1018 19.0895C40.4233 18.8011 40.7929 18.5923 41.2105 18.4631C41.6281 18.3305 42.0673 18.2642 42.528 18.2642C42.8329 18.2642 43.156 18.3007 43.4974 18.3736C43.8421 18.4432 44.1636 18.5724 44.4619 18.7614C44.7635 18.9503 45.0104 19.2204 45.2027 19.5717C45.3949 19.9197 45.491 20.3722 45.491 20.929V26H44.0393V24.956H43.9797C43.8836 25.1482 43.7394 25.3371 43.5471 25.5227C43.3549 25.7083 43.108 25.8625 42.8064 25.9851C42.5048 26.1077 42.1435 26.169 41.7226 26.169ZM42.0457 24.9759C42.4567 24.9759 42.808 24.8946 43.0997 24.7322C43.3947 24.5698 43.6184 24.3577 43.7709 24.0959C43.9266 23.8307 44.0045 23.5473 44.0045 23.2457V22.2614C43.9515 22.3144 43.8488 22.3641 43.6963 22.4105C43.5471 22.4536 43.3765 22.4917 43.1842 22.5249C42.992 22.5547 42.8047 22.5829 42.6224 22.6094C42.4401 22.6326 42.2877 22.6525 42.165 22.669C41.8767 22.7055 41.6132 22.7668 41.3746 22.853C41.1392 22.9392 40.9503 23.0634 40.8078 23.2259C40.6686 23.3849 40.599 23.5971 40.599 23.8622C40.599 24.2301 40.7349 24.5085 41.0067 24.6974C41.2784 24.883 41.6248 24.9759 42.0457 24.9759ZM48.1372 28.8636C47.9151 28.8636 47.7129 28.8454 47.5306 28.8089C47.3483 28.7758 47.2124 28.7393 47.123 28.6996L47.4809 27.4815C47.7527 27.5545 47.9946 27.5859 48.2068 27.576C48.4189 27.5661 48.6061 27.4865 48.7686 27.3374C48.9343 27.1882 49.0801 26.9446 49.2061 26.6065L49.39 26.0994L46.596 18.3636H48.1869L50.1208 24.2898H50.2004L52.1343 18.3636H53.7302L50.5832 27.0192C50.4374 27.4169 50.2517 27.7533 50.0264 28.0284C49.801 28.3068 49.5325 28.5156 49.221 28.6548C48.9094 28.794 48.5481 28.8636 48.1372 28.8636ZM58.9516 26V15.8182H62.5809C63.373 15.8182 64.0293 15.9624 64.5496 16.2507C65.07 16.5391 65.4594 16.9335 65.718 17.4339C65.9765 17.9311 66.1057 18.4912 66.1057 19.1143C66.1057 19.7408 65.9748 20.3042 65.713 20.8047C65.4545 21.3018 65.0634 21.6963 64.5397 21.9879C64.0193 22.2763 63.3647 22.4205 62.5759 22.4205H60.0802V21.1179H62.4367C62.9372 21.1179 63.3432 21.0317 63.6547 20.8594C63.9663 20.6837 64.195 20.4451 64.3408 20.1435C64.4867 19.8419 64.5596 19.4988 64.5596 19.1143C64.5596 18.7299 64.4867 18.3885 64.3408 18.0902C64.195 17.7919 63.9646 17.5582 63.6498 17.3892C63.3382 17.2202 62.9272 17.1357 62.4168 17.1357H60.4878V26H58.9516ZM67.7874 26V18.3636H69.2242V19.5767H69.3037C69.4429 19.1657 69.6882 18.8426 70.0395 18.6072C70.3941 18.3686 70.7952 18.2493 71.2426 18.2493C71.3354 18.2493 71.4448 18.2526 71.5708 18.2592C71.7 18.2659 71.8011 18.2741 71.874 18.2841V19.706C71.8144 19.6894 71.7083 19.6712 71.5558 19.6513C71.4034 19.6281 71.2509 19.6165 71.0985 19.6165C70.7471 19.6165 70.4339 19.6911 70.1588 19.8402C69.887 19.986 69.6716 20.1899 69.5125 20.4517C69.3534 20.7102 69.2739 21.0052 69.2739 21.3366V26H67.7874ZM76.1036 26.1541C75.3877 26.1541 74.7629 25.9901 74.2293 25.6619C73.6957 25.3338 73.2814 24.8748 72.9864 24.2848C72.6914 23.6948 72.5439 23.0054 72.5439 22.2166C72.5439 21.4245 72.6914 20.7318 72.9864 20.1385C73.2814 19.5452 73.6957 19.0845 74.2293 18.7564C74.7629 18.4283 75.3877 18.2642 76.1036 18.2642C76.8195 18.2642 77.4443 18.4283 77.9779 18.7564C78.5115 19.0845 78.9258 19.5452 79.2208 20.1385C79.5158 20.7318 79.6633 21.4245 79.6633 22.2166C79.6633 23.0054 79.5158 23.6948 79.2208 24.2848C78.9258 24.8748 78.5115 25.3338 77.9779 25.6619C77.4443 25.9901 76.8195 26.1541 76.1036 26.1541ZM76.1086 24.9062C76.5726 24.9062 76.9571 24.7836 77.262 24.5384C77.5669 24.2931 77.7923 23.9666 77.9381 23.5589C78.0873 23.1513 78.1618 22.7022 78.1618 22.2116C78.1618 21.7244 78.0873 21.277 77.9381 20.8693C77.7923 20.4583 77.5669 20.1286 77.262 19.88C76.9571 19.6314 76.5726 19.5071 76.1086 19.5071C75.6412 19.5071 75.2535 19.6314 74.9452 19.88C74.6403 20.1286 74.4133 20.4583 74.2641 20.8693C74.1183 21.277 74.0454 21.7244 74.0454 22.2116C74.0454 22.7022 74.1183 23.1513 74.2641 23.5589C74.4133 23.9666 74.6403 24.2931 74.9452 24.5384C75.2535 24.7836 75.6412 24.9062 76.1086 24.9062ZM84.8872 18.3636V19.5568H80.716V18.3636H84.8872ZM81.8346 16.5341H83.3211V23.7578C83.3211 24.0462 83.3642 24.2633 83.4504 24.4091C83.5365 24.5516 83.6476 24.6494 83.7835 24.7024C83.9227 24.7521 84.0735 24.777 84.2359 24.777C84.3552 24.777 84.4596 24.7687 84.5491 24.7521C84.6386 24.7356 84.7082 24.7223 84.7579 24.7124L85.0264 25.9403C84.9402 25.9735 84.8176 26.0066 84.6585 26.0398C84.4994 26.0762 84.3005 26.0961 84.0619 26.0994C83.6708 26.1061 83.3062 26.0365 82.9681 25.8906C82.6301 25.7448 82.3566 25.5194 82.1478 25.2145C81.939 24.9096 81.8346 24.5268 81.8346 24.0661V16.5341ZM89.7407 26.1541C88.9883 26.1541 88.3403 25.9934 87.7968 25.6719C87.2565 25.3471 86.8389 24.8913 86.5439 24.3047C86.2523 23.7147 86.1064 23.0237 86.1064 22.2315C86.1064 21.4493 86.2523 20.7599 86.5439 20.1634C86.8389 19.5668 87.2499 19.1011 87.7769 18.7663C88.3072 18.4316 88.927 18.2642 89.6363 18.2642C90.0671 18.2642 90.4848 18.3355 90.8891 18.478C91.2935 18.6205 91.6564 18.8442 91.9779 19.1491C92.2994 19.4541 92.5529 19.8501 92.7385 20.3374C92.9242 20.8213 93.017 21.4096 93.017 22.1023V22.6293H86.9466V21.5156H91.5603C91.5603 21.1245 91.4807 20.7782 91.3216 20.4766C91.1626 20.1716 90.9388 19.9313 90.6505 19.7557C90.3654 19.58 90.0307 19.4922 89.6462 19.4922C89.2286 19.4922 88.864 19.5949 88.5525 19.8004C88.2442 20.0026 88.0056 20.2678 87.8366 20.5959C87.6708 20.9207 87.588 21.2737 87.588 21.6548V22.5249C87.588 23.0353 87.6775 23.4695 87.8564 23.8274C88.0387 24.1854 88.2923 24.4588 88.6171 24.6477C88.9419 24.8333 89.3214 24.9261 89.7556 24.9261C90.0373 24.9261 90.2942 24.8864 90.5262 24.8068C90.7582 24.724 90.9587 24.6013 91.1278 24.4389C91.2968 24.2765 91.426 24.076 91.5155 23.8374L92.9225 24.0909C92.8098 24.5052 92.6076 24.8681 92.316 25.1797C92.0276 25.4879 91.6647 25.7282 91.2272 25.9006C90.793 26.0696 90.2975 26.1541 89.7407 26.1541ZM97.8829 26.1541C97.1438 26.1541 96.5074 25.9867 95.9738 25.652C95.4435 25.3139 95.0358 24.8482 94.7508 24.255C94.4658 23.6617 94.3232 22.9822 94.3232 22.2166C94.3232 21.4411 94.4691 20.7566 94.7607 20.1634C95.0524 19.5668 95.4634 19.1011 95.9937 18.7663C96.524 18.4316 97.1488 18.2642 97.868 18.2642C98.448 18.2642 98.9651 18.3719 99.4191 18.5874C99.8732 18.7995 100.239 19.0978 100.518 19.4822C100.8 19.8667 100.967 20.3158 101.02 20.8295H99.5732C99.4937 20.4716 99.3114 20.1634 99.0264 19.9048C98.7446 19.6463 98.3668 19.517 97.8928 19.517C97.4785 19.517 97.1156 19.6264 96.8041 19.8452C96.4958 20.0606 96.2555 20.3688 96.0832 20.7699C95.9108 21.1676 95.8247 21.6383 95.8247 22.1818C95.8247 22.7386 95.9092 23.2192 96.0782 23.6236C96.2472 24.0279 96.4859 24.3411 96.7941 24.5632C97.1057 24.7853 97.4719 24.8963 97.8928 24.8963C98.1746 24.8963 98.4298 24.8449 98.6585 24.7422C98.8905 24.6361 99.0844 24.4853 99.2401 24.2898C99.3992 24.0942 99.5103 23.8589 99.5732 23.5838H101.02C100.967 24.0777 100.806 24.5185 100.538 24.9062C100.269 25.294 99.9097 25.599 99.4589 25.821C99.0115 26.0431 98.4861 26.1541 97.8829 26.1541ZM106.174 18.3636V19.5568H102.003V18.3636H106.174ZM103.122 16.5341H104.608V23.7578C104.608 24.0462 104.651 24.2633 104.737 24.4091C104.824 24.5516 104.935 24.6494 105.071 24.7024C105.21 24.7521 105.361 24.777 105.523 24.777C105.642 24.777 105.747 24.7687 105.836 24.7521C105.926 24.7356 105.995 24.7223 106.045 24.7124L106.313 25.9403C106.227 25.9735 106.105 26.0066 105.946 26.0398C105.786 26.0762 105.588 26.0961 105.349 26.0994C104.958 26.1061 104.593 26.0365 104.255 25.8906C103.917 25.7448 103.644 25.5194 103.435 25.2145C103.226 24.9096 103.122 24.5268 103.122 24.0661V16.5341ZM111.028 26.1541C110.275 26.1541 109.627 25.9934 109.084 25.6719C108.544 25.3471 108.126 24.8913 107.831 24.3047C107.539 23.7147 107.394 23.0237 107.394 22.2315C107.394 21.4493 107.539 20.7599 107.831 20.1634C108.126 19.5668 108.537 19.1011 109.064 18.7663C109.594 18.4316 110.214 18.2642 110.923 18.2642C111.354 18.2642 111.772 18.3355 112.176 18.478C112.581 18.6205 112.944 18.8442 113.265 19.1491C113.587 19.4541 113.84 19.8501 114.026 20.3374C114.211 20.8213 114.304 21.4096 114.304 22.1023V22.6293H108.234V21.5156H112.847C112.847 21.1245 112.768 20.7782 112.609 20.4766C112.45 20.1716 112.226 19.9313 111.938 19.7557C111.653 19.58 111.318 19.4922 110.933 19.4922C110.516 19.4922 110.151 19.5949 109.84 19.8004C109.531 20.0026 109.293 20.2678 109.124 20.5959C108.958 20.9207 108.875 21.2737 108.875 21.6548V22.5249C108.875 23.0353 108.965 23.4695 109.144 23.8274C109.326 24.1854 109.579 24.4588 109.904 24.6477C110.229 24.8333 110.609 24.9261 111.043 24.9261C111.324 24.9261 111.581 24.8864 111.813 24.8068C112.045 24.724 112.246 24.6013 112.415 24.4389C112.584 24.2765 112.713 24.076 112.803 23.8374L114.21 24.0909C114.097 24.5052 113.895 24.8681 113.603 25.1797C113.315 25.4879 112.952 25.7282 112.514 25.9006C112.08 26.0696 111.585 26.1541 111.028 26.1541ZM118.812 26.1491C118.196 26.1491 117.645 25.9917 117.161 25.6768C116.681 25.3587 116.303 24.9062 116.028 24.3196C115.756 23.7296 115.62 23.022 115.62 22.1967C115.62 21.3714 115.758 20.6655 116.033 20.0788C116.311 19.4922 116.693 19.0431 117.176 18.7315C117.66 18.42 118.209 18.2642 118.822 18.2642C119.296 18.2642 119.677 18.3438 119.965 18.5028C120.257 18.6586 120.483 18.8409 120.642 19.0497C120.804 19.2585 120.93 19.4425 121.019 19.6016H121.109V15.8182H122.595V26H121.144V24.8118H121.019C120.93 24.9742 120.801 25.1598 120.632 25.3686C120.466 25.5774 120.237 25.7597 119.946 25.9155C119.654 26.0713 119.276 26.1491 118.812 26.1491ZM119.14 24.8814C119.568 24.8814 119.929 24.7687 120.224 24.5433C120.522 24.3146 120.748 23.9981 120.9 23.5938C121.056 23.1894 121.134 22.7187 121.134 22.1818C121.134 21.6515 121.058 21.1875 120.905 20.7898C120.753 20.392 120.529 20.0821 120.234 19.8601C119.939 19.638 119.574 19.527 119.14 19.527C118.693 19.527 118.32 19.643 118.022 19.875C117.723 20.107 117.498 20.4235 117.345 20.8246C117.196 21.2256 117.122 21.678 117.122 22.1818C117.122 22.6922 117.198 23.1513 117.35 23.5589C117.503 23.9666 117.728 24.2898 118.027 24.5284C118.328 24.7637 118.699 24.8814 119.14 24.8814Z" fill="white"/>
<path d="M142.958 17.4585C142.958 17.1133 142.679 16.8335 142.333 16.8335C141.988 16.8335 141.708 17.1133 141.708 17.4585C141.708 19.48 141.262 20.7929 140.444 21.6107C139.626 22.4286 138.313 22.8752 136.292 22.8752C135.947 22.8752 135.667 23.155 135.667 23.5002C135.667 23.8453 135.947 24.1252 136.292 24.1252C138.313 24.1252 139.626 24.5717 140.444 25.3896C141.262 26.2074 141.708 27.5203 141.708 29.5418C141.708 29.887 141.988 30.1668 142.333 30.1668C142.679 30.1668 142.958 29.887 142.958 29.5418C142.958 27.5203 143.405 26.2074 144.223 25.3896C145.041 24.5717 146.354 24.1252 148.375 24.1252C148.72 24.1252 149 23.8453 149 23.5002C149 23.155 148.72 22.8752 148.375 22.8752C146.354 22.8752 145.041 22.4286 144.223 21.6107C143.405 20.7929 142.958 19.48 142.958 17.4585Z" fill="white" fill-opacity="0.9"/>
<path d="M136.5 15.5837C136.5 15.3535 136.314 15.167 136.083 15.167C135.853 15.167 135.667 15.3535 135.667 15.5837C135.667 16.4009 135.486 16.8942 135.19 17.1901C134.894 17.486 134.401 17.667 133.583 17.667C133.353 17.667 133.167 17.8535 133.167 18.0837C133.167 18.3138 133.353 18.5003 133.583 18.5003C134.401 18.5003 134.894 18.6813 135.19 18.9772C135.486 19.2732 135.667 19.7665 135.667 20.5837C135.667 20.8138 135.853 21.0004 136.083 21.0004C136.314 21.0004 136.5 20.8138 136.5 20.5837C136.5 19.7665 136.681 19.2732 136.977 18.9772C137.273 18.6813 137.766 18.5003 138.583 18.5003C138.814 18.5003 139 18.3138 139 18.0837C139 17.8535 138.814 17.667 138.583 17.667C137.766 17.667 137.273 17.486 136.977 17.1901C136.681 16.8942 136.5 16.4009 136.5 15.5837Z" fill="white" fill-opacity="0.9"/>
<path d="M140.667 12.2502C140.667 12.02 140.48 11.8335 140.25 11.8335C140.02 11.8335 139.833 12.02 139.833 12.2502C139.833 12.778 139.716 13.063 139.556 13.2229C139.396 13.3828 139.111 13.5002 138.583 13.5002C138.353 13.5002 138.167 13.6867 138.167 13.9168C138.167 14.147 138.353 14.3335 138.583 14.3335C139.111 14.3335 139.396 14.4509 139.556 14.6108C139.716 14.7707 139.833 15.0557 139.833 15.5835C139.833 15.8136 140.02 16.0002 140.25 16.0002C140.48 16.0002 140.667 15.8136 140.667 15.5835C140.667 15.0557 140.784 14.7707 140.944 14.6108C141.104 14.4509 141.389 14.3335 141.917 14.3335C142.147 14.3335 142.333 14.147 142.333 13.9168C142.333 13.6867 142.147 13.5002 141.917 13.5002C141.389 13.5002 141.104 13.3828 140.944 13.2229C140.784 13.063 140.667 12.778 140.667 12.2502Z" fill="white" fill-opacity="0.9"/>
</g>
</g>
</g>
<defs>
<filter id="filter0_dddi_5743_10316" x="0" y="-5" width="161" height="52" filterUnits="userSpaceOnUse" color-interpolation-filters="sRGB">
<feFlood flood-opacity="0" result="BackgroundImageFix"/>
<feColorMatrix in="SourceAlpha" type="matrix" values="0 0 0 0 0 0 0 0 0 0 0 0 0 0 0 0 0 0 127 0" result="hardAlpha"/>
<feOffset dy="3"/>
<feGaussianBlur stdDeviation="1.5"/>
<feComposite in2="hardAlpha" operator="out"/>
<feColorMatrix type="matrix" values="0 0 0 0 0.184314 0 0 0 0 0.00392157 0 0 0 0 0.592157 0 0 0 0.12 0"/>
<feBlend mode="normal" in2="BackgroundImageFix" result="effect1_dropShadow_5743_10316"/>
<feColorMatrix in="SourceAlpha" type="matrix" values="0 0 0 0 0 0 0 0 0 0 0 0 0 0 0 0 0 0 127 0" result="hardAlpha"/>
<feOffset dy="1"/>
<feGaussianBlur stdDeviation="0.5"/>
<feComposite in2="hardAlpha" operator="out"/>
<feColorMatrix type="matrix" values="0 0 0 0 0.184314 0 0 0 0 0.00392157 0 0 0 0 0.592157 0 0 0 0.12 0"/>
<feBlend mode="normal" in2="effect1_dropShadow_5743_10316" result="effect2_dropShadow_5743_10316"/>
<feColorMatrix in="SourceAlpha" type="matrix" values="0 0 0 0 0 0 0 0 0 0 0 0 0 0 0 0 0 0 127 0" result="hardAlpha"/>
<feMorphology radius="1" operator="dilate" in="SourceAlpha" result="effect3_dropShadow_5743_10316"/>
<feOffset/>
<feComposite in2="hardAlpha" operator="out"/>
<feColorMatrix type="matrix" values="0 0 0 0 0.184314 0 0 0 0 0.00392157 0 0 0 0 0.592157 0 0 0 0.08 0"/>
<feBlend mode="normal" in2="effect2_dropShadow_5743_10316" result="effect3_dropShadow_5743_10316"/>
<feBlend mode="normal" in="SourceGraphic" in2="effect3_dropShadow_5743_10316" result="shape"/>
<feColorMatrix in="SourceAlpha" type="matrix" values="0 0 0 0 0 0 0 0 0 0 0 0 0 0 0 0 0 0 127 0" result="hardAlpha"/>
<feOffset dy="-6"/>
<feGaussianBlur stdDeviation="10"/>
<feComposite in2="hardAlpha" operator="arithmetic" k2="-1" k3="1"/>
<feColorMatrix type="matrix" values="0 0 0 0 0.447059 0 0 0 0 0.192157 0 0 0 0 1 0 0 0 0.32 0"/>
<feBlend mode="normal" in2="shape" result="effect4_innerShadow_5743_10316"/>
</filter>
<filter id="filter1_dddddddd_5743_10316" x="3" y="1" width="341" height="359" filterUnits="userSpaceOnUse" color-interpolation-filters="sRGB">
<feFlood flood-opacity="0" result="BackgroundImageFix"/>
<feColorMatrix in="SourceAlpha" type="matrix" values="0 0 0 0 0 0 0 0 0 0 0 0 0 0 0 0 0 0 127 0" result="hardAlpha"/>
<feOffset dx="99" dy="251"/>
<feComposite in2="hardAlpha" operator="out"/>
<feColorMatrix type="matrix" values="0 0 0 0 1 0 0 0 0 1 0 0 0 0 1 0 0 0 1 0"/>
<feBlend mode="normal" in2="BackgroundImageFix" result="effect1_dropShadow_5743_10316"/>
<feColorMatrix in="SourceAlpha" type="matrix" values="0 0 0 0 0 0 0 0 0 0 0 0 0 0 0 0 0 0 127 0" result="hardAlpha"/>
<feOffset dx="332" dy="36"/>
<feComposite in2="hardAlpha" operator="out"/>
<feColorMatrix type="matrix" values="0 0 0 0 1 0 0 0 0 1 0 0 0 0 1 0 0 0 1 0"/>
<feBlend mode="normal" in2="effect1_dropShadow_5743_10316" result="effect2_dropShadow_5743_10316"/>
<feColorMatrix in="SourceAlpha" type="matrix" values="0 0 0 0 0 0 0 0 0 0 0 0 0 0 0 0 0 0 127 0" result="hardAlpha"/>
<feOffset dx="92" dy="100"/>
<feComposite in2="hardAlpha" operator="out"/>
<feColorMatrix type="matrix" values="0 0 0 0 1 0 0 0 0 1 0 0 0 0 1 0 0 0 1 0"/>
<feBlend mode="normal" in2="effect2_dropShadow_5743_10316" result="effect3_dropShadow_5743_10316"/>
<feColorMatrix in="SourceAlpha" type="matrix" values="0 0 0 0 0 0 0 0 0 0 0 0 0 0 0 0 0 0 127 0" result="hardAlpha"/>
<feOffset dx="340" dy="15"/>
<feComposite in2="hardAlpha" operator="out"/>
<feColorMatrix type="matrix" values="0 0 0 0 1 0 0 0 0 1 0 0 0 0 1 0 0 0 1 0"/>
<feBlend mode="normal" in2="effect3_dropShadow_5743_10316" result="effect4_dropShadow_5743_10316"/>
<feColorMatrix in="SourceAlpha" type="matrix" values="0 0 0 0 0 0 0 0 0 0 0 0 0 0 0 0 0 0 127 0" result="hardAlpha"/>
<feOffset dx="101" dy="268"/>
<feComposite in2="hardAlpha" operator="out"/>
<feColorMatrix type="matrix" values="0 0 0 0 1 0 0 0 0 1 0 0 0 0 1 0 0 0 1 0"/>
<feBlend mode="normal" in2="effect4_dropShadow_5743_10316" result="effect5_dropShadow_5743_10316"/>
<feColorMatrix in="SourceAlpha" type="matrix" values="0 0 0 0 0 0 0 0 0 0 0 0 0 0 0 0 0 0 127 0" result="hardAlpha"/>
<feOffset dx="230" dy="358"/>
<feComposite in2="hardAlpha" operator="out"/>
<feColorMatrix type="matrix" values="0 0 0 0 1 0 0 0 0 1 0 0 0 0 1 0 0 0 1 0"/>
<feBlend mode="normal" in2="effect5_dropShadow_5743_10316" result="effect6_dropShadow_5743_10316"/>
<feColorMatrix in="SourceAlpha" type="matrix" values="0 0 0 0 0 0 0 0 0 0 0 0 0 0 0 0 0 0 127 0" result="hardAlpha"/>
<feOffset dx="315" dy="194"/>
<feComposite in2="hardAlpha" operator="out"/>
<feColorMatrix type="matrix" values="0 0 0 0 1 0 0 0 0 1 0 0 0 0 1 0 0 0 1 0"/>
<feBlend mode="normal" in2="effect6_dropShadow_5743_10316" result="effect7_dropShadow_5743_10316"/>
<feColorMatrix in="SourceAlpha" type="matrix" values="0 0 0 0 0 0 0 0 0 0 0 0 0 0 0 0 0 0 127 0" result="hardAlpha"/>
<feOffset dx="331" dy="185"/>
<feComposite in2="hardAlpha" operator="out"/>
<feColorMatrix type="matrix" values="0 0 0 0 1 0 0 0 0 1 0 0 0 0 1 0 0 0 1 0"/>
<feBlend mode="normal" in2="effect7_dropShadow_5743_10316" result="effect8_dropShadow_5743_10316"/>
<feBlend mode="normal" in="SourceGraphic" in2="effect8_dropShadow_5743_10316" result="shape"/>
</filter>
<filter id="filter2_ddddddddf_5743_10316" x="2" y="1" width="303" height="268" filterUnits="userSpaceOnUse" color-interpolation-filters="sRGB">
<feFlood flood-opacity="0" result="BackgroundImageFix"/>
<feColorMatrix in="SourceAlpha" type="matrix" values="0 0 0 0 0 0 0 0 0 0 0 0 0 0 0 0 0 0 127 0" result="hardAlpha"/>
<feOffset dx="32" dy="266"/>
<feComposite in2="hardAlpha" operator="out"/>
<feColorMatrix type="matrix" values="0 0 0 0 1 0 0 0 0 1 0 0 0 0 1 0 0 0 1 0"/>
<feBlend mode="normal" in2="BackgroundImageFix" result="effect1_dropShadow_5743_10316"/>
<feColorMatrix in="SourceAlpha" type="matrix" values="0 0 0 0 0 0 0 0 0 0 0 0 0 0 0 0 0 0 127 0" result="hardAlpha"/>
<feOffset dx="246" dy="15"/>
<feComposite in2="hardAlpha" operator="out"/>
<feColorMatrix type="matrix" values="0 0 0 0 1 0 0 0 0 1 0 0 0 0 1 0 0 0 1 0"/>
<feBlend mode="normal" in2="effect1_dropShadow_5743_10316" result="effect2_dropShadow_5743_10316"/>
<feColorMatrix in="SourceAlpha" type="matrix" values="0 0 0 0 0 0 0 0 0 0 0 0 0 0 0 0 0 0 127 0" result="hardAlpha"/>
<feOffset dx="264" dy="182"/>
<feComposite in2="hardAlpha" operator="out"/>
<feColorMatrix type="matrix" values="0 0 0 0 1 0 0 0 0 1 0 0 0 0 1 0 0 0 1 0"/>
<feBlend mode="normal" in2="effect2_dropShadow_5743_10316" result="effect3_dropShadow_5743_10316"/>
<feColorMatrix in="SourceAlpha" type="matrix" values="0 0 0 0 0 0 0 0 0 0 0 0 0 0 0 0 0 0 127 0" result="hardAlpha"/>
<feOffset dx="301" dy="224"/>
<feComposite in2="hardAlpha" operator="out"/>
<feColorMatrix type="matrix" values="0 0 0 0 1 0 0 0 0 1 0 0 0 0 1 0 0 0 1 0"/>
<feBlend mode="normal" in2="effect3_dropShadow_5743_10316" result="effect4_dropShadow_5743_10316"/>
<feColorMatrix in="SourceAlpha" type="matrix" values="0 0 0 0 0 0 0 0 0 0 0 0 0 0 0 0 0 0 127 0" result="hardAlpha"/>
<feOffset dx="146" dy="198"/>
<feComposite in2="hardAlpha" operator="out"/>
<feColorMatrix type="matrix" values="0 0 0 0 1 0 0 0 0 1 0 0 0 0 1 0 0 0 1 0"/>
<feBlend mode="normal" in2="effect4_dropShadow_5743_10316" result="effect5_dropShadow_5743_10316"/>
<feColorMatrix in="SourceAlpha" type="matrix" values="0 0 0 0 0 0 0 0 0 0 0 0 0 0 0 0 0 0 127 0" result="hardAlpha"/>
<feOffset dx="197" dy="202"/>
<feComposite in2="hardAlpha" operator="out"/>
<feColorMatrix type="matrix" values="0 0 0 0 1 0 0 0 0 1 0 0 0 0 1 0 0 0 1 0"/>
<feBlend mode="normal" in2="effect5_dropShadow_5743_10316" result="effect6_dropShadow_5743_10316"/>
<feColorMatrix in="SourceAlpha" type="matrix" values="0 0 0 0 0 0 0 0 0 0 0 0 0 0 0 0 0 0 127 0" result="hardAlpha"/>
<feOffset dx="37" dy="157"/>
<feComposite in2="hardAlpha" operator="out"/>
<feColorMatrix type="matrix" values="0 0 0 0 1 0 0 0 0 1 0 0 0 0 1 0 0 0 1 0"/>
<feBlend mode="normal" in2="effect6_dropShadow_5743_10316" result="effect7_dropShadow_5743_10316"/>
<feColorMatrix in="SourceAlpha" type="matrix" values="0 0 0 0 0 0 0 0 0 0 0 0 0 0 0 0 0 0 127 0" result="hardAlpha"/>
<feOffset dx="233" dy="122"/>
<feComposite in2="hardAlpha" operator="out"/>
<feColorMatrix type="matrix" values="0 0 0 0 1 0 0 0 0 1 0 0 0 0 1 0 0 0 1 0"/>
<feBlend mode="normal" in2="effect7_dropShadow_5743_10316" result="effect8_dropShadow_5743_10316"/>
<feBlend mode="normal" in="SourceGraphic" in2="effect8_dropShadow_5743_10316" result="shape"/>
<feGaussianBlur stdDeviation="0.5" result="effect9_foregroundBlur_5743_10316"/>
</filter>
<linearGradient id="paint0_linear_5743_10316" x1="80.5" y1="3" x2="80.5" y2="39" gradientUnits="userSpaceOnUse">
<stop stop-color="white"/>
<stop offset="0.333333" stop-color="#1FA8CA" stop-opacity="0.83"/>
<stop offset="0.666667" stop-color="#1FA8CA" stop-opacity="0.91"/>
<stop offset="1" stop-color="white"/>
</linearGradient>
<clipPath id="clip0_5743_10316">
<rect x="3" y="1" width="155" height="40" rx="10" fill="white"/>
</clipPath>
</defs>
</svg>
