<svg width="107" height="42" viewBox="0 0 107 42" fill="none" xmlns="http://www.w3.org/2000/svg">
<g filter="url(#filter0_di_5773_6576)">
<mask id="path-1-inside-1_5773_6576" fill="white">
<path d="M4 12C4 5.37258 9.37258 0 16 0H91C97.6274 0 103 5.37258 103 12V21.3C103 27.9274 97.6274 33.3 91 33.3H16C9.37258 33.3 4 27.9274 4 21.3V12Z"/>
</mask>
<path d="M4 12C4 5.37258 9.37258 0 16 0H91C97.6274 0 103 5.37258 103 12V21.3C103 27.9274 97.6274 33.3 91 33.3H16C9.37258 33.3 4 27.9274 4 21.3V12Z" fill="url(#paint0_linear_5773_6576)" fill-opacity="0.95"/>
<path d="M16 0V1H91V0V-1H16V0ZM103 12H102V21.3H103H104V12H103ZM91 33.3V32.3H16V33.3V34.3H91V33.3ZM4 21.3H5V12H4H3V21.3H4ZM16 33.3V32.3C9.92487 32.3 5 27.3751 5 21.3H4H3C3 28.4797 8.8203 34.3 16 34.3V33.3ZM103 21.3H102C102 27.3751 97.0751 32.3 91 32.3V33.3V34.3C98.1797 34.3 104 28.4797 104 21.3H103ZM91 0V1C97.0751 1 102 5.92487 102 12H103H104C104 4.8203 98.1797 -1 91 -1V0ZM16 0V-1C8.8203 -1 3 4.8203 3 12H4H5C5 5.92487 9.92487 1 16 1V0Z" fill="url(#paint1_linear_5773_6576)" fill-opacity="0.95" mask="url(#path-1-inside-1_5773_6576)"/>
</g>
<path d="M50.9645 11.0909V22H49.6435V12.4759H49.5795L46.9162 14.2443V12.902L49.6435 11.0909H50.9645ZM54.1019 22V21.0412L57.7028 17.0994C58.1254 16.6378 58.4734 16.2365 58.7468 15.8956C59.0202 15.5511 59.2227 15.228 59.354 14.9261C59.489 14.6207 59.5565 14.3011 59.5565 13.9673C59.5565 13.5838 59.4641 13.2518 59.2795 12.9712C59.0984 12.6907 58.8498 12.4741 58.5337 12.3214C58.2177 12.1687 57.8626 12.0923 57.4684 12.0923C57.0494 12.0923 56.6836 12.1793 56.3711 12.3533C56.0621 12.5238 55.8224 12.7635 55.652 13.0724C55.4851 13.3814 55.4016 13.7436 55.4016 14.1591H54.1445C54.1445 13.5199 54.2919 12.9588 54.5866 12.4759C54.8814 11.9929 55.2827 11.6165 55.7905 11.3466C56.3018 11.0767 56.8754 10.9418 57.511 10.9418C58.1502 10.9418 58.7166 11.0767 59.2102 11.3466C59.7038 11.6165 60.0909 11.9805 60.3714 12.4386C60.652 12.8967 60.7923 13.4062 60.7923 13.9673C60.7923 14.3686 60.7195 14.761 60.5739 15.1445C60.4318 15.5245 60.1832 15.9489 59.8281 16.4176C59.4766 16.8828 58.9883 17.451 58.3633 18.1222L55.913 20.7429V20.8281H60.984V22H54.1019ZM64.1214 22.0852C63.8587 22.0852 63.6332 21.9911 63.445 21.8029C63.2567 21.6147 63.1626 21.3892 63.1626 21.1264C63.1626 20.8636 63.2567 20.6381 63.445 20.4499C63.6332 20.2617 63.8587 20.1676 64.1214 20.1676C64.3842 20.1676 64.6097 20.2617 64.7979 20.4499C64.9862 20.6381 65.0803 20.8636 65.0803 21.1264C65.0803 21.3004 65.0359 21.4602 64.9471 21.6058C64.8619 21.7514 64.7464 21.8686 64.6009 21.9574C64.4588 22.0426 64.299 22.0852 64.1214 22.0852ZM67.0591 19.7628V18.6761L71.8532 11.0909H72.6415V12.7741H72.1088L68.4867 18.5057V18.5909H74.9426V19.7628H67.0591ZM72.1941 22V19.4325V18.9265V11.0909H73.4512V22H72.1941ZM78.132 19.017L78.1107 17.4616H78.3664L81.9459 13.8182H83.5013L79.6874 17.6747H79.5809L78.132 19.017ZM76.9601 22V11.0909H78.2172V22H76.9601ZM82.159 22L78.963 17.9517L79.8579 17.0781L83.757 22H82.159Z" fill="white" fill-opacity="0.7"/>
<path d="M19.0625 17.3474C18.9792 17.1229 18.9792 16.8759 19.0625 16.6514C19.8742 14.6832 21.252 13.0004 23.0213 11.8163C24.7905 10.6321 26.8715 10 29.0005 10C31.1295 10 33.2105 10.6321 34.9797 11.8163C36.749 13.0004 38.1268 14.6832 38.9385 16.6514C39.0218 16.8759 39.0218 17.1229 38.9385 17.3474C38.1268 19.3155 36.749 20.9983 34.9797 22.1825C33.2105 23.3666 31.1295 23.9988 29.0005 23.9988C26.8715 23.9988 24.7905 23.3666 23.0213 22.1825C21.252 20.9983 19.8742 19.3155 19.0625 17.3474Z" stroke="white" stroke-opacity="0.78" stroke-width="2" stroke-linecap="round" stroke-linejoin="round"/>
<path d="M29.0005 19.9994C30.6573 19.9994 32.0005 18.6562 32.0005 16.9994C32.0005 15.3425 30.6573 13.9994 29.0005 13.9994C27.3436 13.9994 26.0005 15.3425 26.0005 16.9994C26.0005 18.6562 27.3436 19.9994 29.0005 19.9994Z" stroke="white" stroke-opacity="0.78" stroke-width="2" stroke-linecap="round" stroke-linejoin="round"/>
<defs>
<filter id="filter0_di_5773_6576" x="0" y="0" width="107" height="41.3" filterUnits="userSpaceOnUse" color-interpolation-filters="sRGB">
<feFlood flood-opacity="0" result="BackgroundImageFix"/>
<feColorMatrix in="SourceAlpha" type="matrix" values="0 0 0 0 0 0 0 0 0 0 0 0 0 0 0 0 0 0 127 0" result="hardAlpha"/>
<feOffset dy="4"/>
<feGaussianBlur stdDeviation="2"/>
<feComposite in2="hardAlpha" operator="out"/>
<feColorMatrix type="matrix" values="0 0 0 0 0 0 0 0 0 0 0 0 0 0 0 0 0 0 0.25 0"/>
<feBlend mode="normal" in2="BackgroundImageFix" result="effect1_dropShadow_5773_6576"/>
<feBlend mode="normal" in="SourceGraphic" in2="effect1_dropShadow_5773_6576" result="shape"/>
<feColorMatrix in="SourceAlpha" type="matrix" values="0 0 0 0 0 0 0 0 0 0 0 0 0 0 0 0 0 0 127 0" result="hardAlpha"/>
<feOffset dy="4"/>
<feGaussianBlur stdDeviation="2"/>
<feComposite in2="hardAlpha" operator="arithmetic" k2="-1" k3="1"/>
<feColorMatrix type="matrix" values="0 0 0 0 0 0 0 0 0 0 0 0 0 0 0 0 0 0 0.25 0"/>
<feBlend mode="normal" in2="shape" result="effect2_innerShadow_5773_6576"/>
</filter>
<linearGradient id="paint0_linear_5773_6576" x1="53.5" y1="0" x2="53.5" y2="33.3" gradientUnits="userSpaceOnUse">
<stop stop-color="#AD699E"/>
<stop offset="1" stop-color="#AD699E" stop-opacity="0.32"/>
</linearGradient>
<linearGradient id="paint1_linear_5773_6576" x1="53.5" y1="0" x2="53.5" y2="33.3" gradientUnits="userSpaceOnUse">
<stop stop-color="#AD699E"/>
<stop offset="1" stop-color="#AD699E" stop-opacity="0.32"/>
</linearGradient>
</defs>
</svg>
