<svg width="140" height="34" viewBox="0 0 140 34" fill="none" xmlns="http://www.w3.org/2000/svg">
<g clip-path="url(#clip0_5827_6748)">
<path fill-rule="evenodd" clip-rule="evenodd" d="M140 11.92C140 18.603 133.434 23.45 128.443 22.736C127.355 25.849 122.869 31.199 119.293 29.768C122.4 26.173 123.104 21.876 122.783 20.388C122.256 17.948 116.456 21.705 116.436 21.714C115.552 19.28 121.382 16.465 123.878 17.472C125.725 18.217 125.491 22.388 123.612 25.81C126.81 23.843 128.17 18.807 128.17 18.807C130.108 19.201 135.941 16.717 135.941 10.736C135.941 6.33299 132.299 2.75599 127.185 2.75599C122.125 2.75599 118.369 6.49399 116.172 10.752C116.012 11.064 114.71 10.424 114.71 9.49999C114.71 6.57299 120.095 1.11799 127.056 0.867986C132.534 0.670986 140 2.99199 140 11.92ZM110.659 12.129C110.843 15.171 116.015 22.539 112.864 24.858C110.462 26.626 106.712 23.704 105.567 21.461C105.567 21.461 105.626 25.014 104.389 25.014C102.633 25.014 101.811 23.763 102.134 22.936C103.237 20.112 104.017 12.976 102.369 12.976C100.573 12.957 99.727 21.844 100.117 24.471C100.172 24.865 100.03 25.332 99.267 25.332C97.497 25.332 96.171 24.472 96.56 23.172C97.03 21.597 98.617 11.718 97.052 11.718C94.704 11.718 94.107 21.184 94.454 24.435C94.451 24.604 94.271 25.28 93.594 25.297C91.331 25.354 90.354 23.92 90.59 23.172C91.615 19.939 91.804 14.954 91.43 14.95C91.074 16.726 89.228 24.766 86.133 24.734C84.328 24.716 83.408 22.695 83.063 21.277C82.843 21.951 81.597 24.814 79.838 24.796C77.694 24.774 77.242 22.138 77.242 22.138C76.795 22.825 75.002 26.02 72.34 25.993C67.214 25.941 66.27 18.486 66.3 15.375C66.398 5.77999 71.153 0.144986 75.18 0.184986C77.374 0.207986 78.725 2.04899 78.366 4.93699C78.112 6.98699 75.472 10.397 73.544 10.049C73.17 9.98199 73.197 9.80799 73.382 9.47199C75.153 7.08799 76.174 2.82099 74.924 2.80799C73.866 2.79799 69.884 7.03399 69.794 15.96C69.776 17.813 70.175 23.445 72.261 23.466C75.184 23.496 77.005 17.692 77.005 17.692C79.233 9.21199 83.638 7.80299 86.213 9.38999C86.727 9.70599 86.666 10.466 86.666 10.466C87.143 10.724 87.481 11.106 87.527 11.67C85.899 14.292 85.262 20.252 86.319 20.451C87.74 20.719 89.996 14.281 90.044 9.45399C90.052 8.72499 91.224 8.26799 91.772 8.27399C93.631 8.29299 94.069 10.354 94.047 12.609C94.272 10.631 95.627 8.28599 97.66 8.30699C99.5 8.32499 100.236 11.027 100.133 13.425C100.133 13.425 100.919 9.24599 103.394 9.27099C105.301 9.29099 105.8 13.589 105.295 17.628C105.288 17.683 105.331 17.844 105.471 17.649C106.444 16.303 107.796 12.194 107.806 11.298C107.891 8.98799 108.899 7.88599 109.942 7.89599C110.974 7.90599 111.366 8.90299 111.154 9.26999C110.858 9.74699 110.605 11.22 110.659 12.129ZM84.22 12.137C81.96 11.249 79.351 17.706 79.64 19.995C79.74 20.78 80.597 20.985 82.045 18.253C83.083 16.296 83.919 13.723 84.22 12.137ZM108.932 14.282C108.816 14.51 107.157 18.608 106.937 19.199C106.724 19.769 109.048 22.464 110.342 21.459C111.867 20.276 108.95 14.247 108.932 14.282ZM63.35 9.99299C61.329 15.215 61.27 23.063 62.466 24.478C62.884 24.982 62.766 25.733 61.912 25.733C59.099 25.733 58.614 20.378 58.614 19.319C58.614 19.319 57.103 24.697 54.989 24.697C52.525 24.697 52.454 18.639 52.551 17.419C52.248 17.508 51.622 17.881 51.348 18.127C51.575 19.271 53.08 26.566 51.994 29.929C51.382 31.825 50.362 34 47.965 34C45.588 34 43.5 31.817 43.5 28.615C43.5 23.752 47.505 18.755 48.495 17.785C48.613 17.67 48.603 17.422 48.561 17.262C48.308 15.549 47.503 13.41 47.436 13.254C47.348 13.47 44.023 24.487 41.794 24.487C40.344 24.487 39.445 23.005 39.347 22.395C39.347 22.395 38.427 25.01 36.865 25.01C35.023 25.01 35.025 23.124 34.985 22.664C35.076 21.131 36.205 13.102 34.037 13.102C31.847 13.102 31.181 17.94 30.553 24.992C30.531 25.23 30.056 25.507 29.82 25.538C28.16 25.758 27.159 24.629 27.046 24.414C28.021 19.238 28.786 12.539 26.856 9.91799C26.806 9.80799 27.299 8.84799 28.328 8.84799C30.43 8.84799 31.119 12.038 31.038 13.078C31.038 13.078 32.058 9.87399 34.313 9.87399C38.858 9.87399 37.645 20.496 38.147 20.496C38.71 20.496 38.717 19.327 38.779 18.956C39.151 14.919 40.912 9.96199 43.625 9.42899C44.162 9.32299 44.931 9.43899 45.195 9.49499C45.46 9.55199 45.651 9.56499 45.695 9.20499C45.736 8.86299 46.147 8.63699 46.517 8.61899C49.032 8.61899 50.485 14.849 50.621 15.362L50.741 15.825C51.544 15.353 52.743 14.992 52.743 14.992C52.878 14.479 54.373 8.76999 58.259 8.76999C58.991 8.76999 59.926 9.09199 59.926 9.09199C60.116 9.14999 60.247 9.11699 60.273 8.90499C60.507 8.30399 62.238 7.89699 63.693 8.74299C64.146 9.07799 63.525 9.54399 63.35 9.99299ZM44.868 11.825C42.321 11.825 40.286 20.668 41.461 20.668C42.849 20.668 44.974 12.672 45.079 12.186C45.135 11.929 45.008 11.825 44.868 11.825ZM49.382 20.783C49.112 21.16 46.586 25.208 46.742 29.279C46.762 29.809 47.016 30.948 47.802 30.948C48.589 30.948 49.385 29.971 49.692 28.018C50.16 25.036 49.499 21.291 49.382 20.783ZM59.409 11.666C55.574 11.37 53.931 19.475 55.178 19.798C56.983 20.262 58.94 14.518 59.409 11.666ZM25.227 10.67C25.509 11.032 27.363 13.167 26.926 17.56C26.571 21.132 24.927 25.782 22.02 25.782C19.293 25.782 17.913 22.08 18.162 18.009C17.892 17.939 17.702 18.125 17.589 18.333C15.341 22.493 10.332 27.482 7.60699 27.482C6.14499 27.482 5.61899 24.822 5.61899 24.598C5.61899 22.946 13.863 17.045 15.62 16.208C15.62 16.208 17.06 14.035 17.06 12.234C17.06 10.671 16.282 10.261 15.806 10.261C13.496 10.261 10.048 13.563 8.31599 17.063C8.12199 17.455 7.78199 17.593 7.34399 17.593C5.82199 17.593 4.88399 15.481 5.12299 15.203C5.59899 14.651 6.17499 14.17 6.54499 13.541C9.75499 8.07499 9.98999 2.33799 8.83499 2.33799C7.02499 2.33799 3.60499 8.26199 3.60499 17.8C3.60499 22.24 4.58999 24.775 5.25799 25.415C5.47799 25.625 5.26499 26.339 4.46799 26.602C2.92899 27.112 0.400992 25.416 0.0679918 20.862C-0.691008 10.405 5.00199 -0.835014 10.07 0.0489858C11.173 0.240986 12.925 2.46899 11.194 8.98899C11.194 8.98899 12.168 8.08299 13.711 7.69499C17.121 6.83499 19.704 8.84199 19.598 11.852C19.598 11.852 20.702 8.56199 22.602 8.56199C24.42 8.56199 25.228 10.67 25.228 10.67H25.227ZM23.729 12.44C22.971 12.44 22.446 13.787 22.423 13.878C23.832 13.878 23.971 15.81 23.753 15.809C22.579 15.806 21.726 16.207 21.569 16.407C20.623 17.419 20.535 22.148 21.308 22.364C22.619 22.729 23.896 19.273 24.306 17.241C24.849 14.547 24.253 12.439 23.728 12.439L23.729 12.44ZM121.807 7.14399C121.069 8.02799 121.426 10.388 121.942 10.801C122.244 10.668 129.144 9.60499 130.382 8.97099C130.956 8.67799 131.264 8.27199 131.429 7.61299C130.577 7.51699 121.959 7.10299 121.807 7.14399ZM123.344 11.721C122.724 12.463 123.024 14.447 123.457 14.794C123.711 14.682 129.509 13.789 130.549 13.256C131.031 13.01 131.291 12.669 131.429 12.114C130.713 12.034 123.472 11.685 123.344 11.721Z" fill="url(#paint0_linear_5827_6748)"/>
</g>
<defs>
<linearGradient id="paint0_linear_5827_6748" x1="-0.000488281" y1="17" x2="140" y2="17" gradientUnits="userSpaceOnUse">
<stop stop-color="#E91E63"/>
<stop offset="1" stop-color="#E91E63" stop-opacity="0.32"/>
</linearGradient>
<clipPath id="clip0_5827_6748">
<rect width="140" height="34" fill="white"/>
</clipPath>
</defs>
</svg>
