<svg width="179" height="58" viewBox="0 0 179 58" fill="none" xmlns="http://www.w3.org/2000/svg">
<mask id="path-1-inside-1_5830_6750" fill="white">
<path d="M33.1992 2.63738C30.3546 2.62233 27.5778 3.74894 25.4154 5.54951C22.5264 7.93599 20.598 11.28 19.4091 14.7747C16.3059 14.051 13.2578 12.591 11.1925 10.1257C9.64788 8.31011 8.82054 5.96299 8.7398 3.60199C7.41988 4.22495 6.1375 4.93703 4.96853 5.8101C4.11433 6.46085 3.29995 7.20647 2.77222 8.15017C2.36033 8.87387 2.18937 9.75623 2.43276 10.5645C2.72412 11.5776 3.49762 12.3685 4.32491 12.9903C5.59451 13.9248 7.0618 14.5571 8.54788 15.0723C11.8512 16.1874 15.3231 16.7328 18.7926 17.013C18.3491 19.0081 18.0882 21.0484 18.1104 23.0933C18.1572 26.3146 18.851 29.6308 20.694 32.3357C22.1075 34.4327 24.3121 35.9924 26.7916 36.5887C28.8932 37.0901 31.1691 37.1805 33.2227 36.4291C35.6461 35.556 37.6329 33.7078 38.8978 31.5078C39.6127 30.2433 40.1347 28.8341 40.1768 27.374C40.2061 26.3643 39.9428 25.2909 39.2138 24.5499C38.3678 23.6907 37.0993 23.393 35.9221 23.4301C35.543 25.5966 34.2173 27.5177 32.544 28.9234C31.4464 29.8115 30.0925 30.5873 28.624 30.4646C27.4655 30.4125 26.2826 29.9644 25.5337 29.0589C24.5519 27.8906 24.305 26.3018 24.3191 24.8277C24.3764 22.1796 25.1931 19.5998 26.3164 17.2145C26.3749 17.028 26.6172 17.0893 26.7635 17.0534C29.6362 16.7999 32.5077 16.1619 35.1042 14.8905C36.8688 14.0093 38.5292 12.8167 39.6643 11.1921C40.5091 9.98438 41.0309 8.4744 40.7606 7.00037C40.5594 5.81582 39.8105 4.77372 38.8311 4.08707C37.2058 2.94999 35.151 2.62349 33.1992 2.63738ZM115.428 2.85298C114.763 2.88048 114.107 3.03106 113.509 3.32865C112.171 3.9794 111.166 5.13153 110.373 6.35545C109.231 8.14675 108.473 10.1488 107.873 12.1728C107.025 12.0142 106.112 12.0744 105.354 12.5098C104.11 13.2011 103.313 14.4424 102.689 15.6721C101.821 17.4715 101.245 19.4029 100.87 21.3575C100.825 20.1174 101.014 18.861 100.753 17.6336C100.528 16.4756 99.924 15.3537 98.9341 14.6659C97.118 13.4014 94.4899 13.6632 92.8037 15.0284C91.9121 15.7347 91.3376 16.8137 91.2768 17.9462C92.4328 17.7331 93.7657 17.5839 94.779 18.3099C95.8239 19.0938 96.038 20.4914 96.0895 21.7049C96.1516 24.8915 95.3828 28.0202 95.2787 31.1987C95.2541 32.2628 95.2259 33.4022 95.7467 34.369C96.1387 35.1113 96.973 35.4899 97.7815 35.5848C99.2828 35.7689 100.792 35.5316 102.282 35.3417C102.082 34.8924 101.787 34.4941 101.582 34.0472C100.937 32.7758 100.631 31.3457 100.675 29.925C100.73 27.0163 101.113 24.0404 102.388 21.3876C103.279 19.5268 104.766 17.8629 106.738 17.1045C105.939 21.7964 105.646 26.5601 105.623 31.3145C105.624 32.3787 105.579 33.5041 106.045 34.4918C106.345 35.1333 107.022 35.5061 107.708 35.6057C108.727 35.762 109.767 35.6649 110.789 35.5595C111.195 35.5328 111.621 35.3614 112.012 35.5548C113.635 36.0492 115.418 35.4333 116.631 34.3205C118.106 32.9935 119.045 31.1882 119.681 29.3425C120.406 27.1506 120.748 24.8001 120.441 22.5016C120.238 21.1109 119.745 19.623 118.551 18.7604C117.45 17.9764 115.981 18.1061 114.744 18.4558C113.135 18.9224 111.871 20.1057 110.895 21.4107C110.953 19.9332 111.074 18.4592 111.208 16.9875C112.966 16.7929 114.715 16.3182 116.246 15.4231C118.08 14.3694 119.577 12.702 120.283 10.7116C120.873 9.06383 120.939 7.17182 120.183 5.56463C119.649 4.4125 118.619 3.49653 117.395 3.11558C116.765 2.92105 116.092 2.82547 115.428 2.85298ZM50.5336 2.85309C50.3746 2.85708 50.216 2.86704 50.0586 2.88281C48.8896 3.01945 47.8248 3.62858 46.9894 4.4287C45.7759 5.5762 44.9287 7.04084 44.2418 8.54151C43.2284 10.7856 42.5827 13.1709 42.0772 15.5713C41.2241 15.4474 40.3804 15.2738 39.5356 15.1059C39.4127 15.437 39.3729 15.8527 39.6655 16.1109C40.2365 16.6598 41.0696 16.7733 41.8196 16.9145C41.0099 21.5126 40.7138 26.1859 40.6729 30.8489C40.6881 32.045 40.5583 33.335 41.1762 34.4189C41.5927 35.1599 42.4515 35.5107 43.2683 35.5975C44.7485 35.7585 46.2335 35.5257 47.7008 35.3393C46.9075 34.2196 46.6781 32.8335 46.4288 31.5181C45.9795 28.7716 45.8778 25.9834 45.893 23.2056C45.9117 22.9937 45.8309 22.74 46.0064 22.5732C46.3575 22.1564 46.8056 21.7766 47.3567 21.6666C48.0506 21.5508 48.8289 21.809 49.2232 22.4065C49.7018 23.1186 49.7941 24.001 49.848 24.8336C49.958 27.9136 49.2911 30.9856 49.6398 34.0634C49.7802 35.2155 50.0868 36.422 50.9023 37.2986C51.9683 38.4137 53.741 38.695 55.1803 38.2341C56.3668 37.8138 57.4551 37.1341 58.4099 36.3259C57.4364 36.209 56.4359 35.8906 55.7479 35.1669C54.8352 34.2405 54.559 32.9007 54.4712 31.6548C54.3367 29.295 54.752 26.9537 54.9322 24.6077C55.0352 23.1742 55.1335 21.7014 54.7509 20.298C54.518 19.4226 53.9506 18.597 53.094 18.223C52.0772 17.7853 50.8812 17.7377 49.8397 18.1245C48.3022 18.6826 46.9812 19.7351 45.9679 20.9949C46.0077 19.6552 46.1176 18.3202 46.2534 16.9874C47.6447 16.8311 49.0242 16.5081 50.3009 15.9315C51.9882 15.1788 53.4883 13.9745 54.4829 12.4206C55.5313 10.796 56.038 8.78128 55.6565 6.87187C55.4225 5.63637 54.745 4.46343 53.6965 3.73509C52.7822 3.09172 51.6467 2.82513 50.5336 2.85309ZM173.165 5.70578C171.005 8.48942 167.755 10.2414 164.383 11.1712C161.501 11.9794 158.504 12.3014 155.519 12.4114C151.375 12.5885 147.244 12.1299 143.113 11.9134C143.171 10.5794 143.568 9.1924 143.092 7.89206C142.813 7.08614 142.014 6.55912 141.177 6.47343C139.74 6.30553 138.321 6.71896 136.962 7.13582C137.756 8.51838 137.849 10.1488 137.995 11.6969C135.932 11.7016 133.845 11.6795 131.816 12.0964C131.047 12.2758 130.237 12.4982 129.656 13.0586C129.236 13.4488 129.125 14.0811 129.311 14.6102C129.595 15.4648 130.222 16.1445 130.815 16.8034C132.811 15.0781 135.542 14.5941 138.1 14.3671C138.113 20.4497 137.486 26.508 137.178 32.5778C137.157 33.4972 137.051 34.4234 137.19 35.3381C136.651 34.8831 136.153 34.3679 135.833 33.7356C135.148 32.4191 135.029 30.9079 134.959 29.4536C134.863 26.6746 135.029 23.8957 134.997 21.1167C135.007 20.6963 134.716 20.3072 134.306 20.1961C133.466 19.9506 132.58 20.1498 131.747 20.3235C131.425 19.3288 130.945 18.2867 130.01 17.7217C129.222 17.2353 128.233 17.3117 127.369 17.5202C125.894 17.8907 124.676 18.9061 123.77 20.0814C122.532 21.6967 121.755 23.6165 121.277 25.5757C120.801 27.5986 120.625 29.7176 120.981 31.774C121.221 33.0489 121.692 34.3771 122.729 35.2317C123.679 36.0272 125.067 36.1059 126.204 35.6983C127.269 35.3023 128.087 34.465 128.757 33.5839C129.352 32.7895 129.858 31.9328 130.297 31.0458C130.361 30.8988 130.466 30.7761 130.595 30.6788C130.757 32.4678 130.85 34.2938 131.452 36.0052C131.768 36.8887 132.305 37.786 133.211 38.175C134.213 38.6139 135.36 38.3731 136.326 37.9539C137.303 37.5533 138.168 36.9431 139.033 36.3526C140.67 36.1801 142.207 35.5361 143.656 34.7916C142.83 32.7525 142.63 30.534 142.48 28.3605C142.232 23.671 142.528 18.9733 142.888 14.2964C148.258 14.4898 153.562 15.4069 158.89 16.0391C162.262 16.4513 165.65 16.7872 169.05 16.8358C170.99 16.8925 173.087 16.6679 174.671 15.4533C175.878 14.5501 176.537 13.0587 176.541 11.5765V11.0068C176.287 8.86237 175.086 6.79075 173.165 5.70578ZM75.0535 6.43499C73.8513 6.44339 72.6713 6.78456 71.5307 7.13816C72.0713 7.99271 72.2608 9.00123 72.4024 9.98431C72.6025 11.4803 72.6564 12.9915 72.6716 14.5002C71.1504 14.704 69.6209 14.8685 68.0857 14.9172C67.3696 16.0774 68.4637 17.769 69.8199 17.637C70.7583 17.6474 71.6969 17.6707 72.6365 17.6625C72.475 22.3626 72.0572 27.0486 71.7939 31.744C71.7448 32.8903 71.6559 34.039 71.7226 35.1865C70.9632 34.5925 70.4342 33.746 70.1429 32.8394C69.745 31.6016 69.6701 30.292 69.6291 29.0021C69.5788 26.3736 69.7028 23.7451 69.6759 21.1167C69.6958 20.6952 69.394 20.306 68.9879 20.1949C68.1466 19.9482 67.2631 20.1544 66.4288 20.3223C66.1129 19.3311 65.6296 18.3017 64.7075 17.7297C63.81 17.1785 62.6785 17.3233 61.7178 17.6174C59.8421 18.238 58.4777 19.8081 57.5392 21.4686C56.334 23.6339 55.6823 26.0794 55.508 28.5389C55.4085 30.2283 55.5174 31.9802 56.1937 33.555C56.6021 34.5022 57.3112 35.3926 58.321 35.7458C59.6222 36.1962 61.127 35.8419 62.1567 34.955C63.5152 33.8098 64.3881 32.2257 65.1779 30.6706C65.2622 30.7505 65.3055 30.8489 65.309 30.9636C65.3874 32.0729 65.4892 33.1833 65.6858 34.2786C65.9164 35.4597 66.2264 36.7127 67.0841 37.6136C67.771 38.343 68.865 38.541 69.8199 38.3337C71.2767 38.0222 72.5382 37.1827 73.7282 36.3351C75.322 36.1499 76.8185 35.5153 78.2308 34.7904C77.3158 32.5139 77.1497 30.0326 77.0175 27.6114C76.8794 24.2951 77.0186 20.9742 77.2152 17.6625C78.2239 17.6614 79.2314 17.6694 80.24 17.6578C80.9398 17.6277 81.7378 17.5016 82.2047 16.9285C82.6294 16.3796 82.537 15.6269 82.3346 15.0108C82.0198 14.1065 81.5166 13.2497 80.8168 12.5828C79.7614 13.0135 78.6592 13.3215 77.544 13.5543C77.6201 12.6152 77.7125 11.6783 77.8014 10.7404C77.9009 9.69362 78.0471 8.56007 77.5276 7.59436C77.1578 6.87877 76.3505 6.50588 75.57 6.45261C75.3974 6.4393 75.2252 6.43378 75.0535 6.43499ZM153.023 17.864C150.975 17.8768 149.057 18.9015 147.627 20.3003C145.722 22.153 144.52 24.7282 144.438 27.3786C144.398 29.3436 144.742 31.3978 145.871 33.056C146.811 34.464 148.332 35.4377 149.977 35.8418C152.02 36.3421 154.229 36.1556 156.163 35.3405C157.028 34.9584 157.89 34.4327 158.389 33.6106C158.801 32.939 158.7 32.0126 158.158 31.4394C157.604 30.828 156.76 30.6034 155.964 30.5038C155.712 31.1372 155.385 31.7544 154.891 32.2361C154.264 32.8811 153.349 33.3083 152.433 33.174C151.615 33.0686 150.927 32.5037 150.52 31.817C149.959 30.8849 149.804 29.7824 149.764 28.716C151.487 29.163 153.354 29.4005 155.078 28.825C156.402 28.3989 157.519 27.44 158.191 26.2404C159.134 24.5603 159.401 22.5351 159.023 20.6581C158.84 19.8742 158.554 19.0172 157.855 18.5378C157.329 18.187 156.676 18.4383 156.175 18.7057C155.221 18.158 154.128 17.8397 153.023 17.864ZM90.8557 18.4712C90.5062 18.4795 90.1576 18.5142 89.814 18.5785C89.4255 18.6676 88.9797 18.7752 88.7434 19.1203C88.5445 19.6518 88.4555 20.2168 88.3467 20.7726C87.8775 23.525 87.7921 26.3273 87.8693 29.1133C87.6668 29.6309 87.289 30.1391 86.7671 30.3811C86.2932 30.5942 85.8239 30.2098 85.6039 29.8173C85.0785 28.9106 84.9486 27.8441 84.8597 26.8205C84.6889 24.2279 85.0972 21.6354 85.6858 19.1158C84.229 18.8795 82.6938 18.6838 81.2557 19.1215C80.6999 19.3137 80.0446 19.6611 79.958 20.3003C79.6397 22.3359 79.4385 24.3912 79.4081 26.4511C79.4034 28.5852 79.5285 30.7655 80.2575 32.793C80.7221 34.0772 81.5611 35.3474 82.8927 35.8662C83.7656 36.1881 84.8597 36.3538 85.6461 35.7377C86.8724 34.8091 87.509 33.3594 88.1058 31.9953C88.3784 33.8017 88.7282 35.6579 89.6865 37.2465C90.1721 38.0443 90.9573 38.7634 91.9391 38.8305C93.7469 38.9208 95.6496 38.2075 96.7671 36.7625C95.8719 36.5216 95.0493 36.0122 94.4841 35.2792C93.4918 34.0182 93.0917 32.4144 92.8776 30.8593C92.5394 28.1347 92.7499 25.3661 93.2344 22.6716C93.4625 21.56 93.6767 20.4241 94.1928 19.4005C93.7645 18.9709 93.1782 18.7556 92.5931 18.634C92.0234 18.5168 91.4382 18.4574 90.8557 18.4712Z"/>
</mask>
<path d="M33.1992 2.63738C30.3546 2.62233 27.5778 3.74894 25.4154 5.54951C22.5264 7.93599 20.598 11.28 19.4091 14.7747C16.3059 14.051 13.2578 12.591 11.1925 10.1257C9.64788 8.31011 8.82054 5.96299 8.7398 3.60199C7.41988 4.22495 6.1375 4.93703 4.96853 5.8101C4.11433 6.46085 3.29995 7.20647 2.77222 8.15017C2.36033 8.87387 2.18937 9.75623 2.43276 10.5645C2.72412 11.5776 3.49762 12.3685 4.32491 12.9903C5.59451 13.9248 7.0618 14.5571 8.54788 15.0723C11.8512 16.1874 15.3231 16.7328 18.7926 17.013C18.3491 19.0081 18.0882 21.0484 18.1104 23.0933C18.1572 26.3146 18.851 29.6308 20.694 32.3357C22.1075 34.4327 24.3121 35.9924 26.7916 36.5887C28.8932 37.0901 31.1691 37.1805 33.2227 36.4291C35.6461 35.556 37.6329 33.7078 38.8978 31.5078C39.6127 30.2433 40.1347 28.8341 40.1768 27.374C40.2061 26.3643 39.9428 25.2909 39.2138 24.5499C38.3678 23.6907 37.0993 23.393 35.9221 23.4301C35.543 25.5966 34.2173 27.5177 32.544 28.9234C31.4464 29.8115 30.0925 30.5873 28.624 30.4646C27.4655 30.4125 26.2826 29.9644 25.5337 29.0589C24.5519 27.8906 24.305 26.3018 24.3191 24.8277C24.3764 22.1796 25.1931 19.5998 26.3164 17.2145C26.3749 17.028 26.6172 17.0893 26.7635 17.0534C29.6362 16.7999 32.5077 16.1619 35.1042 14.8905C36.8688 14.0093 38.5292 12.8167 39.6643 11.1921C40.5091 9.98438 41.0309 8.4744 40.7606 7.00037C40.5594 5.81582 39.8105 4.77372 38.8311 4.08707C37.2058 2.94999 35.151 2.62349 33.1992 2.63738ZM115.428 2.85298C114.763 2.88048 114.107 3.03106 113.509 3.32865C112.171 3.9794 111.166 5.13153 110.373 6.35545C109.231 8.14675 108.473 10.1488 107.873 12.1728C107.025 12.0142 106.112 12.0744 105.354 12.5098C104.11 13.2011 103.313 14.4424 102.689 15.6721C101.821 17.4715 101.245 19.4029 100.87 21.3575C100.825 20.1174 101.014 18.861 100.753 17.6336C100.528 16.4756 99.924 15.3537 98.9341 14.6659C97.118 13.4014 94.4899 13.6632 92.8037 15.0284C91.9121 15.7347 91.3376 16.8137 91.2768 17.9462C92.4328 17.7331 93.7657 17.5839 94.779 18.3099C95.8239 19.0938 96.038 20.4914 96.0895 21.7049C96.1516 24.8915 95.3828 28.0202 95.2787 31.1987C95.2541 32.2628 95.2259 33.4022 95.7467 34.369C96.1387 35.1113 96.973 35.4899 97.7815 35.5848C99.2828 35.7689 100.792 35.5316 102.282 35.3417C102.082 34.8924 101.787 34.4941 101.582 34.0472C100.937 32.7758 100.631 31.3457 100.675 29.925C100.73 27.0163 101.113 24.0404 102.388 21.3876C103.279 19.5268 104.766 17.8629 106.738 17.1045C105.939 21.7964 105.646 26.5601 105.623 31.3145C105.624 32.3787 105.579 33.5041 106.045 34.4918C106.345 35.1333 107.022 35.5061 107.708 35.6057C108.727 35.762 109.767 35.6649 110.789 35.5595C111.195 35.5328 111.621 35.3614 112.012 35.5548C113.635 36.0492 115.418 35.4333 116.631 34.3205C118.106 32.9935 119.045 31.1882 119.681 29.3425C120.406 27.1506 120.748 24.8001 120.441 22.5016C120.238 21.1109 119.745 19.623 118.551 18.7604C117.45 17.9764 115.981 18.1061 114.744 18.4558C113.135 18.9224 111.871 20.1057 110.895 21.4107C110.953 19.9332 111.074 18.4592 111.208 16.9875C112.966 16.7929 114.715 16.3182 116.246 15.4231C118.08 14.3694 119.577 12.702 120.283 10.7116C120.873 9.06383 120.939 7.17182 120.183 5.56463C119.649 4.4125 118.619 3.49653 117.395 3.11558C116.765 2.92105 116.092 2.82547 115.428 2.85298ZM50.5336 2.85309C50.3746 2.85708 50.216 2.86704 50.0586 2.88281C48.8896 3.01945 47.8248 3.62858 46.9894 4.4287C45.7759 5.5762 44.9287 7.04084 44.2418 8.54151C43.2284 10.7856 42.5827 13.1709 42.0772 15.5713C41.2241 15.4474 40.3804 15.2738 39.5356 15.1059C39.4127 15.437 39.3729 15.8527 39.6655 16.1109C40.2365 16.6598 41.0696 16.7733 41.8196 16.9145C41.0099 21.5126 40.7138 26.1859 40.6729 30.8489C40.6881 32.045 40.5583 33.335 41.1762 34.4189C41.5927 35.1599 42.4515 35.5107 43.2683 35.5975C44.7485 35.7585 46.2335 35.5257 47.7008 35.3393C46.9075 34.2196 46.6781 32.8335 46.4288 31.5181C45.9795 28.7716 45.8778 25.9834 45.893 23.2056C45.9117 22.9937 45.8309 22.74 46.0064 22.5732C46.3575 22.1564 46.8056 21.7766 47.3567 21.6666C48.0506 21.5508 48.8289 21.809 49.2232 22.4065C49.7018 23.1186 49.7941 24.001 49.848 24.8336C49.958 27.9136 49.2911 30.9856 49.6398 34.0634C49.7802 35.2155 50.0868 36.422 50.9023 37.2986C51.9683 38.4137 53.741 38.695 55.1803 38.2341C56.3668 37.8138 57.4551 37.1341 58.4099 36.3259C57.4364 36.209 56.4359 35.8906 55.7479 35.1669C54.8352 34.2405 54.559 32.9007 54.4712 31.6548C54.3367 29.295 54.752 26.9537 54.9322 24.6077C55.0352 23.1742 55.1335 21.7014 54.7509 20.298C54.518 19.4226 53.9506 18.597 53.094 18.223C52.0772 17.7853 50.8812 17.7377 49.8397 18.1245C48.3022 18.6826 46.9812 19.7351 45.9679 20.9949C46.0077 19.6552 46.1176 18.3202 46.2534 16.9874C47.6447 16.8311 49.0242 16.5081 50.3009 15.9315C51.9882 15.1788 53.4883 13.9745 54.4829 12.4206C55.5313 10.796 56.038 8.78128 55.6565 6.87187C55.4225 5.63637 54.745 4.46343 53.6965 3.73509C52.7822 3.09172 51.6467 2.82513 50.5336 2.85309ZM173.165 5.70578C171.005 8.48942 167.755 10.2414 164.383 11.1712C161.501 11.9794 158.504 12.3014 155.519 12.4114C151.375 12.5885 147.244 12.1299 143.113 11.9134C143.171 10.5794 143.568 9.1924 143.092 7.89206C142.813 7.08614 142.014 6.55912 141.177 6.47343C139.74 6.30553 138.321 6.71896 136.962 7.13582C137.756 8.51838 137.849 10.1488 137.995 11.6969C135.932 11.7016 133.845 11.6795 131.816 12.0964C131.047 12.2758 130.237 12.4982 129.656 13.0586C129.236 13.4488 129.125 14.0811 129.311 14.6102C129.595 15.4648 130.222 16.1445 130.815 16.8034C132.811 15.0781 135.542 14.5941 138.1 14.3671C138.113 20.4497 137.486 26.508 137.178 32.5778C137.157 33.4972 137.051 34.4234 137.19 35.3381C136.651 34.8831 136.153 34.3679 135.833 33.7356C135.148 32.4191 135.029 30.9079 134.959 29.4536C134.863 26.6746 135.029 23.8957 134.997 21.1167C135.007 20.6963 134.716 20.3072 134.306 20.1961C133.466 19.9506 132.58 20.1498 131.747 20.3235C131.425 19.3288 130.945 18.2867 130.01 17.7217C129.222 17.2353 128.233 17.3117 127.369 17.5202C125.894 17.8907 124.676 18.9061 123.77 20.0814C122.532 21.6967 121.755 23.6165 121.277 25.5757C120.801 27.5986 120.625 29.7176 120.981 31.774C121.221 33.0489 121.692 34.3771 122.729 35.2317C123.679 36.0272 125.067 36.1059 126.204 35.6983C127.269 35.3023 128.087 34.465 128.757 33.5839C129.352 32.7895 129.858 31.9328 130.297 31.0458C130.361 30.8988 130.466 30.7761 130.595 30.6788C130.757 32.4678 130.85 34.2938 131.452 36.0052C131.768 36.8887 132.305 37.786 133.211 38.175C134.213 38.6139 135.36 38.3731 136.326 37.9539C137.303 37.5533 138.168 36.9431 139.033 36.3526C140.67 36.1801 142.207 35.5361 143.656 34.7916C142.83 32.7525 142.63 30.534 142.48 28.3605C142.232 23.671 142.528 18.9733 142.888 14.2964C148.258 14.4898 153.562 15.4069 158.89 16.0391C162.262 16.4513 165.65 16.7872 169.05 16.8358C170.99 16.8925 173.087 16.6679 174.671 15.4533C175.878 14.5501 176.537 13.0587 176.541 11.5765V11.0068C176.287 8.86237 175.086 6.79075 173.165 5.70578ZM75.0535 6.43499C73.8513 6.44339 72.6713 6.78456 71.5307 7.13816C72.0713 7.99271 72.2608 9.00123 72.4024 9.98431C72.6025 11.4803 72.6564 12.9915 72.6716 14.5002C71.1504 14.704 69.6209 14.8685 68.0857 14.9172C67.3696 16.0774 68.4637 17.769 69.8199 17.637C70.7583 17.6474 71.6969 17.6707 72.6365 17.6625C72.475 22.3626 72.0572 27.0486 71.7939 31.744C71.7448 32.8903 71.6559 34.039 71.7226 35.1865C70.9632 34.5925 70.4342 33.746 70.1429 32.8394C69.745 31.6016 69.6701 30.292 69.6291 29.0021C69.5788 26.3736 69.7028 23.7451 69.6759 21.1167C69.6958 20.6952 69.394 20.306 68.9879 20.1949C68.1466 19.9482 67.2631 20.1544 66.4288 20.3223C66.1129 19.3311 65.6296 18.3017 64.7075 17.7297C63.81 17.1785 62.6785 17.3233 61.7178 17.6174C59.8421 18.238 58.4777 19.8081 57.5392 21.4686C56.334 23.6339 55.6823 26.0794 55.508 28.5389C55.4085 30.2283 55.5174 31.9802 56.1937 33.555C56.6021 34.5022 57.3112 35.3926 58.321 35.7458C59.6222 36.1962 61.127 35.8419 62.1567 34.955C63.5152 33.8098 64.3881 32.2257 65.1779 30.6706C65.2622 30.7505 65.3055 30.8489 65.309 30.9636C65.3874 32.0729 65.4892 33.1833 65.6858 34.2786C65.9164 35.4597 66.2264 36.7127 67.0841 37.6136C67.771 38.343 68.865 38.541 69.8199 38.3337C71.2767 38.0222 72.5382 37.1827 73.7282 36.3351C75.322 36.1499 76.8185 35.5153 78.2308 34.7904C77.3158 32.5139 77.1497 30.0326 77.0175 27.6114C76.8794 24.2951 77.0186 20.9742 77.2152 17.6625C78.2239 17.6614 79.2314 17.6694 80.24 17.6578C80.9398 17.6277 81.7378 17.5016 82.2047 16.9285C82.6294 16.3796 82.537 15.6269 82.3346 15.0108C82.0198 14.1065 81.5166 13.2497 80.8168 12.5828C79.7614 13.0135 78.6592 13.3215 77.544 13.5543C77.6201 12.6152 77.7125 11.6783 77.8014 10.7404C77.9009 9.69362 78.0471 8.56007 77.5276 7.59436C77.1578 6.87877 76.3505 6.50588 75.57 6.45261C75.3974 6.4393 75.2252 6.43378 75.0535 6.43499ZM153.023 17.864C150.975 17.8768 149.057 18.9015 147.627 20.3003C145.722 22.153 144.52 24.7282 144.438 27.3786C144.398 29.3436 144.742 31.3978 145.871 33.056C146.811 34.464 148.332 35.4377 149.977 35.8418C152.02 36.3421 154.229 36.1556 156.163 35.3405C157.028 34.9584 157.89 34.4327 158.389 33.6106C158.801 32.939 158.7 32.0126 158.158 31.4394C157.604 30.828 156.76 30.6034 155.964 30.5038C155.712 31.1372 155.385 31.7544 154.891 32.2361C154.264 32.8811 153.349 33.3083 152.433 33.174C151.615 33.0686 150.927 32.5037 150.52 31.817C149.959 30.8849 149.804 29.7824 149.764 28.716C151.487 29.163 153.354 29.4005 155.078 28.825C156.402 28.3989 157.519 27.44 158.191 26.2404C159.134 24.5603 159.401 22.5351 159.023 20.6581C158.84 19.8742 158.554 19.0172 157.855 18.5378C157.329 18.187 156.676 18.4383 156.175 18.7057C155.221 18.158 154.128 17.8397 153.023 17.864ZM90.8557 18.4712C90.5062 18.4795 90.1576 18.5142 89.814 18.5785C89.4255 18.6676 88.9797 18.7752 88.7434 19.1203C88.5445 19.6518 88.4555 20.2168 88.3467 20.7726C87.8775 23.525 87.7921 26.3273 87.8693 29.1133C87.6668 29.6309 87.289 30.1391 86.7671 30.3811C86.2932 30.5942 85.8239 30.2098 85.6039 29.8173C85.0785 28.9106 84.9486 27.8441 84.8597 26.8205C84.6889 24.2279 85.0972 21.6354 85.6858 19.1158C84.229 18.8795 82.6938 18.6838 81.2557 19.1215C80.6999 19.3137 80.0446 19.6611 79.958 20.3003C79.6397 22.3359 79.4385 24.3912 79.4081 26.4511C79.4034 28.5852 79.5285 30.7655 80.2575 32.793C80.7221 34.0772 81.5611 35.3474 82.8927 35.8662C83.7656 36.1881 84.8597 36.3538 85.6461 35.7377C86.8724 34.8091 87.509 33.3594 88.1058 31.9953C88.3784 33.8017 88.7282 35.6579 89.6865 37.2465C90.1721 38.0443 90.9573 38.7634 91.9391 38.8305C93.7469 38.9208 95.6496 38.2075 96.7671 36.7625C95.8719 36.5216 95.0493 36.0122 94.4841 35.2792C93.4918 34.0182 93.0917 32.4144 92.8776 30.8593C92.5394 28.1347 92.7499 25.3661 93.2344 22.6716C93.4625 21.56 93.6767 20.4241 94.1928 19.4005C93.7645 18.9709 93.1782 18.7556 92.5931 18.634C92.0234 18.5168 91.4382 18.4574 90.8557 18.4712Z" fill="url(#paint0_linear_5830_6750)" fill-opacity="0.55" stroke="black" stroke-opacity="0.55" stroke-width="0.131799" mask="url(#path-1-inside-1_5830_6750)"/>
<g filter="url(#filter0_d_5830_6750)">
<path d="M23.3184 48.9784C20.0858 48.0955 18.7054 47.4577 17.5878 46.3305C15.1649 43.8869 19.4308 41.0934 27.5879 39.7819C38.4938 38.0284 48.8092 38.1906 91.8736 40.7928C102.711 41.4477 109.028 41.642 119.48 41.642C135.789 41.642 140.39 41.1751 146.712 38.8788L148.626 38.1837L151.211 38.8609C155.005 39.8546 157.22 40.8622 158.47 42.1625C159.777 43.5218 159.754 44.2379 158.371 45.2661C156.304 46.8023 154.369 46.944 135.651 46.9303C118.666 46.9177 117.634 46.8788 101.852 45.6551C78.1624 43.8184 74.4859 43.618 64.0223 43.5928C54.3802 43.5697 51.3433 43.8043 44.4873 45.1023C40.2373 45.9069 33.0271 47.9081 30.3024 49.0393C27.9081 50.0333 27.1567 50.0268 23.3184 48.9784Z" fill="#FFCC79"/>
<path d="M23.3184 48.9784C20.0858 48.0955 18.7054 47.4577 17.5878 46.3305C15.1649 43.8869 19.4308 41.0934 27.5879 39.7819C38.4938 38.0284 48.8092 38.1906 91.8736 40.7928C102.711 41.4477 109.028 41.642 119.48 41.642C135.789 41.642 140.39 41.1751 146.712 38.8788L148.626 38.1837L151.211 38.8609C155.005 39.8546 157.22 40.8622 158.47 42.1625C159.777 43.5218 159.754 44.2379 158.371 45.2661C156.304 46.8023 154.369 46.944 135.651 46.9303C118.666 46.9177 117.634 46.8788 101.852 45.6551C78.1624 43.8184 74.4859 43.618 64.0223 43.5928C54.3802 43.5697 51.3433 43.8043 44.4873 45.1023C40.2373 45.9069 33.0271 47.9081 30.3024 49.0393C27.9081 50.0333 27.1567 50.0268 23.3184 48.9784Z" stroke="black" stroke-opacity="0.55"/>
</g>
<mask id="path-3-inside-2_5830_6750" fill="white">
<path d="M28.0817 51.3905C22.5824 50.474 20.016 49.7832 17.9514 48.6635C14.8225 46.9666 14.191 44.049 16.4446 41.7025C17.7935 40.2981 20.7878 39.0142 24.6522 38.1834C25.198 38.066 25.1861 38.0534 24.0034 37.5032C20.0234 35.6517 17.6087 32.6571 16.2656 27.9074C15.818 26.3247 15.7786 25.9006 15.7668 22.5433L15.754 18.8978L14.7345 18.7778C13.0547 18.5801 9.80547 17.8502 7.99692 17.2642C4.22484 16.042 1.62233 14.2806 0.434387 12.1457C0.0764102 11.5024 0.00272466 11.1016 7.81909e-05 9.78334C-0.00265833 8.40816 0.0645379 8.06466 0.502306 7.21643C1.09296 6.07199 2.68498 4.48145 4.2606 3.46165C4.87235 3.0657 6.64503 2.12485 8.19988 1.37088L11.0269 0L11.0283 1.80462C11.0301 4.15764 11.2933 5.65669 11.9336 6.96089C12.8351 8.79693 14.8241 10.5506 17.022 11.4471L17.8548 11.7868L18.602 10.3854C20.7643 6.33016 23.5996 3.49065 27.0621 1.91275C28.9204 1.06586 30.3302 0.710787 32.3627 0.577779C37.0677 0.269859 41.2141 2.09823 42.4859 5.04172C42.6692 5.46589 42.8609 5.81264 42.9119 5.81225C42.9628 5.81112 43.1942 5.49558 43.4259 5.10943C44.1812 3.85082 46.0151 2.15444 47.2412 1.58034C50.9751 -0.168069 55.4685 1.15253 57.2417 4.51943C57.9401 5.84553 58.1724 7.07358 58.0667 8.87927C57.9251 11.2962 56.8235 13.7064 55.0791 15.4157L54.4291 16.0527L55.3378 16.8615C55.8375 17.3064 56.2985 17.8265 56.3622 18.0173C56.4639 18.3223 56.6202 18.2342 57.6546 17.289C59.1953 15.8812 60.8337 15.1369 62.6343 15.027C63.3595 14.9827 64.2703 15.0299 64.6582 15.1318C65.1851 15.2702 65.3791 15.2642 65.4253 15.1081C65.635 14.399 66.1266 13.2353 66.3263 12.9755C66.5098 12.7367 66.9529 12.648 68.3616 12.568L70.1624 12.4658L70.1551 11.9184C70.151 11.6173 70.0435 10.8153 69.9162 10.1361C69.7143 9.05949 69.549 8.73518 68.6259 7.60417C68.0436 6.89074 67.5671 6.25273 67.5671 6.18639C67.5671 6.12004 68.7142 5.71952 70.1161 5.29631C72.2765 4.64418 72.9618 4.51526 74.6115 4.45066C76.4633 4.37814 76.6075 4.39874 77.5763 4.87386C79.2925 5.71553 80.1555 7.1479 80.258 9.32457C80.2993 10.2019 80.3401 10.2808 80.7748 10.3249C82.658 10.516 84.7868 13.375 84.8376 15.7813L84.8532 16.5219L86.0408 16.7302C87.0643 16.9096 87.3513 16.8969 88.118 16.6377C88.9192 16.367 89.0685 16.2255 89.6184 15.2162C91.5553 11.6614 96.6642 10.5257 100.278 12.8466C100.77 13.1625 101.227 13.3566 101.295 13.278C101.362 13.1994 101.731 12.7583 102.115 12.2979C102.975 11.2653 104.153 10.4769 105.253 10.1969C106.078 9.98689 106.094 9.9688 106.658 8.56092C109.207 2.19921 114.113 -0.527707 119.029 1.68508C124.072 3.95524 124.503 11.1464 119.872 15.7478C119.223 16.3918 119.211 16.4285 119.566 16.6152C120.044 16.8668 121.207 17.973 121.466 18.4239C121.654 18.7504 121.721 18.716 122.469 17.9074C123.376 16.9272 125.122 15.7879 126.179 15.4865L126.888 15.2842V14.2652C126.888 13.0099 127.11 12.4238 127.873 11.6646C128.975 10.5671 130.864 9.92759 133.515 9.75412C134.631 9.68116 135.23 9.56999 135.23 9.4362C135.23 9.32303 134.719 8.57804 134.094 7.78067C133.468 6.9833 132.989 6.30308 133.028 6.26907C133.066 6.23506 134.183 5.87138 135.508 5.4609C137.479 4.85054 138.256 4.69863 139.772 4.62705C142.056 4.51922 142.895 4.71939 143.984 5.63139C144.94 6.43216 145.511 7.55899 145.692 9.00342L145.815 9.98754L148.726 10.1944C156.427 10.7417 162.297 10.0784 166.744 8.15815C168.456 7.41909 170.357 5.86949 171.845 4.00085L172.517 3.15764L173.651 3.73624C175.372 4.61394 177.168 6.37289 177.952 7.94813C180.045 12.1534 178.66 16.5227 174.642 18.3952C172.421 19.4298 169.379 19.6 163.149 19.0382C162.04 18.9383 161.107 18.8818 161.074 18.9128C161.042 18.9438 161.146 19.3951 161.307 19.9158C161.525 20.6252 161.576 21.3531 161.509 22.82C161.405 25.0929 160.927 26.5622 159.808 28.0445C159.12 28.9553 159.119 28.9613 159.505 29.2187C159.718 29.3609 160.141 29.8885 160.444 30.391C160.897 31.1428 160.994 31.5055 160.996 32.4396C161 34.842 159.693 36.1665 155.807 37.6986L155.344 37.8814L155.9 38.0885C158.417 39.0259 160.582 40.5757 161.208 41.888C161.615 42.7388 161.659 44.3957 161.297 45.2194C160.477 47.0862 157.773 48.2246 153.119 48.6616C148.793 49.0678 141.165 49.2535 133.006 49.1512C123.907 49.0371 118.211 48.7564 100.194 47.5339C80.0706 46.1685 70.7269 45.7787 61.2086 45.9076C56.0816 45.9771 53.7762 46.0826 51.4393 46.3551C44.2274 47.1959 38.5047 48.3991 32.7161 50.2915C29.3156 51.4032 28.8377 51.5165 28.0817 51.3905ZM30.5025 48.4884C36.921 46.2539 45.088 44.5686 53.1077 43.8234C61.1868 43.0727 74.9446 43.4334 97.135 44.9776C106.193 45.608 116.131 46.2224 122.995 46.5764C127.8 46.8242 149.545 46.7002 152.192 46.4099C154.97 46.1053 156.874 45.7093 157.868 45.2297C158.83 44.7659 159.144 44.379 159.144 43.6556C159.144 41.8111 156.045 40.1944 150.322 39.0527C148.084 38.6064 147.984 38.6011 147.228 38.8896C144.052 40.1003 140.481 40.8085 134.581 41.3976C131.889 41.6664 129.73 41.7101 119.751 41.698C113.266 41.6901 106.3 41.5902 104.087 41.4733C101.895 41.3574 97.807 41.1463 95.0031 41.0042C92.1993 40.862 86.2347 40.5465 81.7486 40.3029C77.2624 40.0594 71.715 39.78 69.421 39.6821C67.1269 39.5842 63.6233 39.4241 61.6351 39.3264C55.3406 39.0171 41.1404 38.9072 37.2579 39.1378C29.4437 39.6019 24.3517 40.3854 21.1019 41.6236C17.746 42.9024 16.747 44.3422 18.1735 45.8446C19.1784 46.9031 21.6421 47.7994 25.7644 48.6062C28.4493 49.1317 28.6701 49.1262 30.5025 48.4884ZM127.865 39.3919L130.94 39.2765L130.309 38.4901C129.962 38.0576 129.576 37.4348 129.451 37.1061C129.188 36.4141 129.061 36.3828 128.431 36.8541C127.659 37.4325 126.028 37.9197 124.865 37.9197C122.861 37.9197 121.251 37.1096 120.104 35.5244L119.417 34.5751L118.448 35.4709C117.915 35.9635 117.145 36.5563 116.737 36.7881C115.648 37.4059 113.669 37.7997 112.429 37.6452C111.868 37.5754 110.527 37.5349 109.45 37.5553C107.893 37.5847 107.26 37.5184 106.367 37.2319L105.242 36.8714L102.764 37.2184C101.401 37.4091 99.9527 37.5714 99.5449 37.5788C98.9419 37.5898 98.7091 37.7005 98.2987 38.1716L97.794 38.7508L99.1879 38.8629C99.9545 38.9246 103.226 39.0578 106.459 39.159C109.691 39.2603 112.711 39.3657 113.17 39.3934C114.971 39.502 124.957 39.501 127.865 39.3921L127.865 39.3919ZM87.463 37.7874C87.2876 37.5206 87.1278 37.2777 87.1079 37.2477C87.0879 37.2177 86.7511 37.3566 86.3593 37.5564C85.9676 37.7562 85.479 37.931 85.2735 37.9447C84.7759 37.9781 86.196 38.2157 87.0825 38.2475L87.7819 38.2725L87.463 37.7874ZM94.301 37.9233C95.2237 37.5945 96.6715 36.6365 96.6715 36.3547C96.6715 36.2842 96.383 36.1272 96.0303 36.0059C94.6369 35.5264 93.4291 33.6375 92.9575 31.1997C92.4534 28.5943 92.8428 23.2432 93.737 20.4882C94.0014 19.6737 94.0452 19.3097 93.8989 19.142C93.3861 18.554 90.1668 18.2281 89.2887 18.6752C89.0717 18.7858 88.8071 19.0309 88.7008 19.2201C88.3537 19.8372 87.9623 22.9497 87.8357 26.0995C87.7126 29.1638 87.7081 29.1888 87.2007 29.6717C86.9196 29.9391 86.596 30.1579 86.4816 30.1579C86.088 30.1579 85.3889 29.3152 85.1446 28.5465C84.7667 27.3567 84.8658 22.5232 85.3076 20.5936L85.6599 19.0555L84.8495 18.9399C84.4038 18.8763 83.3742 18.8609 82.5614 18.9057C80.9156 18.9963 80.1968 19.3421 79.969 20.1527C79.4737 21.9147 79.2665 27.8237 79.6243 29.9815C80.2246 33.6026 81.9075 35.6264 84.318 35.6264C84.9961 35.6264 85.2579 35.5171 85.9015 34.9649C86.3256 34.6011 86.9863 33.7304 87.3698 33.03L88.067 31.7566L88.4005 33.3263C88.821 35.306 89.8459 37.3137 90.7205 37.8711C91.5265 38.3847 92.9477 38.4055 94.301 37.9233ZM137.07 37.1931C137.638 36.8909 138.235 36.5342 138.395 36.4004C138.556 36.2666 139.307 36.0046 140.064 35.8183C141.476 35.4707 143.574 34.6359 143.57 34.4228C143.569 34.3571 143.439 33.9065 143.282 33.4214C142.724 31.7041 142.467 28.9367 142.463 24.606C142.461 21.1346 142.748 14.6764 142.913 14.5019C143.081 14.3237 148.795 14.9386 158.124 16.1391C163.674 16.8532 169.486 17.2008 171.3 16.927C174.483 16.4467 176.308 14.8026 176.526 12.2191C176.693 10.2434 175.555 7.81112 173.904 6.61264L173.256 6.14183L172.085 7.27663C167.546 11.6791 159.682 13.3435 147.743 12.4282C145.908 12.2875 144.124 12.1707 143.78 12.1686L143.154 12.1649L143.283 10.5868C143.395 9.22541 143.363 8.90052 143.047 8.22045C142.663 7.3947 142.239 7.08392 141.189 6.85861C140.548 6.72112 138.84 6.91121 137.613 7.25658L136.937 7.44678L137.221 8.08589C137.504 8.72578 138.036 11.6296 137.906 11.8306C137.868 11.8894 136.562 11.9822 135.004 12.0369C131.274 12.1679 129.733 12.6418 129.314 13.7862C129.081 14.4197 129.461 15.4048 130.303 16.3526L130.811 16.9241L131.398 16.5051C131.722 16.2746 132.32 15.9279 132.728 15.7346C133.687 15.28 136.389 14.6345 137.334 14.6345H138.069L137.95 18.6477C137.885 20.8549 137.71 24.2882 137.561 26.2771C137.412 28.2661 137.231 31.039 137.159 32.4391L137.028 34.9849L136.583 34.4678C135.155 32.812 134.969 31.8101 134.96 25.713C134.954 21.787 134.898 20.5991 134.71 20.4209C134.551 20.2701 134.006 20.1983 133.123 20.2119L131.778 20.2327L131.233 19.2442C130.465 17.8506 129.714 17.4059 128.278 17.4954C126.799 17.5875 125.912 18.0181 124.549 19.3057C120.414 23.2104 119.449 32.6491 122.945 34.9874C123.604 35.4279 123.892 35.5056 124.839 35.4971C126.771 35.4798 128.19 34.392 129.731 31.7456L130.501 30.4226L130.644 31.5692C131.059 34.8981 131.696 36.7502 132.663 37.4371C133.738 38.2011 135.34 38.1125 137.07 37.1931ZM126.552 31.3547C125.981 30.8115 126.488 26.9986 127.435 24.7116C127.875 23.6499 129.027 21.867 129.274 21.867C129.916 21.867 130.064 26.2999 129.482 28.0934C128.836 30.0837 127.167 31.9406 126.552 31.3547ZM143.321 37.6536C144.254 37.4103 145.329 37.0871 145.711 36.9353C146.36 36.6773 146.385 36.64 146.095 36.3642C145.806 36.0885 145.706 36.1085 144.566 36.6707C143.896 37.0015 142.835 37.4534 142.208 37.6749C140.693 38.2108 141.224 38.2007 143.321 37.6536ZM71.0831 37.3415C71.5453 37.15 72.3026 36.7373 72.7658 36.4245C73.2291 36.1117 73.9381 35.7978 74.3415 35.727C75.1078 35.5924 77.7526 34.6424 77.9964 34.4142C78.0739 34.3417 78.0124 33.8903 77.8598 33.4109C77.2208 31.4035 76.988 28.9345 76.9915 24.2036C76.9935 21.6564 77.0514 19.1428 77.1203 18.6179L77.2456 17.6635L79.2524 17.6043C80.941 17.5545 81.3422 17.4863 81.782 17.1745C82.5453 16.6334 82.5978 15.4574 81.9159 14.1749C81.1238 12.685 80.9813 12.6111 79.6847 13.0162C79.0865 13.2031 78.3597 13.409 78.0695 13.4737L77.5418 13.5913L77.6987 11.8637C77.9282 9.33798 77.8613 8.38872 77.4043 7.6851C76.7451 6.67018 75.2335 6.43708 72.7696 6.97036L71.5033 7.24443L71.8423 8.09327C72.2873 9.2079 72.6068 11.5695 72.5362 13.2232L72.4797 14.5462L70.4405 14.7502C69.319 14.8624 68.3062 14.9616 68.1898 14.9707C67.8188 14.9997 67.7263 15.8515 68.0283 16.4571C68.4834 17.3697 69.1448 17.6333 70.9789 17.6333H72.5724L72.5773 18.2066C72.58 18.5219 72.354 22.3433 72.0749 26.6985L71.5676 34.6171L70.981 33.9715C69.8793 32.7586 69.7144 31.7716 69.6084 25.7528L69.5136 20.3774L69.0502 20.1458C68.7366 19.9892 68.2253 19.948 67.4691 20.0185L66.3515 20.1227L66.1087 19.4837C65.5396 17.986 64.1734 17.1432 62.6393 17.3433C59.8195 17.7111 57.232 20.6605 56.0397 24.8658C55.4719 26.8688 55.4192 31.1363 55.9447 32.5695C57.0538 35.5944 60.1464 36.3001 62.4945 34.064C63.3275 33.2707 64.9719 30.9107 64.9719 30.5084C64.9719 30.4127 65.0553 30.3343 65.1572 30.3343C65.2592 30.3343 65.3433 30.6717 65.344 31.0841C65.3482 33.3132 66.091 35.9198 66.9983 36.8891C68.0112 37.9712 69.2359 38.1068 71.0831 37.3415ZM61.0561 30.9076C60.6029 29.8027 61.3695 25.9476 62.4912 23.6914C63.019 22.6296 63.8161 21.6442 64.0405 21.7761C64.356 21.9617 64.6501 24.2466 64.5491 25.728C64.3931 28.0166 63.3248 30.3473 62.0746 31.1269C61.4728 31.5021 61.2833 31.4613 61.0561 30.9076ZM82.3866 37.7524C81.7064 37.556 81.0949 37.2283 80.4019 36.6888L79.7968 36.2178L78.2343 36.9364L76.6719 37.6551L78.1907 37.7545C80.5755 37.9107 82.9305 37.9095 82.3866 37.7524ZM56.0327 37.2282C56.616 36.9449 57.3575 36.5246 57.6803 36.2942L58.2673 35.8752L57.3096 35.5533C56.1722 35.1711 55.1444 34.2191 54.8078 33.2359C54.3822 31.9929 54.3415 29.7874 54.6811 26.3639C55.0809 22.3329 55.0103 20.6549 54.3912 19.4661C53.168 17.1177 49.771 17.2495 46.9674 19.7543C46.4317 20.2329 45.9717 20.6037 45.9451 20.5785C45.8444 20.4826 46.1225 17.2984 46.2486 17.1043C46.3213 16.9924 47.0393 16.7605 47.8441 16.589C52.5269 15.5914 55.703 12.2399 55.703 8.2961C55.703 6.20064 54.9604 4.81463 53.2659 3.74754C52.6515 3.36068 52.257 3.26667 50.9803 3.20289C49.6321 3.13556 49.3252 3.17862 48.55 3.54392C46.014 4.73899 43.9874 8.08886 42.5342 13.4878C42.0973 15.1111 41.9567 15.4217 41.6741 15.3884C41.4882 15.3665 40.8982 15.296 40.363 15.2318C39.4749 15.1253 39.3897 15.1457 39.3897 15.4648C39.3897 15.9617 39.9049 16.3422 40.9313 16.6034C41.6806 16.7941 41.8048 16.8853 41.7269 17.1873C41.2332 19.1014 40.6878 25.7514 40.6922 29.8051C40.6973 34.5238 41.0653 35.0156 44.5803 35.0008C45.6509 34.9962 46.7513 34.9364 47.0258 34.8677L47.5248 34.7429L47.1794 33.9939C46.4219 32.3511 45.878 28.4508 45.878 24.6623C45.878 22.4145 45.8856 22.3726 46.3733 21.9425C47.0509 21.345 47.6494 21.2351 48.3917 21.5719C49.6405 22.1386 49.685 22.3811 49.6218 28.2758C49.5599 34.0559 49.6581 34.9336 50.5105 36.2126C51.2404 37.3078 52.1197 37.7256 53.7155 37.7355C54.7483 37.7419 55.1609 37.6516 56.0327 37.2282ZM46.5161 14.2138C46.7405 12.5046 47.5178 9.52166 47.9998 8.51981C48.387 7.71498 48.5354 7.56228 48.8845 7.60961C49.7995 7.73368 50.2425 10.0791 49.6916 11.8824C49.3344 13.0516 48.2607 14.2841 47.1143 14.8406L46.3875 15.1935L46.5161 14.2138ZM64.0123 36.7436C63.9246 36.3136 63.6424 36.2952 63.1181 36.6851L62.6547 37.0298L63.3634 37.0337C63.9266 37.0368 64.0599 36.9773 64.0123 36.7436ZM39.0653 36.6873L40.502 36.6848L39.7605 35.9792C39.3527 35.5911 39.019 35.1916 39.019 35.0914C39.019 34.8787 36.8263 36.5225 36.8073 36.7495C36.8002 36.8335 36.9821 36.8545 37.2115 36.796C37.4409 36.7375 38.2751 36.6886 39.0653 36.6873ZM32.5576 35.9857C35.9461 34.9893 38.9361 31.9805 39.8479 28.6493C40.6826 25.6 39.5229 23.6019 36.6924 23.2123L35.9416 23.1089L35.6173 24.111C34.9209 26.263 32.7774 28.6777 30.7764 29.5644C29.0378 30.3348 27.0217 30.0376 25.7428 28.8226C23.7876 26.9648 23.7628 23.0768 25.6761 18.3558L26.2414 16.9608L27.3933 16.8367C32.0757 16.332 35.9748 14.7831 38.4718 12.4357C41.7538 9.35033 41.4944 5.51563 37.8861 3.77568C35.2611 2.50991 31.4206 2.54036 28.3829 3.85101C24.8403 5.37956 21.4734 9.17265 19.8291 13.4878C19.6442 13.9729 19.4337 14.4354 19.3613 14.5155C18.9651 14.9537 14.5004 13.0111 12.7696 11.6474C11.6394 10.7569 10.4853 9.35801 9.76778 8.00874C9.32323 7.17282 8.8036 5.36609 8.79952 4.64218C8.79407 3.6727 8.61097 3.6773 6.80272 4.69221C4.88843 5.76663 3.11946 7.31042 2.60868 8.35236C2.1091 9.37143 2.27085 10.6756 3.01648 11.6404C4.71582 13.8393 9.2878 15.6051 15.5687 16.4885C16.5882 16.6319 17.6797 16.7497 17.994 16.7502C18.3084 16.7514 18.6082 16.7918 18.6602 16.8413C18.7123 16.8908 18.6292 17.5061 18.4756 18.2084C18.289 19.0622 18.1962 20.5088 18.1956 22.5726C18.1946 25.3533 18.2433 25.8324 18.6841 27.4009C19.4364 30.0773 20.3014 31.581 22.0528 33.2565C23.055 34.2154 23.9026 34.8452 24.6522 35.1882C27.1132 36.3142 30.3349 36.6392 32.5576 35.9857ZM27.5255 15.011C27.5255 14.9271 27.706 14.6294 27.9265 14.3495C29.8453 11.9143 32.1745 10.7297 33.4164 11.5574C34.271 12.127 33.8348 13.2475 32.4599 14.0142C31.1307 14.7554 27.5255 15.4837 27.5255 15.011ZM154.417 35.5605C156.857 35.056 158.588 33.7535 158.588 32.4218C158.588 31.8215 158.476 31.5983 157.926 31.1049C157.562 30.7781 157.11 30.5107 156.921 30.5107C156.733 30.5107 156.458 30.4665 156.31 30.4124C156.13 30.347 155.876 30.5813 155.549 31.112C154.521 32.7801 152.812 33.4119 151.543 32.5922C150.703 32.049 150.123 31.0302 149.903 29.7125C149.807 29.1328 149.752 28.6335 149.783 28.6028C149.813 28.5722 150.201 28.6433 150.644 28.7609C151.088 28.8785 152.076 28.9739 152.841 28.9728C155.482 28.9691 157.356 27.8438 158.46 25.5986C159.502 23.4789 159.318 19.9352 158.109 18.8547C157.746 18.5302 157.538 18.4834 156.855 18.5725C156.277 18.6479 155.73 18.5773 154.999 18.3327C152.372 17.454 149.569 18.3502 147.22 20.82C145.333 22.8049 144.505 24.898 144.501 27.6953C144.498 30.316 145.065 31.9667 146.5 33.5156C148.252 35.4067 151.323 36.2001 154.417 35.5605ZM149.971 26.7891C150.36 25.1033 151.752 23.2897 153.14 22.6633C153.938 22.3028 154.129 22.4313 154.269 23.4221C154.562 25.5048 153.198 27.0101 150.768 27.284L149.833 27.3894L149.971 26.7891ZM101.64 34.9896L102.217 34.8797L101.787 34.0624C100.892 32.3609 100.679 31.4226 100.705 29.3018C100.748 25.9091 101.409 22.9953 102.641 20.7775C103.291 19.6064 104.823 18.0757 105.944 17.476L106.733 17.0542L106.617 17.6524C106.073 20.4502 105.469 28.9225 105.611 31.7456C105.704 33.593 106.003 34.3675 106.817 34.8751C107.241 35.1399 107.818 35.1899 110.752 35.2156C114.009 35.2441 114.241 35.2237 115.167 34.8268C116.59 34.2165 117.845 32.8958 118.822 30.9804C120.2 28.2772 120.853 24.7345 120.403 22.3962C119.794 19.2232 118.195 17.873 115.568 18.3132C114.105 18.5585 113.083 19.0942 111.926 20.2217L110.946 21.1771L110.964 20.0667C110.974 19.456 111.037 18.5206 111.103 17.988C111.201 17.1996 111.293 17.0106 111.594 16.9715C116.069 16.3917 119.594 13.7148 120.496 10.2113C121.221 7.39583 120.196 4.80857 117.927 3.73062C116.697 3.14572 114.654 3.158 113.423 3.75767C111.382 4.75194 109.657 7.14943 108.356 10.7995L107.848 12.2228L106.941 12.2538C106.441 12.2709 105.779 12.4105 105.467 12.5641C103.909 13.3332 102.286 15.9237 101.409 19.042C101.156 19.9416 100.925 20.7005 100.896 20.7284C100.867 20.7562 100.837 20.0514 100.83 19.1621C100.819 17.8914 100.728 17.3521 100.401 16.6441C99.0747 13.769 95.3292 13.0388 92.7372 15.1501C91.9826 15.7647 91.3075 16.8891 91.2993 17.5451C91.2952 17.8677 91.3967 17.8929 92.4864 17.8393C94.6274 17.7341 95.5889 18.529 95.9704 20.7195C96.1782 21.9128 96.1297 22.6611 95.4512 28.74C94.852 34.108 95.6823 35.4097 99.5624 35.1859C100.388 35.1383 101.323 35.05 101.64 34.9896ZM111.239 32.4071C111.171 32.0918 111.035 30.5079 110.936 28.8875C110.741 25.6972 110.807 25.3063 111.796 23.7928C112.219 23.1458 113.252 22.2198 113.551 22.2198C113.643 22.2198 113.866 22.4348 114.046 22.6975C114.323 23.0995 114.375 23.5817 114.375 25.7404C114.375 28.4862 114.176 29.6102 113.415 31.1641C112.97 32.0746 112.066 32.9804 111.603 32.9804C111.471 32.9804 111.307 32.7224 111.239 32.4071ZM111.502 14.8533C111.503 13.4508 112.463 9.53372 113.051 8.53673C113.6 7.6063 114.24 7.57419 114.576 8.46031C114.861 9.21053 114.904 11.1415 114.654 11.9945C114.338 13.0771 113.457 14.1919 112.452 14.7805L111.502 15.3368V14.8533H111.502ZM29.8562 27.3293C31.5832 26.5338 33.2892 24.2161 33.5525 22.308C33.782 20.6448 33.6025 20.7546 35.9336 20.8516C37.0698 20.8989 38.1378 20.9937 38.3071 21.0622C38.6721 21.2101 38.7586 20.9885 38.922 19.4855C39.0351 18.4451 39.0276 18.422 38.4758 18.1287C38.0042 17.878 37.3049 17.0519 37.117 16.5234C37.0897 16.4466 36.6097 16.6251 36.0503 16.9201C34.6985 17.6331 31.9222 18.4832 29.7501 18.8493L27.989 19.1461L27.4515 20.6388C26.7437 22.6047 26.5632 25.651 27.0968 26.6274C27.6805 27.6955 28.57 27.9218 29.8562 27.3293ZM147.428 17.2677C147.494 17.1144 145.389 16.9487 145.214 17.0934C145.148 17.1478 145.061 17.7218 145.02 18.369L144.947 19.5456L146.16 18.4716C146.827 17.8809 147.398 17.3391 147.428 17.2677ZM135.601 17.7215C135.601 17.2199 135.525 17.201 134.662 17.4874L134.038 17.6942L134.681 17.9149C135.575 18.2222 135.601 18.2168 135.601 17.7215Z"/>
</mask>
<path d="M28.0817 51.3905C22.5824 50.474 20.016 49.7832 17.9514 48.6635C14.8225 46.9666 14.191 44.049 16.4446 41.7025C17.7935 40.2981 20.7878 39.0142 24.6522 38.1834C25.198 38.066 25.1861 38.0534 24.0034 37.5032C20.0234 35.6517 17.6087 32.6571 16.2656 27.9074C15.818 26.3247 15.7786 25.9006 15.7668 22.5433L15.754 18.8978L14.7345 18.7778C13.0547 18.5801 9.80547 17.8502 7.99692 17.2642C4.22484 16.042 1.62233 14.2806 0.434387 12.1457C0.0764102 11.5024 0.00272466 11.1016 7.81909e-05 9.78334C-0.00265833 8.40816 0.0645379 8.06466 0.502306 7.21643C1.09296 6.07199 2.68498 4.48145 4.2606 3.46165C4.87235 3.0657 6.64503 2.12485 8.19988 1.37088L11.0269 0L11.0283 1.80462C11.0301 4.15764 11.2933 5.65669 11.9336 6.96089C12.8351 8.79693 14.8241 10.5506 17.022 11.4471L17.8548 11.7868L18.602 10.3854C20.7643 6.33016 23.5996 3.49065 27.0621 1.91275C28.9204 1.06586 30.3302 0.710787 32.3627 0.577779C37.0677 0.269859 41.2141 2.09823 42.4859 5.04172C42.6692 5.46589 42.8609 5.81264 42.9119 5.81225C42.9628 5.81112 43.1942 5.49558 43.4259 5.10943C44.1812 3.85082 46.0151 2.15444 47.2412 1.58034C50.9751 -0.168069 55.4685 1.15253 57.2417 4.51943C57.9401 5.84553 58.1724 7.07358 58.0667 8.87927C57.9251 11.2962 56.8235 13.7064 55.0791 15.4157L54.4291 16.0527L55.3378 16.8615C55.8375 17.3064 56.2985 17.8265 56.3622 18.0173C56.4639 18.3223 56.6202 18.2342 57.6546 17.289C59.1953 15.8812 60.8337 15.1369 62.6343 15.027C63.3595 14.9827 64.2703 15.0299 64.6582 15.1318C65.1851 15.2702 65.3791 15.2642 65.4253 15.1081C65.635 14.399 66.1266 13.2353 66.3263 12.9755C66.5098 12.7367 66.9529 12.648 68.3616 12.568L70.1624 12.4658L70.1551 11.9184C70.151 11.6173 70.0435 10.8153 69.9162 10.1361C69.7143 9.05949 69.549 8.73518 68.6259 7.60417C68.0436 6.89074 67.5671 6.25273 67.5671 6.18639C67.5671 6.12004 68.7142 5.71952 70.1161 5.29631C72.2765 4.64418 72.9618 4.51526 74.6115 4.45066C76.4633 4.37814 76.6075 4.39874 77.5763 4.87386C79.2925 5.71553 80.1555 7.1479 80.258 9.32457C80.2993 10.2019 80.3401 10.2808 80.7748 10.3249C82.658 10.516 84.7868 13.375 84.8376 15.7813L84.8532 16.5219L86.0408 16.7302C87.0643 16.9096 87.3513 16.8969 88.118 16.6377C88.9192 16.367 89.0685 16.2255 89.6184 15.2162C91.5553 11.6614 96.6642 10.5257 100.278 12.8466C100.77 13.1625 101.227 13.3566 101.295 13.278C101.362 13.1994 101.731 12.7583 102.115 12.2979C102.975 11.2653 104.153 10.4769 105.253 10.1969C106.078 9.98689 106.094 9.9688 106.658 8.56092C109.207 2.19921 114.113 -0.527707 119.029 1.68508C124.072 3.95524 124.503 11.1464 119.872 15.7478C119.223 16.3918 119.211 16.4285 119.566 16.6152C120.044 16.8668 121.207 17.973 121.466 18.4239C121.654 18.7504 121.721 18.716 122.469 17.9074C123.376 16.9272 125.122 15.7879 126.179 15.4865L126.888 15.2842V14.2652C126.888 13.0099 127.11 12.4238 127.873 11.6646C128.975 10.5671 130.864 9.92759 133.515 9.75412C134.631 9.68116 135.23 9.56999 135.23 9.4362C135.23 9.32303 134.719 8.57804 134.094 7.78067C133.468 6.9833 132.989 6.30308 133.028 6.26907C133.066 6.23506 134.183 5.87138 135.508 5.4609C137.479 4.85054 138.256 4.69863 139.772 4.62705C142.056 4.51922 142.895 4.71939 143.984 5.63139C144.94 6.43216 145.511 7.55899 145.692 9.00342L145.815 9.98754L148.726 10.1944C156.427 10.7417 162.297 10.0784 166.744 8.15815C168.456 7.41909 170.357 5.86949 171.845 4.00085L172.517 3.15764L173.651 3.73624C175.372 4.61394 177.168 6.37289 177.952 7.94813C180.045 12.1534 178.66 16.5227 174.642 18.3952C172.421 19.4298 169.379 19.6 163.149 19.0382C162.04 18.9383 161.107 18.8818 161.074 18.9128C161.042 18.9438 161.146 19.3951 161.307 19.9158C161.525 20.6252 161.576 21.3531 161.509 22.82C161.405 25.0929 160.927 26.5622 159.808 28.0445C159.12 28.9553 159.119 28.9613 159.505 29.2187C159.718 29.3609 160.141 29.8885 160.444 30.391C160.897 31.1428 160.994 31.5055 160.996 32.4396C161 34.842 159.693 36.1665 155.807 37.6986L155.344 37.8814L155.9 38.0885C158.417 39.0259 160.582 40.5757 161.208 41.888C161.615 42.7388 161.659 44.3957 161.297 45.2194C160.477 47.0862 157.773 48.2246 153.119 48.6616C148.793 49.0678 141.165 49.2535 133.006 49.1512C123.907 49.0371 118.211 48.7564 100.194 47.5339C80.0706 46.1685 70.7269 45.7787 61.2086 45.9076C56.0816 45.9771 53.7762 46.0826 51.4393 46.3551C44.2274 47.1959 38.5047 48.3991 32.7161 50.2915C29.3156 51.4032 28.8377 51.5165 28.0817 51.3905ZM30.5025 48.4884C36.921 46.2539 45.088 44.5686 53.1077 43.8234C61.1868 43.0727 74.9446 43.4334 97.135 44.9776C106.193 45.608 116.131 46.2224 122.995 46.5764C127.8 46.8242 149.545 46.7002 152.192 46.4099C154.97 46.1053 156.874 45.7093 157.868 45.2297C158.83 44.7659 159.144 44.379 159.144 43.6556C159.144 41.8111 156.045 40.1944 150.322 39.0527C148.084 38.6064 147.984 38.6011 147.228 38.8896C144.052 40.1003 140.481 40.8085 134.581 41.3976C131.889 41.6664 129.73 41.7101 119.751 41.698C113.266 41.6901 106.3 41.5902 104.087 41.4733C101.895 41.3574 97.807 41.1463 95.0031 41.0042C92.1993 40.862 86.2347 40.5465 81.7486 40.3029C77.2624 40.0594 71.715 39.78 69.421 39.6821C67.1269 39.5842 63.6233 39.4241 61.6351 39.3264C55.3406 39.0171 41.1404 38.9072 37.2579 39.1378C29.4437 39.6019 24.3517 40.3854 21.1019 41.6236C17.746 42.9024 16.747 44.3422 18.1735 45.8446C19.1784 46.9031 21.6421 47.7994 25.7644 48.6062C28.4493 49.1317 28.6701 49.1262 30.5025 48.4884ZM127.865 39.3919L130.94 39.2765L130.309 38.4901C129.962 38.0576 129.576 37.4348 129.451 37.1061C129.188 36.4141 129.061 36.3828 128.431 36.8541C127.659 37.4325 126.028 37.9197 124.865 37.9197C122.861 37.9197 121.251 37.1096 120.104 35.5244L119.417 34.5751L118.448 35.4709C117.915 35.9635 117.145 36.5563 116.737 36.7881C115.648 37.4059 113.669 37.7997 112.429 37.6452C111.868 37.5754 110.527 37.5349 109.45 37.5553C107.893 37.5847 107.26 37.5184 106.367 37.2319L105.242 36.8714L102.764 37.2184C101.401 37.4091 99.9527 37.5714 99.5449 37.5788C98.9419 37.5898 98.7091 37.7005 98.2987 38.1716L97.794 38.7508L99.1879 38.8629C99.9545 38.9246 103.226 39.0578 106.459 39.159C109.691 39.2603 112.711 39.3657 113.17 39.3934C114.971 39.502 124.957 39.501 127.865 39.3921L127.865 39.3919ZM87.463 37.7874C87.2876 37.5206 87.1278 37.2777 87.1079 37.2477C87.0879 37.2177 86.7511 37.3566 86.3593 37.5564C85.9676 37.7562 85.479 37.931 85.2735 37.9447C84.7759 37.9781 86.196 38.2157 87.0825 38.2475L87.7819 38.2725L87.463 37.7874ZM94.301 37.9233C95.2237 37.5945 96.6715 36.6365 96.6715 36.3547C96.6715 36.2842 96.383 36.1272 96.0303 36.0059C94.6369 35.5264 93.4291 33.6375 92.9575 31.1997C92.4534 28.5943 92.8428 23.2432 93.737 20.4882C94.0014 19.6737 94.0452 19.3097 93.8989 19.142C93.3861 18.554 90.1668 18.2281 89.2887 18.6752C89.0717 18.7858 88.8071 19.0309 88.7008 19.2201C88.3537 19.8372 87.9623 22.9497 87.8357 26.0995C87.7126 29.1638 87.7081 29.1888 87.2007 29.6717C86.9196 29.9391 86.596 30.1579 86.4816 30.1579C86.088 30.1579 85.3889 29.3152 85.1446 28.5465C84.7667 27.3567 84.8658 22.5232 85.3076 20.5936L85.6599 19.0555L84.8495 18.9399C84.4038 18.8763 83.3742 18.8609 82.5614 18.9057C80.9156 18.9963 80.1968 19.3421 79.969 20.1527C79.4737 21.9147 79.2665 27.8237 79.6243 29.9815C80.2246 33.6026 81.9075 35.6264 84.318 35.6264C84.9961 35.6264 85.2579 35.5171 85.9015 34.9649C86.3256 34.6011 86.9863 33.7304 87.3698 33.03L88.067 31.7566L88.4005 33.3263C88.821 35.306 89.8459 37.3137 90.7205 37.8711C91.5265 38.3847 92.9477 38.4055 94.301 37.9233ZM137.07 37.1931C137.638 36.8909 138.235 36.5342 138.395 36.4004C138.556 36.2666 139.307 36.0046 140.064 35.8183C141.476 35.4707 143.574 34.6359 143.57 34.4228C143.569 34.3571 143.439 33.9065 143.282 33.4214C142.724 31.7041 142.467 28.9367 142.463 24.606C142.461 21.1346 142.748 14.6764 142.913 14.5019C143.081 14.3237 148.795 14.9386 158.124 16.1391C163.674 16.8532 169.486 17.2008 171.3 16.927C174.483 16.4467 176.308 14.8026 176.526 12.2191C176.693 10.2434 175.555 7.81112 173.904 6.61264L173.256 6.14183L172.085 7.27663C167.546 11.6791 159.682 13.3435 147.743 12.4282C145.908 12.2875 144.124 12.1707 143.78 12.1686L143.154 12.1649L143.283 10.5868C143.395 9.22541 143.363 8.90052 143.047 8.22045C142.663 7.3947 142.239 7.08392 141.189 6.85861C140.548 6.72112 138.84 6.91121 137.613 7.25658L136.937 7.44678L137.221 8.08589C137.504 8.72578 138.036 11.6296 137.906 11.8306C137.868 11.8894 136.562 11.9822 135.004 12.0369C131.274 12.1679 129.733 12.6418 129.314 13.7862C129.081 14.4197 129.461 15.4048 130.303 16.3526L130.811 16.9241L131.398 16.5051C131.722 16.2746 132.32 15.9279 132.728 15.7346C133.687 15.28 136.389 14.6345 137.334 14.6345H138.069L137.95 18.6477C137.885 20.8549 137.71 24.2882 137.561 26.2771C137.412 28.2661 137.231 31.039 137.159 32.4391L137.028 34.9849L136.583 34.4678C135.155 32.812 134.969 31.8101 134.96 25.713C134.954 21.787 134.898 20.5991 134.71 20.4209C134.551 20.2701 134.006 20.1983 133.123 20.2119L131.778 20.2327L131.233 19.2442C130.465 17.8506 129.714 17.4059 128.278 17.4954C126.799 17.5875 125.912 18.0181 124.549 19.3057C120.414 23.2104 119.449 32.6491 122.945 34.9874C123.604 35.4279 123.892 35.5056 124.839 35.4971C126.771 35.4798 128.19 34.392 129.731 31.7456L130.501 30.4226L130.644 31.5692C131.059 34.8981 131.696 36.7502 132.663 37.4371C133.738 38.2011 135.34 38.1125 137.07 37.1931ZM126.552 31.3547C125.981 30.8115 126.488 26.9986 127.435 24.7116C127.875 23.6499 129.027 21.867 129.274 21.867C129.916 21.867 130.064 26.2999 129.482 28.0934C128.836 30.0837 127.167 31.9406 126.552 31.3547ZM143.321 37.6536C144.254 37.4103 145.329 37.0871 145.711 36.9353C146.36 36.6773 146.385 36.64 146.095 36.3642C145.806 36.0885 145.706 36.1085 144.566 36.6707C143.896 37.0015 142.835 37.4534 142.208 37.6749C140.693 38.2108 141.224 38.2007 143.321 37.6536ZM71.0831 37.3415C71.5453 37.15 72.3026 36.7373 72.7658 36.4245C73.2291 36.1117 73.9381 35.7978 74.3415 35.727C75.1078 35.5924 77.7526 34.6424 77.9964 34.4142C78.0739 34.3417 78.0124 33.8903 77.8598 33.4109C77.2208 31.4035 76.988 28.9345 76.9915 24.2036C76.9935 21.6564 77.0514 19.1428 77.1203 18.6179L77.2456 17.6635L79.2524 17.6043C80.941 17.5545 81.3422 17.4863 81.782 17.1745C82.5453 16.6334 82.5978 15.4574 81.9159 14.1749C81.1238 12.685 80.9813 12.6111 79.6847 13.0162C79.0865 13.2031 78.3597 13.409 78.0695 13.4737L77.5418 13.5913L77.6987 11.8637C77.9282 9.33798 77.8613 8.38872 77.4043 7.6851C76.7451 6.67018 75.2335 6.43708 72.7696 6.97036L71.5033 7.24443L71.8423 8.09327C72.2873 9.2079 72.6068 11.5695 72.5362 13.2232L72.4797 14.5462L70.4405 14.7502C69.319 14.8624 68.3062 14.9616 68.1898 14.9707C67.8188 14.9997 67.7263 15.8515 68.0283 16.4571C68.4834 17.3697 69.1448 17.6333 70.9789 17.6333H72.5724L72.5773 18.2066C72.58 18.5219 72.354 22.3433 72.0749 26.6985L71.5676 34.6171L70.981 33.9715C69.8793 32.7586 69.7144 31.7716 69.6084 25.7528L69.5136 20.3774L69.0502 20.1458C68.7366 19.9892 68.2253 19.948 67.4691 20.0185L66.3515 20.1227L66.1087 19.4837C65.5396 17.986 64.1734 17.1432 62.6393 17.3433C59.8195 17.7111 57.232 20.6605 56.0397 24.8658C55.4719 26.8688 55.4192 31.1363 55.9447 32.5695C57.0538 35.5944 60.1464 36.3001 62.4945 34.064C63.3275 33.2707 64.9719 30.9107 64.9719 30.5084C64.9719 30.4127 65.0553 30.3343 65.1572 30.3343C65.2592 30.3343 65.3433 30.6717 65.344 31.0841C65.3482 33.3132 66.091 35.9198 66.9983 36.8891C68.0112 37.9712 69.2359 38.1068 71.0831 37.3415ZM61.0561 30.9076C60.6029 29.8027 61.3695 25.9476 62.4912 23.6914C63.019 22.6296 63.8161 21.6442 64.0405 21.7761C64.356 21.9617 64.6501 24.2466 64.5491 25.728C64.3931 28.0166 63.3248 30.3473 62.0746 31.1269C61.4728 31.5021 61.2833 31.4613 61.0561 30.9076ZM82.3866 37.7524C81.7064 37.556 81.0949 37.2283 80.4019 36.6888L79.7968 36.2178L78.2343 36.9364L76.6719 37.6551L78.1907 37.7545C80.5755 37.9107 82.9305 37.9095 82.3866 37.7524ZM56.0327 37.2282C56.616 36.9449 57.3575 36.5246 57.6803 36.2942L58.2673 35.8752L57.3096 35.5533C56.1722 35.1711 55.1444 34.2191 54.8078 33.2359C54.3822 31.9929 54.3415 29.7874 54.6811 26.3639C55.0809 22.3329 55.0103 20.6549 54.3912 19.4661C53.168 17.1177 49.771 17.2495 46.9674 19.7543C46.4317 20.2329 45.9717 20.6037 45.9451 20.5785C45.8444 20.4826 46.1225 17.2984 46.2486 17.1043C46.3213 16.9924 47.0393 16.7605 47.8441 16.589C52.5269 15.5914 55.703 12.2399 55.703 8.2961C55.703 6.20064 54.9604 4.81463 53.2659 3.74754C52.6515 3.36068 52.257 3.26667 50.9803 3.20289C49.6321 3.13556 49.3252 3.17862 48.55 3.54392C46.014 4.73899 43.9874 8.08886 42.5342 13.4878C42.0973 15.1111 41.9567 15.4217 41.6741 15.3884C41.4882 15.3665 40.8982 15.296 40.363 15.2318C39.4749 15.1253 39.3897 15.1457 39.3897 15.4648C39.3897 15.9617 39.9049 16.3422 40.9313 16.6034C41.6806 16.7941 41.8048 16.8853 41.7269 17.1873C41.2332 19.1014 40.6878 25.7514 40.6922 29.8051C40.6973 34.5238 41.0653 35.0156 44.5803 35.0008C45.6509 34.9962 46.7513 34.9364 47.0258 34.8677L47.5248 34.7429L47.1794 33.9939C46.4219 32.3511 45.878 28.4508 45.878 24.6623C45.878 22.4145 45.8856 22.3726 46.3733 21.9425C47.0509 21.345 47.6494 21.2351 48.3917 21.5719C49.6405 22.1386 49.685 22.3811 49.6218 28.2758C49.5599 34.0559 49.6581 34.9336 50.5105 36.2126C51.2404 37.3078 52.1197 37.7256 53.7155 37.7355C54.7483 37.7419 55.1609 37.6516 56.0327 37.2282ZM46.5161 14.2138C46.7405 12.5046 47.5178 9.52166 47.9998 8.51981C48.387 7.71498 48.5354 7.56228 48.8845 7.60961C49.7995 7.73368 50.2425 10.0791 49.6916 11.8824C49.3344 13.0516 48.2607 14.2841 47.1143 14.8406L46.3875 15.1935L46.5161 14.2138ZM64.0123 36.7436C63.9246 36.3136 63.6424 36.2952 63.1181 36.6851L62.6547 37.0298L63.3634 37.0337C63.9266 37.0368 64.0599 36.9773 64.0123 36.7436ZM39.0653 36.6873L40.502 36.6848L39.7605 35.9792C39.3527 35.5911 39.019 35.1916 39.019 35.0914C39.019 34.8787 36.8263 36.5225 36.8073 36.7495C36.8002 36.8335 36.9821 36.8545 37.2115 36.796C37.4409 36.7375 38.2751 36.6886 39.0653 36.6873ZM32.5576 35.9857C35.9461 34.9893 38.9361 31.9805 39.8479 28.6493C40.6826 25.6 39.5229 23.6019 36.6924 23.2123L35.9416 23.1089L35.6173 24.111C34.9209 26.263 32.7774 28.6777 30.7764 29.5644C29.0378 30.3348 27.0217 30.0376 25.7428 28.8226C23.7876 26.9648 23.7628 23.0768 25.6761 18.3558L26.2414 16.9608L27.3933 16.8367C32.0757 16.332 35.9748 14.7831 38.4718 12.4357C41.7538 9.35033 41.4944 5.51563 37.8861 3.77568C35.2611 2.50991 31.4206 2.54036 28.3829 3.85101C24.8403 5.37956 21.4734 9.17265 19.8291 13.4878C19.6442 13.9729 19.4337 14.4354 19.3613 14.5155C18.9651 14.9537 14.5004 13.0111 12.7696 11.6474C11.6394 10.7569 10.4853 9.35801 9.76778 8.00874C9.32323 7.17282 8.8036 5.36609 8.79952 4.64218C8.79407 3.6727 8.61097 3.6773 6.80272 4.69221C4.88843 5.76663 3.11946 7.31042 2.60868 8.35236C2.1091 9.37143 2.27085 10.6756 3.01648 11.6404C4.71582 13.8393 9.2878 15.6051 15.5687 16.4885C16.5882 16.6319 17.6797 16.7497 17.994 16.7502C18.3084 16.7514 18.6082 16.7918 18.6602 16.8413C18.7123 16.8908 18.6292 17.5061 18.4756 18.2084C18.289 19.0622 18.1962 20.5088 18.1956 22.5726C18.1946 25.3533 18.2433 25.8324 18.6841 27.4009C19.4364 30.0773 20.3014 31.581 22.0528 33.2565C23.055 34.2154 23.9026 34.8452 24.6522 35.1882C27.1132 36.3142 30.3349 36.6392 32.5576 35.9857ZM27.5255 15.011C27.5255 14.9271 27.706 14.6294 27.9265 14.3495C29.8453 11.9143 32.1745 10.7297 33.4164 11.5574C34.271 12.127 33.8348 13.2475 32.4599 14.0142C31.1307 14.7554 27.5255 15.4837 27.5255 15.011ZM154.417 35.5605C156.857 35.056 158.588 33.7535 158.588 32.4218C158.588 31.8215 158.476 31.5983 157.926 31.1049C157.562 30.7781 157.11 30.5107 156.921 30.5107C156.733 30.5107 156.458 30.4665 156.31 30.4124C156.13 30.347 155.876 30.5813 155.549 31.112C154.521 32.7801 152.812 33.4119 151.543 32.5922C150.703 32.049 150.123 31.0302 149.903 29.7125C149.807 29.1328 149.752 28.6335 149.783 28.6028C149.813 28.5722 150.201 28.6433 150.644 28.7609C151.088 28.8785 152.076 28.9739 152.841 28.9728C155.482 28.9691 157.356 27.8438 158.46 25.5986C159.502 23.4789 159.318 19.9352 158.109 18.8547C157.746 18.5302 157.538 18.4834 156.855 18.5725C156.277 18.6479 155.73 18.5773 154.999 18.3327C152.372 17.454 149.569 18.3502 147.22 20.82C145.333 22.8049 144.505 24.898 144.501 27.6953C144.498 30.316 145.065 31.9667 146.5 33.5156C148.252 35.4067 151.323 36.2001 154.417 35.5605ZM149.971 26.7891C150.36 25.1033 151.752 23.2897 153.14 22.6633C153.938 22.3028 154.129 22.4313 154.269 23.4221C154.562 25.5048 153.198 27.0101 150.768 27.284L149.833 27.3894L149.971 26.7891ZM101.64 34.9896L102.217 34.8797L101.787 34.0624C100.892 32.3609 100.679 31.4226 100.705 29.3018C100.748 25.9091 101.409 22.9953 102.641 20.7775C103.291 19.6064 104.823 18.0757 105.944 17.476L106.733 17.0542L106.617 17.6524C106.073 20.4502 105.469 28.9225 105.611 31.7456C105.704 33.593 106.003 34.3675 106.817 34.8751C107.241 35.1399 107.818 35.1899 110.752 35.2156C114.009 35.2441 114.241 35.2237 115.167 34.8268C116.59 34.2165 117.845 32.8958 118.822 30.9804C120.2 28.2772 120.853 24.7345 120.403 22.3962C119.794 19.2232 118.195 17.873 115.568 18.3132C114.105 18.5585 113.083 19.0942 111.926 20.2217L110.946 21.1771L110.964 20.0667C110.974 19.456 111.037 18.5206 111.103 17.988C111.201 17.1996 111.293 17.0106 111.594 16.9715C116.069 16.3917 119.594 13.7148 120.496 10.2113C121.221 7.39583 120.196 4.80857 117.927 3.73062C116.697 3.14572 114.654 3.158 113.423 3.75767C111.382 4.75194 109.657 7.14943 108.356 10.7995L107.848 12.2228L106.941 12.2538C106.441 12.2709 105.779 12.4105 105.467 12.5641C103.909 13.3332 102.286 15.9237 101.409 19.042C101.156 19.9416 100.925 20.7005 100.896 20.7284C100.867 20.7562 100.837 20.0514 100.83 19.1621C100.819 17.8914 100.728 17.3521 100.401 16.6441C99.0747 13.769 95.3292 13.0388 92.7372 15.1501C91.9826 15.7647 91.3075 16.8891 91.2993 17.5451C91.2952 17.8677 91.3967 17.8929 92.4864 17.8393C94.6274 17.7341 95.5889 18.529 95.9704 20.7195C96.1782 21.9128 96.1297 22.6611 95.4512 28.74C94.852 34.108 95.6823 35.4097 99.5624 35.1859C100.388 35.1383 101.323 35.05 101.64 34.9896ZM111.239 32.4071C111.171 32.0918 111.035 30.5079 110.936 28.8875C110.741 25.6972 110.807 25.3063 111.796 23.7928C112.219 23.1458 113.252 22.2198 113.551 22.2198C113.643 22.2198 113.866 22.4348 114.046 22.6975C114.323 23.0995 114.375 23.5817 114.375 25.7404C114.375 28.4862 114.176 29.6102 113.415 31.1641C112.97 32.0746 112.066 32.9804 111.603 32.9804C111.471 32.9804 111.307 32.7224 111.239 32.4071ZM111.502 14.8533C111.503 13.4508 112.463 9.53372 113.051 8.53673C113.6 7.6063 114.24 7.57419 114.576 8.46031C114.861 9.21053 114.904 11.1415 114.654 11.9945C114.338 13.0771 113.457 14.1919 112.452 14.7805L111.502 15.3368V14.8533H111.502ZM29.8562 27.3293C31.5832 26.5338 33.2892 24.2161 33.5525 22.308C33.782 20.6448 33.6025 20.7546 35.9336 20.8516C37.0698 20.8989 38.1378 20.9937 38.3071 21.0622C38.6721 21.2101 38.7586 20.9885 38.922 19.4855C39.0351 18.4451 39.0276 18.422 38.4758 18.1287C38.0042 17.878 37.3049 17.0519 37.117 16.5234C37.0897 16.4466 36.6097 16.6251 36.0503 16.9201C34.6985 17.6331 31.9222 18.4832 29.7501 18.8493L27.989 19.1461L27.4515 20.6388C26.7437 22.6047 26.5632 25.651 27.0968 26.6274C27.6805 27.6955 28.57 27.9218 29.8562 27.3293ZM147.428 17.2677C147.494 17.1144 145.389 16.9487 145.214 17.0934C145.148 17.1478 145.061 17.7218 145.02 18.369L144.947 19.5456L146.16 18.4716C146.827 17.8809 147.398 17.3391 147.428 17.2677ZM135.601 17.7215C135.601 17.2199 135.525 17.201 134.662 17.4874L134.038 17.6942L134.681 17.9149C135.575 18.2222 135.601 18.2168 135.601 17.7215Z" fill="url(#paint1_linear_5830_6750)" fill-opacity="0.55" stroke="white" stroke-opacity="0.55" stroke-width="0.129939" mask="url(#path-3-inside-2_5830_6750)"/>
<defs>
<filter id="filter0_d_5830_6750" x="12.9119" y="38.1837" width="150.518" height="19.5913" filterUnits="userSpaceOnUse" color-interpolation-filters="sRGB">
<feFlood flood-opacity="0" result="BackgroundImageFix"/>
<feColorMatrix in="SourceAlpha" type="matrix" values="0 0 0 0 0 0 0 0 0 0 0 0 0 0 0 0 0 0 127 0" result="hardAlpha"/>
<feOffset dy="4"/>
<feGaussianBlur stdDeviation="2"/>
<feComposite in2="hardAlpha" operator="out"/>
<feColorMatrix type="matrix" values="0 0 0 0 0 0 0 0 0 0 0 0 0 0 0 0 0 0 0.2 0"/>
<feBlend mode="normal" in2="BackgroundImageFix" result="effect1_dropShadow_5830_6750"/>
<feBlend mode="normal" in="SourceGraphic" in2="effect1_dropShadow_5830_6750" result="shape"/>
</filter>
<linearGradient id="paint0_linear_5830_6750" x1="85.5265" y1="3.15869" x2="84.9249" y2="35.5241" gradientUnits="userSpaceOnUse">
<stop stop-color="#FF9E00"/>
<stop offset="1" stop-color="#D9840E"/>
</linearGradient>
<linearGradient id="paint1_linear_5830_6750" x1="0" y1="25.7156" x2="178.921" y2="25.7156" gradientUnits="userSpaceOnUse">
<stop offset="0.9999" stop-color="white" stop-opacity="0.5"/>
<stop offset="1" stop-color="#FCFCFC"/>
</linearGradient>
</defs>
</svg>
