<svg width="182" height="20" viewBox="0 0 182 20" fill="none" xmlns="http://www.w3.org/2000/svg">
<g clip-path="url(#clip0_5827_6747)">
<path d="M10.0838 18.3622H1.3527V0.777035C1.3527 0.531089 1.22973 0.408116 0.983784 0.408116H0.368919C0.122973 0.408116 0 0.654062 0 0.777035V19.223C0 19.4689 0.122973 19.5919 0.368919 19.5919H10.0838C10.3297 19.5919 10.4527 19.4689 10.4527 19.346V18.8541C10.4527 18.6081 10.4527 18.3622 10.0838 18.3622ZM18.077 0.408116H17.4622C17.2162 0.408116 17.0932 0.531089 17.0932 0.777035V19.223C17.0932 19.4689 17.2162 19.5919 17.4622 19.5919H18.077C18.323 19.5919 18.4459 19.4689 18.4459 19.223V0.777035C18.4459 0.654062 18.2 0.408116 18.077 0.408116ZM42.4257 0.408116H41.6878C41.5649 0.408116 41.4419 0.531089 41.4419 0.654062L33.9405 17.6243L26.3162 0.654062C26.3162 0.531089 26.1932 0.408116 26.0703 0.408116H25.3324C25.0865 0.408116 24.9635 0.531089 25.0865 0.777035L33.4487 19.5919C33.4487 19.7149 33.5716 19.8378 33.6946 19.8378H33.8176C33.9405 19.8378 34.0635 19.7149 34.1865 19.5919L42.6716 0.777035C42.7946 0.654062 42.6716 0.408116 42.4257 0.408116ZM60.8716 0.408116H49.8041C49.5581 0.408116 49.4351 0.531089 49.4351 0.777035V19.223C49.4351 19.4689 49.5581 19.5919 49.8041 19.5919H60.8716C61.1176 19.5919 61.2405 19.4689 61.2405 19.223V18.7311C61.2405 18.4851 61.1176 18.3622 60.8716 18.3622H50.7878V10.3689H59.5189C59.7649 10.3689 59.8878 10.246 59.8878 10V9.50812C59.8878 9.26217 59.7649 9.1392 59.5189 9.1392H50.7878V1.63785H60.8716C61.1176 1.63785 61.2405 1.51487 61.2405 1.26893V0.777035C61.2405 0.654062 60.9946 0.408116 60.8716 0.408116ZM75.8743 0.408116H72.5541C72.3081 0.408116 72.0622 0.654062 72.0622 0.900008V13.8122C72.0622 15.1649 71.2014 15.9027 70.4635 15.9027C69.7257 15.9027 69.3568 15.6568 69.1108 15.2878C68.8649 15.0419 68.6189 15.0419 68.373 15.2878L66.5284 17.1324C66.4054 17.3784 66.2824 17.6243 66.5284 17.8703C67.0203 18.4851 68.373 19.8378 70.7095 19.8378C73.9068 19.8378 76.6122 17.6243 76.6122 13.8122V0.900008C76.3662 0.654062 76.1203 0.408116 75.8743 0.408116ZM91.6149 0.408116C91.6149 0.285143 91.3689 0.16217 91.123 0.16217H90.877C90.6311 0.16217 90.5081 0.285143 90.3851 0.408116L81.777 18.8541C81.6541 19.223 81.777 19.5919 82.2689 19.5919H85.3432C85.8351 19.5919 86.2041 19.223 86.327 18.977L87.3108 16.7635H94.8122L95.796 18.977C96.0419 19.4689 96.2878 19.7149 96.7797 19.7149H99.8541C100.223 19.7149 100.469 19.346 100.346 18.977L91.6149 0.408116ZM88.9095 12.9514L91 8.52433L93.0905 13.0743H88.9095V12.9514ZM112.274 7.90947C110.061 7.04866 109.323 6.31082 109.323 5.20406C109.323 4.46622 110.061 3.85136 111.045 3.85136C112.766 3.85136 114.734 5.32704 114.98 5.45001C115.226 5.69595 115.718 5.45001 115.964 5.08109L117.316 2.99055C117.439 2.7446 117.439 2.25271 117.193 2.12974C116.332 1.63785 114.119 0.16217 111.291 0.16217C106.986 0.16217 104.896 2.86758 104.896 5.57298C104.896 8.89325 107.847 10.7378 110.307 11.5987C112.151 12.3365 113.135 13.1973 113.135 14.3041C113.135 15.2878 112.274 15.9027 111.291 15.9027C109.446 15.9027 107.478 14.427 107.355 14.427C107.109 14.3041 106.618 14.1811 106.372 14.55L105.019 16.7635C104.773 17.1324 104.896 17.2554 105.142 17.5014C105.757 18.1162 107.724 19.5919 111.414 19.5919C115.472 19.5919 117.931 16.7635 117.931 13.9351C117.931 10.4919 114.488 8.77028 112.274 7.90947ZM141.911 0.16217H141.419C141.296 0.16217 141.05 0.285143 140.927 0.408116L134.532 12.2135L128.138 0.408116C128.138 0.285143 127.892 0.16217 127.769 0.16217H127.277C127.031 0.16217 126.785 0.408116 126.785 0.654062L123.711 18.977C123.711 19.346 123.957 19.5919 124.203 19.5919H127.4C127.646 19.5919 127.892 19.346 127.892 19.1L129.122 10.6149L133.795 19.4689C133.918 19.5919 134.041 19.7149 134.286 19.7149H134.778C134.901 19.7149 135.147 19.5919 135.27 19.4689L139.943 10.6149L141.173 19.1C141.173 19.346 141.419 19.5919 141.665 19.5919H144.862C145.231 19.5919 145.477 19.346 145.354 18.977L142.28 0.654062C142.403 0.408116 142.157 0.16217 141.911 0.16217ZM156.545 0.408116H153.224C152.978 0.408116 152.732 0.654062 152.732 0.900008V18.977C152.732 19.223 152.978 19.4689 153.224 19.4689H156.545C156.791 19.4689 157.036 19.223 157.036 18.977V0.900008C157.036 0.654062 156.791 0.408116 156.545 0.408116ZM181.508 0.408116H178.188C177.942 0.408116 177.696 0.654062 177.696 0.900008V10.6149L166.628 0.16217H165.891C165.645 0.16217 165.399 0.408116 165.399 0.654062V19.1C165.399 19.346 165.645 19.5919 165.891 19.5919H169.211C169.457 19.5919 169.703 19.346 169.703 19.1V8.89325L180.647 19.7149C180.647 19.7149 180.893 19.8378 181.016 19.8378H181.508C181.754 19.8378 182 19.5919 182 19.346V0.900008C182 0.654062 181.754 0.408116 181.508 0.408116Z" fill="url(#paint0_linear_5827_6747)"/>
</g>
<defs>
<linearGradient id="paint0_linear_5827_6747" x1="0" y1="10" x2="182" y2="10" gradientUnits="userSpaceOnUse">
<stop stop-color="#D81921"/>
<stop offset="1" stop-color="#D81921" stop-opacity="0.32"/>
</linearGradient>
<clipPath id="clip0_5827_6747">
<rect width="182" height="20" fill="white"/>
</clipPath>
</defs>
</svg>
