<svg width="182" height="85" viewBox="0 0 182 85" fill="none" xmlns="http://www.w3.org/2000/svg">
<path d="M4.54996 48.4371H0.0841064V32.5099H6.86372L12.2287 42.4578L17.6847 32.5099H24.3733V48.4371H19.9277V37.088L13.714 48.4371H10.7131L4.54996 37.088V48.4371Z" fill="url(#paint0_linear_5827_6746)"/>
<path d="M32.244 47.8916H30.8094L26.1616 37.1736H30.3748L33.3352 44.4901L36.3967 37.1736H40.5795L35.265 49.3142C34.9889 49.9417 34.711 50.4516 34.4315 50.8438C34.152 51.2361 33.8438 51.5356 33.507 51.7424C33.2174 51.9206 32.8722 52.049 32.4714 52.1274C32.0706 52.2059 31.5873 52.2451 31.0215 52.2451C30.7251 52.2451 30.4321 52.2379 30.1425 52.2237C29.8528 52.2094 29.5666 52.1881 29.2837 52.1596V49.4961C29.4386 49.5103 29.5834 49.5228 29.7181 49.5335C29.8528 49.5442 29.9842 49.5496 30.1122 49.5496C30.7251 49.5496 31.2017 49.4176 31.5419 49.1538C31.882 48.8899 32.1161 48.4692 32.244 47.8916Z" fill="url(#paint1_linear_5827_6746)"/>
<path d="M58.5438 36.3928H46.7023V39.2381H57.8568V43.0889H46.7023V48.4371H42.1154V32.5099H58.5438V36.3928Z" fill="url(#paint2_linear_5827_6746)"/>
<path d="M64.2322 39.2808C64.6095 38.475 65.1012 37.8939 65.7073 37.5374C66.3136 37.1807 67.1186 37.0024 68.1222 37.0024C69.5973 37.0024 70.6447 37.3341 71.2644 37.9973C71.884 38.6604 72.194 39.7729 72.194 41.3346C72.194 41.5628 72.1804 41.9157 72.1535 42.3936V42.4578H68.7789V42.2866C68.7789 41.6234 68.6055 41.1349 68.2586 40.8212C67.9117 40.5074 67.3745 40.3505 66.6471 40.3505C65.8926 40.3505 65.3015 40.5342 64.8739 40.9014C64.4461 41.2687 64.2322 41.7803 64.2322 42.4363V48.4371H60.403V37.1736H64.2322V39.2808Z" fill="url(#paint3_linear_5827_6746)"/>
<path d="M83.2574 44.6933H86.8644V44.8645C86.8644 46.1837 86.4838 47.1339 85.7226 47.715C84.9615 48.2963 83.7053 48.5868 81.954 48.5868H78.3975C76.7944 48.5868 75.5702 48.2321 74.7248 47.5225C73.8795 46.813 73.4568 45.7879 73.4568 44.4473V41.388C73.4568 39.9761 73.8795 38.8958 74.7248 38.147C75.5702 37.3982 76.7877 37.0239 78.3773 37.0239H81.954C83.5571 37.0239 84.7797 37.3965 85.6216 38.1417C86.4636 38.8869 86.8846 39.969 86.8846 41.388V43.7948H77.276L77.2558 44.0943C77.2558 44.7432 77.4326 45.2085 77.7863 45.4902C78.1399 45.7719 78.7242 45.9128 79.5392 45.9128H81.1457C81.9742 45.9128 82.5131 45.8272 82.7623 45.656C83.0115 45.4848 83.1765 45.1639 83.2574 44.6933ZM77.276 41.3132H83.1765V41.2704C83.1765 40.7356 83.0165 40.3576 82.6966 40.1365C82.3766 39.9155 81.8193 39.805 81.0245 39.805H79.4483C78.6535 39.805 78.0927 39.9173 77.766 40.1419C77.4394 40.3665 77.276 40.7427 77.276 41.2704V41.3132Z" fill="url(#paint4_linear_5827_6746)"/>
<path d="M98.8979 44.6933H102.505V44.8645C102.505 46.1837 102.124 47.1339 101.363 47.715C100.602 48.2963 99.3459 48.5868 97.5946 48.5868H94.0381C92.4349 48.5868 91.2108 48.2321 90.3654 47.5225C89.5201 46.813 89.0974 45.7879 89.0974 44.4473V41.388C89.0974 39.9761 89.5201 38.8958 90.3654 38.147C91.2108 37.3982 92.4282 37.0239 94.0178 37.0239H97.5946C99.1976 37.0239 100.42 37.3965 101.262 38.1417C102.104 38.8869 102.525 39.969 102.525 41.388V43.7948H92.9166L92.8963 44.0943C92.8963 44.7432 93.0732 45.2085 93.4268 45.4902C93.7804 45.7719 94.3647 45.9128 95.1797 45.9128H96.7863C97.6148 45.9128 98.1536 45.8272 98.4029 45.656C98.6521 45.4848 98.8171 45.1639 98.8979 44.6933ZM92.9166 41.3132H98.8171V41.2704C98.8171 40.7356 98.6571 40.3576 98.3372 40.1365C98.0172 39.9155 97.4598 39.805 96.665 39.805H95.0889C94.294 39.805 93.7333 39.9173 93.4066 40.1419C93.0799 40.3665 92.9166 40.7427 92.9166 41.2704V41.3132Z" fill="url(#paint5_linear_5827_6746)"/>
<path d="M119.55 38.254V38.0935C119.55 37.4731 119.356 37.0185 118.969 36.7297C118.581 36.441 117.967 36.2965 117.125 36.2965H113.447C111.871 36.2965 110.859 36.498 110.411 36.9009C109.963 37.3038 109.739 38.147 109.739 39.4306V41.6448C109.739 42.7929 109.988 43.5808 110.487 44.0087C110.985 44.4366 111.972 44.6506 113.447 44.6506H116.115C117.576 44.6506 118.534 44.4955 118.989 44.1853C119.444 43.8751 119.671 43.2992 119.671 42.4578V42.2866H124.329C124.329 42.308 124.332 42.3472 124.339 42.4042C124.359 42.8678 124.369 43.2136 124.369 43.4418C124.369 44.4616 124.248 45.303 124.005 45.9662C123.763 46.6294 123.382 47.1607 122.864 47.5599C122.372 47.9451 121.717 48.2196 120.899 48.3836C120.08 48.5477 118.88 48.6297 117.297 48.6297H112.164C110.595 48.6297 109.439 48.5405 108.698 48.3622C107.958 48.1839 107.324 47.8808 106.799 47.453C106.193 46.9468 105.752 46.3245 105.475 45.5865C105.199 44.8484 105.061 43.9161 105.061 42.7893V38.4465C105.061 36.1646 105.573 34.5726 106.597 33.6705C107.621 32.7685 109.476 32.3174 112.164 32.3174H117.297C118.947 32.3174 120.163 32.3959 120.944 32.5527C121.725 32.7097 122.342 32.9735 122.793 33.3443C123.271 33.7293 123.623 34.2482 123.849 34.9006C124.075 35.5531 124.187 36.3714 124.187 37.3555C124.187 37.5908 124.186 37.7708 124.182 37.8957C124.179 38.0205 124.171 38.1399 124.157 38.254H119.55Z" fill="url(#paint6_linear_5827_6746)"/>
<path d="M134.17 43.5701H131.836C131.135 43.5701 130.643 43.6593 130.36 43.8376C130.078 44.0158 129.936 44.3153 129.936 44.7361C129.936 45.1354 130.066 45.4136 130.325 45.5704C130.585 45.7273 131.088 45.8058 131.836 45.8058H134.17C134.87 45.8058 135.363 45.7184 135.65 45.5437C135.936 45.369 136.079 45.0713 136.079 44.6505C136.079 44.2441 135.949 43.9624 135.69 43.8054C135.431 43.6486 134.924 43.5701 134.17 43.5701ZM139.949 48.4371H136.12V47.0787C135.729 47.5992 135.131 47.9807 134.326 48.2232C133.521 48.4656 132.462 48.5868 131.149 48.5868C129.202 48.5868 127.865 48.3141 127.137 47.7686C126.41 47.2231 126.046 46.2408 126.046 44.8216C126.046 43.424 126.422 42.4578 127.173 41.9229C127.924 41.388 129.34 41.1207 131.421 41.1207C132.607 41.1207 133.575 41.1991 134.326 41.356C135.077 41.5129 135.675 41.7553 136.12 42.0833V40.8746C136.12 40.4825 135.992 40.1811 135.736 39.9707C135.48 39.7604 135.113 39.6553 134.634 39.6553H131.502C131.118 39.6553 130.837 39.7229 130.659 39.8585C130.48 39.994 130.391 40.2114 130.391 40.511H126.541V40.3719C126.541 39.1881 126.957 38.3342 127.789 37.8101C128.621 37.286 130.004 37.0239 131.937 37.0239H135.685C137.133 37.0239 138.206 37.3287 138.903 37.9384C139.6 38.5482 139.949 39.4841 139.949 40.7463V48.4371Z" fill="url(#paint7_linear_5827_6746)"/>
<path d="M146.314 48.4371H142.485V37.2378H146.314V38.9706C146.712 38.279 147.22 37.7887 147.84 37.4999C148.46 37.2111 149.346 37.0667 150.497 37.0667C151.865 37.0667 152.922 37.2735 153.67 37.6871C154.418 38.1007 154.913 38.7496 155.155 39.6339C155.519 38.7353 156.046 38.0829 156.736 37.6764C157.427 37.2699 158.361 37.0667 159.54 37.0667C161.318 37.0667 162.639 37.4036 163.501 38.0775C164.363 38.7514 164.794 39.78 164.794 41.1634V48.4371H160.965V42.768C160.965 41.7696 160.778 41.1136 160.404 40.7998C160.03 40.486 159.328 40.3291 158.297 40.3291C157.348 40.3291 156.666 40.5288 156.251 40.9281C155.837 41.3275 155.63 41.9835 155.63 42.8963V48.4371H151.801V42.768C151.801 41.7696 151.61 41.1136 151.23 40.7998C150.849 40.486 150.13 40.3291 149.073 40.3291C148.103 40.3291 147.401 40.5306 146.966 40.9335C146.532 41.3363 146.314 41.9906 146.314 42.8963V48.4371Z" fill="url(#paint8_linear_5827_6746)"/>
<path d="M167.108 44.8752L171.17 44.8645V44.9072C171.17 45.2566 171.335 45.5116 171.665 45.6721C171.995 45.8325 172.523 45.9128 173.251 45.9128H176.05C176.609 45.9128 177.003 45.8467 177.232 45.7148C177.461 45.5829 177.575 45.36 177.575 45.0463C177.575 44.7611 177.452 44.5453 177.207 44.3992C176.961 44.2529 176.562 44.1621 176.009 44.1264L172.22 44.0515C170.307 44.0444 168.984 43.7841 168.25 43.2706C167.515 42.7572 167.148 41.8872 167.148 40.6607C167.148 39.3629 167.546 38.4322 168.341 37.8689C169.135 37.3055 170.469 37.0239 172.342 37.0239H176.686C178.074 37.0239 179.101 37.2948 179.768 37.8368C180.435 38.3788 180.775 39.2167 180.788 40.3505H176.959C176.865 40.1365 176.659 39.9743 176.343 39.8638C176.026 39.7533 175.598 39.698 175.06 39.698H172.382C171.87 39.698 171.511 39.7533 171.306 39.8638C171.101 39.9743 170.998 40.158 170.998 40.4147C170.998 40.6786 171.106 40.8675 171.321 40.9816C171.537 41.0957 172.028 41.1777 172.796 41.2276H177.474C178.842 41.249 179.842 41.5467 180.475 42.1208C181.108 42.6948 181.425 43.588 181.425 44.8003C181.425 46.1837 181.073 47.1606 180.369 47.7311C179.665 48.3016 178.424 48.5868 176.646 48.5868H172.756C170.56 48.5868 169.075 48.3159 168.3 47.7739C167.526 47.2319 167.128 46.2657 167.108 44.8752Z" fill="url(#paint9_linear_5827_6746)"/>
<defs>
<linearGradient id="paint0_linear_5827_6746" x1="12.2287" y1="32.5099" x2="12.2287" y2="48.4371" gradientUnits="userSpaceOnUse">
<stop stop-color="#006241"/>
<stop offset="1" stop-color="#006241" stop-opacity="0.32"/>
</linearGradient>
<linearGradient id="paint1_linear_5827_6746" x1="33.3706" y1="37.1736" x2="33.3706" y2="52.2451" gradientUnits="userSpaceOnUse">
<stop stop-color="#006241"/>
<stop offset="1" stop-color="#006241" stop-opacity="0.32"/>
</linearGradient>
<linearGradient id="paint2_linear_5827_6746" x1="50.3296" y1="32.5099" x2="50.3296" y2="48.4371" gradientUnits="userSpaceOnUse">
<stop stop-color="#006241"/>
<stop offset="1" stop-color="#006241" stop-opacity="0.32"/>
</linearGradient>
<linearGradient id="paint3_linear_5827_6746" x1="66.2985" y1="37.0024" x2="66.2985" y2="48.4371" gradientUnits="userSpaceOnUse">
<stop stop-color="#006241"/>
<stop offset="1" stop-color="#006241" stop-opacity="0.32"/>
</linearGradient>
<linearGradient id="paint4_linear_5827_6746" x1="80.1707" y1="37.0239" x2="80.1707" y2="48.5868" gradientUnits="userSpaceOnUse">
<stop stop-color="#006241"/>
<stop offset="1" stop-color="#006241" stop-opacity="0.32"/>
</linearGradient>
<linearGradient id="paint5_linear_5827_6746" x1="95.8113" y1="37.0239" x2="95.8113" y2="48.5868" gradientUnits="userSpaceOnUse">
<stop stop-color="#006241"/>
<stop offset="1" stop-color="#006241" stop-opacity="0.32"/>
</linearGradient>
<linearGradient id="paint6_linear_5827_6746" x1="114.715" y1="32.3174" x2="114.715" y2="48.6297" gradientUnits="userSpaceOnUse">
<stop stop-color="#006241"/>
<stop offset="1" stop-color="#006241" stop-opacity="0.32"/>
</linearGradient>
<linearGradient id="paint7_linear_5827_6746" x1="132.998" y1="37.0239" x2="132.998" y2="48.5868" gradientUnits="userSpaceOnUse">
<stop stop-color="#006241"/>
<stop offset="1" stop-color="#006241" stop-opacity="0.32"/>
</linearGradient>
<linearGradient id="paint8_linear_5827_6746" x1="153.64" y1="37.0667" x2="153.64" y2="48.4371" gradientUnits="userSpaceOnUse">
<stop stop-color="#006241"/>
<stop offset="1" stop-color="#006241" stop-opacity="0.32"/>
</linearGradient>
<linearGradient id="paint9_linear_5827_6746" x1="174.266" y1="37.0239" x2="174.266" y2="48.5868" gradientUnits="userSpaceOnUse">
<stop stop-color="#006241"/>
<stop offset="1" stop-color="#006241" stop-opacity="0.32"/>
</linearGradient>
</defs>
</svg>
