<svg width="228" height="48" viewBox="0 0 228 48" fill="none" xmlns="http://www.w3.org/2000/svg">
<g clip-path="url(#clip0_5827_6744)">
<path opacity="0.8" d="M18 5.60919C15.0333 5.60919 12.1332 6.48893 9.66645 8.13715C7.19972 9.78537 5.27713 12.128 4.14181 14.8689C3.0065 17.6098 2.70945 20.6258 3.28823 23.5355C3.86701 26.4453 5.29562 29.118 7.3934 31.2158C9.49119 33.3136 12.1639 34.7422 15.0737 35.321C17.9834 35.8998 20.9994 35.6027 23.7403 34.4674C26.4811 33.3321 28.8238 31.4095 30.472 28.9427C32.1203 26.476 33 23.5759 33 20.6092C33 16.6309 31.4197 12.8156 28.6066 10.0026C25.7936 7.18954 21.9783 5.60919 18 5.60919ZM18 25.1092C17.11 25.1092 16.24 24.8453 15.4999 24.3508C14.7599 23.8563 14.1831 23.1535 13.8425 22.3313C13.502 21.509 13.4128 20.6042 13.5865 19.7313C13.7601 18.8584 14.1887 18.0565 14.818 17.4272C15.4474 16.7979 16.2492 16.3693 17.1221 16.1957C17.995 16.022 18.8998 16.1111 19.7221 16.4517C20.5443 16.7923 21.2472 17.3691 21.7416 18.1091C22.2361 18.8491 22.5 19.7192 22.5 20.6092C22.5008 21.2004 22.3849 21.7859 22.1591 22.3322C21.9332 22.8785 21.6018 23.3749 21.1837 23.7929C20.7657 24.211 20.2693 24.5424 19.723 24.7683C19.1767 24.9941 18.5912 25.11 18 25.1092Z" fill="url(#paint0_linear_5827_6744)"/>
<path d="M34.86 16.8592C38.6712 17.956 43.17 16.8592 43.17 16.8592C41.8644 22.5592 37.7244 26.1292 31.7544 26.5636C30.5968 29.2507 28.677 31.5395 26.2325 33.1472C23.7879 34.7548 20.9258 35.6108 18 35.6092L22.5 21.3064C27.126 6.60519 29.4972 5.60919 40.4676 5.60919H48C46.74 11.1592 42.3972 15.3988 34.86 16.8592Z" fill="url(#paint1_linear_5827_6744)"/>
<path opacity="0.8" d="M75.7415 5.9692C67.3595 5.9692 63.1799 12.154 63.1799 20.5888C63.1799 29.1208 67.2959 35.2492 75.7415 35.2492C84.1271 35.2492 88.3415 29.1292 88.3415 20.5948C88.3439 12.01 84.2999 5.9692 75.7415 5.9692ZM75.7415 30.4084C70.9415 30.4084 70.1015 25.39 70.1015 20.5852C70.1015 15.7444 70.8947 10.8016 75.7415 10.8016C80.5883 10.8016 81.4199 15.712 81.4199 20.5888C81.4199 25.4956 80.6363 30.412 75.7415 30.412V30.4084ZM104.388 12.496C101.662 12.496 99.6191 13.654 97.8659 15.7168L97.7135 14.8492C97.6322 14.3825 97.3887 13.9594 97.0261 13.6545C96.6635 13.3496 96.2049 13.1824 95.7311 13.1824H91.8671V33.5524C91.867 33.6847 91.8929 33.8156 91.9434 33.9379C91.994 34.0601 92.0681 34.1711 92.1617 34.2647C92.2552 34.3582 92.3662 34.4323 92.4885 34.4829C92.6107 34.5334 92.7417 34.5594 92.8739 34.5592H98.2283V20.5636C98.2237 20.1588 98.3449 19.7626 98.5751 19.4296C99.6503 17.92 100.77 17.1656 101.935 17.1664C103.601 17.1664 103.948 18.3724 103.948 20.0248V33.5524C103.948 33.8194 104.054 34.0755 104.242 34.2643C104.431 34.4531 104.687 34.5592 104.954 34.5592H110.309V18.9388C110.306 14.7112 107.971 12.496 104.388 12.496ZM122.286 30.1756C122.173 30.1961 122.058 30.2077 121.943 30.2104C121.216 30.2104 120.854 29.768 120.856 28.8832V4L115.392 4.5892C115.145 4.61583 114.917 4.73274 114.751 4.91747C114.585 5.1022 114.493 5.34171 114.493 5.59V29.1292C114.493 33.172 116.773 35.2492 120.373 35.2492C121.697 35.2697 123.011 35.0249 124.238 34.5292L123.197 30.7648C123.146 30.5706 123.024 30.4025 122.856 30.2935C122.687 30.1844 122.484 30.1424 122.286 30.1756ZM138.9 13.18C138.674 13.1799 138.455 13.2559 138.277 13.3957C138.1 13.5354 137.975 13.7308 137.922 13.9504L133.92 30.4924L130.26 13.9696C130.21 13.7458 130.086 13.5455 129.907 13.4019C129.729 13.2584 129.506 13.1801 129.277 13.18H123.322L129.42 33.1336C129.546 33.5452 129.8 33.9057 130.145 34.1623C130.491 34.4188 130.91 34.558 131.34 34.5592H132.023C130.72 37.6972 128.755 38.5516 125.138 39.0292L125.682 42.5716C125.719 42.8248 125.851 43.0543 126.052 43.213C126.253 43.3716 126.507 43.4474 126.762 43.4248C132.402 42.8596 136.134 40.1656 137.866 34.6L144.67 13.18H138.9Z" fill="url(#paint2_linear_5827_6744)"/>
<path d="M147.352 7.66476V34.5592H152.947C153.214 34.5592 153.47 34.4531 153.659 34.2643C153.848 34.0755 153.954 33.8194 153.954 33.5524V23.4892H160.074C160.446 23.4895 160.806 23.352 161.083 23.1032C161.36 22.8544 161.535 22.5119 161.575 22.1416L161.935 18.7816H153.958V11.3692H161.998C162.36 11.3694 162.711 11.2389 162.986 11.0015C163.26 10.7642 163.44 10.4358 163.492 10.0768L163.98 6.65796H148.358C148.226 6.65796 148.095 6.684 147.973 6.7346C147.851 6.78519 147.74 6.85935 147.646 6.95284C147.553 7.04633 147.479 7.15732 147.428 7.27947C147.378 7.40162 147.352 7.53254 147.352 7.66476ZM184.324 27.3928V13.18H180.457C179.992 13.18 179.541 13.3412 179.181 13.6361C178.821 13.931 178.575 14.3414 178.483 14.7976L178.445 14.992C177.102 13.3288 175.846 12.496 173.671 12.496C167.806 12.496 164.773 17.7472 164.773 23.8096C164.773 29.8504 167 35.2432 173.027 35.2432C175.627 35.2432 177.366 33.9016 178.768 31.9828C179.358 33.0976 180.253 33.8404 181.314 34.3564C181.662 34.5234 182.04 34.6173 182.426 34.6323C182.812 34.6473 183.196 34.5831 183.556 34.4437C183.916 34.3042 184.243 34.0925 184.518 33.8216C184.793 33.5506 185.009 33.2262 185.154 32.8684L186.048 30.6544C184.62 29.9332 184.324 29.0344 184.324 27.3928ZM177.586 28.8064C176.768 29.9848 176.059 30.574 174.799 30.574C171.738 30.574 171.376 26.9224 171.376 23.854C171.376 20.7856 172.013 17.134 175.08 17.134C176.026 17.134 176.575 17.4136 177.416 18.3004C177.767 18.6724 177.962 19.1644 177.961 19.6756V27.6436C177.956 28.0602 177.825 28.4655 177.586 28.8064ZM198.035 13.3012C196.976 13.8388 195.989 14.644 195.076 15.7168L194.924 14.8468C194.843 14.3799 194.599 13.9568 194.236 13.652C193.873 13.3471 193.415 13.1799 192.941 13.18H189.077V33.5524C189.077 33.8194 189.183 34.0755 189.372 34.2643C189.56 34.4531 189.817 34.5592 190.084 34.5592H195.438V20.5636C195.433 20.1588 195.555 19.7625 195.785 19.4296C196.86 17.92 197.98 17.1656 199.145 17.1664C200.81 17.1664 201.158 18.3724 201.158 20.0248V33.5524C201.158 33.6846 201.184 33.8155 201.235 33.9376C201.286 34.0598 201.36 34.1708 201.453 34.2643C201.547 34.3578 201.658 34.4319 201.78 34.4825C201.902 34.5331 202.033 34.5592 202.165 34.5592H207.52V18.9376C207.517 12.472 201.862 11.3692 198.035 13.3012ZM218.737 20.4268C217.844 20.0392 217.256 19.69 217.211 18.7744C217.169 17.944 217.832 17.2264 218.658 17.1184C220.552 16.8712 222.43 17.248 224.292 18.2488C224.512 18.3609 224.766 18.3869 225.004 18.3216C225.242 18.2564 225.447 18.1046 225.58 17.896L227.394 15.1132C225.188 13.3132 222.365 12.496 219.542 12.496C215.06 12.496 210.805 14.7208 210.805 19.018C210.805 24.898 217.375 25.5376 220.066 26.6476C221.113 27.0808 221.606 27.5116 221.635 28.582C221.642 29.0572 221.478 29.5191 221.174 29.8843C220.87 30.2496 220.445 30.4942 219.977 30.574C217.714 30.946 215.567 30.4516 213.536 29.0908C213.336 28.9625 213.097 28.9104 212.862 28.9442C212.627 28.9779 212.412 29.0951 212.256 29.2744L209.76 32.062C212.135 34.2628 215.485 35.2492 218.7 35.2492C223.53 35.2492 228.202 32.9812 228.202 28.204C228.199 22.2772 222.527 22.0756 218.737 20.4268Z" fill="url(#paint3_linear_5827_6744)"/>
</g>
<defs>
<linearGradient id="paint0_linear_5827_6744" x1="3" y1="20.6092" x2="33" y2="20.6092" gradientUnits="userSpaceOnUse">
<stop stop-color="#0092D1"/>
<stop offset="1" stop-color="#0092D1" stop-opacity="0.32"/>
</linearGradient>
<linearGradient id="paint1_linear_5827_6744" x1="18" y1="20.6092" x2="48" y2="20.6092" gradientUnits="userSpaceOnUse">
<stop stop-color="#00AFF0"/>
<stop offset="1" stop-color="#00AFF0" stop-opacity="0.32"/>
</linearGradient>
<linearGradient id="paint2_linear_5827_6744" x1="63.1799" y1="23.7144" x2="144.67" y2="23.7144" gradientUnits="userSpaceOnUse">
<stop stop-color="#0092D1"/>
<stop offset="1" stop-color="#0092D1" stop-opacity="0.32"/>
</linearGradient>
<linearGradient id="paint3_linear_5827_6744" x1="147.352" y1="20.9536" x2="228.202" y2="20.9536" gradientUnits="userSpaceOnUse">
<stop stop-color="#0092D1"/>
<stop offset="1" stop-color="#0092D1" stop-opacity="0.32"/>
</linearGradient>
<clipPath id="clip0_5827_6744">
<rect width="228" height="48" fill="white"/>
</clipPath>
</defs>
</svg>
