<svg width="214" height="61" viewBox="0 0 214 61" fill="none" xmlns="http://www.w3.org/2000/svg">
<path fill-rule="evenodd" clip-rule="evenodd" d="M62.4477 33.5143H58.2811C58.263 34.7805 58.4822 35.8741 58.939 36.7951C59.3959 37.716 60.0126 38.4738 60.7894 39.0686C61.566 39.6634 62.4615 40.0999 63.4757 40.378C64.4899 40.6564 65.536 40.7953 66.6142 40.7953C67.9481 40.7953 69.1222 40.6324 70.1364 40.3062C71.1506 39.9799 72.0003 39.5242 72.6856 38.9391C73.3708 38.354 73.887 37.6583 74.2344 36.8526C74.5815 36.0468 74.7552 35.1738 74.7552 34.2337C74.7552 33.0825 74.5221 32.1375 74.0561 31.3989C73.5901 30.6603 73.0373 30.0703 72.3978 29.629C71.7581 29.1877 71.114 28.8664 70.4653 28.6649C69.8167 28.4634 69.3094 28.3242 68.9439 28.2476C67.7197 27.9215 66.7283 27.6528 65.9699 27.4418C65.2115 27.2306 64.6178 27.0197 64.1883 26.8087C63.7588 26.5975 63.4711 26.3674 63.3248 26.1179C63.1787 25.8684 63.1055 25.5422 63.1055 25.1395C63.1055 24.6981 63.1969 24.3335 63.3795 24.0459C63.5624 23.758 63.7954 23.5182 64.0786 23.3262C64.3617 23.1344 64.6771 23.0001 65.0242 22.9234C65.3716 22.8466 65.7187 22.8082 66.0658 22.8082C66.5958 22.8082 67.0846 22.8563 67.5325 22.9523C67.9801 23.0481 68.3776 23.2112 68.7247 23.4414C69.072 23.6717 69.3506 23.9882 69.5609 24.3912C69.7709 24.7939 69.8942 25.3024 69.9308 25.9164H74.0973C74.0973 24.727 73.8827 23.7149 73.4532 22.8803C73.0237 22.0456 72.4436 21.3597 71.7126 20.8225C70.9815 20.2853 70.1456 19.8968 69.2043 19.6569C68.2633 19.4171 67.281 19.2972 66.2579 19.2972C65.3805 19.2972 64.5034 19.4219 63.6263 19.6713C62.7492 19.9207 61.9634 20.3045 61.269 20.8225C60.5745 21.3405 60.0126 21.988 59.5833 22.7651C59.1539 23.5422 58.939 24.4583 58.939 25.5136C58.939 26.4537 59.1081 27.2546 59.4462 27.9166C59.7842 28.5786 60.2274 29.1302 60.7756 29.5713C61.3237 30.0126 61.9451 30.3725 62.6395 30.6506C63.334 30.929 64.0466 31.1639 64.7776 31.3557C65.4903 31.5667 66.1937 31.7587 66.8882 31.9314C67.5826 32.104 68.2039 32.3055 68.7521 32.5357C69.3005 32.766 69.7435 33.0538 70.0816 33.3991C70.4196 33.7444 70.5886 34.1952 70.5886 34.7517C70.5886 35.2696 70.4607 35.6966 70.2049 36.0325C69.9491 36.3681 69.6294 36.6319 69.2455 36.8237C68.8618 37.0157 68.4507 37.1452 68.0121 37.2124C67.5734 37.2796 67.1623 37.313 66.7786 37.313C66.2121 37.313 65.6639 37.241 65.1339 37.0972C64.604 36.9534 64.1425 36.7328 63.7496 36.4352C63.3567 36.138 63.0416 35.7495 62.804 35.2696C62.5664 34.79 62.4477 34.2049 62.4477 33.5143ZM81.6353 23.5854V40.3348H85.9388V23.5854H91.8047V19.7864H75.7694V23.5854H81.6353ZM98.356 29.0822V23.2976H103.071C104.057 23.2976 104.797 23.5228 105.291 23.9739C105.784 24.4246 106.031 25.1489 106.031 26.1467C106.031 27.1826 105.784 27.9309 105.291 28.3914C104.797 28.8519 104.057 29.0822 103.071 29.0822H98.356ZM94.0524 19.7864V40.3348H98.356V32.3055H102.659C103.738 32.3055 104.514 32.5548 104.989 33.0538C105.464 33.5526 105.775 34.3392 105.921 35.4137C106.031 36.2386 106.113 37.1021 106.168 38.0039C106.223 38.9054 106.369 39.6826 106.606 40.3348H110.91C110.709 40.047 110.558 39.6969 110.458 39.2844C110.357 38.8719 110.284 38.4355 110.238 37.975C110.193 37.5145 110.161 37.0637 110.142 36.6224C110.124 36.1811 110.106 35.7973 110.088 35.4711C110.051 34.9532 109.983 34.435 109.882 33.9171C109.782 33.3991 109.622 32.9241 109.402 32.4925C109.183 32.0609 108.9 31.6867 108.553 31.37C108.206 31.0536 107.767 30.8186 107.237 30.6651V30.6074C108.334 30.147 109.124 29.4755 109.608 28.5929C110.092 27.7103 110.335 26.6647 110.335 25.4559C110.335 24.6693 110.202 23.9355 109.937 23.2544C109.672 22.5733 109.288 21.9737 108.786 21.4556C108.283 20.9376 107.68 20.5299 106.977 20.2325C106.273 19.9351 105.483 19.7864 104.606 19.7864H94.0524ZM113.843 19.7864V40.3348H118.147V19.7864H113.843ZM126.233 29.4564V23.2976H129.577C130.07 23.2976 130.545 23.3359 131.002 23.4127C131.459 23.4894 131.861 23.638 132.208 23.8587C132.555 24.0793 132.834 24.3912 133.044 24.7939C133.254 25.1969 133.36 25.7246 133.36 26.3769C133.36 27.0291 133.254 27.5568 133.044 27.9598C132.834 28.3628 132.555 28.6744 132.208 28.895C131.861 29.1157 131.459 29.2643 131.002 29.3412C130.545 29.4178 130.07 29.4564 129.577 29.4564H126.233ZM121.929 19.7864V40.3348H126.233V32.9673H130.756C131.98 32.9673 133.021 32.7803 133.88 32.4062C134.739 32.032 135.438 31.5381 135.977 30.9241C136.516 30.3101 136.909 29.605 137.156 28.8087C137.403 28.0126 137.526 27.202 137.526 26.3769C137.526 25.5328 137.403 24.7173 137.156 23.9307C136.909 23.1441 136.516 22.4438 135.977 21.8298C135.438 21.2158 134.739 20.7218 133.88 20.3476C133.021 19.9735 131.98 19.7864 130.756 19.7864H121.929ZM154.219 25.9741H156.823C156.677 24.8805 156.366 23.9164 155.891 23.0818C155.416 22.2471 154.822 21.5516 154.11 20.9952C153.397 20.4388 152.584 20.0167 151.67 19.7289C150.756 19.4411 149.788 19.2972 148.764 19.2972C147.266 19.2972 145.937 19.5802 144.776 20.1462C143.616 20.7122 142.647 21.4844 141.871 22.4629C141.094 23.4414 140.505 24.5878 140.103 25.9021C139.701 27.2163 139.5 28.6217 139.5 30.1183C139.5 31.6147 139.687 33.0153 140.062 34.3201C140.436 35.6246 140.998 36.7568 141.747 37.716C142.497 38.6753 143.438 39.4284 144.571 39.9752C145.704 40.522 147.028 40.7953 148.545 40.7953C151.049 40.7953 153.022 40.0759 154.466 38.637C155.91 37.1979 156.759 35.1833 157.015 32.5934H154.411C154.356 33.4374 154.192 34.2241 153.918 34.9532C153.644 35.6823 153.265 36.3106 152.78 36.8382C152.296 37.3659 151.72 37.7784 151.053 38.0756C150.386 38.3732 149.623 38.5218 148.764 38.5218C147.595 38.5218 146.59 38.2917 145.749 37.8312C144.909 37.3707 144.219 36.7519 143.68 35.9748C143.141 35.1979 142.743 34.2864 142.487 33.2408C142.232 32.1952 142.104 31.0871 142.104 29.9168C142.104 28.8424 142.232 27.8063 142.487 26.8087C142.743 25.8109 143.141 24.9236 143.68 24.1465C144.219 23.3694 144.904 22.7508 145.736 22.2903C146.567 21.8298 147.568 21.5995 148.737 21.5995C150.108 21.5995 151.291 21.9641 152.287 22.6931C153.283 23.4222 153.927 24.5158 154.219 25.9741ZM160.25 19.7864V40.3348H162.854V30.9241H173.16V40.3348H175.764V19.7864H173.16V28.6217H162.854V19.7864H160.25ZM183.412 31.8451L186.729 22.2614H186.783L190.045 31.8451H183.412ZM185.358 19.7864L177.738 40.3348H180.397L182.589 34.1474H190.868L193.006 40.3348H195.884L188.236 19.7864H185.358ZM202.243 22.0888V40.3348H204.847V22.0888H211.371V19.7864H195.719V22.0888H202.243Z" fill="url(#paint0_linear_5827_6749)" fill-opacity="0.55"/>
<path fill-rule="evenodd" clip-rule="evenodd" d="M16.8344 47.1433C16.8344 47.1433 16.576 47.0935 16.5289 47.0801C15.7729 46.8654 14.9902 47.077 14.4298 47.367C13.8838 47.65 14.1157 47.5324 14.1157 47.5324C13.2046 48.012 12.2393 48.4547 11.2262 48.8603C8.47321 49.9627 5.49363 50.7502 2.49392 51.2653C2.75966 50.8438 3.00459 50.4399 3.22714 50.0543C3.8278 49.0136 4.59759 47.5302 5.49616 45.7154C5.49616 45.7154 6.23718 44.341 6.5326 43.622C6.82562 42.9087 6.48729 42.2358 6.06598 41.8006C5.64467 41.3657 4.78867 40.3886 4.78867 40.3886C1.69006 36.9627 0 32.7471 0 28.3233C0 17.8194 9.62189 9 21.7879 9C33.9537 9 43.5757 17.8194 43.5757 28.3233C43.5757 38.2527 34.9777 46.6766 23.7605 47.5687C23.5132 47.5883 23.0159 47.3853 23.0102 46.744C22.977 42.8902 22.9431 35.1967 22.9431 35.1967C22.9431 34.8354 23.1799 34.3943 23.4717 34.2115L31.937 23.908C32.0308 23.7939 31.9537 23.6164 31.8106 23.6167L11.3377 23.6272C11.1945 23.6272 11.1177 23.8047 11.2114 23.9188L19.6579 34.1985C19.9469 34.3886 20.1812 34.8363 20.1812 35.1967C20.1812 35.1967 20.1712 42.9131 20.195 46.7711C20.1985 47.3617 19.6391 47.5877 19.3655 47.5582C18.5102 47.4659 17.6821 47.3188 16.8344 47.1433Z" fill="url(#paint1_linear_5827_6749)" fill-opacity="0.55"/>
<defs>
<linearGradient id="paint0_linear_5827_6749" x1="58.2801" y1="30.0463" x2="211.371" y2="30.0463" gradientUnits="userSpaceOnUse">
<stop stop-color="#D61A3C"/>
<stop offset="1" stop-color="#D61A3C"/>
</linearGradient>
<linearGradient id="paint1_linear_5827_6749" x1="0" y1="30.1326" x2="43.5757" y2="30.1326" gradientUnits="userSpaceOnUse">
<stop stop-color="#D61A3C"/>
<stop offset="1" stop-color="#D61A3C"/>
</linearGradient>
</defs>
</svg>
